<svg width="200" height="325" viewBox="0 0 200 325" fill="none" xmlns="http://www.w3.org/2000/svg">
<g clip-path="url(#clip0_9:278)">
<path d="M55.0534 165.226C54.2786 167.882 52.5548 170.161 50.2092 171.631C48.736 172.597 34.5218 168.77 28.5934 168.417C24.9868 168.205 24.315 165.555 21.227 162.376C18.139 159.197 15.051 155.146 11.9984 157.078C9.20508 158.832 11.8216 159.951 13.5306 162.541C14.064 163.349 14.5519 164.187 14.9921 165.049C14.9921 165.049 5.56315 159.256 2.79339 162.164C0.0236359 165.073 9.24044 167.145 9.24044 167.145C9.24044 167.145 0.554008 165.52 0.0236282 168.664C-0.506752 171.808 9.45258 172.196 9.45258 172.196C9.45258 172.196 0.306496 171.831 0.801521 174.834C1.29654 177.837 10.2305 176.706 10.2305 176.706C10.2305 176.706 3.40625 177.884 4.20771 180.239C5.00917 182.594 18.0094 184.101 23.6314 179.626C23.6314 179.626 42.4893 186.056 54.1223 186.468C67.6057 186.939 72.8623 169.453 72.8623 169.453L55.0534 165.226Z" fill="#FECC8D"/>
<path d="M4.21925 180.274C12.835 182.535 22.2639 177.566 23.914 177.919C25.564 178.273 43.7737 184.313 53.2027 182.17C62.6316 180.027 63.3388 170.607 63.3388 170.607L72.3906 169.43L72.8149 169.524C72.8149 169.524 67.5583 187.01 54.0749 186.539C42.4301 186.126 23.584 179.697 23.584 179.697C18.0209 184.137 5.02071 182.559 4.21925 180.274Z" fill="#FAAC73"/>
<path d="M146.479 151.696C149.456 151.451 152.448 151.451 155.424 151.696C157.192 151.849 167.211 141.664 172.432 139.392C175.744 137.943 174.789 134.846 176.05 130.584C177.311 126.321 178.066 121.305 181.672 121.564C184.972 121.788 183.193 124.014 182.922 127.099C182.83 128.061 182.794 129.028 182.816 129.995C182.816 129.995 188.367 120.446 192.244 121.694C196.122 122.942 188.921 129.124 188.921 129.124C188.921 129.124 195.816 123.59 197.76 126.109C199.705 128.629 191.101 133.728 191.101 133.728C191.101 133.728 198.986 129.077 199.964 131.962C200.943 134.846 192.574 138.049 192.574 138.049C192.574 138.049 199.163 135.883 199.54 138.285C199.917 140.687 189.215 148.199 182.132 146.928C182.132 146.928 171.666 162.235 160.516 165.661C149.366 169.088 142.837 166.839 142.837 166.839L146.479 151.696Z" fill="#FECC8D"/>
<path d="M155.425 151.72C157.192 151.873 167.211 141.688 172.432 139.415C175.744 137.967 174.789 134.87 176.05 130.608C177.311 126.345 178.066 121.329 181.672 121.588C180.364 124.214 177.441 130.407 177.076 134.635C176.604 140.122 176.84 141.558 172.361 142.748C167.883 143.937 162.095 152.05 159.231 153.957C156.367 155.865 154.706 161.34 155.413 163.248C156.037 164.908 168.048 160.787 174.777 155.759C170.841 159.821 165.737 164.096 160.469 165.685C149.319 169.041 142.79 166.863 142.79 166.863L146.514 151.661C149.481 151.437 152.461 151.457 155.425 151.72Z" fill="#FAAC73"/>
<path d="M166.869 120.057C166.869 120.057 160.822 122.636 157.829 131.703C156.933 134.458 148.801 130.796 146.726 122.283C144.652 113.769 161.424 105.244 161.424 105.244H170.605L166.869 120.057Z" fill="#5D2016"/>
<path d="M166.103 100.323C166.103 100.323 180.494 103.078 174.872 114.594C169.25 126.11 157.275 120.222 157.275 120.222C157.275 120.222 152.301 134.894 112.051 138.744C71.8015 142.595 43.1257 111.756 39.1066 80.8586C35.0875 49.9612 58.3181 24.4449 59.2727 24.3389C60.2274 24.233 103.872 24.7746 103.872 24.7746L141.588 34.9952L160.233 54.2237L166.103 100.323Z" fill="#FECC8D"/>
<path d="M112.051 138.791C84.2242 141.452 61.9248 127.522 49.4903 108.447C62.1959 119.304 76.8697 139.38 115.823 133.975C152.125 128.924 152.584 98.5797 150.38 91.2792C148.176 83.9788 144.699 75.0415 146.656 64.4559C146.656 64.4559 117.013 63.9967 97.5426 55.2479C78.0719 46.4991 54.028 54.1646 52.4251 67.5998C50.8222 81.035 47.852 94.2111 41.6761 92.1976C40.4788 88.5191 39.6188 84.7396 39.1067 80.9055C35.0994 49.9963 58.3182 24.4918 59.2729 24.3858C60.2275 24.2798 103.872 24.8215 103.872 24.8215L141.588 35.0421L160.233 54.2706L164.488 87.9351L162.815 92.9159C162.815 92.9159 163.133 107.764 157.228 120.257C156.98 120.775 156.674 121.294 156.391 121.812C153.892 125.686 144.287 135.706 112.051 138.791Z" fill="#FAAC73"/>
<path d="M68.5248 70.5319C80.0045 72.0627 82.6682 89.1834 73.31 96.319C63.9517 103.455 53.0495 92.0212 54.5699 81.2353C56.0903 70.4495 63.7396 69.849 68.5248 70.5319Z" fill="white"/>
<path d="M119.594 71.9331C133.172 73.558 135.423 84.3438 128.823 95.8126C122.223 107.281 106.158 101.3 103.365 90.5728C102.695 88.2134 102.625 85.7245 103.16 83.3311C103.695 80.9377 104.819 78.7153 106.43 76.865C108.041 75.0147 110.089 73.5947 112.387 72.7336C114.686 71.8725 117.163 71.5974 119.594 71.9331Z" fill="white"/>
<path d="M112.372 90.4749C110.039 87.7358 110.371 83.6263 113.113 81.296C115.854 78.9657 119.968 79.297 122.3 82.0361C124.633 84.7752 124.301 88.8847 121.56 91.215C118.818 93.5453 114.705 93.2139 112.372 90.4749Z" fill="#5D2016"/>
<path d="M116.848 83.9789C116.808 84.5269 116.931 85.0745 117.202 85.5526C117.473 86.0307 117.88 86.4178 118.371 86.665C118.862 86.9121 119.416 87.0082 119.962 86.9412C120.508 86.8741 121.021 86.6469 121.438 86.2882C121.855 85.9296 122.155 85.4556 122.303 84.9261C122.45 84.3967 122.436 83.8356 122.264 83.3137C122.092 82.7918 121.769 82.3326 121.336 81.9941C120.903 81.6556 120.379 81.453 119.83 81.412C119.465 81.3831 119.098 81.4267 118.75 81.5404C118.403 81.6541 118.081 81.8355 117.803 82.0742C117.526 82.3129 117.299 82.6041 117.135 82.9311C116.971 83.258 116.874 83.6141 116.848 83.9789Z" fill="white"/>
<path d="M113.041 89.7014C113.019 89.8684 113.034 90.0382 113.083 90.1992C113.132 90.3602 113.216 90.5088 113.327 90.6349C113.439 90.7611 113.576 90.8618 113.73 90.9303C113.884 90.9988 114.051 91.0335 114.22 91.032C114.466 91.0454 114.71 90.9858 114.923 90.8607C115.135 90.7356 115.305 90.5506 115.413 90.329C115.52 90.1074 115.559 89.8591 115.525 89.6152C115.492 89.3714 115.387 89.1429 115.223 88.9585C115.06 88.7742 114.846 88.6423 114.608 88.5792C114.37 88.5162 114.118 88.5249 113.885 88.6043C113.652 88.6837 113.447 88.8302 113.297 89.0255C113.147 89.2207 113.058 89.4559 113.041 89.7014Z" fill="white"/>
<path d="M62.0543 83.0014C61.9755 84.0677 62.2151 85.1334 62.7427 86.0637C63.2703 86.994 64.0622 87.747 65.0183 88.2275C65.9744 88.708 67.0517 88.8945 68.1138 88.7632C69.176 88.6319 70.1753 88.1888 70.9853 87.4899C71.7953 86.7911 72.3797 85.868 72.6644 84.8373C72.9491 83.8066 72.9215 82.7147 72.5849 81.6997C72.2483 80.6847 71.618 79.7923 70.7736 79.1353C69.9293 78.4783 68.9088 78.0863 67.8414 78.0088C66.4115 77.9051 64.9988 78.3727 63.9137 79.3088C62.8287 80.2449 62.1599 81.573 62.0543 83.0014Z" fill="#5D2016"/>
<path d="M67.0282 81.5415C66.9843 82.0091 67.0813 82.4792 67.3068 82.8914C67.5324 83.3035 67.8761 83.6389 68.2938 83.8544C68.7116 84.0698 69.1843 84.1555 69.6513 84.1005C70.1182 84.0455 70.558 83.8522 70.9141 83.5455C71.2703 83.2389 71.5265 82.8329 71.6498 82.3796C71.7732 81.9264 71.7581 81.4466 71.6064 81.002C71.4547 80.5574 71.1734 80.1683 70.7987 79.8846C70.4239 79.601 69.9728 79.4358 69.5033 79.4102C68.8951 79.3771 68.2976 79.5806 67.8362 79.9779C67.3747 80.3752 67.0852 80.9356 67.0282 81.5415Z" fill="white"/>
<path d="M63.8811 86.2515C63.8647 86.5238 63.9553 86.7918 64.1336 86.9985C64.3118 87.2052 64.5638 87.3343 64.8358 87.3583C65.1091 87.3778 65.3791 87.2884 65.5866 87.1097C65.7942 86.931 65.9226 86.6775 65.9437 86.4045C65.9566 86.2687 65.9419 86.1316 65.9004 86.0016C65.859 85.8715 65.7917 85.7512 65.7025 85.6478C65.6133 85.5445 65.5042 85.4601 65.3816 85.4C65.259 85.3398 65.1254 85.305 64.989 85.2977C64.8534 85.2865 64.7168 85.3023 64.5873 85.3443C64.4579 85.3864 64.3381 85.4538 64.2349 85.5426C64.1318 85.6313 64.0474 85.7398 63.9867 85.8615C63.9259 85.9832 63.89 86.1158 63.8811 86.2515Z" fill="white"/>
<path d="M122.258 63.1253C123.072 61.6181 133.172 62.4542 133.444 69.4838C133.62 73.9818 129.236 67.6705 126.867 67.1288C124.498 66.5872 121.292 64.9151 122.258 63.1253Z" fill="#5D2016"/>
<path d="M70.2929 60.0874C69.8451 58.4389 59.815 56.9317 57.941 63.7141C56.7624 68.0473 62.4551 62.9134 64.8831 62.937C67.311 62.9605 70.8233 62.0538 70.2929 60.0874Z" fill="#5D2016"/>
<path d="M97.9906 111.932C97.6017 109.707 92.0975 114.123 87.6895 112.121C83.2814 110.119 86.2516 118.468 91.2253 119.315C96.1991 120.163 98.6271 115.771 97.9906 111.932Z" fill="#F16275"/>
<path d="M93.1935 92.2213C89.8344 89.1009 80.2286 96.2837 82.7273 101.005C85.226 105.727 93.3349 103.466 94.2307 100.899C95.1264 98.3325 94.3132 93.2457 93.1935 92.2213Z" fill="#FAAC73"/>
<path d="M152.207 58.9805C152.207 58.9805 153.751 97.4139 166.068 100.322C176.769 102.842 176.192 111.932 173.222 117.302C173.222 117.302 183.947 114.794 191.302 92.2212C198.656 69.6486 191.585 52.4337 179.928 47.8297C179.928 47.8297 182.226 10.5031 125.169 1.69548C68.1124 -7.11218 39.908 19.5109 35.5943 53.0931C31.2805 86.6752 35.0285 93.5282 42.336 93.2338C49.6434 92.9394 39.8138 62.7838 62.8086 48.7952C85.8035 34.8066 116.129 59.9814 152.207 58.9805Z" fill="#5D2016"/>
<path d="M165.172 106.469C171.631 105.939 171.489 114.806 166.739 115.712C161.989 116.619 159.243 113.357 161.824 112.333C164.406 111.308 159.514 106.94 165.172 106.469Z" fill="#FAAC73"/>
<path d="M134.528 294.02C134.528 294.02 138.064 293.844 141.446 301.215C144.829 308.586 146.455 316.522 140.15 320.749C133.844 324.976 123.649 323.104 119.83 319.925C116.012 316.746 118.805 300.814 119.724 298.73C120.211 297.592 120.845 296.524 121.61 295.551L134.528 294.02Z" fill="#252525"/>
<path d="M138.063 258.507C138.063 258.507 135.529 291.347 135.541 294.903C135.553 298.459 140.421 307.703 130.78 309.928C121.139 312.153 121.975 299.896 121.622 295.598C121.268 291.3 113.972 258.248 113.972 258.248C113.972 258.248 133.879 259.861 138.063 258.507Z" fill="#FECC8D"/>
<path d="M144.381 310.434C144.381 310.434 146.455 314.473 145.277 317.817C144.216 320.796 141.022 323.811 132.913 324.823C124.804 325.836 119.312 322.468 118.18 319.584C117.049 316.699 116.695 305.148 117.909 301.627C118.522 299.861 120.09 297.965 119.736 298.777C118.817 300.814 118.463 314.002 121.245 317.911C124.026 321.821 132.878 321.668 135.824 320.855C143.214 318.818 143.804 314.897 144.381 310.434Z" fill="#151515"/>
<path d="M133.844 259.001C135.281 258.999 136.712 258.833 138.111 258.507C138.111 258.507 135.577 291.347 135.589 294.903C135.6 298.459 140.421 307.703 130.78 309.928C136.19 307.173 133.856 298.824 133.326 293.231C132.807 288.133 133.691 265.984 133.844 259.001Z" fill="#FAAC73"/>
<path d="M135.588 294.903C135.588 298.436 140.374 307.667 130.78 309.928C121.186 312.189 121.975 299.896 121.622 295.598C121.48 293.938 120.302 287.933 118.899 281.221C124.728 281.958 130.631 281.875 136.437 280.974C135.966 287.685 135.588 293.573 135.588 294.903Z" fill="white"/>
<path d="M120.974 299.637C120.974 299.637 123.001 296.104 136.296 297.141L137.25 300.838C137.25 300.838 124.958 300.708 121.021 303.935L120.974 299.637Z" fill="#252525"/>
<path d="M95.3032 253.679C95.3032 253.679 87.4065 288.686 86.0511 292.796C84.6956 296.905 69.6093 300.108 69.6093 300.108L63.9166 294.68L64.4705 293.431C66.9363 292.714 69.137 291.289 70.7997 289.334C72.9566 286.367 74.0881 249.511 74.0881 249.511L95.3032 253.679Z" fill="#FECC8D"/>
<path d="M82.8806 279.831C92.1209 264.854 82.6449 253.832 82.6449 253.832L84.2831 251.477L95.3032 253.644C95.3032 253.644 90.1998 276.275 87.489 287.273C82.4327 288.698 77.5178 288.533 82.8806 279.831Z" fill="#FAAC73"/>
<path d="M70.7996 289.334C71.6482 288.156 72.3318 281.774 72.8622 274.45C78.5077 277.488 85.768 277.606 89.8696 277.359C88.1606 284.624 86.5931 291.159 86.0509 292.796C84.6837 296.905 69.6092 300.108 69.6092 300.108L63.9164 294.68L64.4704 293.431C66.9361 292.714 69.1368 291.289 70.7996 289.334Z" fill="white"/>
<path d="M86.0512 292.796C82.6499 294.064 79.1492 295.049 75.5851 295.739C68.3837 297.317 66.7336 295.386 65.0836 293.455C63.4335 291.524 54.0163 292.607 51.8359 297.046C49.6555 301.485 55.3718 304.9 66.9105 307.408C78.4491 309.916 90.2 305.406 91.1664 303.252C92.1329 301.097 88.821 293.573 86.0512 292.796Z" fill="#252525"/>
<path d="M91.4018 302.298C85.3272 303.835 79.126 304.82 72.8739 305.242C60.3805 306.195 52.8373 300.791 51.3169 299.095C51.0727 299.376 50.8862 299.701 50.7683 300.054C50.6503 300.407 50.6031 300.779 50.6293 301.15C50.6556 301.521 50.7549 301.882 50.9214 302.215C51.0879 302.547 51.3185 302.844 51.5998 303.087C53.6506 305.1 62.0895 310.482 73.0742 309.151C84.059 307.82 90.6828 306.631 91.72 305.878C92.7572 305.124 92.7101 302.192 91.4018 302.298Z" fill="#151515"/>
<path d="M136.779 207.616C136.779 207.616 145.43 255.163 144.075 259.696C142.059 266.42 112.523 269.564 107.679 263.029C105.133 259.649 103.884 246.473 103.884 246.473C103.884 246.473 102.269 261.027 99.6053 262.793C94.3486 266.326 77.0465 261.733 70.1398 255.869C67.6529 253.738 69.9866 216.588 73.4399 209.17C76.8933 201.752 100.925 217.919 136.779 207.616Z" fill="#2C5CAA"/>
<path d="M92.4036 258.366C99.8406 253.656 101.95 233.638 102.634 235.134C103.318 236.629 103.883 246.473 103.883 246.473C103.883 246.473 102.269 261.027 99.6049 262.793C95.1733 265.737 82.1496 262.946 74.0642 258.472C79.2148 260.944 86.6755 261.945 92.4036 258.366Z" fill="#1E489E"/>
<path d="M113.984 211.148C121.703 210.952 129.364 209.765 136.779 207.616C136.779 207.616 145.43 255.163 144.075 259.696C142.059 266.42 112.523 269.564 107.679 263.029C110.731 265.595 119.159 265.678 127.032 262.087C134.905 258.495 137.121 245.955 132.524 233.356C127.928 220.757 114.916 211.348 113.984 211.148Z" fill="#1E489E"/>
<path d="M100.513 164.213C100.513 164.213 95.0084 151.496 108.881 143.466C122.753 135.435 151.311 148.635 153.032 149.542C154.753 150.448 152.443 168.711 150.05 169.806C145.866 171.714 130.497 161.905 124.273 165.873C118.05 169.842 102.387 164.637 100.513 164.213Z" fill="white"/>
<path d="M99.605 141.393C99.605 141.393 87.8188 138.52 72.426 143.03C57.0332 147.54 53.0142 166.403 52.5191 168.287C52.0241 170.171 70.4695 175.093 72.7089 173.727C74.9482 172.361 75.0661 160.033 82.2203 158.255C89.3746 156.477 98.6267 143.042 99.605 141.393Z" fill="white"/>
<path d="M119.064 136.354C119.064 136.354 117.155 140.769 117.638 143.419C118.121 146.068 100.512 148.741 100.512 148.741L93.5233 144.431C93.5233 144.431 90.9892 138.473 91.3192 136.883C91.6493 135.294 119.064 136.354 119.064 136.354Z" fill="#FAAC73"/>
<path d="M114.491 140.828C114.491 140.828 112.617 146.15 102.304 146.986C91.9912 147.822 93.488 140.31 93.488 140.31C93.488 140.31 78.8378 140.64 74.1586 154.64C69.4795 168.641 68.7841 207.792 69.9628 212.055C69.9628 212.055 99.9704 233.085 139.867 206.886C139.867 206.886 134.799 190.907 134.575 178.944C134.28 166.627 147.492 142.065 114.491 140.828Z" fill="white"/>
<path d="M107.09 155.7C107.09 155.7 114.633 194.334 115.776 197.631C116.919 200.928 103.459 214.516 100.631 215.093C97.802 215.67 88.597 203.106 87.7602 201.469C86.9234 199.832 100.855 154.723 100.855 154.723L107.09 155.7Z" fill="#2C5CAA"/>
<path d="M110.955 155.335C110.955 155.335 106.182 159.079 102.811 158.714C99.4401 158.349 95.8925 152.992 95.8925 152.992L100.348 147.351C100.348 147.351 100.831 146.374 104.732 147.198C108.633 148.023 112.9 151.92 110.955 155.335Z" fill="#1E489E"/>
<path d="M91.5905 185.75L111.957 204.79C110.391 206.681 108.723 208.485 106.96 210.194L89.6458 192.779C90.2115 190.66 90.9187 188.281 91.5905 185.75Z" fill="#1E489E"/>
<path d="M95.7157 171.69L113.737 188.776C114.703 193.321 115.469 196.771 115.776 197.654C115.874 198.009 115.874 198.383 115.776 198.737L93.9359 177.837C94.4545 175.741 95.1146 173.68 95.7157 171.69Z" fill="#1E489E"/>
<path d="M116.247 139.321C121.421 139.509 120.632 140.004 121.869 143.042C123.107 146.08 116.601 154.887 112.876 156.736C109.152 158.585 105.003 148.494 103.447 147.457C101.892 146.421 114.161 139.321 116.247 139.321Z" fill="#E6E7E8"/>
<path d="M94.0068 139.992C89.8934 139.992 90.471 140.369 89.3513 142.724C88.2316 145.079 92.8871 152.309 95.7394 153.91C98.5917 155.512 102.41 147.646 103.695 146.928C104.98 146.209 95.6333 140.016 94.0068 139.992Z" fill="#E6E7E8"/>
</g>
<defs>
<clipPath id="clip0_9:278">
<rect width="200" height="325" fill="white" transform="matrix(-1 0 0 1 200 0)"/>
</clipPath>
</defs>
</svg>
