<svg width="1920" height="796" viewBox="0 0 1920 796" fill="none" xmlns="http://www.w3.org/2000/svg">
<g style="mix-blend-mode:soft-light">
<path fill-rule="evenodd" clip-rule="evenodd" d="M524.5 518C524.5 518 704.227 359.191 825.519 359.509C946.81 359.828 986.299 454.341 986.299 454.341C986.299 454.341 1010.02 426.166 1033.82 443.517C1033.82 443.517 1046.33 354.396 1101.01 350.217C1174.02 344.626 1188 448.79 1188 448.79C1188 448.79 1349.4 346.397 1415.99 480.626L1470.35 565.031L663.644 540.916L515 527.5L524.5 518Z" fill="#E1E8FD"/>
</g>
<path fill-rule="evenodd" clip-rule="evenodd" d="M2174 399.859L2053.62 424.234L2048.41 413.807L1974.31 433.406L1972.2 440.888L1875.19 460.706L2099.75 492.98L2170.94 470.078L2174 399.859Z" fill="#93C5BF"/>
<path fill-rule="evenodd" clip-rule="evenodd" d="M-215.221 484.145L111.411 489.916L1100.31 555.299L1194.76 557.607L1753.26 499.168L1765.33 483.17L2170.84 400.277V724.448L-215.221 667.223V484.145Z" fill="#93C5BF"/>
<path fill-rule="evenodd" clip-rule="evenodd" d="M1924.84 462.974L1765.33 483.17L1741.75 515.583L1718 584.19L1821.42 543.48L1924.84 462.974Z" fill="#A2D5C7"/>
<path fill-rule="evenodd" clip-rule="evenodd" d="M1821.42 552.911L1833.67 540.435L1902.57 490.333L1924.84 482.414L1898.89 551.737L1808.44 572.868L1821.42 552.911Z" fill="#A2D5C7"/>
<path fill-rule="evenodd" clip-rule="evenodd" d="M1786.96 561.985L1721.03 586.896L1653.86 649.037L1602.78 709.406L1754.93 716.847L1794.46 611.51L1786.96 561.985Z" fill="#A2D5C7"/>
<path fill-rule="evenodd" clip-rule="evenodd" d="M1790.38 560.492L1794.46 569.864L1799.01 568.69L1812.27 552.911L1790.38 560.492Z" fill="#A2D5C7"/>
<path fill-rule="evenodd" clip-rule="evenodd" d="M1801.32 597.402L1818.22 578.897L1918.81 551.021L1961 555.916L1832.16 623.866L1790.38 649.832L1801.32 597.402Z" fill="#A2D5C7"/>
<path fill-rule="evenodd" clip-rule="evenodd" d="M1759.48 723.075L1775.65 667.064L1789.49 656.538L1972.2 587.951V729.761L1759.48 723.075Z" fill="#A2D5C7"/>
<path fill-rule="evenodd" clip-rule="evenodd" d="M1812.27 473.58L1972.2 449.981V440.888L1812.27 473.58Z" fill="#A2D5C7"/>
<path fill-rule="evenodd" clip-rule="evenodd" d="M1740.23 509.933L1655.59 522.09L1542.79 521.195L1750.73 499.427L1740.23 509.933Z" fill="#A2D5C7"/>
<path fill-rule="evenodd" clip-rule="evenodd" d="M1727.49 536.376L1652.9 528.736L1501.31 620.424L1488.74 640.481L1445.74 707.317L1592.18 708.192L1662.03 631.447L1708.96 583.673L1727.49 536.376Z" fill="#A2D5C7"/>
<path fill-rule="evenodd" clip-rule="evenodd" d="M1642.94 526.885L1633.76 525.711L1625.72 531.362L1625.21 540.973L1642.94 526.885Z" fill="#A2D5C7"/>
<path fill-rule="evenodd" clip-rule="evenodd" d="M1595.82 558.562L1504.91 605.898H1491.83L1346.57 603.312L1315.85 570.003L1538.51 524.438L1621.33 528.895L1616.91 544.912L1595.82 558.562Z" fill="#A2D5C7"/>
<path fill-rule="evenodd" clip-rule="evenodd" d="M1913.7 542.346L1916.94 538.565L1930.13 534.048L1939.53 541.629L1913.7 542.346Z" fill="#A2D5C7"/>
<path fill-rule="evenodd" clip-rule="evenodd" d="M-160.063 485.419L131.494 527.641L184.385 495.268L116.123 490.214L-160.063 485.419Z" fill="#A2D5C7"/>
<path fill-rule="evenodd" clip-rule="evenodd" d="M-191.161 516.32L-159.248 499.984L34.3212 521.613L57.6847 551.817L-191.161 516.32Z" fill="#A2D5C7"/>
<path fill-rule="evenodd" clip-rule="evenodd" d="M45.9336 526.885L51.5011 524L120.975 536.695L72.7569 566.82L45.9336 526.885Z" fill="#A2D5C7"/>
<path fill-rule="evenodd" clip-rule="evenodd" d="M194.207 495.387L149.608 524.617L146.108 534.844L311.184 592.647L525.154 524.657L523.622 517.155L194.207 495.387Z" fill="#A2D5C7"/>
<path fill-rule="evenodd" clip-rule="evenodd" d="M2170.84 612.345L1047.64 600.128L581.067 563.596L-187.324 507.505L-213.988 538.147L1331.46 666.706L2170.84 626.413V612.345Z" fill="#7FBA9F"/>
<path fill-rule="evenodd" clip-rule="evenodd" d="M2170.84 626.413C2170.84 626.413 669.709 687.578 -215.221 667.223V796H2170.84V626.413Z" fill="#77B84D"/>
<path style="mix-blend-mode:screen" opacity="0.5" d="M984.748 695C1213.46 695 1398.87 586.816 1398.87 453.364C1398.87 319.912 1213.46 211.728 984.748 211.728C756.036 211.728 570.628 319.912 570.628 453.364C570.628 586.816 756.036 695 984.748 695Z" fill="url(#paint0_radial_9:9)"/>
<path fill-rule="evenodd" clip-rule="evenodd" d="M-215.221 484.125C-215.221 484.125 124.276 535.561 544.342 595.99C1137.6 681.35 1626.44 662.249 2170.84 658.07V796H-215.221V484.125Z" fill="#62A82D"/>
<path fill-rule="evenodd" clip-rule="evenodd" d="M-215.221 693.647L485.207 729.681L474.231 719.872L1242.32 754.772L215.622 643.624L1185.5 741.282L-215.221 608.366V693.647Z" fill="#8BB733"/>
<path fill-rule="evenodd" clip-rule="evenodd" d="M-215.221 603.033L-22.1686 613.977L1307.14 749.499L-215.221 586.26V603.033Z" fill="#8BB733"/>
<path fill-rule="evenodd" clip-rule="evenodd" d="M1752.07 718.419L1454.11 760.742L1944.92 739.013L1907.14 745.042L1953.63 739.571L2023.02 755.668L2163.02 754.772L1752.07 718.419Z" fill="#8BB733"/>
<path fill-rule="evenodd" clip-rule="evenodd" d="M847.689 773.695L1390.97 767.407L2170.84 770.551V773.695H1669.89C1669.89 773.695 2170.64 780.739 2170.64 779.226V796H546.588L847.689 773.695Z" fill="#8BB733"/>
<path fill-rule="evenodd" clip-rule="evenodd" d="M893.542 629.278L1615.32 694.304L2170.68 666.865C2170.68 666.865 1410.7 692.533 893.542 629.278Z" fill="#8BB733"/>
<path fill-rule="evenodd" clip-rule="evenodd" d="M-215.221 574.023L440.21 638.232L1476.85 681.828L-215.221 504.322V574.023Z" fill="#77B84D"/>
<path fill-rule="evenodd" clip-rule="evenodd" d="M410.006 690.762C411.113 690.974 412.241 691.054 413.367 691.001C413.835 690.954 414.272 690.742 414.6 690.404C414.699 690.205 414.202 689.966 413.804 689.767C413.111 689.54 412.385 689.432 411.657 689.448C410.655 689.338 409.643 689.532 408.754 690.006C408.555 690.225 409.648 690.622 410.742 690.642L410.006 690.762Z" fill="#B8B600"/>
<path fill-rule="evenodd" clip-rule="evenodd" d="M425.536 691.796C426.543 691.998 427.573 692.065 428.598 691.995C429.174 691.836 428.121 691.657 428.101 691.438C427.703 691.438 426.47 691.259 426.112 691.259C425.754 691.259 425.317 691.398 424.979 691.438L425.237 691.597L425.536 691.796Z" fill="#B8B600"/>
<path fill-rule="evenodd" clip-rule="evenodd" d="M582.439 659.085C581.548 658.977 580.674 658.764 579.834 658.448C583.174 658.448 593.136 659.085 592.043 659.801C590.765 660.05 589.457 660.097 588.165 659.94C586.031 659.787 583.907 659.515 581.802 659.124L582.439 659.085Z" fill="#B8B600"/>
<path fill-rule="evenodd" clip-rule="evenodd" d="M586.376 653.175C587.309 653.251 588.246 653.251 589.18 653.175C587.647 652.737 586.061 652.516 584.467 652.519C583.055 652.519 582.479 652.737 584.467 652.956L586.376 653.175Z" fill="#B8B600"/>
<path fill-rule="evenodd" clip-rule="evenodd" d="M569.176 659.543C569.992 659.722 570.767 659.901 571.781 660.06L573.929 660.358C574.926 660.592 575.957 660.639 576.971 660.498C577.17 660.498 576.971 660.259 576.971 660.159C576.971 660.06 577.229 659.921 577.329 659.801C577.428 659.682 578.045 659.582 577.329 659.403C575.038 658.887 572.698 658.621 570.35 658.607C569.466 658.588 568.582 658.634 567.705 658.747C567.208 658.886 568.381 659.105 568.699 659.284L569.176 659.543Z" fill="#B8B600"/>
<path fill-rule="evenodd" clip-rule="evenodd" d="M545.793 659.761C548.04 660.179 550.267 660.497 553.13 660.776C555.966 661.131 558.822 661.303 561.68 661.293C562.591 661.306 563.501 661.253 564.404 661.134C565.06 660.995 564.762 660.756 564.404 660.537C564.046 660.318 563.37 660.04 563.331 659.841C563.291 659.642 563.867 659.562 563.947 659.383C564.026 659.204 560.388 658.428 557.723 658.129C555.874 657.911 554.303 657.771 552.414 657.672C550.525 657.572 547.622 657.473 545.912 657.513C543.347 657.513 540.206 657.791 540.106 658.209C540.007 658.627 539.967 658.587 540.822 658.846C541.677 659.104 544.183 659.483 545.793 659.761Z" fill="#B8B600"/>
<path fill-rule="evenodd" clip-rule="evenodd" d="M537.661 653.991C537.661 653.792 538.098 653.653 538.794 653.553C539.49 653.454 540.146 653.673 540.643 653.812C541.14 653.951 541.339 654.13 541.2 654.23C540.753 654.44 540.261 654.535 539.768 654.508C538.927 654.46 538.093 654.32 537.283 654.09L537.661 653.991Z" fill="#B8B600"/>
<path fill-rule="evenodd" clip-rule="evenodd" d="M731.945 681.31C733.348 681.702 734.806 681.863 736.26 681.788C738.249 681.549 738.527 680.773 737.93 680.196C736.936 679.221 734.729 678.206 730.613 678.206C729.505 678.161 728.395 678.201 727.293 678.326C726.605 678.431 725.936 678.632 725.304 678.922C725.066 679.141 725.185 679.599 725.583 679.858C727.012 680.473 728.488 680.972 729.997 681.35L731.945 681.31Z" fill="#B8B600"/>
<path fill-rule="evenodd" clip-rule="evenodd" d="M750.736 682.962C749.105 682.604 747.335 682.086 748.867 681.728C750.004 681.487 751.176 681.454 752.326 681.629C754.315 681.927 754.315 683.618 751.69 683.181L750.736 682.962Z" fill="#B8B600"/>
<path fill-rule="evenodd" clip-rule="evenodd" d="M766.802 664.815C768.561 665.225 770.391 665.225 772.151 664.815C773.383 664.417 773.483 663.761 773.145 663.184C772.807 662.607 771.455 662.01 769.009 661.492C766.803 661.007 764.545 660.8 762.288 660.876C760.939 660.875 759.597 661.084 758.311 661.492C757.715 661.811 757.814 662.189 757.775 662.587C757.735 662.985 757.596 663.084 758.47 663.383C761.37 664.091 764.323 664.557 767.299 664.776L766.802 664.815Z" fill="#B8B600"/>
<path fill-rule="evenodd" clip-rule="evenodd" d="M16.3065 656.598C17.7174 656.982 19.1811 657.137 20.6411 657.055C22.6295 656.836 22.888 656.06 22.3114 655.483C21.3172 654.488 19.1101 653.494 14.9941 653.494C13.8792 653.448 12.7625 653.488 11.6536 653.613C10.9623 653.7 10.2903 653.902 9.66526 654.21C9.42665 654.429 9.54596 654.886 9.92376 655.145C11.3598 655.76 12.8425 656.259 14.3578 656.637L16.3065 656.598Z" fill="#B8B600"/>
<path fill-rule="evenodd" clip-rule="evenodd" d="M35.1167 658.249C33.4863 657.891 31.6967 657.373 33.2477 656.995C34.3925 656.799 35.5626 656.799 36.7074 656.995C38.6958 657.294 38.6958 658.985 36.0712 658.527L35.1167 658.249Z" fill="#B8B600"/>
<path fill-rule="evenodd" clip-rule="evenodd" d="M51.2225 640.103C52.9888 640.511 54.8248 640.511 56.5911 640.103C57.8239 639.705 57.9234 639.048 57.5655 638.471C57.2076 637.894 55.8952 637.297 53.4495 636.78C51.2453 636.284 48.9863 636.077 46.7288 636.163C45.3794 636.163 44.038 636.371 42.752 636.78C42.1555 637.098 42.2351 637.476 42.1953 637.874C42.1555 638.272 42.0362 638.371 42.9111 638.65C45.8076 639.375 48.7614 639.848 51.7395 640.063L51.2225 640.103Z" fill="#B8B600"/>
<path fill-rule="evenodd" clip-rule="evenodd" d="M1122.6 693.806C1121.71 693.695 1120.84 693.475 1120 693.149C1123.34 693.149 1133.3 693.786 1132.21 694.502C1130.93 694.762 1129.62 694.816 1128.33 694.662C1126.19 694.502 1124.07 694.223 1121.97 693.826L1122.6 693.806Z" fill="#E7D36A"/>
<path fill-rule="evenodd" clip-rule="evenodd" d="M1126.54 687.876C1127.47 687.94 1128.41 687.94 1129.34 687.876C1127.81 687.439 1126.23 687.212 1124.63 687.2C1123.22 687.2 1122.64 687.439 1124.63 687.658L1126.54 687.876Z" fill="#E7D36A"/>
<path fill-rule="evenodd" clip-rule="evenodd" d="M1109.34 694.244C1110.16 694.423 1110.93 694.622 1111.95 694.781L1114.09 695.079C1115.09 695.299 1116.12 695.339 1117.14 695.199C1117.33 695.199 1117.14 694.98 1117.14 694.861C1117.14 694.741 1117.39 694.642 1117.49 694.502C1117.59 694.363 1118.21 694.284 1117.49 694.104C1115.2 693.589 1112.86 693.322 1110.51 693.309C1109.63 693.283 1108.74 693.337 1107.87 693.468C1107.37 693.607 1108.55 693.826 1108.86 693.985L1109.34 694.244Z" fill="#E7D36A"/>
<path fill-rule="evenodd" clip-rule="evenodd" d="M1085.96 694.522C1088.2 694.92 1090.43 695.238 1093.29 695.537C1096.13 695.882 1098.99 696.055 1101.84 696.054C1102.76 696.062 1103.67 696.003 1104.57 695.875C1105.22 695.736 1104.93 695.497 1104.57 695.278C1104.21 695.059 1103.53 694.801 1103.49 694.582C1103.45 694.363 1104.03 694.303 1104.11 694.144C1104.19 693.985 1100.55 693.189 1097.89 692.871C1096.04 692.652 1094.47 692.532 1092.58 692.413C1090.69 692.294 1087.79 692.234 1086.08 692.254C1083.49 692.254 1080.37 692.552 1080.27 692.97C1080.17 693.388 1080.13 693.348 1080.99 693.587C1082.18 693.885 1084.35 694.204 1085.96 694.522Z" fill="#E7D36A"/>
<path fill-rule="evenodd" clip-rule="evenodd" d="M1077.82 688.692C1077.82 688.513 1078.26 688.354 1078.96 688.255C1079.65 688.155 1080.31 688.374 1080.81 688.513C1081.3 688.653 1081.5 688.852 1081.36 688.951C1080.91 689.141 1080.42 689.229 1079.93 689.21C1079.09 689.168 1078.26 689.034 1077.45 688.812L1077.82 688.692Z" fill="#E7D36A"/>
<path fill-rule="evenodd" clip-rule="evenodd" d="M1122.76 706.461C1124.17 706.852 1125.64 707.013 1127.1 706.938C1129.09 706.7 1129.36 705.944 1128.77 705.347C1127.77 704.372 1125.57 703.357 1121.45 703.357C1120.33 703.317 1119.22 703.364 1118.11 703.496C1117.42 703.588 1116.75 703.782 1116.12 704.073C1115.88 704.312 1116 704.77 1116.38 705.028C1117.82 705.634 1119.3 706.133 1120.81 706.521L1122.76 706.461Z" fill="#E7D36A"/>
<path fill-rule="evenodd" clip-rule="evenodd" d="M1210.91 716.828C1209.28 716.469 1207.51 715.952 1209.04 715.574C1210.18 715.378 1211.35 715.378 1212.5 715.574C1214.49 715.872 1214.49 717.564 1211.86 717.106L1210.91 716.828Z" fill="#E7D36A"/>
<path fill-rule="evenodd" clip-rule="evenodd" d="M1228.96 686.563C1230.72 686.993 1232.55 686.993 1234.31 686.563C1235.54 686.185 1235.64 685.529 1235.3 684.932C1234.97 684.335 1233.61 683.778 1231.17 683.26C1228.94 682.738 1226.65 682.511 1224.37 682.584C1223.02 682.579 1221.68 682.78 1220.39 683.181C1219.79 683.519 1219.87 683.897 1219.83 684.295C1219.79 684.693 1219.68 684.772 1220.55 685.071C1223.45 685.799 1226.4 686.265 1229.38 686.464L1228.96 686.563Z" fill="#E7D36A"/>
<path fill-rule="evenodd" clip-rule="evenodd" d="M401.178 693.527C402.842 693.898 404.529 694.15 406.228 694.283C408.097 694.283 408.793 694.283 409.31 693.826C410.305 693.05 410.623 692.075 407.183 691.279C405.274 690.77 403.266 690.77 401.357 691.279C400.818 691.363 400.322 691.621 399.945 692.015C399.647 692.393 400.621 692.692 401.695 693.05L401.178 693.527Z" fill="#B8B600"/>
<path fill-rule="evenodd" clip-rule="evenodd" d="M1192.36 739.59C1193.48 739.741 1194.61 739.741 1195.74 739.59C1196.2 739.504 1196.61 739.257 1196.91 738.894C1196.91 738.695 1196.47 738.496 1196.05 738.337C1195.35 738.16 1194.61 738.113 1193.89 738.197C1192.88 738.192 1191.89 738.475 1191.04 739.013C1190.86 739.252 1192 739.55 1193.03 739.491L1192.36 739.59Z" fill="#B8B600"/>
<path fill-rule="evenodd" clip-rule="evenodd" d="M1207.92 739.232C1208.94 739.373 1209.97 739.373 1210.99 739.232C1211.56 739.033 1210.49 738.934 1210.47 738.735C1209.81 738.696 1209.14 738.696 1208.48 738.735C1208.1 738.799 1207.73 738.892 1207.37 739.013L1207.65 739.153L1207.92 739.232Z" fill="#B8B600"/>
<path fill-rule="evenodd" clip-rule="evenodd" d="M1361.27 692.533C1360.37 692.5 1359.49 692.366 1358.62 692.135C1361.94 691.816 1371.93 691.578 1370.91 692.373C1369.62 692.748 1368.28 692.916 1366.94 692.871C1364.8 692.913 1362.66 692.827 1360.53 692.612L1361.27 692.533Z" fill="#B8B600"/>
<path fill-rule="evenodd" clip-rule="evenodd" d="M1364.65 686.344C1365.59 686.346 1366.52 686.28 1367.45 686.145C1365.89 685.854 1364.29 685.774 1362.7 685.907C1361.29 686.006 1360.71 686.305 1362.7 686.344H1364.65Z" fill="#B8B600"/>
<path fill-rule="evenodd" clip-rule="evenodd" d="M1348.11 694.224C1348.92 694.224 1349.72 694.443 1350.73 694.502L1352.92 694.602C1353.93 694.737 1354.95 694.689 1355.94 694.463C1356.14 694.363 1355.94 694.244 1355.94 694.124C1355.94 694.005 1356.18 693.866 1356.26 693.726C1356.34 693.587 1356.95 693.448 1356.26 693.328C1353.93 693.016 1351.58 692.963 1349.24 693.169C1348.36 693.225 1347.48 693.351 1346.61 693.547C1346.14 693.726 1347.33 693.846 1347.67 693.985L1348.11 694.224Z" fill="#B8B600"/>
<path fill-rule="evenodd" clip-rule="evenodd" d="M1324.84 696.512C1327.11 696.711 1329.36 696.811 1332.24 696.85C1335.09 696.938 1337.95 696.858 1340.79 696.612C1341.7 696.532 1342.6 696.392 1343.49 696.194C1344.13 695.995 1343.81 695.776 1343.49 695.597C1343.17 695.418 1342.42 695.199 1342.36 695C1342.3 694.801 1342.88 694.662 1342.94 694.502C1343 694.343 1339.3 693.866 1336.61 693.786C1334.76 693.786 1333.19 693.786 1331.3 693.786C1329.41 693.786 1326.49 694.045 1324.8 694.224C1322.24 694.483 1319.13 695.02 1319.1 695.438C1319.06 695.856 1318.98 695.836 1319.85 695.995C1321.02 696.293 1323.19 696.512 1324.84 696.512Z" fill="#B8B600"/>
<path fill-rule="evenodd" clip-rule="evenodd" d="M1316.21 691.518C1316.21 691.319 1316.61 691.14 1317.31 690.98C1318 690.821 1318.66 690.98 1319.15 690.98C1319.65 690.98 1319.89 691.239 1319.75 691.339C1319.33 691.586 1318.85 691.723 1318.36 691.737C1317.52 691.767 1316.68 691.707 1315.85 691.558L1316.21 691.518Z" fill="#B8B600"/>
<path fill-rule="evenodd" clip-rule="evenodd" d="M1446.79 733.482C1447.86 733.65 1448.94 733.65 1450.01 733.482C1451.4 733.183 1451.6 732.586 1451.12 732.188C1449.47 731.171 1447.5 730.802 1445.6 731.154C1444.78 731.206 1443.97 731.313 1443.17 731.472C1442.67 731.585 1442.19 731.78 1441.76 732.049C1441.58 732.228 1441.76 732.547 1442.02 732.726C1443.11 733.069 1444.23 733.335 1445.36 733.522L1446.79 733.482Z" fill="#B8B600"/>
<path fill-rule="evenodd" clip-rule="evenodd" d="M1460.75 733.462C1459.51 733.283 1458.18 733.024 1459.28 732.666C1460.1 732.417 1460.96 732.316 1461.82 732.367C1463.25 732.467 1463.37 733.661 1461.46 733.541L1460.75 733.462Z" fill="#B8B600"/>
<path fill-rule="evenodd" clip-rule="evenodd" d="M1471.37 719.016C1472.7 719.243 1474.06 719.14 1475.34 718.718C1476.24 718.36 1476.26 717.862 1475.96 717.464C1475.66 717.066 1474.65 716.708 1472.82 716.489C1471.16 716.28 1469.48 716.28 1467.83 716.489C1466.83 716.572 1465.85 716.813 1464.92 717.206C1464.51 717.484 1464.6 717.763 1464.58 718.041C1464.56 718.32 1464.58 718.419 1465.16 718.579C1467.34 718.921 1469.55 719.067 1471.76 719.016H1471.37Z" fill="#B8B600"/>
<path fill-rule="evenodd" clip-rule="evenodd" d="M1183.85 743.152C1185.53 743.374 1187.23 743.474 1188.94 743.45C1190.8 743.45 1191.48 743.152 1191.96 742.714C1192.89 741.859 1193.11 740.864 1189.61 740.366C1187.67 740.037 1185.67 740.229 1183.83 740.923C1183.29 741.051 1182.82 741.36 1182.49 741.799C1182.21 742.197 1183.21 742.396 1184.32 742.654L1183.85 743.152Z" fill="#B8B600"/>
<path fill-rule="evenodd" clip-rule="evenodd" d="M999.343 723.055C1000.46 723.206 1001.6 723.206 1002.72 723.055C1003.18 722.96 1003.59 722.715 1003.9 722.359C1003.9 722.16 1003.46 721.961 1003.02 721.802C1002.32 721.626 1001.59 721.578 1000.87 721.663C999.861 721.655 998.868 721.938 998.011 722.478C997.852 722.717 998.985 723.016 999.999 722.956L999.343 723.055Z" fill="#E7D36A"/>
<path fill-rule="evenodd" clip-rule="evenodd" d="M1014.89 722.697C1015.91 722.838 1016.95 722.838 1017.97 722.697C1018.53 722.498 1017.46 722.399 1017.44 722.2C1016.78 722.162 1016.11 722.162 1015.45 722.2C1015.05 722.2 1014.67 722.399 1014.34 722.478L1014.61 722.618L1014.89 722.697Z" fill="#E7D36A"/>
<path fill-rule="evenodd" clip-rule="evenodd" d="M1168.26 676.037C1167.36 676.004 1166.46 675.87 1165.59 675.64C1168.91 675.321 1178.89 675.082 1177.88 675.878C1176.63 676.243 1175.33 676.411 1174.02 676.376C1171.89 676.418 1169.75 676.332 1167.62 676.117L1168.26 676.037Z" fill="#E7D36A"/>
<path fill-rule="evenodd" clip-rule="evenodd" d="M1171.64 669.81C1172.57 669.812 1173.5 669.745 1174.42 669.611C1172.86 669.318 1171.27 669.238 1169.69 669.372C1168.26 669.471 1167.7 669.77 1169.69 669.81H1171.64Z" fill="#E7D36A"/>
<path fill-rule="evenodd" clip-rule="evenodd" d="M1155.07 677.689C1155.91 677.689 1156.68 677.908 1157.72 677.968L1159.89 678.067C1160.9 678.202 1161.93 678.154 1162.93 677.928C1163.13 677.828 1162.93 677.709 1162.93 677.59C1162.93 677.47 1163.17 677.331 1163.25 677.192C1163.33 677.052 1163.94 676.913 1163.25 676.794C1160.93 676.483 1158.58 676.43 1156.25 676.635C1155.36 676.689 1154.47 676.815 1153.6 677.013C1153.12 677.192 1154.32 677.311 1154.66 677.45L1155.07 677.689Z" fill="#E7D36A"/>
<path fill-rule="evenodd" clip-rule="evenodd" d="M1131.81 680.017C1134.08 680.216 1136.32 680.315 1139.21 680.355C1142.06 680.443 1144.93 680.363 1147.78 680.116C1148.68 680.037 1149.58 679.898 1150.46 679.699C1151.1 679.5 1150.8 679.281 1150.46 679.102C1150.12 678.923 1149.37 678.704 1149.31 678.505C1149.25 678.306 1149.82 678.167 1149.88 678.007C1149.94 677.848 1146.26 677.371 1143.58 677.291C1141.71 677.291 1140.14 677.291 1138.25 677.291C1136.36 677.291 1133.46 677.55 1131.75 677.729C1129.2 677.987 1126.1 678.525 1126.04 678.943C1125.98 679.36 1125.92 679.34 1126.8 679.5C1127.99 679.758 1130.18 679.878 1131.81 680.017Z" fill="#E7D36A"/>
<path fill-rule="evenodd" clip-rule="evenodd" d="M1123.18 674.983C1123.18 674.784 1123.58 674.605 1124.27 674.446C1124.97 674.286 1125.65 674.446 1126.14 674.446C1126.64 674.446 1126.86 674.704 1126.74 674.804C1126.31 675.047 1125.82 675.183 1125.33 675.202C1124.49 675.23 1123.65 675.17 1122.82 675.023L1123.18 674.983Z" fill="#E7D36A"/>
<path fill-rule="evenodd" clip-rule="evenodd" d="M990.833 726.617C992.513 726.839 994.208 726.939 995.903 726.915C997.772 726.915 998.468 726.617 998.945 726.179C999.86 725.324 1000.08 724.329 996.579 723.831C994.635 723.502 992.639 723.694 990.793 724.388C990.261 724.516 989.789 724.826 989.461 725.264C989.202 725.662 990.196 725.861 991.31 726.12L990.833 726.617Z" fill="#E7D36A"/>
<path fill-rule="evenodd" clip-rule="evenodd" d="M106.48 688.294C109.8 688.573 111.152 688.553 111.371 687.658C111.59 686.762 111.272 686.185 109.741 685.509C106.084 684.506 102.317 683.958 98.5262 683.877C92.6804 683.459 91.0897 684.752 91.1096 685.986C91.1294 687.22 98.6058 689.448 103.457 688.792L106.48 688.294Z" fill="#B8B600"/>
<path fill-rule="evenodd" clip-rule="evenodd" d="M166.927 683.141C165.117 682.862 164.163 682.783 164.6 682.345C164.739 682.206 164.6 682.166 165.057 682.046C165.998 681.844 166.963 681.783 167.921 681.867C169.81 682.046 169.372 682.385 169.352 682.743C169.333 683.101 168.975 683.121 167.961 683.36L166.927 683.141V683.141Z" fill="#B8B600"/>
<path fill-rule="evenodd" clip-rule="evenodd" d="M63.7096 749.499L57.6848 739.929L64.9424 729.761L77.7874 754.772L63.7096 749.499Z" fill="#C78D80"/>
<path fill-rule="evenodd" clip-rule="evenodd" d="M202.36 762.652L203.871 759.806L208.901 757.876L210.671 762.652L203.871 764.9L202.36 762.652Z" fill="#C78D80"/>
<path fill-rule="evenodd" clip-rule="evenodd" d="M246.283 735.909L242.406 738.019L249.047 742.714L260.122 746.017L246.283 735.909Z" fill="#A68180"/>
<path fill-rule="evenodd" clip-rule="evenodd" d="M249.624 733.601C249.445 733.104 261.554 744.406 261.554 744.406L263.244 742.714L254.555 731.592L249.624 733.601Z" fill="#A68180"/>
<path fill-rule="evenodd" clip-rule="evenodd" d="M515.57 742.714L525.154 735.67L523.543 743.55L515.57 742.714Z" fill="#C78D80"/>
<path fill-rule="evenodd" clip-rule="evenodd" d="M545.336 738.018L548.974 735.67L554.741 736.844L545.336 738.018Z" fill="#C78D80"/>
<path fill-rule="evenodd" clip-rule="evenodd" d="M631.85 746.017V739.61L638.63 746.017L631.85 749.499V746.017Z" fill="#C78D80"/>
<path fill-rule="evenodd" clip-rule="evenodd" d="M733.954 751.967L738.189 749.499L744.87 751.967L739.422 754.772L733.954 751.967Z" fill="#C78D80"/>
<path fill-rule="evenodd" clip-rule="evenodd" d="M80.1733 757.06L84.4086 754.593L91.1094 757.06L85.6414 759.886L80.1733 757.06Z" fill="#C78D80"/>
<path fill-rule="evenodd" clip-rule="evenodd" d="M91.1096 735.451V729.044L97.89 735.451L91.1096 738.934V735.451Z" fill="#C78D80"/>
<path fill-rule="evenodd" clip-rule="evenodd" d="M1497.59 756.444L1499.42 753.718L1502.4 756.444H1497.59Z" fill="#C78D80"/>
<path fill-rule="evenodd" clip-rule="evenodd" d="M1515.61 759.289L1518.33 756.444L1522.74 759.289H1515.61Z" fill="#C78D80"/>
<defs>
<radialGradient id="paint0_radial_9:9" cx="0" cy="0" r="1" gradientUnits="userSpaceOnUse" gradientTransform="translate(991.117 453.364) scale(415.327 241.636)">
<stop stop-color="#166D88"/>
<stop offset="0.14" stop-color="#156882"/>
<stop offset="0.32" stop-color="#125B71"/>
<stop offset="0.54" stop-color="#0E4455"/>
<stop offset="0.77" stop-color="#07252E"/>
<stop offset="1"/>
</radialGradient>
</defs>
</svg>
