<svg width="234" height="292" viewBox="0 0 234 292" fill="none" xmlns="http://www.w3.org/2000/svg">
<g clip-path="url(#clip0_9:324)">
<path d="M87.2537 164.181C87.2537 164.181 79.5942 187.165 80.5642 194.667C80.5642 194.667 73.4064 201.968 72.7597 206.91C72.1131 211.852 70.7752 213.143 73.228 214.256C75.6809 215.369 77.6877 209.147 79.9845 207.288C82.2812 205.429 84.3549 203.593 85.2357 206.598C86.1165 209.603 87.2984 212.608 89.7958 212.041C92.2932 211.473 92.1482 204.94 91.3009 201.222C90.4536 197.505 100.454 179.396 101.937 166.785C101.937 166.741 85.9381 163.725 87.2537 164.181Z" fill="#FECC8D"/>
<path d="M96.9426 165.84L94.9246 169.546C94.9246 169.546 92.3157 188 88.3466 194.789C86.2394 198.395 89.9074 201.901 89.8517 206.966C89.8517 209.948 89.428 211.24 88.7368 212.008C89.1028 212.098 89.4856 212.098 89.8517 212.008C92.3603 211.451 92.2042 204.907 91.3569 201.189C90.5095 197.472 100.51 179.363 101.993 166.752L96.9426 165.84Z" fill="#FAAC73"/>
<path d="M61.711 95.5414C49.5472 77.1433 34.139 82.1073 24.3834 99.2255C14.6278 116.344 -0.0334473 120.952 -0.0334473 120.952C-0.0334473 120.952 7.48116 126.083 16.3002 123.489C16.3002 123.489 16.211 129.878 5.96484 129.566C5.96484 129.566 13.6243 145.338 38.6321 134.642C63.6398 123.946 69.6269 107.473 61.711 95.5414Z" fill="#5D2016"/>
<path d="M60.8078 80.8049C60.8078 80.8049 51.4759 83.5096 55.0883 91.9351C58.7006 100.361 62.8927 101.852 67.1294 99.7262C71.3661 97.6004 60.8078 80.8049 60.8078 80.8049Z" fill="#00AEEF"/>
<path d="M187.53 89.6092C196.683 75.7632 208.279 79.503 215.615 92.3806C222.951 105.258 234 108.731 234 108.731C232.192 109.862 230.172 110.615 228.064 110.942C225.956 111.269 223.802 111.164 221.736 110.634C221.736 110.634 221.803 115.442 229.54 115.209C229.54 115.209 223.776 127.084 204.945 119.037C186.114 110.99 181.599 98.5801 187.53 89.6092Z" fill="#5D2016"/>
<path d="M188.232 78.5122C188.232 78.5122 195.245 80.549 192.536 86.8821C189.827 93.2152 186.638 94.3394 183.472 92.7589C180.305 91.1784 188.232 78.5122 188.232 78.5122Z" fill="#00AEEF"/>
<path d="M179.112 104.089C171.442 121.898 157.215 134.742 122.898 133.161C89.1714 131.614 79.7726 115.509 74.3541 109.499C68.9356 103.488 76.0934 46.9582 76.0934 46.9582L91.4458 28.3263L166.146 23.5181C166.146 23.5181 181.197 49.9634 181.755 50.8649C182.312 51.7664 186.749 86.3924 179.112 104.089Z" fill="#FECC8D"/>
<path d="M175.31 111.491C169.61 117.291 162.68 121.742 155.03 124.517C147.38 127.293 139.204 128.322 131.104 127.53C101.748 124.825 93.1962 114.463 92.2708 95.5303C91.3455 76.5979 95.8832 67.5824 100.845 63.0747C105.806 58.5669 131.104 49.5515 139.231 38.733C139.231 38.733 154.584 56.7639 166.77 60.8153C178.956 64.8667 183.026 82.4523 182.122 89.6647C182.056 90.2434 182.234 90.4549 182.58 90.4104C184.988 72.7245 182.223 51.5661 181.755 50.8649C181.152 49.9634 166.146 23.5181 166.146 23.5181L91.4458 28.3263L76.0934 46.9582C76.0934 46.9582 68.9356 103.488 74.3541 109.499C79.7726 115.509 89.1714 131.614 122.898 133.161C152.243 134.508 166.882 125.315 175.31 111.491Z" fill="#FAAC73"/>
<path d="M106.999 71.6225C106.999 71.6225 100.912 72.8246 97.7007 70.5095C98.419 71.7858 99.504 72.8179 100.816 73.4726C102.127 74.1273 103.605 74.3746 105.059 74.1825L106.999 71.6225Z" fill="#5D2016"/>
<path d="M103.967 77.0764C103.967 77.0764 97.8122 77.8777 94.7573 75.418C95.39 76.7384 96.4052 77.839 97.6713 78.5771C98.9375 79.3153 100.396 79.6571 101.859 79.5584L103.967 77.0764Z" fill="#5D2016"/>
<path d="M103.688 81.3616C103.688 81.3616 97.8567 83.4763 94.3447 81.7289C95.2468 82.8764 96.4715 83.7288 97.8619 84.177C99.2524 84.6252 100.745 84.6486 102.149 84.2443L103.688 81.3616Z" fill="#5D2016"/>
<path d="M162.522 70.0088C162.522 70.0088 168.721 70.1201 171.442 67.3264C170.963 68.7108 170.079 69.9199 168.904 70.7971C167.729 71.6742 166.318 72.1789 164.852 72.2459L162.522 70.0088Z" fill="#5D2016"/>
<path d="M166.514 74.8505C166.514 74.8505 172.713 74.5611 175.277 71.5894C174.891 73.0023 174.088 74.2667 172.973 75.2176C171.857 76.1685 170.481 76.762 169.022 76.9207L166.514 74.8505Z" fill="#5D2016"/>
<path d="M167.495 79.0242C167.495 79.0242 173.616 80.0705 176.76 77.7332C176.077 79.0282 175.02 80.088 173.725 80.7749C172.431 81.4617 170.959 81.7437 169.502 81.5841L167.495 79.0242Z" fill="#5D2016"/>
<path d="M158.208 69.1518C147.816 70.2648 145.063 85.7247 153.402 92.336C161.742 98.9473 171.787 88.8411 170.617 79.0799C169.446 69.3188 162.511 68.6732 158.208 69.1518Z" fill="white"/>
<path d="M112.027 69.4523C99.7632 70.6655 97.5333 80.3598 103.231 90.8221C108.928 101.284 123.6 96.2091 126.321 86.5815C126.959 84.4664 127.063 82.2262 126.621 80.0614C126.18 77.8966 125.207 75.875 123.791 74.1776C122.374 72.4802 120.558 71.16 118.505 70.3353C116.452 69.5107 114.227 69.2073 112.027 69.4523Z" fill="white"/>
<path d="M119.687 82.1183C119.747 83.2784 119.461 84.4301 118.866 85.4282C118.27 86.4262 117.392 87.2257 116.342 87.7257C115.292 88.2257 114.116 88.4038 112.965 88.2374C111.813 88.071 110.737 87.5677 109.872 86.791C109.006 86.0142 108.391 84.999 108.104 83.8734C107.816 82.7478 107.869 81.5624 108.256 80.4669C108.643 79.3714 109.347 78.4149 110.278 77.7184C111.209 77.0218 112.326 76.6164 113.488 76.5532C114.262 76.5097 115.036 76.6194 115.767 76.8759C116.498 77.1325 117.171 77.5309 117.747 78.0481C118.324 78.5654 118.792 79.1912 119.124 79.8898C119.457 80.5883 119.648 81.3457 119.687 82.1183Z" fill="#5D2016"/>
<path d="M114.291 80.4155C114.316 80.9098 114.195 81.4007 113.941 81.8261C113.688 82.2514 113.313 82.5922 112.866 82.8054C112.418 83.0186 111.918 83.0946 111.427 83.0239C110.936 82.9531 110.477 82.7388 110.109 82.4079C109.74 82.077 109.478 81.6445 109.355 81.1649C109.232 80.6853 109.255 80.1801 109.419 79.7132C109.584 79.2463 109.884 78.8387 110.281 78.5417C110.677 78.2447 111.153 78.0718 111.648 78.0448C111.978 78.0267 112.308 78.0738 112.619 78.1833C112.93 78.2927 113.217 78.4625 113.462 78.6827C113.708 78.903 113.907 79.1694 114.049 79.4667C114.192 79.7641 114.274 80.0865 114.291 80.4155Z" fill="white"/>
<path d="M117.613 85.6133C117.613 85.83 117.549 86.0418 117.429 86.2228C117.31 86.4038 117.14 86.546 116.941 86.6321C116.742 86.7181 116.522 86.7442 116.308 86.7072C116.094 86.6702 115.896 86.5717 115.737 86.4237C115.578 86.2758 115.466 86.0848 115.415 85.8743C115.364 85.6638 115.375 85.4428 115.447 85.2386C115.52 85.0343 115.651 84.8557 115.823 84.7245C115.996 84.5934 116.204 84.5155 116.42 84.5003C116.573 84.4896 116.726 84.5104 116.871 84.5616C117.015 84.6127 117.148 84.693 117.26 84.7974C117.371 84.9019 117.461 85.0282 117.522 85.1686C117.582 85.309 117.614 85.4603 117.613 85.6133Z" fill="white"/>
<path d="M163.782 80.5267C163.834 81.4894 163.598 82.4458 163.105 83.2748C162.612 84.1039 161.884 84.7684 161.013 85.1845C160.142 85.6005 159.167 85.7494 158.211 85.6122C157.255 85.475 156.361 85.058 155.643 84.4139C154.924 83.7697 154.413 82.9273 154.174 81.9933C153.935 81.0592 153.979 80.0754 154.3 79.1662C154.621 78.2569 155.205 77.4631 155.978 76.8851C156.751 76.3071 157.678 75.9709 158.642 75.9189C159.935 75.8521 161.202 76.2995 162.166 77.1631C163.129 78.0267 163.71 79.2362 163.782 80.5267Z" fill="#5D2016"/>
<path d="M159.322 79.1133C159.346 79.523 159.247 79.9304 159.039 80.2842C158.831 80.6381 158.523 80.9227 158.153 81.1021C157.783 81.2816 157.369 81.348 156.961 81.293C156.554 81.238 156.172 81.0641 155.864 80.793C155.555 80.5219 155.334 80.1658 155.227 79.7695C155.121 79.3732 155.134 78.9542 155.265 78.5654C155.397 78.1766 155.64 77.8352 155.965 77.5842C156.29 77.3331 156.683 77.1836 157.093 77.1544C157.368 77.1363 157.644 77.1727 157.906 77.2614C158.167 77.3502 158.408 77.4895 158.615 77.6715C158.822 77.8535 158.991 78.0746 159.113 78.322C159.234 78.5694 159.305 78.8384 159.322 79.1133Z" fill="white"/>
<path d="M162.054 83.4763C162.065 83.6613 162.02 83.8453 161.926 84.005C161.832 84.1647 161.693 84.2928 161.525 84.3732C161.358 84.4536 161.171 84.4826 160.987 84.4565C160.803 84.4304 160.632 84.3504 160.494 84.2266C160.355 84.1028 160.257 83.9409 160.212 83.7613C160.166 83.5818 160.174 83.3927 160.237 83.2181C160.299 83.0435 160.411 82.8913 160.56 82.7807C160.709 82.6701 160.888 82.6062 161.073 82.5971C161.32 82.5849 161.561 82.6705 161.745 82.8351C161.929 82.9998 162.04 83.2303 162.054 83.4763Z" fill="white"/>
<path d="M109.786 61.4607C109.084 60.0806 99.9417 60.6482 99.5626 67.0258C99.3173 71.0772 103.398 65.4676 105.539 65.0335C107.679 64.5994 110.623 63.0968 109.786 61.4607Z" fill="#5D2016"/>
<path d="M156.781 59.6911C157.204 58.2108 166.291 57.0532 167.863 63.2082C168.866 67.1371 163.793 62.3957 161.608 62.3623C159.423 62.3289 156.256 61.4608 156.781 59.6911Z" fill="#5D2016"/>
<path d="M132.932 108.697C133.345 106.583 138.507 110.923 142.833 109.087C147.159 107.25 144.082 115.209 139.287 115.921C134.493 116.633 132.219 112.415 132.932 108.697Z" fill="#F16275"/>
<path d="M135.485 88.251C138.574 85.5018 147.136 92.1577 144.762 96.376C142.387 100.594 135.162 98.4017 134.382 96.0644C133.601 93.727 134.449 89.1636 135.485 88.251Z" fill="#FAAC73"/>
<path d="M160.861 97.745C154.918 101.496 163.091 114.44 168.81 107.462C174.53 100.483 169.256 92.4471 160.861 97.745Z" fill="#F9A987"/>
<path d="M115.796 105.926C117.234 99.0584 102.294 95.9086 103.264 104.868C104.234 113.828 113.767 115.642 115.796 105.926Z" fill="#F9A987"/>
<path d="M139.131 31.988C139.131 31.988 126.298 49.7963 95.1363 59.9025C79.048 65.0892 78.6912 110.066 85.0463 118.002C88.7144 122.576 73.5961 128.019 66.2599 105.647C58.9237 83.2758 49.759 47.548 67.1741 26.9572C84.5892 6.36637 133.166 -14.2244 171.665 13.2337C210.163 40.6918 188.79 95.174 181.298 98.3239C175.489 100.772 190.563 73.2253 175.79 62.6405C157.918 49.8297 146.925 40.6807 139.131 31.988Z" fill="#5D2016"/>
<path d="M173.27 138.014C175.95 137.118 178.698 136.441 181.487 135.989C183.148 135.733 190.039 124.102 194.286 120.84C196.996 118.759 195.468 116.121 195.602 111.936C195.736 107.751 195.323 102.965 198.69 102.387C201.768 101.841 200.653 104.279 201.11 107.184C201.245 108.084 201.431 108.976 201.667 109.855C201.667 109.855 204.588 99.8377 208.357 100.105C212.125 100.372 206.997 107.673 206.997 107.673C206.997 107.673 212.058 100.995 214.422 102.887C216.786 104.78 210.051 111.402 210.051 111.402C210.051 111.402 216.228 105.336 217.789 107.762C219.35 110.189 212.393 115.03 212.393 115.03C212.393 115.03 217.967 111.547 218.837 113.65C219.707 115.754 211.635 125.114 204.845 125.548C204.845 125.548 198.757 142.043 189.236 147.664C179.714 153.285 173.259 152.828 173.259 152.828L173.27 138.014Z" fill="#FECC8D"/>
<path d="M188.589 142.934C184.375 146.273 175.043 146.273 175.043 146.273L173.326 152.216V152.817C173.326 152.817 179.826 153.285 189.303 147.653C198.78 142.021 204.912 125.537 204.912 125.537C211.702 125.103 219.796 115.754 218.904 113.639C212.761 120.083 204.878 122.543 202.771 124.335C200.664 126.127 192.804 139.628 188.589 142.934Z" fill="#FAAC73"/>
<path d="M116.487 130.501C116.487 130.501 118.293 134.675 117.836 137.179C117.379 139.684 134.036 142.232 134.036 142.232L140.647 138.159C140.647 138.159 143.045 132.594 142.732 131.024C142.42 129.455 116.487 130.501 116.487 130.501Z" fill="#FAAC73"/>
<path d="M141.294 134.241C141.294 134.241 167.183 136.901 174.965 135.788C180.361 135.02 178.521 150.981 177.473 153.886C176.425 156.791 159.077 157.225 149.388 153.886C139.7 150.547 141.294 134.241 141.294 134.241Z" fill="white"/>
<path d="M120.858 134.742C120.858 134.742 109.374 134.619 96.1732 142.054C82.9725 149.489 83.2959 167.765 83.2401 169.568C83.1844 171.371 101.235 171.994 103.008 170.258C104.78 168.522 102.238 157.147 108.46 153.986C114.681 150.825 120.311 136.467 120.858 134.742Z" fill="white"/>
<path d="M141.205 237.829C141.205 237.829 146.501 271.342 147.527 275.305C148.552 279.267 162.589 283.207 162.589 283.207L168.298 278.443L167.852 277.23C165.567 276.401 163.578 274.918 162.132 272.967C160.281 270.051 161.497 235.214 161.497 235.214L141.205 237.829Z" fill="#FECC8D"/>
<path d="M151.317 263.273C143.513 248.57 153.146 238.787 153.146 238.787L151.741 236.561L141.205 237.918C141.205 237.918 144.628 259.578 146.501 270.129C151.195 271.665 155.844 271.81 151.317 263.273Z" fill="#FAAC73"/>
<path d="M121.638 238.353C121.638 238.353 112.317 267.291 111.983 270.018C111.868 271.314 112.103 272.617 112.664 273.791C113.225 274.966 114.091 275.969 115.171 276.696C117.089 277.887 110.322 282.617 110.322 282.617L95.8275 271.487L94.9468 268.749L97.1766 266.334C97.1766 266.334 100.12 260.769 100.209 258.331C100.298 255.894 101.737 235.615 101.737 235.615L121.638 238.353Z" fill="#FECC8D"/>
<path d="M115.785 237.551L101.703 235.615C101.703 235.615 100.265 255.86 100.176 258.331C100.098 259.192 99.903 260.038 99.5959 260.847L105.115 263.696C105.115 263.696 105.84 257.185 106.598 249.316C107.356 241.447 115.796 237.685 115.796 237.685L115.785 237.551Z" fill="#FAAC73"/>
<path d="M99.15 196.681C99.15 196.681 87.0084 222.414 75.5693 228.335C75.5693 228.335 84.3995 237.495 97.2992 235.848C105.639 234.791 111.793 242.215 126.912 241.413C142.03 240.612 150.202 246.288 157.773 239.332C165.343 232.376 173.883 239.888 183.416 232.108C183.416 232.108 162.043 214.222 160.092 200.176L99.15 196.681Z" fill="#2C5CAA"/>
<path d="M115.227 276.674C114.147 275.947 113.281 274.944 112.72 273.769C112.159 272.595 111.924 271.292 112.039 269.996C112.161 269.039 113.432 264.709 115.016 259.556C109.441 259.411 103.788 257.107 100.399 255.426C100.31 256.829 100.243 257.864 100.232 258.309C100.142 260.791 97.1991 266.312 97.1991 266.312L94.9692 268.727L95.85 271.465L110.344 282.595C110.344 282.595 117.089 277.865 115.227 276.674Z" fill="white"/>
<path d="M162.132 272.967C161.407 271.854 161.151 265.755 161.117 258.81C155.543 261.325 148.731 261.036 144.873 260.502C145.988 267.458 147.103 273.724 147.527 275.305C148.563 279.267 162.589 283.207 162.589 283.207L168.298 278.443L167.852 277.23C165.567 276.401 163.578 274.918 162.132 272.967Z" fill="white"/>
<path d="M97.1434 266.334C97.1434 266.334 96.9538 271.899 103.119 275.049C109.285 278.199 111.303 276.785 113.31 275.405C115.317 274.025 123.645 277.208 124.459 281.76C125.273 286.312 119.13 288.104 107.958 287.715C96.7865 287.325 90.5207 275.872 90.2085 273.691C89.8963 271.509 94.4007 266.412 97.1434 266.334Z" fill="#252525"/>
<path d="M91.29 271.02C92.1376 274.013 93.5949 276.8 95.5709 279.205C97.5469 281.611 99.999 283.583 102.774 284.999C112.028 289.451 122.586 284.999 124.392 283.753C124.543 284.073 124.629 284.419 124.646 284.773C124.662 285.126 124.609 285.479 124.489 285.812C124.369 286.145 124.184 286.451 123.946 286.712C123.707 286.974 123.419 287.186 123.099 287.337C120.69 288.694 111.57 291.644 101.915 287.86C92.2599 284.075 89.651 275.305 88.8483 274.37C88.0455 273.435 90.1305 270.608 91.29 271.02Z" fill="#151515"/>
<path d="M147.56 275.305C150.692 276.704 153.932 277.847 157.249 278.722C163.938 280.647 165.633 278.933 167.283 277.208C168.933 275.483 177.786 277.097 179.547 281.415C181.309 285.734 175.701 288.605 164.674 290.264C153.648 291.922 143.1 285.878 142.32 283.819C141.54 281.76 144.851 275.883 147.56 275.305Z" fill="#252525"/>
<path d="M142.799 280.97C147.689 284.472 153.185 287.042 159.01 288.55C169.045 291.265 178.41 284.899 179.915 283.385C180.129 283.663 180.286 283.981 180.377 284.32C180.467 284.658 180.49 285.012 180.443 285.359C180.397 285.707 180.282 286.042 180.105 286.345C179.928 286.648 179.693 286.913 179.413 287.125C177.351 288.906 169.045 293.458 158.765 291.521C148.485 289.585 142.041 285.489 141.105 284.71C140.168 283.931 141.573 280.781 142.799 280.97Z" fill="#151515"/>
<path d="M174.519 235.659C161.998 230.261 153.146 238.753 151.228 237.785C149.31 236.817 134.181 230.65 126.165 234.846C118.148 239.043 103.286 232.253 103.71 220.088C104.134 207.923 122.285 205.908 122.285 205.908L117.524 197.75L99.15 196.703C99.15 196.703 87.0084 222.436 75.5693 228.358C75.5693 228.358 84.3995 237.518 97.2992 235.87C105.639 234.813 111.793 242.237 126.912 241.436C142.03 240.634 150.202 246.311 157.773 239.354C162.979 234.568 168.643 236.627 174.786 235.848L174.519 235.659Z" fill="#1E489E"/>
<path d="M120.858 134.742C120.858 134.742 122.642 139.762 132.386 140.552C142.13 141.342 140.726 134.241 140.726 134.241C140.726 134.241 154.584 134.553 159.01 147.786C163.437 161.02 164.094 198.028 162.98 202.057C162.98 202.057 132.029 220.823 94.2891 196.058C94.2891 196.058 107.055 180.264 106.475 168.967C105.895 157.67 89.5841 135.899 120.858 134.742Z" fill="white"/>
<path d="M127.826 148.788C127.826 148.788 120.679 185.306 119.598 188.423C118.516 191.539 131.26 204.394 133.924 204.929C136.589 205.463 145.319 193.598 146.099 192.051C146.88 190.504 133.713 147.864 133.713 147.864L127.826 148.788Z" fill="#2C5CAA"/>
<path d="M124.147 148.443C124.147 148.443 128.662 151.982 131.851 151.637C135.039 151.292 138.395 146.228 138.395 146.228L134.181 140.897C134.181 140.897 133.724 139.973 130.033 140.752C126.343 141.531 122.329 145.215 124.147 148.443Z" fill="#1E489E"/>
<path d="M142.476 177.192L123.221 195.19C124.698 196.992 126.272 198.713 127.937 200.343L144.327 183.882C143.78 181.834 143.156 179.585 142.476 177.192Z" fill="#1E489E"/>
<path d="M138.641 163.903L121.582 180.03C120.668 184.327 119.943 187.588 119.653 188.423C119.561 188.758 119.561 189.112 119.653 189.447L140.302 169.691C139.755 167.732 139.142 165.839 138.641 163.903Z" fill="#1E489E"/>
<path d="M119.152 133.328C114.257 133.506 115.004 133.974 113.834 136.845C112.663 139.717 118.817 148.042 122.34 149.79C125.864 151.537 129.788 141.943 131.26 141.019C132.732 140.095 121.125 133.25 119.152 133.328Z" fill="#E6E7E8"/>
<path d="M140.202 133.94C144.081 133.94 143.546 134.297 144.661 136.534C145.776 138.771 141.316 145.583 138.618 147.107C135.92 148.632 132.297 141.175 131.081 140.496C129.866 139.817 138.641 133.963 140.202 133.94Z" fill="#E6E7E8"/>
</g>
<defs>
<clipPath id="clip0_9:324">
<rect width="234" height="292" fill="white"/>
</clipPath>
</defs>
</svg>
