<svg width="1920" height="176" viewBox="0 0 1920 176" fill="none" xmlns="http://www.w3.org/2000/svg">
<path d="M-117.093 99.818L-98.4309 118.779C-99.6832 111.972 -98.7554 104.944 -95.7796 98.6963L-92.4766 110.076C-91.2818 106.091 -90.0802 102.107 -88.8721 98.1223L-87.2596 113.853C-86.2995 108.695 -85.3427 103.536 -84.3892 98.3776L-83.5975 117.291C-80.4252 102.88 -72.5089 89.951 -61.1163 80.5733L-70.9875 116.012C-65.0743 107.131 -59.1542 98.2473 -53.2274 89.3603L-61.9717 119.91C-59.8974 112.118 -55.8532 104.991 -50.2281 99.2132C-50.025 105.126 -51.68 110.953 -54.9604 115.877C-53.2562 110.887 -50.1945 106.471 -46.1193 103.124C-45.612 105.575 -45.6566 108.108 -46.2499 110.539C-46.8431 112.97 -47.9701 115.239 -49.549 117.18C-48.6545 113.994 -47.0261 111.061 -44.7942 108.617C-42.5623 106.173 -39.789 104.286 -36.6965 103.107C-39.5605 109.358 -42.4349 115.615 -45.3195 121.878C-31.8478 105.854 -16.4317 91.5701 0.572453 79.358L-36.1025 125.756L-11.0063 107.733L-22.4723 122.706C-17.9676 117.589 -12.0982 113.862 -5.55167 111.962L-12.6779 120.475L4.65479 111.093L-4.17351 124.186C0.0480624 119.033 5.92057 115.498 12.4498 114.178L4.36522 124.625L17.0388 115.31L11.3037 124.033C29.3609 107.93 50.2451 95.3119 72.8992 86.8175C58.7261 99.2084 44.5498 111.596 30.3704 123.98L55.5548 110.777L45.7565 120.858L61.9256 113.51L52.7085 121.788L67.3308 115.734L60.7323 122.512L73.8444 116.823L67.9677 124.978C86.7048 107.426 110.413 96.1003 135.841 92.5538L101.333 121.729L119.531 113.061L107.973 121.492L119.181 117.439L112.032 124.399C116.646 121.523 121.998 120.052 127.434 120.167L122.097 124.765L137.241 119.879L134.193 121.958C133.767 123.449 134.886 126.098 134.46 127.589L151.064 119.562L142.666 132.457L159.325 119.757C157.135 124.279 154.948 128.809 152.765 133.345L166.101 117.404C165.812 121.835 165.513 126.266 165.203 130.696L181.539 98.1145C179.724 107.675 177.908 117.233 176.093 126.787L190.5 100.117L187.154 128.444L197.902 105.034L195.587 127.206L208.492 109.492C208.844 116.078 207.447 122.641 204.442 128.512C207.012 121.789 211.313 115.863 216.91 111.336L212.366 126.437C221.592 113.306 234.537 103.237 249.534 97.5265L226.895 128.429C235.622 117.599 246.765 108.966 259.431 103.22L238.464 127.539C245.473 120.837 253.732 115.58 262.771 112.069C258.98 116.585 255.182 121.096 251.377 125.604C256.807 120.472 263.516 116.891 270.802 115.236L258.403 127.86C264.75 122.781 272.364 119.532 280.422 118.463L273.142 126.458C279.204 122.251 286.315 119.808 293.682 119.4L281.518 132.926C297.793 127.857 314.725 123.261 330.98 118.19L308.876 134.451C318.208 128.755 328.859 125.582 339.787 125.241L327.13 135.619C335.537 130.649 345.021 127.787 354.774 127.276C351.108 130.63 347.442 133.973 343.777 137.307L367.339 127.697L362.056 135.382L399.699 103.591L386.865 136.418L400.518 122.566L395.031 137.509L407.587 125.545L405.502 135.352L414.555 125.164L412.548 137.409C423.471 124.059 437.977 114.103 454.361 108.711L432.594 137.004L453.031 123.823L442.42 137.127C448.601 132.585 455.66 129.38 463.148 127.716C461.658 131.458 458.828 134.51 455.209 136.278L476.236 127.503L465.402 137.461C476.877 131.033 489.531 126.986 502.606 125.564L478.392 144.372L481.819 141.33C499.983 125.172 523.055 129.485 546.378 122.637L507.531 138.547L547.389 130.618L523.848 140.809L556.422 135.758L540.145 144.271L573.904 136.756L565.656 145.884C579.007 138.158 592.359 130.425 605.711 122.685L595.248 138.42C600.957 131.995 607.899 126.784 615.663 123.095C613.631 130.949 609.721 138.192 604.269 144.2L632.441 116.769C627.922 126.201 623.405 135.653 618.891 145.125L643.114 118.167L633.401 142.109C640.761 134.147 648.987 127.031 657.926 120.894C652.641 127.54 649.791 135.796 649.852 144.288C644.443 153.698 652.133 167.431 658.53 176.224C664.927 185.016 673.343 192.678 676.81 202.975C683.711 223.447 667.197 245.826 646.934 253.349C626.671 260.871 604.225 257.651 582.845 254.514C381.919 225.089 178.86 212.757 -24.1498 217.651C-48.9814 218.256 -74.2336 219.059 -98.2185 212.577C-122.203 206.095 -145.197 191.052 -154.882 168.188C-164.567 145.323 -139.482 110.588 -117.093 99.818Z" fill="#528829"/>
<path d="M2078.2 115.8L2058.61 133.8C2060.2 127.065 2059.63 120 2056.97 113.61L2053.1 124.81C2052.11 120.77 2051.11 116.73 2050.1 112.69L2047.7 128.32C2047 123.12 2046.3 117.92 2045.61 112.72L2043.87 131.57C2041.42 117.018 2034.17 103.708 2023.26 93.77L2031.34 129.66C2025.88 120.493 2020.41 111.323 2014.94 102.15L2022.14 133.1C2020.46 125.214 2016.78 117.892 2011.45 111.84C2010.95 117.735 2012.31 123.638 2015.34 128.72C2013.89 123.651 2011.05 119.086 2007.15 115.54C2006.52 117.962 2006.44 120.494 2006.91 122.952C2007.38 125.409 2008.39 127.732 2009.87 129.75C2009.14 126.523 2007.66 123.512 2005.55 120.959C2003.44 118.407 2000.77 116.383 1997.74 115.05C2000.29 121.437 2002.84 127.83 2005.41 134.23C1992.76 117.549 1978.08 102.51 1961.71 89.46L1996.01 137.64L1971.85 118.38L1982.55 133.91C1978.31 128.574 1972.63 124.557 1966.19 122.33L1972.88 131.19L1956.04 120.95L1964.2 134.47C1960.24 129.112 1954.55 125.286 1948.1 123.64L1955.65 134.48L1943.46 124.54L1948.75 133.54C1931.52 116.551 1911.3 102.901 1889.1 93.2799C1902.63 106.367 1916.17 119.45 1929.71 132.53L1905.22 118.08L1914.5 128.64L1898.72 120.49L1907.51 129.22L1893.21 122.44L1899.46 129.54L1886.65 123.2L1892.11 131.64C1874.28 113.17 1851.17 100.668 1825.95 95.8499L1858.95 126.72L1841.21 117.15L1852.33 126.15L1841.34 121.54L1848.13 128.85C1843.66 125.746 1838.39 124.008 1832.96 123.85L1838.06 128.71L1823.18 123.07L1826.12 125.3C1826.47 126.81 1825.22 129.4 1825.57 130.91L1809.39 122.06L1817.13 135.36L1801.13 121.84C1803.09 126.467 1805.05 131.1 1807 135.74L1794.48 119.15C1794.55 123.59 1794.62 128.03 1794.71 132.47L1780.03 99.11C1781.36 108.75 1782.7 118.387 1784.03 128.02L1770.98 100.66L1772.9 129.12L1763.34 105.2L1764.54 127.46L1752.54 109.12C1751.86 115.68 1752.92 122.305 1755.63 128.32C1753.4 121.476 1749.4 115.342 1744.04 110.54L1747.82 125.85C1739.26 112.272 1726.84 101.566 1712.15 95.11L1733.21 127.11C1725.04 115.856 1714.34 106.674 1701.98 100.3L1721.7 125.64C1715.04 118.595 1707.05 112.931 1698.2 108.97C1701.76 113.67 1705.33 118.367 1708.9 123.06C1703.73 117.661 1697.21 113.748 1690.02 111.73L1701.77 124.96C1695.68 119.569 1688.24 115.941 1680.25 114.47L1687.12 122.82C1681.28 118.314 1674.3 115.517 1666.96 114.74L1678.43 128.86C1662.43 122.98 1645.75 117.54 1629.77 111.66L1651.03 129.01C1641.99 122.853 1631.52 119.148 1620.62 118.26L1632.74 129.26C1624.59 123.874 1615.26 120.539 1605.55 119.54C1609.04 123.073 1612.54 126.597 1616.03 130.11L1592.98 119.33L1597.87 127.27L1561.87 93.6299L1573.04 127.06L1560.1 112.54L1564.83 127.74L1552.89 115.16L1554.48 125.06L1545.95 114.43L1547.34 126.76C1537.1 112.879 1523.11 102.207 1507.02 95.9999L1527.34 125.35L1507.59 111.16L1517.52 124.98C1511.57 120.133 1504.68 116.577 1497.29 114.54C1498.59 118.352 1501.26 121.543 1504.79 123.49L1484.23 113.67L1494.55 124.16C1483.41 117.163 1470.98 112.487 1457.99 110.41L1481.23 130.41L1477.96 127.2C1460.63 110.15 1437.37 113.3 1414.42 105.29L1452.42 123.13L1413.01 113.21L1436.01 124.57L1403.73 117.89L1419.56 127.21L1386.22 118.01L1394 127.54C1381.05 119.153 1368.11 110.76 1355.16 102.36L1364.82 118.6C1359.44 111.897 1352.77 106.344 1345.2 102.27C1346.83 110.216 1350.38 117.646 1355.52 123.92L1328.76 95.11C1332.8 104.757 1336.84 114.423 1340.87 124.11L1318.03 95.9699L1326.53 120.37C1319.58 112.048 1311.72 104.529 1303.1 97.95C1308.04 104.853 1310.48 113.242 1309.99 121.72C1314.92 131.39 1306.55 144.72 1299.72 153.18C1292.89 161.64 1284.1 168.87 1280.12 178.98C1272.2 199.08 1287.57 222.26 1307.43 230.79C1327.29 239.32 1349.87 237.23 1371.38 235.17C1573.53 215.867 1776.95 213.743 1979.46 228.82C2004.23 230.67 2029.41 232.74 2053.69 227.47C2077.97 222.2 2101.69 208.33 2112.51 185.98C2123.33 163.63 2100.02 127.68 2078.2 115.8Z" fill="#528829"/>
<path d="M621.228 150.432L641.632 167.504C639.729 160.851 639.974 153.766 642.333 147.26L646.719 158.268C647.524 154.187 648.335 150.105 649.153 146.022L652.276 161.524C652.734 156.297 653.188 151.071 653.64 145.844L656.252 164.593C658.02 149.943 664.652 136.311 675.087 125.878L668.68 162.104C673.709 152.694 678.745 143.28 683.786 133.863L678.03 165.113C679.343 157.157 682.681 149.673 687.722 143.38C688.495 149.246 687.41 155.206 684.619 160.423C685.834 155.291 688.456 150.6 692.189 146.877C692.93 149.267 693.13 151.792 692.774 154.269C692.419 156.746 691.516 159.113 690.131 161.198C690.714 157.94 692.052 154.864 694.038 152.216C696.024 149.568 698.602 147.423 701.566 145.951C699.319 152.449 697.061 158.954 694.794 165.466C706.657 148.216 720.624 132.512 736.37 118.717L704.342 168.436L727.583 148.076L717.615 164.086C721.605 158.559 727.087 154.283 733.42 151.759L727.148 160.92L743.495 149.91L735.971 163.794C739.676 158.258 745.18 154.172 751.551 152.229L744.512 163.407L756.228 152.913L751.361 162.148C767.781 144.379 787.35 129.805 809.079 119.164C796.168 132.865 783.253 146.562 770.334 160.256L794.127 144.686L785.347 155.665L800.732 146.791L792.357 155.92L806.327 148.484L800.413 155.866L812.915 148.939L807.852 157.623C824.809 138.345 847.314 124.785 872.281 118.802L840.748 151.17L858.025 140.787L847.335 150.293L858.099 145.179L851.655 152.796C855.971 149.488 861.155 147.508 866.577 147.097L861.708 152.189L876.31 145.864L873.477 148.228C873.197 149.753 874.566 152.282 874.287 153.807L890.039 144.216L882.924 157.861L898.28 143.613C896.536 148.325 894.797 153.045 893.061 157.77L904.798 140.617C904.937 145.056 905.066 149.494 905.186 153.934L918.302 119.929C917.418 129.62 916.533 139.308 915.648 148.993L927.415 121.057L926.817 149.575L935.257 125.238L935.091 147.529L946.227 128.652C947.213 135.174 946.456 141.841 944.031 147.975C945.941 141.035 949.65 134.722 954.784 129.677L951.718 145.146C959.634 131.186 971.547 119.915 985.924 112.784L966.371 145.726C974.012 134.105 984.271 124.437 996.324 117.497L977.8 143.724C984.13 136.377 991.844 130.349 1000.5 125.982C997.164 130.842 993.819 135.699 990.467 140.553C995.376 134.92 1001.71 130.709 1008.8 128.359L997.677 142.12C1003.5 136.453 1010.77 132.484 1018.69 130.643L1012.21 139.303C1017.84 134.531 1024.68 131.413 1031.98 130.296L1021.17 144.933C1036.88 138.317 1053.29 132.11 1068.98 125.495L1048.55 143.812C1057.29 137.242 1067.59 133.056 1078.43 131.663L1066.83 143.213C1074.72 137.456 1083.88 133.692 1093.54 132.243C1090.22 135.934 1086.89 139.616 1083.56 143.287L1106.09 131.45L1101.57 139.608L1135.97 104.334L1126.37 138.246L1138.62 123.142L1134.6 138.545L1145.94 125.424L1144.81 135.387L1152.84 124.373L1152.02 136.754C1161.61 122.413 1175.09 111.104 1190.87 104.157L1171.94 134.418L1191.01 119.327L1181.73 133.593C1187.44 128.475 1194.16 124.604 1201.45 122.226C1200.33 126.094 1197.81 129.405 1194.38 131.514L1214.46 120.751L1204.64 131.708C1215.44 124.203 1227.64 118.954 1240.52 116.277L1218.23 137.334L1221.35 133.975C1237.87 116.14 1261.25 118.207 1283.81 109.141L1246.67 128.725L1285.58 116.988L1263.13 129.402L1295.07 121.232L1279.69 131.276L1312.57 120.54L1305.24 130.42C1317.78 121.442 1330.32 112.457 1342.87 103.466L1333.97 120.136C1339.03 113.191 1345.44 107.334 1352.81 102.914C1351.55 110.927 1348.35 118.513 1343.51 125.019L1368.9 94.9987C1365.31 104.822 1361.73 114.666 1358.15 124.529L1379.66 95.36L1372.3 120.128C1378.86 111.493 1386.36 103.617 1394.67 96.6453C1390.05 103.771 1388.01 112.263 1388.89 120.709C1384.41 130.598 1393.39 143.525 1400.6 151.659C1407.82 159.793 1416.93 166.608 1421.38 176.522C1430.22 196.233 1415.95 220.101 1396.5 229.543C1377.06 238.985 1354.41 237.945 1332.82 236.885C1130 226.98 926.695 234.295 725.104 258.75C700.447 261.747 675.39 264.983 650.892 260.845C626.393 256.707 602.055 243.953 590.21 222.129C578.365 200.305 599.982 163.312 621.228 150.432Z" fill="#528829"/>
<path d="M39.5257 149.32C34.2313 132.839 25.4372 117.696 13.7457 104.93C19.8357 108.69 25.3957 110.93 31.4857 114.67C20.4857 96.06 6.37566 78.12 -7.19434 61.32C14.8057 74.76 34.8057 93.13 48.8057 114.79C41.6159 87.4019 31.1187 60.991 17.5457 36.14C39.6885 56.9263 54.6993 84.1761 60.4357 114C55.2057 75 63.5857 35.08 81.2457 0C84.3617 37.2994 83.0594 74.8363 77.3657 111.83C85.9257 83.39 103.366 58.65 124.216 37.5C112.457 64.4523 103.195 92.4261 96.5457 121.07C110.311 102.24 128.107 86.7227 148.636 75.65C133.195 92.8444 120.294 112.16 110.326 133.01C119.726 123.17 130.546 115.86 142.326 109.01C129.854 124.038 119.782 140.904 112.466 159.01C87.5957 158.7 63.4857 155.9 39.5257 149.32Z" fill="#528829"/>
<path d="M1017.68 183.985C1013.29 170.304 1006.01 157.734 996.338 147.134C1001.37 150.251 1005.98 152.101 1011.01 155.219C1001.93 139.77 990.226 124.869 979 110.934C997.197 122.087 1013.77 137.339 1025.33 155.317C1019.39 132.581 1010.71 110.657 999.481 90.0277C1017.81 107.285 1030.23 129.903 1034.98 154.658C1030.65 122.318 1037.59 89.1449 1052.21 60C1054.78 90.9621 1053.7 122.121 1048.99 152.829C1056.08 129.226 1070.52 108.692 1087.77 91.1276C1078.04 113.497 1070.37 136.714 1064.86 160.487C1076.26 144.854 1091 131.972 1108 122.781C1095.22 137.063 1084.54 153.105 1076.29 170.422C1084.07 162.253 1093.05 156.185 1102.76 150.51C1092.44 162.983 1084.1 176.978 1078.04 192C1057.47 191.769 1037.51 189.443 1017.68 183.985Z" fill="#528829"/>
</svg>
