<svg width="729" height="877" viewBox="0 0 729 877" fill="none" xmlns="http://www.w3.org/2000/svg">
<path d="M128.506 397.012C116.438 377.081 113.978 352.93 111.81 329.717C110.309 320.374 110.708 310.824 112.982 301.639C113.213 300.442 113.812 299.348 114.694 298.507C115.576 297.667 116.697 297.122 117.903 296.949L129.62 293.608C125.402 300.173 127.335 308.673 128.331 316.411C129.23 328.797 129.425 341.225 128.917 353.634C128.388 366.1 131.243 378.476 137.177 389.45C132.792 392.343 129.11 396.183 126.404 400.687C123.697 405.191 122.033 410.245 121.535 415.477" fill="#774828"/>
<path d="M151.061 374.033C169.987 373.894 188.405 367.894 203.785 356.858C218.942 345.843 232.522 332.807 244.148 318.111C243.946 328.062 241.503 337.84 237.001 346.717C232.234 353.629 225.991 359.396 218.724 363.599C193.991 379.528 165.93 389.556 136.708 392.908" fill="#774828"/>
<path d="M145.771 569.74C181.43 569.74 218.251 553.268 236.578 523C238.236 523.869 239.549 525.271 240.302 526.976C241.055 528.681 241.204 530.589 240.724 532.389C239.576 535.944 237.45 539.111 234.588 541.531C218.002 558.003 195.238 566.816 172.723 573.446C159.657 577.308 146.398 580.497 133 583" fill="#774828"/>
<path d="M-15.4954 466.416C-6.52954 440.163 -5.24899 411.893 -11.8046 384.936C-7.35234 386.929 -1.08403 383.822 2.25518 387.398C3.18941 388.558 3.83229 389.924 4.12987 391.384C11.0998 416.255 9.86714 442.712 0.614872 466.826C-0.766758 469.826 -1.63779 473.035 -1.9626 476.322C-1.49394 475.443 -1.02528 474.564 -0.498034 473.685" fill="#774828"/>
<path d="M78.056 101.494C72.9935 81.3371 69.0983 71.4422 64.7631 57.2564C60.428 43.0707 55.3313 28.7091 51.3477 14.2302C67.4224 10.72 83.1182 5.65508 98.2138 -0.893341C109.378 -5.48595 119.832 -11.6441 129.263 -19.1826C138.881 -27.9312 147.452 -37.7668 154.805 -48.492C167.391 -64.16 178.088 -81.2579 186.674 -99.4317C188.554 -103.156 189.518 -107.276 189.486 -111.449C188.783 -120.183 180.64 -126.22 173.317 -130.969C173.702 -127.822 173.258 -124.629 172.028 -121.707C165.832 -101.424 156.946 -82.0632 145.607 -64.1431C134.205 -46.1939 118.575 -31.3191 100.088 -20.8239C83.3476 -12.5676 65.3863 -7.06502 46.8955 -4.52785C46.8955 -5.46576 46.4854 -6.40353 46.3683 -7.34144C40.51 -41.2231 45.7824 -75.8669 51.2892 -109.807L34.5345 -78.6219C24.5702 -44.8533 21.5098 -9.42168 25.5359 25.5569C29.5621 60.5354 40.5922 94.3432 57.9675 124.961C63.7723 112.455 65.9124 108.013 78.056 101.494Z" fill="#8E5833"/>
<path d="M105.42 416.415C130.2 383.94 146.252 345.838 162.069 308.204L183.335 302.167C182.983 328.194 170.153 352.286 156.797 374.561C141.563 401.805 122.571 426.768 100.382 448.714C100.382 468 99.6369 466 100.909 479.782C101.742 488.809 106.426 494.378 107.587 502.174C113.37 540.988 120.74 526.257 120.885 565.5C159.107 544.935 165.659 550.787 183.335 512L210.165 477.591C203.884 524.697 205.723 530.717 172.146 564.328C158.856 576.946 144.767 588.694 129.38 600.085L121.589 605.947C120.769 690.886 99.0518 860.533 99.0518 860.533C99.0518 860.533 56.9595 876.254 28.9108 876C4.42462 875.778 -32.4661 863.171 -32.4661 863.171C-32.4661 863.171 -2.60666 767.893 17.5458 699.72C-2.4512 684.421 -20.1996 666.385 -35.1786 646.142C-37.5219 642.918 -39.748 639.635 -41.9156 636.294C-49.6123 638.154 -57.7076 637.412 -64.9385 634.184C-73.1587 630.416 -80.4266 624.847 -86.2041 617.888C-101.28 600.725 -109.972 578.88 -110.809 556.045L-109.403 542.973C-107.647 555.995 -104.18 568.727 -99.0923 580.841C-91.6523 598.426 -79.3499 616.012 -60.955 621.874C-57.3913 623.057 -53.6106 623.437 -49.8829 622.988C-61.0265 603.161 -68.6198 581.537 -72.32 559.093L-68.1021 536.701C-68.2192 554.228 -61.3651 571.051 -54.4524 587.171C-50.5833 597.362 -45.4251 607.016 -39.1037 615.895C-29.574 626.816 -18.288 636.069 -5.71155 643.27C4.76352 650.795 16.4842 656.411 28.9108 659.859C43.8494 605.402 56.7961 548.19 59.2566 506.746C48.3602 503.874 37.5225 500.943 26.919 497.191C0.747528 487.936 -23.5426 474.036 -44.7863 456.158C-56.7353 446.553 -66.8391 434.854 -74.6048 421.632C-78.4713 414.715 -84.6223 393.26 -71.5584 406.508C-61.7977 416.433 -51.5115 425.825 -40.744 434.645C-19.066 452.266 4.51367 467.406 29.5551 479.782C34.4054 482.417 39.5875 484.389 44.9624 485.644C49.634 486.573 54.4518 486.473 59.0808 485.351C47.2471 382.123 -107.118 241.203 -210.985 149.582C-320.418 53.1541 -268.279 -77.1555 -268.279 -77.1555H-256.563C-259.902 9.07275 -249.474 57.0815 -230.259 91.139C-205.949 77.7345 -185.292 58.5742 -170.094 35.334C-150.528 5.20393 -141.096 -30.2605 -132.25 -65.1387C-128.852 -64.7284 -124.869 -63.9077 -123.697 -60.7423C-123.286 -59.246 -123.286 -57.6663 -123.697 -56.1701C-129 -20.4651 -142.254 13.5911 -162.479 43.4819C-153.033 43.1919 -143.68 41.5334 -134.711 38.558C-108.553 30.4274 -84.2886 17.1351 -63.3501 -0.534248C-42.4115 -18.2036 -25.2232 -39.8917 -12.8 -64.318C-23.8136 -12.4403 -65.9345 29.7065 -115.495 48.4646C-127.212 52.8024 -138.929 55.9679 -150.645 59.1919C-159.162 62.0697 -168.148 63.303 -177.124 62.8262C-190.182 78.7144 -205.224 92.8595 -221.882 104.915C-204.482 129.417 -181.987 147.354 -156.796 171.505C-103.017 222.973 12.9177 330.597 70.3872 412.663C69.6713 390.089 70.6898 367.494 73.4337 345.076C77.9792 315.023 87.2524 285.88 100.909 258.73C93.5627 225.427 54.7079 144.089 55.5559 109.994L78.0559 100.994C89.5559 131.494 103.487 201.284 110.809 239.914C125.572 214.239 143.557 189.736 152.813 161.482L190.13 156.909C162.977 174.461 141.713 199.762 129.087 229.538L120.885 250.113C108.114 287.571 104.189 327.314 100.382 366.647C98.3213 388.185 96.237 409.723 94.1284 431.261C94.7342 431.215 95.2874 431.191 95.7915 431.186C97.1592 428.079 100.063 423.363 105.42 416.415Z" fill="#8E5833"/>
<path d="M-20.2405 233.7C-39.9243 222.503 -67.6923 222.445 -82.7481 239.561C-96.3441 229.748 -112.87 224.849 -129.614 225.669C-146.135 227.193 -162.421 238.155 -166.638 254.216C-172.619 248.032 -180.419 243.924 -188.9 242.492C-193.254 242.373 -197.577 243.263 -201.531 245.094C-205.484 246.924 -208.961 249.645 -211.689 253.044C-217.191 259.843 -221.185 267.736 -223.405 276.198C-223.923 278.549 -224.964 280.754 -226.451 282.646C-229.844 285.121 -233.972 286.381 -238.168 286.222C-249.306 287.84 -259.409 293.646 -266.418 302.456C-273.428 311.267 -276.817 322.421 -275.895 333.645C-295.345 343.493 -313.505 358.968 -319.656 379.895C-320.569 384.577 -322.209 389.087 -324.519 393.26C-327.741 397.832 -333.423 400.939 -334.595 406.391C-336.528 415.301 -325.515 421.104 -316.551 422.628C-289.774 427.215 -262.234 423.343 -237.758 411.549C-239.64 414.939 -240.29 418.878 -239.595 422.694C-238.901 426.51 -236.906 429.967 -233.95 432.476C-227.853 437.315 -220.226 439.811 -212.45 439.51C-203.298 439.487 -194.244 437.628 -185.822 434.044C-177.4 430.459 -169.781 425.222 -163.416 418.642C-162.01 417.235 -160.253 415.594 -158.32 415.945C-156.387 416.297 -155.098 418.642 -154.219 420.635C-150.504 427.498 -144.726 433.018 -137.704 436.416C-130.681 439.814 -122.769 440.917 -115.086 439.569C-99.6634 436.511 -86.0196 427.605 -77.0071 414.714C-75.278 421.594 -71.1915 427.649 -65.4597 431.824C-59.7278 436 -52.7138 438.03 -45.6394 437.563C-38.565 437.096 -31.8787 434.16 -26.745 429.267C-21.6114 424.374 -18.3559 417.835 -17.5455 410.787C-13.7171 416.609 -8.49808 421.385 -2.36069 424.68C3.7767 427.976 10.6387 429.688 17.604 429.662C31.6053 428.724 44.7864 416.414 43.9076 402.463C50.1078 407.644 57.2206 411.62 64.8801 414.187C68.7459 415.473 72.8935 415.655 76.857 414.712C80.8204 413.77 84.4428 411.741 87.3174 408.853C93.5857 401.467 92.0625 390.505 90.1292 381.009C96.5147 383.94 105.771 385.991 109.11 379.836C109.802 377.913 110.045 375.857 109.822 373.825C109.598 371.793 108.914 369.839 107.821 368.112C101.652 354.937 92.9761 343.09 82.2792 333.234C87.1415 333.234 87.0244 325.614 84.1539 321.511C69.6254 301.815 38.6352 306.563 24.1653 288.156C17.9555 280.126 15.3192 269.281 8.93375 260.84C1.14224 249.913 -8.78247 240.68 -20.2405 233.7Z" fill="#1D774C"/>
<path d="M50.0001 340.562C50.0116 341.796 49.6558 343.005 48.978 344.036C48.3001 345.067 47.3309 345.872 46.1938 346.35C45.0568 346.827 43.8034 346.955 42.5934 346.717C41.3834 346.479 40.2714 345.886 39.3995 345.014C38.5275 344.141 37.935 343.029 37.6973 341.818C37.4596 340.607 37.5875 339.353 38.0647 338.215C38.542 337.078 39.3469 336.108 40.377 335.43C41.4072 334.751 42.6157 334.395 43.8488 334.407C44.6677 334.365 45.4862 334.495 46.2516 334.79C47.0169 335.084 47.712 335.536 48.2918 336.116C48.8716 336.696 49.3232 337.392 49.6175 338.158C49.9117 338.923 50.0421 339.743 50.0001 340.562Z" fill="#278255"/>
<path d="M189.198 234.579C181.588 235.845 174.349 238.766 167.991 243.137C164.841 245.36 162.221 248.253 160.317 251.607C158.413 254.961 157.273 258.694 156.977 262.54C141.16 253.571 120.656 260.781 106.714 272.446C92.771 284.111 82.5776 299.704 68.5178 311.252C64.3584 314.711 59.4375 318.403 59.0274 323.796C58.4416 331.593 67.346 336.399 74.9618 337.924C84.6357 339.798 94.5792 339.798 104.253 337.924C108.952 336.251 114.083 336.251 118.782 337.924C120.979 339.617 122.948 341.587 124.64 343.785C135.653 354.395 154.751 350.292 165.999 339.975C168.225 337.924 171.389 335.52 173.849 337.22C174.736 337.991 175.437 338.953 175.9 340.034C178.037 344.012 181.162 347.373 184.973 349.794C188.785 352.214 193.154 353.612 197.662 353.854C202.17 354.095 206.663 353.172 210.711 351.172C214.759 349.173 218.224 346.165 220.774 342.437C222.824 339.448 225.343 335.579 228.8 336.575C230.633 337.363 232.127 338.776 233.018 340.561C235.053 344.169 237.925 347.234 241.391 349.498C244.857 351.763 248.817 353.161 252.936 353.575C264.125 353.575 271.858 342.144 275.607 331.593C282.227 335.52 289.726 339.565 297.224 337.865C301.47 336.449 305.107 333.628 307.535 329.866C309.963 326.104 311.037 321.627 310.581 317.172C308.648 290.677 275.432 280.067 260.025 262.54C241.219 240.616 219.017 228.599 189.198 234.579Z" fill="#238D5D"/>
<path d="M151.588 304.511C151.6 305.339 151.364 306.152 150.912 306.845C150.459 307.539 149.81 308.081 149.048 308.403C148.285 308.725 147.444 308.813 146.632 308.654C145.82 308.495 145.073 308.098 144.488 307.512C143.903 306.927 143.506 306.18 143.347 305.367C143.188 304.554 143.276 303.713 143.598 302.95C143.92 302.187 144.462 301.538 145.155 301.085C145.848 300.632 146.66 300.396 147.487 300.408C148.57 300.423 149.605 300.86 150.37 301.626C151.136 302.393 151.573 303.428 151.588 304.511Z" fill="#39A873"/>
<path d="M203.024 279.832C202.874 281.369 202.158 282.794 201.016 283.831C199.874 284.869 198.386 285.443 196.843 285.443C195.301 285.443 193.813 284.869 192.671 283.831C191.528 282.794 190.812 281.369 190.663 279.832C190.579 278.97 190.676 278.099 190.949 277.276C191.221 276.453 191.662 275.696 192.244 275.054C192.826 274.412 193.536 273.899 194.328 273.548C195.12 273.197 195.977 273.016 196.843 273.016C197.71 273.016 198.566 273.197 199.358 273.548C200.15 273.899 200.86 274.412 201.442 275.054C202.024 275.696 202.466 276.453 202.738 277.276C203.011 278.099 203.108 278.97 203.024 279.832Z" fill="#39A873"/>
<path d="M186.562 316.879C188.827 316.879 190.663 315.042 190.663 312.776C190.663 310.51 188.827 308.673 186.562 308.673C184.297 308.673 182.461 310.51 182.461 312.776C182.461 315.042 184.297 316.879 186.562 316.879Z" fill="#39A873"/>
<path d="M362.773 300.173C362.773 301.262 362.341 302.305 361.572 303.075C360.803 303.844 359.76 304.277 358.673 304.277C358.134 304.277 357.601 304.171 357.103 303.965C356.606 303.758 356.154 303.456 355.773 303.075C355.392 302.694 355.09 302.242 354.884 301.744C354.678 301.246 354.572 300.712 354.572 300.173C354.572 299.635 354.678 299.101 354.884 298.603C355.09 298.105 355.392 297.653 355.773 297.272C356.154 296.891 356.606 296.589 357.103 296.382C357.601 296.176 358.134 296.07 358.673 296.07C359.76 296.07 360.803 296.503 361.572 297.272C362.341 298.042 362.773 299.085 362.773 300.173Z" fill="#39A873"/>
<path d="M220.54 271.567C226.234 271.567 230.85 266.948 230.85 261.25C230.85 255.552 226.234 250.933 220.54 250.933C214.845 250.933 210.229 255.552 210.229 261.25C210.229 266.948 214.845 271.567 220.54 271.567Z" fill="#39A873"/>
<path d="M218.431 319.927C223.543 319.927 227.687 315.781 227.687 310.666C227.687 305.551 223.543 301.404 218.431 301.404C213.319 301.404 209.175 305.551 209.175 310.666C209.175 315.781 213.319 319.927 218.431 319.927Z" fill="#39A873"/>
<path d="M166.996 299.352C172.108 299.352 176.252 295.206 176.252 290.09C176.252 284.975 172.108 280.829 166.996 280.829C161.884 280.829 157.74 284.975 157.74 290.09C157.74 295.206 161.884 299.352 166.996 299.352Z" fill="#39A873"/>
<path d="M120.715 303.515C120.715 304.941 120.292 306.335 119.501 307.52C118.709 308.706 117.584 309.63 116.267 310.176C114.95 310.721 113.501 310.864 112.104 310.586C110.706 310.308 109.422 309.621 108.414 308.613C107.406 307.604 106.72 306.32 106.442 304.921C106.164 303.523 106.307 302.073 106.852 300.755C107.398 299.438 108.321 298.312 109.506 297.52C110.691 296.727 112.084 296.304 113.509 296.304C115.42 296.304 117.253 297.064 118.605 298.416C119.956 299.768 120.715 301.602 120.715 303.515Z" fill="#39A873"/>
<path d="M8.3479 518.47C4.30569 504.108 -25.4543 494.377 -37.7566 490.391C-71.2659 479.488 -98.1554 482.888 -121.471 510.908C-123.104 513.45 -125.418 515.481 -128.15 516.77C-130.816 517.328 -133.568 517.328 -136.234 516.77C-143.297 516.385 -150.288 518.358 -156.109 522.379C-161.93 526.4 -166.252 532.241 -168.396 538.986C-168.683 540.884 -169.518 542.657 -170.798 544.086C-172.312 545.067 -174.092 545.559 -175.895 545.493C-190.716 546.138 -205.655 544.965 -220.476 546.489C-235.433 547.353 -249.667 553.216 -260.898 563.137C-262.588 564.541 -263.78 566.453 -264.296 568.589C-264.94 572.751 -261.015 576.092 -257.383 578.261C-228.97 594.791 -193.469 590.747 -161.014 585.061C-143.513 580.994 -125.535 579.357 -107.587 580.195C-98.917 581.016 -90.4225 583.126 -81.7523 584.181C-72.1595 585.179 -62.5065 585.473 -52.8709 585.061C-35.1682 585.632 -17.5073 583.011 -0.73233 577.323C6.18042 574.568 14.1477 570.758 20.7089 574.392C23.5795 575.975 25.6884 578.847 28.6761 580.254C35.7646 583.654 43.6732 577.792 49.18 572.165C52.847 568.988 55.6826 564.964 57.4402 560.441C60.3693 550.417 52.5778 540.041 43.2631 535.293C33.9485 530.545 23.228 529.431 13.3861 525.797C12.2775 525.487 11.2551 524.925 10.3983 524.156C9.29721 522.438 8.59641 520.495 8.3479 518.47Z" fill="#40A876"/>
<path d="M196.005 456.656C185.662 454.359 174.326 453.908 165.017 458.87C155.708 463.833 149.585 475.644 153.847 485.241C147.624 485.123 141.485 486.682 136.086 489.752C130.687 492.822 126.23 497.287 123.19 502.671C121.628 506.16 119.788 509.52 117.687 512.719C112.599 519.116 102.876 522.233 101.139 530.148C100.768 532.684 101.145 535.272 102.224 537.601C103.303 539.929 105.038 541.899 107.22 543.272C111.615 546.014 116.715 547.438 121.907 547.373C133.462 547.089 144.87 544.741 155.584 540.442C157.156 539.868 159.266 539.458 160.176 540.853C160.547 541.661 160.69 542.554 160.59 543.436C161.041 546.068 162.447 548.445 164.542 550.122C166.637 551.798 169.278 552.658 171.968 552.541C177.34 552.143 182.569 550.635 187.317 548.112C192.096 545.555 197.612 544.687 202.955 545.651C206.658 547.216 210.252 549.025 213.712 551.064C221.159 554.263 229.764 552.336 237.253 549.26C242.341 547.209 247.596 544.502 253.015 545.364C256.931 546.465 260.666 548.123 264.103 550.285C267.249 551.886 270.704 552.801 274.235 552.971C277.767 553.141 281.295 552.561 284.582 551.269C287.839 549.901 290.587 547.564 292.447 544.582C294.307 541.599 295.187 538.118 294.967 534.619C294.057 526.416 286.237 520.675 278.418 518.665C270.288 517.302 262.043 516.739 253.801 516.984C254.531 513.962 254.218 510.786 252.913 507.961C251.608 505.136 249.387 502.826 246.603 501.399C243.789 500.046 240.314 499.513 238.328 497.052C236.762 494.064 236.142 490.676 236.549 487.332C235.225 467.729 211.892 460.183 196.005 456.656Z" fill="#238D5D"/>
<path d="M157 517C159.209 517 161 515.433 161 513.5C161 511.567 159.209 510 157 510C154.791 510 153 511.567 153 513.5C153 515.433 154.791 517 157 517Z" fill="#177548"/>
<path d="M189 486C195.075 486 200 481.075 200 475C200 468.925 195.075 464 189 464C182.925 464 178 468.925 178 475C178 481.075 182.925 486 189 486Z" fill="#177548"/>
<path d="M190 515C191.657 515 193 513.433 193 511.5C193 509.567 191.657 508 190 508C188.343 508 187 509.567 187 511.5C187 513.433 188.343 515 190 515Z" fill="#177548"/>
<path d="M226 497.5C226 498.192 225.766 498.869 225.326 499.445C224.886 500.02 224.262 500.469 223.531 500.734C222.8 500.998 221.996 501.068 221.22 500.933C220.444 500.798 219.731 500.464 219.172 499.975C218.612 499.485 218.231 498.862 218.077 498.183C217.923 497.504 218.002 496.8 218.304 496.161C218.607 495.521 219.12 494.974 219.778 494.59C220.435 494.205 221.209 494 222 494C223.061 494 224.078 494.369 224.829 495.025C225.579 495.682 226 496.572 226 497.5Z" fill="#177548"/>
<path d="M174 497C174 497.396 173.854 497.782 173.579 498.111C173.304 498.44 172.914 498.696 172.457 498.848C172 498.999 171.497 499.039 171.012 498.962C170.527 498.884 170.082 498.694 169.732 498.414C169.383 498.135 169.145 497.778 169.048 497.39C168.952 497.002 169.001 496.6 169.19 496.235C169.379 495.869 169.7 495.557 170.111 495.337C170.522 495.117 171.006 495 171.5 495C172.163 495 172.799 495.211 173.268 495.586C173.737 495.961 174 496.47 174 497Z" fill="#177548"/>
<path d="M221 511.5C221 512.39 220.736 513.26 220.242 514C219.747 514.74 219.044 515.317 218.222 515.658C217.4 515.998 216.495 516.087 215.622 515.914C214.749 515.74 213.947 515.311 213.318 514.682C212.689 514.053 212.26 513.251 212.086 512.378C211.913 511.505 212.002 510.6 212.343 509.778C212.683 508.956 213.26 508.253 214 507.758C214.74 507.264 215.61 507 216.5 507C217.693 507 218.838 507.474 219.682 508.318C220.526 509.162 221 510.307 221 511.5Z" fill="#177548"/>
<path d="M253 525.5C253 526.59 252.647 527.654 251.986 528.56C251.324 529.465 250.385 530.17 249.286 530.585C248.187 531 246.979 531.107 245.814 530.891C244.649 530.676 243.58 530.148 242.742 529.375C241.905 528.602 241.337 527.619 241.11 526.549C240.883 525.48 241.008 524.372 241.469 523.368C241.93 522.364 242.705 521.508 243.698 520.908C244.69 520.308 245.854 519.992 247.043 520C247.828 520 248.607 520.143 249.332 520.42C250.058 520.696 250.716 521.102 251.27 521.613C251.824 522.125 252.262 522.731 252.559 523.398C252.855 524.065 253.005 524.78 253 525.5Z" fill="#177548"/>
<path d="M216 528.46C216.009 530.143 215.459 531.79 214.421 533.193C213.382 534.596 211.902 535.692 210.167 536.341C208.432 536.991 206.52 537.165 204.674 536.842C202.829 536.518 201.132 535.712 199.798 534.525C198.465 533.338 197.556 531.823 197.186 530.173C196.816 528.523 197.001 526.812 197.719 525.257C198.436 523.701 199.654 522.371 201.217 521.435C202.78 520.5 204.619 520 206.5 520C209.012 520 211.421 520.89 213.202 522.475C214.982 524.061 215.988 526.212 216 528.46Z" fill="#177548"/>
<path d="M298.502 120.103C232.467 103.287 138.664 133.658 88.0001 172.58L114.631 181.228C176.556 153.496 251.111 143.955 272.036 150.75C298.192 159.242 587.837 153.431 631 150.75C673.882 148.086 670.949 145.601 706.5 141.552C690.447 129.006 566 145.821 517 141.552C477.941 138.149 381.046 141.122 298.502 120.103Z" fill="#8E5833"/>
<path d="M136.198 -72.4708C128.588 -71.2047 121.349 -68.2832 114.991 -63.9125C111.841 -61.6888 109.221 -58.7967 107.317 -55.4427C105.413 -52.0887 104.273 -48.3556 103.977 -44.5096C88.1602 -53.4783 67.6563 -46.2682 53.7136 -34.6031C39.771 -22.9379 29.5776 -7.34516 15.5178 4.20274C11.3584 7.66125 6.43753 11.3541 6.02745 16.7471C5.44162 24.5434 14.346 29.3501 21.9618 30.8742C31.6357 32.7487 41.5792 32.7487 51.2531 30.8742C55.9517 29.2019 61.083 29.2019 65.7817 30.8742C67.9788 32.5673 69.9479 34.5376 71.6399 36.7361C82.6535 47.3461 101.751 43.2428 112.999 32.9259C115.225 30.8743 118.389 28.4709 120.849 30.1708C121.736 30.942 122.437 31.9038 122.9 32.9844C125.037 36.9629 128.162 40.324 131.973 42.7443C135.785 45.1646 140.154 46.5628 144.662 46.8042C149.17 47.0456 153.663 46.1223 157.711 44.1228C161.759 42.1234 165.224 39.1152 167.774 35.3878C169.824 32.3982 172.343 28.5294 175.8 29.5259C177.633 30.3138 179.127 31.7262 180.018 33.5121C182.053 37.1194 184.925 40.1844 188.391 42.4491C191.857 44.7138 195.817 46.1117 199.936 46.5253C211.125 46.5253 218.858 35.0947 222.607 24.5433C229.227 28.4707 236.726 32.5155 244.224 30.8155C248.47 29.3995 252.107 26.5782 254.535 22.8166C256.963 19.0551 258.037 14.5778 257.581 10.1231C255.648 -16.3726 222.432 -26.9826 207.025 -44.5096C188.219 -66.4331 166.017 -78.4499 136.198 -72.4708Z" fill="#238D5D"/>
<path d="M685.558 114.544C682.837 114.995 680.248 116.034 677.974 117.59C676.848 118.381 675.911 119.41 675.23 120.603C674.549 121.797 674.142 123.125 674.036 124.494C668.38 121.302 661.048 123.868 656.062 128.019C651.076 132.17 647.431 137.718 642.403 141.827C640.916 143.058 639.156 144.372 639.01 146.291C638.8 149.065 641.984 150.776 644.708 151.318C648.167 151.985 651.723 151.985 655.182 151.318C656.862 150.723 658.697 150.723 660.377 151.318C661.163 151.921 661.867 152.622 662.472 153.404C666.411 157.179 673.24 155.719 677.262 152.048C678.058 151.318 679.189 150.463 680.069 151.068C680.386 151.342 680.637 151.684 680.802 152.069C681.567 153.485 682.684 154.681 684.047 155.542C685.41 156.403 686.972 156.901 688.584 156.987C690.196 157.073 691.803 156.744 693.251 156.032C694.698 155.321 695.937 154.251 696.849 152.924C697.582 151.86 698.483 150.484 699.719 150.838C700.374 151.119 700.909 151.621 701.227 152.257C701.955 153.54 702.982 154.631 704.221 155.437C705.461 156.243 706.877 156.74 708.35 156.887C712.351 156.887 715.116 152.82 716.457 149.065C718.824 150.463 721.506 151.902 724.187 151.297C725.705 150.793 727.006 149.789 727.874 148.451C728.742 147.112 729.126 145.519 728.963 143.934C728.272 134.506 716.394 130.731 710.885 124.494C704.16 116.693 696.221 112.417 685.558 114.544Z" fill="#238D5D"/>
<path d="M98.5882 -2.53823C98.5997 -1.7102 98.3642 -0.897405 97.9116 -0.204067C97.4591 0.489271 96.8101 1.03164 96.0477 1.35389C95.2853 1.67614 94.4443 1.76359 93.632 1.60487C92.8197 1.44616 92.0733 1.04858 91.4881 0.463015C90.9029 -0.122548 90.5055 -0.869479 90.3469 -1.68224C90.1883 -2.495 90.2755 -3.33674 90.5976 -4.09958C90.9196 -4.86242 91.4618 -5.51169 92.1547 -5.96452C92.8476 -6.41734 93.6598 -6.65302 94.4873 -6.64144C95.5702 -6.62628 96.6045 -6.1891 97.3703 -5.42284C98.1361 -4.65658 98.573 -3.62178 98.5882 -2.53823Z" fill="#39A873"/>
<path d="M237.024 -5.21699C236.874 -3.68068 236.158 -2.25508 235.016 -1.21789C233.874 -0.180701 232.386 0.393738 230.843 0.393738C229.301 0.393738 227.813 -0.180701 226.671 -1.21789C225.528 -2.25508 224.812 -3.68068 224.663 -5.21699C224.579 -6.07972 224.676 -6.95048 224.949 -7.77334C225.221 -8.5962 225.662 -9.35301 226.244 -9.99499C226.826 -10.637 227.536 -11.1498 228.328 -11.5009C229.12 -11.852 229.977 -12.0334 230.843 -12.0334C231.71 -12.0334 232.566 -11.852 233.358 -11.5009C234.15 -11.1498 234.86 -10.637 235.442 -9.99499C236.024 -9.35301 236.466 -8.5962 236.738 -7.77334C237.011 -6.95048 237.108 -6.07972 237.024 -5.21699Z" fill="#39A873"/>
<path d="M133.562 9.82983C135.827 9.82983 137.663 7.99271 137.663 5.72654C137.663 3.46037 135.827 1.62329 133.562 1.62329C131.297 1.62329 129.461 3.46037 129.461 5.72654C129.461 7.99271 131.297 9.82983 133.562 9.82983Z" fill="#39A873"/>
<path d="M165.431 12.8781C170.543 12.8781 174.687 8.73149 174.687 3.61642C174.687 -1.49866 170.543 -5.64526 165.431 -5.64526C160.319 -5.64526 156.175 -1.49866 156.175 3.61642C156.175 8.73149 160.319 12.8781 165.431 12.8781Z" fill="#39A873"/>
<path d="M67.7151 -3.53473C67.7151 -2.10871 67.2925 -0.71473 66.5007 0.470962C65.7089 1.65665 64.5836 2.58068 63.2669 3.1264C61.9502 3.67211 60.5014 3.81497 59.1036 3.53677C57.7059 3.25857 56.4219 2.57179 55.4141 1.56344C54.4064 0.555092 53.7202 -0.729506 53.4422 -2.12812C53.1642 -3.52674 53.3068 -4.97645 53.8521 -6.29392C54.3975 -7.61139 55.3212 -8.73742 56.5061 -9.52968C57.6911 -10.3219 59.0842 -10.7449 60.5094 -10.7449C62.4205 -10.7449 64.2533 -9.98523 65.6046 -8.63308C66.956 -7.28093 67.7151 -5.44696 67.7151 -3.53473Z" fill="#39A873"/>
<path d="M98.1979 69.5292C90.5884 70.7953 83.3492 73.7168 76.991 78.0875C73.8412 80.3112 71.2209 83.2033 69.3171 86.5573C67.4133 89.9113 66.2728 93.6444 65.9775 97.4904C50.1602 88.5217 29.6563 95.7318 15.7136 107.397C1.77097 119.062 -8.42235 134.655 -22.4822 146.203C-26.6416 149.661 -31.5625 153.354 -31.9726 158.747C-32.5584 166.543 -23.654 171.35 -16.0382 172.874C-6.36432 174.749 3.57917 174.749 13.2531 172.874C17.9517 171.202 23.083 171.202 27.7817 172.874C29.9788 174.567 31.9479 176.538 33.6399 178.736C44.6535 189.346 63.7514 185.243 74.9993 174.926C77.2254 172.874 80.3888 170.471 82.8493 172.171C83.736 172.942 84.437 173.904 84.8997 174.984C87.0372 178.963 90.1618 182.324 93.9732 184.744C97.7845 187.165 102.154 188.563 106.662 188.804C111.17 189.046 115.663 188.122 119.711 186.123C123.759 184.123 127.224 181.115 129.774 177.388C131.824 174.398 134.343 170.529 137.8 171.526C139.633 172.314 141.127 173.726 142.018 175.512C144.053 179.119 146.925 182.184 150.391 184.449C153.857 186.714 157.817 188.112 161.936 188.525C173.125 188.525 180.858 177.095 184.607 166.543C191.227 170.471 198.726 174.515 206.224 172.816C210.47 171.4 214.107 168.578 216.535 164.817C218.963 161.055 220.037 156.578 219.581 152.123C217.648 125.627 184.432 115.017 169.025 97.4904C150.219 75.5669 128.017 63.5501 98.1979 69.5292Z" fill="#1D774C"/>
<path d="M56.2844 142.578C56.296 143.406 56.0605 144.219 55.6079 144.912C55.1554 145.605 54.5063 146.148 53.744 146.47C52.9816 146.792 52.1405 146.88 51.3283 146.721C50.516 146.562 49.7696 146.165 49.1844 145.579C48.5991 144.993 48.2018 144.246 48.0432 143.434C47.8846 142.621 47.9718 141.779 48.2938 141.016C48.6159 140.254 49.1581 139.604 49.851 139.151C50.5439 138.699 51.3561 138.463 52.1836 138.475C53.2665 138.49 54.3008 138.927 55.0666 139.693C55.8324 140.459 56.2693 141.494 56.2844 142.578Z" fill="#39A873"/>
<path d="M107.72 117.899C107.571 119.435 106.855 120.861 105.712 121.898C104.57 122.935 103.082 123.51 101.54 123.51C99.9971 123.51 98.5097 122.935 97.3672 121.898C96.2247 120.861 95.5088 119.435 95.3591 117.899C95.2751 117.036 95.3724 116.165 95.6448 115.343C95.9172 114.52 96.3585 113.763 96.9406 113.121C97.5227 112.479 98.2326 111.966 99.0246 111.615C99.8167 111.264 100.673 111.083 101.54 111.083C102.406 111.083 103.263 111.264 104.055 111.615C104.847 111.966 105.557 112.479 106.139 113.121C106.721 113.763 107.162 114.52 107.434 115.343C107.707 116.165 107.804 117.036 107.72 117.899Z" fill="#39A873"/>
<path d="M91.2585 154.946C93.5233 154.946 95.3593 153.109 95.3593 150.843C95.3593 148.576 93.5233 146.739 91.2585 146.739C88.9937 146.739 87.1577 148.576 87.1577 150.843C87.1577 153.109 88.9937 154.946 91.2585 154.946Z" fill="#39A873"/>
<path d="M157.105 138.24C157.105 139.328 156.673 140.372 155.904 141.142C155.135 141.911 154.092 142.344 153.005 142.344C152.466 142.344 151.933 142.237 151.435 142.031C150.938 141.825 150.486 141.523 150.105 141.142C149.724 140.761 149.422 140.308 149.216 139.81C149.01 139.313 148.904 138.779 148.904 138.24C148.904 137.701 149.01 137.168 149.216 136.67C149.422 136.172 149.724 135.72 150.105 135.339C150.486 134.958 150.938 134.655 151.435 134.449C151.933 134.243 152.466 134.137 153.005 134.137C154.092 134.137 155.135 134.569 155.904 135.339C156.673 136.108 157.105 137.152 157.105 138.24Z" fill="#39A873"/>
<path d="M125.236 109.634C130.93 109.634 135.547 105.015 135.547 99.3169C135.547 93.619 130.93 89 125.236 89C119.542 89 114.926 93.619 114.926 99.3169C114.926 105.015 119.542 109.634 125.236 109.634Z" fill="#39A873"/>
<path d="M123.128 157.994C128.239 157.994 132.384 153.847 132.384 148.732C132.384 143.617 128.239 139.471 123.128 139.471C118.016 139.471 113.872 143.617 113.872 148.732C113.872 153.847 118.016 157.994 123.128 157.994Z" fill="#39A873"/>
<path d="M71.6921 137.419C76.804 137.419 80.9481 133.272 80.9481 128.157C80.9481 123.042 76.804 118.895 71.6921 118.895C66.5801 118.895 62.436 123.042 62.436 128.157C62.436 133.272 66.5801 137.419 71.6921 137.419Z" fill="#39A873"/>
<path d="M25.4114 141.581C25.4114 143.007 24.9888 144.401 24.197 145.587C23.4052 146.773 22.2799 147.697 20.9632 148.242C19.6465 148.788 18.1977 148.931 16.7999 148.653C15.4022 148.375 14.1182 147.688 13.1104 146.679C12.1027 145.671 11.4165 144.386 11.1385 142.988C10.8605 141.589 11.003 140.14 11.5484 138.822C12.0938 137.505 13.0175 136.379 14.2024 135.586C15.3874 134.794 16.7805 134.371 18.2057 134.371C20.1168 134.371 21.9496 135.131 23.3009 136.483C24.6523 137.835 25.4114 139.669 25.4114 141.581Z" fill="#39A873"/>
</svg>
