<svg width="322" height="69" viewBox="0 0 322 69" fill="none" xmlns="http://www.w3.org/2000/svg">
<path d="M321.579 36.6583C321.579 36.1097 320.794 35.6639 320.402 36.1611C317.57 39.8252 313.416 42.221 308.84 42.8303C310.531 38.5944 310.823 33.9249 309.676 29.5091C309.539 28.9776 308.653 28.7719 308.414 29.3376C304.662 38.167 296.17 40.9787 287.285 41.6302C277.753 42.1274 268.987 38.047 261.058 33.1437C260.58 32.8522 259.83 33.3494 260.035 33.9324C261.999 39.6055 263.661 45.3799 265.014 51.2311C265.781 54.2657 266.532 57.3174 267.231 60.3691C267.363 61.476 267.603 62.567 267.947 63.6266C268.493 64.7752 270.164 65.1696 271.358 65.6325C278.656 68.4956 286.978 68.1013 294.499 66.4897C301.559 64.981 308.687 61.9635 313.666 56.5459C318.271 51.454 321.818 43.6704 321.579 36.6583Z" fill="#D7D8E0"/>
<path d="M60.5324 34.1437C52.6027 39.047 43.8375 43.1274 34.3048 42.6302C25.4202 41.9787 16.9278 39.2013 13.1762 30.3376C12.9374 29.7719 12.0507 29.9776 11.9142 30.5091C10.7751 34.9257 11.0679 39.5925 12.7498 43.8303C8.17393 43.221 4.02052 40.8252 1.18789 37.1611C0.795673 36.6639 0.0282881 37.1611 0.0112351 37.6583C-0.210454 44.1732 2.87614 51.0824 6.83244 56.1572C11.1469 61.712 17.7805 65.0209 24.4141 66.8382C31.8567 69.0616 39.7424 69.3273 47.3163 67.6097C49.0135 67.1576 50.6638 66.5433 52.2446 65.7752C53.7112 65.0552 53.6259 64.7294 53.9499 63.2207C54.5809 60.3576 55.263 57.5288 55.9622 54.6485C57.459 47.9671 59.3206 41.3737 61.5385 34.8981C61.7602 34.3837 61.0269 33.8522 60.5324 34.1437Z" fill="#D7D8E0"/>
<path d="M277.172 26.2034C274.676 21.9204 272.16 17.6179 269.431 13.4128C269.351 13.2746 269.229 13.1655 269.083 13.1013C268.961 13.0348 268.825 13 268.686 13C268.548 13 268.411 13.0348 268.29 13.1013C261.942 16.7808 255.092 19.6231 248.415 22.8354C248.324 22.8759 248.242 22.9358 248.176 23.0108C248.11 23.0859 248.06 23.1744 248.031 23.2704C248.001 23.3664 247.993 23.4677 248.006 23.5673C248.019 23.6669 248.053 23.7625 248.106 23.8477C254.937 37.3003 260.626 51.1032 267.458 64.6337C267.728 65.1788 268.599 65.062 268.909 64.6337C274.869 56.5349 277.811 44.6398 279.939 35.2172C280.365 33.5429 278.449 28.3059 277.172 26.2034Z" fill="#A9AEC9"/>
<path d="M74.6178 22.8433C67.941 19.7063 61.0708 16.8617 54.7424 13.1013C54.6206 13.0348 54.4842 13 54.3457 13C54.2071 13 54.0708 13.0348 53.949 13.1013C53.7973 13.1645 53.6689 13.2734 53.5813 13.4131C50.8719 17.6216 48.356 21.9275 45.8401 26.214C44.6596 28.1623 42.6469 33.345 43.0533 35.196C45.1821 44.6262 48.1431 56.6283 54.0844 64.6361C54.1712 64.7494 54.2826 64.841 54.4101 64.9041C54.5376 64.9672 54.6778 65 54.8198 65C54.9619 65 55.102 64.9672 55.2295 64.9041C55.357 64.841 55.4684 64.7494 55.5552 64.6361C62.3674 51.1728 68.0765 37.3587 74.9081 23.8174C74.955 23.7349 74.9847 23.6435 74.9955 23.549C75.0062 23.4545 74.9978 23.3587 74.9706 23.2676C74.9435 23.1765 74.8982 23.0919 74.8375 23.0189C74.7769 22.946 74.7021 22.8862 74.6178 22.8433Z" fill="#A9AEC9"/>
<path d="M280.896 32.779C280.112 28.8719 278.544 25.1674 276.289 21.8928C273.824 17.5137 271.143 13.2619 268.256 9.15325C266.05 6.09029 263.63 2.38353 259.836 0.686219C256.042 -1.01109 251.997 0.90082 248.222 1.93481C243.325 3.24194 238.544 4.74415 233.647 6.22685C213.863 12.393 193.407 16.1076 172.732 17.2886C152.98 18.208 133.191 16.6747 113.81 12.7235C104.134 10.6208 94.5723 8.01612 85.1627 4.91973C80.2461 3.41752 75.2522 2.18844 70.3356 0.686219C68.6793 0.0246222 66.874 -0.163338 65.1185 0.143027C63.363 0.449392 61.7255 1.23819 60.3863 2.42255C57.165 5.46446 54.4061 8.96826 52.1985 12.821C49.508 16.8985 46.9722 21.1125 44.7075 25.4045C43.0622 28.5065 41.5331 31.9986 42.1331 35.4908C42.3545 36.6762 42.8503 37.7923 43.5801 38.7482C44.31 39.7042 45.2533 40.4731 46.3335 40.9924C58.7217 48.7962 74.2069 51.9762 88.7437 54.9221C106.903 58.651 125.286 61.1731 143.774 62.4722C161.635 63.5441 179.555 62.9826 197.315 60.7944C214.915 58.8027 232.371 55.6814 249.577 51.4494C256.69 49.7748 263.621 47.3961 270.269 44.348C273.077 43.1404 275.751 41.6363 278.244 39.8609C279.269 39.0228 280.054 37.9255 280.52 36.6813C280.986 35.437 281.116 34.0904 280.896 32.779Z" fill="#CDD0E2"/>
<path d="M126.614 46.144L126.134 30.136L129.686 30.328L129.614 31.36C129.934 31.088 130.334 30.816 130.814 30.544C131.31 30.272 131.894 30.136 132.566 30.136C133.046 30.136 133.478 30.224 133.862 30.4C134.262 30.56 134.59 30.832 134.846 31.216C135.118 31.584 135.31 32.056 135.422 32.632C135.534 33.208 135.542 33.904 135.446 34.72C135.334 35.696 135.078 36.536 134.678 37.24C134.278 37.944 133.774 38.504 133.166 38.92C133.71 39.112 134.166 39.424 134.534 39.856C134.918 40.288 135.134 40.904 135.182 41.704C135.262 42.888 135.086 43.824 134.654 44.512C134.238 45.184 133.702 45.656 133.046 45.928C132.39 46.184 131.67 46.264 130.886 46.168C130.118 46.088 129.414 45.864 128.774 45.496L128.75 45.88L126.614 46.144ZM130.214 44.08C130.438 44.064 130.646 43.976 130.838 43.816C131.046 43.656 131.214 43.456 131.342 43.216C131.486 42.96 131.582 42.688 131.63 42.4C131.678 42.112 131.67 41.848 131.606 41.608C131.542 41.352 131.406 41.136 131.198 40.96C131.006 40.768 130.734 40.656 130.382 40.624C130.11 40.592 129.862 40.632 129.638 40.744C129.414 40.856 129.214 41.016 129.038 41.224L128.894 43.576C129.022 43.704 129.198 43.824 129.422 43.936C129.646 44.048 129.926 44.096 130.262 44.08H130.214ZM131.126 34.168C130.694 34.104 130.334 34.16 130.046 34.336C129.758 34.512 129.526 34.736 129.35 35.008L129.158 38.248C129.286 38.312 129.438 38.368 129.614 38.416C129.806 38.448 130.022 38.464 130.262 38.464C130.614 38.464 130.926 38.368 131.198 38.176C131.47 37.968 131.694 37.712 131.87 37.408C132.062 37.104 132.198 36.776 132.278 36.424C132.358 36.072 132.374 35.744 132.326 35.44C132.278 35.12 132.158 34.848 131.966 34.624C131.79 34.384 131.526 34.24 131.174 34.192L131.126 34.168ZM137.278 45.928L136.822 30.448L141.166 30.736L139.87 45.496L137.278 45.928ZM146.903 46C146.167 46 145.519 45.776 144.959 45.328C144.399 44.88 143.927 44.288 143.543 43.552C143.159 42.816 142.871 41.984 142.679 41.056C142.487 40.112 142.383 39.152 142.367 38.176C142.367 37.2 142.463 36.248 142.655 35.32C142.847 34.376 143.143 33.536 143.543 32.8C143.943 32.064 144.439 31.472 145.031 31.024C145.639 30.576 146.359 30.352 147.191 30.352C148.103 30.352 148.879 30.576 149.519 31.024C150.159 31.472 150.671 32.064 151.055 32.8C151.439 33.536 151.703 34.376 151.847 35.32C152.007 36.248 152.055 37.2 151.991 38.176C151.927 39.152 151.759 40.112 151.487 41.056C151.231 41.984 150.879 42.816 150.431 43.552C149.999 44.288 149.487 44.88 148.895 45.328C148.303 45.776 147.639 46 146.903 46ZM147.191 35.056C146.743 35.056 146.367 35.256 146.063 35.656C145.775 36.04 145.551 36.536 145.391 37.144C145.247 37.736 145.175 38.376 145.175 39.064C145.175 39.752 145.239 40.4 145.367 41.008C145.495 41.6 145.679 42.096 145.919 42.496C146.175 42.88 146.487 43.072 146.855 43.072C147.223 43.072 147.535 42.88 147.791 42.496C148.047 42.096 148.239 41.6 148.367 41.008C148.511 40.4 148.591 39.752 148.607 39.064C148.639 38.376 148.607 37.736 148.511 37.144C148.415 36.536 148.255 36.04 148.031 35.656C147.823 35.256 147.551 35.056 147.215 35.056H147.191ZM153.679 45.928L153.223 30.448L157.567 30.736L156.559 42.304L161.935 41.392L161.335 45.904L153.679 45.928ZM167.364 46C166.628 46 165.98 45.776 165.42 45.328C164.86 44.88 164.388 44.288 164.004 43.552C163.62 42.816 163.332 41.984 163.14 41.056C162.948 40.112 162.844 39.152 162.828 38.176C162.828 37.2 162.924 36.248 163.116 35.32C163.308 34.376 163.604 33.536 164.004 32.8C164.404 32.064 164.9 31.472 165.492 31.024C166.1 30.576 166.82 30.352 167.652 30.352C168.564 30.352 169.34 30.576 169.98 31.024C170.62 31.472 171.132 32.064 171.516 32.8C171.9 33.536 172.164 34.376 172.308 35.32C172.468 36.248 172.516 37.2 172.452 38.176C172.388 39.152 172.22 40.112 171.948 41.056C171.692 41.984 171.34 42.816 170.892 43.552C170.46 44.288 169.948 44.88 169.356 45.328C168.764 45.776 168.1 46 167.364 46ZM167.652 35.056C167.204 35.056 166.828 35.256 166.524 35.656C166.236 36.04 166.012 36.536 165.852 37.144C165.708 37.736 165.636 38.376 165.636 39.064C165.636 39.752 165.7 40.4 165.828 41.008C165.956 41.6 166.14 42.096 166.38 42.496C166.636 42.88 166.948 43.072 167.316 43.072C167.684 43.072 167.996 42.88 168.252 42.496C168.508 42.096 168.7 41.6 168.828 41.008C168.972 40.4 169.052 39.752 169.068 39.064C169.1 38.376 169.068 37.736 168.972 37.144C168.876 36.536 168.716 36.04 168.492 35.656C168.284 35.256 168.012 35.056 167.676 35.056H167.652ZM178.268 45.832C177.468 45.832 176.748 45.632 176.108 45.232C175.468 44.832 174.932 44.256 174.5 43.504C174.068 42.752 173.748 41.848 173.54 40.792C173.348 39.72 173.292 38.52 173.372 37.192C173.452 35.864 173.66 34.76 173.996 33.88C174.348 32.984 174.78 32.264 175.292 31.72C175.804 31.16 176.372 30.76 176.996 30.52C177.636 30.264 178.284 30.12 178.94 30.088C179.612 30.056 180.18 30.16 180.644 30.4C181.108 30.624 181.5 30.888 181.82 31.192C182.172 31.544 182.468 31.944 182.708 32.392L180.668 35.368C180.54 35.208 180.396 35.056 180.236 34.912C180.108 34.784 179.956 34.672 179.78 34.576C179.604 34.48 179.404 34.432 179.18 34.432C178.572 34.448 178.06 34.656 177.644 35.056C177.228 35.456 176.9 35.96 176.66 36.568C176.436 37.176 176.308 37.832 176.276 38.536C176.244 39.224 176.316 39.864 176.492 40.456C176.668 41.048 176.948 41.544 177.332 41.944C177.716 42.328 178.212 42.504 178.82 42.472C179.252 42.456 179.612 42.36 179.9 42.184C180.204 41.992 180.436 41.816 180.596 41.656L180.452 40.096L178.268 39.904L178.7 36.568L183.14 36.904L182.468 45.472L181.004 45.904L180.884 44.632C180.612 44.984 180.26 45.288 179.828 45.544C179.396 45.784 178.868 45.904 178.244 45.904L178.268 45.832ZM191.759 38.848L191.951 46.144L188.543 45.832L188.807 38.992L183.959 33.136L187.319 30.256L190.319 35.728L193.991 30.664L196.679 33.64L191.759 38.848Z" fill="black"/>
</svg>
