<svg width="247" height="227" viewBox="0 0 247 227" fill="none" xmlns="http://www.w3.org/2000/svg">
<mask id="mask0_9:1002" style="mask-type:alpha" maskUnits="userSpaceOnUse" x="0" y="0" width="247" height="227">
<path d="M235.181 133.5C235.181 150.018 203.832 158.739 197.681 173C179.664 214.766 152.181 227 118.181 227C87.6807 227 75.1862 219.426 54.1807 187.5C41.9986 168.985 0.180664 157.32 0.180664 133.5C0.180664 68.6065 41.1065 0.5 106 0.5C170.893 0.5 282.5 51 235.181 133.5Z" fill="#C4C4C4"/>
</mask>
<g mask="url(#mask0_9:1002)">
<path fill-rule="evenodd" clip-rule="evenodd" d="M67.6715 203.578C67.378 203.06 67.0943 202.532 66.8302 201.994C64.0493 202.063 61.2835 201.564 58.7018 200.528C56.1201 199.492 53.7768 197.94 51.815 195.968C50.286 194.43 49.0438 192.631 48.1467 190.657L48 190.334L48.1076 190.001C54.663 169.621 62.9254 149.831 72.807 130.84C73.6005 129.404 74.7795 128.218 76.2111 127.416C83.5025 122.203 91.7856 118.541 100.549 116.656H100.617H100.695C124.485 115.473 149.096 112.675 172.103 106.307C187.755 99.8997 199.434 84.2388 207.602 70.1137C208.893 67.6682 211.075 66.5237 213.569 68.1573C217.411 70.8337 220.536 74.415 222.666 78.5848C224.983 82.8436 226.524 87.4808 227.215 92.2795C227.587 95.1261 227.763 99.8899 225.425 101.993C207.817 118.691 186.757 133.628 162.908 139.507C171.712 158.092 180.751 184.21 169.854 203.598C169.854 212.167 169.55 220.785 169.042 229.334C168.699 235.203 168.249 241.014 167.633 246.824C167.115 251.715 166.479 256.714 165.52 261.566L165.442 261.977L165.07 262.182C159.806 265.084 153.87 266.548 147.86 266.428C141.85 266.307 135.978 264.607 130.833 261.497L130.374 261.223V260.685C130.442 258.455 130.374 256.176 130.295 253.955C130.178 250.815 130.002 247.675 129.767 244.555C129.499 240.166 128.96 235.799 128.153 231.477C121.957 232.34 115.653 232.038 109.568 230.586C109.139 232.57 108.813 234.575 108.589 236.593C108.257 239.234 108.012 241.894 107.807 244.555C107.562 247.675 107.386 250.815 107.279 253.955C107.19 256.176 107.122 258.455 107.2 260.685V261.223L106.741 261.497C101.596 264.607 95.7239 266.307 89.7139 266.428C83.704 266.548 77.7683 265.084 72.5037 262.182L72.132 261.977L72.044 261.566C71.0658 256.675 70.4593 251.784 69.9311 246.824C69.3148 241.014 68.8746 235.174 68.5225 229.334C68.0236 220.785 67.7204 212.167 67.7204 203.598L67.6715 203.578Z" fill="#63656F"/>
<path fill-rule="evenodd" clip-rule="evenodd" d="M67.3881 201.055C67.7598 201.827 68.1609 202.59 68.5913 203.334C68.5913 220.707 70.0195 246.834 72.8954 261.36C78.0213 264.197 83.8056 265.63 89.663 265.513C95.5204 265.396 101.243 263.734 106.252 260.695C106.066 255.07 106.917 237.453 108.766 230.058C104.956 229.046 101.338 227.417 98.0545 225.236C105.184 229.037 113.139 231.025 121.218 231.025C129.297 231.025 137.253 229.037 144.382 225.236C139.726 228.261 134.505 230.311 129.034 231.261C130.687 239.214 131.44 255.354 131.274 260.695C136.283 263.734 142.005 265.396 147.863 265.513C153.72 265.63 159.504 264.197 164.63 261.36C167.506 246.834 168.944 220.707 168.934 203.334C177.536 188.302 175.091 166.811 161.598 138.861C182.544 133.964 203.608 121.446 224.789 101.308C229.455 97.1313 224.408 76.1784 213.1 68.8517C211.222 67.629 209.598 68.2844 208.434 70.4853C197.4 89.6188 185.397 101.836 172.427 107.138C152.387 112.694 128.496 116.164 100.754 117.546C92.0986 119.405 83.9177 123.024 76.7201 128.179C75.4241 128.9 74.3539 129.967 73.629 131.261C63.7625 150.203 55.5131 169.944 48.9688 190.275C50.6284 193.689 53.2636 196.533 56.5407 198.449C59.8178 200.364 63.5895 201.264 67.3784 201.035L67.3881 201.055Z" fill="#B9BCCD"/>
<path fill-rule="evenodd" clip-rule="evenodd" d="M221.375 100.271C204.674 118.211 184.132 130.846 159.749 138.176C165.618 148.337 170.167 160.525 173.395 174.741C172.025 164.275 168.093 152.314 161.598 138.861C182.544 133.964 203.608 121.446 224.789 101.308C229.455 97.1313 224.408 76.1784 213.1 68.8517C211.222 67.629 209.598 68.2844 208.434 70.4853C204.555 77.3568 200.039 83.848 194.944 89.8731C199.777 84.7083 204.596 79.5303 209.402 74.3394C213.312 77.402 216.437 81.351 218.519 85.8601C220.601 90.3692 221.58 95.309 221.375 100.271Z" fill="#A6AAB8"/>
<path fill-rule="evenodd" clip-rule="evenodd" d="M89.534 256.665C88.0922 256.616 86.6718 257.024 85.4756 257.83C84.2793 258.637 83.3683 259.8 82.8725 261.155C81.053 255.612 77.8119 253.492 73.1492 254.797C71.2087 240.412 70.4725 225.891 70.9483 211.384C73.2918 212.693 75.7847 213.714 78.3728 214.426C74.3937 211.974 71.0438 208.624 68.5908 204.645C68.6397 221.127 69.9407 244.662 72.5036 259.13C72.5916 259.599 72.6797 260.108 72.7579 260.519C72.8078 259.7 73.0705 258.909 73.5199 258.222C73.9694 257.536 74.5901 256.979 75.3208 256.606C77.2772 255.804 79.2923 257.281 80.3976 258.837C81.5968 260.582 82.2037 262.667 82.129 264.784L82.6866 264.901L83.8604 265.107L84.418 265.185C84.5114 264.151 84.8125 263.147 85.3033 262.233C85.7941 261.319 86.4645 260.513 87.2743 259.864C88.1298 259.26 89.1687 258.973 90.2128 259.051C91.257 259.13 92.2412 259.569 92.9968 260.294C94.256 261.523 94.9771 263.201 95.0021 264.96L95.5596 264.852C95.9411 264.784 96.3128 264.696 96.6846 264.608L97.2617 264.442C97.3343 262.57 97.9382 260.758 99.0029 259.218C100.108 257.653 102.074 256.176 104.08 256.978C104.608 257.244 105.076 257.618 105.453 258.074C105.83 258.53 106.109 259.06 106.271 259.629C106.271 259.218 106.271 258.778 106.271 258.298C106.366 250.82 106.863 243.352 107.758 235.927C106.303 242.54 105.455 249.272 105.224 256.039C102.14 253.698 99.042 255.533 95.9314 261.546C95.5205 260.166 94.6849 258.95 93.5434 258.072C92.4019 257.194 91.0126 256.698 89.5731 256.655L89.534 256.665Z" fill="#A6AAB8"/>
<path fill-rule="evenodd" clip-rule="evenodd" d="M147.981 256.665C149.423 256.616 150.843 257.024 152.039 257.83C153.236 258.637 154.147 259.8 154.643 261.155C156.462 255.612 159.703 253.492 164.366 254.797C166.311 240.413 167.047 225.891 166.567 211.384C164.227 212.693 161.737 213.714 159.152 214.426C163.127 211.968 166.476 208.619 168.934 204.645C168.875 221.127 167.574 244.662 165.021 259.13C164.933 259.599 164.855 260.108 164.767 260.519C164.719 259.7 164.457 258.907 164.007 258.221C163.558 257.534 162.936 256.978 162.204 256.606C160.248 255.804 158.242 257.281 157.137 258.837C155.93 260.579 155.32 262.666 155.396 264.784L154.838 264.901L153.664 265.107L153.107 265.185C153.017 264.15 152.718 263.145 152.227 262.23C151.736 261.315 151.063 260.51 150.25 259.864C149.395 259.26 148.356 258.973 147.312 259.051C146.268 259.13 145.284 259.569 144.528 260.294C143.29 261.533 142.588 263.209 142.572 264.96L142.014 264.852C141.642 264.784 141.261 264.696 140.889 264.608L140.302 264.442C140.233 262.571 139.632 260.759 138.571 259.218C137.456 257.653 135.489 256.176 133.494 256.978C132.964 257.243 132.496 257.616 132.119 258.072C131.741 258.529 131.463 259.059 131.303 259.629V258.298C131.204 250.82 130.704 243.352 129.806 235.927C131.265 242.539 132.113 249.271 132.34 256.039C135.418 253.698 138.515 255.533 141.633 261.546C142.043 260.166 142.879 258.95 144.02 258.072C145.162 257.194 146.551 256.698 147.991 256.655L147.981 256.665Z" fill="#A6AAB8"/>
<path fill-rule="evenodd" clip-rule="evenodd" d="M108.765 230.058C107.192 238.826 106.351 247.709 106.251 256.616C105.713 248.029 106.262 239.408 107.885 230.958C104.208 229.825 100.843 227.857 98.0542 225.206C101.337 227.388 104.956 229.017 108.765 230.029V230.058Z" fill="#9598A6"/>
<path fill-rule="evenodd" clip-rule="evenodd" d="M129.034 231.261C130.554 240.206 131.31 249.265 131.293 258.338C131.391 249.56 131.186 240.792 130.677 232.034C135.718 230.863 140.411 228.517 144.372 225.187C139.716 228.212 134.495 230.262 129.024 231.212L129.034 231.261Z" fill="#9598A6"/>
<path fill-rule="evenodd" clip-rule="evenodd" d="M85.6018 203.979C91.7644 214.436 105.811 220.139 118.763 220.139C131.714 220.139 145.761 214.436 151.923 203.979C144.401 213.272 131.597 217.674 118.763 217.674C105.929 217.674 93.1241 213.272 85.6018 203.979Z" fill="#A6AAB8"/>
<path fill-rule="evenodd" clip-rule="evenodd" d="M78.676 177.255C81.3465 158.67 99.717 141.297 118.782 141.297C137.847 141.297 156.208 158.66 158.888 177.255C160.473 188.299 158.252 198.981 150.084 206.992C141.916 215.004 129.924 218.339 118.782 218.339C107.64 218.339 95.5695 215.004 87.4798 206.992C79.3901 198.981 77.1305 188.299 78.676 177.255Z" fill="#CCCBCB"/>
<path fill-rule="evenodd" clip-rule="evenodd" d="M79.3216 177.382C75.3501 205.075 97.0074 217.703 118.762 217.703C140.517 217.703 162.175 205.075 158.193 177.382C155.552 158.943 137.368 141.972 118.782 141.972C100.196 141.972 81.9725 158.953 79.3216 177.382Z" fill="#F1F1F1"/>
<path fill-rule="evenodd" clip-rule="evenodd" d="M85.6018 203.979C74.558 183.193 96.6065 142.764 130.716 144.231C126.905 142.771 122.863 142.005 118.782 141.972C100.196 141.972 81.9922 158.953 79.3413 177.353C77.7175 188.7 80.388 197.523 85.6214 203.979H85.6018Z" fill="white"/>
<path fill-rule="evenodd" clip-rule="evenodd" d="M78.8523 183.76C78.8523 207.002 98.7586 217.674 118.763 217.674C140.518 217.674 162.175 205.046 158.194 177.353C156.609 166.28 149.39 155.725 139.843 149.073C188.077 201.954 92.4883 239.899 78.8523 183.76Z" fill="#E3E3E3"/>
<path fill-rule="evenodd" clip-rule="evenodd" d="M67.3879 201.055C60.2601 186.147 63.1067 165.416 75.9275 138.861C62.1154 164.519 59.4939 186.861 66.6934 201.084C67.0357 201.084 67.0455 201.084 67.3879 201.084V201.055ZM168.934 203.334C166.438 207.641 163.113 211.411 159.152 214.427C163.127 211.968 166.476 208.619 168.934 204.645V203.334ZM68.5911 203.334C71.0848 207.643 74.4098 211.413 78.373 214.427C74.394 211.974 71.044 208.624 68.5911 204.645V203.334Z" fill="#63656F"/>
<path fill-rule="evenodd" clip-rule="evenodd" d="M159.749 138.176C172.667 171.846 172.469 197.262 159.152 214.426C163.113 211.411 166.437 207.641 168.934 203.334C173.388 195.508 174.875 185.977 173.395 174.741C170.199 160.525 165.651 148.336 159.749 138.176Z" fill="#A6AAB8"/>
<path fill-rule="evenodd" clip-rule="evenodd" d="M79.2632 125.372C85.7951 121.23 93.0078 118.276 100.568 116.646H100.637H100.715C124.505 115.463 149.116 112.665 172.123 106.297C174.238 105.42 176.285 104.387 178.247 103.206C178.077 105.123 177.917 107.044 177.767 108.968C177.151 116.236 176.329 124.345 172.143 130.547C168.621 135.78 163.407 138.685 157.421 140.26C156.056 140.618 154.641 140.743 153.234 140.632C150.895 140.355 148.618 139.694 146.494 138.675C144.538 137.854 142.67 136.964 140.684 136.337C135.265 134.645 130.413 135.584 125.336 137.883C122.656 139.096 117.364 140.055 114.42 139.341C111.426 138.822 106.946 135.839 104.97 133.657C101.214 129.529 97.1446 126.741 91.5004 126.145C89.4212 125.98 87.3346 125.928 85.2498 125.988C83.2331 126.034 81.2185 125.827 79.2534 125.372H79.2632Z" fill="#5A5C64"/>
<path fill-rule="evenodd" clip-rule="evenodd" d="M178.158 104.311C176.316 105.386 174.401 106.331 172.426 107.138C152.386 112.694 128.496 116.164 100.754 117.546C93.608 119.084 86.7747 121.823 80.5444 125.646C82.1036 125.893 83.6809 126.007 85.2593 125.988C87.3442 125.928 89.4308 125.98 91.51 126.145C97.1737 126.741 101.223 129.529 104.98 133.657C106.936 135.838 111.436 138.822 114.429 139.34C117.364 140.054 122.665 139.096 125.346 137.883C130.423 135.584 135.274 134.645 140.694 136.337C142.65 136.963 144.606 137.854 146.504 138.675C148.628 139.694 150.905 140.355 153.244 140.632C154.65 140.743 156.066 140.618 157.43 140.26C163.417 138.685 168.631 135.78 172.152 130.546C176.339 124.345 177.161 116.235 177.777 108.967L178.158 104.331V104.311Z" fill="#A6AAB8"/>
<path fill-rule="evenodd" clip-rule="evenodd" d="M167.203 135.731C164.757 136.598 162.273 137.413 159.749 138.176C159.974 138.558 160.189 138.93 160.404 139.321C162.835 138.466 165.126 137.257 167.203 135.731Z" fill="#9598A6"/>
<path fill-rule="evenodd" clip-rule="evenodd" d="M159.749 138.176C159.906 138.577 160.062 138.988 160.209 139.389L160.404 139.321C160.189 138.929 159.974 138.558 159.749 138.176Z" fill="#9598A6"/>
<path fill-rule="evenodd" clip-rule="evenodd" d="M113.353 136.748C111.103 136.435 107.024 133.637 105.528 132.004C101.243 127.289 96.538 124.178 90.1308 123.503C87.9396 123.278 85.7681 123.337 83.5671 123.327C81.5442 123.414 79.5209 123.163 77.5806 122.584C76.5683 122.242 75.6221 121.729 74.7829 121.067C70.4984 117.702 67.2509 113.584 66.2335 108.136C64.9814 101.425 67.4172 93.9226 69.5496 87.5936C72.357 79.2301 75.2231 71.3067 76.397 62.4932C78.1479 49.8451 83.1856 37.8623 93.6817 30.0758C106.026 20.9004 122.284 19.932 136.898 22.9644C151.512 25.9968 166.009 33.3234 173.698 46.6562C180.232 57.9837 180.095 70.9741 176.633 83.27C174.246 91.8488 173.698 100.251 172.984 109.045C172.416 115.687 171.683 123.533 167.868 129.186C164.757 133.794 160.15 136.278 154.877 137.667C153.844 137.937 152.773 138.033 151.708 137.951C149.698 137.701 147.743 137.126 145.917 136.249C143.93 135.328 141.896 134.512 139.823 133.804C133.67 131.847 128.085 132.825 122.323 135.476C120.308 136.386 115.476 137.335 113.265 136.728L113.353 136.748Z" fill="#63656F"/>
<path fill-rule="evenodd" clip-rule="evenodd" d="M136.742 23.8741C105.244 17.3495 81.7675 30.7215 77.3559 62.6399C73.7757 88.5523 56.8138 105.729 75.3995 120.353C82.3936 125.851 93.007 116.803 106.252 131.387C107.279 132.512 111.338 135.603 113.578 135.848C115.73 136.513 120.69 135.29 122.079 134.664C140.039 126.555 146.172 139.066 154.77 136.797C177.65 130.771 168.866 108.243 175.87 83.045C184.517 51.9874 168.279 30.3987 136.742 23.8741Z" fill="#B9BCCD"/>
<path fill-rule="evenodd" clip-rule="evenodd" d="M141.222 100.105C142.71 99.7123 144.234 99.4698 145.771 99.3808C152.05 99.1531 158.273 100.641 163.77 103.685C158.025 100.946 151.612 99.927 145.301 100.75C149.605 101.161 152.657 103.065 154.457 106.463C153.746 105.25 152.735 104.24 151.523 103.528C148.656 101.758 144.822 101.288 141.516 101.278C141.017 101.218 140.558 100.978 140.224 100.604C137.963 97.7699 135.312 95.2704 132.35 93.1791L132.145 92.1128C135.808 93.9407 138.922 96.7046 141.173 100.124L141.222 100.105Z" fill="#A6AAB8"/>
<path fill-rule="evenodd" clip-rule="evenodd" d="M117.589 116.284C119.636 116.655 121.586 117.437 123.321 118.583C125.878 120.168 128.335 121.909 130.677 123.797C130.981 124.031 131.284 124.256 131.597 124.472L132.389 125.019L131.411 124.853C128.271 124.296 124.407 126.692 121.991 128.443C119.907 129.95 117.1 131.759 114.429 131.202C111.759 130.644 109.9 127.876 108.56 125.665C107.044 123.102 104.452 119.365 101.351 118.632L100.373 118.407L101.351 118.211C101.723 118.143 102.094 118.055 102.466 117.957C105.362 117.167 108.302 116.546 111.27 116.098C113.319 115.747 115.417 115.806 117.442 116.274L117.589 116.284Z" fill="#63656F"/>
<path fill-rule="evenodd" clip-rule="evenodd" d="M149.331 118.622C149.077 121.713 147.874 124.697 145.125 126.448C143.078 127.637 140.67 128.043 138.346 127.592C135.504 127.048 132.84 125.812 130.589 123.992C128.247 122.119 125.798 120.384 123.252 118.798C121.538 117.672 119.616 116.9 117.599 116.529H117.501C115.501 116.067 113.429 116.011 111.407 116.362C108.438 116.803 105.498 117.421 102.603 118.211C99.8179 118.986 96.885 119.063 94.0632 118.436C91.7492 117.928 89.6984 116.596 88.2918 114.69C86.4528 112.019 86.5311 108.821 87.5288 105.886L87.6658 105.495L87.7538 105.289C86.4667 103.772 85.5909 101.95 85.2105 99.9973C84.8213 98.1616 85.0987 96.2473 85.9931 94.5976C86.5751 93.6255 87.376 92.8027 88.3321 92.1947C89.2882 91.5868 90.3731 91.2104 91.5003 91.0957C94.8359 90.6164 98.5335 91.712 101.566 93.0521C102.049 93.1925 102.566 93.1543 103.023 92.9445C109.222 89.5804 116.229 87.9961 123.272 88.3665H123.37H123.458C130.088 90.7955 135.918 95.0103 140.302 100.545C140.636 100.92 141.095 101.159 141.594 101.22C144.9 101.22 148.734 101.699 151.601 103.47C152.588 104.025 153.433 104.802 154.069 105.739C154.706 106.675 155.116 107.747 155.269 108.869C155.418 110.738 154.91 112.599 153.831 114.132C152.71 115.774 151.184 117.099 149.4 117.976C149.4 118.055 149.4 118.133 149.4 118.201V118.622H149.331Z" fill="#63656F"/>
<path fill-rule="evenodd" clip-rule="evenodd" d="M148.734 118.172C148.226 127.709 139.178 129.822 130.97 123.474C125.414 119.17 121.237 116.323 117.677 115.883C114.234 114.905 109.274 115.824 102.456 117.566C92.4003 120.128 84.9465 114.631 88.2625 105.641C89.1877 106.5 90.2753 107.165 91.4612 107.598C90.3456 106.911 89.3343 106.068 88.4582 105.094C82.3347 98.1386 86.1399 86.9774 101.312 93.5118C101.957 93.715 102.655 93.6697 103.268 93.3846C109.379 90.1254 116.271 88.6189 123.184 89.0316C129.692 91.4003 135.419 95.5199 139.735 100.936C140.185 101.458 140.82 101.784 141.506 101.846C158.027 101.846 157.088 113.643 148.695 117.585C147.514 118.137 146.258 118.512 144.968 118.7C146.227 118.77 147.487 118.59 148.676 118.172H148.734Z" fill="#B9BCCD"/>
<path fill-rule="evenodd" clip-rule="evenodd" d="M141.183 112.821C142.701 113.305 144.285 113.553 145.878 113.555C147.727 113.555 152.725 113.271 153.43 111.031C154.926 106.042 149.517 103.108 148.255 105.651C146.818 108.709 144.293 111.122 141.173 112.42L140.655 112.635L141.183 112.821Z" fill="#63656F"/>
<path fill-rule="evenodd" clip-rule="evenodd" d="M97.3403 103.695C95.7558 103.535 94.2052 103.132 92.7429 102.501C91.0212 101.797 86.5313 99.5081 86.8052 97.18C87.4215 92.0151 93.5939 91.4869 93.6526 94.3041C93.7668 97.6813 95.1255 100.897 97.4675 103.333L97.8588 103.734H97.3012L97.3403 103.695Z" fill="#63656F"/>
<path fill-rule="evenodd" clip-rule="evenodd" d="M87.0206 97.1701C86.7271 99.6547 93.105 103.127 97.3601 103.44C94.9624 100.973 93.5678 97.703 93.4473 94.2649C93.3495 91.8194 87.5781 92.1422 86.9814 97.1995L87.0206 97.1701Z" fill="#868995"/>
<path fill-rule="evenodd" clip-rule="evenodd" d="M97.3598 103.48C94.9621 101.013 93.5675 97.7423 93.4471 94.3042C90.5125 93.7075 88.5561 95.1259 88.067 97.4833C87.754 99.0876 91.6276 101.797 97.3207 103.48H97.3598Z" fill="#6F707A"/>
<path fill-rule="evenodd" clip-rule="evenodd" d="M153.234 110.934C152.51 113.33 145.282 113.985 141.251 112.577C144.416 111.264 146.981 108.824 148.451 105.73C149.507 103.519 154.682 106.111 153.234 110.963V110.934Z" fill="#868995"/>
<path fill-rule="evenodd" clip-rule="evenodd" d="M141.281 112.577C144.445 111.264 147.011 108.824 148.48 105.729C151.415 106.336 152.667 108.439 152.158 110.787C151.806 112.381 147.169 113.32 141.281 112.606V112.577Z" fill="#6F707A"/>
<path fill-rule="evenodd" clip-rule="evenodd" d="M101.497 118.426C103.894 118.994 106.388 121.361 108.844 125.557C110.379 128.15 112.101 130.448 114.546 130.996C116.992 131.544 119.496 130.018 121.942 128.267C125.854 125.411 129.047 124.204 131.518 124.648C131.195 124.423 130.892 124.198 130.589 123.963C128.247 122.089 125.798 120.355 123.252 118.769C121.538 117.642 119.616 116.871 117.598 116.499H117.501C115.501 116.038 113.429 115.982 111.406 116.333C108.438 116.774 105.498 117.391 102.603 118.182L101.488 118.446L101.497 118.426Z" fill="#851619"/>
<path fill-rule="evenodd" clip-rule="evenodd" d="M102.31 118.691C104.452 119.551 106.643 121.84 108.844 125.538C110.38 128.13 112.101 130.429 114.547 130.977C116.992 131.524 119.496 129.998 121.942 128.248C125.444 125.704 128.359 124.481 130.677 124.54L130.423 124.374C125.802 121.163 120.133 119.831 114.566 120.647C111.739 117.663 106.252 117.771 102.583 118.632L102.31 118.7V118.691Z" fill="#CD2027"/>
<path fill-rule="evenodd" clip-rule="evenodd" d="M95.9512 62.5423C98.8947 63.1408 101.571 64.6614 103.592 66.8836C105.613 69.1058 106.874 71.9141 107.191 74.9011C107.508 77.888 106.865 80.8984 105.356 83.4955C103.847 86.0926 101.55 88.1415 98.7977 89.3449C96.4595 87.6996 93.8154 86.5394 91.0214 85.9329C88.2274 85.3264 85.3403 85.2858 82.5303 85.8136C80.5539 83.5942 79.3273 80.8082 79.0248 77.8517C78.7224 74.8952 79.3595 71.9186 80.8456 69.3449C82.3318 66.7713 84.5913 64.7315 87.3031 63.5156C90.0149 62.2996 93.0409 61.9693 95.9512 62.5717V62.5423Z" fill="#63656F"/>
<path fill-rule="evenodd" clip-rule="evenodd" d="M95.8829 62.9335C98.7715 63.5286 101.393 65.0351 103.361 67.2315C105.329 69.4279 106.541 72.1981 106.817 75.1344C107.093 78.0707 106.419 81.0181 104.894 83.5427C103.37 86.0674 101.075 88.036 98.348 89.1589C93.7398 86.4138 88.3597 85.2526 83.0295 85.8526C81.028 83.716 79.7588 80.9976 79.4059 78.0912C79.053 75.1849 79.6348 72.2417 81.0669 69.6882C82.4989 67.1347 84.7069 65.1035 87.3708 63.889C90.0347 62.6746 93.0161 62.3399 95.8829 62.9335Z" fill="white"/>
<path fill-rule="evenodd" clip-rule="evenodd" d="M80.2415 86.3318C87.2135 85.658 94.226 87.1144 100.353 90.5087C97.6146 88.1913 94.3402 86.5954 90.8278 85.8659C87.3153 85.1364 83.6762 85.2966 80.2415 86.3318Z" fill="#63656F"/>
<path fill-rule="evenodd" clip-rule="evenodd" d="M94.9045 67.619C96.6374 67.9785 98.2248 68.8438 99.4661 70.1053C100.707 71.3668 101.547 72.9681 101.878 74.7066C102.21 76.4451 102.018 78.2429 101.328 79.8726C100.638 81.5024 99.4806 82.891 98.0015 83.8629C96.5224 84.8348 94.7884 85.3464 93.0186 85.3331C91.2488 85.3197 89.5228 84.7819 88.0585 83.7878C86.5943 82.7936 85.4577 81.3877 84.7923 79.7477C84.127 78.1077 83.9628 76.3073 84.3204 74.574C84.5581 73.422 85.0206 72.3283 85.6813 71.3552C86.342 70.3821 87.188 69.5487 88.171 68.9028C89.1539 68.2569 90.2546 67.811 91.41 67.5907C92.5653 67.3705 93.7528 67.3801 94.9045 67.619Z" fill="#33C5F3"/>
<path fill-rule="evenodd" clip-rule="evenodd" d="M94.3763 70.1818C95.6016 70.4389 96.723 71.0535 97.5989 71.948C98.4747 72.8425 99.0656 73.9767 99.2968 75.207C99.528 76.4374 99.3891 77.7087 98.8977 78.8601C98.4063 80.0115 97.5844 80.9913 96.5361 81.6756C95.4878 82.3599 94.2601 82.7179 93.0083 82.7044C91.7564 82.6908 90.5367 82.3063 89.5035 81.5995C88.4702 80.8927 87.6697 79.8953 87.2034 78.7336C86.737 77.5718 86.6257 76.2978 86.8834 75.0727C87.2289 73.4308 88.2122 71.9932 89.6173 71.076C91.0224 70.1589 92.7342 69.8372 94.3763 70.1818Z" fill="black"/>
<path fill-rule="evenodd" clip-rule="evenodd" d="M90.806 69.4386C91.3291 69.5466 91.8085 69.8074 92.1834 70.1879C92.5583 70.5684 92.8119 71.0516 92.912 71.5763C93.0122 72.1011 92.9545 72.6437 92.7461 73.1356C92.5378 73.6274 92.1882 74.0465 91.7417 74.3396C91.2951 74.6328 90.7716 74.7869 90.2375 74.7824C89.7033 74.7779 89.1825 74.615 88.7409 74.3144C88.2993 74.0139 87.9568 73.589 87.7568 73.0937C87.5567 72.5984 87.5081 72.0549 87.6171 71.5319C87.763 70.8318 88.1807 70.2181 88.7785 69.8257C89.3764 69.4332 90.1056 69.294 90.806 69.4386Z" fill="white"/>
<path fill-rule="evenodd" clip-rule="evenodd" d="M97.0271 80.1985C97.3564 80.2674 97.658 80.4324 97.8936 80.6726C98.1293 80.9128 98.2885 81.2175 98.351 81.5482C98.4136 81.8788 98.3767 82.2205 98.2451 82.5302C98.1135 82.8399 97.893 83.1037 97.6115 83.2881C97.3301 83.4726 97.0003 83.5695 96.6638 83.5665C96.3273 83.5636 95.9992 83.461 95.721 83.2717C95.4428 83.0824 95.227 82.8148 95.1008 82.5029C94.9746 82.191 94.9437 81.8486 95.012 81.5191C95.0562 81.2993 95.1436 81.0906 95.2692 80.9049C95.3948 80.7192 95.556 80.5604 95.7434 80.4375C95.9309 80.3147 96.1409 80.2303 96.3613 80.1892C96.5816 80.1482 96.8079 80.1514 97.0271 80.1985Z" fill="white"/>
<path fill-rule="evenodd" clip-rule="evenodd" d="M158.81 75.5716C161.743 76.1794 164.407 77.7032 166.418 79.9232C168.428 82.1431 169.682 84.9445 169.998 87.923C170.313 90.9016 169.674 93.9035 168.173 96.4955C166.673 99.0875 164.387 101.136 161.647 102.345C159.31 100.697 156.666 99.5353 153.871 98.9287C151.077 98.3221 148.189 98.2829 145.379 98.8135C143.408 96.5916 142.186 93.8056 141.887 90.8504C141.588 87.8952 142.227 84.9209 143.713 82.3491C145.199 79.7774 147.457 77.7387 150.167 76.5222C152.877 75.3057 155.9 74.9731 158.81 75.5716Z" fill="#63656F"/>
<path fill-rule="evenodd" clip-rule="evenodd" d="M158.732 75.9141C161.62 76.511 164.24 78.0184 166.208 80.215C168.175 82.4115 169.387 85.1812 169.664 88.1172C169.941 91.0531 169.269 94.0005 167.746 96.5263C166.224 99.052 163.932 101.023 161.206 102.149C156.6 99.4 151.218 98.2385 145.888 98.843C143.884 96.7075 142.612 93.9891 142.257 91.082C141.901 88.1748 142.482 85.2302 143.913 82.675C145.344 80.1198 147.552 78.087 150.217 76.8714C152.881 75.6557 155.864 75.3204 158.732 75.9141Z" fill="white"/>
<path fill-rule="evenodd" clip-rule="evenodd" d="M143.09 99.3615C150.065 98.6839 157.08 100.137 163.212 103.529C160.471 101.211 157.195 99.6161 153.681 98.8883C150.166 98.1605 146.526 98.3232 143.09 99.3615Z" fill="#63656F"/>
<path fill-rule="evenodd" clip-rule="evenodd" d="M157.753 80.6485C159.487 81.0085 161.074 81.8744 162.315 83.1365C163.556 84.3987 164.395 86.0006 164.726 87.7396C165.057 89.4785 164.864 91.2765 164.173 92.9062C163.482 94.5359 162.324 95.9241 160.844 96.8952C159.364 97.8664 157.629 98.3769 155.859 98.3622C154.089 98.3475 152.363 97.8082 150.899 96.8126C149.435 95.817 148.3 94.4098 147.636 92.7689C146.972 91.1279 146.81 89.327 147.169 87.5937C147.407 86.4421 147.869 85.3486 148.53 84.3759C149.191 83.4033 150.037 82.5705 151.02 81.9254C152.004 81.2802 153.104 80.8354 154.26 80.6163C155.415 80.3972 156.602 80.4081 157.753 80.6485Z" fill="#33C5F3"/>
<path fill-rule="evenodd" clip-rule="evenodd" d="M157.225 83.2115C158.45 83.4686 159.572 84.0832 160.448 84.9777C161.324 85.8722 161.914 87.0064 162.146 88.2367C162.377 89.4671 162.238 90.7384 161.747 91.8898C161.255 93.0412 160.433 94.021 159.385 94.7053C158.337 95.3896 157.109 95.7476 155.857 95.7341C154.605 95.7205 153.386 95.336 152.352 94.6292C151.319 93.9224 150.519 92.9251 150.052 91.7633C149.586 90.6015 149.475 89.3275 149.732 88.1025C150.08 86.4618 151.064 85.0258 152.468 84.1091C153.873 83.1924 155.583 82.8696 157.225 83.2115Z" fill="black"/>
<path fill-rule="evenodd" clip-rule="evenodd" d="M159.866 93.2575C160.309 93.3495 160.696 93.6136 160.944 93.9915C161.192 94.3694 161.279 94.8302 161.187 95.2725C161.095 95.7149 160.831 96.1025 160.453 96.3502C160.075 96.5978 159.614 96.6852 159.172 96.5931C158.953 96.5475 158.745 96.4592 158.56 96.3332C158.375 96.2073 158.217 96.0462 158.094 95.8591C157.972 95.6719 157.887 95.4625 157.845 95.2427C157.804 95.0229 157.806 94.797 157.851 94.578C157.897 94.359 157.985 94.1511 158.111 93.9662C158.237 93.7813 158.398 93.623 158.585 93.5004C158.772 93.3778 158.982 93.2932 159.202 93.2515C159.421 93.2098 159.647 93.2118 159.866 93.2575Z" fill="white"/>
<path fill-rule="evenodd" clip-rule="evenodd" d="M101.987 116.979C92.7528 119.453 86.4826 113.222 88.527 106.424C89.4048 107.03 90.4077 107.432 91.4616 107.598C90.2756 107.165 89.1881 106.5 88.2629 105.641C84.9468 114.592 92.4007 120.128 102.456 117.566C109.304 115.824 114.195 114.876 117.677 115.883C121.238 116.323 125.415 119.17 130.971 123.474C139.178 129.822 148.226 127.709 148.735 118.172C147.546 118.59 146.286 118.77 145.027 118.7C146.061 118.962 147.139 118.996 148.187 118.798C147.356 125.831 139.119 129.069 131.636 123.131C119.516 113.516 116.963 112.978 101.987 116.979Z" fill="#9598A6"/>
<path fill-rule="evenodd" clip-rule="evenodd" d="M101.987 116.979C94.8133 117.24 91.3048 114.113 91.4613 107.598C90.4075 107.432 89.4045 107.031 88.5268 106.424C86.4823 113.271 92.7525 119.454 101.987 116.979Z" fill="#A6AAB8"/>
<path fill-rule="evenodd" clip-rule="evenodd" d="M131.636 123.132C138.118 126.21 142.582 124.733 145.027 118.7C146.061 118.963 147.139 118.996 148.187 118.798C147.355 125.831 139.119 129.069 131.636 123.132Z" fill="#A6AAB8"/>
<path fill-rule="evenodd" clip-rule="evenodd" d="M130.306 124.56C125.701 121.347 120.04 120.024 114.488 120.862C112.415 118.603 107.944 117.575 102.633 118.828C104.674 119.786 106.744 122.029 108.844 125.557C110.38 128.15 112.102 130.448 114.547 130.996C116.992 131.544 119.497 130.018 121.942 128.267C125.258 125.861 128.056 124.628 130.306 124.56Z" fill="#EC2024"/>
<path fill-rule="evenodd" clip-rule="evenodd" d="M114.488 120.862C115.145 121.571 115.566 122.467 115.692 123.425C115.818 124.384 115.644 125.358 115.192 126.213C115.773 125.423 116.086 124.469 116.086 123.488C116.086 122.508 115.773 121.554 115.192 120.764L114.468 120.862H114.488Z" fill="#CD2027"/>
<path fill-rule="evenodd" clip-rule="evenodd" d="M114.811 129.695C112.375 129.186 110.654 126.849 109.108 124.256C107.713 121.693 105.4 119.753 102.633 118.827C104.674 119.786 106.744 122.029 108.844 125.557C110.38 128.15 112.102 130.448 114.547 130.996C116.992 131.544 119.497 130.018 121.942 128.267C125.258 125.861 128.056 124.628 130.306 124.56C127.399 124.314 124.507 125.173 122.206 126.966C119.761 128.736 117.257 130.194 114.811 129.695Z" fill="#E31E26"/>
<path fill-rule="evenodd" clip-rule="evenodd" d="M135.519 29.8021C163.495 35.593 176.985 52.7701 177.581 74.799C181.406 48.1628 165.383 29.8021 136.742 23.8449C108.1 17.8877 86.1007 28.4131 79.0283 54.3743C88.3407 34.3605 107.552 23.9721 135.529 29.7728L135.519 29.8021Z" fill="#A6AAB8"/>
<path fill-rule="evenodd" clip-rule="evenodd" d="M78.3733 57.0645C77.9624 58.8643 77.6298 60.7327 77.3951 62.6793C77.2092 64.0487 76.9744 65.3889 76.7201 66.7094C77.1603 64.753 77.532 62.7184 77.8157 60.6349C77.9918 59.4219 78.1874 58.2285 78.4124 57.0645H78.3733ZM67.7598 96.9454C65.7154 105.749 66.4491 113.389 75.3604 120.422C82.3545 125.92 92.9679 116.871 106.213 131.456C107.24 132.581 111.299 135.672 113.539 135.917C115.691 136.582 120.651 135.359 122.04 134.733C139.999 126.624 146.133 139.135 154.731 136.866C165.687 133.98 169.404 127.309 171.028 118.378C169.189 126.281 165.256 132.17 155.152 134.831C146.553 137.1 140.42 124.579 122.46 132.689C121.071 133.315 116.112 134.537 113.96 133.872C111.73 133.628 107.66 130.537 106.633 129.412C93.3494 114.778 82.7751 123.807 75.7419 118.309C67.5251 111.853 66.2632 104.888 67.7207 96.9063L67.7598 96.9454ZM174.853 87.0657C175.136 85.7451 175.469 84.4245 175.831 83.0844C176.359 81.1932 176.793 79.3412 177.132 77.5283C176.877 78.6923 176.584 79.8661 176.261 81.0498C175.694 83.0746 175.234 85.0799 174.853 87.0657Z" fill="#9598A6"/>
<path fill-rule="evenodd" clip-rule="evenodd" d="M87.6464 120.383C74.4017 118.348 68.3369 103.343 70.1269 95.028C71.829 87.1144 74.2745 79.2791 75.7026 71.0623C73.2669 80.8442 69.5009 89.3545 67.7597 96.9062C66.3022 104.888 67.5641 111.853 75.7809 118.309C78.9992 120.843 82.9902 120.265 87.6464 120.383Z" fill="#A6AAB8"/>
<path fill-rule="evenodd" clip-rule="evenodd" d="M143.442 131.945C156.403 135.349 167.897 123.982 169.599 115.638C171.174 107.705 172.055 99.5374 174.001 91.438C172.348 101.416 172.436 110.689 171.067 118.309C169.228 126.213 165.295 132.101 155.191 134.762C151.229 135.809 147.795 133.716 143.452 131.945H143.442Z" fill="#A6AAB8"/>
<path fill-rule="evenodd" clip-rule="evenodd" d="M102.358 92.0055C101.138 91.0581 99.827 90.2325 98.4454 89.5405C92.7717 86.835 86.4684 85.7258 80.2119 86.332C86.573 86.0881 92.8686 87.6917 98.3378 90.9491C94.2294 89.6448 90.6753 90.1795 87.6755 92.5533C88.7922 91.7251 90.1021 91.1964 91.4807 91.0175C94.8163 90.5382 98.5139 91.6338 101.546 92.9739C102.029 93.1143 102.547 93.0761 103.004 92.8663C106.206 91.1688 109.631 89.9275 113.177 89.1785C113.392 88.885 113.598 88.5916 113.793 88.2884C109.708 88.5105 105.754 89.8061 102.329 92.0446L102.358 92.0055Z" fill="#A6AAB8"/>
<path fill-rule="evenodd" clip-rule="evenodd" d="M126.167 74.9064C130.618 75.8357 131.86 83.2015 132.242 86.8208C132.519 90.8873 133.389 94.8913 134.824 98.7059L135.03 99.2048L134.57 99.4787C130.376 102.018 125.377 102.877 120.576 101.882C115.775 100.888 111.528 98.1144 108.687 94.1182L108.374 93.678L108.765 93.3062C111.589 90.3893 113.975 87.0778 115.847 83.4754C117.638 80.3061 121.717 74.0358 126.158 74.9553L126.167 74.9064Z" fill="#8B8B8B"/>
<path fill-rule="evenodd" clip-rule="evenodd" d="M126.041 75.5227C123.468 74.9846 120.074 77.2443 116.396 83.7395C114.498 87.4125 112.073 90.7873 109.196 93.7562C111.947 97.6217 116.057 100.305 120.703 101.268C125.348 102.231 130.186 101.403 134.248 98.9504C132.791 95.0791 131.908 91.0158 131.626 86.8893C130.834 79.4746 128.613 76.0509 126.041 75.5227Z" fill="#EAEAEA"/>
<path fill-rule="evenodd" clip-rule="evenodd" d="M126.041 75.5227C123.468 74.9846 120.074 77.2443 116.396 83.7395C114.498 87.4125 112.073 90.7873 109.196 93.7562C111.947 97.6217 116.057 100.305 120.703 101.268C125.348 102.231 130.186 101.403 134.248 98.9504C130.304 101.188 125.679 101.911 121.24 100.984C116.801 100.057 112.853 97.5425 110.135 93.9127C112.414 91.8292 114.684 88.562 117.1 84.1308C120.122 78.6333 123.145 75.777 126.041 75.4835V75.5227Z" fill="#D5D4D4"/>
<path fill-rule="evenodd" clip-rule="evenodd" d="M119.007 86.547C119.885 82.5867 122.003 79.0093 125.052 76.3346C125.365 76.0509 125.698 75.7868 126.03 75.5227C125.743 75.5511 125.458 75.6035 125.179 75.6792C122.548 76.4031 119.819 79.2105 117.09 84.1699C116.19 85.8133 115.309 87.2904 114.439 88.6207L113.96 89.325C112.859 90.9941 111.572 92.5332 110.125 93.9128C112.836 97.5512 116.785 100.072 121.227 101C125.668 101.928 130.296 101.199 134.237 98.9505C130.659 100.798 126.561 101.378 122.611 100.599C118.66 99.8189 115.09 97.7243 112.482 94.6562C113.802 94.1539 115 93.377 115.996 92.377C116.993 91.377 117.766 90.1766 118.264 88.8555C118.352 88.6501 118.43 88.4349 118.508 88.2197C118.701 87.6714 118.865 87.113 118.997 86.547H119.007Z" fill="#E3E3E3"/>
<path fill-rule="evenodd" clip-rule="evenodd" d="M127.224 77.2151C128.96 81.0308 130.107 85.0874 130.628 89.2469C130.628 83.3386 129.493 79.328 127.224 77.2151Z" fill="white"/>
<path fill-rule="evenodd" clip-rule="evenodd" d="M201.146 45.3259C204.413 47.4682 207.935 44.4651 209.373 45.7563C209.632 45.9948 209.79 46.3241 209.813 46.6758C210.14 49.981 209.848 53.3182 208.952 56.5165C207.359 62.0393 203.902 66.8402 199.17 70.1036C193.125 74.3098 185.691 76.1488 178.452 76.6281L177.298 76.7064L177.474 75.6499C179.019 65.7897 178.022 55.9393 172.964 47.1747C172.07 45.624 171.07 44.1369 169.971 42.7239L169.12 41.6283L170.47 41.2762C181.113 38.5275 191.99 38.4296 201.156 45.3259H201.146Z" fill="#63656F"/>
<path fill-rule="evenodd" clip-rule="evenodd" d="M200.618 46.04C192.264 39.7208 182.032 39.1926 170.685 42.1272C171.813 43.5687 172.836 45.0888 173.747 46.6758C178.961 55.7045 179.919 65.7995 178.364 75.7477C200.951 74.1533 210.204 60.7324 208.903 46.7247C208.757 45.0911 204.492 48.6028 200.618 46.04Z" fill="#A6AAB8"/>
<path fill-rule="evenodd" clip-rule="evenodd" d="M206.585 60.1065C205.429 62.4831 203.877 64.6462 201.997 66.5039C195.521 71.8849 187.381 74.8574 178.961 74.9164C180.902 63.8412 178.627 52.4403 172.583 42.9588C177.145 41.54 181.963 41.141 186.696 41.7901C191.429 42.4392 195.961 44.1205 199.972 46.7151C201.094 47.4761 202.4 47.9212 203.752 48.0039C205.105 48.0865 206.455 47.8035 207.661 47.1846C208.881 51.4756 208.516 56.0621 206.634 60.1065H206.585Z" fill="#B9BCCD"/>
<path fill-rule="evenodd" clip-rule="evenodd" d="M153.655 82.4972C154.176 82.6048 154.653 82.8644 155.026 83.2432C155.4 83.622 155.653 84.103 155.753 84.6254C155.853 85.1478 155.796 85.6882 155.589 86.1782C155.382 86.6682 155.034 87.0858 154.59 87.3784C154.146 87.6709 153.625 87.8251 153.093 87.8216C152.561 87.8181 152.042 87.657 151.602 87.3586C151.161 87.0603 150.819 86.638 150.619 86.1453C150.419 85.6526 150.369 85.1116 150.476 84.5906C150.622 83.8925 151.038 83.2805 151.634 82.8883C152.229 82.4961 152.956 82.3555 153.655 82.4972Z" fill="white"/>
<path fill-rule="evenodd" clip-rule="evenodd" d="M174.158 44.2402C181.416 42.6359 187.608 43.6043 194.27 46.6856C196.51 47.7225 198.662 48.9648 200.902 49.9724C202.46 50.8263 204.239 51.1942 206.008 51.0288L206.282 50.9799V51.2538C205.059 65.2811 193.438 71.0916 180.849 73.4588L180.546 73.5175L180.594 73.2143C181.504 68.246 181.393 63.1445 180.268 58.2205C179.143 53.2965 177.027 48.653 174.05 44.5727L173.865 44.3086L174.178 44.2402H174.158Z" fill="#C15B79"/>
<path fill-rule="evenodd" clip-rule="evenodd" d="M206.047 51.195C199.708 52.4275 191.374 40.611 174.207 44.4064C177.197 48.5123 179.323 53.1828 180.454 58.1347C181.586 63.0867 181.7 68.2168 180.79 73.2142C196.611 70.2731 205.03 62.9333 206.047 51.195Z" fill="#E589B6"/>
<path fill-rule="evenodd" clip-rule="evenodd" d="M69.1387 17.9367C65.2846 18.6019 63.2695 14.4543 61.4207 15.0608C61.0859 15.178 60.8092 15.4198 60.648 15.7357C59.0344 18.6383 57.9762 21.8163 57.5275 25.1068C56.7912 30.7881 58.0422 36.5492 61.0686 41.4133C64.8933 47.7031 71.0266 52.3691 77.4827 55.7243L78.4609 56.2526L78.7543 55.1374C81.2585 45.4728 86.081 36.8256 94.2 30.7999C95.6369 29.7186 97.1469 28.738 98.7193 27.8653L99.9322 27.1904L98.8366 26.3394C90.1698 19.5898 80.2021 15.1684 69.0702 17.8584L69.1387 17.9367Z" fill="#63656F"/>
<path fill-rule="evenodd" clip-rule="evenodd" d="M69.3248 18.8266C79.498 16.3518 89.0745 19.9124 98.3478 27.1314C96.7411 27.9989 95.1982 28.9796 93.7307 30.066C85.3574 36.2776 80.4566 45.1596 77.9328 54.9122C57.8407 44.465 54.691 28.5009 61.4503 16.1366C62.2329 14.6986 64.7468 19.6091 69.3248 18.7972V18.8266Z" fill="#A6AAB8"/>
<path fill-rule="evenodd" clip-rule="evenodd" d="M58.2514 29.3617C58.3796 32.0027 58.9449 34.6041 59.9241 37.0601C63.7199 44.568 70.0012 50.5277 77.6979 53.9242C80.3299 42.9909 86.9605 33.4394 96.2836 27.151C92.6627 24.0408 88.4033 21.763 83.806 20.4784C79.2087 19.1939 74.3855 18.9339 69.6767 19.7168C68.3474 19.9715 66.9739 19.8624 65.7015 19.401C64.429 18.9395 63.3049 18.1429 62.4479 17.0952C59.6186 20.5465 58.1255 24.9005 58.2416 29.3617H58.2514Z" fill="#B9BCCD"/>
<path fill-rule="evenodd" clip-rule="evenodd" d="M94.3276 28.0511C89.9755 30.6132 86.1901 34.034 83.2018 38.1052C80.2135 42.1765 78.0848 46.8132 76.9451 51.7332L76.8766 52.0267L76.6125 51.8604C65.96 44.6804 57.6258 34.7322 62.0472 21.3701L62.1352 21.106L62.37 21.2625C63.9276 22.1187 65.7067 22.4868 67.4762 22.3189C69.9314 22.3189 72.3672 22.0059 74.8616 21.9472C82.198 21.7614 88.2628 23.3363 94.2885 27.699L94.5526 27.8849L94.2689 28.0511H94.3276Z" fill="#C15B79"/>
<path fill-rule="evenodd" clip-rule="evenodd" d="M62.272 21.4385C67.6032 25.0871 79.9577 17.5257 94.1905 27.8652C89.8169 30.4451 86.0132 33.8868 83.01 37.9813C80.0068 42.0757 77.8669 46.7377 76.7199 51.6842C63.3774 42.6653 58.5646 32.5834 62.2818 21.4385H62.272Z" fill="#E589B6"/>
<path fill-rule="evenodd" clip-rule="evenodd" d="M89.016 27.9826C82.2523 34.1872 77.8975 42.5815 76.7201 51.6842C77.8682 46.7369 80.0097 42.0744 83.0146 37.9799C86.0195 33.8853 89.8251 30.4442 94.2005 27.8652C79.9677 17.5648 67.6131 25.0871 62.282 21.4385C63.2015 24.2068 68.9533 25.6154 79.5373 24.9893C83.2936 24.7643 85.7782 25.5371 89.0258 27.9826H89.016Z" fill="#D37094"/>
<path fill-rule="evenodd" clip-rule="evenodd" d="M178.912 46.6172C182.648 54.9994 183.313 64.4299 180.79 73.2535C181.7 68.2561 181.586 63.126 180.454 58.174C179.323 53.2221 177.197 48.5516 174.207 44.4457C191.355 40.6503 199.708 52.4669 206.047 51.2343C204.091 53.4059 198.27 52.4179 188.811 47.6345C187.312 46.8146 185.662 46.3054 183.961 46.1373C182.26 45.9693 180.543 46.1458 178.912 46.6564V46.6172Z" fill="#D37094"/>
</g>
</svg>
