<svg width="236" height="249" viewBox="0 0 236 249" fill="none" xmlns="http://www.w3.org/2000/svg">
<mask id="mask0_9:463" style="mask-type:alpha" maskUnits="userSpaceOnUse" x="0" y="0" width="236" height="249">
<path d="M235.59 155.5C235.59 172.018 207.742 182.239 201.59 196.5C191.09 227.5 152.59 249 118.59 249C88.0903 249 75.5959 241.426 54.5903 209.5C42.4083 190.985 0.590332 179.32 0.590332 155.5C0.590332 90.6065 91.6969 0 156.59 0C221.484 0 235.59 90.6065 235.59 155.5Z" fill="#C4C4C4"/>
</mask>
<g mask="url(#mask0_9:463)">
<path fill-rule="evenodd" clip-rule="evenodd" d="M184.865 201.483C187.451 204.678 189.772 208.079 191.805 211.653C194.135 215.199 195.668 219.21 196.3 223.407C196.84 226.047 197.107 228.735 197.095 231.429L197.668 237.642C198.522 246.81 203.609 250.729 212.034 252.119C219.615 253.363 232.486 256.202 236.301 263.845C237.32 265.896 234.292 267.909 232.418 265.468C227.245 258.332 216.159 256.601 208.016 256.3C202.919 256.115 196.707 255.327 192.757 251.749C189.431 259.082 184.288 265.441 177.818 270.223C179.973 271.351 182.186 272.508 184.215 273.801C185.71 274.773 187.738 276.193 188.224 278.011C188.786 280.091 187.01 283.037 185.981 284.758C184.176 287.782 182.205 290.67 180.497 293.771C176.556 300.927 174.848 310.845 173.576 319.109C174.067 321.344 174.311 323.626 174.304 325.915V326.489L173.79 326.741C168.71 329.276 163.158 330.718 157.49 330.976C151.821 331.233 146.162 330.301 140.874 328.239L140.496 328.083L140.35 327.694C139.353 325.045 139.076 322.178 139.547 319.386C140.017 316.595 141.219 313.978 143.029 311.803C144.839 309.629 147.192 307.974 149.849 307.008C152.506 306.042 155.371 305.799 158.152 306.304C165.714 298.924 171.344 290.193 173.634 279.819C167.257 277.218 161.246 273.792 155.755 269.63C152.322 269.239 148.937 268.506 145.65 267.442C146.459 268.596 147.274 269.746 148.096 270.894C149.678 273.12 147.747 275.386 146.019 276.727C136.312 284.438 129.799 294.471 125.945 306.226C126.013 306.362 126.071 306.508 126.139 306.644V306.722V306.81C126.632 309.009 126.879 311.255 126.877 313.509V314.092L126.363 314.345C121.466 316.786 116.113 318.175 110.649 318.423C105.184 318.671 99.7287 317.772 94.6314 315.784L94.2431 315.628L94.0976 315.239C93.12 312.642 92.8591 309.829 93.3423 307.095C93.8256 304.362 95.0352 301.809 96.8439 299.706C98.6525 297.603 100.993 296.027 103.621 295.143C106.248 294.26 109.064 294.102 111.773 294.685C113.034 294.968 114.266 295.368 115.452 295.881C121.615 290.621 126.783 284.295 130.711 277.204C132.653 272.342 130.207 268.609 126.45 265.536C122.694 262.464 118.927 259.207 115.365 255.814C113.134 253.798 111.052 251.624 109.133 249.309L109.056 249.222L109.007 249.105C106.241 242.863 108.959 235.172 111.803 229.455L112.404 228.23C112.006 225.024 111.802 221.796 111.793 218.566C111.793 217.36 111.793 216.164 111.861 214.958C111.427 214.667 111 214.365 110.58 214.054L109.832 213.519L110.356 212.761C110.911 211.974 111.507 211.218 112.142 210.496C112.839 202.775 114.408 195.159 116.821 187.793C114.084 188.892 111.288 189.883 108.502 190.836C104.464 192.226 100.387 193.52 96.301 194.784C89.9042 196.728 87.6911 190.437 86.5263 185.43C85.3452 179.854 83.7985 174.362 81.8962 168.989C81.4303 167.754 79.6928 163.35 78.2853 162.922C77.3146 162.64 76.0625 163.301 74.8491 163.272L74.2376 164.001C69.9012 165.858 65.0604 166.17 60.522 164.886L60.0173 164.75L59.8717 164.254C57.3382 155.746 58.5516 146.588 62.1722 138.586L62.3954 138.08H62.9584C67.4427 137.824 71.8675 139.206 75.4121 141.969C76.6034 142.858 77.7055 143.861 78.7027 144.964C78.9939 145.285 79.2754 145.615 79.5472 145.936L79.7607 146.238C79.8867 146.391 79.9626 146.58 79.9782 146.778C79.9938 146.976 79.9484 147.174 79.8481 147.346C84.9247 150.584 88.3803 156.485 90.6323 161.93C92.0688 165.382 93.5443 168.863 95.2623 172.197C96.3124 174.351 97.5499 176.407 98.9606 178.342C104.227 176.291 109.093 173.329 113.336 169.592C116.079 167.138 119.083 164.996 122.296 163.204C124.324 162.183 126.79 161.405 128.954 162.504L129.061 162.552L130.032 161.152C134.503 155.008 137.795 148.084 139.739 140.734C140.971 109.933 155.327 99.3251 183.972 112.538L186.884 108.435C186.135 110.297 185.29 112.117 184.351 113.89C183.218 115.663 182.178 117.493 181.235 119.373C175.061 131.653 173.013 145.761 173.722 159.451C179.196 164.225 182.594 170.408 181.623 178.109C181.108 182.124 180.235 188.872 183.098 192.217C184.516 193.86 188 197.992 186.496 200.364C186.097 200.947 185.488 201.351 184.797 201.492L184.865 201.483Z" fill="#8D4F21"/>
<path fill-rule="evenodd" clip-rule="evenodd" d="M98.5627 179.285C95.8837 175.921 93.1173 170.204 89.8267 162.3C86.8079 155.037 83.032 150.282 78.9066 147.861C73.9433 148.51 72.5358 153.345 74.6842 162.368C75.9073 162.552 77.2274 161.658 78.6154 162.076C81.2363 162.873 84.255 171.215 87.4971 185.265C89.1472 192.401 91.6127 195.328 96.0875 193.947C105.251 191.099 112.327 188.707 117.258 186.675L117.394 186.305L117.452 186.121L117.636 185.576V185.498C117.714 185.284 117.792 185.08 117.86 184.866L118.093 184.215V184.166L118.326 183.534V183.456L118.568 182.815C118.646 182.601 118.724 182.397 118.811 182.183V182.095L119.044 181.522V181.405L119.277 180.812V180.763C119.364 180.54 119.461 180.326 119.549 180.112C119.723 179.674 119.917 179.227 120.102 178.79V178.721L120.374 178.109L120.645 177.506V177.409L120.908 176.826V176.767L121.189 176.164V176.106C121.393 175.688 121.587 175.27 121.781 174.862L121.839 174.755C122.034 174.336 122.237 173.928 122.451 173.51L122.762 172.907V172.829L123.053 172.275V172.188L123.344 171.624V171.565C123.674 170.934 124.014 170.321 124.315 169.699V169.64L124.635 169.067L124.965 168.493L125.295 167.919L125.644 167.317L125.722 167.19L125.771 167.103L125.868 166.937L126.023 166.694L126.091 166.578L126.178 166.432L126.227 166.354L126.275 166.286V166.218L126.363 166.082L126.858 165.285L127.003 165.061L127.071 164.954L127.207 164.75L127.479 164.322L127.731 163.933L127.79 163.836C124.742 162.3 120.16 164.944 113.23 170.817C107.541 175.61 102.319 178.498 97.9221 179.947C96.6948 180.372 95.4353 180.697 94.1559 180.919C95.3154 180.549 96.4192 180.022 97.4367 179.353C97.5532 179.519 97.6794 179.674 97.7959 179.82L98.5627 179.285Z" fill="#FFCC05"/>
<path fill-rule="evenodd" clip-rule="evenodd" d="M98.5627 179.285C95.8837 175.921 93.1173 170.204 89.8267 162.3C86.8079 155.037 83.032 150.282 78.9066 147.861C73.9433 148.51 72.5358 153.345 74.6842 162.368C75.9073 162.552 77.2274 161.658 78.6154 162.076C81.2363 162.873 84.255 171.215 87.4971 185.265C89.1472 192.401 91.6127 195.328 96.0875 193.947C105.251 191.099 112.327 188.707 117.258 186.675L117.394 186.305L117.452 186.121L117.636 185.576V185.498C117.714 185.284 117.792 185.08 117.86 184.866L118.093 184.215V184.166L118.326 183.534V183.456L118.568 182.815C118.646 182.601 118.724 182.397 118.811 182.183V182.095L119.044 181.522V181.405L119.277 180.812V180.763C119.364 180.54 119.461 180.326 119.549 180.112C119.723 179.674 119.917 179.227 120.102 178.79V178.721L120.374 178.109L120.645 177.506V177.409L120.908 176.826V176.767L121.189 176.164V176.106C121.393 175.688 121.587 175.27 121.781 174.862L121.839 174.755C122.034 174.336 122.237 173.928 122.451 173.51L122.762 172.907V172.829L123.053 172.275V172.188L123.344 171.624V171.565C123.674 170.934 124.014 170.321 124.315 169.699V169.64L124.635 169.067L124.965 168.493L125.295 167.919L125.644 167.317L125.722 167.19L125.771 167.103L125.868 166.937L126.023 166.694L126.091 166.578L126.178 166.432L126.227 166.354L126.275 166.286V166.218L126.363 166.082L126.858 165.285L127.003 165.061L127.071 164.954L127.207 164.75L127.479 164.322L127.731 163.933L127.79 163.836C124.742 162.3 120.16 164.944 113.23 170.817C107.541 175.61 102.319 178.498 97.9221 179.947C96.6948 180.372 95.4353 180.697 94.1559 180.919C95.3154 180.549 96.4192 180.022 97.4367 179.353C97.5532 179.519 97.6794 179.674 97.7959 179.82L98.5627 179.285ZM91.4962 189.008C89.8073 186.821 90.4479 183.651 93.4376 183.534C101.582 183.243 109.25 179.519 115.763 174.638C113.965 177.97 113.087 181.723 113.22 185.508C101.135 191.069 93.9229 192.197 91.4477 189.008H91.4962Z" fill="#E7B021"/>
<path fill-rule="evenodd" clip-rule="evenodd" d="M183.632 113.375C156.227 100.754 141.923 109.923 140.719 140.88C138.752 148.38 135.401 155.443 130.838 161.707C120.92 176.082 114.841 192.761 113.181 210.155C115.271 207.929 117.722 206.075 120.432 204.672C121.641 202.116 123.115 199.695 124.829 197.448C132.158 197.574 140.107 197.253 148.271 194.823C154.027 193.111 158.9 191.478 163.442 191.526C162.569 189.491 161.184 187.715 159.424 186.373C151.891 178.867 152.474 169.427 161.171 158.051C153.697 169.534 153.037 178.935 159.831 185.644C161.704 187.318 163.209 189.364 164.248 191.653C165.887 191.588 167.522 191.853 169.057 192.43C170.593 193.008 171.997 193.887 173.188 195.017C170.635 193.193 167.587 192.192 164.452 192.149H163.685C159.398 192.346 155.166 193.195 151.134 194.667C141.728 197.749 132.866 198.07 125.295 198.313C123.528 200.211 122.047 202.356 120.898 204.681C127.102 205.892 132.926 208.572 137.885 212.499L138.147 212.712V212.761C143.427 211.711 144.767 209.465 141.981 206.179C140.651 204.623 140.651 203.787 142.156 203.505C153.008 201.074 166.714 200.54 183.302 200.715C187.185 200.715 186.768 197.856 182.429 192.81C179.818 189.767 179.876 184.779 180.73 177.983C181.633 170.885 178.672 164.828 172.848 159.888C172.11 159.257 171.315 158.644 170.48 158.051C171.289 158.291 172.07 158.617 172.809 159.023C172.033 142.806 175.139 126.568 183.603 113.326L183.632 113.375ZM138.011 213.179C136.76 216.501 134.629 219.418 131.847 221.619L131.701 221.735H131.507C124.861 220.975 118.479 218.697 112.851 215.075C112.026 236.465 119.005 255.259 134.478 262.114C140.777 264.895 147.155 267.394 153.668 268.405C150.618 266.22 147.848 263.67 145.417 260.811C137.768 251.575 144.078 235.036 163.598 211.789L162.744 212.946L161.909 214.093L161.093 215.221L160.297 216.339L159.521 217.438C159.269 217.807 159.006 218.167 158.764 218.527L158.016 219.606L157.298 220.666L156.589 221.716L155.91 222.756C155.454 223.437 155.017 224.117 154.59 224.778C154.386 225.119 154.173 225.449 153.969 225.751C153.765 226.052 153.551 226.402 153.357 226.723C153.163 227.044 152.959 227.365 152.765 227.695C152.571 228.026 152.377 228.337 152.192 228.668C152.008 228.998 151.814 229.29 151.629 229.64C151.445 229.99 151.27 230.262 151.095 230.612L150.581 231.526C150.241 232.139 149.911 232.732 149.61 233.325L149.144 234.2L148.708 235.065C148.562 235.347 148.416 235.639 148.281 235.921C147.999 236.485 147.737 237.039 147.485 237.583L147.116 238.4L146.766 239.197L146.436 239.985C146.329 240.247 146.223 240.51 146.126 240.763C145.922 241.278 145.737 241.784 145.563 242.28C145.466 242.532 145.388 242.775 145.301 243.018C145.213 243.262 145.136 243.505 145.068 243.748C145 243.991 144.912 244.224 144.844 244.457C144.776 244.691 144.708 244.934 144.65 245.167C144.592 245.401 144.524 245.624 144.466 245.857C144.408 246.091 144.359 246.305 144.301 246.528C144.243 246.752 144.204 246.976 144.165 247.199C144.126 247.423 144.078 247.637 144.039 247.851C144 248.065 143.961 248.288 143.932 248.492C143.809 249.307 143.732 250.129 143.699 250.952C143.699 251.147 143.699 251.341 143.699 251.536C143.699 251.73 143.699 251.915 143.699 252.1C143.714 252.653 143.759 253.204 143.835 253.752C143.835 253.927 143.883 254.102 143.922 254.277C143.98 254.627 144.058 254.968 144.145 255.298C144.233 255.629 144.33 255.95 144.446 256.271L144.621 256.737C144.689 256.893 144.747 257.048 144.825 257.194C144.958 257.497 145.107 257.792 145.271 258.079C145.359 258.225 145.436 258.371 145.524 258.507L145.805 258.915C145.894 259.057 145.991 259.194 146.097 259.324C146.194 259.46 146.3 259.586 146.407 259.712C146.514 259.839 146.621 259.975 146.737 260.101L147.339 260.753L147.446 260.87L147.669 261.113L147.747 261.19L148.038 261.501L148.339 261.822L148.407 261.89L149.047 262.542L149.377 262.872L149.688 263.184L149.756 263.252L150.397 263.864L150.455 263.922L150.775 264.224L151.134 264.554L151.474 264.866H151.523L151.853 265.167L152.192 265.459L152.891 266.071L152.969 266.139L153.668 266.732L153.755 266.8L155.318 268.074L156.026 268.628C161.754 273.014 168.062 276.581 174.77 279.226C172.732 289.208 167.574 298.309 159.298 306.528C162.223 307.278 164.955 308.645 167.311 310.538C169.666 312.431 171.59 314.806 172.955 317.505C174.498 307.84 176.314 299.557 179.75 293.324C183.487 286.518 188.136 281.035 187.389 278.254C186.739 275.804 182.186 273.567 176.11 270.34L174.77 269.62C175.395 269.684 176.013 269.808 176.614 269.99C182.926 265.501 188.018 259.503 191.425 252.54C194.833 245.578 196.448 237.873 196.125 230.126C196.063 227.911 195.813 225.706 195.378 223.534C194.755 219.3 193.185 215.262 190.786 211.721C188.706 208.146 186.347 204.742 183.729 201.541C169.879 200.7 155.977 201.519 142.321 203.981C141.457 204.137 141.35 204.623 141.961 205.401C145.398 209.611 144.087 212.207 138.001 213.179H138.011ZM125.392 305.079C129.108 293.64 136.09 283.543 145.475 276.037C147.485 274.433 148.387 272.809 147.368 271.438C146.213 269.824 145.155 268.346 144.223 266.966C140.777 265.809 137.428 264.399 134.109 262.94C131.696 261.873 129.432 260.497 127.372 258.847C118.636 251.886 114.356 240.957 112.696 229.922C108.781 237.836 107.855 244.124 109.92 248.784C112.414 251.925 118.064 257.369 127.1 264.827C131.954 268.813 133.517 272.994 131.614 277.661C127.69 284.736 122.555 291.064 116.443 296.358C120.256 298.276 123.38 301.334 125.382 305.108L125.392 305.079Z" fill="#FFCC05"/>
<path fill-rule="evenodd" clip-rule="evenodd" d="M185.7 204.088C191.766 214.3 194.205 226.268 192.619 238.044C191.033 249.82 185.515 260.713 176.964 268.949L174.751 269.62C175.376 269.684 175.993 269.808 176.595 269.989C182.911 265.503 188.006 259.506 191.417 252.543C194.828 245.581 196.446 237.875 196.125 230.126C196.063 227.911 195.813 225.706 195.377 223.534C194.755 219.3 193.185 215.262 190.786 211.721C189.26 209.056 187.557 206.497 185.69 204.059L185.7 204.088Z" fill="#E7B021"/>
<path fill-rule="evenodd" clip-rule="evenodd" d="M174.265 123.729C171.336 134.923 170.07 146.488 170.509 158.051L172.838 159.023C172.062 142.805 175.168 126.568 183.632 113.326C182.16 114.795 180.533 116.099 178.779 117.215C177.213 118.181 175.727 119.27 174.333 120.472C174.052 120.735 173.79 121.007 173.527 121.299C172.046 123.137 170.032 124.469 167.762 125.11C165.956 125.956 164.063 126.646 162.239 127.443C159.81 128.485 157.47 129.72 155.24 131.138C151.716 133.404 148.445 136 144.97 138.304C143.611 139.25 142.191 140.104 140.719 140.861C139.398 146.06 137.356 151.048 134.652 155.678C137.603 151.605 140.112 147.228 142.136 142.621C143.582 142.198 144.898 141.415 145.96 140.346C152.036 134.893 159.293 130.928 167.16 128.766C169.179 128.192 171.576 126.666 174.265 123.749V123.729Z" fill="#D59929"/>
<path fill-rule="evenodd" clip-rule="evenodd" d="M170.509 158.051C173.554 160.414 175.942 163.521 177.442 167.074C178.943 170.628 179.507 174.508 179.08 178.342C178.196 185.809 179.08 190.836 181.846 193.802C185.195 197.428 185.729 199.878 181.778 199.742C166.636 199.227 152.959 200.267 140.894 203.135C139.836 203.388 139.845 204.273 140.641 205.323C143.476 209.076 142.748 211.215 138.564 211.672C133.395 207.788 127.281 205.364 120.859 204.652C127.079 205.866 132.918 208.556 137.884 212.498L138.147 212.712V212.761C143.427 211.711 144.767 209.465 141.981 206.179C140.651 204.623 140.651 203.787 142.155 203.505C153.008 201.074 166.713 200.539 183.302 200.714C187.185 200.714 186.767 197.856 182.429 192.81C179.817 189.767 179.876 184.779 180.73 177.983C181.633 170.885 178.672 164.828 172.848 159.888C172.11 159.256 171.314 158.644 170.48 158.051H170.509Z" fill="#D59929"/>
<path fill-rule="evenodd" clip-rule="evenodd" d="M166.762 184.798C166.403 184.409 166.024 184.04 165.636 183.661C163.741 181.863 162.234 179.697 161.208 177.294C160.181 174.891 159.656 172.303 159.666 169.689C159.685 167.072 160.245 164.487 161.311 162.097C162.376 159.707 163.925 157.565 165.859 155.805C159.744 157.254 152.532 173.15 158.569 181.016C161.685 185.071 163.685 185.771 164.908 190.496C166.545 190.532 168.149 190.96 169.588 191.743C171.026 192.526 172.257 193.642 173.178 194.998C172.838 193.959 172.419 192.949 171.926 191.974C170.526 191.22 169.072 190.57 167.577 190.029C166.94 188.376 166.662 186.606 166.762 184.837V184.798Z" fill="#E7B021"/>
<path fill-rule="evenodd" clip-rule="evenodd" d="M185.7 204.088C180.641 205.89 175.411 207.168 170.091 207.9C167.226 210.807 165.154 214.403 164.073 218.342C166.771 221.606 170.045 224.345 173.731 226.422C177.622 226.154 181.53 226.482 185.321 227.394C188.706 225.502 191.871 223.239 194.756 220.646C194.009 217.457 192.665 214.438 190.796 211.75C189.269 209.085 187.567 206.526 185.7 204.088ZM116.171 243.135C115.772 245.417 115.241 247.673 114.579 249.892C116.045 252.613 118.113 254.961 120.626 256.757C121.844 256.457 123.079 256.23 124.324 256.076C120.788 252.338 118.018 247.941 116.171 243.135ZM112.647 245.226C111.151 241.531 110.613 237.517 111.084 233.558C108.58 239.774 108.201 244.853 109.949 248.794C110.152 249.047 110.376 249.309 110.618 249.591C111.049 248.037 111.735 246.565 112.647 245.235V245.226ZM139.302 265.128C141.097 266.846 142.455 268.97 143.262 271.322C144.765 271.437 146.252 271.711 147.698 272.138C147.627 271.881 147.512 271.637 147.358 271.419C146.203 269.805 145.145 268.327 144.213 266.946C142.563 266.392 140.923 265.78 139.302 265.128ZM131.614 277.641C131.083 278.562 130.54 279.466 129.983 280.354C131.038 280.009 132.147 279.861 133.254 279.917C134.518 278.791 135.485 277.371 136.069 275.782C136.653 274.193 136.837 272.484 136.603 270.806C134.809 269.763 133.125 268.542 131.575 267.16C130.973 267.248 130.362 267.325 129.75 267.394C132.449 270.602 133.109 273.976 131.614 277.641ZM127.062 293.324C127.601 295.536 127.687 297.835 127.314 300.082C129.783 294.243 133.128 288.817 137.234 283.99C135.59 284.266 133.984 284.732 132.449 285.381C130.604 287.974 128.809 290.621 127.062 293.324ZM169.295 293.694C167.108 297.487 164.504 301.022 161.53 304.233C162.779 304.078 164.031 303.893 165.287 303.679C167.779 301.589 169.538 298.754 170.305 295.59C169.94 294.98 169.616 294.346 169.334 293.694H169.295ZM187.165 280.451C185.098 281.783 183.05 283.125 181.011 284.506C179.029 286.805 177.587 289.519 176.789 292.449C177.301 293.597 177.875 294.717 178.507 295.804C178.895 294.958 179.303 294.141 179.73 293.363C182.642 288.035 186.156 283.504 187.165 280.451ZM172.421 270.495C168.927 271.794 165.228 272.453 161.501 272.44C165.696 275.124 170.135 277.403 174.76 279.246C174.547 280.218 174.304 281.268 174.032 282.269C175.226 281.919 176.42 281.54 177.585 281.132C179.036 279.222 179.945 276.954 180.215 274.569C177.767 272.953 175.166 271.582 172.45 270.476L172.421 270.495ZM183.991 256.28C183.943 258.633 183.991 260.996 184.127 263.339C185.997 261.279 187.677 259.053 189.146 256.689C187.419 256.708 185.694 256.571 183.991 256.28ZM156.473 259.051C158.684 262.268 161.732 264.817 165.287 266.421C170.124 266.868 174.99 265.959 179.342 263.796C180.123 262.216 180.518 260.472 180.493 258.708C180.467 256.945 180.023 255.212 179.196 253.655C175.133 249.811 170.216 246.988 164.85 245.42C161.073 249.27 158.21 253.923 156.473 259.032V259.051ZM189.68 229.883C191.757 231.653 193.889 233.354 196.076 234.987C196.177 233.369 196.194 231.746 196.125 230.126C196.063 227.911 195.813 225.706 195.377 223.534C191.87 226.626 189.967 228.719 189.67 229.815L189.68 229.883ZM195.746 238.381C193.243 236.265 190.523 234.42 187.631 232.878C183.92 232.609 180.242 231.998 176.643 231.05C175.146 232.114 173.914 233.51 173.042 235.129C172.17 236.748 171.682 238.546 171.615 240.384C174.317 244.383 177.752 247.831 181.739 250.544C184.953 251.626 188.342 252.088 191.728 251.905C193.752 247.6 195.107 243.009 195.746 238.293V238.381ZM168.859 236.378C170.237 233.982 170.963 231.267 170.965 228.502C167.949 227.283 165.221 225.445 162.957 223.106C161.169 224.741 159.272 226.252 157.279 227.627C158.385 230.641 159.501 233.655 160.627 236.67C163.356 237.215 166.175 237.115 168.859 236.378Z" fill="#8C2B1C"/>
<path fill-rule="evenodd" clip-rule="evenodd" d="M192.426 222.62C193.222 221.988 193.999 221.327 194.756 220.675C194.009 217.486 192.665 214.467 190.796 211.779C189.269 209.114 187.567 206.555 185.7 204.117C189.094 209.812 191.377 216.101 192.426 222.649V222.62ZM192.844 225.897C193.064 228.135 193.138 230.386 193.067 232.634C194.038 233.422 195.067 234.19 196.076 234.948C196.176 233.343 196.192 231.733 196.125 230.126C196.063 227.911 195.813 225.706 195.377 223.534C194.407 224.389 193.562 225.167 192.834 225.867L192.844 225.897ZM192.844 236.086C192.316 241.542 190.944 246.882 188.777 251.915C189.747 251.915 190.718 251.915 191.689 251.915C193.713 247.609 195.069 243.019 195.707 238.303C194.737 237.515 193.766 236.757 192.795 236.047L192.844 236.086ZM186.496 256.553C185.732 257.933 184.904 259.278 184.011 260.587C184.011 261.495 184.05 262.399 184.127 263.3C185.997 261.24 187.677 259.014 189.146 256.65C188.262 256.65 187.379 256.65 186.496 256.553Z" fill="#712413"/>
<path fill-rule="evenodd" clip-rule="evenodd" d="M120.412 295.191C124.441 291.983 128.236 286.975 131.837 281.579C136.38 274.773 134.691 268.463 127.615 263.203C132.565 266.072 138.036 267.923 143.708 268.648C145.65 271.302 146.087 273.256 144.873 274.336C137.181 281.068 130.745 289.118 125.868 298.108C124.393 296.632 122.521 295.618 120.48 295.191H120.412ZM125.363 305.079C129.079 293.64 136.061 283.543 145.446 276.037C147.455 274.433 148.358 272.809 147.339 271.438C146.184 269.824 145.126 268.346 144.194 266.966C140.748 265.809 137.399 264.399 134.079 262.941C131.667 261.873 129.403 260.497 127.343 258.847C118.607 251.886 114.326 240.957 112.666 229.922C108.771 237.836 107.855 244.124 109.919 248.784C112.414 251.925 118.063 257.369 127.1 264.827C131.954 268.813 133.516 272.994 131.614 277.661C127.69 284.736 122.555 291.065 116.442 296.358C120.256 298.276 123.38 301.334 125.382 305.108L125.363 305.079Z" fill="#D59929"/>
<path fill-rule="evenodd" clip-rule="evenodd" d="M120.645 205.09C126.853 206.265 132.683 208.934 137.632 212.868C136.422 216.169 134.322 219.071 131.565 221.249C124.208 220.411 117.188 217.692 111.181 213.354C113.626 209.876 116.872 207.041 120.645 205.09Z" fill="#7E2818"/>
<path fill-rule="evenodd" clip-rule="evenodd" d="M178.963 122.203C174.666 124.131 170.897 127.07 167.975 130.769C166.626 133.627 166.238 138.44 166.743 141.561C167.82 145.265 169.888 146.967 172.838 149.456C173.216 140.06 175.288 130.811 178.954 122.154L178.963 122.203ZM153.571 197.438C153.872 196.21 154.105 194.967 154.269 193.714C153.241 194.006 152.183 194.327 151.095 194.686C148.432 195.554 145.715 196.246 142.961 196.757L147.019 198.828C149.18 198.264 151.364 197.801 153.571 197.438ZM136.099 206.237C134.875 207.201 133.554 208.036 132.158 208.726C134.207 209.827 136.155 211.106 137.982 212.547L138.244 212.761V212.81C139.657 212.593 141.013 212.097 142.233 211.351C141.941 209.934 141.42 208.575 140.69 207.326C139.141 207.129 137.617 206.764 136.147 206.237H136.099ZM122.723 201.56C125.208 201.755 127.686 201.998 130.158 202.29C131.707 201.718 133.158 200.908 134.458 199.888C134.565 199.198 134.701 198.517 134.856 197.837C131.498 198.128 128.285 198.235 125.285 198.332C124.328 199.322 123.469 200.403 122.723 201.56ZM157.909 201.366L155.9 199.159C152.904 198.823 149.871 199.155 147.019 200.131C146.462 200.844 145.852 201.514 145.194 202.134L146.164 202.727C149.795 202.095 153.716 201.638 157.929 201.317L157.909 201.366ZM156.803 197.895C157.676 198.217 158.581 198.448 159.501 198.585C160.608 197.736 161.737 196.923 162.889 196.145C162.304 195.464 161.654 194.842 160.948 194.288C159.508 194.371 158.093 194.7 156.764 195.26C156.937 196.135 156.96 197.032 156.832 197.914L156.803 197.895ZM173.304 200.753C172.043 200.036 171.007 198.978 170.315 197.7C168.587 197.167 166.807 196.825 165.005 196.68C163.312 197.278 161.736 198.167 160.346 199.305C160.644 199.94 160.984 200.554 161.365 201.142C165.131 200.928 169.111 200.799 173.304 200.753ZM185.127 196.398L176.896 193.179C176.63 195.028 175.819 196.755 174.566 198.138C175.245 199.186 176.167 200.054 177.255 200.666H183.331C186.243 200.666 186.729 199.139 185.079 196.3L185.127 196.398ZM156.677 149.524C158.376 150.041 160.169 150.175 161.926 149.916C163.683 149.657 165.361 149.012 166.84 148.027C165.516 146.493 164.489 144.726 163.811 142.815C161.971 142.529 160.102 142.48 158.249 142.669C157.222 144.809 156.685 147.15 156.677 149.524ZM174.935 189.387C174.905 190.714 174.516 192.008 173.809 193.131C171.865 191.886 169.792 190.856 167.626 190.058C166.977 188.365 166.702 186.55 166.82 184.74C168.592 185.181 170.449 185.154 172.207 184.662C172.954 186.326 173.868 187.909 174.935 189.387ZM166.529 181.026C168.076 181.56 169.77 181.469 171.252 180.774C172.734 180.079 173.888 178.834 174.469 177.302C173.22 176.168 171.958 175.05 170.684 173.948C169.14 174.041 167.629 174.437 166.238 175.114C165.762 176.038 165.539 177.071 165.59 178.109C165.641 179.147 165.965 180.153 166.529 181.026ZM175.993 188.969C178.392 190.835 180.905 192.549 183.516 194.103C183.205 193.704 182.875 193.306 182.545 192.878C179.934 189.835 179.992 184.847 180.846 178.051C180.905 177.652 180.944 177.244 180.963 176.845C180.623 176.621 180.293 176.378 179.992 176.135C178.204 178.417 176.009 180.345 173.518 181.823C174.362 184.361 175.217 186.743 176.061 188.969H175.993ZM179.429 172.441C179.503 170.3 178.917 168.188 177.75 166.393C175.686 166.886 173.599 167.297 171.489 167.628C171.441 170.156 171.421 171.42 171.421 171.42C172.992 172.751 174.364 174.299 175.498 176.019C177.078 175.162 178.427 173.934 179.429 172.441ZM173.799 162.232L175.547 165.294C172.868 165.712 170.188 166.218 167.539 166.821C166.156 166.003 165.12 164.706 164.627 163.175C165.152 161.575 165.939 160.073 166.956 158.731C169.545 159.157 171.937 160.381 173.799 162.232ZM166.811 155.708C168.453 155.431 170.141 155.644 171.664 156.32C171.07 154.783 170.741 153.155 170.693 151.507C169.723 151.216 168.752 150.885 167.781 150.535C166.521 151.507 165 152.079 163.413 152.178C164.17 153.663 165.344 154.893 166.791 155.717L166.811 155.708ZM153.347 138.207C156.229 134.939 159.908 132.476 164.025 131.06C162.909 133.371 162.433 135.94 162.646 138.498C160.724 138.911 158.942 139.815 157.473 141.123C155.93 140.439 154.543 139.447 153.396 138.207H153.347Z" fill="#8C2B1C"/>
<path fill-rule="evenodd" clip-rule="evenodd" d="M178.963 122.203C177.191 123.005 175.504 123.982 173.926 125.12C172.099 132.45 170.977 139.938 170.577 147.482C171.266 148.114 172.023 148.746 172.848 149.427V149.155C172.848 148.911 172.848 148.668 172.848 148.435C172.848 147.949 172.906 147.463 172.945 146.967C172.945 146.734 172.945 146.5 172.994 146.267V146.179C172.994 145.703 173.081 145.207 173.13 144.76V144.711C173.13 144.488 173.178 144.254 173.198 144.031V143.933L173.285 143.243L173.372 142.504C173.372 142.264 173.401 142.031 173.46 141.804V141.648C173.46 141.415 173.528 141.182 173.566 140.948C173.566 140.725 173.634 140.491 173.673 140.268C173.673 140.044 173.741 139.821 173.78 139.597V139.49C173.78 139.276 173.848 139.062 173.887 138.839V138.732C173.964 138.284 174.052 137.837 174.139 137.39V137.293L174.256 136.67V136.505C174.343 136.087 174.43 135.659 174.527 135.241V135.086C174.527 134.881 174.615 134.677 174.663 134.483V134.366C174.722 134.152 174.77 133.938 174.819 133.724V133.627L174.964 133.024V132.966C174.964 132.762 175.071 132.548 175.129 132.344L175.178 132.159C175.226 131.965 175.275 131.77 175.333 131.576V131.488C175.459 131.06 175.576 130.633 175.702 130.214L175.751 130.049L175.925 129.476L175.974 129.33C176.1 128.902 176.236 128.474 176.381 128.056V127.978C176.449 127.774 176.527 127.57 176.595 127.356V127.249L176.809 126.636V126.568L177.012 126.005L177.061 125.878C177.129 125.693 177.206 125.499 177.274 125.304L177.333 125.168C177.401 124.964 177.478 124.77 177.556 124.566V124.488L177.779 123.943L177.828 123.836C177.905 123.632 177.983 123.428 178.07 123.224V123.136C178.148 122.942 178.235 122.747 178.323 122.543V122.436L178.43 122.203H178.963ZM170.441 151.498C170.441 152.985 170.441 154.473 170.441 155.96C170.829 156.067 171.209 156.204 171.577 156.369C170.982 154.831 170.654 153.204 170.606 151.556L170.402 151.498H170.441Z" fill="#712413"/>
<path fill-rule="evenodd" clip-rule="evenodd" d="M184.593 200.588H184.71H184.807H184.904H185.001H185.059H185.127H185.195H185.253L185.331 200.53H185.389L185.438 200.481L185.486 200.413V200.364V200.296C185.491 200.271 185.491 200.244 185.486 200.219V200.16V200.073V199.985V199.859C185.486 199.859 185.486 199.791 185.486 199.762V199.139V199.032V198.916V198.828V198.78V198.663V198.566C185.46 198.473 185.427 198.382 185.389 198.293V198.245V198.148V198.099L185.331 197.963V197.914L185.447 197.068V197.02V196.932V196.855L185.37 196.709L185.302 196.582V196.514V196.436V196.359L183.652 195.727C185.447 198.264 185.176 199.869 182.001 199.752C179.982 199.684 177.983 199.645 176.022 199.635C176.465 200.043 176.954 200.399 177.478 200.695H181.361H183.545H184.399H184.525H184.622H184.477H184.574L184.593 200.588ZM132.478 208.872H132.526L133.245 209.271H133.303C133.633 209.465 133.963 209.659 134.274 209.864C134.778 210.175 135.244 210.505 135.749 210.836L136.458 211.332L137.428 212.032L137.632 212.187L137.729 212.265L137.894 212.392L138.156 212.605V212.654L138.855 212.625L139.282 212.518L139.486 212.46L139.661 212.401H139.729L139.884 212.353L140.059 212.294H140.107L140.253 212.236L140.408 212.178L140.564 212.119L140.699 212.061H140.758L140.874 212.012L141.02 211.954L141.136 211.896H141.185L141.301 211.837L141.437 211.76L141.573 211.682L141.689 211.614L141.806 211.536H141.864C141.796 211.205 141.709 210.885 141.622 210.564C141.059 211.277 139.942 211.724 138.273 211.905C136.524 210.59 134.659 209.438 132.701 208.464C132.42 208.619 132.128 208.765 131.837 208.911L132.187 209.105L132.478 208.872ZM183.506 194.035L183.448 193.947L182.914 193.296L182.535 192.849C179.924 189.805 179.982 184.818 180.837 178.021C180.837 177.914 180.837 177.808 180.837 177.701V177.399C180.837 177.224 180.837 177.049 180.837 176.864C180.497 176.641 180.167 176.398 179.866 176.155C179.652 176.44 179.429 176.712 179.196 176.971C179.196 177.458 179.128 177.944 179.07 178.43C178.313 184.769 178.866 189.358 180.73 192.411C181.623 193.004 182.535 193.568 183.457 194.122L183.506 194.035ZM177.197 166.442C178.14 168.471 178.772 170.631 179.07 172.849C179.196 172.693 179.303 172.528 179.419 172.363C179.493 170.222 178.907 168.11 177.74 166.315L177.197 166.442ZM171.839 199.635C168.04 199.687 164.351 199.849 160.773 200.121C160.957 200.452 161.151 200.773 161.355 201.094L162.578 201.026H163.17H163.306H163.869H163.918L165.189 200.977H165.238H166.5H166.607H167.228L169.266 200.919H169.315L172.091 200.87H173.227C172.701 200.573 172.212 200.214 171.771 199.801L171.839 199.635ZM157.133 200.452C153.037 200.867 149.092 201.447 145.3 202.192L146.155 202.727H146.388H146.455L146.912 202.649H147.028L148.057 202.484L148.562 202.406H148.669L149.639 202.27H149.746L150.833 202.124L151.988 201.988C153.124 201.852 154.289 201.735 155.473 201.628H155.687L156.152 201.58L156.754 201.531L157.812 201.444L157.026 200.578L157.133 200.452Z" fill="#712413"/>
<path fill-rule="evenodd" clip-rule="evenodd" d="M60.8228 164.011C65.1576 165.243 69.7833 164.948 73.9269 163.175L73.7813 162.562C72.5 157.205 71.1799 147.978 78.7802 146.918L79.1006 146.87C79.2268 146.947 73.1601 138.314 63.0748 139.004C59.2989 147.366 58.5029 156.213 60.8228 164.011Z" fill="#7E2818"/>
<path fill-rule="evenodd" clip-rule="evenodd" d="M211.889 253.023C201.619 251.341 196.562 246.217 196.736 237.613C196.201 242.17 195.014 246.626 193.213 250.845C196.309 253.811 201.279 255.104 208.113 255.357C220.731 255.833 229.108 259.246 233.224 264.914C234.379 266.441 236 265.284 235.486 264.253C232.797 258.876 224.808 255.143 211.898 253.023H211.889Z" fill="#FFCC05"/>
<path fill-rule="evenodd" clip-rule="evenodd" d="M147.436 143.982C145.404 142.951 143.457 141.761 141.612 140.423C141.321 140.589 141.039 140.734 140.748 140.88C139.053 147.429 136.266 153.645 132.507 159.266C136.634 156.434 141.085 154.11 145.766 152.344C146.108 149.534 146.667 146.754 147.436 144.031V143.982Z" fill="#8C2B1C"/>
<path fill-rule="evenodd" clip-rule="evenodd" d="M143.796 141.93C143.048 141.454 142.301 140.958 141.583 140.423L141.185 140.628H141.127H141.068L140.884 140.725L140.816 140.978V141.046L140.758 141.24V141.308C140.69 141.571 140.622 141.833 140.544 142.086L140.496 142.29V142.387V142.553V142.65C140.447 142.805 140.408 142.961 140.36 143.117L140.282 143.36V143.467L140.224 143.671V143.749V143.875L140.175 144.021L140.069 144.361L139.981 144.624L139.826 145.09C139.7 145.46 139.564 145.82 139.428 146.189L139.341 146.422V146.471L139.292 146.607L139.205 146.84L139.127 147.025L139.03 147.268V147.327L138.855 147.764L138.661 148.25L138.593 148.406L138.545 148.522L138.486 148.649V148.775L138.428 148.911L137.885 149.427L137.807 149.611L137.739 149.748V149.825L137.661 149.991L137.574 150.185L137.487 150.389L137.438 150.496V150.545L137.292 150.875L137.234 151.002L137.157 151.167V151.245L136.914 151.371L136.827 151.546V151.624L136.72 151.848V151.935L136.603 152.159L136.555 152.266L136.477 152.431L136.429 152.509L136.312 152.742V152.791C136.215 152.975 136.118 153.16 136.031 153.345V153.403L135.933 153.598L135.846 153.753L135.788 153.87L135.739 153.957C135.545 154.327 135.341 154.696 135.138 155.056L135.079 155.163L134.953 155.396L134.788 155.688C137.693 151.605 140.156 147.225 142.136 142.621C142.712 142.458 143.269 142.233 143.796 141.95V141.93Z" fill="#712413"/>
<path fill-rule="evenodd" clip-rule="evenodd" d="M113.55 170.691L120.131 170.554C121.868 169.252 123.819 168.264 125.897 167.638L126.246 167.035L126.324 166.908L126.372 166.821L126.469 166.656L126.625 166.412L126.693 166.296L126.78 166.15L126.829 166.072L126.877 166.004V165.936L126.964 165.8L127.46 165.003L127.605 164.779L127.673 164.672L127.809 164.468L128.081 164.04L128.333 163.651L128.391 163.554C125.343 162.018 120.762 164.662 113.831 170.535L113.385 170.904L113.55 170.691ZM79.4016 159.577C77.6366 158.151 75.7344 156.903 73.7231 155.854C73.824 158.052 74.1493 160.235 74.6938 162.368C75.9169 162.553 77.237 161.658 78.6251 162.076C80.0131 162.494 81.2167 164.555 82.6242 168.153C82.7601 167.317 82.8766 166.471 82.9736 165.635C82.1301 163.432 80.9262 161.384 79.4113 159.577H79.4016ZM87.1669 156.816C88.6138 160.927 89.0305 165.331 88.3803 169.64L92.4571 176.865C93.8367 176.624 95.2314 176.481 96.631 176.437C94.026 171.896 91.755 167.171 89.8363 162.3C89.061 160.415 88.1628 158.583 87.1475 156.816H87.1669ZM97.194 193.607C105.26 191.089 111.638 188.94 116.306 187.073C115.579 186.28 114.786 185.548 113.938 184.886C109.758 185.45 105.551 185.887 101.319 186.198C99.6872 188.519 98.2983 191.001 97.1746 193.607H97.194ZM119.18 172.635C116.668 172.715 114.154 172.575 111.667 172.217C107.782 175.333 103.406 177.778 98.7179 179.451L103.309 182.62C107.167 182.807 111.025 182.239 114.666 180.948C116.633 178.455 118.159 175.643 119.18 172.635Z" fill="#8C2B1C"/>
<path fill-rule="evenodd" clip-rule="evenodd" d="M153.668 268.385C150.618 266.201 147.847 263.651 145.417 260.792C137.768 251.555 144.077 235.016 163.598 211.769C135.011 234.132 144.932 267.568 127.256 249.455C118.889 240.87 117.365 228.327 116.627 217.224C115.333 216.576 114.074 215.853 112.851 215.056C112.026 236.446 119.005 255.24 134.478 262.094C140.777 264.875 147.155 267.374 153.668 268.385ZM113.181 210.155C114.223 209.045 115.356 208.024 116.569 207.102C117.449 191.481 122.752 175.536 132.478 159.266C131.954 160.073 131.41 160.89 130.838 161.707C120.92 176.082 114.841 192.761 113.181 210.155Z" fill="#E7B021"/>
<path fill-rule="evenodd" clip-rule="evenodd" d="M153.668 268.385C150.618 266.201 147.847 263.651 145.417 260.792C138.962 253.014 142.447 239.985 155.444 222.134C140.476 241.142 137.001 254.219 147.572 264.613C138.651 262.785 130.226 258.526 125.072 252.586C118.541 241.379 114.774 228.772 114.084 215.814C113.666 215.571 113.259 215.318 112.851 215.056C112.026 236.446 119.005 255.24 134.478 262.095C140.777 264.875 147.154 267.374 153.668 268.385ZM113.987 209.329C114.085 205.566 114.442 201.813 115.054 198.099C114.185 202.076 113.559 206.102 113.181 210.155C113.443 209.873 113.715 209.601 113.987 209.329Z" fill="#D59929"/>
<path fill-rule="evenodd" clip-rule="evenodd" d="M182.836 274.015C186.146 276.066 187.554 278.371 186.185 280.403L185.428 281.54L187.165 280.412C187.444 279.729 187.515 278.978 187.369 278.254C187 276.844 185.331 275.512 182.836 274.015ZM169.771 294.617C172.087 290.536 174.014 286.246 175.527 281.803L174.032 282.25C172.946 286.238 171.354 290.071 169.295 293.655C169.441 293.985 169.596 294.306 169.771 294.627V294.617ZM178.002 294.86C175.193 300.961 173.274 307.435 172.304 314.082C170.082 310.125 166.568 306.469 161.365 305.701C161.909 305.157 162.452 304.593 162.986 304C162.501 304.078 162.015 304.136 161.53 304.194C160.812 304.985 160.064 305.763 159.288 306.528C162.213 307.278 164.945 308.645 167.301 310.538C169.656 312.431 171.58 314.806 172.945 317.505C174.294 309.056 175.857 301.657 178.507 295.765C178.332 295.463 178.167 295.162 178.002 294.86ZM161.501 272.44C162.672 272.438 163.841 272.373 165.005 272.245C157.531 267.948 152.037 262.979 148.843 257.136C143.621 247.627 148.843 232.323 163.597 211.769L162.743 212.926L161.909 214.074L161.093 215.201L160.297 216.32L159.521 217.418L158.764 218.507L158.016 219.586L157.298 220.646L156.589 221.696L155.91 222.737L154.59 224.759L153.968 225.731L153.357 226.704L152.765 227.676L152.192 228.648L151.629 229.62L151.095 230.593L150.581 231.507L149.61 233.305L149.144 234.18L148.707 235.046L148.28 235.901C147.999 236.465 147.737 237.019 147.484 237.564L147.116 238.381L146.766 239.178L146.436 239.965L146.125 240.743C145.922 241.259 145.737 241.764 145.562 242.26L145.3 242.999L145.067 243.728L144.844 244.438L144.65 245.148L144.466 245.838L144.301 246.509L144.165 247.18L144.038 247.831L143.932 248.473C143.809 249.288 143.731 250.109 143.699 250.933V251.516C143.699 251.711 143.699 251.895 143.699 252.08C143.713 252.633 143.759 253.185 143.835 253.733L143.922 254.258C143.98 254.608 144.058 254.948 144.145 255.279C144.233 255.609 144.33 255.93 144.446 256.251L144.621 256.718L144.825 257.175C144.958 257.477 145.107 257.773 145.271 258.06L145.524 258.487L145.805 258.896L146.096 259.304L146.407 259.693L146.737 260.082L147.339 260.733L147.446 260.85L147.669 261.093L147.746 261.171L148.038 261.482L148.339 261.803L148.406 261.871L149.047 262.522L149.377 262.853L149.688 263.164L149.756 263.232L150.396 263.845L150.455 263.903L150.775 264.204L151.134 264.535L151.474 264.846H151.522L151.852 265.147L152.192 265.439L152.891 266.052L152.969 266.12L153.668 266.713L153.755 266.781L155.318 268.055L156.026 268.609C157.715 269.902 159.492 271.156 161.365 272.342L161.501 272.44Z" fill="#E7B021"/>
<path fill-rule="evenodd" clip-rule="evenodd" d="M132.827 279.926C135.118 275.59 134.846 271.487 132.245 267.763L131.575 267.18C130.973 267.267 130.362 267.345 129.75 267.413L129.809 267.481L129.896 267.598L129.945 267.656L130.051 267.792L130.177 267.967V268.016L130.275 268.152V268.2L130.372 268.337L130.614 268.696V268.764L130.682 268.871V268.939L130.77 269.075L130.847 269.192L130.925 269.338L130.973 269.426V269.513L131.032 269.61V269.669C131.129 269.857 131.216 270.041 131.294 270.223V270.281L131.342 270.398V270.466C131.391 270.583 131.43 270.709 131.478 270.826V270.874L131.527 271.02L131.585 271.185L131.643 271.37V271.419L131.692 271.574V271.74V271.905V272.099V272.265V272.323V272.488V272.683V274.141V274.336V274.472V274.549V274.695V274.744L131.634 275.123V275.191V275.337C131.634 275.473 131.575 275.619 131.536 275.755L131.488 275.95V276.008V276.144V276.202V276.348V276.406L131.43 276.591V276.659V276.805L131.371 276.98L131.294 277.194L131.109 277.505V277.573V277.632L130.964 277.884L130.886 278.001L130.789 278.176L130.673 278.361L130.546 278.584L130.343 278.925L130.139 279.255V279.304C130.032 279.489 129.915 279.664 129.809 279.839C130.727 279.539 131.687 279.388 132.653 279.391L132.827 279.926ZM141.884 268.375C142.466 268.473 143.058 268.57 143.66 268.648C144.35 269.53 144.9 270.514 145.291 271.565C146.103 271.708 146.907 271.896 147.698 272.128V272.07C147.665 272.023 147.629 271.977 147.591 271.934V271.876V271.817V271.759V271.701L147.475 271.506C146.32 269.892 145.262 268.414 144.33 267.034L144.155 266.975H144.078L143.912 266.927L143.738 266.859H143.65L143.233 266.713H143.107L142.903 266.635H142.825L142.622 266.557H142.505H142.408L142.214 266.48L141.767 266.1H141.699H141.631L140.874 265.818H140.797H140.7L140.457 265.721L140.117 265.595L139.942 265.527L139.748 265.449L139.292 265.264C140.287 266.225 141.155 267.31 141.874 268.492L141.884 268.375ZM134.429 287.49C134.516 287.354 134.613 287.228 134.711 287.102L134.769 287.024L135.06 286.635L135.361 286.236L135.419 286.168L135.681 285.828L135.749 285.74L136.05 285.361L136.351 284.992L136.429 284.895L136.71 284.554L136.768 284.486L137.04 284.156L137.147 284.039L137.195 283.981C136.453 284.108 135.717 284.273 134.992 284.476C132.188 287.868 129.656 291.477 127.421 295.269C127.613 296.857 127.577 298.465 127.314 300.043L127.469 299.693V299.586C127.537 299.44 127.605 299.294 127.663 299.138L128.129 298.166L128.343 297.709L128.576 297.233L128.789 296.805L128.838 296.698L129.061 296.26V296.212L129.284 295.784L129.343 295.667L129.566 295.24C129.653 295.084 129.741 294.928 129.818 294.773V294.715L130.022 294.335L130.1 294.19L130.595 293.305L130.847 292.877V292.819L131.09 292.4L131.138 292.323L131.391 291.905L131.643 291.506L131.701 291.399L131.944 291.02L132.002 290.932L132.264 290.524L132.565 290.067C132.672 289.911 132.769 289.756 132.876 289.61C132.769 289.756 132.672 289.911 132.565 290.067L134.167 287.782L134.429 287.49ZM116.171 243.125C115.772 245.407 115.241 247.663 114.579 249.883C116.045 252.603 118.113 254.951 120.626 256.747C121.844 256.447 123.079 256.22 124.324 256.066L124.014 255.726L123.955 255.668L123.645 255.337L123.334 254.987C123.014 254.618 122.694 254.238 122.364 253.85L121.752 253.072V253.013L121.49 252.663V252.615L121.238 252.265L121.189 252.197L120.927 251.818L120.655 251.419C120.471 251.147 120.296 250.865 120.112 250.583V250.524L119.869 250.135L119.597 249.708C119.51 249.572 119.432 249.435 119.355 249.299V249.241L119.122 248.823C119.034 248.687 118.957 248.541 118.879 248.405V248.346L118.665 247.958V247.899C118.588 247.753 118.51 247.608 118.442 247.462C118.296 247.17 118.141 246.878 117.996 246.577V246.499L117.801 246.091C117.724 245.945 117.656 245.799 117.588 245.653C117.52 245.517 117.462 245.371 117.394 245.235V245.177C117.18 244.71 116.976 244.205 116.782 243.767L116.617 243.368L116.171 243.125ZM112.647 245.225C111.151 241.531 110.613 237.517 111.084 233.558C110.997 233.762 110.919 233.966 110.842 234.161L110.793 234.307L110.725 234.472L110.667 234.637L110.609 234.773L110.541 234.958L110.492 235.114L110.444 235.24L110.347 235.522L110.24 235.843L110.153 236.115V236.203L110.085 236.417V236.543L110.026 236.718V236.825C109.968 237.029 109.91 237.224 109.861 237.428V237.486L109.793 237.749L109.735 237.972V238.118V238.245V238.39V238.595V238.672L109.619 239.226V239.382V239.508V239.645V239.82V239.907V240.092V240.199C109.619 240.383 109.56 240.559 109.541 240.743V240.811V241.025V241.093V241.297V241.385V241.56V241.92V242.435V244.71V244.914V245.138V245.216V245.371V245.449V245.624V245.692V245.867V245.926C109.541 246.081 109.599 246.237 109.628 246.382V246.48V246.606V246.694V246.849V246.908V247.083V247.141V247.296V247.364L109.696 247.578L109.764 247.773V247.831L109.823 247.996V248.055L109.881 248.201V248.288L109.929 248.395V248.492L110.017 248.697L110.483 249.26L110.638 249.435C111.067 247.88 111.753 246.408 112.667 245.08L112.647 245.225ZM133.167 289.328L133.449 288.92L133.497 288.852L133.769 288.463V288.385L134.031 288.015L134.099 287.928L134.371 287.549L133.08 289.377L133.167 289.328Z" fill="#712413"/>
<path fill-rule="evenodd" clip-rule="evenodd" d="M173.178 194.998C172.257 193.642 171.026 192.526 169.588 191.743C168.149 190.96 166.545 190.532 164.908 190.496C163.685 185.771 161.685 185.071 158.569 181.016C152.532 173.15 159.744 157.254 165.859 155.805C164.1 156.044 162.461 156.829 161.171 158.051C153.697 169.534 153.037 178.935 159.831 185.644C161.699 187.313 163.199 189.353 164.238 191.633C165.877 191.569 167.512 191.833 169.047 192.411C170.583 192.989 171.987 193.868 173.178 194.998Z" fill="#D59929"/>
<path fill-rule="evenodd" clip-rule="evenodd" d="M166.762 184.798C166.662 186.567 166.94 188.337 167.577 189.99C169.072 190.531 170.526 191.181 171.926 191.935C170.579 189.294 168.837 186.874 166.762 184.759V184.798Z" fill="#712413"/>
<path fill-rule="evenodd" clip-rule="evenodd" d="M120.131 170.554C121.868 169.251 123.819 168.264 125.897 167.637L126.246 167.044L126.324 166.918L126.372 166.83L126.469 166.665L126.625 166.422L126.693 166.305L126.78 166.16L126.829 166.082L126.877 166.014V165.946L126.964 165.809C127.129 165.547 127.285 165.284 127.45 165.032L127.595 164.808L127.663 164.701L127.799 164.497L128.071 164.069L128.323 163.68L128.382 163.583C125.334 162.047 120.752 164.691 113.822 170.564L113.666 170.69L113.608 170.749L120.17 170.632L120.131 170.554ZM95.272 174.122C94.9905 173.588 94.6993 173.043 94.4178 172.47L94.3693 172.382L94.2043 172.052L94.0101 171.663L93.8936 171.42L93.6995 171.021L93.4763 170.574L93.2918 170.175L93.2045 170V169.951L93.1074 169.738L92.8647 169.232V169.174L92.7774 168.989V168.94L92.6027 168.571V168.474L92.5347 168.337V168.25L92.1562 167.404L91.9426 166.928C91.7679 166.519 91.5835 166.111 91.4087 165.693L91.3214 165.508L91.1661 165.139L91.0496 164.876L90.7972 164.273L90.7487 164.157L90.7002 164.059L90.4672 163.495L90.3798 163.291L90.1469 162.747L90.0886 162.611L89.9624 162.3L89.8265 161.969L89.7003 161.697V161.619L89.448 161.036V160.968L89.3412 160.715L89.283 160.608L89.1762 160.355L89.0791 160.131L88.9918 159.947L88.9044 159.781L88.8559 159.665L88.7394 159.431L88.3802 159.149L88.3123 159.023L88.2055 158.809V158.76L88.0696 158.508L88.0114 158.391L87.9434 158.265L87.8755 158.138L87.759 157.924L87.6134 157.662C87.5163 157.477 87.4096 157.292 87.3028 157.108L87.1766 156.884C88.6087 160.975 89.0219 165.353 88.3802 169.64L92.4571 176.864C93.8366 176.624 95.2314 176.481 96.6309 176.437L96.5533 176.31L96.33 175.931L96.1456 175.678V175.61L95.9029 175.192L95.8156 175.046L95.7573 174.939L95.6991 174.832L95.6214 174.696L95.5244 174.511L95.4079 174.297V174.239L95.34 174.122H95.272ZM73.7231 155.853V156.106C73.7231 156.31 73.7231 156.524 73.7231 156.738C73.7231 156.835 73.7231 156.952 73.7231 157.059C73.7231 157.273 73.7231 157.496 73.7813 157.72V158.051C73.7813 158.265 73.8299 158.488 73.8687 158.712V158.799L73.9172 159.091V159.149L73.9658 159.49L74.024 159.859L74.0822 160.209V160.297L74.1502 160.627C74.1987 160.89 74.257 161.162 74.3152 161.425L74.4026 161.804V161.862L74.4997 162.251C75.7227 162.436 77.0428 161.541 78.4309 161.959L78.5473 162.008L78.6638 162.056L78.7706 162.115L78.8774 162.183L78.9842 162.261L79.0909 162.348L79.1977 162.445C79.2308 162.483 79.2665 162.519 79.3045 162.552C79.3448 162.583 79.3807 162.619 79.4112 162.659L79.6636 162.941C79.7109 162.989 79.7532 163.041 79.7898 163.097L79.9063 163.252L80.0228 163.418L80.1393 163.583L80.2557 163.768L80.3722 163.962L80.4887 164.166C80.6246 164.39 80.7605 164.633 80.8867 164.896L81.0031 165.129V165.178L81.1099 165.391V165.469L81.2264 165.703L81.3429 165.955V166.014C81.4302 166.189 81.5079 166.373 81.5855 166.568V166.646L81.6923 166.898V166.957C81.7797 167.151 81.8573 167.355 81.9447 167.569V167.647L82.0029 167.783C82.1388 166.947 82.2553 166.101 82.3524 165.265C81.5088 163.062 80.3049 161.015 78.79 159.208C77.025 157.781 75.1228 156.534 73.1116 155.484L73.7231 155.853ZM97.1648 193.607L97.3201 193.558H97.4269L98.4946 193.218L99.077 193.033L100.766 192.499L102.125 192.071L102.368 191.983L102.669 191.896L103.639 191.585L105.775 190.885L106.202 190.739L106.745 190.554H106.852L108.318 190.058L108.832 189.883C110.114 189.446 111.308 189.018 112.443 188.609H112.521L112.705 188.541H112.793L112.948 188.483H113.016L114.122 188.075L114.268 188.016L114.889 187.783L115.025 187.725H115.103L115.287 187.657H115.365H115.433L115.841 187.501L116.044 187.414L116.297 187.316C115.569 186.523 114.777 185.791 113.928 185.129L113.278 185.216C113.278 185.401 113.278 185.586 113.278 185.77C107.143 188.59 102.261 190.275 98.6305 190.826C98.0967 191.799 97.6599 192.819 97.1745 193.85L97.1648 193.607ZM104.755 176.757L104.183 177.068L103.979 177.185H103.921L103.746 177.273H103.697L103.542 177.35L103.435 177.409L103.319 177.467H103.231L103.115 177.535L102.999 177.594L102.882 177.642H102.814L102.61 177.739L102.484 177.798H102.397L102.241 177.866L102.115 177.924H102.028L101.921 177.973L101.785 178.031H101.717L100.873 178.401L100.717 178.459L100.582 178.517L100.417 178.576H100.319L100.213 178.624L99.7371 178.799H99.6303H99.5721L99.4265 178.857L99.2518 178.926L98.8538 179.062L102.445 181.541C107.233 179.983 111.744 177.676 115.811 174.706C114.691 176.781 113.923 179.028 113.54 181.356C113.909 181.249 114.268 181.123 114.637 180.997C116.603 178.503 118.13 175.692 119.151 172.684C116.639 172.763 114.125 172.623 111.638 172.265L111.142 172.645L111.045 172.713C110.647 173.014 110.24 173.316 109.851 173.588L109.725 173.675L109.619 173.753L109.502 173.841L109.327 173.957L108.832 174.297L108.648 174.424L108.522 174.502L108.124 174.764L108.017 174.842L107.862 174.939L107.765 175.007L107.687 175.056L107.532 175.153L107.367 175.25L106.969 175.503L106.804 175.61L106.648 175.698L106.464 175.805L106.376 175.863L106.241 175.941L106.153 175.999L106.008 176.077L105.92 176.135L105.716 176.252L105.503 176.378L105.386 176.446L105.289 176.495L105.144 176.573L105.066 176.621L104.93 176.699H104.862L104.755 176.757Z" fill="#7E2818"/>
<path fill-rule="evenodd" clip-rule="evenodd" d="M72.4807 151.264C72.6643 150.163 73.0906 149.117 73.7287 148.202C74.3668 147.287 75.2005 146.527 76.1693 145.975C74.8359 144.354 73.1499 143.06 71.2403 142.192C69.3307 141.324 67.2482 140.905 65.1521 140.968C63.7505 143.157 62.9225 145.665 62.7449 148.26C66.128 148.699 69.411 149.715 72.4516 151.264H72.4807Z" fill="#975035"/>
<path fill-rule="evenodd" clip-rule="evenodd" d="M120.296 206.315C121.995 206.393 123.678 206.683 125.305 207.18C122.824 209.766 120.585 212.575 118.617 215.571C116.509 215.228 114.565 214.224 113.064 212.703C115.381 210.466 117.792 208.337 120.296 206.315Z" fill="#8B3C1F"/>
<path fill-rule="evenodd" clip-rule="evenodd" d="M116.782 219.431C121.808 221.209 126.983 222.533 132.245 223.388C135.262 220.996 137.552 217.807 138.855 214.181C144.99 213.889 146.75 211.131 144.136 205.907C157.46 202.616 171.248 201.629 184.904 202.99C184.525 202.494 184.147 202.017 183.758 201.531C169.908 200.69 156.006 201.509 142.35 203.972C141.486 204.127 141.379 204.613 141.99 205.391C145.427 209.601 144.116 212.197 138.03 213.169C136.779 216.491 134.648 219.409 131.866 221.609L131.527 221.706C126.338 221.116 121.297 219.594 116.646 217.214C116.646 217.934 116.743 218.663 116.802 219.402L116.782 219.431Z" fill="#E7B021"/>
<path fill-rule="evenodd" clip-rule="evenodd" d="M196.232 251.788C197.248 250.459 198.06 248.984 198.639 247.413C201.227 250.466 206.061 252.411 213.141 253.247L211.889 253.033C201.619 251.351 196.562 246.227 196.736 237.622C196.2 242.176 195.013 246.629 193.213 250.845C196.309 253.811 201.279 255.104 208.113 255.357H208.831C203.337 254.877 199.131 253.678 196.212 251.759L196.232 251.788Z" fill="#E7B021"/>
<path fill-rule="evenodd" clip-rule="evenodd" d="M95.3594 85.7519C93.9752 85.3977 92.5147 85.4896 91.1855 86.0145C88.7977 86.9867 88.0114 89.7674 87.9629 92.1398C88.0594 95.7513 89.0823 99.2771 90.9331 102.378C91.202 104.651 91.8208 106.868 92.7677 108.951C97.4657 119.208 105.687 126.393 115.879 130.963C119.383 136.427 124.751 141.726 131.497 142.407C132.992 142.701 134.528 142.724 136.031 142.475C139.292 141.94 142.272 140.151 144.97 138.323C148.436 135.98 151.717 133.462 155.24 131.157C157.47 129.739 159.81 128.504 162.239 127.463C164.063 126.675 165.956 125.975 167.762 125.129C170.031 124.486 172.045 123.154 173.528 121.318C173.79 121.036 174.052 120.754 174.333 120.492C175.727 119.29 177.213 118.201 178.779 117.234C180.531 116.116 182.158 114.812 183.632 113.345C188.039 108.766 189.068 102.572 189.068 96.4373C189.21 88.9059 188.684 81.3768 187.495 73.9387C191.372 73.4017 195.047 71.8824 198.173 69.5246C207.676 62.145 208.045 48.6011 206.239 37.7505C206.194 37.4423 206.07 37.151 205.88 36.9046C204.744 35.3878 201.735 36.1267 200.24 36.574C197.408 37.4894 194.712 38.7811 192.223 40.4145C189.582 42.1257 186.564 44.5661 185.011 47.3469C183.452 50.1593 181.489 52.7275 179.187 54.9695C176.397 51.9969 172.954 49.7166 169.13 48.3094C169.599 46.4651 170.431 44.733 171.576 43.2147C171.952 43.3181 172.335 43.3929 172.722 43.4383C175.304 43.73 178.148 42.6605 179.264 40.1617C179.59 39.4057 179.728 38.5821 179.668 37.7609C179.607 36.9398 179.348 36.1456 178.915 35.4461C177.58 33.43 175.683 31.8511 173.46 30.9056C165.393 27.0165 158.21 35.5239 165.956 40.2589C166.21 42.5587 165.859 44.8849 164.937 47.0066C162.111 46.3348 159.229 45.9247 156.327 45.7815C153.691 45.6177 151.047 45.6535 148.416 45.8884C147.56 43.8243 147.243 41.5757 147.494 39.3547C155.26 34.61 148.047 26.0928 139.981 29.9917C137.762 30.9431 135.866 32.5207 134.526 34.5322C134.092 35.2335 133.834 36.0293 133.773 36.8519C133.712 37.6746 133.851 38.4999 134.177 39.2575C135.293 41.7465 138.137 42.8257 140.719 42.5243C141.106 42.4822 141.488 42.4107 141.864 42.3104C142.823 43.5788 143.565 44.9983 144.058 46.5107C139.529 47.3388 135.238 49.1545 131.488 51.8291C130.532 50.6008 129.672 49.3006 128.916 47.9399C127.518 45.4412 124.8 43.2438 122.422 41.7076C120.191 40.2369 117.771 39.0758 115.229 38.256C113.851 37.8477 111.143 37.1865 110.094 38.5769C109.923 38.8094 109.81 39.0794 109.764 39.3644C107.92 50.4484 108.793 64.1673 120.092 69.8357L120.257 69.9232C119.743 72.2262 119.418 74.5675 119.286 76.9236C115.289 76.7979 111.291 77.1471 107.376 77.964C102.533 78.9868 98.2328 81.7546 95.2914 85.7422L95.3594 85.7519Z" fill="#8D4F21"/>
<path fill-rule="evenodd" clip-rule="evenodd" d="M120.461 69.1843C112.152 65.0229 107.92 55.1543 110.521 39.5006C111.094 36.0393 124.78 42.0285 128.304 48.3094C129.079 49.6938 129.958 51.0167 130.934 52.2666C129.769 53.1753 128.675 54.1732 127.663 55.2515C124.092 59.188 121.609 63.9909 120.461 69.1843Z" fill="#FFCC05"/>
<path fill-rule="evenodd" clip-rule="evenodd" d="M114.404 44.6245C113.802 53.5403 117.442 60.0935 122.169 63.9048C123.34 61.0473 124.959 58.3952 126.965 56.0488C123.486 51.5294 119.237 47.6617 114.414 44.6245H114.404Z" fill="#EF5A7B"/>
<path fill-rule="evenodd" clip-rule="evenodd" d="M120.83 67.7551C113.064 62.6312 110.152 52.6751 112.006 41.9314C112.006 40.8521 112.259 40.0938 112.773 39.9868C115.423 39.5687 118.597 40.5021 122.257 42.437C117.122 39.0631 110.9 37.1672 110.521 39.4715C107.92 55.1252 112.152 64.9939 120.451 69.1552C120.568 68.6788 120.694 68.183 120.83 67.726V67.7551Z" fill="#E7A622"/>
<path fill-rule="evenodd" clip-rule="evenodd" d="M122.422 61.1435C118.082 56.6148 115.276 50.8314 114.404 44.6147C113.802 53.5306 117.442 60.0837 122.169 63.8951C122.461 63.195 122.781 62.495 123.14 61.8144C124.194 59.7374 125.498 57.7978 127.023 56.039C125.142 57.3664 123.591 59.1097 122.49 61.1338L122.422 61.1435Z" fill="#E05070"/>
<path fill-rule="evenodd" clip-rule="evenodd" d="M172.965 120.842C178.167 115.008 188.33 114.891 188.33 96.4763C188.465 88.9415 187.935 81.4096 186.748 73.968C184.409 74.064 182.066 73.9108 179.759 73.511H179.662C181.331 73.6568 183.009 73.6763 184.681 73.5694C185.341 73.5207 185.991 73.4624 186.622 73.3846C185.273 66.355 182.943 60.5116 179.099 56.078C178.41 56.71 177.692 57.3128 176.954 57.8865C177.575 57.167 178.158 56.4183 178.721 55.6502C173.867 50.3416 166.762 47.1622 156.308 46.5302C133.701 45.1788 121.16 57.3906 120.083 76.9918C131.672 77.614 141.806 82.5824 152.018 90.3704C153.415 91.4399 154.794 92.5385 156.153 93.6469C162.316 98.7125 175.052 109.952 173.188 119.033C173.012 119.895 172.705 120.725 172.275 121.493C172.217 121.607 172.152 121.717 172.081 121.824C172.395 121.52 172.687 121.196 172.955 120.851L172.965 120.842Z" fill="#FFCC05"/>
<path fill-rule="evenodd" clip-rule="evenodd" d="M172.965 120.842C178.167 115.008 188.33 114.891 188.33 96.4762C188.464 88.9415 187.935 81.4096 186.748 73.968C184.409 74.0639 182.066 73.9107 179.759 73.511H179.662C182.992 87.4438 184.253 97.9541 182.128 104.624C181.586 106.194 180.705 107.626 179.547 108.816C178.389 110.006 176.983 110.925 175.43 111.508C171.547 106.141 165.976 100.897 158.715 95.7762C165.248 101.445 174.838 111.06 173.198 119.014C173.022 119.876 172.714 120.706 172.285 121.474C172.226 121.587 172.161 121.697 172.091 121.804C172.405 121.501 172.697 121.176 172.965 120.832V120.842Z" fill="#E7B021"/>
<path fill-rule="evenodd" clip-rule="evenodd" d="M172.965 120.842C178.167 115.008 188.33 114.891 188.33 96.4763C188.469 88.9414 187.94 81.409 186.748 73.968C184.412 74.0642 182.073 73.9111 179.769 73.511C181.657 74.0989 183.617 74.426 185.593 74.4833C188.126 92.3441 187.622 103.36 184.545 107.871C182.283 111.187 180.177 113.423 177.905 114.58C176.257 115.41 174.862 116.67 173.867 118.226C175.213 113.229 171.479 106.961 162.666 99.4223C168.49 105.062 174.489 112.577 173.168 119.014C172.993 119.876 172.685 120.706 172.256 121.474C172.197 121.587 172.132 121.697 172.062 121.804C172.375 121.501 172.667 121.176 172.935 120.832L172.965 120.842ZM186.632 73.3555C185.952 73.4333 185.282 73.5013 184.603 73.5402H184.681C185.341 73.4916 185.991 73.4333 186.622 73.3555H186.632ZM180.866 73.6082H180.439H180.866Z" fill="#D59929"/>
<path fill-rule="evenodd" clip-rule="evenodd" d="M131.148 64.1674L130.605 64.5271C130.346 63.2829 130.559 61.987 131.201 60.891C131.843 59.795 132.869 58.9771 134.08 58.5962C133.036 59.0576 132.18 59.8599 131.651 60.8719C131.122 61.8839 130.952 63.0457 131.168 64.1674H131.148Z" fill="#AE6027"/>
<path fill-rule="evenodd" clip-rule="evenodd" d="M134.468 63.2242L133.837 63.3701C134.032 62.115 134.685 60.9769 135.669 60.176C136.654 59.375 137.899 58.9681 139.166 59.0337C138.025 59.0964 136.939 59.545 136.085 60.3062C135.232 61.0674 134.662 62.0962 134.468 63.2242Z" fill="#AE6027"/>
<path fill-rule="evenodd" clip-rule="evenodd" d="M127.945 66.5592L127.508 67.0453C126.941 65.909 126.816 64.6024 127.157 63.379C127.498 62.1555 128.28 61.1025 129.352 60.4241C128.454 61.1323 127.824 62.127 127.568 63.243C127.312 64.359 127.445 65.5292 127.945 66.5592Z" fill="#AE6027"/>
<path fill-rule="evenodd" clip-rule="evenodd" d="M136.302 63.3797C131.556 62.2421 126.596 65.8395 125.285 71.4301C124.789 73.4589 124.842 75.5836 125.441 77.5847C129.987 78.4056 134.397 79.8552 138.545 81.8919C140.525 80.2802 141.912 78.0527 142.486 75.5623C143.815 69.9717 141.049 64.5172 136.302 63.3797Z" fill="white"/>
<path fill-rule="evenodd" clip-rule="evenodd" d="M136.914 67.2107C133.817 66.4717 130.614 68.8246 129.74 72.461C129.434 73.6029 129.423 74.804 129.706 75.9517C129.99 77.0995 130.559 78.1565 131.361 79.0239C132.73 79.4517 134.089 79.9962 135.429 80.492C136.783 80.2735 138.037 79.6433 139.021 78.6867C140.006 77.7301 140.673 76.4935 140.932 75.1445C141.806 71.5081 139.962 67.9593 136.914 67.2107Z" fill="#33C5F3"/>
<path fill-rule="evenodd" clip-rule="evenodd" d="M136.448 69.1356C134.254 68.6106 131.983 70.2732 131.371 72.8497C130.76 75.4263 132.022 77.9348 134.215 78.4598C136.409 78.9848 138.671 77.3222 139.292 74.7457C139.913 72.1692 138.632 69.6607 136.448 69.1356Z" fill="black"/>
<path fill-rule="evenodd" clip-rule="evenodd" d="M138.719 69.6995C138.33 69.538 137.901 69.4998 137.49 69.59C137.079 69.6803 136.705 69.8947 136.42 70.2044C136.134 70.514 135.95 70.904 135.892 71.3216C135.835 71.7393 135.907 72.1646 136.098 72.5402C136.289 72.9158 136.591 73.2236 136.962 73.4221C137.334 73.6205 137.757 73.7002 138.175 73.6502C138.593 73.6002 138.985 73.423 139.3 73.1425C139.614 72.862 139.835 72.4917 139.933 72.0816C140.086 71.6045 140.044 71.0861 139.817 70.6398C139.589 70.1934 139.195 69.8553 138.719 69.6995Z" fill="white"/>
<path fill-rule="evenodd" clip-rule="evenodd" d="M131.915 75.261C131.607 75.213 131.292 75.2879 131.038 75.4696C130.784 75.6513 130.611 75.9255 130.556 76.2333C130.536 76.445 130.577 76.658 130.674 76.847C130.771 77.036 130.921 77.193 131.105 77.2992C131.289 77.4055 131.499 77.4564 131.711 77.4461C131.923 77.4358 132.128 77.3646 132.301 77.241C132.474 77.1174 132.607 76.9466 132.686 76.749C132.764 76.5515 132.784 76.3354 132.744 76.1267C132.703 75.918 132.603 75.7254 132.456 75.5719C132.309 75.4184 132.121 75.3105 131.915 75.261Z" fill="white"/>
<path fill-rule="evenodd" clip-rule="evenodd" d="M162.811 72.8985L163.141 73.4819C163.953 72.4596 164.358 71.1722 164.277 69.8684C164.197 68.5646 163.636 67.3371 162.705 66.4231C163.456 67.3291 163.876 68.4646 163.895 69.642C163.914 70.8194 163.532 71.9682 162.811 72.8985Z" fill="#AE6027"/>
<path fill-rule="evenodd" clip-rule="evenodd" d="M160.21 70.4871L160.715 70.9149C161.119 69.6689 161.045 68.3164 160.506 67.1223C159.968 65.9282 159.004 64.9784 157.803 64.459C158.823 65.0448 159.613 65.961 160.043 67.0567C160.474 68.1524 160.519 69.3623 160.171 70.4871H160.21Z" fill="#AE6027"/>
<path fill-rule="evenodd" clip-rule="evenodd" d="M164.636 76.5834C164.694 76.7973 164.753 77.0112 164.801 77.2349C165.849 76.4573 166.572 75.3182 166.83 74.0378C167.088 72.7573 166.864 71.4265 166.199 70.3025C166.689 71.3716 166.801 72.576 166.517 73.7174C166.233 74.8589 165.57 75.8696 164.636 76.5834Z" fill="#AE6027"/>
<path fill-rule="evenodd" clip-rule="evenodd" d="M157.084 67.2689C151.396 65.9077 145.611 69.7094 144.165 75.7569C142.718 81.8045 146.106 87.8132 151.843 89.1744C157.579 90.5356 163.316 86.7437 164.762 80.6961C166.209 74.6485 162.772 68.6301 157.084 67.2689Z" fill="white"/>
<path fill-rule="evenodd" clip-rule="evenodd" d="M157.298 71.3622C155.892 70.9336 154.389 70.938 152.986 71.3747C151.582 71.8114 150.341 72.6603 149.425 73.8115C148.508 74.9626 147.958 76.3629 147.845 77.831C147.733 79.299 148.063 80.7671 148.793 82.045C149.523 83.323 150.619 84.3519 151.94 84.9983C153.261 85.6448 154.745 85.8792 156.2 85.6709C157.655 85.4627 159.014 84.8216 160.101 83.8306C161.188 82.8395 161.953 81.5443 162.297 80.1127C162.543 79.2094 162.608 78.2664 162.49 77.3377C162.372 76.4089 162.072 75.5126 161.608 74.7C161.143 73.8874 160.524 73.1743 159.784 72.6016C159.045 72.0289 158.2 71.6077 157.298 71.3622Z" fill="#33C5F3"/>
<path fill-rule="evenodd" clip-rule="evenodd" d="M156.793 73.4526C155.797 73.1473 154.733 73.149 153.738 73.4573C152.744 73.7656 151.864 74.3663 151.215 75.1815C150.565 75.9967 150.175 76.9887 150.096 78.0286C150.016 79.0686 150.25 80.1086 150.768 81.0135C151.286 81.9184 152.063 82.6464 153 83.1031C153.936 83.5598 154.987 83.7241 156.018 83.5745C157.048 83.425 158.01 82.9686 158.779 82.2646C159.547 81.5606 160.086 80.6415 160.326 79.6266C160.674 78.3386 160.497 76.965 159.835 75.8075C159.172 74.65 158.078 73.803 156.793 73.4526Z" fill="black"/>
<path fill-rule="evenodd" clip-rule="evenodd" d="M159.521 74.104C159.098 73.9759 158.647 73.9778 158.226 74.1095C157.804 74.2412 157.432 74.4966 157.158 74.8426C156.883 75.1887 156.718 75.6093 156.685 76.0502C156.652 76.4911 156.751 76.9318 156.971 77.3152C157.191 77.6986 157.521 78.0071 157.917 78.2007C158.314 78.3942 158.76 78.464 159.197 78.4008C159.634 78.3377 160.042 78.1445 160.368 77.8465C160.694 77.5484 160.923 77.1592 161.025 76.7292C161.099 76.4578 161.118 76.1747 161.082 75.8958C161.046 75.617 160.956 75.348 160.816 75.1042C160.677 74.8604 160.49 74.6465 160.268 74.4749C160.046 74.3033 159.792 74.1773 159.521 74.104Z" fill="white"/>
<path fill-rule="evenodd" clip-rule="evenodd" d="M151.561 79.9959C151.293 79.9177 151.007 79.9219 150.741 80.008C150.475 80.0942 150.241 80.2583 150.069 80.4792C149.897 80.7001 149.795 80.9676 149.776 81.2471C149.757 81.5266 149.823 81.8052 149.964 82.047C150.105 82.2889 150.316 82.4827 150.568 82.6035C150.82 82.7243 151.103 82.7665 151.379 82.7247C151.656 82.6828 151.914 82.5589 152.119 82.3688C152.325 82.1788 152.468 81.9313 152.532 81.6585C152.577 81.4855 152.588 81.3053 152.564 81.1281C152.54 80.9508 152.481 80.7801 152.391 80.6257C152.3 80.4713 152.181 80.3362 152.038 80.2281C151.896 80.1201 151.734 80.0412 151.561 79.9959Z" fill="white"/>
<path fill-rule="evenodd" clip-rule="evenodd" d="M153.872 56.9141C157.465 58.2736 160.689 60.4582 163.287 63.2922C159.979 60.7273 155.946 59.2744 151.765 59.1406C152.338 58.2853 153.05 57.5326 153.872 56.9141Z" fill="#8C2B1C"/>
<path fill-rule="evenodd" clip-rule="evenodd" d="M142.534 56.4571C139.775 56.2924 137.015 56.7786 134.478 57.8766C137.406 57.1658 140.484 57.4006 143.272 58.5475C143.145 57.8141 142.896 57.1074 142.534 56.4571Z" fill="#8C2B1C"/>
<path fill-rule="evenodd" clip-rule="evenodd" d="M186.835 74.4541C185.711 75.6753 184.82 77.0922 184.205 78.6349C183.181 82.0201 182.938 85.5941 183.496 89.0869C184.655 90.8715 186.357 92.2351 188.35 92.976C188.338 86.7892 187.844 80.6127 186.874 74.5027L186.835 74.4541ZM172.178 111.916C172.61 111.434 173.077 110.986 173.576 110.574C174.657 110.41 175.759 110.467 176.818 110.74C178.26 112.058 179.329 113.735 179.914 115.601C177.43 117.38 174.867 118.751 172.964 120.89C172.696 121.234 172.404 121.559 172.091 121.862C172.161 121.756 172.226 121.645 172.285 121.532C172.714 120.764 173.022 119.934 173.197 119.072C173.594 116.654 173.238 114.173 172.178 111.965V111.916ZM181.885 113.987C185.234 111.07 188.029 106.724 188.272 97.7499C185.657 98.0281 183.222 99.2149 181.39 101.104C180.119 103.769 179.754 106.778 180.351 109.67C180.705 111.16 181.219 112.608 181.885 113.987ZM172.702 100.813C172.382 103.185 173.139 105.577 174.556 106.705C175.731 106.812 176.857 105.985 177.527 104.517C177.368 103.205 176.931 101.942 176.245 100.813C175.096 100.424 173.851 100.424 172.702 100.813ZM179.876 89.2522C178.212 91.3333 177.385 93.9617 177.556 96.6221C178.216 98.1583 179.361 99.0819 180.584 99.0431C182.273 98.6347 183.593 96.5929 183.826 94.0261C182.856 90.9634 181.497 89.4855 179.876 89.2522Z" fill="#8C2B1C"/>
<path fill-rule="evenodd" clip-rule="evenodd" d="M186.835 74.4541C185.711 75.6753 184.82 77.0922 184.205 78.6349C183.181 82.0201 182.938 85.5941 183.496 89.0869C184.655 90.8715 186.357 92.2351 188.35 92.976C188.338 86.7892 187.844 80.6127 186.874 74.5027L186.835 74.4541ZM174.663 110.535C174.925 110.876 175.178 111.216 175.43 111.566C175.925 111.352 176.401 111.109 176.886 110.847C178.287 112.144 179.331 113.781 179.914 115.601C177.43 117.38 174.867 118.751 172.964 120.89C172.696 121.234 172.404 121.559 172.091 121.862C172.161 121.756 172.226 121.645 172.285 121.532C172.714 120.764 173.022 119.934 173.197 119.072C173.594 116.654 173.238 114.173 172.178 111.965C172.61 111.483 173.077 111.034 173.576 110.623C173.935 110.565 174.299 110.535 174.663 110.535ZM180.177 108.212C181.054 107.178 181.714 105.977 182.118 104.682C182.597 103.1 182.903 101.47 183.03 99.8209C184.574 98.6872 186.395 97.9949 188.301 97.818C188.058 106.792 185.263 111.129 181.914 114.055C181.248 112.676 180.734 111.228 180.38 109.738C180.28 109.24 180.209 108.737 180.167 108.231L180.177 108.212ZM183.176 96.5443C183.176 95.0664 183.089 93.4913 182.943 91.8287C183.304 92.5222 183.6 93.2481 183.826 93.9969C183.752 94.8762 183.532 95.7371 183.176 96.5443Z" fill="#7E2818"/>
<path fill-rule="evenodd" clip-rule="evenodd" d="M186.835 74.4541C186.458 74.8549 186.108 75.2804 185.787 75.7278C186.595 81.2854 187.078 86.8856 187.233 92.4996C187.58 92.6831 187.94 92.8391 188.311 92.9663C188.299 86.7795 187.806 80.603 186.835 74.493V74.4541ZM172.877 111.197C174.071 113.337 174.434 115.844 173.896 118.236C174.891 116.679 176.286 115.42 177.934 114.59C178.368 114.366 178.787 114.112 179.186 113.831C179.464 114.39 179.707 114.964 179.914 115.552C177.43 117.332 174.867 118.703 172.964 120.842C172.696 121.186 172.404 121.511 172.091 121.814C172.161 121.707 172.226 121.597 172.285 121.483C172.714 120.715 173.022 119.886 173.197 119.023C173.594 116.606 173.238 114.124 172.178 111.916C172.401 111.663 172.634 111.43 172.877 111.197ZM181.147 112.169C182.416 110.849 183.562 109.417 184.574 107.891C185.952 105.875 186.8 102.556 187.117 97.9347C187.51 97.8479 187.909 97.7893 188.311 97.7596C188.068 106.734 185.273 111.07 181.924 113.997C181.642 113.413 181.38 112.801 181.147 112.169Z" fill="#712413"/>
<path fill-rule="evenodd" clip-rule="evenodd" d="M142.175 41.5035C143.85 43.5718 144.949 46.0475 145.359 48.679C145.63 48.8165 145.927 48.8984 146.23 48.92C146.534 48.9416 146.839 48.9023 147.127 48.8046C147.415 48.7068 147.681 48.5525 147.909 48.3506C148.137 48.1488 148.323 47.9034 148.455 47.6289C146.989 44.9875 146.423 41.9391 146.844 38.9464C154.25 34.717 147.64 27.1721 140.331 30.7112C130.624 35.3976 134.701 42.5244 140.661 41.8438C141.172 41.7786 141.676 41.6646 142.165 41.5035H142.175ZM173.139 31.6349C182.846 36.331 178.769 43.4481 172.809 42.7675C172.297 42.7094 171.792 42.5954 171.305 42.4272C169.629 44.4989 168.531 46.9779 168.121 49.6123C167.849 49.7472 167.553 49.8271 167.25 49.8473C166.947 49.8675 166.643 49.8277 166.355 49.7302C166.068 49.6327 165.802 49.4793 165.574 49.2789C165.346 49.0785 165.159 48.835 165.025 48.5623C166.491 45.9209 167.056 42.8725 166.636 39.8798C159.239 35.6504 165.84 28.1152 173.149 31.6446L173.139 31.6349Z" fill="#FCC413"/>
<path fill-rule="evenodd" clip-rule="evenodd" d="M176.964 57.8767C175.267 58.5816 173.86 59.8426 172.973 61.4532C172.086 63.0638 171.771 64.9285 172.08 66.7418C172.389 68.5551 173.304 70.2095 174.674 71.434C176.045 72.6586 177.79 73.3806 179.623 73.4819C197.969 74.9208 209.666 63.1368 205.472 37.9061C204.832 34.017 189.544 40.7354 185.612 47.7456C183.427 51.6742 180.472 55.1202 176.925 57.8767H176.964Z" fill="#FFCC05"/>
<path fill-rule="evenodd" clip-rule="evenodd" d="M201.172 43.623C202.522 63.5548 184.884 72.879 176.634 68.3579C180.196 67.4925 182.293 64.4687 184.71 60.181C188.709 53.0736 194.756 47.9011 201.211 43.6522L201.172 43.623Z" fill="#EF5A7B"/>
<path fill-rule="evenodd" clip-rule="evenodd" d="M185.69 72.8401C200.512 69.7288 206.462 55.8932 203.851 40.6187C203.851 39.4131 203.57 38.5672 202.997 38.4797C200.036 38.013 196.484 39.063 192.397 41.2215C198.144 37.4491 205.084 35.3295 205.511 37.906C209.219 60.2685 200.473 72.0525 185.671 73.4526C183.672 73.6282 181.661 73.6282 179.662 73.4526C181.687 73.4326 183.706 73.2177 185.69 72.8109V72.8401Z" fill="#D59929"/>
<path fill-rule="evenodd" clip-rule="evenodd" d="M185.583 66.9382C192.659 63.5255 199.435 55.0473 201.172 43.6035C202.143 57.653 193.649 66.4229 185.641 68.805C182.685 69.8474 179.438 69.6797 176.604 68.3383C180.167 67.473 182.263 64.4492 184.68 60.1614C185.339 58.9914 186.062 57.8587 186.845 56.7682C186.05 58.1392 185.4 59.5892 184.904 61.0948C184.574 62.0671 184.273 62.9811 183.933 63.9242C183.546 64.9936 182.928 65.964 182.122 66.7659C181.317 67.5677 180.344 68.181 179.274 68.5619C181.463 68.4648 183.606 67.9048 185.564 66.9188L185.583 66.9382Z" fill="#E05070"/>
<path fill-rule="evenodd" clip-rule="evenodd" d="M149.183 46.569C149.178 48.2939 149.588 49.9946 150.377 51.5277C153.791 52.2674 157.343 52.0419 160.637 50.8763C161.857 50.0261 162.778 48.8112 163.268 47.4052C160.974 46.9486 158.652 46.653 156.318 46.5204C153.942 46.3591 151.559 46.3591 149.183 46.5204V46.569Z" fill="#8C2B1C"/>
<path fill-rule="evenodd" clip-rule="evenodd" d="M170.887 49.9041C170.14 51.2361 169.373 52.082 169.392 53.1223C169.392 55.0669 171.14 56.817 173.275 57.3128C174.995 56.9212 176.495 55.8752 177.459 54.396C175.519 52.5656 173.301 51.0559 170.887 49.9235V49.9041Z" fill="#8C2B1C"/>
<path fill-rule="evenodd" clip-rule="evenodd" d="M131.449 52.8208C131.557 53.362 131.703 53.8948 131.886 54.4154C133.108 55.0238 134.45 55.3526 135.815 55.3778C137.18 55.403 138.533 55.1241 139.777 54.5612C141.053 52.6084 141.593 50.2649 141.301 47.9497C137.739 48.9296 134.396 50.5794 131.449 52.8111V52.8208Z" fill="#8C2B1C"/>
<path fill-rule="evenodd" clip-rule="evenodd" d="M131.818 141.697C126.401 141.24 120.859 137.448 116.384 130.37C105.406 125.508 97.7569 118.061 93.4374 108.639C92.5033 106.583 91.9005 104.39 91.6514 102.145C87.4192 94.6677 88.0599 88.1243 91.4669 86.7047C92.8049 86.1721 94.2893 86.1376 95.6505 86.6075C98.4921 82.5563 102.756 79.7296 107.59 78.6932C122.713 75.6402 136.06 79.1015 151.571 90.9536C163.86 100.326 176.304 112.626 171.644 121.094C169.509 124.983 163.102 125.188 154.842 130.506C144.951 136.874 139.447 143.146 131.624 141.648H131.818V141.697Z" fill="#F1AA24"/>
<path fill-rule="evenodd" clip-rule="evenodd" d="M113.919 129.213C113.064 129.213 108.095 125.936 105.629 123.992C106.842 124.896 109.871 128.484 108.027 122.465C104.6 111.226 107.58 98.4791 114.986 89.4077C107.881 100.686 106.027 111.77 109.24 122.806C109.974 125.451 111.635 127.743 113.919 129.262V129.213Z" fill="#AE6027"/>
<path fill-rule="evenodd" clip-rule="evenodd" d="M145.65 120.832C147.484 120.262 149.461 120.361 151.229 121.113C152.997 121.864 154.442 123.218 155.308 124.935C152.674 122.467 149.252 121.013 145.65 120.832Z" fill="#AE6027"/>
<path fill-rule="evenodd" clip-rule="evenodd" d="M126.77 133.948C124.738 133.423 122.797 132.83 120.946 132.169C131.624 144.623 145.262 138.887 151.037 121.814C142.864 131.537 134.681 135.98 126.77 133.948Z" fill="#EC2024"/>
<path fill-rule="evenodd" clip-rule="evenodd" d="M151.309 121.493C143.048 131.391 134.807 136.009 126.77 133.948C123.215 133.047 119.741 131.85 116.384 130.37C116.695 130.876 117.015 131.342 117.355 131.819C131.536 139.354 142.806 135.562 151.328 121.493H151.309ZM127.256 99.957C128.202 98.7581 129.465 97.8492 130.901 97.3335C132.337 96.8179 133.889 96.7163 135.38 97.0402C138.506 97.6721 140.622 99.957 140.505 102.602C140.389 105.246 138.059 107.531 134.866 108.173C138.399 107.716 141.136 105.256 141.369 102.427C141.602 99.5973 139.273 97.0207 135.827 96.4082C132.381 95.7956 128.78 97.2832 127.256 99.9278V99.957ZM101.047 93.326C101.095 91.739 100.639 90.1777 99.7442 88.8671C98.8492 87.5566 97.562 86.5645 96.068 86.0339C95.9224 86.2187 95.7768 86.4132 95.6409 86.6076C96.4298 86.8553 97.1761 87.2225 97.854 87.6966C98.7745 88.3341 99.5396 89.1714 100.093 90.146C100.645 91.1207 100.972 92.2076 101.047 93.326Z" fill="#AE6027"/>
<path fill-rule="evenodd" clip-rule="evenodd" d="M135.332 101.289C137.38 103.953 130.352 110.516 128.255 106.987C126.159 103.457 133.274 98.625 135.332 101.289Z" fill="#AE6027"/>
<path fill-rule="evenodd" clip-rule="evenodd" d="M92.6028 90.4188C89.8946 92.3634 94.8256 100.667 97.825 97.8567C100.824 95.0469 95.3207 88.4256 92.6028 90.4188Z" fill="#AE6027"/>
<path fill-rule="evenodd" clip-rule="evenodd" d="M154.279 128.036C141.447 139.704 132.012 146.889 120.616 134.337C131.274 142.186 139.871 141.094 146.407 131.06C140.117 139.811 130.876 141.707 122.897 134.24C120.983 133.586 119.126 132.777 117.345 131.819C121.577 137.886 126.644 141.182 131.624 141.677C139.447 143.204 144.951 136.904 154.842 130.535C163.102 125.217 169.509 125.003 171.644 121.123C176.304 112.626 163.879 100.326 151.571 90.9828C143.805 85.0908 136.681 81.26 129.546 79.3154C151.93 88.1146 167.762 105.693 170.149 116.962C170.489 121.542 162.627 120.491 154.279 128.085V128.036Z" fill="#C9872A"/>
<path fill-rule="evenodd" clip-rule="evenodd" d="M97.8443 85.6935C99.0628 86.5149 100.016 87.6744 100.586 89.03C101.157 90.3857 101.321 91.8785 101.057 93.3259C101.105 91.7388 100.649 90.1775 99.7539 88.867C98.8589 87.5564 97.5717 86.5644 96.0776 86.0338C98.9065 82.2772 102.995 79.6704 107.59 78.6931C111.686 77.8418 115.874 77.5151 120.053 77.7208C121.706 77.8055 123.353 77.9873 124.984 78.2653C125.596 78.3625 126.207 78.4792 126.819 78.6056L125.004 78.4597C123.548 78.3431 121.859 78.2458 120.034 78.2264C112.705 78.1486 103.241 79.3056 97.8443 85.7032V85.6935Z" fill="#C38B2C"/>
<path fill-rule="evenodd" clip-rule="evenodd" d="M155.357 124.935C158.696 121.13 162.09 118.537 165.539 117.156C167.383 113.209 163.384 106.29 153.541 96.3983L151.891 94.7746L151.28 94.1718C148.193 91.1966 144.615 87.9557 140.544 84.449C144.641 86.7995 148.537 89.4856 152.192 92.48L152.386 92.6356C157.999 97.1278 162.828 102.523 166.675 108.6C168.28 111.139 169.457 113.924 170.159 116.845C170.499 121.425 162.637 120.375 154.289 127.968C151.08 130.996 147.686 133.822 144.126 136.427C150.015 131.773 153.745 127.92 155.318 124.867L155.357 124.935Z" fill="#DD9427"/>
<path fill-rule="evenodd" clip-rule="evenodd" d="M151.474 123.379C149.632 128.076 147.142 132.491 144.077 136.495C135.933 142.193 128.76 143.35 120.577 134.337C131.235 142.186 139.832 141.094 146.368 131.06C148.303 128.302 149.833 125.28 150.911 122.086C152.516 122.783 153.99 123.749 155.269 124.945C154.194 124.047 152.869 123.504 151.474 123.389V123.379Z" fill="#DD9427"/>
</g>
</svg>
