<svg width="322" height="69" viewBox="0 0 322 69" fill="none" xmlns="http://www.w3.org/2000/svg">
<path d="M321.579 36.6583C321.579 36.1097 320.794 35.6639 320.402 36.1611C317.57 39.8252 313.416 42.221 308.84 42.8303C310.531 38.5944 310.823 33.9249 309.676 29.5091C309.539 28.9776 308.653 28.7719 308.414 29.3376C304.662 38.167 296.17 40.9787 287.285 41.6302C277.753 42.1274 268.987 38.047 261.058 33.1437C260.58 32.8522 259.83 33.3494 260.035 33.9324C261.999 39.6055 263.661 45.3799 265.014 51.2311C265.781 54.2657 266.532 57.3174 267.231 60.3691C267.363 61.476 267.603 62.567 267.947 63.6266C268.493 64.7752 270.164 65.1696 271.358 65.6325C278.656 68.4956 286.978 68.1013 294.499 66.4897C301.559 64.981 308.687 61.9635 313.666 56.5459C318.271 51.454 321.818 43.6704 321.579 36.6583Z" fill="#AD812D"/>
<path d="M60.5324 34.1437C52.6027 39.047 43.8375 43.1274 34.3048 42.6302C25.4202 41.9787 16.9278 39.2013 13.1762 30.3376C12.9374 29.7719 12.0507 29.9776 11.9142 30.5091C10.7751 34.9257 11.0679 39.5925 12.7498 43.8303C8.17393 43.221 4.02052 40.8252 1.18789 37.1611C0.795673 36.6639 0.0282881 37.1611 0.0112351 37.6583C-0.210454 44.1732 2.87614 51.0824 6.83244 56.1572C11.1469 61.712 17.7805 65.0209 24.4141 66.8382C31.8567 69.0616 39.7424 69.3273 47.3163 67.6097C49.0135 67.1576 50.6638 66.5433 52.2446 65.7752C53.7112 65.0552 53.6259 64.7294 53.9499 63.2207C54.5809 60.3576 55.263 57.5288 55.9622 54.6485C57.459 47.9671 59.3206 41.3737 61.5385 34.8981C61.7602 34.3837 61.0269 33.8522 60.5324 34.1437Z" fill="#AD812D"/>
<path d="M277.172 26.2034C274.676 21.9204 272.16 17.6179 269.431 13.4128C269.351 13.2746 269.229 13.1655 269.083 13.1013C268.961 13.0348 268.825 13 268.686 13C268.548 13 268.411 13.0348 268.29 13.1013C261.942 16.7808 255.092 19.6231 248.415 22.8354C248.324 22.8759 248.242 22.9358 248.176 23.0108C248.11 23.0859 248.06 23.1744 248.031 23.2704C248.001 23.3664 247.993 23.4677 248.006 23.5673C248.019 23.6669 248.053 23.7625 248.106 23.8477C254.937 37.3003 260.626 51.1032 267.458 64.6337C267.728 65.1788 268.599 65.062 268.909 64.6337C274.869 56.5349 277.811 44.6398 279.939 35.2172C280.365 33.5429 278.449 28.3059 277.172 26.2034Z" fill="#785616"/>
<path d="M74.6178 22.8433C67.941 19.7063 61.0708 16.8617 54.7424 13.1013C54.6206 13.0348 54.4842 13 54.3457 13C54.2071 13 54.0708 13.0348 53.949 13.1013C53.7973 13.1645 53.6689 13.2734 53.5813 13.4131C50.8719 17.6216 48.356 21.9275 45.8401 26.214C44.6596 28.1623 42.6469 33.345 43.0533 35.196C45.1821 44.6262 48.1431 56.6283 54.0844 64.6361C54.1712 64.7494 54.2826 64.841 54.4101 64.9041C54.5376 64.9672 54.6778 65 54.8198 65C54.9619 65 55.102 64.9672 55.2295 64.9041C55.357 64.841 55.4684 64.7494 55.5552 64.6361C62.3674 51.1728 68.0765 37.3587 74.9081 23.8174C74.955 23.7349 74.9847 23.6435 74.9955 23.549C75.0062 23.4545 74.9978 23.3587 74.9706 23.2676C74.9435 23.1765 74.8982 23.0919 74.8375 23.0189C74.7769 22.946 74.7021 22.8862 74.6178 22.8433Z" fill="#785616"/>
<path d="M280.896 32.779C280.112 28.8719 278.544 25.1674 276.289 21.8928C273.824 17.5137 271.143 13.2619 268.256 9.15325C266.05 6.09029 263.63 2.38353 259.836 0.686219C256.042 -1.01109 251.997 0.90082 248.222 1.93481C243.325 3.24194 238.544 4.74415 233.647 6.22685C213.863 12.393 193.407 16.1076 172.732 17.2886C152.98 18.208 133.191 16.6747 113.81 12.7235C104.134 10.6208 94.5723 8.01612 85.1627 4.91973C80.2461 3.41752 75.2522 2.18844 70.3356 0.686219C68.6793 0.0246222 66.874 -0.163338 65.1185 0.143027C63.363 0.449392 61.7255 1.23819 60.3863 2.42255C57.165 5.46446 54.4061 8.96826 52.1985 12.821C49.508 16.8985 46.9722 21.1125 44.7075 25.4045C43.0622 28.5065 41.5331 31.9986 42.1331 35.4908C42.3545 36.6762 42.8503 37.7923 43.5801 38.7482C44.31 39.7042 45.2533 40.4731 46.3335 40.9924C58.7217 48.7962 74.2069 51.9762 88.7437 54.9221C106.903 58.651 125.286 61.1731 143.774 62.4722C161.635 63.5441 179.555 62.9826 197.315 60.7944C214.915 58.8027 232.371 55.6814 249.577 51.4494C256.69 49.7748 263.621 47.3961 270.269 44.348C273.077 43.1404 275.751 41.6363 278.244 39.8609C279.269 39.0228 280.054 37.9255 280.52 36.6813C280.986 35.437 281.116 34.0904 280.896 32.779Z" fill="#976D1D"/>
<path d="M117.4 47.12C116.6 47.12 115.88 46.92 115.24 46.52C114.6 46.12 114.064 45.544 113.632 44.792C113.2 44.04 112.88 43.136 112.672 42.08C112.48 41.008 112.424 39.808 112.504 38.48C112.584 37.152 112.792 36.048 113.128 35.168C113.48 34.272 113.912 33.552 114.424 33.008C114.936 32.448 115.504 32.048 116.128 31.808C116.768 31.552 117.416 31.408 118.072 31.376C118.744 31.344 119.312 31.448 119.776 31.688C120.24 31.912 120.632 32.176 120.952 32.48C121.304 32.832 121.6 33.232 121.84 33.68L119.8 36.656C119.672 36.496 119.528 36.344 119.368 36.2C119.24 36.072 119.088 35.96 118.912 35.864C118.736 35.768 118.536 35.72 118.312 35.72C117.928 35.72 117.568 35.92 117.232 36.32C116.896 36.72 116.608 37.224 116.368 37.832C116.144 38.44 115.984 39.096 115.888 39.8C115.808 40.504 115.816 41.152 115.912 41.744C116.008 42.336 116.216 42.832 116.536 43.232C116.872 43.616 117.344 43.792 117.952 43.76C118.272 43.744 118.56 43.68 118.816 43.568C119.072 43.456 119.288 43.328 119.464 43.184C119.656 43.024 119.832 42.84 119.992 42.632L121.072 43.52C120.928 44.192 120.704 44.792 120.4 45.32C120.128 45.784 119.752 46.208 119.272 46.592C118.792 46.96 118.16 47.144 117.376 47.144L117.4 47.12ZM127.118 47C126.382 47 125.734 46.776 125.174 46.328C124.614 45.88 124.142 45.288 123.758 44.552C123.374 43.816 123.086 42.984 122.894 42.056C122.702 41.112 122.598 40.152 122.582 39.176C122.582 38.2 122.678 37.248 122.87 36.32C123.062 35.376 123.358 34.536 123.758 33.8C124.158 33.064 124.654 32.472 125.246 32.024C125.854 31.576 126.574 31.352 127.406 31.352C128.318 31.352 129.094 31.576 129.734 32.024C130.374 32.472 130.886 33.064 131.27 33.8C131.654 34.536 131.918 35.376 132.062 36.32C132.222 37.248 132.27 38.2 132.206 39.176C132.142 40.152 131.974 41.112 131.702 42.056C131.446 42.984 131.094 43.816 130.646 44.552C130.214 45.288 129.702 45.88 129.11 46.328C128.518 46.776 127.854 47 127.118 47ZM127.406 36.056C126.958 36.056 126.582 36.256 126.278 36.656C125.99 37.04 125.766 37.536 125.606 38.144C125.462 38.736 125.39 39.376 125.39 40.064C125.39 40.752 125.454 41.4 125.582 42.008C125.71 42.6 125.894 43.096 126.134 43.496C126.39 43.88 126.702 44.072 127.07 44.072C127.438 44.072 127.75 43.88 128.006 43.496C128.262 43.096 128.454 42.6 128.582 42.008C128.726 41.4 128.806 40.752 128.822 40.064C128.854 39.376 128.822 38.736 128.726 38.144C128.63 37.536 128.47 37.04 128.246 36.656C128.038 36.256 127.766 36.056 127.43 36.056H127.406ZM134.086 46.904L133.438 31.856L137.398 31.352L139.294 39.08L141.934 31.256L145.966 31.784L144.526 46.904H141.862L141.886 39.488L140.254 43.544L138.502 44.024L136.798 40.136L136.366 46.544L134.086 46.904ZM147.699 47.144L147.243 31.664C149.131 31.408 150.819 31.376 152.307 31.568C152.947 31.648 153.571 31.792 154.179 32C154.787 32.192 155.331 32.472 155.811 32.84C156.291 33.192 156.675 33.64 156.963 34.184C157.251 34.728 157.395 35.392 157.395 36.176C157.395 36.976 157.275 37.672 157.035 38.264C156.811 38.84 156.507 39.328 156.123 39.728C155.739 40.128 155.307 40.448 154.827 40.688C154.347 40.928 153.859 41.112 153.363 41.24C152.883 41.352 152.411 41.416 151.947 41.432C151.499 41.448 151.107 41.44 150.771 41.408L150.315 46.688L147.699 47.144ZM153.891 37.328C153.891 37.056 153.851 36.792 153.771 36.536C153.691 36.28 153.547 36.064 153.339 35.888C153.131 35.696 152.859 35.552 152.523 35.456C152.203 35.36 151.795 35.336 151.299 35.384L150.939 39.44C151.467 39.472 151.915 39.432 152.283 39.32C152.651 39.208 152.955 39.056 153.195 38.864C153.435 38.656 153.611 38.424 153.723 38.168C153.835 37.896 153.891 37.616 153.891 37.328ZM163.538 47.024C162.546 47.024 161.73 46.808 161.09 46.376C160.45 45.944 159.938 45.368 159.554 44.648C159.17 43.912 158.89 43.064 158.714 42.104C158.538 41.128 158.426 40.112 158.378 39.056C158.33 37.984 158.314 36.896 158.33 35.792C158.346 34.688 158.354 33.624 158.354 32.6L162.458 31.832C162.234 34.104 162.106 36.136 162.074 37.928C162.058 38.696 162.066 39.448 162.098 40.184C162.13 40.904 162.194 41.552 162.29 42.128C162.402 42.688 162.546 43.144 162.722 43.496C162.914 43.832 163.162 44 163.466 44C163.866 44 164.186 43.824 164.426 43.472C164.682 43.12 164.882 42.648 165.026 42.056C165.17 41.448 165.266 40.744 165.314 39.944C165.378 39.144 165.418 38.296 165.434 37.4C165.45 36.488 165.45 35.56 165.434 34.616C165.418 33.656 165.41 32.728 165.41 31.832H169.058C169.106 32.808 169.138 33.856 169.154 34.976C169.17 36.096 169.138 37.224 169.058 38.36C168.978 39.48 168.826 40.56 168.602 41.6C168.394 42.64 168.074 43.56 167.642 44.36C167.21 45.16 166.658 45.8 165.986 46.28C165.314 46.76 164.482 47 163.49 47L163.538 47.024ZM170.495 36.008L169.727 31.448L180.599 31.736L180.359 35.528L177.503 35.672L176.543 46.496L173.951 46.928L173.615 35.864L170.495 36.008ZM181.946 46.928L181.49 31.448L185.834 31.736L184.538 46.496L181.946 46.928ZM187.731 46.904L187.083 31.856L191.043 31.352L195.123 39.248L194.955 31.256L198.987 31.784L197.811 46.904H195.291L190.683 38.936L190.323 46.544L187.731 46.904ZM204.936 46.832C204.136 46.832 203.416 46.632 202.776 46.232C202.136 45.832 201.6 45.256 201.168 44.504C200.736 43.752 200.416 42.848 200.208 41.792C200.016 40.72 199.96 39.52 200.04 38.192C200.12 36.864 200.328 35.76 200.664 34.88C201.016 33.984 201.448 33.264 201.96 32.72C202.472 32.16 203.04 31.76 203.664 31.52C204.304 31.264 204.952 31.12 205.608 31.088C206.28 31.056 206.848 31.16 207.312 31.4C207.776 31.624 208.168 31.888 208.488 32.192C208.84 32.544 209.136 32.944 209.376 33.392L207.336 36.368C207.208 36.208 207.064 36.056 206.904 35.912C206.776 35.784 206.624 35.672 206.448 35.576C206.272 35.48 206.072 35.432 205.848 35.432C205.24 35.448 204.728 35.656 204.312 36.056C203.896 36.456 203.568 36.96 203.328 37.568C203.104 38.176 202.976 38.832 202.944 39.536C202.912 40.224 202.984 40.864 203.16 41.456C203.336 42.048 203.616 42.544 204 42.944C204.384 43.328 204.88 43.504 205.488 43.472C205.92 43.456 206.28 43.36 206.568 43.184C206.872 42.992 207.104 42.816 207.264 42.656L207.12 41.096L204.936 40.904L205.368 37.568L209.808 37.904L209.136 46.472L207.672 46.904L207.552 45.632C207.28 45.984 206.928 46.288 206.496 46.544C206.064 46.784 205.536 46.904 204.912 46.904L204.936 46.832Z" fill="white"/>
</svg>
