<svg width="264" height="249" viewBox="0 0 264 249" fill="none" xmlns="http://www.w3.org/2000/svg">
<mask id="mask0_9:656" style="mask-type:alpha" maskUnits="userSpaceOnUse" x="0" y="0" width="264" height="249">
<path d="M263.771 135.5C263.771 152.018 207.923 182.239 201.771 196.5C191.271 227.5 152.771 249 118.771 249C88.271 249 75.7766 241.426 54.771 209.5C42.5889 190.985 0.770996 179.32 0.770996 155.5C0.770996 90.6065 91.8775 0 156.771 0C221.664 0 263.771 70.6065 263.771 135.5Z" fill="#C4C4C4"/>
</mask>
<g mask="url(#mask0_9:656)">
<path fill-rule="evenodd" clip-rule="evenodd" d="M195.479 246.415C202.314 249.141 209.3 246.505 215.375 242.287L217.037 241.134L215.035 240.733C211.559 239.874 208.325 238.232 205.577 235.933C204.576 235.182 203.095 234.019 201.444 232.977C201.816 233.109 202.178 233.269 202.525 233.458L206.938 235.803L203.575 232.125C199.792 228.007 194.858 224.57 189.303 223.427C185.3 222.606 180.796 222.996 177.573 225.692C175.702 227.275 173.69 229.38 173.11 231.835C170.688 242.006 178.054 247.788 187.122 250.183C191.087 251.209 195.251 251.181 199.202 250.103L202.474 249.251L199.202 248.439C197.793 248.155 196.5 247.458 195.489 246.435L195.479 246.415Z" fill="#8F361F"/>
<path fill-rule="evenodd" clip-rule="evenodd" d="M153.023 232.797C155.145 229.711 158.097 226.344 161.69 225.782C166.384 225.101 171.378 229.47 174.471 232.476L174.721 232.717H175.072C175.598 232.751 176.125 232.68 176.624 232.51C177.122 232.339 177.583 232.071 177.978 231.722C178.373 231.373 178.695 230.949 178.927 230.475C179.158 230.001 179.293 229.486 179.325 228.959L179.085 228.237C174.481 223.508 168.276 218.738 161.29 219.219C159.797 219.331 158.329 219.669 156.936 220.221C155.975 223.888 154.671 228.05 153.023 232.707V232.797Z" fill="#8F361F"/>
<path fill-rule="evenodd" clip-rule="evenodd" d="M178.124 226.343L177.594 226.804C178.114 227.295 178.595 227.806 179.085 228.277L179.325 228.999C179.293 229.526 179.158 230.041 178.927 230.515C178.696 230.989 178.373 231.413 177.978 231.762C177.583 232.111 177.123 232.379 176.624 232.55C176.125 232.72 175.598 232.791 175.072 232.757H174.721L174.471 232.516C174.301 232.346 174.131 232.175 173.941 232.005C171.999 240.142 176.603 246.475 187.322 249.311C191.148 250.31 195.168 250.286 198.982 249.241C195.999 248.499 194.158 246.896 193.457 244.431C199.656 248.145 206.798 247.187 214.885 241.555C211.273 240.668 207.915 238.953 205.077 236.544C200.493 232.987 197.3 231.304 195.529 231.444C198.064 231.103 200.644 231.518 202.945 232.636C194.038 222.946 183.299 221.944 178.124 226.283V226.343Z" fill="#C64A29"/>
<path fill-rule="evenodd" clip-rule="evenodd" d="M196.23 248.159C194.879 247.468 193.718 246.459 192.846 245.217C191.974 243.975 191.418 242.54 191.225 241.034C198.431 245.604 206.308 245.791 214.855 241.595C206.755 247.227 199.612 248.186 193.427 244.471C193.843 246.012 194.836 247.332 196.2 248.159H196.23ZM179.385 226.684C179.156 226.822 178.945 226.987 178.755 227.175C179.112 227.583 179.332 228.092 179.384 228.631C179.436 229.171 179.317 229.713 179.045 230.181C179.178 229.808 179.272 229.422 179.325 229.029L179.085 228.307C178.605 227.816 178.084 227.305 177.594 226.834L178.124 226.373C178.428 226.123 178.746 225.889 179.075 225.672C181.589 224.187 184.533 223.604 187.422 224.019C184.53 223.995 181.713 224.936 179.415 226.694L179.385 226.684ZM201.804 234.25C198.942 232.326 196.8 231.424 195.529 231.524C198.064 231.183 200.644 231.598 202.945 232.717C198.451 227.836 193.497 225.151 189.033 224.259C193.532 225.565 197.633 227.977 200.964 231.274C198.634 230.753 196.204 230.906 193.958 231.715C195.579 231.785 198.211 232.647 201.834 234.29L201.804 234.25ZM176.703 233.488C177.677 243.262 185.103 248.526 198.982 249.281C197.632 249.63 196.257 249.868 194.868 249.993L192.486 250.083C190.742 250.046 189.008 249.801 187.322 249.351C176.603 246.515 171.999 240.182 173.941 232.045H173.991C174.151 232.206 174.321 232.356 174.471 232.516L174.721 232.757H175.072C175.897 232.781 176.713 232.58 177.434 232.176C178.3 231.743 179.003 231.039 179.435 230.171L179.646 229.811C179.47 230.61 179.106 231.356 178.584 231.985C178.061 232.614 177.396 233.109 176.643 233.428L176.703 233.488Z" fill="#B14226"/>
<path fill-rule="evenodd" clip-rule="evenodd" d="M178.474 228.879C178.462 229.305 178.363 229.724 178.183 230.11C178.002 230.496 177.745 230.841 177.425 231.123C177.106 231.405 176.733 231.618 176.328 231.749C175.923 231.88 175.495 231.926 175.071 231.885C166.064 223.117 160.059 222.646 153.943 230.121C154.814 227.586 155.775 224.57 156.656 221.353C163.471 218.347 170.597 220.782 178.474 228.869V228.879Z" fill="#F7971D"/>
<path fill-rule="evenodd" clip-rule="evenodd" d="M175.071 231.895C166.064 223.127 160.059 222.656 153.943 230.131C154.814 227.596 155.775 224.58 156.656 221.363C161.6 219.178 166.664 219.86 172.139 223.487C166.134 220.14 160.839 219.95 157.436 222.275C156.983 223.918 156.476 225.542 155.915 227.145C160.999 221.874 167.542 223.35 175.542 231.574C176.242 231.467 176.895 231.153 177.418 230.673C177.94 230.193 178.308 229.568 178.474 228.879C178.462 229.305 178.363 229.724 178.183 230.11C178.002 230.496 177.745 230.84 177.425 231.122C177.106 231.404 176.733 231.618 176.328 231.749C175.923 231.88 175.495 231.926 175.071 231.885V231.895Z" fill="#CC7D29"/>
<path fill-rule="evenodd" clip-rule="evenodd" d="M101.47 310.398C98.63 312.381 95.1738 313.278 91.7299 312.925C88.2859 312.572 85.0829 310.992 82.7037 308.474C81.6293 308.996 80.4333 309.213 79.2445 309.104C78.0557 308.994 76.9193 308.562 75.958 307.853C75.4621 307.472 75.0326 307.012 74.6869 306.49C72.8153 303.705 73.1156 298.644 75.8379 296.469C79.9497 293.178 83.6615 289.414 86.8972 285.256C81.5327 277.891 75.3575 266.196 82.7937 258.18C85.9514 254.73 88.8422 251.045 91.4411 247.157C75.1573 240.854 60.1546 229.45 63.5975 209.929C64.4683 204.919 65.319 199.908 65.9895 194.898C66.3498 192.132 66.6801 189.306 66.8503 186.5C66.522 184.755 66.5595 182.96 66.9604 181.229C66.8603 177.482 66.2197 173.052 63.4974 170.657C59.9244 167.521 53.3689 168.443 49.1353 169.275L48.795 169.335L48.5047 169.144C48.0461 168.885 47.6432 168.538 47.3189 168.122C46.9946 167.706 46.7554 167.231 46.6151 166.723C46.4747 166.214 46.4358 165.683 46.5008 165.16C46.5657 164.637 46.7331 164.131 46.9935 163.673L47.584 163.202C54.0194 161.759 61.816 161.148 67.3907 165.396C68.5773 166.315 69.6197 167.406 70.4834 168.633C73.4859 159.524 77.9096 149.594 83.8146 145.836C97.3027 138.469 112.389 134.525 127.752 134.351C143.116 134.176 158.287 137.775 171.939 144.834C178.426 145.695 185.02 144.519 190.811 141.468C196.602 138.416 201.303 133.64 204.266 127.798L204.367 127.618L204.226 127.007C204.56 124.964 205.339 123.021 206.508 121.315C207.509 119.731 208.65 118.248 209.631 116.655C210.061 115.964 210.902 114.551 210.632 113.649C209.748 111.1 209.078 108.482 208.63 105.822C208.403 104.08 208.729 102.311 209.562 100.764C210.395 99.218 211.693 97.9735 213.272 97.2074C214.852 96.4412 216.632 96.1922 218.36 96.4956C220.088 96.7991 221.678 97.6396 222.902 98.898C224.069 100.177 224.83 101.774 225.09 103.486C225.35 105.198 225.097 106.95 224.363 108.518C223.573 110.442 224.363 111.424 226.205 111.735C229.854 109.976 233.743 108.767 237.745 108.147C240.917 107.576 243.83 108.508 245.511 111.364C246.782 113.518 247.253 117.066 245.962 119.381C248.214 123.048 249.154 127.127 246.422 130.724C247.873 133.731 249.245 137.799 247.353 140.795C245.972 142.98 243.35 143.801 240.938 144.072C236.163 147.309 230.659 148.181 224.984 147.519C222.982 147.289 219.429 146.878 217.538 147.599L217.087 147.77C213.504 152.62 197.401 157.881 191.726 159.584C186.76 161.099 181.715 162.34 176.613 163.302C173.365 163.986 170.054 164.322 166.735 164.304C172.422 187.392 169.206 211.778 157.727 232.596C165.634 238.368 173.07 245.824 175.742 255.504C176.963 259.933 174.621 264.864 172.339 268.531C168.967 273.993 164.253 279.254 159.789 283.953C161.008 284.113 162.248 283.99 163.412 283.593C173.282 280.954 183.699 281.194 193.437 284.284C197.661 285.627 202.555 288.723 202.005 293.824C201.825 295.043 201.379 296.207 200.697 297.233C200.015 298.258 199.115 299.12 198.061 299.756C198.012 299.956 197.952 300.154 197.881 300.348C197.421 301.431 196.738 302.404 195.875 303.204C195.013 304.004 193.991 304.611 192.877 304.987C190.114 305.985 187.157 306.328 184.24 305.989C180.997 308.735 172.77 306.43 169.457 305.328C162.661 303.093 154.594 300.468 147.378 301.47C143.932 302.036 140.416 302.036 136.97 301.47C135.198 301.109 132.716 300.267 131.965 298.464C131.211 296.598 130.838 294.6 130.869 292.588C130.9 290.576 131.334 288.59 132.145 286.749L132.396 286.358L132.646 285.747C137.07 274.834 139.522 261.697 128.643 254.011C122.267 257.017 116.142 261.577 113.56 268.411C111.558 273.792 112.079 279.544 113.75 284.935C117.633 287.671 117.483 300.227 117.463 304.075V304.276L117.293 304.506C115.474 306.927 112.994 308.768 110.152 309.808C107.31 310.849 104.229 311.043 101.279 310.368L101.47 310.398ZM96.9057 237.537C99.9491 231.062 101.829 224.102 102.46 216.974C100.028 224.359 93.5929 227.816 84.285 227.686C78.2799 227.606 75.4275 223.427 74.9071 217.786C74.8283 217.196 74.9104 216.595 75.1447 216.049C75.3791 215.502 75.757 215.028 76.2382 214.679C75.6719 213.724 75.4693 212.596 75.6677 211.503C75.8112 210.773 76.1268 210.089 76.5882 209.507C77.0495 208.924 77.6433 208.461 78.32 208.156C78.6599 207.998 79.0155 207.877 79.3809 207.795C79.0833 207.104 79.045 206.33 79.273 205.613C79.5011 204.897 79.9802 204.287 80.6219 203.897C78.3962 202.331 76.2918 200.599 74.3266 198.716C73.8762 202.905 73.2357 207.073 72.505 211.212C69.9129 225.722 85.396 233.669 96.8056 237.497H96.9057V237.537ZM101.52 199.057C101.326 198.041 101.116 197.019 100.889 195.99C99.658 190.549 96.7756 183.324 92.9724 178.875C91.7662 180.493 90.83 182.297 90.2 184.216C90.6404 187.913 93.6429 191 96.4153 193.234C98.4845 194.83 100.219 196.819 101.52 199.087V199.057Z" fill="#8F361F"/>
<path fill-rule="evenodd" clip-rule="evenodd" d="M101.73 195.84C107.304 220.501 99.8481 240.814 83.3942 258.711C77.6293 264.974 80.0214 274.544 87.9781 285.326C93.3826 288.139 101.786 288.179 113.189 285.447C108.772 271.584 113.286 261.116 126.731 254.041C123.703 254.332 120.649 253.97 117.773 252.979C121.548 253.64 125.416 253.544 129.153 252.696C132.89 251.848 136.421 250.265 139.542 248.039C136.795 250.708 133.395 252.605 129.683 253.54C138.431 260.02 139.732 270.846 133.587 286.018C141.717 283.719 150.229 283.095 158.608 284.184C169.897 272.349 177.003 262.609 175.102 255.725C172.55 246.485 165.484 239.25 157.687 233.508C155.165 236.809 151.998 239.56 148.379 241.595C151.717 239.247 154.571 236.276 156.786 232.847C168.519 211.978 171.801 187.395 165.954 164.174C163.672 163.175 161.713 161.557 160.299 159.504C161.915 161.198 163.879 162.521 166.054 163.382C176.423 164.444 210.632 154.193 216.307 147.539C215.294 146.872 214.421 146.014 213.734 145.014C210.083 140.011 207.058 134.58 204.727 128.84C201.59 134.68 196.745 139.419 190.842 142.423C184.938 145.426 178.259 146.551 171.699 145.645C158.161 138.62 143.106 135.033 127.858 135.199C112.611 135.365 97.6375 139.279 84.2549 146.597C78.44 150.275 72.455 161.759 67.791 181.41C65.0687 192.844 80.2115 203.456 88.9889 208.025C93.5113 207.273 98.148 207.616 102.51 209.027C103.221 203.085 101.039 198.004 95.8648 193.886C92.2917 191.04 90.1499 188.184 89.4894 185.258C88.8347 188.591 88.703 192.005 89.099 195.379C88.2518 192.319 88.1552 189.099 88.8174 185.994C89.4795 182.888 90.8809 179.989 92.9023 177.542C94.3335 175.703 96.05 174.106 97.9865 172.812C95.4144 175.127 93.9031 176.91 93.4427 178.133C96.2751 181.42 99.9182 187.903 101.71 195.81L101.73 195.84Z" fill="#F7971D"/>
<path fill-rule="evenodd" clip-rule="evenodd" d="M110.126 168.042C97.2455 155.696 151.772 149.193 153.883 159.304C163.822 207.023 156.305 234.791 131.054 241.645C126.79 242.798 124.288 240.794 124.188 236.635C123.187 199.628 118.914 176.51 110.126 168.082V168.042Z" fill="#FDCE68"/>
<path fill-rule="evenodd" clip-rule="evenodd" d="M142.024 228.387C133.667 232.897 128.673 231.835 128.502 228.848C127.231 205.55 123.228 188.965 116.672 179.095C121.136 191.12 123.498 210.34 124.189 236.595C124.289 240.793 126.791 242.797 131.055 241.605C151.071 236.174 159.949 217.555 157.807 186.32C157.557 207.304 152.983 222.445 142.024 228.347V228.387Z" fill="#FCBB54"/>
<path fill-rule="evenodd" clip-rule="evenodd" d="M116.672 179.095C121.136 191.12 123.498 210.34 124.189 236.595C124.289 240.793 126.791 242.797 131.055 241.605C139.122 239.619 146.112 234.594 150.571 227.576C146.092 234.071 139.397 238.704 131.745 240.603C127.481 241.755 124.979 239.751 124.869 235.592C124.539 222.615 123.868 189.947 116.672 179.125V179.095Z" fill="#F9A946"/>
<path fill-rule="evenodd" clip-rule="evenodd" d="M150.581 227.586C146.116 234.603 139.123 239.627 131.054 241.616C126.79 242.768 124.288 240.764 124.188 236.605C123.618 214.93 121.906 198.055 118.824 186.03C121.809 202.462 122.881 219.185 122.016 235.864C121.676 241.686 124.649 244.742 130.093 243.61C146.297 240.243 155.335 227.296 157.446 206.683C156.386 215.08 154.097 222.045 150.581 227.576V227.586Z" fill="#E38925"/>
<path fill-rule="evenodd" clip-rule="evenodd" d="M23.9538 169.475C16.7377 167.992 12.324 161.979 9.53165 155.145L8.771 153.271L10.6526 154.023C14.033 155.202 17.6375 155.592 21.1915 155.165C22.4025 155.065 24.3141 154.925 26.2658 154.945C25.8822 154.864 25.4947 154.804 25.1048 154.764L20.1006 154.313L24.9347 153.081C30.3593 151.688 36.3643 151.508 41.6388 153.582C45.412 155.065 49.005 157.871 50.226 161.889C50.9467 164.244 51.4771 167.1 50.6264 169.485C47.1134 179.335 37.7855 180.137 28.898 177.201C25.0113 175.896 21.5334 173.595 18.8095 170.527L16.5576 167.992L19.7503 169.104C21.0873 169.631 22.551 169.746 23.9538 169.435V169.475Z" fill="#8F361F"/>
<path fill-rule="evenodd" clip-rule="evenodd" d="M49.4354 162.15C49.5054 162.37 49.5755 162.601 49.6355 162.821C48.9349 162.952 48.2543 163.092 47.5838 163.242L46.9933 163.713C46.7329 164.172 46.5655 164.677 46.5006 165.2C46.4356 165.724 46.4745 166.255 46.6149 166.763C46.7552 167.271 46.9944 167.747 47.3187 168.162C47.643 168.578 48.0459 168.925 48.5045 169.185L48.7948 169.375L49.1351 169.315L49.8557 169.175C47.0433 177.051 39.7371 179.847 29.2082 176.37C25.4609 175.106 22.1078 172.885 19.48 169.926C22.3925 170.928 24.8045 170.597 26.7261 168.924C19.52 168.657 14.0588 163.95 10.3423 154.805C13.8448 156.041 17.5853 156.449 21.2715 155.997C27.0564 155.526 30.6495 155.857 32.0506 156.939C30.1148 155.268 27.7303 154.205 25.1948 153.883C37.9356 150.626 47.4837 155.656 49.4453 162.13L49.4354 162.15Z" fill="#C64A29"/>
<path fill-rule="evenodd" clip-rule="evenodd" d="M22.3922 170.517C23.8893 170.662 25.3991 170.442 26.7931 169.877C28.1872 169.311 29.4242 168.417 30.399 167.27C21.8718 167.15 15.1694 163.002 10.292 154.824C14.0352 163.964 19.5198 168.687 26.7459 168.994C25.5598 170.055 24.0117 170.618 22.4222 170.567L22.3922 170.517ZM48.2141 161.729C48.3272 161.968 48.4112 162.221 48.4643 162.48C47.9466 162.63 47.4882 162.937 47.1528 163.359C46.8174 163.781 46.6216 164.297 46.5927 164.835C46.6874 164.448 46.8215 164.072 46.993 163.713L47.5835 163.242C48.2541 163.092 48.9347 162.951 49.6353 162.821L49.4351 162.15C49.3237 161.77 49.1866 161.398 49.0247 161.037C47.729 158.422 45.5829 156.327 42.9396 155.095C45.3874 156.656 47.244 158.991 48.2141 161.729ZM25.2947 155.807C28.7476 155.807 30.9995 156.157 32.0404 156.959C30.1045 155.288 27.7201 154.225 25.1846 153.903C31.6 152.269 37.1947 152.73 41.4483 154.424C36.9756 153.053 32.2324 152.819 27.6467 153.742C29.8947 154.58 31.8568 156.044 33.3015 157.961C31.9003 157.139 29.2313 156.421 25.2947 155.807ZM46.7628 168.894C40.6243 176.55 31.5333 176.9 19.4898 169.946C20.4262 170.985 21.4509 171.94 22.5524 172.802L24.494 174.165C25.9726 175.096 27.5589 175.843 29.218 176.389C39.7469 179.867 47.0531 177.071 49.8655 169.194L49.1949 169.325L48.8546 169.385L48.5643 169.194C47.8155 168.713 47.2084 168.041 46.8055 167.246C46.4026 166.452 46.2186 165.564 46.2724 164.675V164.254C45.9809 165.014 45.8751 165.832 45.9639 166.641C46.0527 167.45 46.3335 168.226 46.7828 168.904L46.7628 168.894Z" fill="#B14226"/>
<path fill-rule="evenodd" clip-rule="evenodd" d="M47.7641 164.073C47.5398 164.437 47.3929 164.843 47.3326 165.266C47.2723 165.689 47.2999 166.12 47.4135 166.532C47.5272 166.944 47.7246 167.328 47.9933 167.66C48.2619 167.993 48.5962 168.266 48.9751 168.462C61.3255 166.057 66.59 168.933 67.6309 178.483C68.2914 175.888 69.1321 172.842 70.143 169.655C66.0795 163.402 58.7734 161.558 47.7641 164.023V164.073ZM67.5208 189.035C67.0103 194.787 65.9094 201.792 64.4382 210.149C61.5657 226.483 71.8044 238.749 91.9214 246.495C93.6307 243.884 95.1718 241.166 96.5353 238.358C79.3908 232.606 69.5124 223.327 71.6543 211.101C72.495 206.371 73.1255 201.999 73.5459 197.984C70.9346 195.46 68.8879 192.41 67.5408 189.035H67.5208Z" fill="#F7971D"/>
<path fill-rule="evenodd" clip-rule="evenodd" d="M77.569 214.98C76.9834 215.127 76.474 215.489 76.1408 215.993C75.8075 216.497 75.6744 217.108 75.7675 217.705C76.2679 223.377 79.1003 226.724 84.3047 226.834C96.3749 227.005 102.5 221.052 102.68 210.009L102.26 209.879C98.2438 208.569 93.9817 208.195 89.7994 208.787C89.9336 209.783 89.9604 210.791 89.8794 211.793C89.8794 211.943 89.8794 212.083 89.8794 212.224C89.4691 215.41 86.6167 218.457 84.8752 217.154C82.0428 215.05 79.3305 214.468 77.6291 215L77.569 214.98ZM89.1488 208.877C89.7193 212.274 88.8786 214.729 86.7768 216.422C86.589 216.629 86.3397 216.77 86.0658 216.825C85.7918 216.879 85.5077 216.843 85.2555 216.723C82.2863 214.572 79.6174 213.854 77.2488 214.569C76.9397 214.158 76.7189 213.688 76.6 213.188C76.4812 212.688 76.4669 212.168 76.5582 211.663C76.6759 211.066 76.9357 210.507 77.3156 210.032C77.6954 209.558 78.1841 209.182 78.74 208.937C79.5175 208.587 80.3756 208.455 81.2221 208.556C83.1955 208.852 85.0394 209.719 86.5266 211.051C87.7877 212.053 88.5283 211.612 89.1989 208.877H89.0588H89.1989H89.1488ZM80.7918 208.296C80.5209 208.07 80.3071 207.784 80.168 207.46C80.0288 207.136 79.9682 206.784 79.9911 206.432C80.0114 205.996 80.1561 205.576 80.408 205.221C80.66 204.866 81.0085 204.59 81.4123 204.427C83.7225 206.016 86.1255 207.465 88.6084 208.767L88.7385 208.837C88.6013 209.617 88.3268 210.367 87.9278 211.051C87.6776 211.462 87.2272 211.362 86.6868 210.891C85.0754 209.374 82.9964 208.452 80.7918 208.276V208.296Z" fill="#FDCE68"/>
<path fill-rule="evenodd" clip-rule="evenodd" d="M160.259 159.504C169.681 185.779 166.878 211.856 151.852 237.737L150.601 239.851C152.982 237.828 155.053 235.464 156.746 232.837C168.479 211.968 171.761 187.385 165.914 164.164C163.632 163.164 161.673 161.547 160.259 159.494V159.504Z" fill="#E38925"/>
<path fill-rule="evenodd" clip-rule="evenodd" d="M226.465 112.627C223.813 112.286 222.622 110.723 223.672 108.188C224.343 106.775 224.579 105.194 224.349 103.647C224.119 102.099 223.434 100.656 222.381 99.4994C221.282 98.3698 219.855 97.6156 218.304 97.3438C216.752 97.072 215.155 97.2964 213.738 97.9852C212.321 98.6741 211.157 99.7923 210.41 101.181C209.664 102.57 209.374 104.159 209.58 105.722C210.009 108.336 210.662 110.907 211.532 113.408C212.413 116.415 205.927 121.746 205.297 127.207C204.696 129.141 215.365 148.441 217.307 146.788C218.938 146.177 221.541 146.237 225.154 146.668C230.929 147.349 235.873 146.317 239.976 143.661C237.112 143.917 234.226 143.755 231.409 143.18C228.689 142.628 226.106 141.538 223.813 139.974C222.148 138.852 220.817 137.301 219.959 135.484C219.568 134.649 219.39 133.73 219.439 132.809C219.456 132.407 219.553 132.013 219.725 131.65C219.897 131.287 220.14 130.962 220.44 130.694C220.612 130.52 220.82 130.387 221.05 130.304C217.908 128.299 217.327 126.466 218.258 124.632C219.189 122.798 221.12 121.626 224.033 120.623L223.732 120.724C220.58 118.529 221.38 115.272 226.405 112.557L226.465 112.627ZM245.141 120.122C230.939 119.321 221.971 120.193 218.988 125.133C218.278 126.315 219.058 127.979 221.41 130.143C221.735 130.028 222.07 129.947 222.411 129.903C224.972 129.734 227.542 129.811 230.088 130.133C235.189 130.72 240.34 130.72 245.441 130.133C247.883 128.129 247.953 122.497 245.131 120.042L245.141 120.122ZM230.028 131.025C227.538 130.714 225.025 130.637 222.521 130.795C221.975 130.838 221.454 131.04 221.02 131.376C220.8 131.572 220.622 131.811 220.496 132.078C220.37 132.345 220.3 132.634 220.29 132.929C220.252 133.714 220.411 134.495 220.75 135.204C221.54 136.882 222.772 138.313 224.313 139.342C226.516 140.844 228.997 141.89 231.609 142.419C234.596 143.024 237.658 143.163 240.687 142.83C241.982 142.73 243.248 142.39 244.42 141.828C245.353 141.384 246.113 140.644 246.582 139.723C247.05 138.727 247.217 137.616 247.062 136.527C246.801 134.606 246.194 132.749 245.271 131.045C240.206 131.613 235.093 131.613 230.028 131.045V131.025ZM224.143 120.684C228.997 119.09 236.353 118.589 245.05 119.371C247.052 116.645 245.961 108.749 239.476 108.839C226.114 110.843 219.569 116.856 224.303 120.623L224.143 120.684Z" fill="#FDCE68"/>
<path fill-rule="evenodd" clip-rule="evenodd" d="M224.664 121.234C218.865 123.907 217.864 126.632 221.661 129.411C223.992 129.144 226.349 129.195 228.667 129.562C234.332 130.394 240.086 130.431 245.761 129.672C246.622 128.2 247.023 126.503 246.91 124.8C246.798 123.098 246.178 121.468 245.131 120.122C247.953 122.577 247.883 128.139 245.441 130.213C240.34 130.799 235.189 130.799 230.088 130.213C227.543 129.891 224.972 129.814 222.412 129.983C222.07 130.027 221.735 130.107 221.411 130.223C219.059 128.029 218.278 126.365 218.989 125.213C220.322 123.236 222.347 121.831 224.664 121.274V121.234Z" fill="#F9A946"/>
<path fill-rule="evenodd" clip-rule="evenodd" d="M244.551 118.459C237.986 117.713 231.343 118.109 224.914 119.631C222.705 117.7 223.373 115.449 226.916 112.877C222.722 115.392 221.561 118.408 224.373 120.623C229.238 119.08 236.524 118.619 245.121 119.37C246.762 117.176 246.352 111.614 242.729 109.59C243.949 110.672 244.792 112.117 245.132 113.713C245.472 115.309 245.293 116.972 244.621 118.459H244.551Z" fill="#F9A946"/>
<path fill-rule="evenodd" clip-rule="evenodd" d="M225.644 145.595C222.301 144.974 219.639 144.593 217.337 145.194C208.329 135.364 204.466 126.866 212.983 115.883C213.309 115.419 213.479 114.863 213.468 114.295C213.457 113.728 213.266 113.178 212.923 112.727C209.801 105.178 210.515 100.097 215.065 97.4849C214.61 97.6088 214.167 97.7766 213.744 97.9859C212.329 98.6773 211.166 99.7956 210.419 101.183C209.672 102.571 209.379 104.159 209.58 105.722C210.009 108.335 210.662 110.907 211.532 113.408C212.413 116.414 205.927 121.745 205.297 127.207C204.696 129.141 215.365 148.441 217.307 146.788C218.938 146.176 221.541 146.236 225.154 146.667C230.929 147.349 235.873 146.317 239.976 143.661C237.112 143.916 234.226 143.754 231.409 143.18C228.689 142.628 226.106 141.537 223.813 139.973C222.148 138.851 220.817 137.3 219.959 135.484C219.568 134.649 219.39 133.73 219.439 132.808C219.456 132.407 219.553 132.013 219.725 131.65C219.897 131.287 220.14 130.962 220.44 130.694C220.612 130.52 220.82 130.386 221.05 130.303C217.908 128.299 217.327 126.465 218.258 124.631C219.089 122.998 220.99 121.695 223.732 120.743C220.58 118.549 221.38 115.292 226.405 112.576C223.752 112.236 222.561 110.672 223.612 108.137C223.612 108.077 223.662 108.007 223.692 107.947C222.261 110.001 222.491 111.654 224.383 112.957C220.74 115.983 220.053 118.475 222.321 120.433C216.156 123.733 215.259 126.986 219.629 130.193C219.066 130.674 218.661 131.314 218.466 132.029C218.272 132.744 218.297 133.501 218.538 134.201C220.74 141.336 226.605 144.733 236.013 144.413C232.723 145.806 229.098 146.206 225.584 145.565L225.644 145.595Z" fill="#F9A946"/>
<path fill-rule="evenodd" clip-rule="evenodd" d="M243.729 141.436C237.164 143.821 226.985 141.917 222.712 137.197C220.109 134.281 220.33 131.926 222.611 130.784H222.481C221.935 130.828 221.414 131.03 220.98 131.365C220.76 131.561 220.582 131.8 220.456 132.067C220.33 132.334 220.26 132.624 220.249 132.918C220.212 133.703 220.37 134.485 220.71 135.193C221.5 136.871 222.732 138.302 224.273 139.332C226.476 140.833 228.957 141.879 231.569 142.408C234.556 143.013 237.618 143.152 240.647 142.819C241.942 142.719 243.208 142.379 244.38 141.817C245.312 141.373 246.072 140.633 246.542 139.713C247.01 138.717 247.177 137.606 247.022 136.516C246.761 134.595 246.154 132.738 245.231 131.034C246.425 133.462 246.723 136.234 246.071 138.861C245.927 139.455 245.632 140.001 245.214 140.447C244.797 140.893 244.272 141.223 243.689 141.406L243.729 141.436Z" fill="#F9A946"/>
<path fill-rule="evenodd" clip-rule="evenodd" d="M244.61 132.348C245.171 135.975 244.47 138.921 242.498 141.296C236.97 142.552 231.184 141.997 225.994 139.713C230.999 142.519 238.495 143.34 243.729 141.436C244.312 141.254 244.837 140.923 245.254 140.477C245.672 140.031 245.967 139.485 246.111 138.891C246.763 136.265 246.465 133.492 245.271 131.065C240.205 131.633 235.093 131.633 230.028 131.065C227.581 130.761 225.112 130.68 222.651 130.824C222.002 131.077 221.47 131.563 221.159 132.188C220.848 132.812 220.781 133.53 220.97 134.201C221.19 132.548 222.792 131.406 225.704 131.826C233.17 132.929 239.416 133.47 244.61 132.388V132.348Z" fill="#FCBB54"/>
<path fill-rule="evenodd" clip-rule="evenodd" d="M222.302 128.259C219.633 126.535 220.043 124.374 223.533 121.775C218.762 124.254 218.145 126.799 221.681 129.411C224.012 129.144 226.369 129.195 228.687 129.562C234.352 130.394 240.106 130.431 245.781 129.672C246.642 128.2 247.043 126.503 246.93 124.8C246.818 123.098 246.198 121.468 245.151 120.122C240.046 119.736 234.918 119.767 229.818 120.212C234.885 119.884 239.972 120.072 245.001 120.773C245.647 122.065 245.977 123.492 245.963 124.937C245.949 126.381 245.592 127.802 244.921 129.081C240.558 129.83 236.101 129.857 231.729 129.161C228.614 128.648 225.468 128.347 222.312 128.259H222.302Z" fill="#FCBB54"/>
<path fill-rule="evenodd" clip-rule="evenodd" d="M243.81 117.888C237.82 117.459 231.802 117.624 225.844 118.379C224.713 118.549 224.673 116.274 225.594 114.721C227.416 111.645 238.985 108.448 242.799 109.771L242.659 109.63C241.681 109.108 240.584 108.849 239.476 108.879C235.052 109.409 230.767 110.769 226.845 112.887C223.309 115.452 222.642 117.704 224.844 119.641C231.289 118.114 237.95 117.717 244.53 118.469C245.145 117.124 245.352 115.628 245.124 114.167C244.897 112.706 244.244 111.344 243.249 110.252C243.864 111.412 244.229 112.688 244.322 113.997C244.415 115.307 244.234 116.622 243.79 117.857L243.81 117.888Z" fill="#FCBB54"/>
<path fill-rule="evenodd" clip-rule="evenodd" d="M224.443 112.987C223.106 113.496 221.986 114.453 221.274 115.695C220.562 116.938 220.303 118.389 220.54 119.801C218.538 120.363 216.817 122.166 216.716 122.808C214.294 131.365 217.047 137.408 223.592 143.33C221.631 143.211 219.664 143.369 217.747 143.801C213.064 140.272 209.935 135.058 209.02 129.261C208.389 125.253 209.56 121.104 212.673 117.296C214.204 115.432 214.204 113.879 213.364 111.494C210.511 103.477 212.143 98.2264 217.147 97.8055C221.861 97.4147 224.563 103.427 222.641 108.568C222.442 108.972 222.33 109.413 222.314 109.864C222.298 110.314 222.378 110.763 222.549 111.18C222.719 111.597 222.976 111.972 223.303 112.282C223.629 112.592 224.018 112.829 224.443 112.977V112.987ZM236.073 144.443C226.665 144.763 220.8 141.366 218.598 134.231C218.357 133.531 218.331 132.774 218.526 132.059C218.721 131.344 219.126 130.704 219.689 130.223C215.325 127.016 216.223 123.763 222.381 120.463C220.119 118.505 220.807 116.013 224.443 112.987C222.551 111.704 222.321 110.051 223.752 107.977C224.377 106.581 224.58 105.033 224.336 103.523C224.093 102.013 223.413 100.607 222.381 99.479C221.451 98.5228 220.282 97.8329 218.995 97.4806C217.709 97.1282 216.352 97.1263 215.065 97.4749C210.515 100.094 209.801 105.174 212.923 112.717C213.266 113.168 213.457 113.718 213.468 114.285C213.479 114.853 213.309 115.409 212.983 115.873C204.466 126.896 208.369 135.354 217.337 145.184C219.599 144.533 222.341 144.964 225.644 145.585C229.158 146.226 232.783 145.826 236.073 144.433V144.443Z" fill="#FCBB54"/>
<path fill-rule="evenodd" clip-rule="evenodd" d="M126.73 254.041C123.703 254.332 120.649 253.97 117.773 252.979C119.573 254.077 121.606 254.736 123.708 254.903C112.452 262.138 108.508 272.125 111.878 284.865C104.387 287.26 96.3328 287.231 88.8584 284.785C86.5981 281.447 84.696 277.88 83.1836 274.143C78.86 264.122 83.3437 260.795 89.7992 253.189C98.9416 242.159 104.185 228.412 104.712 214.088C105.332 201.361 102 189.246 95.1737 177.782C95.6074 175.905 96.5942 174.201 98.0061 172.892C95.434 175.207 93.9227 176.991 93.4623 178.213C96.2947 181.5 99.9378 187.984 101.729 195.89C107.304 220.551 99.8477 240.864 83.3938 258.761C77.759 264.884 79.9208 274.173 87.3972 284.655L87.9276 285.376C93.3322 288.189 101.736 288.229 113.139 285.497C113.049 285.216 112.969 284.945 112.889 284.675C108.885 271.227 113.483 261.032 126.68 254.091L126.73 254.041Z" fill="#CC7D29"/>
<path fill-rule="evenodd" clip-rule="evenodd" d="M157.647 233.509C155.277 236.609 152.339 239.227 148.989 241.225C152.481 239.879 155.547 237.619 157.867 234.681C167.215 241.465 173.01 248.981 174.281 257.398C175.122 262.97 169.407 271.718 158.077 283.513C150.204 282.39 142.183 282.922 134.527 285.076C139.531 274.454 139.451 260.785 131.915 253.931C135.023 252.838 137.698 250.772 139.541 248.039C136.795 250.708 133.395 252.605 129.683 253.54C138.431 260.02 139.732 270.846 133.586 286.018C134.387 285.787 135.198 285.577 136.008 285.387L136.229 285.327C143.312 283.661 150.631 283.244 157.857 284.094L158.568 284.184L158.678 284.064L159.098 283.623C170.107 272.039 176.943 262.499 175.061 255.725C172.509 246.486 165.443 239.251 157.647 233.509Z" fill="#CC7D29"/>
<path fill-rule="evenodd" clip-rule="evenodd" d="M164.422 164.434C171.589 190.729 163.772 226.945 148.339 241.595C151.676 239.247 154.531 236.276 156.746 232.847C168.479 211.978 171.761 187.395 165.914 164.174C165.271 163.89 164.652 163.555 164.062 163.172C162.622 162.254 161.371 161.066 160.379 159.675C161.565 161.374 162.905 162.961 164.382 164.414L164.422 164.434ZM160.259 159.504C161.302 160.602 162.494 161.547 163.802 162.31C164.512 162.721 165.251 163.08 166.014 163.382C176.383 164.444 210.592 154.193 216.266 147.539C215.254 146.872 214.38 146.014 213.694 145.014C210.043 140.011 207.018 134.58 204.687 128.84C200.648 136.361 193.818 141.99 185.67 144.513C194.384 142.055 200.723 137.508 204.687 130.875C207.267 137.042 210.807 142.762 215.175 147.82C205.327 154.584 176.453 162.991 166.194 162.641C164.122 161.798 162.14 160.747 160.279 159.504H160.259Z" fill="#CC7D29"/>
<path fill-rule="evenodd" clip-rule="evenodd" d="M77.9194 213.667C77.5832 213.17 77.3892 212.591 77.3584 211.992C77.3277 211.393 77.4613 210.796 77.7449 210.268C78.0284 209.739 78.4511 209.298 78.967 208.993C79.483 208.688 80.0725 208.53 80.6717 208.536C79.9824 208.511 79.2968 208.649 78.6701 208.937C78.1141 209.182 77.6255 209.558 77.2456 210.032C76.8657 210.507 76.6059 211.066 76.4882 211.663C76.397 212.169 76.4112 212.688 76.5301 213.188C76.6489 213.688 76.8698 214.158 77.1788 214.569C79.5808 213.847 82.2498 214.566 85.1856 216.723C85.4378 216.843 85.7219 216.879 85.9958 216.825C86.2698 216.771 86.5191 216.63 86.7069 216.423C88.8086 214.729 89.6493 212.274 89.0789 208.877C89.297 210.061 89.2408 211.279 88.9146 212.438C88.5883 213.597 88.0008 214.665 87.1973 215.561C86.4266 216.393 85.746 216.563 85.0955 215.972C83.0507 214.328 80.467 213.506 77.8494 213.667H77.9194Z" fill="#F9A946"/>
<path fill-rule="evenodd" clip-rule="evenodd" d="M84.9855 215.09C84.1918 214.359 83.2615 213.792 82.248 213.422C81.2346 213.052 80.1581 212.887 79.0806 212.935C78.1598 212.935 78.2198 211.442 78.5901 210.601C78.7677 210.188 79.0426 209.825 79.3912 209.542C79.7399 209.259 80.1519 209.065 80.5918 208.977C82.1064 208.757 84.0748 209.472 86.4968 211.122H86.4368C84.9495 209.79 83.1057 208.922 81.1323 208.626C80.9656 208.617 80.7985 208.617 80.6319 208.626C80.0326 208.62 79.4431 208.778 78.9271 209.083C78.4112 209.389 77.9885 209.829 77.705 210.358C77.4214 210.887 77.2878 211.483 77.3185 212.082C77.3493 212.681 77.5433 213.261 77.8795 213.757C80.4972 213.596 83.0808 214.418 85.1256 216.062C85.7762 216.643 86.4568 216.483 87.2274 215.651C88.031 214.755 88.6185 213.687 88.9448 212.528C89.271 211.37 89.3272 210.151 89.109 208.967C88.9789 214.779 86.1065 216.222 84.9455 215.16L84.9855 215.09Z" fill="#FCBB54"/>
<path fill-rule="evenodd" clip-rule="evenodd" d="M80.9821 207.865C80.3015 207.484 80.812 204.809 81.5326 204.799C83.4143 206.307 85.4236 207.648 87.5377 208.807C87.7178 209.559 87.5377 210.591 87.3175 210.43C85.0355 208.827 83.0439 207.825 80.9421 207.835L80.9821 207.865ZM80.792 208.296C82.9966 208.472 85.0756 209.395 86.687 210.911C87.2274 211.382 87.6878 211.483 87.928 211.072C88.327 210.387 88.6015 209.638 88.7387 208.857L88.6086 208.787C86.1257 207.486 83.7227 206.037 81.4125 204.448C81.0087 204.611 80.6602 204.886 80.4082 205.241C80.1563 205.597 80.0116 206.017 79.9913 206.452C79.9684 206.804 80.029 207.156 80.1682 207.48C80.3073 207.804 80.5211 208.091 80.792 208.316V208.296Z" fill="#F9A946"/>
<path fill-rule="evenodd" clip-rule="evenodd" d="M87.5776 208.837C85.4635 207.678 83.4542 206.337 81.5725 204.829C80.8519 204.829 80.3415 207.514 81.0221 207.895C83.1238 207.895 85.1155 208.897 87.3975 210.49C87.6277 210.651 87.7978 209.619 87.6176 208.867L87.5776 208.837ZM87.0672 209.899C85.4367 208.476 83.3813 207.634 81.2222 207.504C81.0781 207.083 81.0338 206.633 81.0929 206.191C81.1519 205.75 81.3127 205.328 81.5625 204.959C83.4131 206.472 85.4273 207.773 87.5676 208.837C87.5666 209.041 87.5203 209.242 87.432 209.426C87.3437 209.609 87.2157 209.771 87.0572 209.899H87.0672Z" fill="#FCBB54"/>
<path fill-rule="evenodd" clip-rule="evenodd" d="M109.496 279.654C100.782 283.883 93.7361 283.74 88.3583 279.224C82.0029 270.836 83.0337 263.952 89.8195 256.847C99.1674 247.057 103.301 234.681 103.981 221.343C102.29 233.062 97.3801 244.081 89.7995 253.169C83.344 260.775 78.8602 264.062 83.1839 274.123C84.6759 277.865 86.5579 281.439 88.7986 284.785C96.273 287.231 104.327 287.26 111.818 284.865C108.442 272.125 112.385 262.138 123.648 254.903C121.547 254.736 119.514 254.077 117.713 252.979C111.181 259.893 108.422 268.785 109.436 279.654H109.496Z" fill="#E38925"/>
<path fill-rule="evenodd" clip-rule="evenodd" d="M138.201 281.909C141.537 271.968 141.984 260.678 139.542 248.039C137.698 250.772 135.024 252.838 131.916 253.931C139.452 260.785 139.552 274.454 134.528 285.076C142.184 282.922 150.204 282.39 158.078 283.512C169.407 271.718 175.092 262.97 174.281 257.398C173.01 248.98 167.215 241.465 157.867 234.681C155.547 237.619 152.481 239.879 148.99 241.224C152.354 240.045 155.595 238.542 158.668 236.735C167.896 244.538 172.653 251.653 172.94 258.079C172.08 263.905 166.835 271.735 157.207 281.568C150.911 280.392 144.441 280.508 138.191 281.909H138.201Z" fill="#E38925"/>
<path fill-rule="evenodd" clip-rule="evenodd" d="M88.9689 193.686C88.9354 191.962 89.277 190.253 89.9698 188.675C91.0084 190.645 92.4966 192.341 94.3134 193.625C99.678 197.273 102.32 202.093 101.96 208.376C97.819 207.196 93.4486 207.076 89.2491 208.025C93.6972 207.325 98.2477 207.685 102.53 209.078C103.241 203.135 101.059 198.055 95.8847 193.936C92.3117 191.09 90.1699 188.234 89.5093 185.308C88.9649 188.072 88.7832 190.895 88.9689 193.706V193.686Z" fill="#CC7D29"/>
<path fill-rule="evenodd" clip-rule="evenodd" d="M210.902 144.473C190.137 156.418 173.256 161.428 160.259 159.504C162.12 160.747 164.101 161.798 166.174 162.641C176.432 162.991 205.307 154.624 215.155 147.82C210.79 142.774 207.25 137.068 204.666 130.915C202.077 135.243 198.376 138.797 193.947 141.206H194.007C197.85 139.045 201.296 136.242 204.196 132.919C205.627 137.179 207.909 141.103 210.902 144.453V144.473Z" fill="#E38925"/>
<path fill-rule="evenodd" clip-rule="evenodd" d="M104.812 211.984C105.017 198.627 102.719 185.35 98.0365 172.842C96.6246 174.151 95.6378 175.855 95.2041 177.732C101.66 188.575 104.992 199.989 104.812 211.964V211.984Z" fill="#E38925"/>
<path fill-rule="evenodd" clip-rule="evenodd" d="M68.7016 182.692C70.5832 169.976 75.9777 159.163 82.4532 149.824C84.7997 150.665 86.9152 152.047 88.6281 153.86C90.3409 155.672 91.6029 157.863 92.3115 160.256L92.0613 158.612C91.852 157.074 91.2975 155.603 90.4395 154.311C89.5815 153.018 88.4422 151.936 87.1071 151.147C85.4924 150.165 83.9144 149.139 82.3731 148.07C77.1787 152.86 71.9743 163.893 67.8108 181.41C65.0885 192.844 80.2313 203.456 89.0087 208.025C75.107 199.317 67.5106 190.789 68.7016 182.692Z" fill="#CC7D29"/>
<path fill-rule="evenodd" clip-rule="evenodd" d="M70.503 185.117C70.7432 176.229 75.8074 165.717 83.7442 153.462C86.8134 154.257 89.6692 156.521 92.3114 160.256C91.6027 157.863 90.3408 155.672 88.6279 153.86C86.9151 152.047 84.7995 150.665 82.4531 149.824C75.9776 159.163 70.583 169.976 68.7014 182.692C67.5104 190.789 75.1068 199.317 89.0086 208.025C77.1386 199.858 70.3128 192.232 70.503 185.117Z" fill="#E38925"/>
<path fill-rule="evenodd" clip-rule="evenodd" d="M98.0066 172.842C93.9113 174.738 90.7029 178.14 89.0478 182.343C87.3927 186.545 87.4182 191.225 89.1191 195.409C88.2719 192.349 88.1753 189.129 88.8374 186.024C89.4996 182.918 90.9009 180.019 92.9223 177.572C94.3535 175.733 96.0701 174.136 98.0066 172.842Z" fill="#CC7D29"/>
<path fill-rule="evenodd" clip-rule="evenodd" d="M92.6319 194.758C94.4221 195.743 95.9712 197.115 97.1673 198.774C98.3633 200.432 99.1764 202.336 99.5477 204.348C95.7032 203.791 91.7813 204.176 88.1181 205.47C83.7941 203.305 79.7868 200.557 76.208 197.303C80.0475 201.374 84.3427 204.989 89.0088 208.075H89.2791C93.4786 207.126 97.8489 207.246 101.99 208.426C102.32 202.143 99.7079 197.323 94.3433 193.675C92.5265 192.391 91.0383 190.694 89.9997 188.725C89.3069 190.303 88.9653 192.012 88.9988 193.736C88.9988 194.307 89.0889 194.888 89.1489 195.459C89.2928 194.646 89.5665 193.861 89.9596 193.134C90.8192 193.756 91.7223 194.315 92.6619 194.808L92.6319 194.758Z" fill="#E38925"/>
<path fill-rule="evenodd" clip-rule="evenodd" d="M77.2886 217.685C77.3586 216.052 80.4212 216.232 85.1152 218.337C87.7774 219.529 91.0002 213.957 89.8192 209.057C89.9209 209.956 89.9376 210.861 89.8692 211.763V212.194C89.4589 215.38 86.6065 218.427 84.865 217.124C82.0326 215.02 79.3203 214.438 77.6188 214.97C77.0332 215.117 76.5238 215.479 76.1906 215.983C75.8573 216.487 75.7242 217.098 75.8173 217.695C76.3177 223.367 79.1501 226.714 84.3545 226.824C96.4248 226.995 102.55 221.042 102.73 209.999L102.31 209.869C99.0279 208.801 95.5765 208.352 92.1311 208.546C95.4787 208.635 98.7698 209.431 101.789 210.881C101.319 222.084 93.4923 227.766 81.5922 225.421C78.9199 224.89 77.1584 222.004 77.3386 217.675L77.2886 217.685Z" fill="#F9A946"/>
<path fill-rule="evenodd" clip-rule="evenodd" d="M85.1156 218.337C80.4217 216.232 77.3591 216.052 77.289 217.685C77.1089 222.014 78.8703 224.9 81.5426 225.431C93.4427 227.776 101.269 222.094 101.74 210.891C98.7202 209.441 95.4291 208.645 92.0815 208.556C91.3109 208.556 90.5502 208.676 89.7896 208.787V209.057C90.9706 213.957 87.7879 219.529 85.0856 218.337H85.1156ZM88.1182 218.457C90.1999 216.653 91.1207 213.817 90.4401 209.558C94.0976 208.767 97.917 209.299 101.219 211.061C100.369 222.305 89.2791 227.375 81.973 223.758C79.5509 222.555 79.701 218.276 81.8829 218.938C84.7853 219.8 86.6669 219.729 88.1182 218.457Z" fill="#FCBB54"/>
<path fill-rule="evenodd" clip-rule="evenodd" d="M77.569 214.98C76.9834 215.127 76.474 215.489 76.1408 215.993C75.8075 216.497 75.6744 217.108 75.7675 217.705C76.2679 223.377 79.1003 226.724 84.3047 226.834C96.3749 227.005 102.5 221.052 102.68 210.009L102.26 209.879C98.2438 208.569 93.9817 208.195 89.7994 208.787C89.9336 209.783 89.9604 210.791 89.8794 211.793C89.8794 211.943 89.8794 212.083 89.8794 212.224C89.4691 215.41 86.6167 218.457 84.8752 217.154C82.0428 215.05 79.3305 214.468 77.6291 215L77.569 214.98ZM89.1488 208.877C89.7193 212.274 88.8786 214.729 86.7768 216.422C86.589 216.629 86.3397 216.77 86.0658 216.825C85.7918 216.879 85.5077 216.843 85.2555 216.723C82.2863 214.572 79.6174 213.854 77.2488 214.569C76.9397 214.158 76.7189 213.688 76.6 213.188C76.4812 212.688 76.4669 212.168 76.5582 211.663C76.6759 211.066 76.9357 210.507 77.3156 210.032C77.6954 209.558 78.1841 209.182 78.74 208.937C79.5175 208.587 80.3756 208.455 81.2221 208.556C83.1955 208.852 85.0394 209.719 86.5266 211.051C87.7877 212.053 88.5283 211.612 89.1989 208.877H89.0588H89.1989H89.1488ZM80.7918 208.296C80.5209 208.07 80.3071 207.784 80.168 207.46C80.0288 207.136 79.9682 206.784 79.9911 206.432C80.0114 205.996 80.1561 205.576 80.408 205.221C80.66 204.866 81.0085 204.59 81.4123 204.427C83.7225 206.016 86.1255 207.465 88.6084 208.767L88.7385 208.837C88.6013 209.617 88.3268 210.367 87.9278 211.051C87.6776 211.462 87.2272 211.362 86.6868 210.891C85.0754 209.374 82.9964 208.452 80.7918 208.276V208.296Z" fill="#FDCE68"/>
<path fill-rule="evenodd" clip-rule="evenodd" d="M160.259 159.504C169.681 185.779 166.878 211.856 151.852 237.737L150.601 239.851C152.982 237.828 155.053 235.464 156.746 232.837C168.479 211.968 171.761 187.385 165.914 164.164C163.632 163.164 161.673 161.547 160.259 159.494V159.504Z" fill="#E38925"/>
<path fill-rule="evenodd" clip-rule="evenodd" d="M77.9194 213.667C77.5832 213.17 77.3892 212.591 77.3584 211.992C77.3277 211.393 77.4613 210.796 77.7449 210.268C78.0284 209.739 78.4511 209.298 78.967 208.993C79.483 208.688 80.0725 208.53 80.6717 208.536C79.9824 208.511 79.2968 208.649 78.6701 208.937C78.1141 209.182 77.6255 209.558 77.2456 210.032C76.8657 210.507 76.6059 211.066 76.4882 211.663C76.397 212.169 76.4112 212.688 76.5301 213.188C76.6489 213.688 76.8698 214.158 77.1788 214.569C79.5808 213.847 82.2498 214.566 85.1856 216.723C85.4378 216.843 85.7219 216.879 85.9958 216.825C86.2698 216.771 86.5191 216.63 86.7069 216.423C88.8086 214.729 89.6493 212.274 89.0789 208.877C89.297 210.061 89.2408 211.279 88.9146 212.438C88.5883 213.597 88.0008 214.665 87.1973 215.561C86.4266 216.393 85.746 216.563 85.0955 215.972C83.0507 214.328 80.467 213.506 77.8494 213.667H77.9194Z" fill="#F9A946"/>
<path fill-rule="evenodd" clip-rule="evenodd" d="M84.9855 215.09C84.1918 214.359 83.2615 213.792 82.248 213.422C81.2346 213.052 80.1581 212.887 79.0806 212.935C78.1598 212.935 78.2198 211.442 78.5901 210.601C78.7677 210.188 79.0426 209.825 79.3912 209.542C79.7399 209.259 80.1519 209.065 80.5918 208.977C82.1064 208.757 84.0748 209.472 86.4968 211.122H86.4368C84.9495 209.79 83.1057 208.922 81.1323 208.626C80.9656 208.617 80.7985 208.617 80.6319 208.626C80.0326 208.62 79.4431 208.778 78.9271 209.083C78.4112 209.389 77.9885 209.829 77.705 210.358C77.4214 210.887 77.2878 211.483 77.3185 212.082C77.3493 212.681 77.5433 213.261 77.8795 213.757C80.4972 213.596 83.0808 214.418 85.1256 216.062C85.7762 216.643 86.4568 216.483 87.2274 215.651C88.031 214.755 88.6185 213.687 88.9448 212.528C89.271 211.37 89.3272 210.151 89.109 208.967C88.9789 214.779 86.1065 216.222 84.9455 215.16L84.9855 215.09Z" fill="#FCBB54"/>
<path fill-rule="evenodd" clip-rule="evenodd" d="M80.9821 207.865C80.3015 207.484 80.812 204.809 81.5326 204.799C83.4143 206.307 85.4236 207.648 87.5377 208.807C87.7178 209.559 87.5377 210.591 87.3175 210.43C85.0355 208.827 83.0439 207.825 80.9421 207.835L80.9821 207.865ZM80.792 208.296C82.9966 208.472 85.0756 209.395 86.687 210.911C87.2274 211.382 87.6878 211.483 87.928 211.072C88.327 210.387 88.6015 209.638 88.7387 208.857L88.6086 208.787C86.1257 207.486 83.7227 206.037 81.4125 204.448C81.0087 204.611 80.6602 204.886 80.4082 205.241C80.1563 205.597 80.0116 206.017 79.9913 206.452C79.9684 206.804 80.029 207.156 80.1682 207.48C80.3073 207.804 80.5211 208.091 80.792 208.316V208.296Z" fill="#F9A946"/>
<path fill-rule="evenodd" clip-rule="evenodd" d="M87.5776 208.837C85.4635 207.678 83.4542 206.337 81.5725 204.829C80.8519 204.829 80.3415 207.514 81.0221 207.895C83.1238 207.895 85.1155 208.897 87.3975 210.49C87.6277 210.651 87.7978 209.619 87.6176 208.867L87.5776 208.837ZM87.0672 209.899C85.4367 208.476 83.3813 207.634 81.2222 207.504C81.0781 207.083 81.0338 206.633 81.0929 206.191C81.1519 205.75 81.3127 205.328 81.5625 204.959C83.4131 206.472 85.4273 207.773 87.5676 208.837C87.5666 209.041 87.5203 209.242 87.432 209.426C87.3437 209.609 87.2157 209.771 87.0572 209.899H87.0672Z" fill="#FCBB54"/>
<path fill-rule="evenodd" clip-rule="evenodd" d="M88.9689 193.686C88.9354 191.962 89.277 190.253 89.9698 188.675C91.0084 190.645 92.4966 192.341 94.3134 193.625C99.678 197.273 102.32 202.093 101.96 208.376C97.819 207.196 93.4486 207.076 89.2491 208.025C93.6972 207.325 98.2477 207.685 102.53 209.078C103.241 203.135 101.059 198.055 95.8847 193.936C92.3117 191.09 90.1699 188.234 89.5093 185.308C88.9649 188.072 88.7832 190.895 88.9689 193.706V193.686Z" fill="#CC7D29"/>
<path fill-rule="evenodd" clip-rule="evenodd" d="M104.812 211.984C105.017 198.627 102.719 185.35 98.0365 172.842C96.6246 174.151 95.6378 175.855 95.2041 177.732C101.66 188.575 104.992 199.989 104.812 211.964V211.984Z" fill="#E38925"/>
<path fill-rule="evenodd" clip-rule="evenodd" d="M68.7016 182.692C70.5832 169.976 75.9777 159.163 82.4532 149.824C84.7997 150.665 86.9152 152.047 88.6281 153.86C90.3409 155.672 91.6029 157.863 92.3115 160.256L92.0613 158.612C91.852 157.074 91.2975 155.603 90.4395 154.311C89.5815 153.018 88.4422 151.936 87.1071 151.147C85.4924 150.165 83.9144 149.139 82.3731 148.07C77.1787 152.86 71.9743 163.893 67.8108 181.41C65.0885 192.844 80.2313 203.456 89.0087 208.025C75.107 199.317 67.5106 190.789 68.7016 182.692Z" fill="#CC7D29"/>
<path fill-rule="evenodd" clip-rule="evenodd" d="M70.503 185.117C70.7432 176.229 75.8074 165.717 83.7442 153.462C86.8134 154.257 89.6692 156.521 92.3114 160.256C91.6027 157.863 90.3408 155.672 88.6279 153.86C86.9151 152.047 84.7995 150.665 82.4531 149.824C75.9776 159.163 70.583 169.976 68.7014 182.692C67.5104 190.789 75.1068 199.317 89.0086 208.025C77.1386 199.858 70.3128 192.232 70.503 185.117Z" fill="#E38925"/>
<path fill-rule="evenodd" clip-rule="evenodd" d="M98.0066 172.842C93.9113 174.738 90.7029 178.14 89.0478 182.343C87.3927 186.545 87.4182 191.225 89.1191 195.409C88.2719 192.349 88.1753 189.129 88.8374 186.024C89.4996 182.918 90.9009 180.019 92.9223 177.572C94.3535 175.733 96.0701 174.136 98.0066 172.842Z" fill="#CC7D29"/>
<path fill-rule="evenodd" clip-rule="evenodd" d="M92.6319 194.758C94.4221 195.743 95.9712 197.115 97.1673 198.774C98.3633 200.432 99.1764 202.336 99.5477 204.348C95.7032 203.791 91.7813 204.176 88.1181 205.47C83.7941 203.305 79.7868 200.557 76.208 197.303C80.0475 201.374 84.3427 204.989 89.0088 208.075H89.2791C93.4786 207.126 97.8489 207.246 101.99 208.426C102.32 202.143 99.7079 197.323 94.3433 193.675C92.5265 192.391 91.0383 190.694 89.9997 188.725C89.3069 190.303 88.9653 192.012 88.9988 193.736C88.9988 194.307 89.0889 194.888 89.1489 195.459C89.2928 194.646 89.5665 193.861 89.9596 193.134C90.8192 193.756 91.7223 194.315 92.6619 194.808L92.6319 194.758Z" fill="#E38925"/>
<path fill-rule="evenodd" clip-rule="evenodd" d="M77.2886 217.685C77.3586 216.052 80.4212 216.232 85.1152 218.337C87.7774 219.529 91.0002 213.957 89.8192 209.057C89.9209 209.956 89.9376 210.861 89.8692 211.763V212.194C89.4589 215.38 86.6065 218.427 84.865 217.124C82.0326 215.02 79.3203 214.438 77.6188 214.97C77.0332 215.117 76.5238 215.479 76.1906 215.983C75.8573 216.487 75.7242 217.098 75.8173 217.695C76.3177 223.367 79.1501 226.714 84.3545 226.824C96.4248 226.995 102.55 221.042 102.73 209.999L102.31 209.869C99.0279 208.801 95.5765 208.352 92.1311 208.546C95.4787 208.635 98.7698 209.431 101.789 210.881C101.319 222.084 93.4923 227.766 81.5922 225.421C78.9199 224.89 77.1584 222.004 77.3386 217.675L77.2886 217.685Z" fill="#F9A946"/>
<path fill-rule="evenodd" clip-rule="evenodd" d="M85.1156 218.337C80.4217 216.232 77.3591 216.052 77.289 217.685C77.1089 222.014 78.8703 224.9 81.5426 225.431C93.4427 227.776 101.269 222.094 101.74 210.891C98.7202 209.441 95.4291 208.645 92.0815 208.556C91.3109 208.556 90.5502 208.676 89.7896 208.787V209.057C90.9706 213.957 87.7879 219.529 85.0856 218.337H85.1156ZM88.1182 218.457C90.1999 216.653 91.1207 213.817 90.4401 209.558C94.0976 208.767 97.917 209.299 101.219 211.061C100.369 222.305 89.2791 227.375 81.973 223.758C79.5509 222.555 79.701 218.276 81.8829 218.938C84.7853 219.8 86.6669 219.729 88.1182 218.457Z" fill="#FCBB54"/>
<path fill-rule="evenodd" clip-rule="evenodd" d="M94.4533 238.549C93.9141 241.272 93.0295 243.916 91.8211 246.415H91.9212C93.6305 243.804 95.1716 241.086 96.5351 238.278C79.3906 232.526 69.5122 223.247 71.654 211.021C72.4948 206.291 73.1253 201.919 73.5457 197.904C70.9344 195.38 68.8877 192.33 67.5406 188.955C67.0301 194.707 65.9292 201.712 64.458 210.069C61.9959 224.098 69.162 235.121 83.9344 242.817C70.403 235.182 63.6273 225.281 65.1686 213.296C65.8992 207.604 67.4405 201.471 68.2612 194.617C69.4667 196.01 70.8078 197.279 72.2646 198.405C70.0527 209.879 69.7324 217.695 71.8342 221.553C76.1679 229.5 83.9044 235.051 94.5234 238.508L94.4533 238.549Z" fill="#CC7D29"/>
<path fill-rule="evenodd" clip-rule="evenodd" d="M91.2502 244.221C74.536 238.689 65.862 228.137 65.2282 212.565C65.2282 212.825 65.1581 213.076 65.1281 213.336C63.5868 225.361 70.3625 235.222 83.8939 242.858C86.46 244.193 89.0998 245.38 91.8006 246.415C93.0091 243.916 93.8936 241.272 94.4328 238.549C93.9069 240.698 92.7987 242.661 91.2301 244.221H91.2502Z" fill="#E38925"/>
<path fill-rule="evenodd" clip-rule="evenodd" d="M48.9751 168.463C61.3255 166.058 66.59 168.934 67.6309 178.484C68.2914 175.889 69.1321 172.842 70.143 169.656C67.2005 165.126 62.5465 162.912 56.011 162.972C62.8868 163.463 67.4006 166.188 69.022 169.986C68.5016 171.61 68.0445 173.246 67.6509 174.897C66.263 167.702 59.9744 165.363 48.7849 167.882C48.2549 167.408 47.8769 166.788 47.6988 166.1C47.5207 165.411 47.5503 164.685 47.7841 164.014C47.5598 164.378 47.413 164.784 47.3527 165.207C47.2923 165.63 47.3199 166.061 47.4335 166.473C47.5472 166.885 47.7446 167.269 48.0133 167.601C48.2819 167.933 48.6162 168.206 48.9951 168.403L48.9751 168.463Z" fill="#CC7D29"/>
<path fill-rule="evenodd" clip-rule="evenodd" d="M114.49 174.125C113.843 172.859 113.096 171.646 112.258 170.497C110.658 169.331 108.964 168.298 107.194 167.411C102.236 165.012 98.0224 161.31 95.0038 156.698C94.7053 157.607 94.19 158.429 93.5026 159.093L92.4316 160.146C93.3413 159.672 94.1858 159.083 94.9438 158.392C96.5351 161.759 100.348 165.517 105.683 168.112C109.047 169.401 112.063 171.46 114.49 174.125Z" fill="#CC7D29"/>
<path fill-rule="evenodd" clip-rule="evenodd" d="M112.258 170.497C113.096 171.646 113.843 172.858 114.49 174.125C116.531 176.28 118.358 178.63 119.945 181.139C120.966 179.088 121.569 175.658 121.756 170.848C125.6 174.028 128.792 179.148 131.334 186.21C134.19 179.035 137.86 173.958 142.344 170.978C146.737 168.194 150.731 164.823 154.214 160.957C154.114 160.436 154.004 159.905 153.894 159.374C151.042 162.716 147.563 165.467 143.655 167.471C138.433 170.308 134.37 174.89 132.175 180.418L131.354 182.422L130.584 180.368C128.623 175.266 124.823 171.087 119.935 168.653C120.651 171.284 120.75 174.044 120.225 176.72L119.845 178.724L118.674 177.011C116.902 174.506 114.735 172.306 112.258 170.497Z" fill="#F9A946"/>
<path fill-rule="evenodd" clip-rule="evenodd" d="M155.615 159.164C156.02 159.87 156.564 160.486 157.215 160.975C157.865 161.465 158.608 161.816 159.398 162.01C159.22 160.127 159.563 158.232 160.389 156.531C161.215 154.831 162.493 153.391 164.082 152.369C167.085 150.265 169.967 148.501 172.289 146.648C177.238 146.65 182.152 145.813 186.821 144.172L185.67 144.513C181.158 145.906 176.396 146.293 171.719 145.645C169.161 147.637 166.488 149.474 163.712 151.147C162.367 151.93 161.218 153.01 160.351 154.303C159.485 155.596 158.922 157.07 158.708 158.612L158.457 160.256L157.266 159.093C156.578 158.426 156.063 157.6 155.765 156.688C155.17 157.595 154.525 158.468 153.833 159.304C153.944 159.835 154.054 160.366 154.154 160.887C154.654 160.316 155.155 159.745 155.565 159.164H155.615Z" fill="#CC7D29"/>
<path fill-rule="evenodd" clip-rule="evenodd" d="M87.6175 50.377C86.6167 48.433 86.9669 46.7795 86.3264 44.9256C86.1768 44.4958 85.9643 44.0905 85.6959 43.7231C83.504 40.7169 80.3714 38.4221 76.4981 38.6025C69.7524 38.9332 64.8783 45.9277 63.5572 51.9803C61.5555 61.1695 66.1093 69.0158 73.8358 73.8459C76.7383 75.6496 82.6733 65.3783 83.7042 63.5645C85.2055 60.8989 89.1588 53.4233 87.6175 50.377Z" fill="#BD6B28"/>
<path fill-rule="evenodd" clip-rule="evenodd" d="M86.8467 50.7479C89.0385 55.0869 76.8382 74.7178 74.276 73.1044C50.8062 58.4639 73.005 27.6297 84.9951 44.2143C86.2462 45.9379 85.4955 48.0823 86.8467 50.7479Z" fill="#F7971D"/>
<path fill-rule="evenodd" clip-rule="evenodd" d="M86.8466 50.7479C88.8482 54.7562 78.8398 71.5211 75.1166 73.0844C79.3102 69.6973 87.7974 55.0468 85.9358 51.3291C84.5847 48.6635 85.3353 46.5191 84.0842 44.7955C80.221 39.4443 75.2868 39.0335 71.1733 41.4184C75.457 38.4122 80.8415 38.4623 84.995 44.2143C86.2461 45.9379 85.4954 48.0823 86.8466 50.7479Z" fill="#E98324"/>
<path fill-rule="evenodd" clip-rule="evenodd" d="M83.9645 58.8248C83.4141 57.1614 82.9636 55.4879 82.5933 53.8144C82.3614 52.5934 82.0641 51.3859 81.7026 50.1969C80.3414 46.1184 76.6984 45.1263 72.9252 46.6094C70.9892 47.324 69.3569 48.6823 68.3013 50.4574C67.0624 52.8085 66.6366 55.5043 67.0902 58.1234C67.521 61.0669 68.5424 63.8928 70.0928 66.4307C71.3878 68.6259 73.0579 70.5762 75.0269 72.1927L75.2171 72.343L75.3973 72.1626C79.0247 68.3532 81.9189 63.9063 83.9345 59.0453V58.9551V58.8549L83.9645 58.8248Z" fill="#D74645"/>
<path fill-rule="evenodd" clip-rule="evenodd" d="M83.7041 58.9149C81.6967 63.7416 78.8197 68.1574 75.2169 71.9421C67.2101 65.4886 63.2067 50.6878 73.025 46.8899C76.9484 45.3567 80.2111 46.6093 81.4422 50.307C82.0627 52.1609 82.443 55.1371 83.7041 58.9651V58.9149Z" fill="#F27774"/>
<path fill-rule="evenodd" clip-rule="evenodd" d="M78.9903 67.3824L78.4598 68.0939L78.0594 67.663C75.5851 63.8301 74.3804 59.3138 74.6165 54.7561C74.8299 59.0086 76.2156 63.1188 78.6199 66.6308C78.75 66.9014 78.8701 67.1419 78.9702 67.3623L78.9903 67.3824Z" fill="#D74645"/>
<path fill-rule="evenodd" clip-rule="evenodd" d="M81.5821 60.6581C79.4003 50.0761 75.9307 45.7871 71.1733 47.7913C71.7548 47.4087 72.3755 47.0896 73.0249 46.8394C76.9482 45.3062 80.211 46.5588 81.442 50.2565C81.9624 51.7997 82.3027 54.1145 83.1334 57.0406C82.623 58.2431 82.1326 59.4456 81.5821 60.6581Z" fill="#E8625E"/>
<path fill-rule="evenodd" clip-rule="evenodd" d="M163.211 50.377C164.212 48.433 163.862 46.7795 164.502 44.9256C164.653 44.4979 164.861 44.0932 165.123 43.7231C167.325 40.7169 170.457 38.4221 174.331 38.6025C181.076 38.9332 185.94 45.9277 187.272 51.9803C189.273 61.1695 184.719 69.0158 176.993 73.8459C174.09 75.6496 168.155 65.3783 167.125 63.5645C165.623 60.8989 161.67 53.4233 163.211 50.377Z" fill="#BD6B28"/>
<path fill-rule="evenodd" clip-rule="evenodd" d="M163.972 50.7479C161.78 55.0869 173.981 74.7178 176.543 73.1044C200.013 58.4639 177.814 27.6297 165.824 44.2143C164.573 45.9379 165.323 48.0823 163.972 50.7479Z" fill="#F7971D"/>
<path fill-rule="evenodd" clip-rule="evenodd" d="M163.972 50.7479C161.97 54.7562 171.979 71.5211 175.702 73.0844C171.508 69.6973 163.021 55.0468 164.883 51.3291C166.234 48.6635 165.483 46.5191 166.734 44.7955C170.598 39.4443 175.532 39.0335 179.645 41.4184C175.362 38.4122 169.977 38.4623 165.823 44.2143C164.572 45.9379 165.323 48.0823 163.972 50.7479Z" fill="#E98324"/>
<path fill-rule="evenodd" clip-rule="evenodd" d="M166.864 58.8248C167.401 57.1784 167.855 55.5062 168.225 53.8144C168.496 52.6319 168.736 51.3493 169.126 50.1969C170.487 46.1184 174.13 45.1263 177.904 46.6094C179.84 47.324 181.472 48.6823 182.528 50.4574C183.762 52.8099 184.188 55.5042 183.739 58.1234C183.302 61.0655 182.281 63.8903 180.736 66.4307C179.438 68.6237 177.768 70.5735 175.802 72.1927L175.612 72.343L175.432 72.1626C171.79 68.3468 168.886 63.8893 166.864 59.0152V58.9251V58.8248Z" fill="#D74645"/>
<path fill-rule="evenodd" clip-rule="evenodd" d="M167.115 58.9149C169.119 63.7435 171.996 68.16 175.602 71.9421C183.609 65.4886 187.613 50.6878 177.794 46.8899C173.871 45.3567 170.608 46.6093 169.377 50.307C168.757 52.1609 168.376 55.1371 167.115 58.9651V58.9149Z" fill="#F27774"/>
<path fill-rule="evenodd" clip-rule="evenodd" d="M171.869 67.3824C172.039 67.6229 172.219 67.8534 172.399 68.0939L172.789 67.663C175.257 63.8283 176.451 59.311 176.202 54.7561C175.985 59.0079 174.6 63.1172 172.199 66.6308C172.069 66.9014 171.949 67.1419 171.849 67.3623L171.869 67.3824Z" fill="#D74645"/>
<path fill-rule="evenodd" clip-rule="evenodd" d="M169.237 60.6581C171.419 50.0761 174.888 45.7871 179.646 47.7913C179.064 47.4087 178.443 47.0896 177.794 46.8394C173.871 45.3062 170.608 46.5588 169.377 50.2565C168.857 51.7997 168.516 54.1145 167.686 57.0406C168.196 58.2431 168.686 59.4456 169.237 60.6581Z" fill="#E8625E"/>
<path fill-rule="evenodd" clip-rule="evenodd" d="M103.741 34.3837H103.141L97.596 34.514L102.81 32.7102C107.415 31.1286 112.37 30.8717 117.113 31.9687C116.611 31.5282 116.048 31.1636 115.441 30.8864L113.099 29.7942L115.621 29.2631C118.877 28.5734 122.272 29.0972 125.169 30.7361C128.659 26.338 133.584 23.3115 139.081 22.1883C139.756 21.9894 140.468 21.9474 141.161 22.0655C141.855 22.1836 142.513 22.4586 143.084 22.8697C141.881 23.0485 140.707 23.3855 139.592 23.8718C137.774 24.551 136.161 25.6864 134.908 27.1692C133.655 28.652 132.804 30.4324 132.435 32.3395C137.536 30.8749 142.963 31.0184 147.979 32.7503L153.223 34.5441L147.678 34.4138H147.078C151.39 34.8059 155.452 36.6171 158.628 39.5645C164.132 44.7353 166.955 53.4134 169.967 60.2175C173.62 68.4647 177.894 75.4994 186.111 79.8985C191.295 82.6643 193.927 88.1958 194.618 93.8376C195.559 101.554 196.41 109.119 198.621 116.595L199.382 119.1L197.29 117.527C195.58 116.258 194.077 114.73 192.837 112.997C193.074 116.098 192.633 119.214 191.545 122.126C189.944 126.345 189.404 130.634 190.925 134.943L191.505 136.587L189.854 136.045C187.63 135.201 185.75 133.639 184.51 131.606C179.455 139.934 171.929 146.157 163.662 151.177C162.317 151.961 161.168 153.04 160.302 154.333C159.435 155.626 158.872 157.1 158.658 158.643L158.407 160.286L157.216 159.124C156.529 158.456 156.013 157.63 155.715 156.719C152.64 161.272 148.449 164.96 143.545 167.431C138.323 170.268 134.26 174.85 132.065 180.378L131.244 182.382L130.474 180.328C128.513 175.227 124.713 171.047 119.825 168.613C120.541 171.244 120.64 174.005 120.115 176.68L119.735 178.684L118.674 177.011C115.706 172.903 111.76 169.603 107.194 167.411C102.236 165.012 98.0224 161.31 95.0039 156.699C94.7054 157.607 94.1901 158.429 93.5026 159.093L92.3116 160.256L92.0614 158.612C91.852 157.074 91.2976 155.604 90.4396 154.311C89.5816 153.018 88.4423 151.936 87.1072 151.147C78.8402 146.136 71.3138 139.904 66.2596 131.576C65.0194 133.609 63.1392 135.17 60.915 136.015L59.2636 136.557L59.8441 134.913C61.3654 130.604 60.845 126.315 59.2236 122.096C58.136 119.183 57.6954 116.068 57.9325 112.967C56.6917 114.7 55.1891 116.228 53.4787 117.497L51.387 119.07L52.1476 116.565C54.4095 109.089 55.2602 101.534 56.201 93.8075C56.8916 88.1657 59.5238 82.6342 64.7082 79.8685C72.9252 75.4693 77.1988 68.4347 80.8519 60.1875C83.8544 53.3833 86.6868 44.7052 92.1915 39.5345C95.3664 36.5858 99.4283 34.7743 103.741 34.3837Z" fill="#8F361F"/>
<path fill-rule="evenodd" clip-rule="evenodd" d="M112.118 35.406C79.2407 31.1472 89.7095 67.4728 65.0787 80.6202C60.8151 82.905 57.8026 87.5847 57.0219 93.9079C56.1212 101.303 55.3105 108.939 52.9385 116.806C56.2234 114.386 58.6529 110.981 59.8743 107.085C58.2629 111.864 58.3088 117.047 60.0044 121.796C61.7759 126.486 62.1362 130.905 60.625 135.204C62.7201 134.536 64.5983 132.776 66.2597 129.923C70.9137 138.19 78.1798 144.734 87.5177 150.416C88.9618 151.267 90.1941 152.435 91.1217 153.832C92.0492 155.23 92.6478 156.82 92.8722 158.482C93.4951 157.879 93.9507 157.124 94.1946 156.291C94.4384 155.459 94.4621 154.577 94.2634 153.732C97.1633 159.374 101.828 163.911 107.545 166.649C112.243 168.896 116.301 172.291 119.345 176.52C119.974 173.334 119.665 170.033 118.454 167.02C121.385 168.181 124.044 169.938 126.263 172.181C128.482 174.423 130.212 177.102 131.345 180.047C133.61 174.331 137.812 169.595 143.215 166.669C149.16 163.493 153.664 159.314 156.496 153.753C156.297 154.597 156.321 155.479 156.565 156.311C156.809 157.144 157.264 157.899 157.887 158.502C158.112 156.84 158.71 155.25 159.638 153.852C160.565 152.455 161.798 151.287 163.242 150.436C172.58 144.754 179.846 138.21 184.5 129.943C186.161 132.779 188.033 134.543 190.134 135.224C188.623 130.925 188.983 126.506 190.755 121.816C192.451 117.067 192.497 111.884 190.885 107.105C192.107 111.001 194.536 114.406 197.821 116.826C195.449 108.999 194.638 101.323 193.738 93.9279C192.957 87.6048 189.944 82.9049 185.671 80.6402C161.08 67.4928 171.539 31.1672 138.631 35.4261C141.448 34.1125 144.532 33.471 147.639 33.5522C142.358 31.7381 136.625 31.7381 131.345 33.5522C131.523 31.2323 132.36 29.0117 133.757 27.1527C135.155 25.2936 137.054 23.8737 139.231 23.0603C133.675 24.1939 128.732 27.3412 125.35 31.8987C122.515 30.0662 119.072 29.432 115.772 30.135C117.313 30.8418 118.575 32.0446 119.355 33.5522C114.074 31.7381 108.341 31.7381 103.061 33.5522C106.168 33.471 109.251 34.1125 112.068 35.4261L112.118 35.406Z" fill="#C64A29"/>
<path fill-rule="evenodd" clip-rule="evenodd" d="M57.0517 93.908C56.1509 101.303 55.3403 108.939 52.9683 116.806C56.2532 114.386 58.6827 110.981 59.9041 107.085C58.2927 111.864 58.3385 117.047 60.0342 121.796C61.8057 126.486 62.166 130.905 60.6548 135.204C62.7499 134.536 64.6281 132.776 66.2895 129.923C70.9435 138.19 78.2096 144.734 87.5475 150.416C88.9916 151.267 90.2239 152.435 91.1515 153.832C92.079 155.23 92.6776 156.82 92.902 158.483C93.5248 157.879 93.9805 157.124 94.2243 156.292C94.4682 155.459 94.4919 154.577 94.2932 153.733C97.1931 159.375 101.858 163.911 107.574 166.65C112.273 168.896 116.331 172.291 119.374 176.52C120.004 173.334 119.694 170.033 118.484 167.02C121.415 168.181 124.074 169.939 126.293 172.181C128.512 174.423 130.242 177.102 131.375 180.047C133.639 174.331 137.842 169.595 143.245 166.67C149.19 163.493 153.693 159.314 156.526 153.753C156.327 154.597 156.351 155.479 156.595 156.312C156.839 157.144 157.294 157.899 157.917 158.503C158.141 156.84 158.74 155.25 159.668 153.853C160.595 152.455 161.827 151.287 163.272 150.436C172.609 144.754 179.876 138.21 184.529 129.943C186.191 132.779 188.062 134.543 190.164 135.224C188.653 130.925 189.013 126.506 190.785 121.816C192.48 117.067 192.526 111.884 190.915 107.106C192.136 111.001 194.566 114.406 197.851 116.826C195.479 108.999 194.668 101.323 193.767 93.9281C192.987 87.6049 189.974 82.9051 185.7 80.6404C189.604 83.326 192.406 88.1561 193.057 95.2508C193.547 100.562 193.877 105.883 195.058 111.084C192.773 108.199 190.706 105.147 188.873 101.955C190.945 109.501 190.965 116.104 188.873 121.746C187.707 124.833 187.409 128.181 188.012 131.426C186.565 130.009 185.589 128.179 185.22 126.185C179.695 136.133 172.446 143.545 163.472 148.422C161.959 149.034 160.637 150.041 159.645 151.338C158.652 152.635 158.024 154.175 157.827 155.797C157.259 154.014 157.119 152.123 157.417 150.275C153.713 156.926 148.146 162.347 141.403 165.868C136.859 168.313 134.037 172.321 131.695 176.891C128.582 171.139 122.787 166.81 116.612 164.665C117.614 167.071 118.012 169.686 117.773 172.281C115.271 169.185 111.588 166.108 104.842 162.992C101.079 161.248 96.8954 156.589 93.5626 150.626C93.8796 152.447 93.7315 154.319 93.1322 156.068C92.1313 152.119 90.2197 149.875 82.6433 145.656C76.7384 142.369 69.0318 133.701 66.4697 127.438C65.7573 129.978 64.1641 132.181 61.9759 133.651C62.7316 129.519 62.3864 125.261 60.975 121.305C59.1835 115.703 59.774 109.671 60.975 103.919C59.2933 107.626 57.0927 111.075 54.4395 114.16C56.3791 107.585 57.2543 100.741 57.0317 93.888L57.0517 93.908Z" fill="#B14226"/>
<path fill-rule="evenodd" clip-rule="evenodd" d="M103.19 138.04C103.464 139.015 103.798 139.973 104.191 140.906C107.454 148.832 116.872 152.38 125.439 152.38C134.007 152.38 143.455 148.832 146.687 140.906C147.081 139.973 147.415 139.015 147.688 138.04C152.423 137.256 156.897 135.329 160.721 132.425C164.545 129.522 167.605 125.729 169.637 121.375C173.76 112.537 173.7 101.955 168.316 93.8278C164.042 87.4044 160.219 78.566 155.204 67.5932C148.088 52.0007 138.45 50.2971 129.182 61.1999C126.61 64.2061 124.268 64.2061 121.696 61.1999C112.468 50.2971 102.82 52.0007 95.6741 67.5932C90.6699 78.566 86.8367 87.4044 82.563 93.8278C77.1785 101.955 77.1185 112.537 81.2419 121.375C83.2724 125.728 86.3311 129.52 90.1535 132.423C93.9759 135.327 98.4471 137.255 103.18 138.04H103.19Z" fill="#F7971D"/>
<path fill-rule="evenodd" clip-rule="evenodd" d="M169.577 96.1021C173.58 103.868 173.31 113.338 169.577 121.375C167.572 125.673 164.564 129.425 160.807 132.315C157.049 135.205 152.653 137.147 147.989 137.979C148.159 134.331 149.341 130.802 151.402 127.788C150.483 130.072 150.288 132.584 150.841 134.983C154.678 133.744 158.223 131.738 161.263 129.087C164.303 126.436 166.774 123.195 168.527 119.56C170.279 115.925 171.277 111.972 171.459 107.94C171.641 103.908 171.004 99.8806 169.587 96.1021H169.577Z" fill="#E38925"/>
<path fill-rule="evenodd" clip-rule="evenodd" d="M81.2321 96.1021C77.2288 103.868 77.509 113.338 81.2321 121.375C83.2362 125.672 86.2427 129.423 89.9981 132.313C93.7535 135.202 98.1477 137.146 102.81 137.979C102.636 134.332 101.454 130.804 99.3975 127.788C100.316 130.072 100.511 132.584 99.958 134.983C96.1221 133.743 92.5773 131.736 89.5378 129.085C86.4984 126.434 84.0274 123.193 82.2743 119.559C80.5211 115.925 79.5222 111.972 79.3379 107.941C79.1536 103.909 79.7878 99.8815 81.2021 96.1021H81.2321Z" fill="#E38925"/>
<path fill-rule="evenodd" clip-rule="evenodd" d="M125.409 152.379C133.967 152.379 143.425 148.832 146.657 140.905C147.051 139.972 147.385 139.015 147.658 138.039C152.394 137.255 156.867 135.328 160.691 132.425C164.515 129.521 167.575 125.728 169.607 121.375C173.35 113.358 173.61 103.868 169.607 96.1021C171.389 100.144 172.253 104.532 172.136 108.949C172.018 113.366 170.923 117.702 168.928 121.644C166.934 125.585 164.09 129.034 160.602 131.741C157.114 134.449 153.069 136.346 148.759 137.298C149.16 134.011 150.057 130.804 151.421 127.788C149.42 129.431 148.169 132.388 147.418 136.636C143.945 156.678 106.914 156.678 103.431 136.636C102.7 132.388 101.429 129.431 99.4275 127.788C100.792 130.804 101.689 134.011 102.09 137.298C97.7802 136.346 93.7354 134.448 90.2473 131.741C86.7592 129.034 83.9149 125.586 81.9194 121.644C79.924 117.703 78.8273 113.368 78.7084 108.951C78.5896 104.533 79.4515 100.145 81.2321 96.1021C77.2288 103.868 77.509 113.338 81.2321 121.375C83.2626 125.727 86.3213 129.519 90.1437 132.423C93.9661 135.326 98.4373 137.254 103.171 138.039C103.444 139.015 103.778 139.972 104.172 140.905C107.434 148.832 116.852 152.379 125.419 152.379H125.409Z" fill="#CC7D29"/>
<path fill-rule="evenodd" clip-rule="evenodd" d="M103.191 138.04C103.464 139.015 103.798 139.972 104.191 140.906C107.454 148.832 116.872 152.38 125.439 152.38C134.007 152.38 143.455 148.832 146.687 140.906C147.081 139.972 147.415 139.015 147.688 138.04C152.15 137.29 156.38 135.524 160.052 132.877C163.724 130.231 166.739 126.776 168.866 122.778C172.099 112.046 160.979 93.567 139.011 108.989C138.435 112.181 136.757 115.069 134.271 117.149C131.785 119.228 128.649 120.368 125.409 120.368C122.17 120.368 119.033 119.228 116.547 117.149C114.061 115.069 112.384 112.181 111.808 108.989C89.8392 93.567 78.7199 112.046 81.9526 122.778C84.0854 126.783 87.1104 130.243 90.7933 132.89C94.4762 135.536 98.7181 137.298 103.191 138.04Z" fill="#FDCE68"/>
<path fill-rule="evenodd" clip-rule="evenodd" d="M169.367 117.617C169.519 119.353 169.349 121.103 168.866 122.778C166.762 126.73 163.788 130.152 160.17 132.785C156.551 135.419 152.383 137.195 147.979 137.979C148.149 134.331 149.33 130.802 151.391 127.788C150.473 130.072 150.278 132.584 150.831 134.983C154.667 133.744 158.213 131.738 161.253 129.087C164.292 126.437 166.763 123.196 168.516 119.561C168.826 118.92 169.106 118.278 169.367 117.617Z" fill="#FDC55F"/>
<path fill-rule="evenodd" clip-rule="evenodd" d="M81.4524 117.617C81.3 119.353 81.4697 121.103 81.9528 122.778C84.0543 126.726 87.0233 130.146 90.6362 132.779C94.2491 135.412 98.4117 137.19 102.81 137.979C102.636 134.332 101.454 130.804 99.3975 127.788C100.316 130.072 100.511 132.584 99.958 134.983C96.1215 133.744 92.5761 131.738 89.5363 129.087C86.4965 126.437 84.0256 123.196 82.2731 119.561C81.9628 118.92 81.6826 118.278 81.4223 117.617H81.4524Z" fill="#FDC55F"/>
<path fill-rule="evenodd" clip-rule="evenodd" d="M107.414 76.9324C109.686 76.9348 111.887 77.7216 113.646 79.16C115.405 80.5983 116.615 82.6003 117.071 84.828C117.527 87.0557 117.202 89.3728 116.15 91.3884C115.099 93.404 113.385 94.9946 111.298 95.8919C109.635 94.5301 107.712 93.5235 105.647 92.9341C103.581 92.3447 101.417 92.185 99.2875 92.4647C98.2524 90.9848 97.6429 89.2488 97.5253 87.4459C97.4078 85.643 97.7868 83.8423 98.6209 82.2402C99.455 80.6381 100.712 79.2959 102.256 78.36C103.799 77.4241 105.57 76.9303 107.374 76.9324H107.414Z" fill="white"/>
<path fill-rule="evenodd" clip-rule="evenodd" d="M97.1958 92.8958C100.415 92.0123 103.832 92.1769 106.952 93.3658C110.071 94.5548 112.733 96.7064 114.55 99.5096C112.454 97.0258 109.762 95.116 106.726 93.9592C103.69 92.8024 100.411 92.4364 97.1958 92.8958Z" fill="#CD7E29"/>
<path fill-rule="evenodd" clip-rule="evenodd" d="M143.404 76.9324C141.132 76.9325 138.93 77.7176 137.169 79.1552C135.408 80.5928 134.196 82.5948 133.739 84.8231C133.281 87.0514 133.606 89.3696 134.657 91.3862C135.709 93.4028 137.423 94.9942 139.511 95.8919C141.174 94.5316 143.098 93.526 145.163 92.9367C147.228 92.3473 149.392 92.1867 151.521 92.4647C152.556 90.9848 153.166 89.2488 153.283 87.4459C153.401 85.643 153.022 83.8423 152.188 82.2402C151.354 80.6381 150.096 79.2959 148.553 78.36C147.009 77.4241 145.239 76.9303 143.434 76.9324H143.404Z" fill="white"/>
<path fill-rule="evenodd" clip-rule="evenodd" d="M153.623 92.8958C150.404 92.0123 146.987 92.1769 143.867 93.3658C140.748 94.5548 138.086 96.7064 136.269 99.5096C138.365 97.0258 141.057 95.116 144.093 93.9592C147.129 92.8024 150.408 92.4364 153.623 92.8958Z" fill="#CD7E29"/>
<path fill-rule="evenodd" clip-rule="evenodd" d="M109.046 80.7002C107.839 80.3763 106.564 80.4178 105.381 80.8195C104.199 81.2212 103.161 81.9651 102.401 82.957C101.64 83.949 101.19 85.1445 101.108 86.3923C101.026 87.6402 101.316 88.8844 101.94 89.9676C102.564 91.0508 103.495 91.9243 104.615 92.4778C105.735 93.0312 106.994 93.2397 108.232 93.0769C109.471 92.914 110.633 92.3872 111.572 91.563C112.512 90.7387 113.186 89.6541 113.51 88.4463C113.725 87.6442 113.78 86.8076 113.672 85.9842C113.564 85.1608 113.295 84.3668 112.88 83.6475C112.466 82.9282 111.914 82.2977 111.256 81.792C110.598 81.2863 109.847 80.9153 109.046 80.7002Z" fill="#B12F24"/>
<path fill-rule="evenodd" clip-rule="evenodd" d="M108.555 82.524C107.708 82.2979 106.813 82.3284 105.983 82.6118C105.153 82.8952 104.425 83.4187 103.892 84.116C103.359 84.8134 103.045 85.6533 102.989 86.5296C102.933 87.4059 103.137 88.2791 103.577 89.0388C104.017 89.7986 104.671 90.4108 105.459 90.798C106.246 91.1851 107.13 91.3299 107.999 91.2139C108.868 91.0979 109.684 90.7264 110.342 90.1464C111.001 89.5664 111.472 88.8039 111.698 87.9554C111.851 87.3921 111.89 86.8042 111.814 86.2255C111.739 85.6469 111.549 85.0889 111.257 84.584C110.965 84.079 110.576 83.637 110.112 83.2835C109.648 82.9299 109.119 82.6718 108.555 82.524Z" fill="black"/>
<path fill-rule="evenodd" clip-rule="evenodd" d="M105.913 81.8126C105.589 81.7268 105.248 81.739 104.932 81.8474C104.615 81.9558 104.338 82.1557 104.135 82.4218C103.932 82.6879 103.813 83.0082 103.791 83.3423C103.77 83.6764 103.848 84.0094 104.016 84.299C104.184 84.5886 104.434 84.822 104.734 84.9696C105.034 85.1172 105.371 85.1725 105.702 85.1284C106.034 85.0843 106.345 84.9428 106.596 84.7218C106.847 84.5009 107.027 84.2103 107.114 83.8869C107.227 83.4524 107.164 82.9908 106.939 82.6024C106.714 82.2139 106.345 81.9301 105.913 81.8126Z" fill="white"/>
<path fill-rule="evenodd" clip-rule="evenodd" d="M109.866 89.7291C109.651 89.7348 109.443 89.8099 109.274 89.9432C109.104 90.0766 108.982 90.2611 108.926 90.4694C108.87 90.6776 108.882 90.8985 108.962 91.0991C109.041 91.2998 109.183 91.4695 109.366 91.583C109.498 91.6651 109.648 91.7151 109.804 91.729C109.959 91.7428 110.115 91.7202 110.26 91.6628C110.405 91.6054 110.535 91.515 110.639 91.3985C110.743 91.2821 110.818 91.143 110.859 90.9923C110.899 90.8416 110.904 90.6835 110.873 90.5305C110.842 90.3776 110.775 90.234 110.679 90.1113C110.583 89.9886 110.459 89.8901 110.318 89.8238C110.177 89.7574 110.022 89.725 109.866 89.7291Z" fill="white"/>
<path fill-rule="evenodd" clip-rule="evenodd" d="M145.046 80.7002C143.839 80.3763 142.564 80.4178 141.381 80.8195C140.199 81.2212 139.161 81.9651 138.401 82.957C137.64 83.949 137.19 85.1445 137.108 86.3923C137.026 87.6402 137.316 88.8844 137.94 89.9676C138.564 91.0508 139.495 91.9243 140.615 92.4778C141.735 93.0312 142.994 93.2397 144.232 93.0769C145.471 92.914 146.633 92.3872 147.572 91.563C148.512 90.7387 149.186 89.6541 149.51 88.4463C149.725 87.6442 149.78 86.8076 149.672 85.9842C149.564 85.1608 149.295 84.3668 148.88 83.6475C148.466 82.9282 147.914 82.2977 147.256 81.792C146.598 81.2863 145.847 80.9153 145.046 80.7002Z" fill="#B12F24"/>
<path fill-rule="evenodd" clip-rule="evenodd" d="M144.556 82.5236C143.709 82.2955 142.813 82.3242 141.982 82.606C141.151 82.8879 140.422 83.4101 139.888 84.1068C139.354 84.8034 139.038 85.6431 138.98 86.5196C138.923 87.3961 139.126 88.27 139.565 89.0306C140.004 89.7913 140.658 90.4045 141.445 90.7927C142.232 91.1809 143.116 91.3267 143.986 91.2115C144.855 91.0964 145.672 90.7254 146.331 90.1457C146.99 89.566 147.462 88.8036 147.688 87.9549C147.991 86.8188 147.831 85.6088 147.244 84.5906C146.657 83.5723 145.69 82.8289 144.556 82.5236Z" fill="black"/>
<path fill-rule="evenodd" clip-rule="evenodd" d="M141.914 81.8126C141.591 81.725 141.249 81.7352 140.932 81.8421C140.614 81.949 140.336 82.1477 140.132 82.4131C139.927 82.6784 139.806 82.9985 139.784 83.3329C139.761 83.6672 139.838 84.0007 140.005 84.2912C140.172 84.5817 140.421 84.8162 140.721 84.9649C141.021 85.1136 141.358 85.1698 141.69 85.1265C142.022 85.0832 142.333 84.9423 142.585 84.7217C142.837 84.501 143.018 84.2105 143.105 83.8869C143.218 83.4539 143.157 82.9934 142.934 82.6052C142.711 82.217 142.345 81.9323 141.914 81.8126Z" fill="white"/>
<path fill-rule="evenodd" clip-rule="evenodd" d="M145.847 89.7289C145.655 89.6691 145.448 89.6688 145.256 89.7281C145.063 89.7875 144.893 89.9037 144.767 90.0615C144.642 90.2193 144.567 90.4114 144.552 90.6127C144.537 90.814 144.584 91.015 144.685 91.1895C144.786 91.3639 144.938 91.5037 145.12 91.5905C145.302 91.6773 145.505 91.7071 145.705 91.676C145.904 91.6449 146.089 91.5543 146.236 91.4161C146.383 91.2778 146.484 91.0985 146.528 90.9014C146.582 90.6561 146.542 90.3995 146.415 90.1824C146.289 89.9653 146.087 89.8034 145.847 89.7289Z" fill="white"/>
<path fill-rule="evenodd" clip-rule="evenodd" d="M112.338 109.34C113.054 112.269 114.731 114.873 117.1 116.734C119.469 118.596 122.393 119.608 125.404 119.608C128.416 119.608 131.34 118.596 133.709 116.734C136.078 114.873 137.755 112.269 138.47 109.34C137.159 105.672 133.466 105.332 127.241 108.338C126.67 108.615 126.044 108.758 125.409 108.758C124.775 108.758 124.149 108.615 123.578 108.338C117.393 105.332 113.659 105.622 112.338 109.34Z" fill="#D96727"/>
<path fill-rule="evenodd" clip-rule="evenodd" d="M147.458 136.306C143.455 143.481 134.898 148.121 125.44 148.121C115.982 148.121 107.424 143.481 103.421 136.306L103.481 136.637C106.964 156.678 143.995 156.678 147.468 136.637L147.528 136.306H147.458Z" fill="#FCBB54"/>
<path fill-rule="evenodd" clip-rule="evenodd" d="M144.996 135.364C143.089 138.901 140.261 141.856 136.813 143.916C133.365 145.975 129.424 147.063 125.409 147.063C121.394 147.063 117.454 145.975 114.006 143.916C110.558 141.856 107.73 138.901 105.823 135.364C104.542 128.58 101.049 122.126 97.5659 116.244L97.4258 116.004L97.8962 115.723L98.0363 115.954C103.481 124.972 116.152 128.049 125.309 122.968L125.439 122.898L125.57 122.968C134.727 128.029 147.388 124.972 152.843 115.954L152.983 115.723L153.453 116.004L153.313 116.244C149.83 122.126 146.307 128.58 145.056 135.364H144.996Z" fill="#F9A946"/>
<path fill-rule="evenodd" clip-rule="evenodd" d="M106.063 135.234C107.955 138.719 110.75 141.628 114.155 143.656C117.56 145.683 121.448 146.753 125.41 146.753C129.371 146.753 133.259 145.683 136.664 143.656C140.069 141.628 142.865 138.719 144.756 135.234C146.037 128.46 149.54 121.956 153.043 116.024C147.538 125.163 134.748 128.32 125.41 123.149C116.072 128.32 103.281 125.153 97.7764 116.024C101.279 121.956 104.782 128.46 106.063 135.234Z" fill="#851619"/>
<path fill-rule="evenodd" clip-rule="evenodd" d="M103.191 138.04C103.464 139.015 103.798 139.972 104.192 140.906L104.342 141.276L104.512 141.637L104.692 141.988L104.872 142.339C104.932 142.459 105.002 142.569 105.062 142.679L105.263 143.02L105.473 143.351L105.693 143.671L105.913 143.992L106.143 144.303L106.383 144.603L106.634 144.904C106.712 145.005 106.795 145.102 106.884 145.195C106.965 145.296 107.052 145.393 107.144 145.485L107.414 145.766L107.685 146.036L107.965 146.307L108.245 146.567L108.545 146.828C108.645 146.908 108.735 146.998 108.846 147.079L109.146 147.319L109.456 147.56L109.766 147.79L110.087 148.021L110.417 148.241L110.747 148.451L111.087 148.662L111.428 148.862L111.768 149.063L112.118 149.253L112.469 149.433L112.829 149.614L113.189 149.784L113.559 149.955L113.92 150.115L114.3 150.275L114.67 150.426L115.051 150.566L115.431 150.706L115.811 150.836L116.202 150.967L116.592 151.087L116.982 151.207L117.373 151.317L117.773 151.418L118.163 151.518L118.564 151.618L118.964 151.698L119.364 151.788L119.775 151.858L120.175 151.939L120.575 151.999L120.986 152.059L121.386 152.119H121.796L122.197 152.169H122.607H123.018H123.418H123.828H124.229H125.44C133.997 152.169 143.455 148.622 146.688 140.695C147.081 139.762 147.415 138.805 147.688 137.829L148.129 137.759H148.289L148.569 137.709H148.739L148.999 137.659H149.19L149.43 137.599H149.64L149.85 137.549L150.07 137.499L150.281 137.438L150.501 137.388L150.701 137.328L150.921 137.268L151.131 137.208L151.341 137.148L151.552 137.088L151.752 137.018L151.972 136.947L152.172 136.887L152.382 136.817L152.592 136.737L152.793 136.667L153.003 136.597L153.203 136.517L153.413 136.436L153.613 136.366L153.814 136.286L154.004 136.206L154.224 136.116L154.394 136.046L154.624 135.945L154.774 135.875L155.685 135.464H155.785L156.035 135.344L156.176 135.264L156.406 135.154L156.556 135.074L156.796 134.943L156.856 134.923L157.086 134.793L157.236 134.713L157.467 134.583L157.607 134.502L157.837 134.362L157.977 134.282L158.217 134.132L158.337 134.061L158.568 133.911L158.708 133.821L158.938 133.681L159.058 133.6L159.298 133.44L159.408 133.36L159.648 133.19L159.749 133.119L160.009 132.939L160.089 132.889L160.359 132.689H160.409L160.699 132.468C161.582 131.79 162.427 131.064 163.231 130.294L163.512 130.023L163.782 129.752L164.042 129.482L164.302 129.201C164.392 129.101 164.483 129.011 164.563 128.911C164.653 128.821 164.733 128.72 164.823 128.62L165.083 128.319C166.367 126.809 167.497 125.174 168.456 123.439L168.656 123.069C168.839 122.441 168.976 121.802 169.066 121.155C168.946 121.415 168.816 121.676 168.686 121.936C166.693 125.878 163.849 129.327 160.361 132.034C156.874 134.741 152.829 136.638 148.519 137.589C148.919 134.302 149.817 131.095 151.181 128.079C149.18 129.722 147.929 132.679 147.178 136.927C143.705 156.969 106.674 156.969 103.191 136.927C102.46 132.679 101.189 129.722 99.1874 128.079C100.552 131.095 101.449 134.302 101.85 137.589C97.5399 136.638 93.495 134.741 90.0072 132.034C86.5194 129.327 83.6761 125.878 81.6826 121.936C81.5525 121.676 81.4223 121.415 81.3022 121.155C81.3879 121.802 81.5251 122.443 81.7126 123.069L81.9127 123.439C82.8718 125.174 84.0017 126.809 85.2856 128.319L85.5458 128.62C85.6359 128.72 85.716 128.821 85.8061 128.911C85.8861 129.011 85.9762 129.101 86.0663 129.201L86.3265 129.482L86.5867 129.752L86.8569 130.023L87.1372 130.294C87.9414 131.064 88.7867 131.79 89.6693 132.468L89.9696 132.689L90.2398 132.889L90.3198 132.939L90.5701 133.119L90.6702 133.19L90.9204 133.36L91.0305 133.44L91.2707 133.6L91.3908 133.681L91.621 133.821L91.7511 133.911L91.9913 134.061L92.1114 134.132L92.3516 134.282L92.4917 134.362L92.7219 134.502L92.862 134.583L93.0922 134.713L93.2423 134.793L93.4725 134.923L93.6126 134.993L93.8528 135.124L94.003 135.204L94.2332 135.314L94.3733 135.394L94.6235 135.514H94.7236L95.6343 135.925L95.7845 135.995L96.0147 136.096L96.1848 136.166L96.405 136.256L96.5952 136.336L96.7953 136.416L96.9955 136.486L97.2057 136.567L97.4059 136.647L97.616 136.717L97.8162 136.787L98.0264 136.867L98.2365 136.937L98.4367 136.998L98.6569 137.068L98.8571 137.138L99.0673 137.198L99.2774 137.258L99.4876 137.318L99.7078 137.378L99.908 137.438L100.128 137.489L100.338 137.549L100.548 137.599L100.769 137.649H100.979L101.219 137.709H101.409L101.669 137.759H101.84L102.12 137.809H102.28L102.71 137.879L103.191 138.04Z" fill="#F9A946"/>
<path fill-rule="evenodd" clip-rule="evenodd" d="M106.063 135.234C107.955 138.719 110.75 141.628 114.155 143.655C117.56 145.683 121.448 146.753 125.41 146.753C129.371 146.753 133.259 145.683 136.664 143.655C140.069 141.628 142.864 138.719 144.756 135.234C145.004 133.844 145.338 132.472 145.757 131.125C142.682 129.573 139.287 128.764 135.844 128.764C132.4 128.764 129.005 129.573 125.93 131.125C122.638 129.639 119.068 128.87 115.456 128.87C111.845 128.87 108.275 129.639 104.982 131.125C105.397 132.474 105.731 133.845 105.983 135.234H106.063Z" fill="#CD2027"/>
<path fill-rule="evenodd" clip-rule="evenodd" d="M109.816 140.314C108.318 138.814 107.046 137.102 106.043 135.234C106.092 133.942 105.895 132.653 105.462 131.436C108.594 129.952 112.02 129.192 115.485 129.213C118.949 129.234 122.365 130.035 125.479 131.556C125.198 131.849 124.94 132.164 124.709 132.498L124.529 132.708H124.579C123.62 134.255 123.011 135.993 122.793 137.8C122.575 139.607 122.754 141.44 123.317 143.17C122.317 138.931 123.488 134.322 126.18 131.756C129.123 130.166 132.403 129.302 135.747 129.235C139.091 129.169 142.402 129.903 145.406 131.376C144.899 132.509 144.562 133.711 144.405 134.943C142.787 137.922 140.505 140.486 137.735 142.438C134.966 144.389 131.784 145.675 128.438 146.194C125.091 146.714 121.67 146.454 118.44 145.434C115.211 144.414 112.259 142.662 109.816 140.314Z" fill="#EC2024"/>
<path fill-rule="evenodd" clip-rule="evenodd" d="M109.816 140.314C108.318 138.814 107.047 137.102 106.043 135.234C106.043 135.033 106.043 134.833 106.043 134.632C108.162 137.751 111.004 140.308 114.327 142.084C117.65 143.86 121.354 144.802 125.121 144.83C128.887 144.857 132.604 143.969 135.953 142.242C139.301 140.515 142.181 138 144.345 134.913C142.728 137.883 140.45 140.441 137.687 142.388C134.924 144.336 131.75 145.62 128.412 146.142C125.073 146.665 121.66 146.411 118.435 145.4C115.21 144.389 112.261 142.649 109.816 140.314Z" fill="#E31E26"/>
<path fill-rule="evenodd" clip-rule="evenodd" d="M125.409 119.611C122.396 119.612 119.47 118.6 117.1 116.738C114.73 114.876 113.053 112.27 112.338 109.34C112.445 107.182 112.843 105.049 113.519 102.997C112.6 104.885 112.021 106.92 111.808 109.009C112.384 112.201 114.061 115.089 116.547 117.169C119.033 119.249 122.17 120.388 125.409 120.388C128.649 120.388 131.785 119.249 134.271 117.169C136.757 115.089 138.435 112.201 139.011 109.009C138.797 106.92 138.218 104.885 137.299 102.997C137.977 105.048 138.371 107.182 138.47 109.34C137.757 112.27 136.082 114.875 133.714 116.737C131.345 118.6 128.421 119.612 125.409 119.611Z" fill="#C45D28"/>
<path fill-rule="evenodd" clip-rule="evenodd" d="M135.838 114.651C134.263 116.58 132.185 118.034 129.833 118.85C127.892 118.609 128.292 116.916 131.625 114.34C136.309 110.723 137.53 110.933 135.798 114.651H135.838Z" fill="#B05526"/>
<path fill-rule="evenodd" clip-rule="evenodd" d="M135.838 114.651L135.658 114.871C136.349 112.015 133.016 113.138 129.343 116.525C130.026 115.706 130.806 114.973 131.665 114.34C136.349 110.723 137.57 110.933 135.838 114.651Z" fill="#8F4620"/>
<path fill-rule="evenodd" clip-rule="evenodd" d="M114.981 114.651C116.553 116.582 118.633 118.037 120.986 118.85C122.927 118.609 122.527 116.916 119.194 114.34C114.51 110.723 113.279 110.933 115.021 114.651H114.981Z" fill="#B05526"/>
<path fill-rule="evenodd" clip-rule="evenodd" d="M114.981 114.651L115.161 114.871C114.47 112.015 117.803 113.138 121.476 116.525C120.793 115.706 120.013 114.973 119.154 114.34C114.47 110.723 113.239 110.933 114.981 114.651Z" fill="#8F4620"/>
<path fill-rule="evenodd" clip-rule="evenodd" d="M126.83 132.107C125.87 132.672 125.172 133.594 124.889 134.673C130.952 132.219 137.65 131.814 143.965 133.52C144.158 132.87 144.259 132.195 144.265 131.516C141.467 130.44 138.481 129.94 135.486 130.045C132.49 130.15 129.546 130.858 126.83 132.127V132.107Z" fill="#EE3937"/>
<path fill-rule="evenodd" clip-rule="evenodd" d="M102.81 137.979C94.6073 136.931 87.1016 132.823 81.7922 126.475C79.4514 122.683 77.7758 118.518 76.838 114.16C76.8776 116.793 77.439 119.391 78.4895 121.806C76.0697 117.795 74.6676 113.252 74.4059 108.574C74.1442 103.896 75.0308 99.2254 76.9882 94.9696C79.9907 88.3358 87.6072 80.4995 93.392 66.5204C93.6022 65.9993 93.8224 65.5183 94.0426 64.9972C93.1664 65.7005 92.331 66.4533 91.5405 67.2519C96.6982 56.7099 101.993 51.449 107.424 51.469C106.89 50.8829 106.293 50.3586 105.642 49.9058C107.201 50.5447 108.695 51.3298 110.106 52.2506C110.722 52.5829 111.296 52.9865 111.818 53.4532C112.218 53.7638 112.608 54.0744 112.999 54.4051L112.588 54.2248C112.718 54.3851 112.859 54.5454 112.989 54.7158C106.653 52.7116 100.548 56.8502 95.654 67.5926C90.6497 78.5654 86.8165 87.4038 82.5429 93.8272C77.1583 101.954 77.0983 112.536 81.2218 121.375C83.2268 125.673 86.2348 129.425 89.992 132.315C93.7493 135.205 98.1455 137.147 102.81 137.979Z" fill="#B14226"/>
<path fill-rule="evenodd" clip-rule="evenodd" d="M147.978 137.98C156.181 136.93 163.686 132.822 168.996 126.476C171.338 122.685 173.011 118.519 173.94 114.16C173.909 116.793 173.351 119.393 172.299 121.806C174.719 117.796 176.121 113.253 176.383 108.575C176.644 103.897 175.758 99.2259 173.8 94.9701C170.798 88.3363 163.171 80.5 157.396 66.5209C157.186 65.9998 156.966 65.5188 156.746 64.9977C157.62 65.7036 158.455 66.4563 159.248 67.2524C153.797 56.0958 148.189 50.8549 142.424 51.5296C140.594 52.0943 138.99 53.2237 137.84 54.7564C144.175 52.7522 150.28 56.8908 155.175 67.6332C160.179 78.606 164.012 87.4444 168.286 93.8678C173.67 101.995 173.73 112.577 169.607 121.415C167.602 125.713 164.594 129.465 160.836 132.355C157.079 135.245 152.683 137.188 148.018 138.02L147.978 137.98Z" fill="#B14226"/>
<path fill-rule="evenodd" clip-rule="evenodd" d="M118.984 58.3934C115.118 54.7533 110.602 51.874 105.673 49.9058C108.144 51.2598 110.488 52.8327 112.679 54.6056C115.06 55.3558 117.233 56.6529 119.024 58.3934H118.984ZM145.146 49.9058C140.215 51.8716 135.699 54.7512 131.835 58.3934C133.625 56.6511 135.798 55.3537 138.18 54.6056C140.371 52.8327 142.715 51.2598 145.186 49.9058H145.146Z" fill="#8F361F"/>
<path fill-rule="evenodd" clip-rule="evenodd" d="M125.409 61.4801C123.217 60.6784 122.107 59.0651 120.775 57.4717C119.356 55.7183 117.667 54.2028 115.771 52.9824C116.061 53.4534 116.332 53.9244 116.592 54.4154C113.259 51.0684 110.457 50.2367 105.703 49.926C110.632 51.8943 115.148 54.7736 119.014 58.4137C119.97 59.2879 120.866 60.2253 121.696 61.2196C122.977 62.7427 124.208 63.4943 125.439 63.4943V61.4901L125.409 61.4801Z" fill="#B14226"/>
<path fill-rule="evenodd" clip-rule="evenodd" d="M125.409 61.4801C127.601 60.6784 128.702 59.0651 130.043 57.4717C131.462 55.7183 133.152 54.2028 135.048 52.9824C134.757 53.4534 134.487 53.9244 134.227 54.4154C137.56 51.0684 140.362 50.2367 145.116 49.926C140.185 51.8919 135.669 54.7715 131.805 58.4137C130.849 59.2879 129.953 60.2253 129.123 61.2196C127.841 62.7427 126.61 63.4943 125.379 63.4943V61.4901L125.409 61.4801Z" fill="#B14226"/>
<path fill-rule="evenodd" clip-rule="evenodd" d="M130.894 38.2416C129.221 39.6405 127.11 40.4069 124.929 40.4069C122.749 40.4069 120.638 39.6405 118.964 38.2416C118.402 37.7874 117.803 37.3818 117.173 37.0291C117.848 37.2628 118.483 37.6009 119.054 38.0311C120.739 39.3455 122.804 40.0767 124.939 40.1146C127.075 40.1526 129.164 39.4953 130.894 38.2416Z" fill="#8F361F"/>
<path fill-rule="evenodd" clip-rule="evenodd" d="M122.497 78.736C109.346 71.9418 100.528 70.0479 95.9644 73.6053C98.9269 63.9452 107.771 65.6554 122.497 78.736Z" fill="#C64A29"/>
<path fill-rule="evenodd" clip-rule="evenodd" d="M128.322 78.736C141.473 71.9418 150.29 70.0479 154.854 73.6053C151.892 63.9452 143.048 65.6554 128.322 78.736Z" fill="#C64A29"/>
<path fill-rule="evenodd" clip-rule="evenodd" d="M154.854 73.6055C154.02 72.4246 152.942 71.4368 151.694 70.7089C150.446 69.9811 149.056 69.5302 147.618 69.3867C144.622 69.5671 138.19 72.6836 128.322 78.7362C141.473 71.942 150.29 70.0481 154.854 73.6055Z" fill="#B14226"/>
<path fill-rule="evenodd" clip-rule="evenodd" d="M95.9644 73.6055C96.7985 72.4246 97.8762 71.4368 99.1246 70.7089C100.373 69.9811 101.763 69.5302 103.2 69.3867C106.196 69.5671 112.628 72.6836 122.497 78.7362C109.346 71.942 100.528 70.0481 95.9644 73.6055Z" fill="#B14226"/>
<path fill-rule="evenodd" clip-rule="evenodd" d="M130.894 38.242C128.556 39.1645 125.951 39.1429 123.628 38.1819C121.611 37.2497 119.388 36.8528 117.173 37.0295C117.848 37.2633 118.483 37.6014 119.054 38.0316C120.739 39.3459 122.804 40.0771 124.939 40.115C127.075 40.153 129.164 39.4957 130.894 38.242Z" fill="#B14226"/>
<path fill-rule="evenodd" clip-rule="evenodd" d="M103.861 114.781C102.862 114.333 101.772 114.129 100.679 114.185C99.5863 114.241 98.5224 114.555 97.5747 115.103C96.6271 115.651 95.8228 116.416 95.2279 117.336C94.633 118.255 94.2646 119.303 94.1528 120.393C94.8996 118.497 96.2659 116.91 98.0288 115.891C99.7918 114.872 101.848 114.481 103.861 114.781Z" fill="#F9A946"/>
<path fill-rule="evenodd" clip-rule="evenodd" d="M146.958 114.781C147.957 114.333 149.047 114.129 150.14 114.185C151.233 114.241 152.297 114.555 153.244 115.103C154.192 115.651 154.996 116.416 155.591 117.336C156.186 118.255 156.554 119.303 156.666 120.393C155.919 118.497 154.553 116.91 152.79 115.891C151.027 114.872 148.971 114.481 146.958 114.781Z" fill="#F9A946"/>
</g>
</svg>
