<svg width="322" height="69" viewBox="0 0 322 69" fill="none" xmlns="http://www.w3.org/2000/svg">
<path d="M321.579 36.6583C321.579 36.1097 320.794 35.6639 320.402 36.1611C317.57 39.8252 313.416 42.221 308.84 42.8303C310.531 38.5944 310.823 33.9249 309.676 29.5091C309.539 28.9776 308.653 28.7719 308.414 29.3376C304.662 38.167 296.17 40.9787 287.285 41.6302C277.753 42.1274 268.987 38.047 261.058 33.1437C260.58 32.8522 259.83 33.3494 260.035 33.9324C261.999 39.6055 263.661 45.3799 265.014 51.2311C265.781 54.2657 266.532 57.3174 267.231 60.3691C267.363 61.476 267.603 62.567 267.947 63.6266C268.493 64.7752 270.164 65.1696 271.358 65.6325C278.656 68.4956 286.978 68.1013 294.499 66.4897C301.559 64.981 308.687 61.9635 313.666 56.5459C318.271 51.454 321.818 43.6704 321.579 36.6583Z" fill="#AE5F49"/>
<path d="M60.5324 34.1437C52.6027 39.047 43.8375 43.1274 34.3048 42.6302C25.4202 41.9787 16.9278 39.2013 13.1762 30.3376C12.9374 29.7719 12.0507 29.9776 11.9142 30.5091C10.7751 34.9257 11.0679 39.5925 12.7498 43.8303C8.17393 43.221 4.02052 40.8252 1.18789 37.1611C0.795673 36.6639 0.0282881 37.1611 0.0112351 37.6583C-0.210454 44.1732 2.87614 51.0824 6.83244 56.1572C11.1469 61.712 17.7805 65.0209 24.4141 66.8382C31.8567 69.0616 39.7424 69.3273 47.3163 67.6097C49.0135 67.1576 50.6638 66.5433 52.2446 65.7752C53.7112 65.0552 53.6259 64.7294 53.9499 63.2207C54.5809 60.3576 55.263 57.5288 55.9622 54.6485C57.459 47.9671 59.3206 41.3737 61.5385 34.8981C61.7602 34.3837 61.0269 33.8522 60.5324 34.1437Z" fill="#AE5F49"/>
<path d="M277.172 26.2034C274.676 21.9204 272.16 17.6179 269.431 13.4128C269.351 13.2746 269.229 13.1655 269.083 13.1013C268.961 13.0348 268.825 13 268.686 13C268.548 13 268.411 13.0348 268.29 13.1013C261.942 16.7808 255.092 19.6231 248.415 22.8354C248.324 22.8759 248.242 22.9358 248.176 23.0108C248.11 23.0859 248.06 23.1744 248.031 23.2704C248.001 23.3664 247.993 23.4677 248.006 23.5673C248.019 23.6669 248.053 23.7625 248.106 23.8477C254.937 37.3003 260.626 51.1032 267.458 64.6337C267.728 65.1788 268.599 65.062 268.909 64.6337C274.869 56.5349 277.811 44.6398 279.939 35.2172C280.365 33.5429 278.449 28.3059 277.172 26.2034Z" fill="#7B3826"/>
<path d="M74.6178 22.8433C67.941 19.7063 61.0708 16.8617 54.7424 13.1013C54.6206 13.0348 54.4842 13 54.3457 13C54.2071 13 54.0708 13.0348 53.949 13.1013C53.7973 13.1645 53.6689 13.2734 53.5813 13.4131C50.8719 17.6216 48.356 21.9275 45.8401 26.214C44.6596 28.1623 42.6469 33.345 43.0533 35.196C45.1821 44.6262 48.1431 56.6283 54.0844 64.6361C54.1712 64.7494 54.2826 64.841 54.4101 64.9041C54.5376 64.9672 54.6778 65 54.8198 65C54.9619 65 55.102 64.9672 55.2295 64.9041C55.357 64.841 55.4684 64.7494 55.5552 64.6361C62.3674 51.1728 68.0765 37.3587 74.9081 23.8174C74.955 23.7349 74.9847 23.6435 74.9955 23.549C75.0062 23.4545 74.9978 23.3587 74.9706 23.2676C74.9435 23.1765 74.8982 23.0919 74.8375 23.0189C74.7769 22.946 74.7021 22.8862 74.6178 22.8433Z" fill="#7B3826"/>
<path d="M280.896 32.779C280.112 28.8719 278.544 25.1674 276.289 21.8928C273.824 17.5137 271.143 13.2619 268.256 9.15325C266.05 6.09029 263.63 2.38353 259.836 0.686219C256.042 -1.01109 251.997 0.90082 248.222 1.93481C243.325 3.24194 238.544 4.74415 233.647 6.22685C213.863 12.393 193.407 16.1076 172.732 17.2886C152.98 18.208 133.191 16.6747 113.81 12.7235C104.134 10.6208 94.5723 8.01612 85.1627 4.91973C80.2461 3.41752 75.2522 2.18844 70.3356 0.686219C68.6793 0.0246222 66.874 -0.163338 65.1185 0.143027C63.363 0.449392 61.7255 1.23819 60.3863 2.42255C57.165 5.46446 54.4061 8.96826 52.1985 12.821C49.508 16.8985 46.9722 21.1125 44.7075 25.4045C43.0622 28.5065 41.5331 31.9986 42.1331 35.4908C42.3545 36.6762 42.8503 37.7923 43.5801 38.7482C44.31 39.7042 45.2533 40.4731 46.3335 40.9924C58.7217 48.7962 74.2069 51.9762 88.7437 54.9221C106.903 58.651 125.286 61.1731 143.774 62.4722C161.635 63.5441 179.555 62.9826 197.315 60.7944C214.915 58.8027 232.371 55.6814 249.577 51.4494C256.69 49.7748 263.621 47.3961 270.269 44.348C273.077 43.1404 275.751 41.6363 278.244 39.8609C279.269 39.0228 280.054 37.9255 280.52 36.6813C280.986 35.437 281.116 34.0904 280.896 32.779Z" fill="#944833"/>
<path d="M127.104 49.144L126.648 33.376L134.184 33.808V37.936H129.888L129.864 39.808L132.504 39.592V42.736L129.84 42.4L129.792 45.832L133.68 45.52L134.208 48.04L127.104 49.144ZM135.989 48.904L135.341 33.856L139.301 33.352L143.381 41.248L143.213 33.256L147.245 33.784L146.069 48.904H143.549L138.941 40.936L138.581 48.544L135.989 48.904ZM153.194 48.832C152.394 48.832 151.674 48.632 151.034 48.232C150.394 47.832 149.858 47.256 149.426 46.504C148.994 45.752 148.674 44.848 148.466 43.792C148.274 42.72 148.218 41.52 148.298 40.192C148.378 38.864 148.586 37.76 148.922 36.88C149.274 35.984 149.706 35.264 150.218 34.72C150.73 34.16 151.298 33.76 151.922 33.52C152.562 33.264 153.21 33.12 153.866 33.088C154.538 33.056 155.106 33.16 155.57 33.4C156.034 33.624 156.426 33.888 156.746 34.192C157.098 34.544 157.394 34.944 157.634 35.392L155.594 38.368C155.466 38.208 155.322 38.056 155.162 37.912C155.034 37.784 154.882 37.672 154.706 37.576C154.53 37.48 154.33 37.432 154.105 37.432C153.498 37.448 152.986 37.656 152.57 38.056C152.154 38.456 151.826 38.96 151.586 39.568C151.362 40.176 151.234 40.832 151.202 41.536C151.17 42.224 151.242 42.864 151.418 43.456C151.594 44.048 151.874 44.544 152.258 44.944C152.642 45.328 153.138 45.504 153.746 45.472C154.178 45.456 154.538 45.36 154.826 45.184C155.13 44.992 155.362 44.816 155.522 44.656L155.378 43.096L153.194 42.904L153.626 39.568L158.066 39.904L157.394 48.472L155.93 48.904L155.81 47.632C155.538 47.984 155.186 48.288 154.754 48.544C154.322 48.784 153.794 48.904 153.17 48.904L153.194 48.832ZM159.941 48.928L159.485 33.448L163.829 33.736L162.821 45.304L168.197 44.392L167.597 48.904L159.941 48.928ZM169.93 48.928L169.474 33.448L173.818 33.736L172.522 48.496L169.93 48.928ZM179.244 46.264C179.564 46.264 179.852 46.144 180.108 45.904C180.38 45.664 180.516 45.352 180.516 44.968C180.516 44.632 180.38 44.336 180.108 44.08C179.852 43.824 179.524 43.568 179.124 43.312C178.724 43.056 178.292 42.792 177.828 42.52C177.38 42.232 176.956 41.904 176.556 41.536C176.156 41.168 175.82 40.736 175.548 40.24C175.292 39.744 175.164 39.144 175.164 38.44C175.164 37.496 175.3 36.696 175.572 36.04C175.86 35.384 176.244 34.856 176.724 34.456C177.22 34.04 177.796 33.744 178.452 33.568C179.124 33.376 179.844 33.28 180.612 33.28C181.124 33.28 181.588 33.36 182.004 33.52C182.42 33.68 182.772 33.856 183.06 34.048C183.396 34.272 183.7 34.528 183.972 34.816L182.316 37.984C182.044 37.648 181.716 37.416 181.332 37.288C180.964 37.16 180.612 37.12 180.276 37.168C179.94 37.216 179.652 37.352 179.412 37.576C179.172 37.784 179.052 38.072 179.052 38.44C179.052 38.744 179.172 39.024 179.412 39.28C179.652 39.52 179.956 39.776 180.324 40.048C180.692 40.304 181.084 40.576 181.5 40.864C181.932 41.152 182.332 41.48 182.7 41.848C183.068 42.2 183.372 42.616 183.612 43.096C183.852 43.56 183.972 44.104 183.972 44.728C183.972 45.272 183.892 45.808 183.732 46.336C183.572 46.864 183.316 47.336 182.964 47.752C182.628 48.168 182.18 48.504 181.62 48.76C181.06 49.016 180.372 49.144 179.556 49.144C178.74 49.144 178.052 49 177.492 48.712C176.932 48.424 176.476 48.096 176.124 47.728C175.708 47.312 175.38 46.832 175.14 46.288L176.508 43.912C176.684 44.36 176.908 44.76 177.18 45.112C177.404 45.416 177.684 45.688 178.02 45.928C178.372 46.168 178.78 46.288 179.244 46.288V46.264ZM185.868 48.904L185.22 33.856L189.18 33.352L188.772 39.184L192.132 39.04L192.036 33.256L196.068 33.784L194.628 48.904H192.276L192.18 42.88L188.484 43.408L188.124 48.544L185.868 48.904Z" fill="white"/>
</svg>
