<svg width="322" height="69" viewBox="0 0 322 69" fill="none" xmlns="http://www.w3.org/2000/svg">
<path d="M321.579 36.6583C321.579 36.1097 320.794 35.6639 320.402 36.1611C317.57 39.8252 313.416 42.221 308.84 42.8303C310.531 38.5944 310.823 33.9249 309.676 29.5091C309.539 28.9776 308.653 28.7719 308.414 29.3376C304.662 38.167 296.17 40.9787 287.285 41.6302C277.753 42.1274 268.987 38.047 261.058 33.1437C260.58 32.8522 259.83 33.3494 260.035 33.9324C261.999 39.6055 263.661 45.3799 265.014 51.2311C265.781 54.2657 266.532 57.3174 267.231 60.3691C267.363 61.476 267.603 62.567 267.947 63.6266C268.493 64.7752 270.164 65.1696 271.358 65.6325C278.656 68.4956 286.978 68.1013 294.499 66.4897C301.559 64.981 308.687 61.9635 313.666 56.5459C318.271 51.454 321.818 43.6704 321.579 36.6583Z" fill="#F59A9C"/>
<path d="M60.5324 34.1437C52.6027 39.047 43.8375 43.1274 34.3048 42.6302C25.4202 41.9787 16.9278 39.2013 13.1762 30.3376C12.9374 29.7719 12.0507 29.9776 11.9142 30.5091C10.7751 34.9257 11.0679 39.5925 12.7498 43.8303C8.17393 43.221 4.02052 40.8252 1.18789 37.1611C0.795673 36.6639 0.0282881 37.1611 0.0112351 37.6583C-0.210454 44.1732 2.87614 51.0824 6.83244 56.1572C11.1469 61.712 17.7805 65.0209 24.4141 66.8382C31.8567 69.0616 39.7424 69.3273 47.3163 67.6097C49.0135 67.1576 50.6638 66.5433 52.2446 65.7752C53.7112 65.0552 53.6259 64.7294 53.9499 63.2207C54.5809 60.3576 55.263 57.5288 55.9622 54.6485C57.459 47.9671 59.3206 41.3737 61.5385 34.8981C61.7602 34.3837 61.0269 33.8522 60.5324 34.1437Z" fill="#F59A9C"/>
<path d="M277.172 26.2034C274.676 21.9204 272.16 17.6179 269.431 13.4128C269.351 13.2746 269.229 13.1655 269.083 13.1013C268.961 13.0348 268.825 13 268.686 13C268.548 13 268.411 13.0348 268.29 13.1013C261.942 16.7808 255.092 19.6231 248.415 22.8354C248.324 22.8759 248.242 22.9358 248.176 23.0108C248.11 23.0859 248.06 23.1744 248.031 23.2704C248.001 23.3664 247.993 23.4677 248.006 23.5673C248.019 23.6669 248.053 23.7625 248.106 23.8477C254.937 37.3003 260.626 51.1032 267.458 64.6337C267.728 65.1788 268.599 65.062 268.909 64.6337C274.869 56.5349 277.811 44.6398 279.939 35.2172C280.365 33.5429 278.449 28.3059 277.172 26.2034Z" fill="#DE5859"/>
<path d="M74.6178 22.8433C67.941 19.7063 61.0708 16.8617 54.7424 13.1013C54.6206 13.0348 54.4842 13 54.3457 13C54.2071 13 54.0708 13.0348 53.949 13.1013C53.7973 13.1645 53.6689 13.2734 53.5813 13.4131C50.8719 17.6216 48.356 21.9275 45.8401 26.214C44.6596 28.1623 42.6469 33.345 43.0533 35.196C45.1821 44.6262 48.1431 56.6283 54.0844 64.6361C54.1712 64.7494 54.2826 64.841 54.4101 64.9041C54.5376 64.9672 54.6778 65 54.8198 65C54.9619 65 55.102 64.9672 55.2295 64.9041C55.357 64.841 55.4684 64.7494 55.5552 64.6361C62.3674 51.1728 68.0765 37.3587 74.9081 23.8174C74.955 23.7349 74.9847 23.6435 74.9955 23.549C75.0062 23.4545 74.9978 23.3587 74.9706 23.2676C74.9435 23.1765 74.8982 23.0919 74.8375 23.0189C74.7769 22.946 74.7021 22.8862 74.6178 22.8433Z" fill="#DE5859"/>
<path d="M280.896 32.779C280.112 28.8719 278.544 25.1674 276.289 21.8928C273.824 17.5137 271.143 13.2619 268.256 9.15325C266.05 6.09029 263.63 2.38353 259.836 0.686219C256.042 -1.01109 251.997 0.90082 248.222 1.93481C243.325 3.24194 238.544 4.74415 233.647 6.22685C213.863 12.393 193.407 16.1076 172.732 17.2886C152.98 18.208 133.191 16.6747 113.81 12.7235C104.134 10.6208 94.5723 8.01612 85.1627 4.91973C80.2461 3.41752 75.2522 2.18844 70.3356 0.686219C68.6793 0.0246222 66.874 -0.163338 65.1185 0.143027C63.363 0.449392 61.7255 1.23819 60.3863 2.42255C57.165 5.46446 54.4061 8.96826 52.1985 12.821C49.508 16.8985 46.9722 21.1125 44.7075 25.4045C43.0622 28.5065 41.5331 31.9986 42.1331 35.4908C42.3545 36.6762 42.8503 37.7923 43.5801 38.7482C44.31 39.7042 45.2533 40.4731 46.3335 40.9924C58.7217 48.7962 74.2069 51.9762 88.7437 54.9221C106.903 58.651 125.286 61.1731 143.774 62.4722C161.635 63.5441 179.555 62.9826 197.315 60.7944C214.915 58.8027 232.371 55.6814 249.577 51.4494C256.69 49.7748 263.621 47.3961 270.269 44.348C273.077 43.1404 275.751 41.6363 278.244 39.8609C279.269 39.0228 280.054 37.9255 280.52 36.6813C280.986 35.437 281.116 34.0904 280.896 32.779Z" fill="#F07475"/>
<path d="M117.463 45.832C116.663 45.832 115.943 45.632 115.303 45.232C114.663 44.832 114.127 44.256 113.695 43.504C113.263 42.752 112.943 41.848 112.735 40.792C112.543 39.72 112.487 38.52 112.567 37.192C112.647 35.864 112.855 34.76 113.191 33.88C113.543 32.984 113.975 32.264 114.487 31.72C114.999 31.16 115.567 30.76 116.191 30.52C116.831 30.264 117.479 30.12 118.135 30.088C118.807 30.056 119.375 30.16 119.839 30.4C120.303 30.624 120.695 30.888 121.015 31.192C121.367 31.544 121.663 31.944 121.903 32.392L119.863 35.368C119.735 35.208 119.591 35.056 119.431 34.912C119.303 34.784 119.151 34.672 118.975 34.576C118.799 34.48 118.599 34.432 118.375 34.432C117.767 34.448 117.255 34.656 116.839 35.056C116.423 35.456 116.095 35.96 115.855 36.568C115.631 37.176 115.503 37.832 115.471 38.536C115.439 39.224 115.511 39.864 115.687 40.456C115.863 41.048 116.143 41.544 116.527 41.944C116.911 42.328 117.407 42.504 118.015 42.472C118.447 42.456 118.807 42.36 119.095 42.184C119.399 41.992 119.631 41.816 119.791 41.656L119.647 40.096L117.463 39.904L117.895 36.568L122.335 36.904L121.663 45.472L120.199 45.904L120.079 44.632C119.807 44.984 119.455 45.288 119.023 45.544C118.591 45.784 118.063 45.904 117.439 45.904L117.463 45.832ZM124.186 46.144L123.73 30.376L131.266 30.808V34.936H126.97L126.946 36.808L129.586 36.592V39.736L126.922 39.4L126.874 42.832L130.762 42.52L131.29 45.04L124.186 46.144ZM136.911 46C136.175 46 135.527 45.776 134.967 45.328C134.407 44.88 133.935 44.288 133.551 43.552C133.167 42.816 132.879 41.984 132.687 41.056C132.495 40.112 132.391 39.152 132.375 38.176C132.375 37.2 132.471 36.248 132.663 35.32C132.855 34.376 133.151 33.536 133.551 32.8C133.951 32.064 134.447 31.472 135.039 31.024C135.647 30.576 136.367 30.352 137.199 30.352C138.111 30.352 138.887 30.576 139.527 31.024C140.167 31.472 140.679 32.064 141.063 32.8C141.447 33.536 141.711 34.376 141.855 35.32C142.015 36.248 142.063 37.2 141.999 38.176C141.935 39.152 141.767 40.112 141.495 41.056C141.239 41.984 140.887 42.816 140.439 43.552C140.007 44.288 139.495 44.88 138.903 45.328C138.311 45.776 137.647 46 136.911 46ZM137.199 35.056C136.751 35.056 136.375 35.256 136.071 35.656C135.783 36.04 135.559 36.536 135.399 37.144C135.255 37.736 135.183 38.376 135.183 39.064C135.183 39.752 135.247 40.4 135.375 41.008C135.503 41.6 135.687 42.096 135.927 42.496C136.183 42.88 136.495 43.072 136.863 43.072C137.231 43.072 137.543 42.88 137.799 42.496C138.055 42.096 138.247 41.6 138.375 41.008C138.519 40.4 138.599 39.752 138.615 39.064C138.647 38.376 138.615 37.736 138.519 37.144C138.423 36.536 138.263 36.04 138.039 35.656C137.831 35.256 137.559 35.056 137.223 35.056H137.199ZM147.815 45.832C147.015 45.832 146.295 45.632 145.655 45.232C145.015 44.832 144.479 44.256 144.047 43.504C143.615 42.752 143.295 41.848 143.087 40.792C142.895 39.72 142.839 38.52 142.919 37.192C142.999 35.864 143.207 34.76 143.543 33.88C143.895 32.984 144.327 32.264 144.839 31.72C145.351 31.16 145.919 30.76 146.543 30.52C147.183 30.264 147.831 30.12 148.487 30.088C149.159 30.056 149.727 30.16 150.191 30.4C150.655 30.624 151.047 30.888 151.367 31.192C151.719 31.544 152.015 31.944 152.255 32.392L150.215 35.368C150.087 35.208 149.943 35.056 149.783 34.912C149.655 34.784 149.503 34.672 149.327 34.576C149.151 34.48 148.951 34.432 148.727 34.432C148.119 34.448 147.607 34.656 147.191 35.056C146.775 35.456 146.447 35.96 146.207 36.568C145.983 37.176 145.855 37.832 145.823 38.536C145.791 39.224 145.863 39.864 146.039 40.456C146.215 41.048 146.495 41.544 146.879 41.944C147.263 42.328 147.759 42.504 148.367 42.472C148.799 42.456 149.159 42.36 149.447 42.184C149.751 41.992 149.983 41.816 150.143 41.656L149.999 40.096L147.815 39.904L148.247 36.568L152.687 36.904L152.015 45.472L150.551 45.904L150.431 44.632C150.159 44.984 149.807 45.288 149.375 45.544C148.943 45.784 148.415 45.904 147.791 45.904L147.815 45.832ZM154.634 46.144L154.178 30.664C156.066 30.408 157.754 30.376 159.242 30.568C159.882 30.648 160.506 30.792 161.114 31C161.722 31.192 162.266 31.472 162.746 31.84C163.226 32.192 163.61 32.64 163.898 33.184C164.186 33.728 164.33 34.392 164.33 35.176C164.33 35.816 164.25 36.384 164.09 36.88C163.946 37.376 163.746 37.808 163.49 38.176C163.25 38.544 162.962 38.864 162.626 39.136C162.29 39.392 161.93 39.608 161.546 39.784L164.09 43.696L160.922 46.36L158.45 40.456C158.306 40.456 158.17 40.456 158.042 40.456C157.914 40.44 157.794 40.424 157.682 40.408L157.226 45.688L154.634 46.144ZM160.826 36.328C160.826 36.056 160.786 35.792 160.706 35.536C160.626 35.28 160.482 35.064 160.274 34.888C160.066 34.696 159.794 34.552 159.458 34.456C159.138 34.36 158.73 34.336 158.234 34.384L157.874 38.44C158.402 38.472 158.85 38.432 159.218 38.32C159.586 38.208 159.89 38.056 160.13 37.864C160.37 37.656 160.546 37.424 160.658 37.168C160.77 36.896 160.826 36.616 160.826 36.328ZM167.54 45.952L165.26 45.184L167.54 30.376L173.78 30.136L175.196 45.688L172.748 46.144L172.076 41.92L168.38 42.184L167.54 45.952ZM170.564 32.488L169.124 38.944H171.596L170.564 32.488ZM176.922 46.144L176.466 30.664C178.354 30.408 180.042 30.376 181.53 30.568C182.17 30.648 182.794 30.792 183.402 31C184.01 31.192 184.554 31.472 185.034 31.84C185.514 32.192 185.898 32.64 186.186 33.184C186.474 33.728 186.618 34.392 186.618 35.176C186.618 35.976 186.498 36.672 186.258 37.264C186.034 37.84 185.73 38.328 185.346 38.728C184.962 39.128 184.53 39.448 184.05 39.688C183.57 39.928 183.082 40.112 182.586 40.24C182.106 40.352 181.634 40.416 181.17 40.432C180.722 40.448 180.33 40.44 179.994 40.408L179.538 45.688L176.922 46.144ZM183.114 36.328C183.114 36.056 183.074 35.792 182.994 35.536C182.914 35.28 182.77 35.064 182.562 34.888C182.354 34.696 182.082 34.552 181.746 34.456C181.426 34.36 181.018 34.336 180.522 34.384L180.162 38.44C180.69 38.472 181.138 38.432 181.506 38.32C181.874 38.208 182.178 38.056 182.418 37.864C182.658 37.656 182.834 37.424 182.946 37.168C183.058 36.896 183.114 36.616 183.114 36.328ZM188.177 45.904L187.529 30.856L191.489 30.352L191.081 36.184L194.441 36.04L194.345 30.256L198.377 30.784L196.937 45.904H194.585L194.489 39.88L190.793 40.408L190.433 45.544L188.177 45.904ZM206.821 38.848L207.013 46.144L203.605 45.832L203.869 38.992L199.021 33.136L202.381 30.256L205.381 35.728L209.053 30.664L211.741 33.64L206.821 38.848Z" fill="white"/>
</svg>
