<svg width="236" height="249" viewBox="0 0 236 249" fill="none" xmlns="http://www.w3.org/2000/svg">
<mask id="mask0_9:903" style="mask-type:alpha" maskUnits="userSpaceOnUse" x="0" y="0" width="236" height="249">
<path d="M235.59 155.5C235.59 172.018 207.742 182.239 201.59 196.5C191.09 227.5 152.59 249 118.59 249C88.0903 249 75.5959 241.426 54.5903 209.5C42.4083 190.985 0.590332 179.32 0.590332 155.5C0.590332 90.6065 91.6969 0 156.59 0C221.484 0 235.59 90.6065 235.59 155.5Z" fill="#C4C4C4"/>
</mask>
<g mask="url(#mask0_9:903)">
<path fill-rule="evenodd" clip-rule="evenodd" d="M126.6 177.084C127.98 184.094 126.776 190.771 121.56 195.929C118.735 198.707 114.039 203.337 114.233 207.643C114.326 209.653 114.52 214.848 112.065 215.709C111.515 215.825 110.944 215.801 110.405 215.639C109.866 215.478 109.376 215.183 108.981 214.783L108.814 214.654C103.163 210.134 97.4202 205.68 91.4639 201.569C86.5964 198.117 81.464 195.055 76.1146 192.41C75.9569 192.326 75.7887 192.264 75.6144 192.225C75.4788 192.684 75.4286 193.164 75.4662 193.642C75.531 195.105 75.318 196.846 74.0581 197.79C72.2055 199.152 69.3153 197.948 67.5738 197.059L66.3974 196.457L67.1107 196.012C65.6717 190.227 62.8777 184.866 58.959 180.372L58.3105 179.621L59.2369 179.205C61.5644 178.091 64.0423 177.324 66.5919 176.927L66.8884 176.88L67.1292 177.066C74.0304 182.224 80.5795 186.687 88.7683 189.632C92.6773 190.916 96.3783 192.763 99.7546 195.114C100.12 193.025 100.12 190.888 99.7546 188.799C99.4105 186.372 99.6356 183.9 100.412 181.575C102.932 174.241 110.843 170.167 117.716 167.833H117.818H117.938C121.949 167.768 124.376 170.324 125.757 173.889C126.035 174.815 126.275 175.788 126.479 176.76L126.544 177.056L126.6 177.084Z" fill="black"/>
<path fill-rule="evenodd" clip-rule="evenodd" d="M117.994 168.555C105.461 172.815 99.3561 179.575 100.533 188.725C100.963 191.115 100.887 193.569 100.31 195.929C101.599 196.855 102.689 198.031 103.515 199.386C104.341 200.741 104.886 202.249 105.118 203.819C104.259 200.9 102.526 198.315 100.153 196.411L99.5784 195.948C96.1931 193.549 92.4641 191.675 88.5181 190.391C79.5141 187.123 72.5759 182.057 66.6659 177.742C64.189 178.128 61.7825 178.877 59.5239 179.964C63.5636 184.598 66.4238 190.138 67.8609 196.114L67.935 196.429H67.8887C72.5203 198.781 74.901 197.874 74.7343 193.716C74.6602 191.734 75.1511 191.095 76.4665 191.79C86.1837 196.42 96.9384 204.189 109.472 214.218C112.427 216.589 113.807 214.117 113.52 207.736C113.344 203.856 116.364 200.096 121.06 195.448C125.979 190.595 127.331 184.215 125.84 176.992C125.655 176.066 125.414 175.14 125.136 174.214C123.672 170.435 121.292 168.574 118.022 168.657L117.994 168.555Z" fill="#E5E5E4"/>
<path fill-rule="evenodd" clip-rule="evenodd" d="M125.108 174.13C126.016 177.743 125.982 181.529 125.009 185.125C124.036 188.721 122.156 192.007 119.55 194.67C114.428 199.809 112.14 204.18 112.445 208.069C112.834 212.82 111.75 214.978 108.842 212.542C97.6239 203.106 86.6099 195.735 75.6884 190.725C74.7621 190.28 74.2156 190.966 74.197 192.234C74.1229 196.781 72.2888 197.966 68.8336 195.818C67.2207 189.786 64.0223 184.296 59.5703 179.918C63.61 184.551 66.4702 190.092 67.9073 196.068L67.9814 196.383H67.9351C72.5667 198.735 74.9474 197.827 74.7806 193.67C74.7065 191.688 75.1975 191.049 76.5129 191.743C86.2301 196.374 96.9847 204.143 109.518 214.172C112.473 216.543 113.853 214.07 113.566 207.69C113.39 203.81 116.41 200.05 121.106 195.401C126.025 190.549 127.378 184.168 125.886 176.945C125.701 176.019 125.46 175.093 125.182 174.167L125.108 174.13Z" fill="#D3D3D3"/>
<path fill-rule="evenodd" clip-rule="evenodd" d="M59.0979 180.121C63.1362 184.717 65.9973 190.224 67.4348 196.17C64.5487 197.968 61.2201 198.929 57.8195 198.948C52.7164 193.918 48.9909 187.661 47 180.779C50.9352 179.595 55.0983 179.379 59.1349 180.149L59.0979 180.121Z" fill="#1A1A1A"/>
<path fill-rule="evenodd" clip-rule="evenodd" d="M58.0975 180.853C59.35 181.918 60.4585 183.141 61.3952 184.492C57.9671 184.968 54.5902 185.758 51.3075 186.854C49.9011 185.336 49.0181 183.409 48.7878 181.353C51.8818 181.038 54.9943 180.862 58.0975 180.825V180.853Z" fill="#555555"/>
<path fill-rule="evenodd" clip-rule="evenodd" d="M103.608 187.669C104.275 192.475 105.507 197.689 105.118 203.8C104.259 200.882 102.526 198.296 100.153 196.392L99.5785 195.929C97.1728 194.152 94.5443 192.698 91.7603 191.604C99.3129 195.117 104.111 200.51 106.155 207.782C105.498 196.963 106.526 186.107 109.203 175.603C105.331 177.214 102.719 181.298 103.645 187.641L103.608 187.669Z" fill="white"/>
<path fill-rule="evenodd" clip-rule="evenodd" d="M87.2582 190.854C84.5533 190.039 81.1537 188.771 76.8647 187.585C90.3892 192.45 98.6705 198.006 101.709 204.254C101.227 196.142 94.5484 193.04 87.2582 190.817V190.854Z" fill="white"/>
<path fill-rule="evenodd" clip-rule="evenodd" d="M103.219 177.927C102.819 178.469 102.457 179.038 102.135 179.631C104.007 179.707 105.868 179.958 107.693 180.381C106.351 179.3 104.826 178.469 103.191 177.927H103.219ZM100.838 182.918C100.696 183.45 100.591 183.992 100.523 184.539C102.118 184.219 103.742 184.07 105.368 184.094C103.959 183.385 102.415 182.984 100.838 182.918ZM100.412 187.502C100.412 187.9 100.477 188.298 100.533 188.706C101.668 188.391 102.831 188.186 104.006 188.095C102.862 187.65 101.638 187.448 100.412 187.502Z" fill="#1E1E1E"/>
<path fill-rule="evenodd" clip-rule="evenodd" d="M103.654 187.965V188.123H103.988L103.636 187.993L103.654 187.965ZM105.257 178.788C105.023 179.122 104.813 179.472 104.627 179.835C105.664 179.964 106.702 180.149 107.721 180.381C106.957 179.766 106.131 179.232 105.257 178.788ZM103.562 183.372C103.562 183.631 103.497 183.881 103.478 184.15C104.096 184.107 104.713 184.088 105.331 184.094C104.752 183.8 104.147 183.558 103.525 183.372H103.562Z" fill="#3E3E3E"/>
<path fill-rule="evenodd" clip-rule="evenodd" d="M132.046 266.095C134.953 269.697 137.668 273.449 140.179 277.337C140.238 277.431 140.288 277.53 140.328 277.633C140.661 278.559 140.031 279.485 139.503 280.087C138.585 281.18 137.591 282.207 136.53 283.162C132.454 286.94 124.626 294.274 123.246 299.831C122.385 303.312 122.098 306.905 120.263 310.073L119.532 311.323L118.967 309.998C117.943 307.609 116.422 305.465 114.505 303.709C112.589 301.953 110.32 300.624 107.851 299.812L106.619 299.405L107.61 298.571C108.357 298.025 109.158 297.557 110 297.173C111.139 296.605 112.227 295.938 113.251 295.182C118.577 291.191 121.875 285.07 123.719 278.791C121.866 275.022 118.744 271.67 115.817 268.679C113.121 265.9 110.259 263.234 107.786 260.261C105.646 257.677 103.645 254.705 103.154 251.278C102.961 249.998 102.995 248.694 103.256 247.426C103.989 243.808 105.333 240.342 107.23 237.175L107.471 236.767L107.943 236.823C122.301 238.582 128.776 253.797 132.028 266.086L132.046 266.095Z" fill="black"/>
<path fill-rule="evenodd" clip-rule="evenodd" d="M131.389 266.428C126.646 248.525 118.803 238.9 107.86 237.554C105.999 240.651 104.68 244.043 103.96 247.583C101.7 258.872 118.781 267.03 124.515 278.726C122.616 285.329 119.207 291.691 113.714 295.774C111.25 297.627 109.083 298.284 108.092 299.136C110.657 299.98 113.012 301.361 115.003 303.186C116.993 305.011 118.571 307.239 119.634 309.721C121.412 306.655 121.69 303.099 122.542 299.664C123.691 295.034 128.73 289.477 136.03 282.597C138.809 280.013 140.115 278.541 139.577 277.745C137.049 273.831 134.316 270.053 131.389 266.428Z" fill="white"/>
<path fill-rule="evenodd" clip-rule="evenodd" d="M184.143 241.638C184.977 246.546 187.468 251.39 191.831 254.029C199.242 258.502 203.466 264.993 205.448 273.364C205.523 273.618 205.532 273.886 205.474 274.144C205.415 274.402 205.292 274.64 205.115 274.837C204.916 275.04 204.661 275.181 204.383 275.241C204.105 275.302 203.815 275.281 203.549 275.179C203.324 275.076 203.127 274.921 202.974 274.726C202.821 274.531 202.716 274.302 202.669 274.059C200.002 266.215 195.185 260.594 187.691 257.112C182.707 254.807 179.437 249.973 177.955 244.805V244.731V244.657C177.862 242.5 181.799 241.49 183.346 241.101L184.05 240.925L184.171 241.638H184.143Z" fill="black"/>
<path fill-rule="evenodd" clip-rule="evenodd" d="M183.485 241.75C180.178 242.583 178.548 243.546 178.594 244.62C180.039 249.658 183.226 254.307 187.969 256.511C194.972 259.761 200.335 265.123 203.299 273.846C203.401 274.142 203.503 274.439 203.79 274.55C203.932 274.608 204.089 274.622 204.239 274.591C204.389 274.56 204.526 274.484 204.633 274.374C204.729 274.256 204.794 274.117 204.823 273.969C204.852 273.82 204.844 273.667 204.8 273.522C202.679 264.549 198.075 258.594 191.479 254.594C187.005 251.88 184.365 246.917 183.485 241.75Z" fill="white"/>
<path fill-rule="evenodd" clip-rule="evenodd" d="M176.918 174.815C177.46 170.742 178.59 166.768 180.271 163.018C183.587 154.989 184.69 147.099 185.607 138.552V138.255L185.838 138.061C187.855 136.448 190.095 135.138 192.489 134.171L192.702 134.079C194.913 130.572 197.918 127.634 201.475 125.504L202.105 125.133L202.494 125.754C206.3 131.972 208.447 139.064 208.728 146.349V146.654L208.515 146.886C206.218 149.377 203.304 151.217 200.067 152.22V152.331C199.539 154.248 198.464 157.202 196.222 157.637C194.675 157.934 193.249 156.906 192.211 155.887C192.035 155.711 191.359 155.072 191.063 155.035C190.97 155.186 190.904 155.352 190.868 155.526C189.209 161.25 188.004 167.096 187.265 173.009C186.292 180.177 185.699 187.437 185.236 194.651V194.836C185.263 195.4 185.148 195.961 184.902 196.469C184.656 196.977 184.287 197.415 183.828 197.744C181.54 198.966 177.835 195.327 176.417 193.91C173.351 190.854 166.784 191.215 162.819 191.41C160.186 191.566 157.551 191.152 155.093 190.197C151.232 188.571 147.908 185.887 145.506 182.455L145.311 182.196C144.737 181.39 144.19 180.566 143.681 179.723C141.986 176.306 141.736 172.778 144.487 169.87L144.57 169.787L144.672 169.731C153.602 164.823 164.727 161.721 172.267 170.657C173.567 172.3 175.14 173.707 176.918 174.815Z" fill="black"/>
<path fill-rule="evenodd" clip-rule="evenodd" d="M162.745 157.443C155.812 159.467 148.533 160.018 141.375 159.061C134.216 158.104 127.337 155.66 121.18 151.887L121.245 151.368L120.958 150.868C122.097 149.312 123.181 147.655 124.191 146.016C123.67 146.362 123.125 146.672 122.561 146.942C117.89 149.096 112.665 149.743 107.61 148.794C103.849 148.081 99.2727 146.108 97.8461 142.219C96.9198 139.663 97.7442 137.079 99.18 134.903C99.5969 134.273 100.014 133.625 100.449 133.051C93.9648 133.051 81.5427 132.588 78.986 126.43C78.7608 125.883 78.6172 125.305 78.5599 124.717C78.4117 123.337 78.3469 121.688 79.4214 120.642C80.1439 119.938 81.2277 119.577 82.0429 118.836C83.4014 117.387 84.3731 115.62 84.8682 113.697L84.683 113.428C83.136 111.178 83.3768 107.983 84.2568 105.548C85.5722 101.538 88.0455 98.3153 92.4919 99.5284C95.76 96.6961 99.7199 94.7791 103.969 93.9722L103.728 93.6295C102.946 92.5346 102.42 91.2779 102.189 89.9523C101.958 88.6266 102.028 87.266 102.394 85.9712C102.663 84.9474 103.135 83.9883 103.782 83.1513C104.43 82.3143 105.241 81.6166 106.165 81.1002C106.331 80.4334 106.517 79.7667 106.702 79.1V78.9981C107.568 75.3996 109 71.9613 110.944 68.8117C107.008 67.509 102.957 66.5788 98.8465 66.0336L97.9202 65.9224L98.5687 63.9315C99.4086 61.4511 100.466 59.0495 101.727 56.7547L102.005 56.2361L107.035 57.6622L102.848 54.8192L103.237 54.2081C103.478 53.8284 103.728 53.4394 103.988 53.069L104.275 52.6523L106.192 53.0783L104.849 51.8374L105.257 51.3003C106.203 50.0424 107.218 48.8368 108.295 47.6887L108.462 46.4571C108.905 42.511 108.805 38.5228 108.165 34.6038C107.968 33.2888 107.727 31.9831 107.443 30.6867C107.354 30.374 107.336 30.0454 107.39 29.7249C107.445 29.4044 107.57 29.1002 107.758 28.8346C108.462 27.9085 109.833 27.9086 110.861 28.103C115.409 28.8253 121.532 33.0573 124.988 35.9558L125.414 36.3077L126.535 35.9095L129.314 39.8822L128.498 35.252C129.11 35.0668 129.73 34.9001 130.351 34.752L131.639 37.2893V34.4556C133.201 34.1148 134.781 33.8613 136.372 33.6963L136.882 33.6407L140.3 40.4749L140.995 33.437H141.717C148.609 33.5188 155.39 35.1889 161.531 38.3172L162.161 38.6321C164.008 37.7417 165.918 36.9895 167.877 36.3818C170.137 35.6687 176.825 33.4833 178.622 35.9929C178.847 36.3504 178.993 36.7517 179.05 37.17C179.108 37.5884 179.076 38.0142 178.956 38.4191C178.482 40.3244 177.891 42.1986 177.186 44.0309C176.482 45.9848 175.769 47.9295 175.13 49.902L174.528 49.1704L174.046 50.7261C172.369 55.949 169.683 60.857 165.385 64.3759L164.616 64.9964L165.292 65.7187C165.718 66.1817 166.135 66.654 166.543 67.1355C170.336 71.6248 173.021 76.9417 174.382 82.6582C175.743 88.3747 175.742 94.3309 174.379 100.047C173.499 103.323 172.439 106.547 171.202 109.706C170.109 112.548 168.923 115.336 167.793 118.16C165.696 123.153 164.167 128.365 163.236 133.699C162.156 141.221 162.065 148.851 162.967 156.396H162.847L162.745 157.489V157.443Z" fill="black"/>
<path fill-rule="evenodd" clip-rule="evenodd" d="M179.604 64.0982L182.855 61.7924L183.318 62.8202C185.613 67.9892 187.202 73.443 188.043 79.0352L183.837 81.1466L188.284 80.702C188.574 82.8443 188.771 85.005 188.876 87.1843C189.205 95.248 188.636 103.323 187.181 111.261L187.061 111.974L182.531 112.317L187.681 114.049L184.273 115.03L185.958 115.725L185.542 116.651C182.269 123.655 179.691 130.962 177.844 138.468L174.139 137.681L177.603 139.533C176.985 142.145 176.411 144.765 175.88 147.395L175.824 147.682L173.258 148.053L175.602 148.84C175.293 150.488 175.006 152.14 174.741 153.794C174.472 155.109 174.222 156.433 174 157.758L173.925 158.239L173.814 158.915L173.731 159.425C173.731 159.647 173.666 159.869 173.629 160.091L173.49 161.017L173.416 161.582L173.37 161.906C173.323 162.23 173.286 162.545 173.249 162.832L173.203 163.157C173.129 163.749 173.064 164.333 172.999 164.925L172.907 165.74L172.823 166.564L172.768 167.157L172.712 167.768V168.305L172.647 169.111V169.611V169.954L172.592 170.694V171.083V171.482V171.871V172.259V173.056V173.741V174.028L170.739 174.686L172.592 175.001V175.334V176.075C172.592 176.306 172.592 176.538 172.592 176.751V178.14L172.49 178.344L172.119 179.029L171.888 179.464L171.545 180.131L171.313 180.575L170.961 181.27C170.739 181.705 170.517 182.14 170.303 182.576C170.202 182.779 170.1 182.983 170.007 183.187L169.85 183.511L169.627 183.965C169.535 184.159 169.451 184.344 169.359 184.53L169.192 184.881L168.97 185.372L168.766 185.826L168.497 186.428L168.238 187.021L168.034 187.493L167.589 188.558L165.514 192.79L166.163 187.159C167.45 182.196 166.015 175.362 164.458 170.574C164.116 169.537 163.708 168.537 163.421 167.481C162.992 165.893 162.783 164.255 162.8 162.61C162.884 160.906 163.004 159.212 163.161 157.517L163.273 156.35H163.393C162.491 148.805 162.582 141.175 163.662 133.653C164.593 128.319 166.122 123.107 168.219 118.114C169.349 115.29 170.535 112.502 171.628 109.659C172.865 106.501 173.925 103.276 174.805 100.001C176.168 94.2846 176.169 88.3284 174.808 82.612C173.447 76.8955 170.762 71.5785 166.969 67.0893C166.561 66.6078 166.144 66.1355 165.718 65.6725L165.042 64.9501L165.811 64.3297C170.109 60.8107 172.795 55.9027 174.472 50.6799L174.991 49.05L176.075 50.3743C178.392 53.2062 180.421 56.2618 182.133 59.4958L182.374 59.9403L180.03 64.0611L179.604 64.0982Z" fill="black"/>
<path fill-rule="evenodd" clip-rule="evenodd" d="M166.357 276.031C168.21 277.05 170.063 278.106 171.915 279.115C177.353 282.023 177.084 285.829 173.462 290.283C168.831 296.034 165.283 303.025 164.486 310.462C164.377 311.693 164.34 312.93 164.375 314.166C164.534 316.998 164.271 319.838 163.597 322.593L162.939 325.074L162.207 322.611C161.225 319.331 159.332 316.397 156.747 314.149C154.163 311.902 150.994 310.434 147.608 309.915L146.043 309.674L147.247 308.647C148.076 307.978 148.988 307.42 149.961 306.989C150.639 306.709 151.265 306.318 151.814 305.831C157.507 300.029 161.35 292.668 162.856 284.681C158.817 282.579 154.815 280.375 150.953 277.967C147.836 276.065 144.85 273.959 142.013 271.661C138.929 269.105 134.603 264.993 134.288 260.715C133.843 255.159 136.02 249 138.354 244.046C142.06 236.11 147.414 228.433 152.75 221.497C157.937 215.413 167.904 205.523 174.889 215.126C178.42 219.653 181.003 224.844 182.484 230.391C183.964 235.937 184.313 241.725 183.508 247.409C182.703 253.092 180.762 258.556 177.799 263.474C174.837 268.391 170.914 272.662 166.265 276.031H166.357Z" fill="black"/>
<path fill-rule="evenodd" clip-rule="evenodd" d="M144.088 275.031C134.232 273.559 124.7 270.142 117.771 262.678C112.723 257.242 109.823 250.482 108.202 243.314C106.164 234.36 106.035 224.655 106.563 215.533C107.86 192.882 108.415 170.62 120.958 150.859L121.393 150.544L163.828 155.971L163.754 156.674C163.551 158.675 163.399 160.675 163.3 162.675C163.282 164.238 163.482 165.797 163.893 167.305C164.18 168.361 164.579 169.333 164.912 170.361C166.672 175.76 168.618 184.807 165.579 190.169C167.516 198.929 170.711 207.364 175.065 215.209C179.511 223.201 182.846 232.332 182.883 241.574C183.041 248.782 180.734 255.828 176.343 261.548C168.71 271.299 156.233 275.161 144.227 275.041H144.125L144.088 275.031Z" fill="black"/>
<path fill-rule="evenodd" clip-rule="evenodd" d="M110.824 28.7048C108.971 28.4085 107.906 28.9456 108.239 30.4365C108.527 31.7144 108.777 33.0572 108.971 34.4092C109.614 38.3901 109.717 42.4394 109.277 46.4477C113.512 42.1947 118.559 38.8348 124.117 36.5669L124.543 36.3909C119.263 31.9552 113.881 29.2049 110.787 28.7048H110.824Z" fill="white"/>
<path fill-rule="evenodd" clip-rule="evenodd" d="M111.63 69.0802C109.542 72.4533 108.057 76.1632 107.239 80.0445C107.165 80.313 107.1 80.5816 107.035 80.8501C106.477 83.2888 106.096 85.7647 105.896 88.2584C105.954 90.0495 105.693 91.8367 105.127 93.5369C105.646 93.5369 106.164 93.5369 106.674 93.5832C109.07 93.4187 111.477 93.6502 113.797 94.2684H113.862H113.918C114.677 94.6203 115.418 95 116.141 95.4167C117.852 96.4044 119.467 97.5483 120.967 98.8338C121.504 99.3709 122.042 99.908 122.588 100.427L123.107 100.908C123.899 100.926 124.67 101.171 125.327 101.614C125.984 102.057 126.5 102.68 126.812 103.408L127.794 103.686L128.081 103.76C131.453 104.575 134.881 105.844 134.519 109.946C134.021 115.421 134.453 120.941 135.798 126.272V126.337V126.402C135.844 127.154 135.844 127.909 135.798 128.662C137.011 126.809 137.41 124.439 138.521 122.179C138.925 121.315 139.442 120.508 140.059 119.781C140.497 119.276 140.968 118.8 141.467 118.355C141.235 118.938 141.013 119.512 140.809 120.086V119.975C140.142 120.865 139.556 121.814 139.058 122.809C138.938 123.04 138.827 123.281 138.716 123.531C138.605 123.781 138.401 124.217 138.253 124.578L138.141 124.855C137.317 126.911 136.789 128.56 135.64 129.865C135.47 131.435 135.015 132.96 134.297 134.366C134.417 134.209 134.547 134.06 134.658 133.903C134.547 134.06 134.417 134.209 134.297 134.366C132.099 138.395 129.146 141.963 125.599 144.876C124.32 147.074 122.929 149.203 121.43 151.257C109.286 170.361 108.554 191.077 107.146 215.589C105.136 250.649 114.816 269.984 144.061 274.337H145.33C144.175 273.503 143.048 272.636 141.949 271.735C138.864 269.179 134.538 265.067 134.223 260.789C134.287 255.564 135.432 250.409 137.586 245.648C137.817 245.12 138.058 244.611 138.29 244.102C139.216 242.249 140.142 240.351 141.198 238.545C144.69 232.679 148.722 227.152 153.241 222.034C140.207 239.008 134.232 251.917 134.927 260.77C135.223 264.567 139.058 269.105 146.525 274.346C175.241 273.309 192.98 249.343 174.24 215.626C169.813 207.623 166.58 199.015 164.644 190.076C166.691 186.724 167.145 180.047 164.069 170.63C163.003 168.125 162.442 165.434 162.42 162.712C162.513 160.693 162.667 158.678 162.884 156.665C159.762 126.106 169.136 119.522 174.287 100.112C175.644 94.389 175.639 88.4278 174.273 82.7071C172.907 76.9864 170.218 71.6658 166.422 67.1726C165.811 66.4502 165.181 65.7464 164.57 65.0704L163.875 65.5705C168.506 62.3479 171.943 57.338 174.064 50.5131C175.611 45.5588 177.39 41.5954 178.14 38.2524C178.891 34.9094 175.111 34.8445 168.015 37.0856C157.993 40.2526 151.842 45.7347 149.424 54.5692C148.833 56.8585 147.896 59.0444 146.645 61.0514C146.469 61.32 146.293 61.5793 146.108 61.8293C141.497 60.8284 136.685 61.3933 132.431 63.4345C128.178 65.4758 124.727 68.8767 122.625 73.0992L122.227 73.9049L121.43 73.4789C118.31 71.7913 115.057 70.3605 111.704 69.2006L111.509 69.1265L111.63 69.0802ZM137.891 128.995C137.891 129.078 137.817 129.152 137.771 129.236C137.771 129.152 137.826 129.078 137.845 129.004L137.891 128.995ZM135.427 133.042L135.001 133.616L135.177 133.375C135.27 133.264 135.344 133.153 135.427 133.042Z" fill="white"/>
<path fill-rule="evenodd" clip-rule="evenodd" d="M174.398 215.561C169.97 207.558 166.737 198.95 164.801 190.012C165.941 188.16 166.589 185.243 166.404 181.409C160.228 180.742 153.024 180.304 144.792 180.094C145.837 184.739 148.37 188.916 152.007 191.99C155.643 195.064 160.185 196.866 164.94 197.124C165.621 201.84 167.093 206.408 169.294 210.634C166.836 210.671 164.43 211.352 162.317 212.608C160.204 213.864 158.458 215.651 157.252 217.793C164.446 210.687 170.152 209.943 174.37 215.561H174.398Z" fill="#E5E5E4"/>
<path fill-rule="evenodd" clip-rule="evenodd" d="M111.63 69.0803C109.542 72.4535 108.057 76.1633 107.239 80.0446C107.165 80.3132 107.1 80.5817 107.035 80.8503C106.477 83.2889 106.096 85.7649 105.896 88.2586C105.954 90.0497 105.693 91.8368 105.127 93.537C105.646 93.537 106.164 93.537 106.674 93.5833C109.07 93.4188 111.477 93.6504 113.797 94.2686H113.862H113.918L114.844 94.6946C117.188 92.4072 117.012 88.0919 116.53 82.4523C116.169 78.2944 119.105 75.4607 122.384 73.8679L121.588 73.442C118.467 71.7544 115.214 70.3236 111.861 69.1637L111.667 69.0896L111.63 69.0803Z" fill="#E5E5E4"/>
<path fill-rule="evenodd" clip-rule="evenodd" d="M111.63 69.0803C109.542 72.4535 108.057 76.1633 107.239 80.0446C107.165 80.3132 107.1 80.5817 107.035 80.8503C106.477 83.289 106.096 85.7649 105.896 88.2586C105.954 90.0497 105.693 91.8368 105.127 93.537C105.525 93.537 105.914 93.537 106.313 93.537C106.52 93.4705 106.73 93.4149 106.943 93.3703C107.467 91.9109 107.794 90.388 107.915 88.842C108.388 82.8968 108.842 76.9609 111.324 71.5251C115.063 71.969 118.753 72.7564 122.347 73.8772L121.551 73.4512C118.43 71.7637 115.177 70.3329 111.824 69.1729L111.63 69.0988V69.0803Z" fill="#CECECE"/>
<path fill-rule="evenodd" clip-rule="evenodd" d="M157.965 103.158C158.372 102.964 158.771 102.77 159.16 102.547C159.782 101.413 160.339 100.245 160.827 99.0469C158.832 101.067 156.624 102.864 154.241 104.409C153.282 105.031 152.279 105.582 151.24 106.057C150.305 106.502 149.323 106.841 148.312 107.066C147.146 107.332 146.027 107.775 144.996 108.381C144.644 108.585 144.301 108.807 143.968 109.03C142.875 109.797 141.84 110.645 140.874 111.567C140.281 112.113 139.688 112.687 139.095 113.28C138.29 114.076 137.474 114.891 136.641 115.697L135.714 116.568C135.375 116.914 134.912 117.114 134.427 117.123C134.561 119.7 134.908 122.262 135.464 124.782C135.603 124.494 135.733 124.189 135.853 123.855C136.094 123.254 136.307 122.605 136.511 121.902C136.742 121.095 137.079 120.323 137.511 119.605C138.182 118.507 139.027 117.525 140.013 116.697L140.476 116.317C141.394 115.61 142.377 114.99 143.412 114.465L144.153 114.095C145.293 113.549 146.404 112.956 147.488 112.298C148.572 111.641 149.535 111.011 150.508 110.289C151.988 109.203 153.39 108.015 154.704 106.733C155.856 105.611 156.936 104.417 157.937 103.158H157.965Z" fill="#E5E5E4"/>
<path fill-rule="evenodd" clip-rule="evenodd" d="M135.863 123.883C135.742 124.198 135.613 124.504 135.474 124.809C135.585 125.315 135.705 125.825 135.835 126.337V126.402V126.467C135.881 127.219 135.881 127.974 135.835 128.726C136.143 128.255 136.406 127.756 136.622 127.235C137.298 125.689 137.725 123.92 138.558 122.207C138.97 121.335 139.493 120.519 140.115 119.781C140.355 119.503 140.615 119.225 140.883 118.957L141.513 118.364C142.632 117.391 143.849 116.538 145.145 115.817L146.071 115.317C147.218 114.72 148.328 114.055 149.396 113.326C149.934 112.956 150.452 112.576 150.962 112.187C151.731 111.585 152.463 110.956 153.157 110.335C154.299 109.261 155.355 108.1 156.316 106.863C157.352 105.521 158.282 104.099 159.095 102.612C158.706 102.834 158.308 103.029 157.9 103.223C155.756 105.917 153.264 108.315 150.489 110.354C149.563 111.076 148.507 111.743 147.47 112.363C146.432 112.984 145.274 113.613 144.135 114.16L143.394 114.53C142.173 115.149 141.027 115.904 139.976 116.78C138.992 117.61 138.147 118.592 137.475 119.688C137.042 120.406 136.705 121.179 136.474 121.985C136.27 122.689 136.057 123.337 135.816 123.939L135.863 123.883Z" fill="#CECECE"/>
<path fill-rule="evenodd" clip-rule="evenodd" d="M163.023 156.008C160.077 125.976 169.359 119.318 174.481 100.029C175.838 94.3058 175.834 88.3446 174.468 82.6239C173.102 76.9033 170.413 71.5826 166.617 67.0894C166.089 66.4597 165.533 65.8392 164.959 65.2373C161.133 67.9745 156.581 69.5179 151.879 69.673C155.372 70.5496 158.635 72.17 161.444 74.4236C164.253 76.6771 166.542 79.5106 168.155 82.7302C171.415 89.2124 171.971 96.9819 168.868 103.566C161.142 119.966 158.78 138.376 163.013 155.998L163.023 156.008Z" fill="#E5E5E4"/>
<path fill-rule="evenodd" clip-rule="evenodd" d="M139.448 80.2111C139.755 80.7122 140.174 81.1366 140.67 81.452C141.272 81.6244 141.906 81.6523 142.521 81.5334C143.135 81.4144 143.713 81.1519 144.207 80.7674C144.701 80.3829 145.097 79.8871 145.363 79.3205C145.629 78.7539 145.757 78.1326 145.737 77.5071C145.568 78.1441 145.256 78.7343 144.825 79.2332C144.394 79.7321 143.855 80.1267 143.25 80.3871C142.644 80.6475 141.987 80.7669 141.328 80.7365C140.67 80.706 140.027 80.5263 139.448 80.2111Z" fill="black"/>
<path fill-rule="evenodd" clip-rule="evenodd" d="M141.069 82.2114C141.379 82.7103 141.797 83.1341 142.291 83.4523C142.893 83.6226 143.526 83.649 144.14 83.5292C144.754 83.4093 145.331 83.1467 145.824 82.7626C146.318 82.3785 146.714 81.8836 146.98 81.3181C147.247 80.7526 147.376 80.1322 147.358 79.5073C147.186 80.1423 146.872 80.7302 146.441 81.227C146.009 81.7239 145.471 82.117 144.866 82.3769C144.262 82.6369 143.606 82.757 142.949 82.7283C142.291 82.6997 141.648 82.5229 141.069 82.2114Z" fill="black"/>
<path fill-rule="evenodd" clip-rule="evenodd" d="M141.661 84.6747C142.06 85.2118 141.995 85.3878 142.356 85.5174C142.962 85.7666 143.618 85.8679 144.27 85.8132C144.922 85.7584 145.552 85.5491 146.108 85.2026C147.154 84.4432 148.081 82.906 147.96 81.9707C147.787 82.606 147.472 83.1939 147.039 83.6907C146.607 84.1876 146.068 84.5806 145.463 84.8404C144.857 85.1003 144.201 85.2203 143.543 85.1916C142.885 85.163 142.242 84.9863 141.661 84.6747Z" fill="black"/>
<path fill-rule="evenodd" clip-rule="evenodd" d="M161.235 38.8913C155.186 35.8044 148.508 34.1504 141.717 34.0574L140.837 42.9844L136.492 34.3074C135.131 34.4463 133.769 34.6593 132.417 34.9279V40.197L130.017 35.4835L129.378 35.6594L130.647 42.827L126.312 36.6225C125.691 36.8448 125.071 37.0855 124.459 37.3355C117.114 40.3515 110.715 45.2868 105.933 51.6243L108.814 54.2821L104.682 53.356C104.432 53.7264 104.182 54.0968 103.941 54.4765L111.352 59.5049L102.468 56.9861C101.23 59.2431 100.191 61.6043 99.3652 64.0425L98.9946 65.1723C103.449 65.7801 107.831 66.8349 112.074 68.3208C115.47 69.5042 118.766 70.9565 121.931 72.6639C124.068 68.3505 127.56 64.8559 131.873 62.7152C136.186 60.5745 141.082 59.9055 145.811 60.8106C147.109 58.7928 148.072 56.5789 148.664 54.2543C149.526 50.9432 151.091 47.8568 153.254 45.2055C155.417 42.5543 158.126 40.4006 161.198 38.8913H161.235Z" fill="white"/>
<path fill-rule="evenodd" clip-rule="evenodd" d="M107.897 77.4424C109.071 77.2488 110.272 77.295 111.428 77.5783C112.584 77.8616 113.67 78.3761 114.622 79.0907C114.086 77.4909 113.125 76.0666 111.843 74.9698C110.873 74.605 109.821 74.5184 108.805 74.7198C108.462 75.6459 108.147 76.5163 107.878 77.4424H107.897Z" fill="#232323"/>
<path fill-rule="evenodd" clip-rule="evenodd" d="M127.396 76.5163C127.73 75.4356 128.22 74.4093 128.85 73.4696C132.037 69.8396 137.762 71.8028 141.032 76.1644C135.523 73.695 130.978 73.8123 127.396 76.5163Z" fill="black"/>
<path fill-rule="evenodd" clip-rule="evenodd" d="M150.98 112.15C149.448 113.339 147.811 114.386 146.089 115.28C144.458 116.111 142.931 117.134 141.541 118.327V118.392V118.327C141.071 118.749 140.626 119.197 140.207 119.67C136.372 124.041 138.003 129.977 131.685 131.393C131.62 131.671 131.546 131.94 131.463 132.208C136.28 130.903 136.789 128.504 138.253 124.8L138.364 124.522C138.512 124.161 138.67 123.809 138.827 123.476C139.389 122.216 140.091 121.023 140.92 119.92C140.902 119.831 140.902 119.74 140.92 119.651C140.902 119.74 140.902 119.831 140.92 119.92C142.384 118.506 144.063 117.334 145.895 116.447C148.558 115.15 151.003 113.444 153.139 111.391C156.687 107.972 159.321 103.719 160.8 99.019C158.744 104.186 155.356 108.717 150.98 112.15Z" fill="black"/>
<path fill-rule="evenodd" clip-rule="evenodd" d="M165.644 66.0242C165.78 68.7456 165.127 71.4484 163.765 73.8086C162.403 76.1688 160.389 78.0863 157.965 79.3314C160.402 79.2025 162.788 78.5862 164.982 77.5189C167.176 76.4515 169.134 74.9549 170.739 73.1176C169.551 70.9782 168.158 68.9592 166.58 67.0891C166.274 66.728 165.968 66.3668 165.653 66.0242H165.644Z" fill="#3E3E3E"/>
<path fill-rule="evenodd" clip-rule="evenodd" d="M171.888 75.3589C171.591 82.7672 160.123 92.398 150.082 96.4077C156.26 96.2503 170.461 92.5925 175.222 87.1473C174.76 83.0655 173.634 79.0866 171.888 75.3681V75.3589ZM175.454 90.9256C168.59 103.857 158.17 114.557 145.422 121.763C155.322 118.772 164.476 113.723 172.286 106.946C173.055 104.807 173.777 102.529 174.444 100.038C175.151 97.0561 175.49 93.999 175.454 90.9349V90.9256ZM147.914 104.677C150.506 106.086 153.412 106.816 156.362 106.798C157.401 105.457 158.33 104.036 159.141 102.547C155.721 104.451 151.776 105.199 147.896 104.677H147.914ZM153.203 110.234C151.188 110.467 149.145 110.211 147.25 109.485C145.355 108.759 143.663 107.587 142.319 106.066C142.964 107.68 143.927 109.148 145.151 110.383C146.374 111.617 147.834 112.593 149.443 113.252C149.98 112.882 150.499 112.502 151.008 112.113C151.777 111.511 152.509 110.882 153.203 110.261V110.234Z" fill="#3E3E3E"/>
<path fill-rule="evenodd" clip-rule="evenodd" d="M171.888 75.3589C171.786 77.8314 170.452 80.5447 168.349 83.2117C169.467 85.5555 170.232 88.0521 170.619 90.62C172.346 89.7252 173.911 88.5484 175.25 87.1381C174.788 83.0563 173.662 79.0774 171.915 75.3589H171.888ZM165.292 112.308C166.308 109.333 167.49 106.418 168.831 103.575C169.477 102.194 169.974 100.747 170.313 99.2599C172.201 96.593 173.918 93.8094 175.454 90.9256C175.49 93.9897 175.151 97.0468 174.444 100.029C173.777 102.52 173.055 104.798 172.286 106.937C170.064 108.865 167.729 110.659 165.292 112.308Z" fill="#2D2D2D"/>
<path fill-rule="evenodd" clip-rule="evenodd" d="M142.838 132.782C150.451 133.234 158.027 131.426 164.616 127.587C165.772 123.54 167.189 119.571 168.859 115.706C161.994 122.189 153.5 127.31 144.088 128.375C142.078 128.606 138.216 129.088 136.363 129.125C136.185 129.387 135.99 129.637 135.779 129.875C135.66 130.881 135.433 131.871 135.103 132.829C135.029 133.032 134.946 133.245 134.853 133.458L135.177 133.412C135.464 133.329 135.761 133.245 136.057 133.19H136.168H136.354H136.474H136.678C138.714 132.863 140.781 132.776 142.838 132.931V132.782ZM115.048 164.129C114.316 165.981 113.677 167.889 113.094 169.796C117.405 168.118 121.928 167.043 126.535 166.601C138.71 165.636 150.791 163.707 162.661 160.832C162.754 159.418 162.874 158.002 163.023 156.582C162.93 155.73 162.856 154.896 162.791 154.072C161.068 154.563 159.262 155.054 158.548 155.285C153.191 156.937 147.729 158.23 142.199 159.156C138.29 159.814 134.214 160.341 129.98 160.712C125.747 161.082 119.578 162.795 115.057 164.129H115.048ZM134.306 147.516C143.283 147.377 154.111 149.757 162.43 146.423C162.372 142.836 162.564 139.25 163.004 135.69C154.545 140.092 145.192 142.502 135.659 142.737C132.92 142.775 130.185 142.976 127.47 143.339C126.896 143.876 126.321 144.386 125.747 144.849C125.015 146.099 124.256 147.321 123.459 148.553C127.041 147.921 130.669 147.58 134.306 147.534V147.516Z" fill="#3E3E3E"/>
<path fill-rule="evenodd" clip-rule="evenodd" d="M130.684 74.0809C133.145 68.6444 137.315 64.1603 142.56 61.3108C140.187 61.2247 137.817 61.5377 135.548 62.2369C133.089 65.7938 131.43 69.8407 130.684 74.0994V74.0809ZM131.991 63.6908C129.627 64.912 127.515 66.5676 125.766 68.571C123.848 73.9459 122.246 79.4281 120.967 84.9897C123.981 74.5439 127.655 67.4443 131.991 63.6908ZM119.226 72.2659C118.568 71.9418 117.91 71.6362 117.253 71.3399C117.592 75.5009 117.7 79.6776 117.577 83.8506L119.226 72.2659Z" fill="black"/>
<path fill-rule="evenodd" clip-rule="evenodd" d="M117.633 77.8684C117.932 77.3921 118.276 76.9456 118.661 76.5349L119.272 72.2381C118.624 71.9139 117.957 71.6083 117.299 71.312C117.478 73.0097 117.589 75.1952 117.633 77.8684Z" fill="black"/>
<path fill-rule="evenodd" clip-rule="evenodd" d="M147.479 49.013C146.966 51.4191 146.266 53.7816 145.385 56.0787C140.198 55.8689 135.087 57.3825 130.85 60.3829C126.614 63.3834 123.49 67.7019 121.968 72.664C124.106 68.3516 127.599 64.858 131.912 62.7175C136.224 60.5769 141.119 59.9072 145.849 60.8108C146.025 60.5515 146.191 60.2829 146.349 60.0143L146.738 59.3291C147.571 57.726 148.226 56.0368 148.692 54.2914C149.554 50.9804 151.119 47.8939 153.282 45.2427C155.445 42.5914 158.154 40.4377 161.226 38.9284C159.953 38.3111 158.66 37.7308 157.344 37.1875C151.786 39.2896 148.563 43.2623 147.47 49.0501L147.479 49.013Z" fill="#E5E5E4"/>
<path fill-rule="evenodd" clip-rule="evenodd" d="M173.768 153.609C174.003 152.152 174.253 150.698 174.518 149.247L170.007 147.729L174.944 147.016C175.417 144.599 175.945 142.182 176.519 139.793L168.951 135.848L177.084 137.561C178.941 130.215 181.49 123.062 184.699 116.197L181.457 114.854L184.56 113.928L177.89 111.687L186.227 111.058C187.675 103.178 188.238 95.1611 187.904 87.1565C187.811 85.2303 187.647 83.3443 187.413 81.4984L179.882 82.2392L187.014 78.6647C186.18 73.3376 184.654 68.1419 182.475 63.2091L176.741 67.293L180.891 59.968C179.21 56.7892 177.214 53.7862 174.935 51.0039C173.194 56.4398 170.396 61.4589 165.987 65.0797C166.422 65.552 166.848 66.0057 167.256 66.5243C171.142 71.127 173.894 76.5769 175.29 82.436C176.687 88.295 176.689 94.3999 175.296 100.26C174.402 103.561 173.326 106.81 172.073 109.993C170.98 112.836 169.785 115.632 168.655 118.457C166.585 123.387 165.075 128.534 164.153 133.801C163.082 141.311 163.001 148.93 163.912 156.461L163.662 157.563C163.501 159.249 163.381 160.934 163.3 162.619C163.298 163.484 163.357 164.347 163.476 165.203C166.59 165.83 169.425 167.428 171.573 169.768C171.959 164.328 172.692 158.919 173.768 153.572V153.609Z" fill="#E5E5E4"/>
<path fill-rule="evenodd" clip-rule="evenodd" d="M176.917 53.6246C176.269 52.6986 175.602 51.8559 174.898 51.0039C173.157 56.4398 170.359 61.4589 165.95 65.0797C166.385 65.552 166.811 66.0057 167.219 66.5243C171.105 71.127 173.857 76.5769 175.253 82.436C176.65 88.295 176.652 94.3999 175.259 100.26C174.377 103.56 173.314 106.81 172.073 109.993C170.98 112.836 169.785 115.632 168.655 118.457C166.585 123.387 165.075 128.534 164.153 133.801C163.082 141.311 163.001 148.93 163.912 156.461L163.662 157.563C163.501 159.249 163.381 160.934 163.3 162.619C163.298 163.484 163.357 164.347 163.476 165.203C164.379 165.383 165.263 165.647 166.116 165.99C166.137 165.363 166.233 164.742 166.404 164.138C167.497 160.369 168.432 158.804 167.46 152.572C165.529 140.997 167.241 129.109 172.36 118.549C182.364 97.6207 181.623 79.8408 170.637 65.5057C173.95 62.3206 176.152 58.1555 176.917 53.6246Z" fill="#CECECE"/>
<path fill-rule="evenodd" clip-rule="evenodd" d="M152.703 58.3846C155.686 48.0314 161.967 41.2991 172.721 39.2896L173.166 39.2063L173.231 39.6601C173.78 43.4483 173.404 47.313 172.136 50.9248C170.869 54.5366 168.746 57.7885 165.95 60.4033C161.67 64.5057 155.075 67.8116 149.007 67.3116H148.757C148.364 67.8006 147.906 68.2337 147.396 68.5988C147.692 68.1635 147.988 67.719 148.276 67.2745L148.674 66.6633C150.416 64.126 151.773 61.3458 152.703 58.4123V58.3846Z" fill="black"/>
<path fill-rule="evenodd" clip-rule="evenodd" d="M153.12 58.5048C152.176 61.4668 150.802 64.2747 149.044 66.8392C159.29 67.7652 175.158 56.875 172.796 39.6877C162.513 41.6046 156.168 47.9202 153.12 58.4678V58.5048Z" fill="#F59A9C"/>
<path fill-rule="evenodd" clip-rule="evenodd" d="M153.12 58.5049C152.176 61.4669 150.802 64.2747 149.044 66.8393C154.602 67.3301 161.781 64.3668 166.839 58.8291C163.426 61.3486 159.308 62.7347 155.066 62.7925C155.494 60.7004 155.804 58.5856 155.992 56.4584C156.19 53.8296 156.97 51.2776 158.273 48.9861C159.577 46.6946 161.373 44.7208 163.532 43.2068C158.502 46.4479 155.084 51.5411 153.083 58.4679L153.12 58.5049Z" fill="#F07475"/>
<path fill-rule="evenodd" clip-rule="evenodd" d="M111.63 44.2438C111.229 41.3199 111.32 38.3497 111.898 35.4557L111.982 35.002L112.426 35.1131C115.175 35.75 117.79 36.8659 120.152 38.4098C117.098 40.0239 114.239 41.9813 111.63 44.2438Z" fill="black"/>
<path fill-rule="evenodd" clip-rule="evenodd" d="M119.726 38.6877C117.448 37.2429 114.943 36.191 112.315 35.5762C111.774 38.3209 111.674 41.1343 112.019 43.9105C114.393 41.8896 116.973 40.1236 119.717 38.6414L119.726 38.6877Z" fill="#F59A9C"/>
<path fill-rule="evenodd" clip-rule="evenodd" d="M165.144 65.4687C165.602 64.937 165.974 64.3371 166.246 63.6907C162.234 67.2165 157.172 69.3222 151.842 69.6821C156.599 69.6482 161.235 68.1797 165.144 65.4687Z" fill="black"/>
<path fill-rule="evenodd" clip-rule="evenodd" d="M104.423 93.8055L104.367 93.7407C103.489 92.6732 102.882 91.4086 102.6 90.0554C102.318 88.7022 102.368 87.3007 102.746 85.9712C103.765 82.3133 107.313 79.6093 111.083 81.0446C114.853 82.48 116.345 86.9991 115.326 90.6755C114.978 91.9706 114.302 93.154 113.362 94.1111C110.428 93.4 107.38 93.296 104.404 93.8055H104.423Z" fill="black"/>
<path fill-rule="evenodd" clip-rule="evenodd" d="M136.53 112.706C135.142 117.447 135.19 122.494 136.669 127.208C137.345 125.661 137.771 123.893 138.605 122.179C137.105 119.254 136.39 115.99 136.53 112.706ZM138.79 107.076C138.429 111.145 139.171 115.236 140.939 118.92L141.569 118.327C142.688 117.355 143.905 116.501 145.2 115.78C142.064 113.767 139.782 110.667 138.79 107.076Z" fill="#3E3E3E"/>
<path fill-rule="evenodd" clip-rule="evenodd" d="M135.863 123.883C136.058 125.011 136.327 126.125 136.668 127.217C137.345 125.671 137.771 123.902 138.605 122.189C138.182 121.364 137.82 120.51 137.521 119.633C137.088 120.351 136.751 121.123 136.52 121.929C136.316 122.633 136.103 123.281 135.863 123.883ZM154.732 106.742C155.274 106.792 155.818 106.813 156.362 106.807C157.399 105.465 158.328 104.044 159.141 102.557C158.752 102.779 158.354 102.973 157.946 103.168C156.945 104.426 155.865 105.62 154.713 106.742H154.732ZM147.516 112.299C148.129 112.682 148.774 113.013 149.443 113.289C149.98 112.919 150.499 112.539 151.008 112.15C151.777 111.548 152.509 110.919 153.203 110.298C152.317 110.396 151.422 110.396 150.536 110.298C149.609 111.021 148.553 111.687 147.516 112.308V112.299ZM141.569 118.327C142.687 117.355 143.904 116.501 145.2 115.78C144.585 115.382 143.997 114.943 143.44 114.465C142.22 115.085 141.073 115.84 140.022 116.716C140.292 117.466 140.601 118.202 140.948 118.92L141.578 118.327H141.569Z" fill="#1E1E1E"/>
<path fill-rule="evenodd" clip-rule="evenodd" d="M135.724 116.568C135.409 118.996 135.455 121.459 135.863 123.874C136.104 123.272 136.317 122.624 136.52 121.92C136.752 121.114 137.088 120.342 137.521 119.623C137.07 118.352 136.759 117.036 136.594 115.697L135.668 116.568H135.724ZM151.24 106.057C152.377 106.402 153.548 106.629 154.732 106.733C155.884 105.611 156.964 104.417 157.965 103.158C156.779 103.71 155.537 104.129 154.26 104.409C153.301 105.031 152.298 105.582 151.258 106.057H151.24ZM150.536 110.289C148.557 110.107 146.651 109.452 144.978 108.381C144.626 108.585 144.283 108.807 143.95 109.03C144.915 110.333 146.119 111.443 147.497 112.298C148.535 111.678 149.545 111.011 150.517 110.289H150.536ZM139.096 113.28C139.312 114.448 139.621 115.597 140.022 116.716L140.485 116.336C141.404 115.628 142.387 115.008 143.422 114.484C142.446 113.631 141.584 112.657 140.856 111.585C140.263 112.132 139.67 112.706 139.077 113.299L139.096 113.28Z" fill="#2D2D2D"/>
<path fill-rule="evenodd" clip-rule="evenodd" d="M117.364 72.5251L119.124 72.951L119.226 72.238L119.142 72.1917H119.068L118.744 72.025L118.596 71.9602H118.549H118.503L118.401 71.9139L118.272 71.8491H118.179H118.105L117.984 71.7935L117.864 71.7472H117.799H117.734H117.651L117.54 71.6917H117.484C117.484 72.0713 117.558 72.4788 117.595 72.9048L117.364 72.5251Z" fill="black"/>
<path fill-rule="evenodd" clip-rule="evenodd" d="M135.112 126.495C133.725 121.086 133.289 115.477 133.825 109.919C134.066 106.752 131.972 105.492 127.943 104.52L127.628 104.436C127.922 105.594 128.022 106.793 127.924 107.983C127.924 108.261 127.878 108.539 127.841 108.826C127.523 111.099 126.794 113.295 125.692 115.308L125.831 114.827C125.831 114.669 125.923 114.512 125.96 114.354C126.09 113.891 126.21 113.428 126.312 113.002C126.312 112.863 126.377 112.734 126.405 112.604V112.539C126.498 112.113 126.581 111.697 126.646 111.298C126.646 111.169 126.692 111.048 126.711 110.928V110.872C126.711 110.752 126.711 110.632 126.757 110.511C126.757 110.391 126.757 110.271 126.803 110.15C126.803 110.039 126.803 109.919 126.803 109.807V109.474V109.419V109.113V109.048V108.761V108.678C126.803 108.585 126.803 108.493 126.803 108.4V108.344C126.803 108.252 126.803 108.159 126.803 108.067V107.215V106.974V106.89V106.668V106.566V106.372V106.261V106.085V105.992V105.807V105.714V105.52V105.437V105.298V105.159V105.066L126.757 104.918V104.816C126.761 104.761 126.761 104.705 126.757 104.649V104.594L126.701 104.427V104.372C126.684 104.315 126.662 104.259 126.637 104.205V104.14C126.609 104.093 126.588 104.044 126.572 103.992C126.326 103.307 125.866 102.719 125.261 102.316C124.655 101.912 123.936 101.714 123.209 101.751H123.024H122.848H122.663H122.477L122.274 101.807L122.07 101.871C121.922 101.927 121.783 101.973 121.644 102.038L121.421 102.14H121.347H121.292H121.236H121.18H121.134H121.069H121.004L120.94 102.186H120.893H120.838H120.791L120.736 102.233H120.671L120.615 102.279L120.56 102.325H120.495L120.439 102.371L120.375 102.418L120.31 102.464L120.254 102.51H120.189L120.134 102.557L120.069 102.612L120.013 102.658L119.948 102.705L119.884 102.76L119.828 102.807L119.763 102.862L119.708 102.918L119.643 102.973L119.578 103.02L119.522 103.075L119.457 103.131L119.393 103.186L119.337 103.251L119.272 103.307L119.207 103.362L119.143 103.427L119.087 103.483L119.022 103.547L118.892 103.668L118.837 103.733L118.707 103.862L118.457 104.122L118.327 104.261L118.272 104.325L118.142 104.464L117.948 104.686L117.892 104.761L117.827 104.835L117.568 105.14L117.318 105.446L117.253 105.529L117.188 105.613L117.123 105.696L117.058 105.779L116.938 105.946L116.873 106.029L116.808 106.122C117.812 104.519 119.038 103.066 120.449 101.807C120.615 101.658 120.782 101.519 120.949 101.39C121.621 100.866 122.371 100.45 123.172 100.158C122.607 99.6303 122.06 99.084 121.523 98.5469C120.057 97.2886 118.478 96.1665 116.808 95.1946C116.098 94.7871 115.375 94.4167 114.641 94.0834C110.98 93.1759 107.151 93.1925 103.498 94.1316C99.8452 95.0708 96.4833 96.9031 93.7148 99.4637C90.1391 98.2968 87.5701 100.103 86.0077 104.881C85.1277 107.298 85.0073 110.178 86.3319 112.113C87.5384 108.229 89.503 104.622 92.1122 101.501C89.6525 104.843 87.831 108.61 86.7395 112.613C83.8216 122.383 79.6624 117.392 80.3293 123.726C80.9129 129.282 89.2684 131.616 103.024 131.366C114.179 129.69 124.33 123.976 131.546 115.308C128.132 119.943 123.792 123.818 118.801 126.687C113.809 129.557 108.276 131.358 102.552 131.977C102.015 132.671 101.468 133.523 100.838 134.477C93.8815 145.025 111.176 151.192 123.274 145.423C127.628 143.349 133.88 136.163 135.437 131.708C136.081 129.762 136.323 127.704 136.15 125.661L135.112 126.495Z" fill="#3E3E3E"/>
<path fill-rule="evenodd" clip-rule="evenodd" d="M130.508 116.179C124.628 123.221 116.787 128.359 107.98 130.94C103.015 138.265 106.452 141.719 118.068 139.274C122.635 138.348 126.636 130.014 130.508 116.123V116.179Z" fill="black"/>
<path fill-rule="evenodd" clip-rule="evenodd" d="M129.582 117.892C123.838 124.224 116.47 128.864 108.277 131.31C107.146 133.005 105.581 135.848 106.563 137.709C108.147 140.7 115.289 139.459 118.049 138.894C123.552 137.746 127.841 124.078 129.619 117.892H129.582Z" fill="#CD2027"/>
<path fill-rule="evenodd" clip-rule="evenodd" d="M129.582 117.892C123.838 124.224 116.47 128.864 108.277 131.31C107.146 133.005 105.581 135.848 106.563 137.709C108.147 140.7 115.289 139.459 118.049 138.894C122.561 137.968 126.266 128.588 128.424 121.828C125.015 130.884 122.097 135.607 119.726 136.274C115.354 137.505 111.723 138.441 109.536 137.283C108.147 136.552 108.786 134.329 110.305 131.968C119.674 127.893 126.121 123.201 129.647 117.892H129.582Z" fill="#A51E22"/>
<path fill-rule="evenodd" clip-rule="evenodd" d="M123.394 106.752C119.985 104.677 117.185 108.635 114.992 118.623C124.108 114.08 126.908 110.122 123.394 106.752Z" fill="#323232"/>
<path fill-rule="evenodd" clip-rule="evenodd" d="M115.409 117.132C116.456 115.364 120.365 114.401 122.57 112.391C124.774 110.382 123.913 106.464 121.347 106.242C118.877 106.588 116.759 110.715 114.992 118.623C115.122 118.105 115.27 117.614 115.409 117.132Z" fill="black"/>
<path fill-rule="evenodd" clip-rule="evenodd" d="M120.986 102.214C125.747 100.001 128.841 104.927 125.682 115.299C126.792 113.288 127.523 111.091 127.841 108.817C127.841 108.53 127.905 108.252 127.924 107.974C128.137 104.918 127.266 102.501 125.719 101.39C125.219 101.044 124.643 100.824 124.04 100.748C123.437 100.672 122.825 100.743 122.255 100.955C121.407 101.244 120.614 101.677 119.911 102.232C119.744 102.362 119.578 102.501 119.411 102.649C118 103.909 116.774 105.362 115.771 106.965C116.868 105.404 118.213 104.034 119.754 102.908C120.145 102.642 120.557 102.406 120.986 102.205V102.214Z" fill="black"/>
<path fill-rule="evenodd" clip-rule="evenodd" d="M114.659 135.273C116.005 132.72 117.154 130.067 118.096 127.337C118.096 127.245 118.16 127.143 118.197 127.05L116.901 127.763L116.817 128.06C116.169 130.477 115.456 132.884 114.659 135.273Z" fill="#951A1D"/>
<path fill-rule="evenodd" clip-rule="evenodd" d="M88.027 102.214C88.5858 101.741 89.2364 101.389 89.9379 101.181C90.6394 100.972 91.3765 100.911 92.1029 101.001L92.6772 100.315C89.1016 99.1486 86.5325 100.954 84.9701 105.733C84.0901 108.15 83.9697 111.03 85.2943 112.965C86.5008 109.081 88.4654 105.474 91.0746 102.353C88.5334 104.544 86.576 107.331 85.3777 110.465C85.2364 107.491 86.1629 104.565 87.99 102.214H88.027Z" fill="#2D2D2D"/>
<path fill-rule="evenodd" clip-rule="evenodd" d="M103.413 130.041C85.1647 132.412 79.9124 125.661 83.0341 122.772C85.1289 121.004 86.5112 118.536 86.9247 115.827C87.6279 111.15 89.0365 106.607 91.1024 102.353C88.6427 105.695 86.8212 109.462 85.7297 113.465C82.8118 123.235 78.6526 118.244 79.3196 124.578C79.9032 130.134 88.2586 132.468 102.015 132.218C104.041 131.93 106.044 131.497 108.008 130.921C116.814 128.341 124.655 123.203 130.536 116.16C121.782 124.031 112.76 128.819 103.441 130.051L103.413 130.041Z" fill="#2D2D2D"/>
<path fill-rule="evenodd" clip-rule="evenodd" d="M115.78 106.974C123.348 99.797 127.479 102.408 125.692 115.308C128.85 104.936 125.756 100.01 120.995 102.223C120.566 102.425 120.154 102.66 119.763 102.927C118.222 104.052 116.877 105.422 115.78 106.983V106.974Z" fill="#2D2D2D"/>
<path fill-rule="evenodd" clip-rule="evenodd" d="M92.1028 101.001C94.9595 98.5457 98.3701 96.8214 102.041 95.9761C105.712 95.1308 109.534 95.1899 113.177 96.1483C115.923 96.8184 118.299 98.5327 119.8 100.927C118.004 102.601 116.624 104.671 115.77 106.974C116.774 105.371 118 103.918 119.411 102.658L119.911 102.242C120.581 101.714 121.332 101.298 122.134 101.01C121.569 100.482 121.023 99.9358 120.486 99.3987C119.019 98.1403 117.441 97.0183 115.77 96.0464C115.06 95.639 114.338 95.2685 113.603 94.9352C109.942 94.0277 106.113 94.0443 102.46 94.9835C98.8076 95.9226 95.4456 97.7549 92.6771 100.315L92.1028 101.001Z" fill="#2D2D2D"/>
<path fill-rule="evenodd" clip-rule="evenodd" d="M130.916 113.262C120.523 125.3 104.053 130.171 89.7501 125.485C88.1197 124.957 90.9451 122.244 91.1211 116.91C91.5101 105.214 96.466 98.0467 105.414 95.426C100.514 95.8751 95.868 97.8141 92.103 100.982C91.3766 100.892 90.6395 100.953 89.938 101.162C89.2365 101.371 88.5858 101.723 88.0271 102.195C86.1868 104.541 85.247 107.468 85.3778 110.446C86.576 107.313 88.5335 104.525 91.0747 102.334C89.0088 106.589 87.6002 111.132 86.897 115.808C86.4835 118.518 85.1012 120.985 83.0064 122.753C79.9125 125.643 85.1647 132.394 103.386 130.023C112.705 128.819 121.727 124.031 130.481 116.132C126.609 129.967 122.607 138.357 118.04 139.283C106.859 141.598 103.219 138.487 107.424 131.727C105.475 132.227 103.49 132.58 101.487 132.782C100.949 133.477 100.403 134.329 99.773 135.283C92.8162 145.83 110.111 151.998 122.209 146.229C126.562 144.154 132.815 136.968 134.371 132.514C134.445 132.292 134.52 132.06 134.584 131.838C134.729 131.323 134.847 130.8 134.936 130.273C134.932 130.23 134.932 130.186 134.936 130.143C134.936 129.958 134.992 129.782 135.011 129.606C135.126 128.564 135.145 127.513 135.066 126.467C133.679 121.058 133.243 115.449 133.779 109.891C134.019 106.724 131.926 105.464 127.896 104.492H127.739C132.111 106.146 133.155 109.073 130.87 113.271L130.916 113.262Z" fill="#353535"/>
<path fill-rule="evenodd" clip-rule="evenodd" d="M105.025 145.126C100.736 143.385 99.4671 139.505 102.015 134.357C102.813 134.357 103.609 134.263 104.386 134.079C103.348 138.561 106.328 140.539 113.325 140.015C105.914 140.552 103.951 137.45 107.452 131.754C105.502 132.255 103.517 132.608 101.514 132.81C100.977 133.505 100.43 134.357 99.8006 135.31C92.8438 145.858 110.138 152.025 122.236 146.256C126.59 144.182 132.843 136.996 134.399 132.542C134.473 132.319 134.547 132.088 134.612 131.866C134.757 131.35 134.874 130.828 134.964 130.301C134.96 130.257 134.96 130.214 134.964 130.171C134.964 129.986 135.02 129.81 135.038 129.634C135.154 128.591 135.172 127.54 135.094 126.495C133.706 121.086 133.271 115.477 133.806 109.918C133.007 115.469 133.233 121.118 134.473 126.587C134.724 128.426 134.482 130.299 133.769 132.014C127.489 145.719 116.169 149.655 105.007 145.108L105.025 145.126Z" fill="#2D2D2D"/>
<path fill-rule="evenodd" clip-rule="evenodd" d="M123.774 68.3672C121.625 66.62 119.411 64.9655 117.132 63.4036L117.216 63.4592C115.289 62.1072 113.328 60.8014 111.333 59.542L110.796 59.3939L102.459 57.0232C101.221 59.2802 100.182 61.6414 99.3559 64.0796L98.9854 65.2094C103.442 65.8045 107.827 66.847 112.074 68.3209C115.47 69.5043 118.766 70.9566 121.931 72.664C122.596 71.3126 123.4 70.0339 124.33 68.8487L123.737 68.3672H123.774Z" fill="#3E3E3E"/>
<path fill-rule="evenodd" clip-rule="evenodd" d="M123.774 68.3672C123.03 69.7354 122.424 71.1749 121.968 72.664C122.633 71.3126 123.437 70.034 124.367 68.8487L123.774 68.3672Z" fill="#2D2D2D"/>
<path fill-rule="evenodd" clip-rule="evenodd" d="M137.271 57.2084L133.112 34.863L132.454 34.9834V40.2526L130.055 35.5391L129.415 35.715L130.685 42.8825L126.349 36.6781C125.729 36.9003 125.108 37.1411 124.497 37.3911C120.834 38.889 117.389 40.8697 114.251 43.2807L127.98 62.7646L129.101 64.3481C131.742 62.506 134.755 61.2667 137.928 60.7181L137.271 57.2084Z" fill="#3E3E3E"/>
<path fill-rule="evenodd" clip-rule="evenodd" d="M137.271 57.2085C133.791 58.3387 130.62 60.2595 128.007 62.8203L129.128 64.4038C131.769 62.5617 134.783 61.3224 137.956 60.7738L137.271 57.2085Z" fill="#2D2D2D"/>
<path fill-rule="evenodd" clip-rule="evenodd" d="M157.353 37.1504C155.247 36.3204 153.079 35.6547 150.869 35.1594L149.109 44.1698L145.867 60.8385C147.165 58.8207 148.128 56.6068 148.72 54.2821C149.581 50.971 151.147 47.8846 153.31 45.2334C155.473 42.5821 158.182 40.4284 161.253 38.9191C159.981 38.3018 158.687 37.7215 157.372 37.1782L157.353 37.1504Z" fill="#3E3E3E"/>
<path fill-rule="evenodd" clip-rule="evenodd" d="M157.353 37.1504C153.803 38.348 150.846 40.8599 149.091 44.1698L145.848 60.8385C147.146 58.8207 148.109 56.6067 148.701 54.2821C149.563 50.971 151.128 47.8846 153.291 45.2334C155.454 42.5821 158.163 40.4284 161.235 38.9191C159.963 38.3018 158.669 37.7214 157.353 37.1782V37.1504Z" fill="#2D2D2D"/>
<path fill-rule="evenodd" clip-rule="evenodd" d="M174.055 71.099L183.402 65.5427C183.096 64.7741 182.772 64.0055 182.429 63.2554L176.695 67.3393L180.845 60.0143C179.682 57.8111 178.366 55.6915 176.908 53.6709C176.584 53.2264 176.26 52.7449 175.917 52.3467L167.21 66.5706C167.756 67.2096 168.266 67.8578 168.766 68.5246C169.748 69.8655 170.645 71.2665 171.452 72.7195L174.018 71.1823L174.055 71.099ZM170.239 179.788L171.239 177.89C171.239 177.121 171.239 176.353 171.285 175.584L167.488 174.926L171.36 173.556C171.36 172.63 171.443 171.704 171.508 170.731L164.968 170.454C165.848 173.17 166.487 175.959 166.876 178.788L170.239 179.825V179.788ZM163.356 161.619L172.379 161.897C172.533 160.712 172.709 159.526 172.907 158.341C173.166 156.748 173.453 155.159 173.768 153.572L173.879 152.905L163.551 152.377C163.656 153.736 163.776 155.097 163.912 156.461L163.662 157.563C163.532 158.915 163.43 160.267 163.356 161.619ZM166.682 142.635L175.565 143.96C175.862 142.552 176.186 141.182 176.491 139.755L168.923 135.811L177.057 137.524C177.674 135.227 178.322 132.958 179.002 130.717L168.877 127.069L165.941 126.013C165.149 128.565 164.53 131.167 164.088 133.801C163.648 136.56 163.379 139.343 163.282 142.135L166.617 142.635H166.682ZM173.777 115.734L183.161 119.559C183.652 118.42 184.171 117.281 184.699 116.16L181.457 114.817L184.56 113.891L177.89 111.65L186.227 111.02C186.385 110.141 186.524 109.27 186.653 108.409C186.82 107.335 186.977 106.261 187.107 105.205L178.594 101.038L175.408 99.4728C175.361 99.7136 175.306 99.9451 175.25 100.186C174.756 102.038 174.203 103.862 173.592 105.659C173.11 107.103 172.582 108.529 172.036 109.956C171.489 111.382 170.896 112.854 170.304 114.289L173.74 115.697L173.777 115.734ZM188.034 88.564C188.034 88.1103 188.034 87.638 187.969 87.1935C187.876 85.2674 187.712 83.3813 187.478 81.5354L179.947 82.2763L187.079 78.7017L186.885 77.5627L177.464 79.2666L174.583 79.7852C174.855 80.6557 175.096 81.5354 175.306 82.4244C175.691 84.0376 175.973 85.6739 176.149 87.3232L188.034 88.564Z" fill="#2D2D2D"/>
<path fill-rule="evenodd" clip-rule="evenodd" d="M174.055 71.0991L174.231 70.988C173.165 69.0776 171.964 67.2455 170.637 65.5058C173.95 62.3207 176.152 58.1557 176.918 53.6248C176.593 53.1803 176.269 52.6987 175.926 52.3005L167.219 66.5245C167.765 67.1634 168.275 67.8117 168.775 68.4784C169.757 69.8193 170.655 71.2204 171.462 72.6734L174.027 71.1362L174.055 71.0991ZM167.96 179.084C167.952 177.686 167.793 176.292 167.488 174.927C167.126 173.343 166.793 171.871 166.561 170.519L164.986 170.454C165.867 173.17 166.505 175.959 166.895 178.788L167.979 179.122L167.96 179.084ZM167.136 161.74C167.83 159.36 168.201 157.323 167.46 152.572L163.551 152.378C163.656 153.736 163.776 155.097 163.912 156.461L163.662 157.563C163.532 158.915 163.43 160.267 163.356 161.619L167.136 161.74ZM166.728 142.673C166.758 137.415 167.541 132.188 169.053 127.152H168.914L165.978 126.097C165.186 128.648 164.567 131.25 164.125 133.885C163.685 136.643 163.416 139.427 163.319 142.219L166.654 142.719L166.728 142.673ZM173.675 115.725C175.785 111.001 177.369 106.061 178.4 100.992L175.454 99.547C175.408 99.7878 175.352 100.019 175.297 100.26C174.802 102.112 174.25 103.936 173.638 105.733C173.157 107.178 172.629 108.604 172.082 110.03C171.536 111.456 170.943 112.928 170.35 114.364L173.675 115.725ZM179.233 87.6567C179.011 84.798 178.49 81.9704 177.677 79.2205L177.427 79.2668L174.546 79.7854C174.818 80.6558 175.059 81.5356 175.269 82.4246C175.654 84.0377 175.936 85.674 176.112 87.3233L179.233 87.6567Z" fill="#1A1A1A"/>
<path fill-rule="evenodd" clip-rule="evenodd" d="M174.398 215.561C169.637 208.998 162.637 211.134 153.398 221.969C140.365 238.943 134.39 251.852 135.084 260.705C135.557 266.752 144.978 274.596 163.736 284.329C162.291 292.657 158.343 300.348 152.416 306.378C151.369 307.47 149.424 307.813 147.784 309.239C151.306 309.78 154.603 311.309 157.29 313.648C159.978 315.987 161.946 319.041 162.967 322.454C164.282 317.518 163.412 314.416 163.838 310.415C164.634 302.868 168.182 295.756 172.971 289.866C176.612 285.384 176.362 282.31 171.637 279.791C169.22 278.495 166.645 277.013 163.764 275.485L165.468 275.828C170.121 272.551 174.061 268.364 177.047 263.52C180.034 258.677 182.006 253.277 182.843 247.649C183.681 242.021 183.366 236.282 181.92 230.779C180.473 225.276 177.923 220.124 174.426 215.635L174.398 215.561Z" fill="white"/>
<path fill-rule="evenodd" clip-rule="evenodd" d="M163.736 275.448L165.44 275.79C173.789 269.921 179.716 261.215 182.115 251.298C184.515 241.381 183.224 230.93 178.483 221.895H178.344C182.793 231.079 183.764 241.563 181.079 251.408C178.393 261.253 172.232 269.793 163.736 275.448Z" fill="#E5E5E4"/>
<path fill-rule="evenodd" clip-rule="evenodd" d="M161.439 129.189C162.513 128.68 163.578 128.134 164.616 127.55C165.772 123.502 167.189 119.534 168.859 115.669C166.994 117.441 165.013 119.087 162.93 120.596C162.276 123.431 161.779 126.3 161.439 129.189ZM160.92 136.709C160.845 140.083 160.996 143.458 161.374 146.812C161.726 146.691 162.078 146.562 162.421 146.423C162.362 142.836 162.554 139.25 162.995 135.69C162.309 136.042 161.615 136.375 160.92 136.709ZM162.559 154.146C162.689 154.763 162.828 155.381 162.976 155.998C162.912 155.341 162.856 154.702 162.81 154.063L162.559 154.137V154.146Z" fill="#2D2D2D"/>
<path fill-rule="evenodd" clip-rule="evenodd" d="M145.005 170.343C156.603 163.962 165.718 164.009 171.684 171.046C173.16 172.974 175.021 174.573 177.149 175.741C176.966 177.317 177.101 178.913 177.547 180.436C177.992 181.958 178.739 183.375 179.743 184.604C178.16 182.005 177.416 178.982 177.612 175.945C177.612 175.695 177.612 175.454 177.659 175.204C177.937 171.648 179.159 167.722 180.984 163.277C184.643 154.424 185.616 145.905 186.375 138.617C188.248 137.107 190.329 135.875 192.554 134.959C193.275 141.074 195.454 146.927 198.909 152.026L199.214 152.47H199.298C197.89 157.211 195.666 158.23 192.813 155.369C191.405 153.98 190.609 153.915 190.229 155.369C187.098 165.657 185.597 178.844 184.551 194.855C184.31 198.633 181.549 197.994 177.001 193.447C174.222 190.669 169.442 190.401 162.847 190.734C155.945 191.086 150.313 187.789 145.987 181.826C145.441 181.057 144.904 180.251 144.394 179.409C142.597 175.779 142.822 172.775 145.07 170.398L145.005 170.343Z" fill="white"/>
<path fill-rule="evenodd" clip-rule="evenodd" d="M144.329 179.353C146.386 182.459 149.207 184.986 152.52 186.69C155.834 188.394 159.53 189.219 163.254 189.085C170.507 188.771 175.297 190.012 177.946 192.873C181.197 196.355 183.504 197.022 183.68 193.234C184.273 178.593 186.264 165.453 189.905 154.044C190.229 153.044 191.081 153.118 192.035 153.961C195.444 156.961 197.593 156.415 198.297 152.414C195.642 148.258 193.896 143.588 193.175 138.709C194.223 143.467 196.165 147.983 198.899 152.016L199.205 152.461H199.288C197.88 157.202 195.657 158.221 192.804 155.359C191.396 153.97 190.599 153.905 190.22 155.359C187.089 165.647 185.588 178.834 184.541 194.845C184.3 198.624 181.54 197.985 176.992 193.438C174.213 190.66 169.433 190.391 162.837 190.725C155.936 191.076 150.304 187.78 145.978 181.816C145.432 181.047 144.894 180.242 144.385 179.399L144.329 179.353Z" fill="#E5E5E4"/>
<path fill-rule="evenodd" clip-rule="evenodd" d="M170.359 177.677C170.026 177.297 169.683 176.899 169.349 176.501C167.812 174.592 165.907 173.011 163.747 171.853C161.587 170.695 159.216 169.982 156.775 169.757C154.334 169.533 151.873 169.801 149.538 170.546C147.202 171.29 145.04 172.497 143.181 174.093C143.218 173.741 143.29 173.394 143.394 173.056C147.275 167.916 160.855 163.712 167.321 169.5C171.026 172.787 171.526 174.769 175.991 176.288C175.898 177.872 176.186 179.455 176.831 180.905C177.476 182.355 178.458 183.63 179.697 184.622C178.734 184.203 177.805 183.711 176.918 183.15C176.276 181.742 175.743 180.287 175.324 178.797C173.772 178.068 172.083 177.676 170.368 177.649L170.359 177.677Z" fill="#E5E5E4"/>
<path fill-rule="evenodd" clip-rule="evenodd" d="M193.258 134.653C193.936 140.727 196.085 146.544 199.52 151.6C202.789 150.67 205.736 148.853 208.033 146.349C207.763 139.193 205.661 132.227 201.928 126.115C198.401 128.223 195.436 131.152 193.286 134.653H193.258Z" fill="#1A1A1A"/>
<path fill-rule="evenodd" clip-rule="evenodd" d="M179.697 184.594C178.458 183.602 177.476 182.327 176.831 180.877C176.186 179.427 175.898 177.844 175.991 176.26C171.526 174.741 170.998 172.76 167.321 169.472C160.837 163.684 147.275 167.889 143.394 173.028C143.707 172.008 144.26 171.078 145.006 170.315C156.603 163.934 165.718 163.981 171.684 171.019C173.157 172.943 175.015 174.539 177.14 175.704C176.957 177.28 177.092 178.876 177.537 180.398C177.983 181.921 178.73 183.338 179.734 184.566L179.697 184.594Z" fill="#D3D3D3"/>
<path fill-rule="evenodd" clip-rule="evenodd" d="M194.462 134.412C194.411 136.055 194.57 137.699 194.935 139.302C197.604 137.091 200.473 135.132 203.503 133.449C203.324 131.394 202.497 129.448 201.141 127.893C198.819 129.967 196.593 132.128 194.462 134.375V134.412Z" fill="#555555"/>
<path fill-rule="evenodd" clip-rule="evenodd" d="M144.792 180.094C146.083 183.221 148.211 185.932 150.943 187.928C153.298 189.642 156.024 190.775 158.9 191.234C159.748 191.357 160.601 191.428 161.457 191.447C162.672 191.473 163.887 191.433 165.098 191.327L164.931 190.595L162.791 190.678C155.89 191.03 150.258 187.734 145.923 181.77C145.543 181.233 145.163 180.677 144.792 180.094Z" fill="black"/>
<path fill-rule="evenodd" clip-rule="evenodd" d="M145.006 170.343C151.768 166.638 157.687 165.083 162.606 165.851H162.819C163.06 165.592 162.939 165.333 162.699 165.083H162.495C160.996 164.916 159.485 164.898 157.983 165.027C153.219 165.433 148.693 167.288 145.015 170.343H145.006Z" fill="black"/>
<path fill-rule="evenodd" clip-rule="evenodd" d="M166.144 195.392C157.122 194.577 147.821 195.059 139.401 198.42C133.5 200.782 128.285 203.106 122.987 203.8C129.471 205.18 136.103 204.152 142.597 202.634C153.379 200.115 162.43 201.504 169.34 204.875C168.109 201.772 167.042 198.607 166.144 195.392Z" fill="#3E3E3E"/>
<path fill-rule="evenodd" clip-rule="evenodd" d="M171.712 210.347C167.298 209.407 162.736 209.405 158.322 210.341C153.908 211.278 149.74 213.132 146.089 215.783C141.246 219.453 135.977 222.525 130.397 224.933C136.77 225.127 142.615 221.553 150.156 219.052C152.304 218.331 154.498 217.752 156.724 217.321L158.02 217.098C166.357 215.756 172.684 217.209 176.547 219.626C176.973 219.904 177.381 220.191 177.751 220.488C176.762 218.77 175.654 217.124 174.435 215.561C173.963 214.709 173.509 213.848 173.055 212.977C172.601 212.107 172.128 211.227 171.749 210.347H171.712Z" fill="#3E3E3E"/>
<path fill-rule="evenodd" clip-rule="evenodd" d="M174.398 215.561C170.464 210.134 165.005 210.647 158.021 217.098C166.357 215.756 172.684 217.209 176.547 219.626C176.973 219.904 177.381 220.191 177.751 220.488C176.762 218.77 175.654 217.124 174.435 215.561H174.398Z" fill="#515252"/>
<path fill-rule="evenodd" clip-rule="evenodd" d="M170.878 290.644C165.394 296.941 162.488 303.424 162.161 310.091C162.737 313.142 162.908 316.256 162.671 319.351C160.701 313.598 156.245 310.15 149.304 309.008C150.525 308.143 151.954 307.616 153.444 307.48C160.237 298.621 164.014 290.487 164.773 283.079C159.746 280.647 154.899 277.862 150.267 274.744L149.341 274.105C143.455 269.87 140.096 265.916 139.262 262.243C136.891 251.63 141.597 238.203 153.379 221.96C140.346 238.934 134.371 251.843 135.066 260.696C135.372 264.66 139.531 269.41 147.645 274.948C152.811 278.39 158.178 281.519 163.717 284.319C162.273 292.648 158.324 300.339 152.398 306.368C151.36 307.452 149.433 307.794 147.766 309.202C148.118 309.258 148.461 309.322 148.813 309.397C150.368 309.742 151.874 310.28 153.296 310.999C154.882 311.795 156.348 312.811 157.65 314.017C159.714 315.902 161.35 318.207 162.448 320.778V320.833V320.898C162.504 321.157 162.559 321.398 162.606 321.657C162.652 321.917 162.782 322.176 162.865 322.444C164.18 317.509 163.31 314.406 163.736 310.406C164.532 302.859 168.08 295.747 172.869 289.857C176.223 285.727 176.269 282.801 172.573 280.393C175.556 282.514 174.944 285.949 170.804 290.672L170.878 290.644Z" fill="#E5E5E4"/>
<path fill-rule="evenodd" clip-rule="evenodd" d="M182.383 232.702C181.925 230.571 181.306 228.479 180.53 226.442C172.653 224.795 164.445 226.096 157.465 230.1C165.832 228.081 174.64 228.999 182.411 232.702H182.383ZM155.278 303.081L155.158 303.229C158.065 304.891 161.108 306.304 164.255 307.452C164.421 306.618 164.616 305.785 164.847 304.961C161.606 304.653 158.401 304.033 155.278 303.109V303.081ZM161.605 292.07C161.29 292.876 160.948 293.682 160.577 294.497C163.116 295.371 165.717 296.052 168.358 296.534C169.513 294.468 170.822 292.493 172.277 290.626C168.808 291.621 165.214 292.107 161.605 292.07ZM170.229 271.836C171.285 270.836 172.277 269.781 173.221 268.688C167.159 267.177 160.942 266.366 154.695 266.271C159.975 267.87 165.162 269.722 170.257 271.827L170.229 271.836ZM178.446 260.992C179.131 259.675 179.749 258.325 180.299 256.946C172.477 255.202 164.496 254.271 156.483 254.168C164.086 255.405 171.477 257.708 178.437 261.011L178.446 260.992ZM182.902 247.102C183.232 244.731 183.356 242.336 183.272 239.944C178.464 238.118 173.333 237.299 168.195 237.538C163.058 237.777 158.025 239.069 153.407 241.333C163.603 240.057 173.939 242.079 182.902 247.102Z" fill="#3E3E3E"/>
<path fill-rule="evenodd" clip-rule="evenodd" d="M170.961 271.123L171.35 270.725L171.61 270.457L171.721 270.336L171.943 270.105L172.147 269.883L172.286 269.734L172.48 269.512L172.647 269.336L172.832 269.123L172.999 268.929L173.175 268.734L171.832 268.41C170.912 269.441 169.942 270.426 168.923 271.364L170.183 271.883L170.915 271.17L170.961 271.123ZM178.446 260.993L178.511 260.854L178.687 260.52L178.779 260.344L178.909 260.085L179.011 259.872L179.15 259.576L179.372 259.122V259.029C179.437 258.881 179.511 258.733 179.576 258.594C179.715 258.279 179.854 257.964 179.984 257.668C180.049 257.529 180.104 257.381 180.169 257.233V257.122V257.038L179.094 256.807C178.545 258.101 177.926 259.366 177.242 260.594L178.279 261.085L178.446 260.993ZM182.911 247.102V246.824V246.695V246.426V246.222V246.009V245.87V245.611V245.444V245.185V244.963V244.787V244.546V244.342V243.963V243.722V241.87C182.911 241.231 182.911 240.592 182.911 239.962L182.207 239.703C182.237 242.034 182.076 244.363 181.725 246.667L182.54 247.121L182.911 247.102ZM182.383 232.693L182.318 232.378V232.23L182.262 231.98V231.859L182.198 231.582V231.461L182.124 231.174V231.054L182.049 230.767V230.665L181.966 230.378V230.257L181.892 229.98L181.846 229.841L181.781 229.609L181.549 229.452L181.494 229.267L181.42 229.026L181.364 228.841L181.299 228.637L181.253 228.498L181.03 227.831V227.785C180.947 227.535 180.864 227.285 180.771 227.035L180.577 226.498L180.243 226.424C180.934 228.406 181.479 230.436 181.873 232.498L182.42 232.758L182.383 232.693Z" fill="#2D2D2D"/>
<path fill-rule="evenodd" clip-rule="evenodd" d="M166.144 195.392C163.041 195.102 159.923 194.996 156.807 195.077C159.36 196.279 162.122 196.974 164.94 197.123C165.256 199.32 165.745 201.487 166.404 203.606C167.423 203.985 168.395 204.402 169.34 204.865L169.285 204.745V204.661L169.146 204.3L169.007 203.921C168.858 203.532 168.71 203.133 168.571 202.745L168.442 202.383V202.319L168.321 201.985V201.92L168.21 201.596V201.494L168.108 201.207V201.087L168.006 200.8V200.698L167.886 200.346L167.756 199.966C167.673 199.726 167.599 199.476 167.515 199.235V199.105C167.432 198.864 167.358 198.624 167.284 198.374V198.327L167.163 197.938C166.913 197.123 166.672 196.299 166.441 195.475L166.144 195.392Z" fill="#2D2D2D"/>
<path fill-rule="evenodd" clip-rule="evenodd" d="M126.423 252.825C124.284 254.158 121.449 253.927 118.364 251.362C114.816 248.417 112.251 243.953 110.537 238.064C110.463 237.795 110.379 237.527 110.305 237.258C109.266 233.275 108.571 229.211 108.23 225.109L108.286 226.34C108.088 222.117 108.011 218.018 108.054 214.042C108.054 213.728 108.054 213.413 108.054 213.116C108.054 212.82 108.054 212.32 108.054 211.931C108.303 199.327 109.588 186.764 111.899 174.371L112.037 173.602C108.749 186.465 108.138 200.272 107.258 215.58C105.247 250.639 114.928 269.975 144.172 274.328H145.441C144.286 273.494 143.159 272.627 142.06 271.725C138.975 269.169 134.649 265.058 134.334 260.78C134.398 255.555 135.543 250.4 137.697 245.639C137.928 245.111 138.169 244.602 138.401 244.092C139.327 242.24 140.253 240.342 141.309 238.536C144.801 232.67 148.833 227.142 153.352 222.025C152.703 222.451 152.073 222.877 151.444 223.321C141.87 230.068 134.169 239.137 129.063 249.676C128.584 250.746 127.872 251.695 126.979 252.454C126.787 252.611 126.586 252.756 126.377 252.89L126.423 252.825Z" fill="#E5E5E4"/>
<path fill-rule="evenodd" clip-rule="evenodd" d="M122.014 150.609L121.875 150.812L122.014 150.609ZM112.075 173.584C108.786 186.446 108.175 200.254 107.295 215.561C105.285 250.621 114.965 269.957 144.209 274.309H145.478C144.323 273.475 143.196 272.608 142.097 271.707C139.012 269.151 134.686 265.039 134.371 260.761C134.435 255.536 135.58 250.381 137.734 245.62C137.965 245.092 138.206 244.583 138.438 244.074C139.364 242.222 140.291 240.323 141.347 238.518C144.839 232.651 148.87 227.124 153.389 222.006C152.296 223.013 151.24 224.013 150.221 225.007C136.635 238.169 129.693 249.121 129.397 257.862C129.368 258.647 129.396 259.434 129.48 260.215C129.675 262.103 130.242 263.935 131.148 265.604C119.717 263.095 111.611 253.908 109.212 237.823C109.166 237.573 109.138 237.323 109.101 237.064C108.934 235.813 108.795 234.517 108.693 233.184C108.184 226.535 107.989 220.173 108.045 214.098C108.045 213.783 108.045 213.468 108.045 213.172C108.045 212.876 108.045 212.375 108.045 211.987C108.293 199.382 109.579 186.82 111.889 174.426L112.028 173.658L112.075 173.584ZM138.104 266.836L138.336 267.104L138.104 266.836Z" fill="#CECECE"/>
<path fill-rule="evenodd" clip-rule="evenodd" d="M143.885 167.75C138.401 171.898 132.982 176.14 126.97 179.473L126.266 179.862L126.988 179.612C132.703 177.814 138.124 175.191 143.079 171.824C143.736 171.352 144.376 170.898 145.005 170.343C148.684 167.289 153.21 165.434 157.974 165.027C159.476 164.898 160.987 164.916 162.485 165.083H162.689C162.689 164.805 162.634 164.527 162.606 164.231L162.393 164.166C156.548 162.166 150.11 162.99 143.866 167.722L143.885 167.75Z" fill="#3E3E3E"/>
<path fill-rule="evenodd" clip-rule="evenodd" d="M147.09 186.067C141.387 184.468 135.391 184.215 129.573 185.326C135.418 185.493 142.199 187.122 149.952 190.049C151.441 190.604 152.969 191.222 154.538 191.901C158.061 193.423 161.884 194.126 165.718 193.957C165.579 193.42 165.44 192.882 165.311 192.355C165.264 192.169 165.227 191.993 165.181 191.817L165.07 191.364C163.86 191.47 162.644 191.51 161.429 191.484C160.574 191.465 159.72 191.394 158.873 191.271C157.2 191.008 155.573 190.512 154.037 189.799C152.944 189.285 151.905 188.665 150.934 187.947C150.468 187.606 150.02 187.241 149.591 186.854H149.526C148.72 186.576 147.914 186.326 147.09 186.104V186.067Z" fill="#3E3E3E"/>
<path fill-rule="evenodd" clip-rule="evenodd" d="M154.565 191.864C158.089 193.386 161.912 194.089 165.746 193.92C165.607 193.382 165.468 192.845 165.339 192.317C165.292 192.132 165.255 191.956 165.209 191.78L165.098 191.327C163.887 191.433 162.672 191.473 161.457 191.447C160.601 191.428 159.748 191.357 158.901 191.234C157.228 190.971 155.601 190.475 154.065 189.762C152.972 189.248 151.933 188.628 150.962 187.91C150.487 187.582 150.029 187.229 149.591 186.854H149.526C148.72 186.576 147.914 186.326 147.09 186.104C147.901 187.535 148.871 188.871 149.98 190.086C151.468 190.641 152.997 191.259 154.565 191.938V191.864Z" fill="#2D2D2D"/>
<path fill-rule="evenodd" clip-rule="evenodd" d="M162.837 165.879C164.329 166.125 165.77 166.61 167.108 167.314C162.966 168.702 159.326 171.279 156.64 174.723C157.532 171.096 159.741 167.931 162.837 165.842V165.879ZM169.738 169.092C170.435 169.694 171.085 170.348 171.684 171.046L172.379 171.852V171.898C169.221 172.524 166.214 173.754 163.523 175.519C164.968 172.843 167.126 170.619 169.757 169.092H169.738ZM174.176 173.676C174.828 174.279 175.539 174.816 176.297 175.278C173.98 175.99 171.828 177.158 169.97 178.714C171.082 176.813 172.503 175.11 174.176 173.676Z" fill="#3E3E3E"/>
<path fill-rule="evenodd" clip-rule="evenodd" d="M166.608 173.787C166.194 173.458 165.764 173.149 165.32 172.861C166.141 171.877 167.074 170.991 168.099 170.222C168.961 171.046 169.637 171.778 170.257 172.445C169.013 172.805 167.799 173.263 166.626 173.815L166.608 173.787ZM160.837 170.62C160.138 170.387 159.427 170.195 158.706 170.046C159.48 168.875 160.416 167.818 161.485 166.907C162.772 167.098 164.021 167.485 165.19 168.055C163.643 168.742 162.179 169.602 160.827 170.62H160.837ZM172.934 174.815C173.52 175.203 174.14 175.534 174.787 175.806C173.553 176.308 172.379 176.944 171.286 177.705L170.637 177.658C171.315 176.638 172.091 175.686 172.953 174.815H172.934Z" fill="#2D2D2D"/>
<path fill-rule="evenodd" clip-rule="evenodd" d="M174.768 175.825C174.121 175.553 173.501 175.221 172.916 174.834C173.314 174.436 173.731 174.047 174.157 173.676L174.407 173.899L174.5 173.982L174.805 174.241H174.852L174.991 174.352L175.139 174.473L175.222 174.538L175.324 174.612H175.371L175.528 174.723L175.648 174.806H175.704L175.824 174.88L176 174.991C175.482 175.149 174.972 175.334 174.472 175.538L174.768 175.825ZM170.239 172.417C169.618 171.75 168.942 171.019 168.08 170.194C168.61 169.794 169.164 169.426 169.738 169.093L169.813 169.157L170.007 169.324L170.146 169.454L170.294 169.583C170.351 169.647 170.413 169.705 170.48 169.759L170.572 169.852L170.794 170.074L170.859 170.139L171.1 170.389C171.295 170.593 171.48 170.806 171.665 171.019L171.758 171.13L171.804 171.185V171.232L171.925 171.371L171.971 171.426V171.472C171.258 171.611 170.554 171.787 169.85 171.991L170.239 172.417ZM165.199 168.055C164.03 167.485 162.781 167.098 161.494 166.907C161.922 166.539 162.37 166.196 162.837 165.879H162.958H163.208H163.375L163.615 165.935H163.764L163.967 165.99L164.171 166.037H164.338L164.542 166.101L164.718 166.148L164.922 166.213L165.07 166.268L165.32 166.351H165.422L165.746 166.472L166.052 166.601L166.413 166.759L167.034 167.074C166.385 167.288 165.748 167.535 165.125 167.815L165.199 168.055Z" fill="#1E1E1E"/>
<path fill-rule="evenodd" clip-rule="evenodd" d="M187.107 169.259L186.913 170.5C186.454 169.691 185.851 168.972 185.134 168.379C185.84 168.574 186.507 168.887 187.107 169.305V169.259ZM186.422 174.038C186.329 174.723 186.246 175.417 186.153 176.121C185.692 174.758 184.861 173.549 183.754 172.63C184.741 172.883 185.655 173.365 186.422 174.038ZM185.81 179.177C185.699 180.186 185.597 181.205 185.505 182.242C185.21 180.358 184.239 178.646 182.772 177.427C183.925 177.724 184.975 178.329 185.81 179.177Z" fill="#4D4E4E"/>
<path fill-rule="evenodd" clip-rule="evenodd" d="M184.671 179.77L184.838 178.353C185.171 178.592 185.481 178.862 185.764 179.158V179.408V179.529V179.825V179.964V180.029L185.708 180.603V180.649L185.662 181.094V181.399V181.788V182.113V182.224C185.529 181.366 185.253 180.537 184.847 179.77H184.671ZM185.347 174.445C185.403 174.084 185.449 173.723 185.505 173.361L185.347 174.445ZM186.162 169.417L186.273 168.778C186.556 168.912 186.829 169.066 187.089 169.241L186.996 169.824V169.88V169.954L186.922 170.435C186.708 170.06 186.463 169.704 186.19 169.37L186.162 169.417ZM186.403 174.047V174.278L186.357 174.686V174.815V175.038V175.186V175.241V175.575V175.741V175.843V175.936V176.056C186.159 175.475 185.895 174.919 185.569 174.399L186.625 173.973L186.403 174.047Z" fill="#1E1E1E"/>
<path fill-rule="evenodd" clip-rule="evenodd" d="M136.261 78.5073C138.26 79.1556 140.021 80.382 141.323 82.0312C142.625 83.6805 143.408 85.6785 143.574 87.7727C143.739 89.867 143.28 91.9633 142.254 93.7966C141.228 95.63 139.681 97.118 137.809 98.0724C135.937 99.0269 133.824 99.4051 131.737 99.159C129.65 98.9129 127.683 98.0537 126.085 96.69C124.486 95.3263 123.328 93.5193 122.757 91.4977C122.186 89.476 122.227 87.3304 122.875 85.3322C123.305 84.0047 123.992 82.775 124.898 81.7133C125.803 80.6516 126.909 79.7789 128.152 79.145C129.396 78.5111 130.752 78.1284 132.143 78.019C133.534 77.9096 134.934 78.0755 136.261 78.5073Z" fill="black"/>
<path fill-rule="evenodd" clip-rule="evenodd" d="M136.159 78.8869C138.086 79.5194 139.782 80.7082 141.033 82.3035C142.285 83.8987 143.035 85.8288 143.19 87.8501C143.346 89.8714 142.898 91.8934 141.905 93.6608C140.912 95.4283 139.417 96.862 137.61 97.781C135.802 98.6999 133.763 99.0631 131.749 98.8244C129.735 98.5858 127.837 97.7562 126.294 96.4402C124.752 95.1243 123.634 93.381 123.081 91.4304C122.529 89.4798 122.567 87.4093 123.19 85.4803C123.606 84.1942 124.272 83.003 125.149 81.9749C126.027 80.9468 127.099 80.1022 128.304 79.4895C129.509 78.8769 130.823 78.5083 132.171 78.4048C133.519 78.3014 134.875 78.4652 136.159 78.8869Z" fill="white"/>
<path fill-rule="evenodd" clip-rule="evenodd" d="M137.354 80.9243C138.845 81.4061 140.16 82.3193 141.132 83.5484C142.103 84.7774 142.689 86.2671 142.813 87.8287C142.938 89.3904 142.596 90.9539 141.832 92.3214C141.067 93.6889 139.914 94.7988 138.518 95.5108C137.122 96.2228 135.546 96.5049 133.99 96.3212C132.433 96.1376 130.967 95.4965 129.775 94.4791C128.583 93.4617 127.72 92.1138 127.295 90.6059C126.87 89.098 126.902 87.498 127.387 86.0083C128.036 84.014 129.45 82.3587 131.319 81.4055C133.187 80.4524 135.358 80.2793 137.354 80.9243Z" fill="#33C5F3"/>
<path fill-rule="evenodd" clip-rule="evenodd" d="M136.641 83.1375C137.68 83.4843 138.593 84.1304 139.266 84.9946C139.939 85.8589 140.342 86.9027 140.423 87.9949C140.505 89.0871 140.261 90.179 139.724 91.1334C139.187 92.0878 138.379 92.8621 137.403 93.3591C136.426 93.8561 135.325 94.0535 134.237 93.9266C133.148 93.7997 132.122 93.3541 131.286 92.6458C130.451 91.9375 129.843 90.9981 129.54 89.9457C129.237 88.8932 129.251 87.7746 129.582 86.7305C129.805 86.028 130.165 85.3767 130.641 84.8146C131.118 84.2525 131.702 83.7908 132.359 83.4565C133.016 83.1221 133.733 82.9217 134.468 82.8669C135.203 82.8122 135.941 82.9041 136.641 83.1375Z" fill="black"/>
<path fill-rule="evenodd" clip-rule="evenodd" d="M133.575 82.1281C134.022 82.2731 134.417 82.5476 134.708 82.9167C135 83.2858 135.176 83.733 135.213 84.2018C135.251 84.6707 135.149 85.1402 134.92 85.551C134.69 85.9618 134.345 86.2956 133.926 86.51C133.507 86.7245 133.034 86.8101 132.567 86.7561C132.099 86.702 131.659 86.5107 131.3 86.2064C130.941 85.902 130.681 85.4981 130.551 85.0459C130.422 84.5936 130.43 84.1132 130.573 83.6653C130.769 83.0644 131.194 82.5653 131.757 82.2772C132.319 81.9892 132.973 81.9355 133.575 82.1281Z" fill="white"/>
<path fill-rule="evenodd" clip-rule="evenodd" d="M138.012 92.1848C138.296 92.2794 138.546 92.4567 138.73 92.694C138.913 92.9312 139.022 93.2178 139.042 93.517C139.062 93.8162 138.992 94.1145 138.842 94.374C138.691 94.6335 138.467 94.8422 138.197 94.9737C137.928 95.1052 137.625 95.1534 137.328 95.1122C137.031 95.071 136.753 94.9423 136.529 94.7424C136.305 94.5425 136.146 94.2806 136.072 93.99C135.998 93.6994 136.012 93.3933 136.113 93.1108C136.243 92.7374 136.516 92.4305 136.872 92.2571C137.227 92.0837 137.637 92.0577 138.012 92.1848Z" fill="white"/>
<path fill-rule="evenodd" clip-rule="evenodd" d="M106.026 81.9429C105.767 82.3657 105.416 82.7236 104.997 82.9893C104.493 83.13 103.964 83.1506 103.45 83.0493C102.937 82.948 102.455 82.7277 102.042 82.4062C101.629 82.0846 101.298 81.6708 101.074 81.1979C100.851 80.725 100.741 80.2062 100.755 79.6833C100.898 80.2165 101.16 80.7102 101.521 81.1274C101.883 81.5446 102.334 81.8744 102.842 82.0919C103.349 82.3095 103.899 82.4091 104.451 82.3832C105.002 82.3574 105.541 82.2069 106.026 81.9429Z" fill="black"/>
<path fill-rule="evenodd" clip-rule="evenodd" d="M104.664 83.5912C104.409 84.0134 104.06 84.3714 103.645 84.6377C103.145 84.7933 102.615 84.8231 102.101 84.7246C101.587 84.6261 101.106 84.4022 100.699 84.0728C100.262 83.7602 99.912 83.3406 99.6833 82.8542C99.4546 82.3678 99.3546 81.8308 99.393 81.2947C99.5405 81.8266 99.805 82.3188 100.167 82.7354C100.529 83.1519 100.98 83.4823 101.487 83.7024C101.992 83.9217 102.542 84.0223 103.092 83.9967C103.643 83.971 104.181 83.8196 104.664 83.5542V83.5912Z" fill="black"/>
<path fill-rule="evenodd" clip-rule="evenodd" d="M104.173 85.6841C103.839 86.1379 103.886 86.2768 103.589 86.3879C103.081 86.5976 102.53 86.6826 101.982 86.6359C101.434 86.5892 100.905 86.4121 100.44 86.1193C100.001 85.8079 99.6353 85.4048 99.3682 84.9378C99.101 84.4708 98.9388 83.9513 98.8928 83.4153C99.0435 83.9445 99.3102 84.4335 99.6735 84.8467C100.037 85.26 100.488 85.5871 100.993 85.8044C101.499 86.0216 102.047 86.1236 102.597 86.1028C103.147 86.082 103.685 85.9389 104.173 85.6841Z" fill="black"/>
<path fill-rule="evenodd" clip-rule="evenodd" d="M110.972 81.3874C114.261 82.6375 116.048 86.7399 114.992 90.5737C114.638 91.8827 113.933 93.0704 112.954 94.0093C110.894 93.5533 108.779 93.3943 106.674 93.537C105.998 93.4907 105.321 93.4814 104.645 93.4907C103.81 92.4714 103.234 91.2653 102.967 89.9753C102.699 88.6853 102.747 87.3496 103.108 86.0824C104.173 82.2578 107.693 80.1557 110.972 81.3966V81.3874Z" fill="white"/>
<path fill-rule="evenodd" clip-rule="evenodd" d="M111.88 83.3042C114.242 84.2302 115.539 87.1658 114.77 89.9346C114.001 92.7035 111.463 94.2129 109.092 93.3146C106.72 92.4164 105.433 89.4531 106.202 86.6842C106.971 83.9153 109.509 82.4152 111.88 83.3042Z" fill="#33C5F3"/>
<path fill-rule="evenodd" clip-rule="evenodd" d="M111.472 84.7673C112.326 85.1678 113.004 85.8652 113.381 86.7291C113.758 87.5931 113.807 88.5646 113.519 89.4623C113.437 89.8965 113.263 90.3084 113.009 90.6704C112.756 91.0324 112.428 91.3365 112.048 91.5624C111.668 91.7882 111.244 91.9308 110.805 91.9807C110.365 92.0305 109.92 91.9865 109.499 91.8515C108.646 91.4509 107.967 90.7536 107.591 89.8896C107.214 89.0256 107.165 88.0541 107.452 87.1564C107.535 86.7222 107.708 86.3104 107.962 85.9483C108.216 85.5863 108.544 85.2823 108.924 85.0564C109.304 84.8305 109.728 84.6879 110.167 84.6381C110.606 84.5882 111.051 84.6323 111.472 84.7673Z" fill="black"/>
<path fill-rule="evenodd" clip-rule="evenodd" d="M109.722 84.1099C110.094 84.2701 110.394 84.5615 110.565 84.9288C110.735 85.296 110.765 85.7132 110.648 86.1009C110.612 86.2858 110.538 86.461 110.43 86.6151C110.321 86.7692 110.182 86.8986 110.02 86.9948C109.858 87.0911 109.677 87.1519 109.49 87.1734C109.303 87.1949 109.114 87.1765 108.934 87.1195C108.572 86.9496 108.284 86.6541 108.124 86.2878C107.964 85.9215 107.942 85.5095 108.063 85.1286C108.098 84.944 108.171 84.7689 108.279 84.6149C108.386 84.4608 108.525 84.3313 108.686 84.235C108.847 84.1387 109.027 84.0777 109.213 84.0561C109.4 84.0346 109.589 84.0529 109.768 84.1099H109.722Z" fill="white"/>
<path fill-rule="evenodd" clip-rule="evenodd" d="M112.25 90.7867C112.481 90.8924 112.664 91.0794 112.765 91.3118C112.866 91.5442 112.877 91.8057 112.797 92.0461C112.776 92.1631 112.731 92.2743 112.663 92.3722C112.596 92.4702 112.509 92.5526 112.407 92.614C112.305 92.6754 112.191 92.7143 112.073 92.7282C111.955 92.742 111.836 92.7305 111.722 92.6943C111.499 92.5898 111.319 92.4102 111.214 92.1869C111.109 91.9636 111.086 91.7107 111.148 91.4719C111.17 91.3546 111.217 91.2433 111.285 91.1453C111.353 91.0474 111.441 90.965 111.544 90.9037C111.646 90.8424 111.761 90.8036 111.879 90.7898C111.998 90.776 112.118 90.7876 112.232 90.8237L112.25 90.7867Z" fill="white"/>
</g>
</svg>
