<svg width="322" height="69" viewBox="0 0 322 69" fill="none" xmlns="http://www.w3.org/2000/svg">
<path d="M321.579 36.6583C321.579 36.1097 320.794 35.6639 320.402 36.1611C317.57 39.8252 313.416 42.221 308.84 42.8303C310.531 38.5944 310.823 33.9249 309.676 29.5091C309.539 28.9776 308.653 28.7719 308.414 29.3376C304.662 38.167 296.17 40.9787 287.285 41.6302C277.753 42.1274 268.987 38.047 261.058 33.1437C260.58 32.8522 259.83 33.3494 260.035 33.9324C261.999 39.6055 263.661 45.3799 265.014 51.2311C265.781 54.2657 266.532 57.3174 267.231 60.3691C267.363 61.476 267.603 62.567 267.947 63.6266C268.493 64.7752 270.164 65.1696 271.358 65.6325C278.656 68.4956 286.978 68.1013 294.499 66.4897C301.559 64.981 308.687 61.9635 313.666 56.5459C318.271 51.454 321.818 43.6704 321.579 36.6583Z" fill="#966A58"/>
<path d="M60.5324 34.1437C52.6027 39.047 43.8375 43.1274 34.3048 42.6302C25.4202 41.9787 16.9278 39.2013 13.1762 30.3376C12.9374 29.7719 12.0507 29.9776 11.9142 30.5091C10.7751 34.9257 11.0679 39.5925 12.7498 43.8303C8.17393 43.221 4.02052 40.8252 1.18789 37.1611C0.795673 36.6639 0.0282881 37.1611 0.0112351 37.6583C-0.210454 44.1732 2.87614 51.0824 6.83244 56.1572C11.1469 61.712 17.7805 65.0209 24.4141 66.8382C31.8567 69.0616 39.7424 69.3273 47.3163 67.6097C49.0135 67.1576 50.6638 66.5433 52.2446 65.7752C53.7112 65.0552 53.6259 64.7294 53.9499 63.2207C54.5809 60.3576 55.263 57.5288 55.9622 54.6485C57.459 47.9671 59.3206 41.3737 61.5385 34.8981C61.7602 34.3837 61.0269 33.8522 60.5324 34.1437Z" fill="#966A58"/>
<path d="M277.172 26.2034C274.676 21.9204 272.16 17.6179 269.431 13.4128C269.351 13.2746 269.229 13.1655 269.083 13.1013C268.961 13.0348 268.825 13 268.686 13C268.548 13 268.411 13.0348 268.29 13.1013C261.942 16.7808 255.092 19.6231 248.415 22.8354C248.324 22.8759 248.242 22.9358 248.176 23.0108C248.11 23.0859 248.06 23.1744 248.031 23.2704C248.001 23.3664 247.993 23.4677 248.006 23.5673C248.019 23.6669 248.053 23.7625 248.106 23.8477C254.937 37.3003 260.626 51.1032 267.458 64.6337C267.728 65.1788 268.599 65.062 268.909 64.6337C274.869 56.5349 277.811 44.6398 279.939 35.2172C280.365 33.5429 278.449 28.3059 277.172 26.2034Z" fill="#6D422F"/>
<path d="M74.6178 22.8433C67.941 19.7063 61.0708 16.8617 54.7424 13.1013C54.6206 13.0348 54.4842 13 54.3457 13C54.2071 13 54.0708 13.0348 53.949 13.1013C53.7973 13.1645 53.6689 13.2734 53.5813 13.4131C50.8719 17.6216 48.356 21.9275 45.8401 26.214C44.6596 28.1623 42.6469 33.345 43.0533 35.196C45.1821 44.6262 48.1431 56.6283 54.0844 64.6361C54.1712 64.7494 54.2826 64.841 54.4101 64.9041C54.5376 64.9672 54.6778 65 54.8198 65C54.9619 65 55.102 64.9672 55.2295 64.9041C55.357 64.841 55.4684 64.7494 55.5552 64.6361C62.3674 51.1728 68.0765 37.3587 74.9081 23.8174C74.955 23.7349 74.9847 23.6435 74.9955 23.549C75.0062 23.4545 74.9978 23.3587 74.9706 23.2676C74.9435 23.1765 74.8982 23.0919 74.8375 23.0189C74.7769 22.946 74.7021 22.8862 74.6178 22.8433Z" fill="#6D422F"/>
<path d="M280.896 32.779C280.112 28.8719 278.544 25.1674 276.289 21.8928C273.824 17.5137 271.143 13.2619 268.256 9.15325C266.05 6.09029 263.63 2.38353 259.836 0.686219C256.042 -1.01109 251.997 0.90082 248.222 1.93481C243.325 3.24194 238.544 4.74415 233.647 6.22685C213.863 12.393 193.407 16.1076 172.732 17.2886C152.98 18.208 133.191 16.6747 113.81 12.7235C104.134 10.6208 94.5723 8.01612 85.1627 4.91973C80.2461 3.41752 75.2522 2.18844 70.3356 0.686219C68.6793 0.0246222 66.874 -0.163338 65.1185 0.143027C63.363 0.449392 61.7255 1.23819 60.3863 2.42255C57.165 5.46446 54.4061 8.96826 52.1985 12.821C49.508 16.8985 46.9722 21.1125 44.7075 25.4045C43.0622 28.5065 41.5331 31.9986 42.1331 35.4908C42.3545 36.6762 42.8503 37.7923 43.5801 38.7482C44.31 39.7042 45.2533 40.4731 46.3335 40.9924C58.7217 48.7962 74.2069 51.9762 88.7437 54.9221C106.903 58.651 125.286 61.1731 143.774 62.4722C161.635 63.5441 179.555 62.9826 197.315 60.7944C214.915 58.8027 232.371 55.6814 249.577 51.4494C256.69 49.7748 263.621 47.3961 270.269 44.348C273.077 43.1404 275.751 41.6363 278.244 39.8609C279.269 39.0228 280.054 37.9255 280.52 36.6813C280.986 35.437 281.116 34.0904 280.896 32.779Z" fill="#805340"/>
<path d="M125.368 46.904L124.72 31.856L128.68 31.352L128.272 37.184L131.632 37.04L131.536 31.256L135.568 31.784L134.128 46.904H131.776L131.68 40.88L127.984 41.408L127.624 46.544L125.368 46.904ZM137.485 46.928L137.029 31.448L141.373 31.736L140.077 46.496L137.485 46.928ZM146.798 44.264C147.118 44.264 147.406 44.144 147.662 43.904C147.934 43.664 148.07 43.352 148.07 42.968C148.07 42.632 147.934 42.336 147.662 42.08C147.406 41.824 147.078 41.568 146.678 41.312C146.278 41.056 145.846 40.792 145.382 40.52C144.934 40.232 144.51 39.904 144.11 39.536C143.71 39.168 143.374 38.736 143.102 38.24C142.846 37.744 142.718 37.144 142.718 36.44C142.718 35.496 142.854 34.696 143.126 34.04C143.414 33.384 143.798 32.856 144.278 32.456C144.774 32.04 145.35 31.744 146.006 31.568C146.678 31.376 147.398 31.28 148.166 31.28C148.678 31.28 149.142 31.36 149.558 31.52C149.974 31.68 150.326 31.856 150.614 32.048C150.95 32.272 151.254 32.528 151.526 32.816L149.87 35.984C149.598 35.648 149.27 35.416 148.886 35.288C148.518 35.16 148.166 35.12 147.83 35.168C147.494 35.216 147.206 35.352 146.966 35.576C146.726 35.784 146.606 36.072 146.606 36.44C146.606 36.744 146.726 37.024 146.966 37.28C147.206 37.52 147.51 37.776 147.878 38.048C148.246 38.304 148.638 38.576 149.054 38.864C149.486 39.152 149.886 39.48 150.254 39.848C150.622 40.2 150.926 40.616 151.166 41.096C151.406 41.56 151.526 42.104 151.526 42.728C151.526 43.272 151.446 43.808 151.286 44.336C151.126 44.864 150.87 45.336 150.518 45.752C150.182 46.168 149.734 46.504 149.174 46.76C148.614 47.016 147.926 47.144 147.11 47.144C146.294 47.144 145.606 47 145.046 46.712C144.486 46.424 144.03 46.096 143.678 45.728C143.262 45.312 142.934 44.832 142.694 44.288L144.062 41.912C144.238 42.36 144.462 42.76 144.734 43.112C144.958 43.416 145.238 43.688 145.574 43.928C145.926 44.168 146.334 44.288 146.798 44.288V44.264ZM152.823 36.008L152.055 31.448L162.927 31.736L162.687 35.528L159.831 35.672L158.871 46.496L156.279 46.928L155.943 35.864L152.823 36.008ZM167.97 47C167.234 47 166.586 46.776 166.026 46.328C165.466 45.88 164.994 45.288 164.61 44.552C164.226 43.816 163.938 42.984 163.746 42.056C163.554 41.112 163.45 40.152 163.434 39.176C163.434 38.2 163.53 37.248 163.722 36.32C163.914 35.376 164.21 34.536 164.61 33.8C165.01 33.064 165.506 32.472 166.098 32.024C166.706 31.576 167.426 31.352 168.258 31.352C169.17 31.352 169.946 31.576 170.586 32.024C171.226 32.472 171.738 33.064 172.122 33.8C172.506 34.536 172.77 35.376 172.914 36.32C173.074 37.248 173.122 38.2 173.058 39.176C172.994 40.152 172.826 41.112 172.554 42.056C172.298 42.984 171.946 43.816 171.498 44.552C171.066 45.288 170.554 45.88 169.962 46.328C169.37 46.776 168.706 47 167.97 47ZM168.258 36.056C167.81 36.056 167.434 36.256 167.13 36.656C166.842 37.04 166.618 37.536 166.458 38.144C166.314 38.736 166.242 39.376 166.242 40.064C166.242 40.752 166.306 41.4 166.434 42.008C166.562 42.6 166.746 43.096 166.986 43.496C167.242 43.88 167.554 44.072 167.922 44.072C168.29 44.072 168.602 43.88 168.858 43.496C169.114 43.096 169.306 42.6 169.434 42.008C169.578 41.4 169.658 40.752 169.674 40.064C169.706 39.376 169.674 38.736 169.578 38.144C169.482 37.536 169.322 37.04 169.098 36.656C168.89 36.256 168.618 36.056 168.282 36.056H168.258ZM174.817 47.144L174.361 31.664C176.249 31.408 177.937 31.376 179.425 31.568C180.065 31.648 180.689 31.792 181.297 32C181.905 32.192 182.449 32.472 182.929 32.84C183.409 33.192 183.793 33.64 184.081 34.184C184.369 34.728 184.513 35.392 184.513 36.176C184.513 36.816 184.433 37.384 184.273 37.88C184.129 38.376 183.929 38.808 183.673 39.176C183.433 39.544 183.145 39.864 182.809 40.136C182.473 40.392 182.113 40.608 181.729 40.784L184.273 44.696L181.105 47.36L178.633 41.456C178.489 41.456 178.353 41.456 178.225 41.456C178.097 41.44 177.977 41.424 177.865 41.408L177.409 46.688L174.817 47.144ZM181.009 37.328C181.009 37.056 180.969 36.792 180.889 36.536C180.809 36.28 180.665 36.064 180.457 35.888C180.249 35.696 179.977 35.552 179.641 35.456C179.321 35.36 178.913 35.336 178.417 35.384L178.057 39.44C178.585 39.472 179.033 39.432 179.401 39.32C179.769 39.208 180.073 39.056 180.313 38.864C180.553 38.656 180.729 38.424 180.841 38.168C180.953 37.896 181.009 37.616 181.009 37.328ZM192.739 39.848L192.931 47.144L189.523 46.832L189.787 39.992L184.939 34.136L188.299 31.256L191.299 36.728L194.971 31.664L197.659 34.64L192.739 39.848Z" fill="white"/>
</svg>
