<svg width="246" height="236" viewBox="0 0 246 236" fill="none" xmlns="http://www.w3.org/2000/svg">
<mask id="mask0_9:562" style="mask-type:alpha" maskUnits="userSpaceOnUse" x="0" y="0" width="246" height="236">
<path d="M246 142.5C246 159.018 203.832 167.739 197.681 182C179.664 223.766 152.181 236 118.181 236C87.6807 236 75.1862 228.426 54.1807 196.5C41.9986 177.985 0.180664 166.32 0.180664 142.5C0.180664 77.6065 53.2872 0 118.181 0C211 0 246 77.6065 246 142.5Z" fill="#C4C4C4"/>
</mask>
<g mask="url(#mask0_9:562)">
<path fill-rule="evenodd" clip-rule="evenodd" d="M149.942 210.65C143.828 210.737 136.333 210.436 130.501 208.504C127.584 207.533 123.599 205.591 123.181 202.124C123.121 201.293 123.226 200.457 123.49 199.666C123.753 198.874 124.17 198.143 124.717 197.512L125.115 197.007L125.728 197.201C133.106 199.464 144.119 202.513 151.449 198.716C157.991 195.318 160.771 187.064 162.336 180.403C164.562 170.838 172.252 165.507 181.963 165.595C183.732 165.532 185.463 166.123 186.823 167.255C187.346 167.701 187.749 168.27 187.993 168.912C188.238 169.553 188.317 170.246 188.223 170.926C187.805 173.314 185.384 174.227 183.226 174.256C176.159 174.353 173.194 176.936 171.095 183.442C168.072 192.812 161.014 208.387 150.137 210.63H150.049L149.942 210.65Z" fill="#684D3D"/>
<path fill-rule="evenodd" clip-rule="evenodd" d="M149.932 209.718C127.973 210.019 120.77 204.154 125.475 198.066C146.705 204.581 158.01 203.095 163.26 180.587C165.252 172.052 172.008 166.41 181.972 166.508C188.456 166.576 189.273 173.227 183.187 173.305C175.09 173.421 172.193 176.927 170.191 183.141C165.573 197.425 158.108 208.009 149.932 209.698V209.718Z" fill="#A86C53"/>
<path fill-rule="evenodd" clip-rule="evenodd" d="M155.736 205.611C157.136 202.816 157.687 199.674 157.32 196.57C160.848 192.238 163.21 187.078 164.183 181.578C165.972 171.868 172.533 167.013 183.051 166.605C182.693 166.558 182.333 166.532 181.972 166.527C172.047 166.43 165.252 172.072 163.26 180.607C161.393 188.637 158.749 193.997 155.152 197.27C154.224 201.714 152.452 205.939 149.932 209.718C157.359 208.184 164.203 199.309 168.859 186.977C163.149 197.917 158.775 204.128 155.736 205.611Z" fill="#875843"/>
<path fill-rule="evenodd" clip-rule="evenodd" d="M176.84 167.469C186.677 165.255 188.378 171.887 184.295 172.139C174.837 172.732 171.6 175.975 170.686 181.675C172.689 176.383 175.741 173.431 183.168 173.324C188.893 173.246 188.505 167.343 183.032 166.605C180.936 166.662 178.852 166.951 176.82 167.469H176.84Z" fill="#96624A"/>
<path fill-rule="evenodd" clip-rule="evenodd" d="M215.373 131.454C216.853 131.422 218.329 131.276 219.786 131.017C221.341 130.765 223.363 130.386 224.822 131.172C225.283 131.451 225.684 131.818 226.001 132.253C226.318 132.689 226.545 133.183 226.668 133.707C226.921 134.523 226.921 135.396 226.668 136.212C225.385 140.193 217.92 140.659 214.265 140.737C210.172 144.708 204.427 148.67 198.566 146.155H198.507C191.45 142.087 186.356 136.173 187.717 127.648C187.987 125.186 189.152 122.908 190.993 121.249C189.613 118.53 188.699 114.957 190.867 112.442C191.896 111.32 193.299 110.612 194.813 110.451C195.684 110.319 196.574 110.437 197.38 110.791C200.296 112.141 200.597 116.005 200.247 119.18C201.714 117.892 202.982 116.393 204.009 114.733C205.22 112.614 207.02 110.89 209.19 109.771C209.968 109.357 210.839 109.148 211.721 109.165C212.602 109.182 213.465 109.424 214.226 109.868C214.863 110.36 215.364 111.006 215.68 111.745C215.997 112.485 216.119 113.293 216.034 114.092C215.946 116.258 214.158 119.103 212.214 121.54C216.219 119.229 221.069 116.481 223.597 119.598C226.425 123.123 218.911 128.337 215.392 131.473L215.373 131.454Z" fill="#684D3D"/>
<path fill-rule="evenodd" clip-rule="evenodd" d="M188.621 127.726C187.487 134.814 190.932 140.672 198.955 145.301C203.329 147.178 208.309 145.346 213.895 139.805C222.508 139.679 226.863 137.64 225.774 133.979C224.413 129.415 219.845 133.095 213.312 132.27C213.522 133.289 213.629 134.327 213.633 135.367C212.661 130.066 209.366 125.279 204.884 121.628C206.259 122.266 207.531 123.107 208.656 124.123C211.426 121.327 215.013 116.782 215.12 114.025C215.334 108.752 209.064 108.325 204.826 115.19C203.427 117.433 201.636 119.406 199.538 121.016C204.444 125.754 205.189 129.25 201.774 131.503C204.133 128.732 203.19 125.392 198.945 121.482C200.51 114.393 198.371 110.898 194.959 111.374C190.838 111.947 188.903 115.627 192.189 121.472C191.204 122.229 190.383 123.178 189.776 124.261C189.17 125.344 188.79 126.54 188.66 127.774L188.621 127.726ZM213.302 132.231C215.48 129.444 225.405 123.346 222.848 120.161C220.058 116.685 212.972 122.628 208.841 124.327C211.101 126.445 212.658 129.203 213.302 132.231Z" fill="#FDCC98"/>
<path fill-rule="evenodd" clip-rule="evenodd" d="M77.6486 255.715C74.7323 255.404 72.2826 254.171 71.0092 251.423C70.614 250.409 70.486 249.31 70.6375 248.232C70.789 247.154 71.2149 246.133 71.8744 245.267C72.6909 241.79 75.0628 239.285 78.0957 237.499C81.9063 235.265 87.9429 235.178 92.2298 235.353H92.9977L93.1047 236.12V236.207C93.3574 236.926 95.2432 236.916 95.8654 236.906H96.7111L96.818 237.751C96.9444 238.722 97.2555 240.111 98.247 240.664C99.5982 241.373 101.61 240.159 102.709 239.392L103.312 238.974L103.866 239.47C104.945 240.441 108.609 243.606 110.145 242.655C110.371 242.472 110.553 242.241 110.677 241.979C110.801 241.717 110.866 241.43 110.865 241.14L110.972 240.169L111.944 240.344C113.468 240.657 115.03 240.748 116.58 240.615L117.3 240.509L117.582 241.188C119.526 245.878 121.412 252.957 114.879 254.851C111.065 255.82 107.085 255.952 103.214 255.239C99.5577 254.682 95.8231 254.941 92.2784 255.996C89.2358 256.967 80.6717 259.696 78.1346 256.472C77.9715 256.273 77.819 256.066 77.6777 255.851L77.6486 255.715Z" fill="#684D3D"/>
<path fill-rule="evenodd" clip-rule="evenodd" d="M78.1831 254.831C78.3789 255.168 78.5965 255.493 78.8344 255.802C80.1467 257.462 84.3072 257.521 91.9575 255.016C95.6399 253.914 99.5218 253.645 103.321 254.229C107.071 254.935 110.931 254.809 114.626 253.86C118.933 252.607 119.662 248.568 116.716 241.441C115.069 241.58 113.409 241.485 111.788 241.159C111.779 241.591 111.669 242.015 111.469 242.397C111.268 242.779 110.981 243.11 110.631 243.363C108.59 244.635 105.042 241.693 103.234 240.081C101.688 241.149 99.5203 242.305 97.8094 241.412C96.5263 240.742 96.05 239.227 95.8653 237.819C94.4849 237.819 92.6282 237.732 92.1908 236.508C92.1621 236.423 92.1426 236.335 92.1325 236.246C85.8528 235.987 81.3164 236.66 78.5233 238.266C76.1049 239.563 74.2017 241.646 73.1282 244.169C76.0056 241.392 80.5582 239.654 86.786 238.955C79.4695 240.729 74.7711 242.959 72.6908 245.645C72.0747 246.393 71.6711 247.292 71.5223 248.248C71.3735 249.205 71.485 250.184 71.8451 251.083C72.3392 252.119 73.0982 253.007 74.0454 253.656C74.9926 254.306 76.0946 254.694 77.2402 254.783C74.0647 249.403 78.6432 245.603 90.9757 243.383C79.3107 246.49 75.2474 250.18 78.1733 254.889L78.1831 254.831Z" fill="#FDCC98"/>
<path fill-rule="evenodd" clip-rule="evenodd" d="M193.55 145.844C178.774 157.497 161.977 159.827 144.139 154.71C147.055 161.905 150.108 169.052 153.043 176.237C155.694 182.449 156.511 189.289 155.401 195.95C154.29 202.611 151.296 208.816 146.773 213.835C149.592 219.137 150.146 226.876 149.962 232.77C151.138 233.595 153.004 235.061 152.509 236.469C152.081 237.693 150.224 237.819 148.844 237.78C148.669 239.188 148.202 240.693 146.9 241.373C145.189 242.266 143.011 241.111 141.475 240.042C139.667 241.654 136.119 244.597 134.078 243.325C133.728 243.071 133.441 242.74 133.241 242.358C133.04 241.976 132.931 241.552 132.921 241.12C130.656 241.509 126.641 242.004 125.864 240.149C125.281 238.78 126.836 237.236 127.808 236.323C129.149 232.566 128.78 227.41 128.139 223.564C124.337 224.178 120.466 224.233 116.648 223.729C115.929 227.681 115.55 232.469 116.94 236.353C117.912 237.256 119.438 238.8 118.884 240.178C118.097 242.014 114.092 241.518 111.827 241.149C111.818 241.581 111.708 242.005 111.508 242.387C111.307 242.77 111.02 243.1 110.67 243.354C108.629 244.626 105.081 241.683 103.273 240.072C101.727 241.14 99.5593 242.295 97.8484 241.402C96.5653 240.732 96.0889 239.217 95.9043 237.809C94.5239 237.809 92.6672 237.722 92.2298 236.498C91.7437 235.09 93.6101 233.585 94.7863 232.799C94.5919 226.973 95.0488 220.03 97.8581 214.777C93.6945 210.088 90.9268 204.33 89.8676 198.153C88.6722 190.752 89.599 183.163 92.5408 176.266C94.1739 172.285 95.7779 168.275 97.1582 164.197C98.1229 161.44 98.8991 158.62 99.4815 155.758C83.5977 160.866 76.8514 172.877 76.4043 189.433C77.2403 190.453 78.7761 192.405 77.8818 193.521C77.2014 194.385 75.8599 193.968 74.9656 193.647C73.8763 193.229 72.8174 192.736 71.7966 192.171C71.5244 193.783 70.9509 195.842 69.5316 196.056C67.8597 196.318 66.4696 193.735 65.6433 191.997C64.5622 192.705 63.4317 193.334 62.2605 193.88C61.405 194.259 60.0733 194.754 59.3442 193.939C58.6151 193.123 59.1498 191.735 59.84 190.53C58.1388 190.696 56.2141 190.53 55.5531 189.21C55.4151 188.934 55.3611 188.623 55.3976 188.317C55.5434 187.258 56.739 186.763 57.6334 186.481C58.8567 186.114 60.1039 185.832 61.3662 185.637C63.6505 164.954 76.4917 150.224 94.9808 141.252L95.2821 141.106L95.6126 141.184C96.2445 141.349 96.8666 141.494 97.4888 141.64C100.006 142.223 102.553 142.698 105.11 143.067H105.343L105.528 143.203C109.081 145.485 113.216 146.699 117.441 146.699C121.665 146.699 125.8 145.485 129.354 143.203L129.538 143.067H129.772C132.328 142.698 134.875 142.223 137.393 141.64C139.91 141.057 142.253 140.407 144.635 139.63L145.004 139.504L145.354 139.688C160.353 147.583 173.719 143.718 185.705 132.542C185.841 131.231 186.162 128.774 187.581 128.657C188.68 128.541 189.321 129.794 189.691 130.6C190.158 131.672 190.551 132.775 190.867 133.901C192.208 132.93 194.075 131.959 195.232 132.775C196.593 133.746 195.727 136.581 195.037 138.358C196.303 138.63 197.547 138.993 198.76 139.445C199.625 139.785 200.918 140.416 200.87 141.494C200.821 142.572 199.431 143.184 198.08 143.533C199.402 144.631 200.656 146.097 200.16 147.515C200.059 147.806 199.877 148.062 199.635 148.253C198.77 148.893 197.584 148.389 196.719 147.952C195.597 147.34 194.519 146.652 193.492 145.893L193.55 145.844Z" fill="#684D3D"/>
<path fill-rule="evenodd" clip-rule="evenodd" d="M152.178 176.587C148.29 166.974 145.704 161.147 142.554 153.282C161.925 159.38 178.913 156.519 193.521 144.699C197.001 147.204 198.925 148.262 199.305 147.184C199.684 146.106 198.449 144.728 195.854 143.019C201.958 141.963 201.271 140.63 193.793 139.018C196.262 132.959 195.121 131.765 190.371 135.435C188.427 128.515 187.176 127.699 186.619 132.988C173.262 145.572 159.371 148.078 144.946 140.504C142.428 141.329 139.949 141.999 137.626 142.543C135.108 143.116 132.532 143.601 129.927 143.98C126.215 146.376 121.889 147.651 117.47 147.651C113.05 147.651 108.724 146.376 105.013 143.98C102.417 143.601 99.841 143.116 97.3136 142.543L95.4181 142.077C75.782 151.612 64.1656 166.857 62.2506 186.423C58.022 187.132 55.9224 187.763 56.4181 188.792C56.9139 189.822 58.7705 189.909 61.8132 189.268C58.2877 194.35 59.7199 194.796 66.1097 190.608C68.702 196.622 70.3545 196.648 71.0674 190.686C77.3665 194.181 78.8246 193.858 75.4417 189.715C75.85 170.858 84.2456 159.082 100.628 154.389C99.7146 160.477 97.0026 167.741 93.3864 176.577C87.1845 191.744 90.7229 205.707 98.9856 214.602C96.4776 218.874 95.3889 225.086 95.7194 233.236C91.87 235.896 92.2102 237.084 96.7401 236.799C96.941 241.266 99.1282 241.946 103.302 238.838C108.531 243.577 111.059 243.965 110.884 240.003C118.116 241.298 119.866 240.256 116.133 236.877C114.86 233.507 114.724 229.109 115.715 223.593C113.649 223.06 111.659 222.263 109.795 221.224C117.986 223.916 126.844 223.786 134.953 220.855C133.1 221.957 131.113 222.818 129.042 223.419C129.966 228.749 129.83 233.595 128.595 236.877C124.862 240.249 126.612 241.292 133.844 240.003C133.657 243.965 136.184 243.577 141.427 238.838C145.587 241.946 147.774 241.266 147.988 236.799C152.525 237.084 152.865 235.896 149.009 233.236C149.33 225.089 148.134 217.971 145.636 213.699C150.209 208.809 153.262 202.698 154.423 196.108C155.585 189.518 154.805 182.733 152.178 176.577V176.587Z" fill="#A86C53"/>
<path fill-rule="evenodd" clip-rule="evenodd" d="M104.643 143.912C102.174 143.543 99.7344 143.077 97.343 142.533L95.4475 142.067C84.706 147.282 76.3655 154.205 70.6982 162.604C76.4076 154.946 84.9814 148.686 96.4196 143.825C99.146 144.203 101.91 144.233 104.643 143.912Z" fill="#96624A"/>
<path fill-rule="evenodd" clip-rule="evenodd" d="M132.386 143.582C131.569 143.718 130.753 143.854 129.927 143.971C126.272 146.493 121.904 147.779 117.465 147.641C114.921 147.676 112.389 147.292 109.97 146.505C110.267 155.106 108.605 163.662 105.109 171.528C97.0897 190.055 102.028 207.29 117.989 209.524C134.69 211.854 144.79 202.62 145.567 186.336C145.995 177.5 142.603 169.673 139.006 162.187C136.12 156.244 133.888 150.006 132.347 143.582H132.386Z" fill="#FDCC98"/>
<path fill-rule="evenodd" clip-rule="evenodd" d="M109.795 221.234C117.986 223.926 126.844 223.796 134.953 220.865C131.16 223.125 126.839 224.349 122.423 224.414C118.008 224.479 113.653 223.382 109.795 221.234Z" fill="#684D3D"/>
<path fill-rule="evenodd" clip-rule="evenodd" d="M140.659 218.253C142.66 217.323 144.498 216.077 146.102 214.563C145.947 214.262 145.791 213.98 145.636 213.709C144.118 215.371 142.452 216.892 140.659 218.253ZM100.969 149.787C100.63 151.444 100.199 153.081 99.6757 154.69L100.648 154.399C100.896 152.874 101.009 151.331 100.988 149.787H100.969ZM143.74 153.622C142.885 152.34 141.952 150.874 140.931 149.204C141.485 150.631 142.02 151.972 142.535 153.253L143.74 153.622ZM102.99 218.253C101.545 217.159 100.198 215.94 98.966 214.612C98.8299 214.835 98.7133 215.058 98.5869 215.282C99.9843 216.372 101.456 217.365 102.99 218.253Z" fill="#684D3D"/>
<path fill-rule="evenodd" clip-rule="evenodd" d="M167.167 255.695C170.084 255.375 172.524 254.151 173.807 251.404C174.201 250.389 174.328 249.291 174.177 248.213C174.026 247.135 173.6 246.114 172.942 245.247C172.135 241.781 169.753 239.266 166.72 237.479C162.919 235.246 156.873 235.149 152.596 235.324H151.818L151.711 236.081C151.711 236.081 151.711 236.149 151.711 236.178C151.459 236.887 149.563 236.887 148.941 236.867H148.095L147.988 237.712C147.872 238.683 147.551 240.072 146.559 240.625C145.208 241.324 143.196 240.12 142.097 239.353L141.495 238.936L140.95 239.421C139.871 240.392 136.197 243.567 134.661 242.606C134.437 242.424 134.256 242.195 134.131 241.935C134.007 241.674 133.942 241.39 133.942 241.101L133.835 240.13L132.863 240.295C131.335 240.611 129.77 240.706 128.216 240.577L127.497 240.47L127.224 241.14C125.28 245.84 123.394 252.909 129.917 254.812C133.733 255.774 137.711 255.907 141.582 255.2C145.235 254.646 148.965 254.901 152.508 255.948C155.551 256.919 164.125 259.657 166.662 256.433C166.817 256.229 166.973 256.026 167.119 255.812L167.167 255.695Z" fill="#684D3D"/>
<path fill-rule="evenodd" clip-rule="evenodd" d="M166.633 254.812C166.439 255.113 166.225 255.423 165.972 255.783C164.66 257.443 160.499 257.492 152.849 254.986C149.165 253.894 145.285 253.625 141.485 254.2C137.739 254.908 133.883 254.785 130.19 253.841C125.874 252.588 125.144 248.539 128.09 241.421C129.741 241.56 131.404 241.465 133.028 241.14C133.037 241.571 133.145 241.993 133.344 242.376C133.543 242.758 133.827 243.089 134.175 243.344C136.217 244.616 139.774 241.674 141.573 240.062C143.118 241.13 145.286 242.286 147.007 241.392C148.29 240.722 148.756 239.208 148.951 237.8C150.321 237.8 152.188 237.712 152.616 236.479C152.644 236.393 152.667 236.306 152.684 236.217C158.963 235.958 163.5 236.631 166.293 238.237C168.714 239.533 170.62 241.616 171.698 244.14C168.82 241.363 164.268 239.622 158.04 238.916C165.369 240.703 170.068 242.933 172.135 245.606C172.75 246.356 173.153 247.256 173.304 248.214C173.454 249.172 173.346 250.152 172.99 251.054C172.492 252.087 171.732 252.972 170.786 253.621C169.839 254.27 168.74 254.66 167.595 254.753C170.764 249.361 166.183 245.558 153.85 243.344C165.515 246.461 169.578 250.141 166.662 254.86L166.633 254.812Z" fill="#FDCC98"/>
<path fill-rule="evenodd" clip-rule="evenodd" d="M61.4146 217.36L61.7937 218.02C61.9777 218.289 62.0857 218.602 62.1062 218.926C62.1267 219.251 62.0591 219.575 61.9103 219.865C61.0743 221.273 58.8094 220.574 57.6818 219.981C55.8136 218.947 54.3354 217.331 53.4726 215.379L51.859 214.515C50.9675 214.058 50.1929 213.402 49.5946 212.599C48.9963 211.796 48.5904 210.867 48.4081 209.883C47.018 201.785 47.7762 193.143 56.0292 189.259L56.4764 189.055L56.8944 189.297C57.819 189.669 58.8285 189.776 59.8106 189.608L61.609 189.433L60.7049 191.006C60.4716 191.424 59.7329 192.89 60.0828 193.317C60.4328 193.745 61.5895 193.211 61.9687 193.036C63.0982 192.513 64.1867 191.906 65.2251 191.22L66.1292 190.647L66.5763 191.618C66.9457 192.444 68.3261 195.318 69.4342 195.143C70.3577 194.997 70.7952 192.783 70.9215 192.016L71.1354 190.735L72.2824 191.346C73.2645 191.894 74.2845 192.371 75.3348 192.774C75.6197 192.885 75.912 192.975 76.2097 193.046L76.5402 193.114L76.7443 193.385C77.3929 194.159 77.8418 195.079 78.052 196.066C78.2621 197.053 78.227 198.076 77.9497 199.046C77.8463 199.814 77.9988 200.594 78.3836 201.266C78.7684 201.938 79.364 202.465 80.0786 202.765C81.8575 203.348 85.0167 204.562 85.0848 206.834C85.0661 207.302 84.946 207.761 84.7329 208.178C84.5198 208.595 84.2186 208.962 83.8502 209.252C80.2827 212.495 76.0055 210.737 73.7697 206.98C73.1767 206.009 71.9908 204.203 70.6008 204.756C67.5679 205.97 67.3054 208.193 68.608 210.961C69.3743 212.867 70.775 214.451 72.5741 215.447C72.911 215.618 73.2102 215.855 73.4539 216.143C73.6977 216.432 73.8811 216.766 73.9933 217.127C74.145 217.705 74.1469 218.312 73.999 218.891C73.8511 219.471 73.5581 220.003 73.1476 220.438C72.7089 220.938 72.1514 221.32 71.5264 221.549C70.9014 221.778 70.2288 221.847 69.5703 221.749C66.4127 221.356 63.5149 219.802 61.4437 217.389L61.4146 217.36Z" fill="#684D3D"/>
<path fill-rule="evenodd" clip-rule="evenodd" d="M77.0165 198.765C77.26 197.933 77.2924 197.053 77.1108 196.206C76.9292 195.358 76.5394 194.569 75.9764 193.91C75.6457 193.828 75.3209 193.724 75.0043 193.599C73.915 193.181 72.8561 192.688 71.8354 192.123C71.5632 193.735 70.9897 195.793 69.5704 196.007C67.8984 196.269 66.5084 193.686 65.6821 191.948C64.601 192.656 63.4704 193.285 62.2992 193.832C61.4438 194.211 60.112 194.706 59.383 193.89C58.6539 193.075 59.1886 191.686 59.8787 190.482C58.7136 190.675 57.5174 190.523 56.4376 190.045C49.957 193.081 47.5884 199.619 49.3316 209.659C49.487 210.511 49.836 211.315 50.3517 212.01C50.8674 212.706 51.5361 213.273 52.3062 213.67C51.2682 210.438 51.3538 206.952 52.5492 203.775C52.8603 208.426 52.9575 211.669 54.1337 214.514C56.4765 220.234 62.3381 220.748 60.9966 218.466C59.208 215.417 58.0804 212.64 58.5081 209.601C60.4523 216.214 64.1267 219.972 69.6871 220.768C72.6714 221.195 74.4114 217.418 72.1173 216.214C70.1426 215.12 68.5997 213.387 67.7429 211.3C66.1195 207.853 66.8291 205.193 70.2314 203.833C71.8256 203.202 73.2643 204.299 74.5475 206.445C76.4333 209.611 79.9814 211.436 83.2087 208.504C85.0946 206.785 84.1808 205.018 79.7675 203.591C78.824 203.216 78.0373 202.53 77.5386 201.647C77.0398 200.763 76.859 199.736 77.0263 198.736L77.0165 198.765Z" fill="#FDCC98"/>
<path fill-rule="evenodd" clip-rule="evenodd" d="M50.8966 209.174C49.4709 206.992 49.001 203.358 49.4871 198.27C48.5894 202.017 48.533 205.917 49.3218 209.689C49.4772 210.54 49.8262 211.344 50.3419 212.04C50.8576 212.735 51.5263 213.303 52.2964 213.699C51.2583 210.468 51.344 206.981 52.5394 203.804C51.4872 205.4 50.9169 207.264 50.8966 209.174ZM59.1884 217.117C57.8909 216.914 56.6738 216.36 55.6695 215.515C54.2503 213.819 53.2782 211.022 52.7533 207.125C52.8063 209.655 53.2657 212.16 54.1142 214.544C56.4569 220.263 62.3185 220.778 60.9771 218.496C59.1884 215.447 58.0608 212.67 58.4885 209.63C60.4327 216.243 64.1072 220.001 69.6675 220.797C72.6518 221.224 74.3918 217.447 72.0977 216.243C70.123 215.149 68.5801 213.416 67.7233 211.33C67.0893 210.139 66.819 208.788 66.9457 207.446C66.4207 210.598 67.4576 213.531 70.0563 216.243C68.5399 218.001 67.0234 218.467 65.5361 217.632C63.8628 216.878 62.3691 215.777 61.1541 214.403C59.939 213.028 59.0304 211.411 58.4885 209.66C58.0204 212.171 58.2594 214.762 59.1787 217.146L59.1884 217.117ZM80.5743 203.901C83.2669 205.708 83.4905 207.29 81.1769 208.446C80.4863 208.806 79.6889 208.906 78.9305 208.728C78.172 208.55 77.503 208.105 77.0456 207.475C74.6834 204.814 72.8754 203.532 71.5047 203.717C72.6032 203.901 73.6239 204.911 74.5571 206.475C76.4429 209.64 79.991 211.466 83.2183 208.533C84.9875 206.931 84.2682 205.271 80.5743 203.901Z" fill="#E4B887"/>
<path fill-rule="evenodd" clip-rule="evenodd" d="M131.327 236.838C132.908 233.252 133.183 229.044 132.153 224.215C139.502 221.156 143.137 218.292 145.626 215C144.136 216.318 142.463 217.414 140.659 218.253C142.452 216.892 144.118 215.371 145.636 213.709C151.087 207.804 154.353 200.215 154.89 192.201H154.841C153.749 199.981 149.879 207.105 143.944 212.26C138.009 217.416 130.409 220.255 122.544 220.255C114.679 220.255 107.079 217.416 101.144 212.26C95.2085 207.105 91.3385 199.981 90.2464 192.201C90.2374 200.504 93.3612 208.506 98.9951 214.612C100.228 215.941 101.574 217.159 103.02 218.253C101.483 217.365 100.011 216.369 98.616 215.272C96.3737 219.519 95.4016 225.506 95.6997 233.236C95.6975 227.697 96.6851 222.202 98.616 217.01C102.948 220.458 107.783 223.222 112.954 225.205C112.791 229.341 113.263 233.477 114.354 237.469C116.551 239.47 115.375 239.793 110.825 238.44C109.834 241.813 107.306 241.949 103.243 238.848C104.569 240.121 106.04 241.232 107.627 242.159C108.726 242.742 109.571 242.868 110.077 242.538L110.232 242.422C110.494 242.157 110.667 241.817 110.728 241.451C110.762 241.307 110.785 241.161 110.796 241.014V240.955C110.817 240.632 110.817 240.308 110.796 239.984C112.513 240.34 114.263 240.516 116.016 240.509C116.344 240.499 116.669 240.457 116.988 240.382C118.583 240.013 118.281 238.838 116.084 236.858C114.811 233.488 114.675 229.089 115.666 223.574C113.6 223.04 111.61 222.244 109.746 221.205C117.937 223.896 126.795 223.766 134.904 220.836C133.051 221.938 131.065 222.799 128.994 223.399C129.917 228.73 129.781 233.576 128.546 236.858C126.447 238.8 126.077 239.916 127.458 240.334L128.177 240.441C128.644 240.507 129.115 240.533 129.587 240.518C130.671 240.459 131.752 240.339 132.824 240.159L133.796 239.994L133.903 240.965C133.903 241.254 133.968 241.538 134.092 241.799C134.217 242.059 134.398 242.288 134.622 242.47C134.859 242.582 135.118 242.641 135.38 242.641C135.642 242.641 135.901 242.582 136.138 242.47C137.942 241.646 139.588 240.512 140.999 239.12C136.236 242.745 134.139 242.629 134.709 238.771C128.595 240.13 128.459 239.227 131.278 236.77L131.327 236.838Z" fill="#875843"/>
<path fill-rule="evenodd" clip-rule="evenodd" d="M100.969 149.787C99.6564 152.467 98.6649 153.865 97.9747 153.991C81.9094 160.73 74.4114 172.641 75.4807 189.724C75.8825 171.236 83.9605 159.558 99.7147 154.69C100.238 153.081 100.669 151.444 101.008 149.787H100.969Z" fill="#875843"/>
<path fill-rule="evenodd" clip-rule="evenodd" d="M110.369 206.863C113.857 209.7 118.137 211.393 122.623 211.712C127.11 212.031 131.586 210.961 135.442 208.647C139.298 206.332 142.345 202.887 144.17 198.78C145.994 194.673 146.506 190.104 145.636 185.695V186.336C144.858 202.62 134.758 211.854 118.058 209.524C115.349 209.17 112.742 208.265 110.398 206.863H110.369Z" fill="#96624A"/>
<path fill-rule="evenodd" clip-rule="evenodd" d="M132.387 143.582L130.89 143.825C132.347 149.838 134.446 155.678 137.15 161.245C140.571 168.362 143.789 175.81 143.381 184.19C142.642 199.648 133.057 208.465 117.135 206.203C107.151 204.804 101.708 197.221 101.338 187.171C100.94 198.881 106.704 207.941 117.98 209.504C134.681 211.835 144.781 202.6 145.558 186.316C145.986 177.48 142.593 169.654 138.997 162.167C136.111 156.224 133.878 149.986 132.338 143.562L132.387 143.582Z" fill="#E4B887"/>
<path fill-rule="evenodd" clip-rule="evenodd" d="M144.654 151.933L140.95 149.243C141.922 150.913 142.894 152.379 143.759 153.661C162.637 159.261 179.224 156.276 193.52 144.708C186.704 150.047 178.616 153.523 170.049 154.797C161.482 156.07 152.731 155.096 144.654 151.971V151.933Z" fill="#875843"/>
<path fill-rule="evenodd" clip-rule="evenodd" d="M187.27 133.367C187.261 132.737 187.359 132.109 187.562 131.512C187.776 131.075 188.087 131.124 188.534 131.668C189.304 132.839 189.939 134.093 190.429 135.406C190.007 133.555 189.354 131.764 188.485 130.075C188.135 129.541 187.824 129.386 187.562 129.628C187.299 129.871 186.891 131.066 186.687 132.959C177.912 141.226 168.933 145.155 159.75 144.747C169.88 145.239 179.04 141.446 187.231 133.367H187.27Z" fill="#96624A"/>
<path fill-rule="evenodd" clip-rule="evenodd" d="M200.005 145.679C204.126 146.864 208.757 144.906 213.896 139.805C220.904 139.708 225.104 138.329 225.823 135.843C223.451 137.973 219.349 138.656 213.516 137.892C208.403 143.608 204.029 145.673 200.393 144.087C205.623 140.349 198.371 138.387 195.057 138.309C196.322 138.581 197.567 138.944 198.78 139.397C199.645 139.737 200.938 140.368 200.889 141.446C200.841 142.524 199.45 143.135 198.099 143.485C198.892 144.075 199.554 144.822 200.043 145.679H200.005Z" fill="#E4B887"/>
<path fill-rule="evenodd" clip-rule="evenodd" d="M200.656 121.278C202.262 119.945 203.62 118.341 204.671 116.539C207.14 112.296 209.881 110.16 213.274 110.354C211.135 109.383 207.529 110.733 204.787 115.209C203.389 117.452 201.597 119.425 199.499 121.035C204.405 125.774 205.15 129.269 201.735 131.522C205.448 129.153 205.089 125.761 200.656 121.346V121.278Z" fill="#E4B887"/>
<path fill-rule="evenodd" clip-rule="evenodd" d="M67.9661 107.121C62.3474 114.452 52.5877 115.413 45.4138 109.645C38.2398 103.877 35.693 92.9439 39.5813 84.4669C43.3432 76.1745 52.3642 72.1545 60.7727 76.1259C67.3342 77.3688 72.0683 83.0395 73.5264 89.3608C74.9845 95.6821 73.2348 102.955 67.9661 107.121Z" fill="#684D3D"/>
<path fill-rule="evenodd" clip-rule="evenodd" d="M67.305 106.46C72.0196 102.809 74.1095 96.0899 72.6222 89.5744C71.135 83.0589 66.2843 78.0679 60.4809 77.0192C59.956 76.7765 59.4311 76.5531 58.9062 76.3687C59.12 77.6504 59.3922 78.9224 59.7324 80.1847L59.9074 80.845L59.2269 80.7673C53.0056 80.0391 47.3092 84.2047 45.4039 90.0308C44.5444 92.7532 44.605 95.6825 45.5764 98.3672C46.5478 101.052 48.3761 103.343 50.7795 104.887C54.4249 107.286 59.0909 107.159 63.057 105.674L63.9804 105.324L63.6596 106.295C63.1765 107.692 62.8505 109.138 62.6876 110.607C64.4846 109.561 66.0518 108.164 67.2952 106.499L67.305 106.46Z" fill="#F8A26A"/>
<path fill-rule="evenodd" clip-rule="evenodd" d="M50.5268 105.276C48.0316 103.681 46.1332 101.308 45.1261 98.5251C44.1189 95.7423 44.0594 92.7053 44.9568 89.8852C46.8523 84.0591 52.5973 79.5245 59.2755 80.3013C58.9159 78.9516 58.6242 77.5825 58.4007 76.2036C51.2753 73.9509 43.8194 77.4077 40.4269 84.8554C36.7232 93.0216 39.1243 103.382 46.0066 108.917C50.9934 112.927 57.1758 113.481 62.2015 110.859C62.3527 109.248 62.6954 107.661 63.2222 106.13C58.3618 107.956 53.7541 107.422 50.5268 105.295V105.276Z" fill="#FDCC98"/>
<path fill-rule="evenodd" clip-rule="evenodd" d="M49.3992 89.3023C50.9999 87.7545 53.0204 86.7104 55.2099 86.2995C57.3994 85.8887 59.6616 86.1292 61.7154 86.9913C60.7829 84.9878 60.0125 82.9129 59.4116 80.7865H59.2269C53.0056 80.0583 47.3092 84.2239 45.4039 90.05C44.3551 93.2579 44.6243 96.7505 46.1524 99.7601C45.7798 97.8953 45.8818 95.9668 46.4491 94.1515C47.0164 92.3363 48.0307 90.6923 49.3992 89.3703V89.3023Z" fill="#F37649"/>
<path fill-rule="evenodd" clip-rule="evenodd" d="M166.963 107.121C172.591 114.452 182.351 115.413 189.515 109.645C196.68 103.877 199.236 92.9439 195.348 84.4669C191.586 76.1745 182.565 72.1545 174.157 76.1259C167.595 77.3688 162.861 83.0395 161.403 89.3608C159.945 95.6821 161.694 102.955 166.953 107.121H166.963Z" fill="#684D3D"/>
<path fill-rule="evenodd" clip-rule="evenodd" d="M167.634 106.46C162.919 102.809 160.829 96.0899 162.316 89.5744C163.804 83.0589 168.654 78.0679 174.458 77.0192C174.983 76.7765 175.508 76.5531 176.033 76.3687C175.819 77.6504 175.547 78.9224 175.206 80.1847L175.031 80.845L175.712 80.7673C181.933 80.0391 187.63 84.2047 189.535 90.0308C190.394 92.7532 190.334 95.6825 189.362 98.3672C188.391 101.052 186.563 103.343 184.159 104.887C180.504 107.286 175.848 107.159 171.882 105.674L170.958 105.324L171.279 106.295C171.762 107.692 172.088 109.138 172.251 110.607C170.454 109.561 168.887 108.164 167.643 106.499L167.634 106.46Z" fill="#F8A26A"/>
<path fill-rule="evenodd" clip-rule="evenodd" d="M184.411 105.276C186.905 103.68 188.803 101.307 189.81 98.5243C190.817 95.7418 190.877 92.7054 189.981 89.8852C188.037 84.0591 182.331 79.5245 175.663 80.3013C176.024 78.9517 176.312 77.5839 176.528 76.2036C183.663 73.9509 191.109 77.4077 194.511 84.8554C198.215 93.0216 195.814 103.382 188.932 108.917C183.945 112.927 177.762 113.481 172.737 110.859C172.586 109.248 172.243 107.661 171.716 106.13C176.576 107.956 181.184 107.422 184.411 105.295V105.276Z" fill="#FDCC98"/>
<path fill-rule="evenodd" clip-rule="evenodd" d="M185.539 89.3023C183.938 87.7556 181.917 86.7122 179.728 86.3014C177.539 85.8906 175.277 86.1305 173.223 86.9913C174.155 84.9878 174.926 82.9129 175.527 80.7865H175.711C181.933 80.0583 187.629 84.2239 189.534 90.05C190.583 93.2579 190.314 96.7505 188.786 99.7601C189.159 97.8953 189.057 95.9668 188.489 94.1515C187.922 92.3363 186.908 90.6923 185.539 89.3703V89.3023Z" fill="#F37649"/>
<path fill-rule="evenodd" clip-rule="evenodd" d="M166.564 97.2454C171.736 103.489 174.613 110.995 171.59 119.676C167.002 132.823 150.078 139.659 137.625 142.533C124.371 145.668 110.567 145.668 97.3131 142.533C84.8608 139.62 67.9368 132.823 63.3486 119.676C60.3157 110.995 63.2028 103.489 68.3742 97.2454C61.9849 90.0008 58.3119 80.7649 57.9827 71.1154C57.8667 65.7934 58.8681 60.5061 60.9224 55.5942C62.9767 50.6823 66.0384 46.2547 69.9101 42.5968C80.36 32.44 95.2912 27.818 109.464 26.0896H109.649C112.658 25.6654 115.425 24.205 117.471 21.9607C119.517 19.7164 120.715 16.8288 120.857 13.7965L120.983 11L122.558 13.311C123.747 15.0574 124.47 17.0781 124.659 19.1817C124.848 21.2853 124.496 23.4023 123.637 25.3322C127.116 24.3279 130.113 22.0997 132.075 19.0594L133.97 16.1464L133.786 19.642C133.66 22.1067 132.87 24.4917 131.501 26.5459C133.329 26.1167 135.082 25.4163 136.702 24.468L139.385 22.8852L138.005 25.6817C137.592 26.5227 137.101 27.3226 136.537 28.0704C148.056 30.799 159.4 35.9842 167.342 44.966C173.822 52.1405 177.301 61.5237 177.063 71.1834C176.723 80.8377 173.036 90.0742 166.632 97.3134L166.564 97.2454Z" fill="#684D3D"/>
<path fill-rule="evenodd" clip-rule="evenodd" d="M165.942 96.5265C184.723 74.7855 179.066 38.2657 134.836 28.6236C135.769 27.6144 136.551 26.4764 137.159 25.2444C135.014 26.5066 132.649 27.3502 130.189 27.7302L129.441 27.6137C131.484 25.4157 132.689 22.5695 132.843 19.5737C131.622 21.4754 130.007 23.0938 128.107 24.3198C126.207 25.5459 124.067 26.3512 121.829 26.6815C123.101 24.7796 123.775 22.5414 123.765 20.2542C123.754 17.967 123.06 15.7351 121.771 13.8447C121.625 17.0958 120.345 20.1933 118.152 22.6001C115.959 25.0069 112.992 26.5711 109.766 27.0214C56.7775 33.2262 48.9717 73.2999 69.0258 96.5168C71.5845 93.6407 74.435 91.0374 77.5315 88.7487C72.7178 85.2731 69.2338 80.2624 67.6539 74.5431C66.0741 68.8239 66.4928 62.7375 68.8411 57.2879C73.8376 45.7037 86.6691 38.8386 99.034 42.2566C103.126 43.3927 107.044 46.6553 110.223 49.3741C112.581 51.5303 115.05 53.5625 117.62 55.4624C119.389 56.6859 121.752 58.0453 123.987 57.8608C126.058 57.686 127.633 56.1906 128.848 54.5205C127.549 54.6674 126.234 54.5952 124.959 54.3069C123.54 53.9476 122.043 53.1319 121.577 51.6269C120.954 49.5003 122.879 47.6554 124.493 46.5873C127.672 44.4317 132.338 43.0917 136.041 42.2469C142.411 40.7708 149.101 41.6831 154.841 44.8104C159.917 47.5831 163.915 51.9767 166.195 57.2879C168.543 62.7375 168.962 68.8239 167.382 74.5431C165.802 80.2624 162.318 85.2731 157.505 88.7487C160.601 91.0374 163.452 93.6407 166.01 96.5168L165.942 96.5265Z" fill="#A86C53"/>
<path fill-rule="evenodd" clip-rule="evenodd" d="M130.656 53.2686C121.275 55.5505 116.074 47.7824 136.187 43.1701C141.97 41.7603 148.066 42.4422 153.394 45.0948C158.721 47.7475 162.936 52.1993 165.291 57.6607C167.645 63.1222 167.987 69.2401 166.256 74.9293C164.524 80.6185 160.832 85.5113 155.832 88.7397C169.578 98.7509 174.36 108.888 170.744 119.375C164.999 135.824 137.839 143.952 117.503 143.952C97.1673 143.952 70.0073 135.824 64.272 119.375C60.6072 108.888 65.3996 98.7315 79.1448 88.7397C74.1507 85.5087 70.4629 80.6158 68.7352 74.9282C67.0075 69.2407 67.3514 63.1258 69.7059 57.6673C74.5663 46.3938 86.9604 39.8589 98.7906 43.1603C110.621 46.4618 121.965 69.067 130.694 53.2589L130.656 53.2686Z" fill="#FDCC98"/>
<path fill-rule="evenodd" clip-rule="evenodd" d="M97.1089 133.221C100.997 142.932 107.948 147.66 117.464 147.641C126.981 147.622 133.99 142.932 137.82 133.221H97.1089Z" fill="#FDCC98"/>
<path fill-rule="evenodd" clip-rule="evenodd" d="M130.656 53.2682C121.275 55.55 116.074 47.7819 136.187 43.1696C141.346 41.9193 146.77 42.3291 151.682 44.3405C156.595 46.3519 160.746 49.8621 163.543 54.37C166.34 58.878 167.64 64.1533 167.257 69.443C166.875 74.7327 164.829 79.7666 161.412 83.826C165.092 78.9181 166.83 72.8262 166.292 66.7179C165.754 60.6096 162.978 54.9145 158.496 50.7241C149.213 42.053 134.515 41.3635 125.231 50.0444C123.501 51.6563 125.737 53.074 130.685 53.2682H130.656ZM87.2132 138.562C76.3356 134.493 67.2758 128.114 64.2332 119.394C60.5684 108.907 65.3608 98.7504 79.1061 88.7587C75.5258 85.7774 72.8473 81.8592 71.3708 77.443C69.8942 73.0268 69.6779 68.2872 70.7461 63.7551C72.9333 54.5111 80.2628 47.7237 89.4004 45.1117C96.1467 43.1696 102.135 44.7912 107.919 51.0834C118.524 62.619 126.155 63.3181 130.656 53.2876C121.907 69.0957 110.621 46.4905 98.7518 43.189C86.8827 39.8876 74.5081 46.4031 69.6477 57.6766C67.2931 63.1351 66.9492 69.2499 68.677 74.9375C70.4047 80.625 74.0924 85.518 79.0866 88.749C75.5 92.1874 72.8036 96.4449 71.2295 101.155C69.6554 105.865 69.2507 110.887 70.0503 115.788C70.8498 120.689 72.8297 125.322 75.8195 129.29C78.8092 133.257 82.7193 136.439 87.2132 138.562Z" fill="#E4B887"/>
<path fill-rule="evenodd" clip-rule="evenodd" d="M140.055 46.5979C142.851 46.6764 145.601 47.328 148.135 48.5122C150.668 49.6965 152.931 51.3882 154.782 53.4824C155.977 54.8359 156.96 56.3613 157.699 58.0073C157.942 58.5802 158.671 60.396 157.854 60.8038C157.378 61.0369 156.931 60.5902 156.649 60.2503C154.111 57.2066 150.703 55.0107 146.88 53.9572C143.058 52.9037 139.004 53.043 135.263 54.3563C135.118 54.4147 134.961 54.4372 134.805 54.422C134.65 54.4068 134.5 54.3543 134.369 54.2689C133.669 53.7931 133.98 52.5502 134.194 51.8996C134.571 50.7927 135.14 49.7606 135.876 48.8506C136.347 48.1816 136.967 47.6303 137.687 47.2395C138.407 46.8488 139.208 46.6293 140.026 46.5979H140.055Z" fill="#684D3D"/>
<path fill-rule="evenodd" clip-rule="evenodd" d="M140.026 47.0637C135.934 46.8695 133.018 54.6085 135.166 53.9093C138.994 52.5752 143.138 52.4386 147.046 53.5177C150.954 54.5968 154.439 56.8403 157.038 59.949C159.711 63.1825 155.716 47.8016 140.046 47.0637H140.026Z" fill="#A86C53"/>
<path fill-rule="evenodd" clip-rule="evenodd" d="M94.9221 46.5979C92.1262 46.6764 89.3762 47.328 86.8428 48.5122C84.3094 49.6965 82.0467 51.3882 80.1951 53.4824C78.9978 54.8334 78.0144 56.3594 77.2788 58.0073C77.0358 58.5802 76.3067 60.396 77.1233 60.8038C77.5996 61.0369 78.0468 60.5902 78.3287 60.2503C80.8662 57.2066 84.2748 55.0107 88.0973 53.9572C91.9199 52.9037 95.9735 53.043 99.7145 54.3563C99.8596 54.4147 100.017 54.4372 100.172 54.422C100.328 54.4068 100.478 54.3543 100.609 54.2689C101.309 53.7931 100.998 52.5502 100.784 51.8996C100.407 50.7927 99.8373 49.7606 99.1021 48.8506C98.6302 48.1816 98.0102 47.6303 97.2903 47.2395C96.5704 46.8488 95.77 46.6293 94.9513 46.5979H94.9221Z" fill="#684D3D"/>
<path fill-rule="evenodd" clip-rule="evenodd" d="M94.9217 47.0637C99.0238 46.8695 101.94 54.6085 99.7821 53.9093C95.954 52.5752 91.8098 52.4386 87.902 53.5177C83.9943 54.5968 80.5087 56.8403 77.9102 59.949C75.2273 63.1825 79.2322 47.8016 94.8925 47.0637H94.9217Z" fill="#A86C53"/>
<path fill-rule="evenodd" clip-rule="evenodd" d="M155.833 88.7395C179.61 113.617 165.252 137.805 127.186 143.378C145.655 141.262 165.845 133.309 170.706 119.375C174.361 108.888 169.578 98.7312 155.833 88.7395Z" fill="#E4B887"/>
<path fill-rule="evenodd" clip-rule="evenodd" d="M39.7367 93.4195C40.296 89.1725 42.2674 85.2363 45.3348 82.2427C48.4021 79.2492 52.3874 77.3719 56.651 76.9122C54.3933 76.6153 52.0975 76.8344 49.937 77.553C47.7764 78.2716 45.8074 79.471 44.1786 81.0606C42.5497 82.6503 41.3036 84.5886 40.5341 86.7295C39.7647 88.8704 39.492 91.158 39.7367 93.4195Z" fill="#FFE1C1"/>
<path fill-rule="evenodd" clip-rule="evenodd" d="M181.437 77.3882C185.061 78.495 188.235 80.733 190.492 83.7739C192.749 86.8148 193.97 90.4984 193.977 94.2838C194.426 92.3355 194.447 90.3131 194.037 88.3561C193.628 86.399 192.799 84.5539 191.607 82.9479C190.415 81.3419 188.889 80.0131 187.133 79.0533C185.377 78.0935 183.434 77.5254 181.437 77.3882Z" fill="#FFE1C1"/>
<path fill-rule="evenodd" clip-rule="evenodd" d="M77.5023 88.7683C76.2288 89.3218 74.9846 89.9141 73.7598 90.555L72.8946 91.0211C71.6439 91.7073 70.419 92.4452 69.2201 93.235C65.4769 88.581 62.8739 83.118 61.6184 77.2812C61.5407 76.9446 61.4726 76.6047 61.4143 76.2617C60.1533 69.5366 60.7189 62.5969 63.0525 56.1642C65.386 49.7314 69.4021 44.0407 74.6832 39.6836C62.0462 49.2966 57.419 62.7451 59.2466 75.4945C59.2952 75.8538 59.3535 76.2034 59.4118 76.5627C60.7304 83.964 64.0441 90.8662 68.9965 96.5267C70.2632 95.0768 71.6169 93.7051 73.0501 92.4193L73.9153 91.6619C75.0818 90.6521 76.2774 89.6811 77.5023 88.7489V88.7683Z" fill="#875843"/>
<path fill-rule="evenodd" clip-rule="evenodd" d="M157.437 88.7683C158.71 89.3218 159.954 89.9141 161.17 90.555L162.044 91.0211C163.295 91.7073 164.517 92.4452 165.709 93.235C169.456 88.5818 172.062 83.1187 173.321 77.2812C173.398 76.9446 173.466 76.6047 173.525 76.2617C174.786 69.5366 174.22 62.5969 171.887 56.1642C169.553 49.7314 165.537 44.0407 160.256 39.6836C172.893 49.2966 177.52 62.7451 175.692 75.4945C175.692 75.8538 175.586 76.2034 175.527 76.5627C174.204 83.9626 170.891 90.8637 165.942 96.5267C164.676 95.0768 163.322 93.7051 161.889 92.4193L161.024 91.6619C159.857 90.6521 158.662 89.6811 157.437 88.7489V88.7683Z" fill="#875843"/>
<path fill-rule="evenodd" clip-rule="evenodd" d="M77.5018 88.7683C72.6882 85.2927 69.2041 80.282 67.6243 74.5627C66.0444 68.8435 66.4632 62.7571 68.8114 57.3075C71.2648 51.6267 75.6234 46.9776 81.1374 44.16C74.9817 47.1421 70.0876 52.213 67.3293 58.467C64.5711 64.721 64.1282 71.7508 66.0799 78.3008C66.2354 78.8057 66.4007 79.3107 66.5756 79.8156C66.9984 80.9821 67.4952 82.1205 68.0629 83.2238C67.4304 82.0664 66.8656 80.8733 66.3715 79.6505C66.1577 79.1359 65.9535 78.6212 65.7688 78.0969C63.4212 71.513 63.0132 64.3946 64.5932 57.586C66.1731 50.7774 69.6748 44.5644 74.6828 39.6836C69.4017 44.0407 65.3855 49.7314 63.052 56.1642C60.7185 62.5969 60.1529 69.5366 61.4139 76.2617L61.618 77.2812C62.8734 83.118 65.4765 88.5811 69.2197 93.235C70.4186 92.4517 71.6434 91.7137 72.8942 91.0211L73.7593 90.555C74.9842 89.9141 76.2284 89.3218 77.5018 88.7683Z" fill="#96624A"/>
<path fill-rule="evenodd" clip-rule="evenodd" d="M157.437 88.7688C162.25 85.2931 165.734 80.2825 167.314 74.5632C168.894 68.8439 168.475 62.7576 166.127 57.3079C163.674 51.6272 159.315 46.9781 153.801 44.1604C159.957 47.1426 164.851 52.2135 167.609 58.4674C170.367 64.7214 170.81 71.7512 168.859 78.3012C168.703 78.8062 168.538 79.2722 168.353 79.816C167.931 80.9812 167.431 82.1166 166.856 83.2146C167.481 82.0532 168.045 80.8605 168.548 79.6412C168.761 79.1266 168.956 78.612 169.15 78.0876C171.498 71.5037 171.906 64.3853 170.326 57.5768C168.746 50.7682 165.244 44.5551 160.236 39.6743C165.517 44.0314 169.534 49.7222 171.867 56.1549C174.201 62.5876 174.766 69.5273 173.505 76.2524L173.301 77.272C172.042 83.1094 169.436 88.5725 165.69 93.2257C164.504 92.4424 163.282 91.7045 162.025 91.0118L161.15 90.5457C159.935 89.9048 158.691 89.3125 157.417 88.759L157.437 88.7688Z" fill="#96624A"/>
<path fill-rule="evenodd" clip-rule="evenodd" d="M114.48 91.9538C114.799 92.4571 115.241 92.8717 115.763 93.159C116.286 93.4463 116.873 93.5969 117.469 93.5969C118.066 93.5969 118.653 93.4463 119.175 93.159C119.698 92.8717 120.139 92.4571 120.459 91.9538C121.436 90.2709 122.948 88.9621 124.755 88.2348C126.505 87.5842 127.399 86.8656 126.942 86.6035C124.064 84.9311 120.794 84.05 117.465 84.05C114.135 84.05 110.865 84.9311 107.987 86.6035C107.54 86.8656 108.434 87.5745 110.174 88.2348C111.987 88.9563 113.504 90.2663 114.48 91.9538Z" fill="#F58D74"/>
<path fill-rule="evenodd" clip-rule="evenodd" d="M114.237 85.3118C115.928 85.0593 117.377 85.3894 117.484 86.0594C117.59 86.7294 116.288 87.4674 114.567 87.7199C112.847 87.9723 111.418 87.6325 111.321 86.9722C111.223 86.3119 112.516 85.5642 114.237 85.3118Z" fill="#F7A18D"/>
<path fill-rule="evenodd" clip-rule="evenodd" d="M125.503 87.2539C122.743 88.3285 120.918 89.7623 120.031 91.5555C118.407 93.4975 116.551 93.6626 114.48 91.9633C114.799 92.4667 115.241 92.8812 115.763 93.1685C116.286 93.4558 116.873 93.6064 117.469 93.6064C118.066 93.6064 118.652 93.4558 119.175 93.1685C119.698 92.8812 120.139 92.4667 120.458 91.9633C121.436 90.2804 122.948 88.9716 124.755 88.2443C126.505 87.5937 127.399 86.8752 126.942 86.613C124.075 84.9143 120.798 84.0311 117.464 84.0592C122.364 84.8361 125.043 85.9009 125.503 87.2539Z" fill="#E38068"/>
<path fill-rule="evenodd" clip-rule="evenodd" d="M145.12 114.569C140.921 119.197 137.625 124.568 135.399 130.406C132.182 138.494 126.291 143.087 117.484 143.087C108.677 143.087 102.796 138.494 99.5781 130.406C97.3492 124.57 94.0528 119.2 89.8573 114.569L89.5657 114.258L90.1295 113.627L90.4697 113.879C98.5283 119.831 107.598 121.929 117.377 119.035H117.503H117.639C127.419 121.948 136.488 119.831 144.537 113.879L144.887 113.627L145.451 114.258L145.159 114.569H145.12Z" fill="#684D3D"/>
<path fill-rule="evenodd" clip-rule="evenodd" d="M134.943 130.24C137.198 124.357 140.535 118.946 144.78 114.287C137.159 119.918 127.963 122.618 117.464 119.511C106.976 122.618 97.7798 119.918 90.1587 114.287C94.4037 118.957 97.7399 124.377 99.9962 130.269C103.311 138.601 109.289 142.669 117.494 142.65C125.698 142.63 131.657 138.601 134.991 130.269L134.943 130.24Z" fill="#851619"/>
<path fill-rule="evenodd" clip-rule="evenodd" d="M134.943 130.241L135.147 129.746C133.096 127.289 129.45 126.211 126.349 126.318C124.582 126.331 122.845 126.781 121.295 127.628C119.744 128.475 118.428 129.693 117.464 131.173C116.501 129.695 115.187 128.478 113.638 127.63C112.09 126.783 110.355 126.332 108.589 126.318C105.488 126.211 101.843 127.289 99.792 129.746L99.9961 130.241C103.311 138.572 109.289 142.641 117.494 142.621C125.698 142.602 131.657 138.572 134.991 130.241H134.943Z" fill="#A51E22"/>
<path fill-rule="evenodd" clip-rule="evenodd" d="M117.465 132.095C113.576 124.861 103.457 125.774 99.967 130.241C100.367 131.264 100.835 132.26 101.367 133.222C104.847 139.543 110.31 142.631 117.435 142.621C124.561 142.611 130.072 139.543 133.514 133.222C134.046 132.26 134.513 131.264 134.913 130.241C131.579 125.939 122.053 124.939 117.892 131.338C118.191 131.939 118.426 132.571 118.592 133.222C118.871 134.374 118.912 135.57 118.713 136.739C118.514 137.907 118.08 139.023 117.435 140.019C118.451 137.894 118.615 135.462 117.892 133.222C117.767 132.836 117.614 132.459 117.435 132.095H117.465Z" fill="#EC2024"/>
<path fill-rule="evenodd" clip-rule="evenodd" d="M73.6917 110.403C76.7588 110.309 79.7263 109.294 82.2071 107.49C86.8925 112.84 92.4529 117.2 98.7908 119.511C104.796 121.702 111.355 121.869 117.465 119.987C123.577 121.869 130.139 121.702 136.148 119.511C142.486 117.21 148.046 112.84 152.732 107.49C155.212 109.295 158.18 110.31 161.247 110.403C158.164 109.753 155.272 108.401 152.797 106.452C150.322 104.504 148.331 102.011 146.977 99.1685C147.87 102.196 149.63 104.897 152.042 106.937C147.453 112.17 142.019 116.433 135.856 118.676C129.979 120.811 123.562 120.961 117.591 119.103H117.348C111.377 120.961 104.96 120.811 99.0824 118.676C92.9097 116.433 87.4855 112.17 82.8875 106.937C85.3014 104.897 87.0652 102.197 87.9618 99.1685C86.6082 102.011 84.6164 104.504 82.1414 106.452C79.6664 108.401 76.7749 109.753 73.6917 110.403Z" fill="#684D3D"/>
<path fill-rule="evenodd" clip-rule="evenodd" d="M94.3972 63.7939C97.1234 63.7939 99.7884 64.6015 102.055 66.1144C104.322 67.6274 106.089 69.7778 107.132 72.2937C108.175 74.8097 108.448 77.5782 107.916 80.2491C107.385 82.92 106.072 85.3734 104.144 87.2991C102.216 89.2247 99.7602 90.536 97.0863 91.0673C94.4125 91.5986 91.6409 91.3259 89.1222 90.2838C86.6035 89.2416 84.4507 87.4768 82.9361 85.2125C81.4215 82.9482 80.613 80.2862 80.613 77.5629C80.613 73.9112 82.0653 70.409 84.6503 67.8268C87.2353 65.2446 90.7414 63.7939 94.3972 63.7939Z" fill="white" stroke="#684D3D" stroke-width="0.5" stroke-miterlimit="2.61"/>
<path fill-rule="evenodd" clip-rule="evenodd" d="M94.397 66.989C96.4815 66.9871 98.5198 67.6028 100.254 68.7582C101.988 69.9136 103.34 71.5569 104.139 73.48C104.938 75.4032 105.148 77.5199 104.743 79.5623C104.337 81.6048 103.335 83.4812 101.861 84.9542C100.388 86.4273 98.5104 87.4307 96.4661 87.8376C94.4218 88.2446 92.3026 88.0367 90.3765 87.2403C88.4505 86.4439 86.8042 85.0948 85.6459 83.3636C84.4877 81.6324 83.8694 79.597 83.8694 77.5148C83.8681 76.133 84.1395 74.7645 84.668 73.4875C85.1964 72.2105 85.9717 71.0501 86.9494 70.0725C87.9271 69.095 89.0881 68.3195 90.366 67.7904C91.6439 67.2613 93.0137 66.989 94.397 66.989Z" fill="#F16722"/>
<path fill-rule="evenodd" clip-rule="evenodd" d="M94.397 70.0667C95.8717 70.0667 97.3132 70.5035 98.5393 71.3218C99.7654 72.1402 100.721 73.3034 101.285 74.6642C101.85 76.0251 101.997 77.5226 101.71 78.9673C101.422 80.412 100.712 81.739 99.6691 82.7806C98.6264 83.8222 97.2979 84.5315 95.8516 84.8189C94.4053 85.1063 92.9062 84.9588 91.5438 84.3951C90.1814 83.8314 89.017 82.8768 88.1977 81.6521C87.3785 80.4273 86.9412 78.9874 86.9412 77.5143C86.9399 76.5359 87.1319 75.5669 87.5061 74.6627C87.8803 73.7586 88.4295 72.937 89.1221 72.2452C89.8147 71.5533 90.6371 71.0048 91.5423 70.631C92.4474 70.2572 93.4175 70.0654 94.397 70.0667Z" fill="black"/>
<path fill-rule="evenodd" clip-rule="evenodd" d="M90.1101 70.0667C90.7369 70.0667 91.3496 70.2523 91.8707 70.6001C92.3919 70.948 92.7981 71.4423 93.0379 72.0208C93.2778 72.5992 93.3405 73.2357 93.2182 73.8497C93.0959 74.4638 92.7941 75.0278 92.3509 75.4705C91.9078 75.9132 91.3431 76.2147 90.7284 76.3368C90.1137 76.459 89.4765 76.3963 88.8974 76.1567C88.3184 75.9171 87.8234 75.5114 87.4752 74.9908C87.127 74.4703 86.9412 73.8582 86.9412 73.2322C86.9412 72.3926 87.275 71.5875 87.8693 70.9938C88.4636 70.4002 89.2697 70.0667 90.1101 70.0667Z" fill="white"/>
<path fill-rule="evenodd" clip-rule="evenodd" d="M99.8502 80.9519C100.249 80.95 100.639 81.0665 100.972 81.2866C101.304 81.5067 101.564 81.8205 101.717 82.1882C101.871 82.5559 101.911 82.9608 101.834 83.3516C101.757 83.7424 101.565 84.1015 101.283 84.3832C101.001 84.6648 100.641 84.8565 100.25 84.9337C99.8588 85.011 99.4534 84.9703 99.0853 84.817C98.7172 84.6637 98.4031 84.4046 98.1827 84.0725C97.9624 83.7405 97.8458 83.3506 97.8477 82.9522C97.8477 82.4217 98.0587 81.9129 98.4342 81.5378C98.8097 81.1626 99.3191 80.9519 99.8502 80.9519Z" fill="white"/>
<path fill-rule="evenodd" clip-rule="evenodd" d="M84.9192 91.235C85.6024 93.2023 86.8823 94.9082 88.5808 96.1155C90.2794 97.3228 92.3123 97.9716 94.397 97.9716C96.4817 97.9716 98.5146 97.3228 100.213 96.1155C101.912 94.9082 103.192 93.2023 103.875 91.235C100.941 89.7366 97.6923 88.9553 94.397 88.9553C91.1016 88.9553 87.8534 89.7366 84.9192 91.235Z" fill="#FDCC98"/>
<path fill-rule="evenodd" clip-rule="evenodd" d="M103.875 91.235C100.941 89.7366 97.6923 88.9553 94.397 88.9553C91.1016 88.9553 87.8534 89.7366 84.9192 91.235C91.141 89.673 97.653 89.673 103.875 91.235Z" fill="#684D3D"/>
<path fill-rule="evenodd" clip-rule="evenodd" d="M140.542 63.7939C143.268 63.7939 145.933 64.6015 148.2 66.1144C150.467 67.6274 152.233 69.7778 153.277 72.2937C154.32 74.8097 154.593 77.5782 154.061 80.2491C153.529 82.92 152.216 85.3734 150.289 87.2991C148.361 89.2247 145.905 90.536 143.231 91.0673C140.557 91.5986 137.785 91.3259 135.267 90.2838C132.748 89.2416 130.595 87.4768 129.081 85.2125C127.566 82.9482 126.758 80.2862 126.758 77.5629C126.758 73.9112 128.21 70.409 130.795 67.8268C133.38 65.2446 136.886 63.7939 140.542 63.7939Z" fill="white" stroke="#684D3D" stroke-width="0.5" stroke-miterlimit="2.61"/>
<path fill-rule="evenodd" clip-rule="evenodd" d="M140.542 66.989C142.626 66.989 144.663 67.6063 146.396 68.7629C148.129 69.9195 149.479 71.5634 150.277 73.4868C151.075 75.4101 151.283 77.5265 150.877 79.5683C150.47 81.6101 149.466 83.4856 147.993 84.9577C146.519 86.4297 144.642 87.4322 142.598 87.8383C140.553 88.2445 138.435 88.036 136.509 87.2394C134.584 86.4427 132.938 85.0936 131.78 83.3626C130.622 81.6316 130.004 79.5966 130.004 77.5148C130.003 76.1322 130.275 74.7629 130.804 73.4852C131.333 72.2076 132.109 71.0468 133.088 70.0691C134.067 69.0914 135.229 68.3161 136.508 67.7876C137.787 67.2591 139.158 66.9877 140.542 66.989Z" fill="#F16722"/>
<path fill-rule="evenodd" clip-rule="evenodd" d="M140.541 70.0667C142.016 70.0667 143.457 70.5035 144.684 71.3218C145.91 72.1402 146.865 73.3034 147.43 74.6642C147.994 76.0251 148.142 77.5226 147.854 78.9673C147.566 80.412 146.856 81.739 145.813 82.7806C144.771 83.8222 143.442 84.5315 141.996 84.8189C140.55 85.1063 139.05 84.9588 137.688 84.3951C136.326 83.8314 135.161 82.8768 134.342 81.652C133.523 80.4273 133.085 78.9873 133.085 77.5143C133.085 75.5391 133.871 73.6447 135.269 72.248C136.667 70.8513 138.564 70.0667 140.541 70.0667Z" fill="black"/>
<path fill-rule="evenodd" clip-rule="evenodd" d="M136.254 70.0667C136.881 70.0667 137.494 70.2523 138.015 70.6001C138.536 70.948 138.942 71.4423 139.182 72.0208C139.422 72.5992 139.485 73.2357 139.363 73.8497C139.24 74.4638 138.938 75.0278 138.495 75.4705C138.052 75.9132 137.487 76.2147 136.873 76.3368C136.258 76.459 135.621 76.3963 135.042 76.1567C134.463 75.9171 133.968 75.5114 133.62 74.9908C133.271 74.4703 133.085 73.8582 133.085 73.2322C133.085 72.3926 133.419 71.5875 134.014 70.9938C134.608 70.4002 135.414 70.0667 136.254 70.0667Z" fill="white"/>
<path fill-rule="evenodd" clip-rule="evenodd" d="M145.995 80.9519C146.394 80.9519 146.783 81.0701 147.114 81.2913C147.445 81.5126 147.703 81.8271 147.855 82.195C148.007 82.5628 148.046 82.9675 147.968 83.3576C147.889 83.7478 147.697 84.1059 147.415 84.3866C147.132 84.6673 146.773 84.858 146.382 84.9344C145.991 85.0109 145.586 84.9697 145.218 84.8161C144.851 84.6625 144.537 84.4034 144.317 84.0715C144.097 83.7397 143.981 83.3502 143.983 82.9522C143.983 82.6887 144.035 82.4278 144.136 82.1845C144.238 81.9412 144.386 81.7202 144.573 81.5343C144.76 81.3485 144.982 81.2013 145.226 81.1014C145.47 81.0014 145.731 80.9506 145.995 80.9519Z" fill="white"/>
<path fill-rule="evenodd" clip-rule="evenodd" d="M131.064 91.235C131.747 93.2023 133.027 94.9082 134.726 96.1155C136.424 97.3228 138.457 97.9716 140.542 97.9716C142.626 97.9716 144.659 97.3228 146.358 96.1155C148.056 94.9082 149.336 93.2023 150.02 91.235C147.085 89.7366 143.837 88.9553 140.542 88.9553C137.246 88.9553 133.998 89.7366 131.064 91.235Z" fill="#FDCC98"/>
<path fill-rule="evenodd" clip-rule="evenodd" d="M150.02 91.235C147.085 89.7366 143.837 88.9553 140.542 88.9553C137.246 88.9553 133.998 89.7366 131.064 91.235C137.286 89.673 143.798 89.673 150.02 91.235Z" fill="#684D3D"/>
<path fill-rule="evenodd" clip-rule="evenodd" d="M97.1089 133.221C100.997 142.932 107.948 147.66 117.464 147.641C126.981 147.622 133.99 142.932 137.82 133.221C136.161 137.252 133.34 140.7 129.716 143.126C126.092 145.552 121.827 146.847 117.464 146.847C113.101 146.847 108.837 145.552 105.213 143.126C101.588 140.7 98.7676 137.252 97.1089 133.221Z" fill="#684D3D"/>
<path fill-rule="evenodd" clip-rule="evenodd" d="M117.464 116.84C119.194 113.418 120.096 109.638 120.096 105.805C120.096 101.971 119.194 98.1912 117.464 94.7693C119.637 101.966 119.637 109.643 117.464 116.84Z" fill="#684D3D"/>
<path fill-rule="evenodd" clip-rule="evenodd" d="M117.348 119.064C103.525 121.093 90.1295 114.005 84.0248 105.858C83.6651 106.217 83.286 106.567 82.8875 106.897C87.4854 112.131 92.9096 116.394 99.0824 118.637C104.96 120.772 111.377 120.922 117.348 119.064Z" fill="#E4B887"/>
<path fill-rule="evenodd" clip-rule="evenodd" d="M150.467 107.121C146.43 111.675 141.325 115.157 135.609 117.255C129.893 119.354 123.746 120.002 117.717 119.142C123.651 120.971 130.022 120.811 135.856 118.685C142.019 116.442 147.453 112.18 152.042 106.946C149.63 104.906 147.87 102.205 146.977 99.1777C147.565 102.06 148.754 104.786 150.467 107.179V107.121Z" fill="#E4B887"/>
<path fill-rule="evenodd" clip-rule="evenodd" d="M97.1089 133.221C98.7676 137.252 101.588 140.7 105.213 143.126C108.837 145.552 113.101 146.847 117.464 146.847C121.827 146.847 126.092 145.552 129.716 143.126C133.34 140.7 136.161 137.252 137.82 133.221C135.826 136.875 132.883 139.924 129.301 142.049C125.719 144.173 121.63 145.294 117.464 145.294C113.298 145.294 109.21 144.173 105.628 142.049C102.046 139.924 99.103 136.875 97.1089 133.221Z" fill="#E4B887"/>
</g>
</svg>
