<svg width="235" height="211" viewBox="0 0 235 211" fill="none" xmlns="http://www.w3.org/2000/svg">
<mask id="mask0_9:385" style="mask-type:alpha" maskUnits="userSpaceOnUse" x="0" y="0" width="235" height="211">
<path d="M235 117.5C235 134.018 203.652 142.739 197.5 157C179.483 198.766 152 211 118 211C87.5 211 75.0056 203.426 54 171.5C41.8179 152.985 0 141.32 0 117.5C0 52.6065 52.6065 0 117.5 0C182.393 0 235 52.6065 235 117.5Z" fill="#C4C4C4"/>
</mask>
<g mask="url(#mask0_9:385)">
<path fill-rule="evenodd" clip-rule="evenodd" d="M119.633 99.2526V97.8435L120.927 98.3693C122.263 98.9266 123.599 99.4734 124.957 99.9887L125.619 100.241L126.293 100.493C140.432 105.656 156.045 106.803 169.995 100.325L171.479 99.6416V100.241C174.445 99.5907 177.545 99.9888 180.25 101.368C182.955 102.746 185.098 105.02 186.313 107.802L186.46 108.138L186.344 108.485C184.177 115.373 176.213 117.276 169.869 117.844H169.617C169.417 119.127 169.196 120.409 168.975 121.682C171.641 121.575 174.276 122.281 176.531 123.707C178.786 125.132 180.554 127.21 181.6 129.663L181.736 130L181.631 130.357C179.39 137.171 171.468 139.011 165.135 139.526C164.914 140.399 164.704 141.282 164.472 142.155C164.241 143.028 164.072 143.817 163.904 144.647C166.546 144.11 169.289 144.399 171.761 145.475C174.232 146.551 176.312 148.362 177.718 150.662L177.907 150.978L177.844 151.335C176.687 158.139 169.648 161.167 163.609 162.66C164.081 164.925 164.786 167.134 165.713 169.253C167.627 167.514 170.015 166.382 172.573 166C175.132 165.618 177.746 166.004 180.085 167.108L180.421 167.255L180.569 167.602C183.399 173.975 179.022 180.547 174.772 185.132C175.529 186.562 176.276 188.023 176.992 189.495C178.86 188.28 181.007 187.559 183.23 187.403C185.454 187.247 187.681 187.659 189.701 188.602L190.037 188.749L190.185 189.096C193.099 195.647 188.385 202.408 184.03 206.972C183.883 207.13 183.735 207.277 183.578 207.424C184.154 209.894 184.544 212.404 184.745 214.932C187.362 210.742 189.118 206.074 189.911 201.199C192.152 188.823 197.275 177.676 207.565 170.042C208.28 169.516 209.006 168.991 209.753 168.528C211.343 167.472 213.134 166.756 215.013 166.425L215.539 166.33L215.781 166.109L215.929 165.983H216.128C217.243 165.782 218.393 165.929 219.421 166.404C219.748 166.456 220.063 166.53 220.379 166.604C222.717 167.146 224.93 168.127 226.902 169.495C232.751 173.449 237.096 180.2 239.032 186.919L240.031 190.389L237.412 187.908C233.445 184.154 226.47 179.043 220.758 182.145C215.424 185.037 214.445 193.06 214.982 198.444C215.339 202.437 215.413 206.45 215.203 210.453C214.986 215.064 214.462 219.655 213.635 224.196C213.024 227.894 212.059 231.525 210.752 235.038C205.839 247.467 196.77 255.543 183.241 256.636C180.221 256.878 177.192 257.109 174.172 257.33C176.402 259.433 178.528 262.293 178.212 265.259C178.114 266.168 177.792 267.038 177.276 267.793C175.698 270.138 172.531 270.948 169.911 271.263C166.256 271.645 162.582 271.828 158.907 271.81C149.322 272.062 135.919 273.103 127.345 277.688C127.102 277.843 126.823 277.932 126.535 277.947C126.247 277.962 125.961 277.901 125.703 277.772C124.01 276.847 125.209 273.755 125.798 272.514C126.472 271.136 127.309 269.844 128.292 268.666C125.535 269.938 122.81 271.642 121.411 273.923C121.275 274.137 121.071 274.3 120.832 274.386C119.896 274.723 119.202 273.797 118.865 273.072C118.481 272.205 118.291 271.265 118.307 270.317C118.332 269.023 118.694 267.757 119.36 266.647C117.719 267.729 116.509 269.351 115.94 271.232C115.886 271.481 115.756 271.709 115.568 271.882C115.379 272.055 115.142 272.166 114.888 272.199C113.752 272.294 113.415 270.906 113.31 270.096C113.19 268.897 113.304 267.686 113.647 266.531C113.825 265.904 114.061 265.295 114.352 264.712C111.679 264.891 108.944 264.891 106.324 264.964C96.7401 265.217 83.3368 266.258 74.7625 270.842C74.516 270.994 74.2351 271.08 73.9462 271.093C73.6572 271.106 73.3697 271.045 73.1107 270.916C71.4274 270.001 72.6268 266.91 73.216 265.658C73.8845 264.277 74.722 262.984 75.7093 261.81C72.9529 263.082 70.2281 264.775 68.8288 267.067C68.6925 267.281 68.489 267.444 68.2502 267.53C67.3034 267.877 66.6195 266.952 66.2829 266.216C65.899 265.352 65.7087 264.416 65.7253 263.471C65.7469 262.177 66.1098 260.911 66.7773 259.801C65.1389 260.881 63.9295 262.499 63.3581 264.375C63.3044 264.627 63.1746 264.855 62.9864 265.03C62.7982 265.205 62.5606 265.318 62.3061 265.353C61.1698 265.438 60.8332 264.049 60.728 263.198C60.6077 262.002 60.7221 260.795 61.0646 259.644C62.1167 255.753 65.2729 253.156 68.9235 251.673C74.1932 249.436 79.774 248.018 85.4725 247.467C77.7819 243.208 68.1976 235.9 71.9324 226.667C74.0366 221.494 78.3395 217.414 82.7582 214.154C83.1703 206.585 84.2582 199.068 86.0091 191.693C88.5253 180.961 91.7948 170.42 95.7933 160.147C98.1183 154.048 100.78 148.096 103.61 142.218C106.103 137.024 108.723 131.882 111.217 126.687C115.288 118.18 119.349 108.874 119.843 99.3472L119.633 99.2526Z" fill="#1D2815"/>
<path fill-rule="evenodd" clip-rule="evenodd" d="M171.489 101.282L171.174 101.65C170.9 106.645 170.332 111.692 169.564 116.729L169.838 116.887C178.689 116.102 183.9 113.21 185.471 108.212C184.331 105.596 182.303 103.466 179.745 102.198C177.187 100.931 174.263 100.606 171.489 101.282ZM183.062 206.436L183.357 206.373C189.459 199.93 191.451 194.322 189.332 189.548C187.399 188.64 185.259 188.259 183.131 188.444C181.003 188.629 178.961 189.372 177.213 190.6C179.673 195.672 181.633 200.972 183.062 206.425V206.436ZM174.046 184.469C179.874 178.16 181.747 172.674 179.664 168.013C177.401 166.96 174.869 166.63 172.412 167.068C169.955 167.507 167.693 168.692 165.934 170.463C166.52 171.711 167.188 172.92 167.933 174.08C169.964 177.298 172.057 180.789 174.046 184.469ZM163.178 161.851C171.475 159.846 176.059 156.316 176.929 151.262C175.565 149.022 173.51 147.286 171.074 146.315C168.637 145.344 165.951 145.19 163.42 145.878C162.369 151.143 162.287 156.556 163.178 161.851ZM165.114 138.622C173.909 137.921 179.12 135.089 180.748 130.126C179.752 127.768 178.035 125.785 175.843 124.463C173.65 123.14 171.095 122.546 168.544 122.765C167.555 128.107 166.376 133.417 165.114 138.612V138.622Z" fill="#395024"/>
<path fill-rule="evenodd" clip-rule="evenodd" d="M171.1 102.87C170.805 107.465 170.269 112.102 169.564 116.729L169.838 116.887C170.679 116.813 171.479 116.719 172.257 116.603C172.959 112.018 173.443 107.682 173.709 103.596C178.198 103.07 182.119 104.608 185.471 108.212C184.331 105.596 182.303 103.466 179.745 102.198C177.187 100.931 174.263 100.606 171.489 101.282L171.174 101.65C171.174 102.06 171.174 102.46 171.1 102.87ZM184.977 204.501C183.415 199.349 181.409 194.342 178.98 189.538C178.348 189.837 177.743 190.189 177.17 190.589C179.631 195.661 181.59 200.962 183.02 206.415L183.315 206.352C183.904 205.721 184.461 205.111 184.977 204.501ZM175.456 182.881C174.004 180.309 172.412 177.652 170.679 174.911C169.491 173.042 168.487 171.063 167.681 169.001C167.055 169.426 166.474 169.912 165.945 170.452C166.531 171.701 167.199 172.909 167.944 174.07C169.974 177.287 172.068 180.778 174.056 184.459C174.551 183.922 175.014 183.407 175.456 182.881ZM165.629 161.146C164.925 155.892 165.131 150.557 166.239 145.373C165.297 145.405 164.361 145.546 163.452 145.794C162.4 151.059 162.318 156.472 163.21 161.767C164.051 161.567 164.861 161.346 165.629 161.104V161.146ZM167.944 138.265C169.248 132.853 170.35 127.697 171.247 122.797C170.361 122.681 169.466 122.659 168.575 122.733C167.586 128.075 166.408 133.386 165.145 138.58C166.124 138.507 167.06 138.401 167.944 138.265Z" fill="#2F401C"/>
<path fill-rule="evenodd" clip-rule="evenodd" d="M209.742 180.326C209.445 180.785 209.178 181.263 208.943 181.756C208.459 182.671 207.986 183.596 207.512 184.522C206.807 185.92 205.997 187.414 205.408 188.844L205.177 189.369L204.556 189.191C200.926 188.328 199.443 184.196 199.706 180.778V180.579L199.832 180.421C202.315 177.108 206.144 177.655 209.448 179.201L210.237 179.559L209.7 180.242L209.742 180.326ZM190.879 201.42C190.02 206.864 187.957 212.047 184.84 216.594C184.84 217.004 184.84 217.414 184.84 217.834C184.924 229.286 180.032 238.14 171.048 245.017C170.438 246.246 169.996 247.551 169.732 248.897C181.81 251.084 194.182 250.317 204.335 242.83L206.534 241.21C207.792 239.133 208.869 236.952 209.753 234.691C212.846 226.867 215.129 211.105 213.961 198.56C212.509 183.575 222.378 172.377 238.043 187.214C236.023 180.2 231.583 173.901 226.302 170.337C224.77 169.28 223.09 168.458 221.315 167.897C222.225 168.961 222.937 170.179 223.419 171.493L223.745 172.334L222.841 172.419C219.896 172.805 217.055 173.763 214.477 175.237L213.888 175.668L213.498 175.047C211.983 172.65 212.804 169.79 214.424 167.603C212.953 167.954 211.553 168.559 210.29 169.39C209.553 169.863 208.848 170.358 208.185 170.873C198.948 177.739 193.341 187.96 190.911 201.367L190.879 201.42ZM193.488 226.573C188.954 226.278 186.355 221.62 185.987 217.53V217.33L186.071 217.151C188.375 212.671 193.025 212.598 197.36 213.755L197.696 213.839L197.812 214.165C198.706 216.489 195.582 223.975 194.288 226.121L194.224 226.226L193.772 226.594H193.509L193.488 226.573ZM199.274 207.151C195.014 206.877 192.352 202.461 191.994 198.57V198.371L192.089 198.192C194.246 193.986 198.591 193.88 202.662 194.953L203.356 195.142L203.135 195.826C202.567 197.529 202.147 199.485 201.673 201.231C201.368 202.377 201.052 203.523 200.716 204.648C200.526 205.395 200.261 206.12 199.927 206.814L199.716 207.182H199.295L199.274 207.151Z" fill="#72A542"/>
<path fill-rule="evenodd" clip-rule="evenodd" d="M170.3 244.365C179.18 237.645 183.977 229.033 183.883 217.834C183.798 206.352 178.57 192.145 167.365 174.448C161.621 165.384 160.422 154.469 163.578 141.956C167.533 126.277 169.89 112.723 170.511 101.24C164.42 104.03 157.829 105.568 151.132 105.762C151.805 114.857 149.228 122.839 146.682 131.388C145.093 136.75 145.871 143.627 146.818 149.043C148.519 157.842 150.739 166.532 153.467 175.068C155.003 180.147 152.741 188.265 150.974 193.102C149.541 197.166 147.638 201.048 145.303 204.669C144.133 206.414 143.078 208.233 142.147 210.116L141.895 210.621C140.666 213.171 139.663 215.824 138.896 218.55C139.412 218.255 139.948 217.982 140.485 217.719C142.597 216.809 144.842 216.248 147.134 216.057C144.183 216.943 141.355 218.197 138.717 219.79L138.591 219.864L138.349 220.011L137.928 220.274L137.613 220.484L137.413 220.621L136.897 220.968L136.455 221.273L136.277 221.41C131.132 225.122 127.239 229.138 125.367 233.797C122.516 240.884 127.923 247.856 139.822 254.102C147.45 253.713 155.13 255.154 159.548 258.308C147.86 252.756 133.625 254.523 121.811 259.36C111.648 263.492 114.373 272.851 114.951 270.927C116.003 267.541 118.739 264.933 124.336 263.356C116.403 267.698 120.033 274.207 120.548 273.377C122.547 270.222 126.861 267.94 132.468 265.963C125.693 271.347 124.609 278.045 126.861 276.847C133.499 273.314 144.104 271.242 158.896 270.853C166.902 270.643 174.109 270.853 176.497 267.267C178.717 263.965 176.076 259.906 171.773 256.531C170.336 255.514 169.255 254.073 168.68 252.409C168.46 249.618 169.044 246.823 170.364 244.354L170.3 244.365Z" fill="#72A542"/>
<path fill-rule="evenodd" clip-rule="evenodd" d="M137.676 219.307C138.436 216.393 139.453 213.554 140.716 210.821C121.827 213.616 102.603 213.229 83.8418 209.675C82.9792 219.138 83.5157 227.246 85.3673 233.965C98.1033 236.139 111.087 236.461 123.915 234.922C124.047 234.441 124.205 233.967 124.388 233.502C126.493 228.171 131.059 223.986 135.635 220.684C136.287 220.211 136.971 219.748 137.676 219.307ZM205.008 243.639C195.834 250.404 184.048 252.483 169.648 249.875C169.574 250.658 169.574 251.447 169.648 252.23C170.192 253.654 171.143 254.887 172.384 255.774L173.194 256.447C176.676 256.195 180.043 255.932 183.209 255.679C187.518 255.434 191.716 254.225 195.495 252.141C199.273 250.057 202.535 247.152 205.04 243.639H205.008ZM141.243 209.79C142.208 207.838 143.301 205.952 144.514 204.143C147.789 198.944 150.238 193.268 151.774 187.319C130.7 188.732 109.533 187.652 88.7129 184.101C86.454 192.151 84.8634 200.374 83.9576 208.686C102.856 212.272 122.225 212.627 141.243 209.738V209.79ZM151.953 186.404C153.005 182.093 153.32 178.076 152.5 175.352C150.858 169.926 149.417 164.837 148.218 160.189C139.745 160.491 131.269 160.47 122.789 160.126C114.31 159.783 105.841 159.103 97.3819 158.086C97.0768 158.854 96.7717 159.632 96.4771 160.41C93.3911 168.486 90.8661 176.092 88.9023 183.228C109.721 186.758 130.885 187.817 151.953 186.383V186.404ZM147.986 159.253C145.777 150.389 144.535 142.933 144.83 136.992C138.644 137.357 132.447 137.437 126.24 137.234C120.022 137.024 113.805 136.519 107.629 135.72C104.389 142.26 100.948 149.316 97.7712 157.182C106.125 158.17 114.488 158.84 122.863 159.19C131.237 159.541 139.622 159.562 148.018 159.253H147.986ZM144.83 136.046C144.939 134.377 145.225 132.723 145.682 131.114C147.247 126.367 148.533 121.532 149.533 116.635C144.919 117.29 140.246 117.42 135.603 117.024C129.461 116.543 123.359 115.643 117.34 114.332C114.634 121.33 111.54 128.173 108.071 134.826C114.11 135.594 120.191 136.088 126.272 136.288C132.353 136.488 138.675 136.424 144.883 136.046H144.83ZM149.649 115.646C150.177 112.386 150.329 109.077 150.101 105.783C141.371 105.81 132.717 104.161 124.609 100.925C123.2 100.378 121.863 99.873 120.559 99.2947C120.268 104.137 119.29 108.913 117.655 113.48C123.594 114.759 129.611 115.644 135.667 116.13C140.346 116.534 145.056 116.385 149.701 115.688L149.649 115.646ZM85.6724 234.975C89.281 246.93 97.2451 254.27 109.144 256.626C113.61 257.418 118.129 257.882 122.663 258.014C127.549 256.049 132.695 254.802 137.939 254.312C130.922 250.422 122.337 244.018 123.715 235.9C111.054 237.388 98.246 237.077 85.6724 234.975Z" fill="#ADC941"/>
<path fill-rule="evenodd" clip-rule="evenodd" d="M137.676 219.307C138.436 216.393 139.453 213.554 140.716 210.821L139.012 211.062C137.993 213.509 137.105 216.009 136.35 218.549C129.872 221.575 124.396 226.392 120.569 232.43C103.947 234.491 92.7773 234.41 87.061 232.188C84.5987 224.948 83.507 217.314 83.8417 209.674C83.0743 216.742 83.3401 223.883 84.6308 230.873C84.8517 231.925 85.0937 232.976 85.3672 233.965C98.1032 236.138 111.087 236.461 123.915 234.922C124.047 234.441 124.205 233.967 124.388 233.502C126.492 228.171 131.058 223.986 135.635 220.684C136.287 220.211 136.971 219.748 137.676 219.307ZM205.008 243.639C195.834 250.404 184.047 252.483 169.648 249.875C169.574 250.658 169.574 251.447 169.648 252.23C170.192 253.654 171.143 254.887 172.383 255.774L173.194 256.447C176.676 256.194 180.043 255.932 183.209 255.679C187.518 255.434 191.716 254.225 195.495 252.141C199.273 250.057 202.535 247.152 205.04 243.639H205.008ZM146.019 150.052C146.545 152.933 147.229 156.014 148.049 159.295H147.323C146.601 156.254 146.165 153.153 146.019 150.031V150.052ZM139.485 210.095C140.246 208.357 141.121 206.67 142.105 205.048C145.766 199.064 148.828 193.228 150.522 187.487L151.774 187.403C150.238 193.352 147.789 199.028 144.514 204.227C143.301 206.036 142.208 207.922 141.242 209.874L139.485 210.137V210.095ZM150.795 186.52C151.337 184.478 151.689 182.39 151.847 180.284C152.257 174.721 149.385 168.013 147.502 160.252H148.239C149.438 164.932 150.879 169.989 152.521 175.415C153.341 178.139 153.004 182.156 151.973 186.467L150.753 186.541L150.795 186.52ZM85.6723 234.974C89.2809 246.93 97.245 254.27 109.144 256.626C113.61 257.418 118.129 257.882 122.663 258.014C127.549 256.049 132.695 254.802 137.939 254.312C130.922 250.421 122.337 244.018 123.715 235.9C111.054 237.388 98.2459 237.077 85.6723 234.974Z" fill="#9CB63D"/>
<path fill-rule="evenodd" clip-rule="evenodd" d="M157.265 149.232C155.624 160.725 161.221 173.628 166.566 182.797L166.229 182.219C175.876 204.648 175.634 222.367 165.819 235.626C161.147 241.936 161.179 249.065 165.398 256.657C170.321 262.809 165.535 268.708 160.348 268.519C150.185 268.151 139.791 271.053 128.628 274.996C126.293 275.816 128.249 271.431 134.941 264.744C130.248 265.027 125.693 267.288 121.011 271.253C119.644 272.409 120.191 265.658 127.566 262.262C123.303 262.107 119.127 263.492 115.804 266.163C119.465 257.888 143.157 252.493 159.527 258.445C147.839 252.893 133.604 254.659 121.79 259.496C111.627 263.629 114.352 272.988 114.93 271.063C115.982 267.677 118.718 265.07 124.315 263.492C116.382 267.835 120.012 274.344 120.527 273.513C122.526 270.359 126.84 268.077 132.447 266.1C125.672 271.484 124.588 278.182 126.84 276.983C133.478 273.45 144.083 271.379 158.875 270.99C166.881 270.779 174.088 270.99 176.476 267.404C178.696 264.102 176.055 260.043 171.752 256.668C170.315 255.651 169.234 254.209 168.659 252.546C168.439 249.755 169.023 246.96 170.343 244.491C179.222 237.772 184.019 229.16 183.925 217.961C183.841 206.478 178.612 192.272 167.407 174.574C161.663 165.51 160.464 154.595 163.62 142.082C167.576 126.403 169.932 112.849 170.553 101.366C167.901 102.591 165.144 103.573 162.315 104.3C164.483 116.656 160.285 128.58 157.307 149.327L157.265 149.232Z" fill="#5E863B"/>
<path fill-rule="evenodd" clip-rule="evenodd" d="M141.264 206.394C126.654 208.034 108.965 207.757 88.1974 205.563C87.5703 198.445 88.0458 191.274 89.6072 184.301L88.6813 184.143C86.7617 191.048 85.3101 198.074 84.3363 205.174C84.1785 206.394 84.0418 207.582 83.926 208.76C102.238 212.236 120.997 212.683 139.454 210.085C140.043 208.749 140.653 207.529 141.264 206.425V206.394ZM144.988 134.889C131.304 136.067 119.794 135.324 110.459 132.66C113.25 126.745 115.551 120.612 117.34 114.321C114.634 121.32 111.54 128.162 108.071 134.816C114.11 135.583 120.191 136.077 126.272 136.277C132.353 136.477 138.676 136.414 144.883 136.035C144.883 135.646 144.946 135.268 144.988 134.889ZM146.966 157.76C131.203 158.628 115.393 157.923 99.7701 155.657C101.94 148.829 104.566 142.155 107.629 135.678C104.389 142.218 100.948 149.274 97.7712 157.14C106.125 158.128 114.489 158.798 122.863 159.148C130.992 159.485 139.135 159.513 147.292 159.232C147.176 158.738 147.071 158.233 146.966 157.729V157.76ZM92.8896 180.179C93.4093 172.65 94.9307 165.224 97.4135 158.097L96.5087 160.42C93.9206 167.213 91.7218 173.673 89.9123 179.8C89.5756 180.957 89.2495 182.103 88.9339 183.239C109.349 186.709 130.097 187.8 150.764 186.488C151.1 185.256 151.367 184.006 151.563 182.745C135.123 184.034 115.565 183.186 92.8896 180.2V180.179Z" fill="#9CB63D"/>
<path fill-rule="evenodd" clip-rule="evenodd" d="M119.107 112.165C120.226 109.187 120.933 106.071 121.211 102.901C129.628 105.94 140.769 108.096 149.701 107.549C149.806 110.252 149.806 112.954 149.701 115.646C150.229 112.386 150.381 109.077 150.154 105.783C141.424 105.809 132.77 104.16 124.662 100.925C123.252 100.378 121.916 99.873 120.612 99.2947C120.304 104.139 119.308 108.915 117.655 113.48C123.594 114.759 129.611 115.644 135.667 116.13C138.411 116.328 141.165 116.377 143.915 116.277C135.499 116.054 127.153 114.685 119.107 112.208V112.165Z" fill="#9CB63D"/>
<path fill-rule="evenodd" clip-rule="evenodd" d="M152.437 107.476C155.849 107.381 159.244 106.941 162.568 106.161C162.494 105.499 162.4 104.836 162.273 104.174C158.629 105.11 154.893 105.643 151.132 105.762C151.7 113.438 149.954 120.304 147.871 127.402C150.396 123.312 152.131 116.414 152.437 107.476Z" fill="#5E863B"/>
<path fill-rule="evenodd" clip-rule="evenodd" d="M162.273 104.174C162.399 104.836 162.494 105.499 162.568 106.161C165.294 105.526 167.926 104.536 170.395 103.217C170.395 102.554 170.479 101.892 170.511 101.24C167.859 102.464 165.102 103.446 162.273 104.174Z" fill="#4D6E33"/>
<path fill-rule="evenodd" clip-rule="evenodd" d="M88.9338 214.06C87.9229 219.609 87.7103 225.274 88.3026 230.884C86.9476 224.718 86.6805 218.362 87.5135 212.104C95.6687 213.92 104.065 214.399 112.374 213.523C104.682 215.321 96.7022 215.511 88.9338 214.081V214.06ZM124.399 105.572C123.858 107.842 122.836 109.968 121.401 111.808C122.605 109.454 123.381 106.905 123.694 104.279C127.693 105.735 131.827 106.792 136.035 107.434C132.074 107.538 128.129 106.907 124.399 105.572ZM120.391 117.602C118.894 122.234 116.538 126.543 113.447 130.305C115.899 125.76 117.806 120.942 119.128 115.951C123.31 117.099 127.627 117.682 131.963 117.686C128.139 118.432 124.204 118.403 120.391 117.602ZM109.449 138.717C106.275 143.574 103.63 148.756 101.559 154.175C102.885 148.079 105.263 142.262 108.586 136.982C113.7 137.794 118.876 138.146 124.052 138.033C119.219 138.741 114.328 138.977 109.449 138.738V138.717ZM100.065 160.957C97.9941 166.386 96.3823 171.978 95.2462 177.676C95.4757 171.372 96.7007 165.144 98.8758 159.222C106.328 160.736 113.923 161.441 121.527 161.325C114.395 162.291 107.156 162.157 100.065 160.925V160.957ZM93.3525 187.855C91.0826 192.889 90.082 198.402 90.4383 203.912C89.2411 197.937 89.7329 191.747 91.8586 186.036C99.4133 187.743 107.16 188.45 114.899 188.139C107.764 189.393 100.459 189.314 93.3525 187.908V187.855Z" fill="#C2D75D"/>
<path fill-rule="evenodd" clip-rule="evenodd" d="M140.727 215.952C142.734 211.667 145.081 207.55 147.744 203.639C153.762 194.385 156.487 183.365 153.636 175.868C154.688 180.957 152.584 188.486 150.932 193.102C149.499 197.166 147.596 201.048 145.261 204.669C144.091 206.414 143.036 208.233 142.105 210.116L141.853 210.621C140.624 213.172 139.621 215.825 138.854 218.55C139.37 218.255 139.906 217.982 140.443 217.719C142.555 216.809 144.8 216.248 147.092 216.057C144.983 215.611 142.809 215.568 140.685 215.931L140.727 215.952Z" fill="#5E863B"/>
<path fill-rule="evenodd" clip-rule="evenodd" d="M181.284 242.524C184.672 236.713 186.527 229.563 186.849 221.073C186.388 219.941 186.098 218.747 185.987 217.529V217.33L186.071 217.151C186.56 216.169 187.26 215.307 188.122 214.627C190.052 210.15 191.494 205.479 192.425 200.694C192.221 200.008 192.084 199.304 192.015 198.591V198.392L192.11 198.213C192.426 197.576 192.837 196.991 193.33 196.478C194.642 190.574 196.767 184.88 199.643 179.558C195.34 185.5 192.467 192.797 190.91 201.441C190.051 206.885 187.988 212.068 184.872 216.615V217.855C184.956 229.307 180.064 238.161 171.079 245.038C170.469 246.267 170.027 247.572 169.764 248.918C181.842 251.105 194.214 250.337 204.366 242.851L206.565 241.231C207.824 239.154 208.901 236.973 209.784 234.712C211.836 229.528 213.53 220.852 214.087 211.935C214.38 207.487 214.334 203.022 213.951 198.581C212.499 183.596 222.367 172.398 238.032 187.235C226.849 169.537 209.627 176.025 210.984 197.298C211.952 212.787 210.826 224.701 205.313 233.239C199.653 240.779 191.636 245.059 181.252 242.535L181.284 242.524Z" fill="#5E863B"/>
<path fill-rule="evenodd" clip-rule="evenodd" d="M204.745 188.57C205.113 187.74 208.764 180.463 209.206 179.906C205.215 178.076 202.283 178.426 200.411 180.957C200.127 184.711 201.957 187.95 204.745 188.612V188.57ZM214.077 174.701C216.055 173.26 220.705 171.945 222.778 171.756C221.305 167.929 219.116 166.239 216.213 166.688C213.54 169.022 212.636 172.408 214.109 174.701H214.077ZM193.53 225.889L193.688 225.763C194.793 223.934 197.896 216.457 197.16 214.407C191.921 213.005 188.414 214.025 186.639 217.467C187.071 222.104 189.964 225.669 193.509 225.879L193.53 225.889ZM199.317 206.478C199.99 205.332 202.01 197.014 202.473 195.616C197.602 194.322 194.33 195.29 192.689 198.507C193.088 202.861 196.003 206.257 199.327 206.478H199.317Z" fill="#395024"/>
<path fill-rule="evenodd" clip-rule="evenodd" d="M210.384 80.9453C211.1 80.6825 211.805 80.4511 212.488 80.2724C213.667 79.9569 215.708 79.5258 216.286 81.0084C217.938 85.2146 211.184 88.895 208.101 90.4723C205.997 95.0359 202.725 98.6743 197.581 99.3578C194.067 113.028 187.407 125.036 176.434 134.059C172.226 137.539 165.987 141.493 160.295 139.611C156.424 138.328 155.035 134.448 153.562 130.83C151.69 126.161 151.91 119.915 155.172 115.709C156.753 113.433 159.169 111.872 161.895 111.366C165.745 110.367 169.659 109.768 173.467 108.664C178.97 107.097 185.145 96.9813 188.101 92.1968C187.931 87.4118 188.164 82.621 188.796 77.8749C189.164 75.6772 189.848 72.9011 191.815 71.5656C194.972 69.41 196.024 74.4994 196.455 76.7707L196.634 76.939C198.433 73.6161 202.778 66.0661 206.355 67.2754C209.101 68.2112 206.534 73.7844 205.839 75.4248C205.809 75.5142 205.774 75.6019 205.734 75.6877C206.569 74.8906 207.443 74.136 208.354 73.4269C209.406 72.6277 211.51 71.124 212.688 72.512C214.719 74.9095 212.688 78.2008 210.3 80.8612L210.384 80.9453Z" fill="black"/>
<path fill-rule="evenodd" clip-rule="evenodd" d="M189.164 92.5542C183.472 101.755 178.643 108.327 173.825 109.694C165.524 112.06 157.644 112.228 154.246 116.624C151.29 120.451 151.795 126.372 153.594 130.862C157.739 141.251 165.787 141.724 175.866 133.385C185.945 125.047 193.151 113.333 196.844 98.4743C201.417 98.1238 204.924 95.2286 207.365 89.7886C213.856 86.4132 216.318 83.7213 215.392 81.3763C214.992 80.3248 212.004 81.145 205.755 83.9842C211.573 79.0524 213.814 75.3616 212.068 73.2374C211.236 72.249 208.028 74.7201 202.872 80.2617C204.051 77.1807 208.312 69.0313 206.176 68.3057C204.04 67.5802 200.916 71.3657 197.17 78.3794C198.118 80.2707 198.553 82.3771 198.433 84.4889C198.376 82.4755 197.843 80.5042 196.876 78.737C196.555 78.2204 196.15 77.7618 195.676 77.3805C194.624 71.7022 193.572 71.7653 192.52 72.4803C190.09 74.1313 189.133 79.1996 189.238 92.5647L189.164 92.5542Z" fill="#72A542"/>
<path fill-rule="evenodd" clip-rule="evenodd" d="M157.897 137.234C162.357 140.83 168.586 139.411 175.866 133.385C186.103 124.91 193.151 113.333 196.844 98.4744C201.417 98.1239 204.924 95.2286 207.365 89.7887C213.856 86.4132 216.318 83.7213 215.392 81.3764C215.129 80.7034 213.74 80.819 211.037 81.7865C213.698 80.9347 215.055 81.3658 214.487 82.838C213.635 85.1409 210.71 86.9705 206.323 88.5899C205.047 93.4971 201.417 96.2837 195.434 96.9496C193.193 112.102 174.54 140.841 157.907 137.192L157.897 137.234Z" fill="#5E863B"/>
<path fill-rule="evenodd" clip-rule="evenodd" d="M189.164 92.5544C183.472 101.755 178.643 108.327 173.825 109.694C165.524 112.06 157.644 112.229 154.246 116.624C151.29 120.452 151.795 126.372 153.594 130.862C154.042 132.011 154.595 133.116 155.246 134.164C148.113 119.842 157.097 114.1 165.429 112.87C170.585 112.102 174.719 111.093 177.423 109.4C182.431 106.245 186.892 100.02 190.521 92.954C188.796 75.0778 193.625 69.0946 194.814 77.5384C196.623 78.7372 197.812 81.0506 198.38 84.4786C198.324 82.4652 197.79 80.4939 196.823 78.7267C196.503 78.2101 196.097 77.7514 195.624 77.3702C194.572 71.6919 193.52 71.755 192.468 72.47C190.037 74.1209 189.08 79.1893 189.185 92.5544H189.164Z" fill="#67953F"/>
<path fill-rule="evenodd" clip-rule="evenodd" d="M200.105 79.6626C201.515 79.8894 202.829 80.5211 203.886 81.4807C204.944 82.4403 205.699 83.6865 206.06 85.0675C206.098 84.3003 205.965 83.5343 205.671 82.8249C205.376 82.1156 204.927 81.4807 204.356 80.9665C203.79 80.458 203.121 80.0781 202.395 79.853C201.668 79.6279 200.902 79.5629 200.148 79.6626H200.105Z" fill="black"/>
<path fill-rule="evenodd" clip-rule="evenodd" d="M72.4376 162.597C70.7543 163.007 68.5344 163.333 67.6086 162.103C66.6827 160.873 67.7874 158.454 68.4818 157.192C76.1093 143.522 90.007 138.433 105.052 137.634L106.724 137.55L105.988 139.053L104.284 142.555C102.179 147.034 100.075 151.556 98.1921 156.151L97.9291 156.782H97.2452C95.0236 156.696 92.7987 156.805 90.5962 157.108C89.744 160.263 87.2927 166.141 84.3785 166.793C82.1902 167.287 81.1591 165.888 80.7278 164.185C78.7184 166.046 75.6043 168.454 73.679 167.266C73.3185 167.007 73.0248 166.666 72.8218 166.271C72.6188 165.876 72.5123 165.439 72.5112 164.995C72.4395 164.205 72.4149 163.411 72.4376 162.618V162.597Z" fill="#1D2815"/>
<path fill-rule="evenodd" clip-rule="evenodd" d="M73.5212 161.272C73.458 161.84 73.4265 162.408 73.416 162.986V163.081C73.416 163.67 73.416 164.28 73.4896 164.89C73.7421 167.708 76.2986 166.993 80.5805 162.944C80.6331 160.545 81.1475 158.178 82.0955 155.972C81.6582 157.987 81.4395 160.042 81.4432 162.103C81.5274 164.911 82.4427 166.204 84.1575 165.815C86.1144 165.373 88.8392 160.494 89.8071 156.204C92.2809 155.821 94.7862 155.68 97.2873 155.783C99.1705 151.167 101.233 146.635 103.4 142.113C103.957 140.935 104.536 139.768 105.104 138.601C87.9871 139.505 75.9514 145.794 69.3339 157.644C67.1351 161.598 67.9768 162.66 72.406 161.556L72.5638 161.293C73.0594 157.89 74.7038 154.759 77.2244 152.418C75.1611 154.948 73.8716 158.018 73.5106 161.262L73.5212 161.272Z" fill="#72A542"/>
<path fill-rule="evenodd" clip-rule="evenodd" d="M101.085 140.725C98.6429 144.935 96.7513 149.441 95.4567 154.132C93.1542 154.529 90.8332 154.81 88.5025 154.974C87.0717 164.206 81.2749 171.588 82.0955 156.025C81.6582 158.039 81.4395 160.095 81.4432 162.156C81.5274 164.963 82.4426 166.257 84.1575 165.868C86.1143 165.426 88.8392 160.547 89.8071 156.257C92.2809 155.874 94.7861 155.733 97.2873 155.836C99.1705 151.22 101.233 146.688 103.4 142.166C103.957 140.988 104.536 139.821 105.104 138.654C91.5956 139.369 81.2538 143.428 74.2471 150.946C81.6975 144.47 91.212 140.858 101.085 140.757V140.725Z" fill="#5E863B"/>
<path fill-rule="evenodd" clip-rule="evenodd" d="M77.2559 152.439C74.461 154.554 72.4925 157.578 71.6905 160.988C68.8604 161.966 68.0083 160.988 69.4391 157.55L69.3654 157.666C67.1666 161.619 68.0083 162.681 72.4375 161.577L72.5953 161.314C73.0909 157.911 74.7353 154.78 77.2559 152.439Z" fill="#5E863B"/>
<path fill-rule="evenodd" clip-rule="evenodd" d="M79.665 162.503C76.1932 165.205 74.9202 165.752 74.5099 164.322C73.9839 162.492 73.805 159.748 75.2148 155.552C74.3179 157.344 73.7446 159.281 73.521 161.272C73.4579 161.84 73.4263 162.408 73.4158 162.986V163.081C73.4158 163.67 73.4158 164.28 73.4894 164.89C73.7419 167.708 76.2984 166.993 80.5803 162.944C80.6189 160.89 81.003 158.857 81.7165 156.93C80.7626 158.676 80.0713 160.554 79.665 162.503Z" fill="#5E863B"/>
<path fill-rule="evenodd" clip-rule="evenodd" d="M77.2559 152.439C74.6995 154.268 72.3625 156.385 70.2913 158.749C72.4524 154.655 75.4373 151.053 79.0584 148.169C82.6795 145.284 86.8584 143.179 91.3326 141.987C85.0197 143.585 79.1708 146.643 74.2576 150.915C72.3872 152.925 70.7659 155.152 69.4286 157.55C67.9978 161.02 68.85 161.966 71.68 160.988C72.482 157.578 74.4505 154.554 77.2454 152.439H77.2559Z" fill="#67953F"/>
<path fill-rule="evenodd" clip-rule="evenodd" d="M28.5766 82.0286C29.3328 82.5583 30.1908 82.9253 31.0963 83.1063C32.0018 83.2873 32.9351 83.2784 33.8369 83.0802L35.5308 82.8068L34.91 84.4156C34.142 86.403 32.9532 88.8005 31.1121 90.0098L30.2283 90.5776L29.7128 89.6628C28.5543 87.5808 27.65 85.3672 27.0196 83.0697L26.22 80.2095L28.5661 82.0181L28.5766 82.0286Z" fill="#385125"/>
<path fill-rule="evenodd" clip-rule="evenodd" d="M44.6419 90.588C46.6284 91.4764 48.8673 91.6256 50.9543 91.0086L52.5113 90.588L52.1746 92.1653C51.6486 94.5944 50.5965 97.9908 48.019 98.9688L47.3877 99.2001L46.9354 98.6954C45.1616 96.7041 43.9076 94.3056 43.2847 91.7131L42.8218 89.7783L44.6419 90.588Z" fill="#385125"/>
<path fill-rule="evenodd" clip-rule="evenodd" d="M106.85 47.2323C106.977 46.1808 107.134 45.1293 107.303 44.0777C108.565 36.5382 112.416 22.1637 120.212 18.7672C128.281 15.2656 137.886 14.5611 146.566 15.2235C160.895 16.3908 168.554 33.8568 172.478 45.7181C180.895 47.4952 186.05 53.0789 188.491 61.2809C193.372 77.6112 188.207 91.7755 173.183 99.8828C161.053 106.444 147.386 107.128 134.13 103.921C130.912 103.124 127.75 102.119 124.662 100.913C121.947 99.8618 119.275 98.6946 116.571 97.622C112.32 95.8285 107.859 94.5778 103.294 93.8996C96.8755 93.1609 90.3835 93.3557 84.0205 94.4779C78.7423 95.4385 73.4079 96.0602 68.0502 96.3391C64.41 96.4128 60.4543 96.0552 57.3928 93.8996C56.177 93.0293 55.144 91.9289 54.3523 90.6608C46.4934 94.9616 40.5071 90.5347 36.1937 83.4894C31.7855 85.0036 27.6298 84.2465 25.5257 79.5461C24.2001 76.5702 25.5783 73.4156 27.472 71.0392C29.8447 67.9666 31.6867 64.5191 32.9217 60.8392C33.3528 59.357 34.3405 58.0986 35.6782 57.3271C39.4866 55.3607 44.8732 59.1778 47.7138 61.4176C48.3571 62.0147 48.9322 62.6813 49.4286 63.405C49.996 63.1365 50.5413 62.8236 51.0593 62.4691C52.8819 61.199 54.9006 60.2363 57.0351 59.6194H57.1087C64.3574 57.632 71.5536 55.4974 78.8128 53.5731C88.0605 51.1125 97.3712 48.9569 106.777 47.2008L106.85 47.2323Z" fill="#1D2815"/>
<path fill-rule="evenodd" clip-rule="evenodd" d="M57.4243 60.6088C69.6283 57.2544 86.3035 52.0073 107.724 48.064C109.133 35.6033 113.899 22.5852 120.58 19.6725C127.439 16.6966 136.424 15.3927 146.461 16.2024C157.455 17.0962 165.724 28.2425 171.71 46.5813C179.537 48.0535 184.977 52.9957 187.491 61.5762C192.804 79.3262 185.566 92.0708 172.657 99.032C162.946 104.29 150.111 106.803 134.32 102.975C116.435 98.6535 110.585 89.3579 83.8206 93.5114C67.8398 95.9931 58.8656 97.1603 54.6574 89.3053C47.7909 93.5114 41.7591 91.1665 36.5619 82.2705C31.8802 84.1527 28.219 83.2484 26.3779 79.1159C25.3258 76.834 26.1675 74.1631 28.1874 71.6184C30.6379 68.4553 32.5339 64.8998 33.7949 61.103C35.5098 56.2239 40.1073 56.6235 47.051 62.1546C47.8421 62.8851 48.5162 63.7327 49.0499 64.6677C49.958 64.3108 50.8227 63.8522 51.6275 63.3008C53.3461 62.0968 55.2512 61.1838 57.2665 60.5983H57.3402L57.4243 60.6088Z" fill="#72A542"/>
<path fill-rule="evenodd" clip-rule="evenodd" d="M167.281 62.7013C162.073 72.0074 147.607 77.896 130.743 81.4607C104.125 87.0969 71.4378 86.9812 59.9177 85.4355C58.5277 87.179 56.9268 88.7437 55.1519 90.0938C59.5284 97.076 68.4395 95.9088 83.8732 93.5113C110.638 89.3577 116.487 98.6533 134.372 102.975C150.153 106.803 162.999 104.29 172.71 99.0319C175.83 97.3763 178.687 95.2678 181.189 92.7752C184.254 88.2264 185.633 82.7502 185.087 77.2932C184.54 71.8362 182.104 66.7415 178.198 62.8898C174.292 59.0382 169.162 56.6717 163.695 56.1995C158.229 55.7272 152.769 57.179 148.26 60.3037C151.114 59.122 154.193 58.5829 157.279 58.7246C160.364 58.8663 163.381 59.6854 166.115 61.1237C168.848 62.562 171.231 64.5843 173.095 67.0468C174.958 69.5094 176.256 72.3518 176.897 75.3723L176.823 75.1094V75.0148L176.771 74.8465V74.7519V74.5941V74.4785L176.718 74.3313V74.2261V74.0894V73.9737L176.655 73.8055V73.7214L176.602 73.5847L176.539 73.4375L176.455 73.2271V73.1746L176.087 72.3439V72.2702L176.024 72.1441L175.961 72.0074V71.9233L175.887 71.7655V71.6709L175.813 71.5237L175.761 71.4395L175.676 71.2608V71.1977L175.582 71.04V70.9558L175.519 70.8402L175.277 70.4301L175.171 70.2513L175.045 70.0515L174.993 69.9569L174.919 69.8517L174.835 69.7045L174.772 69.6204L174.687 69.4837L174.046 69.3154L173.962 69.1787L173.898 69.0946L173.825 68.9789L173.73 68.8422L173.667 68.7581L173.583 68.6424L173.509 68.5373L173.404 68.3901L173.351 68.327L173.215 68.1377L173.109 68.001L173.036 67.9064L172.941 67.7907L172.867 67.6961L172.783 67.5909L172.699 67.4963L172.604 67.3701L172.541 67.2965L172.426 67.1598L172.362 67.0862L172.268 66.981L172.184 66.8759L172.089 66.7707L172.026 66.7076L171.91 66.5709L171.836 66.4973L171.731 66.3816L171.363 66.0031L171.31 65.9505L171.184 65.8138L171.11 65.7507L170.984 65.614L170.9 65.5404L170.805 65.4458L170.69 65.3406L170.616 65.267L170.5 65.1618L170.416 65.0883L170.311 64.9831L170.185 64.8885L170.122 64.8254L169.995 64.7202L169.901 64.6256L169.585 64.3627L169.427 64.226L169.269 64.1103L169.112 63.9947L169.048 63.9421L168.922 63.8474L168.827 63.7843L168.701 63.6897L168.617 63.6266L168.48 63.532L168.407 63.4794L168.249 63.3637L168.059 63.227L167.733 63.0062L167.376 62.7749L167.281 62.7013Z" fill="#9CB63D"/>
<path fill-rule="evenodd" clip-rule="evenodd" d="M142.873 16.0024C153.394 16.8016 159.317 28.7471 162.042 44.2573C151.458 45.9106 141.407 50.0119 132.689 56.2343C145.903 48.1479 161.095 43.8577 171.363 45.5191C165.429 27.8217 157.255 17.1276 146.482 16.2022C145.261 16.1076 144.062 16.034 142.873 16.0024Z" fill="#5E863B"/>
<path fill-rule="evenodd" clip-rule="evenodd" d="M143.746 27.2539C137.36 27.2539 132.174 32.7009 132.174 39.4307C132.115 42.2347 133.041 44.9708 134.789 47.1642C136.538 49.3576 139 50.8701 141.747 51.4393C145.202 49.8552 148.768 48.5233 152.415 47.4539C154.277 45.1954 155.289 42.357 155.277 39.4307C155.277 32.7009 150.101 27.2539 143.704 27.2539H143.746Z" fill="white"/>
<path fill-rule="evenodd" clip-rule="evenodd" d="M145.419 32.9218C143.919 32.8418 142.428 33.2136 141.141 33.9889C139.854 34.7643 138.83 35.9077 138.2 37.2712C137.57 38.6348 137.363 40.1559 137.607 41.638C137.851 43.12 138.534 44.4948 139.568 45.5848C140.602 46.6747 141.939 47.4297 143.407 47.7521C144.875 48.0745 146.405 47.9495 147.801 47.3932C149.197 46.837 150.394 45.8751 151.237 44.6318C152.08 43.3886 152.531 41.9212 152.531 40.4192C152.568 38.4864 151.843 36.6167 150.512 35.2138C149.182 33.811 147.352 32.9877 145.419 32.9218Z" fill="#33C5F3"/>
<path fill-rule="evenodd" clip-rule="evenodd" d="M145.419 35.1194C144.356 35.0625 143.3 35.3263 142.388 35.8765C141.477 36.4268 140.752 37.238 140.307 38.2051C139.863 39.1722 139.719 40.2505 139.895 41.3001C140.071 42.3498 140.559 43.3223 141.295 44.0916C142.031 44.8609 142.981 45.3915 144.022 45.6145C145.063 45.8375 146.147 45.7426 147.134 45.3422C148.121 44.9419 148.964 44.2544 149.555 43.3691C150.146 42.4837 150.457 41.4413 150.448 40.3771C150.473 39.0148 149.959 37.6977 149.017 36.7129C148.075 35.728 146.782 35.1552 145.419 35.1194Z" fill="black"/>
<path fill-rule="evenodd" clip-rule="evenodd" d="M148.312 35.1195C147.859 35.0878 147.407 35.1933 147.014 35.4221C146.622 35.651 146.308 35.9927 146.112 36.4026C145.917 36.8126 145.85 37.2718 145.919 37.7206C145.989 38.1693 146.192 38.5868 146.502 38.9185C146.812 39.2503 147.215 39.481 147.658 39.5806C148.102 39.6802 148.565 39.644 148.987 39.4769C149.409 39.3098 149.772 39.0194 150.027 38.6436C150.282 38.2678 150.417 37.8239 150.416 37.3698C150.431 36.7939 150.218 36.2355 149.825 35.8146C149.431 35.3937 148.888 35.1442 148.312 35.1195Z" fill="white"/>
<path fill-rule="evenodd" clip-rule="evenodd" d="M141.737 42.8799C141.38 42.9106 141.048 43.074 140.805 43.3378C140.563 43.6016 140.429 43.9467 140.429 44.3047C140.429 44.6628 140.563 45.0079 140.805 45.2717C141.048 45.5355 141.38 45.6989 141.737 45.7296C142.094 45.6989 142.426 45.5355 142.669 45.2717C142.911 45.0079 143.045 44.6628 143.045 44.3047C143.045 43.9467 142.911 43.6016 142.669 43.3378C142.426 43.074 142.094 42.9106 141.737 42.8799Z" fill="white"/>
<path fill-rule="evenodd" clip-rule="evenodd" d="M120.548 27.7375C115.867 27.7375 112.069 32.2487 112.069 37.8113C112.069 43.3739 115.867 47.8955 120.548 47.8955C125.23 47.8955 129.028 43.3844 129.028 37.8113C129.028 32.2381 125.23 27.7375 120.548 27.7375Z" fill="white"/>
<path fill-rule="evenodd" clip-rule="evenodd" d="M123.631 34.6147C120.748 34.6147 118.37 37.3908 118.37 40.8188C118.37 44.2468 120.706 47.0229 123.631 47.0229H124.167C125.39 46.2762 126.438 45.2758 127.24 44.0894C128.042 42.9029 128.58 41.5581 128.817 40.1458C128.523 37.0543 126.313 34.6463 123.631 34.6463V34.6147Z" fill="#33C5F3"/>
<path fill-rule="evenodd" clip-rule="evenodd" d="M123.631 36.3708C121.59 36.3708 119.938 38.3372 119.938 40.7663C119.938 43.1953 121.59 45.1512 123.631 45.1512C125.672 45.1512 127.323 43.1848 127.323 40.7663C127.323 38.3477 125.672 36.3708 123.631 36.3708Z" fill="black"/>
<path fill-rule="evenodd" clip-rule="evenodd" d="M125.756 36.3708C125.374 36.304 124.98 36.3562 124.628 36.5205C124.276 36.6847 123.984 36.9531 123.79 37.2891C123.596 37.6252 123.51 38.0127 123.543 38.3992C123.577 38.7858 123.729 39.1527 123.978 39.4502C124.227 39.7477 124.562 39.9615 124.936 40.0627C125.311 40.1638 125.708 40.1473 126.073 40.0155C126.438 39.8837 126.754 39.643 126.978 39.3259C127.201 39.0087 127.322 38.6306 127.324 38.2426C127.359 37.7877 127.215 37.3371 126.922 36.9873C126.629 36.6374 126.21 36.4162 125.756 36.3708Z" fill="white"/>
<path fill-rule="evenodd" clip-rule="evenodd" d="M120.938 42.7957C120.695 42.7525 120.445 42.785 120.222 42.8888C119.998 42.9925 119.812 43.1625 119.689 43.3756C119.566 43.5887 119.511 43.8346 119.532 44.0799C119.554 44.3252 119.65 44.5579 119.809 44.7465C119.967 44.9351 120.179 45.0704 120.417 45.134C120.655 45.1975 120.907 45.1863 121.139 45.1019C121.37 45.0174 121.57 44.8638 121.711 44.6619C121.852 44.46 121.927 44.2196 121.927 43.9734C121.944 43.8303 121.932 43.6851 121.891 43.5468C121.85 43.4086 121.781 43.2802 121.688 43.1698C121.595 43.0593 121.481 42.9691 121.352 42.9048C121.223 42.8404 121.082 42.8033 120.938 42.7957Z" fill="white"/>
<path fill-rule="evenodd" clip-rule="evenodd" d="M171.363 45.5191C160.127 43.6894 142.852 49.0628 128.838 58.7264C146.597 48.7999 161.284 44.6043 171.721 46.5812C171.605 46.2236 171.489 45.8661 171.363 45.5296V45.5191ZM60.8961 59.6307C58.8551 59.7464 57.6873 60.0724 57.4032 60.6087C66.8192 60.188 71.3957 65.2459 69.5861 74.6887C72.8686 66.8653 69.7335 61.4604 60.8961 59.6307ZM36.5723 82.2914C35.9621 81.1136 35.5203 80.2619 35.2888 79.7467C35.4333 80.6918 35.6407 81.6262 35.9096 82.5437C36.3199 83.0905 36.4777 82.8066 36.5723 82.2914ZM55.1623 90.0938C56.9541 88.7287 58.5691 87.1462 59.9703 85.3829V85.4354C71.543 86.9812 104.157 87.0969 130.795 81.4606C147.628 77.8959 162.126 71.9968 167.334 62.7012L167.691 62.9325L167.881 63.0587L168.07 63.1954L168.228 63.3111L168.301 63.3637L168.438 63.4583L168.522 63.5214L168.649 63.616L168.743 63.6792L168.87 63.7738L168.933 63.8264L169.09 63.942L169.248 64.0577L169.406 64.1944L169.722 64.4573L169.816 64.5519L169.943 64.6571L170.006 64.7202L170.132 64.8148L170.237 64.92L170.321 64.9936L170.437 65.0987L170.511 65.1723L170.626 65.2775L170.721 65.3721L170.805 65.4457L170.932 65.5824L171.005 65.6455L171.131 65.7822L171.184 65.8348L171.552 66.2133L171.658 66.329L171.731 66.4026L171.847 66.5393L171.91 66.6024L172.005 66.7076L172.089 66.8127L172.184 66.9179L172.247 66.9915L172.362 67.1282L172.426 67.2018L172.52 67.328L172.604 67.4226L172.689 67.5278L172.762 67.6224L172.857 67.7381L172.93 67.8327L173.036 67.9694L173.172 68.1587L173.225 68.2218L173.33 68.369L173.404 68.4742L173.488 68.5898L173.551 68.674L173.646 68.8106L173.72 68.9263L173.783 69.0104L173.867 69.1471L173.93 69.2313L174.014 69.368L174.077 69.4521L174.161 69.5993L174.235 69.7045L174.288 69.7991L174.414 69.9989L174.519 70.1777L174.761 70.5877L174.824 70.7034V70.7875L174.919 70.9453V71.0083L175.003 71.1871L175.056 71.2712L175.129 71.4185V71.5131L175.203 71.6708V71.755L175.266 71.8917L175.329 72.0178V72.0915C175.455 72.3649 175.582 72.6488 175.697 72.9222V72.9747L175.782 73.185L175.845 73.3323L175.897 73.469V73.5531L175.96 73.7213V73.837V73.9737V74.0788L176.013 74.2261V74.3417V74.4995V74.5941L176.066 74.7623V74.857L176.139 75.1199C175.499 72.0994 174.201 69.257 172.337 66.7944C170.474 64.3319 168.091 62.3096 165.357 60.8713C162.624 59.433 159.607 58.6139 156.521 58.4722C153.435 58.3305 150.356 58.8696 147.502 60.0513L147.776 59.9672L148.049 59.8831L148.323 59.8095L148.596 59.7359L148.87 59.6623L149.143 59.5992L149.417 59.5256L150.248 59.3573H150.522H150.806L151.079 59.3048H151.363C151.731 59.2522 152.11 59.2101 152.478 59.1786H152.762H153.036H153.32H154.719H155.561H155.834H156.118H156.392H156.676H156.95H157.234L157.791 59.2522L158.612 59.3994L158.885 59.452L159.169 59.5046L159.443 59.5676L159.717 59.6307L160.527 59.841L160.8 59.9146L161.063 59.9988L161.337 60.0829L161.6 60.167L161.873 60.2617L162.136 60.3563L162.399 60.4509L162.662 60.5561L162.925 60.6612L163.188 60.7664L163.451 60.8715L163.704 60.9872L163.967 61.1029L164.219 61.2291L164.482 61.3552L164.735 61.4814L164.987 61.6076L165.25 61.7548L165.429 61.86H165.503L165.661 61.9441C160.621 70.9873 146.387 76.7498 129.733 80.2619C103.631 85.7825 71.6903 85.7719 59.7704 84.2998L59.6336 84.4891C59.9598 84.0474 60.2754 83.5953 60.57 83.1431C58.6441 85.4248 56.3973 87.4154 53.8999 89.0527C53.8725 89.2121 53.9017 89.376 53.9824 89.5161C54.063 89.6563 54.1902 89.7639 54.3417 89.8204L55.1623 90.0938ZM48.6395 63.9631C49.1235 64.0472 49.4391 64.3942 49.113 64.7096C46.8405 65.6035 43.9894 65.0567 41.1383 63.5004C44.4208 64.5519 47.0299 64.92 48.6395 63.9631Z" fill="#385125"/>
<path fill-rule="evenodd" clip-rule="evenodd" d="M53.2161 72.2492C59.8967 77.5069 69.3232 69.2208 60.5805 63.8369C68.3448 69.3259 59.5811 76.8234 53.2161 72.2492Z" fill="#385125"/>
<path fill-rule="evenodd" clip-rule="evenodd" d="M62.3059 65.3827C57.9153 65.1303 55.7831 67.8257 55.9093 73.469C61.0224 74.6257 66.0407 69.7991 62.3059 65.3827Z" fill="#5E863B"/>
<path fill-rule="evenodd" clip-rule="evenodd" d="M57.0141 78.6426C50.5544 89.6627 41.6539 90.4618 36.7092 82.4491C41.8854 91.2189 47.8857 93.5008 54.7101 89.2946C57.2075 87.6573 59.4542 85.6667 61.3802 83.385C61.1277 83.7741 60.8646 84.1632 60.5806 84.5417C72.5005 86.0139 104.441 86.0244 130.543 80.5038C147.197 76.9917 161.432 71.2292 166.471 62.186L166.313 62.1019H166.239L166.061 61.9967L165.798 61.8495L165.545 61.7233L165.293 61.5972L165.03 61.471L164.777 61.3448L164.514 61.2291L164.262 61.1135L163.999 61.0083L163.736 60.9031L163.473 60.798L163.21 60.6928L162.947 60.5982L162.684 60.5035L162.41 60.4089L162.147 60.3248L161.873 60.2407L161.61 60.1566L161.337 60.0829L160.527 59.8726L160.253 59.8095L159.98 59.7464L159.696 59.6939L159.422 59.6413L158.602 59.4941L158.044 59.4205H157.76H157.486H157.202H156.929H156.645H156.371H155.529H154.057H153.773H153.499H153.215C152.847 59.4205 152.468 59.4941 152.1 59.5466H151.816L151.542 59.5992H151.258H150.985L150.153 59.7675L149.88 59.8411L149.606 59.9042L149.333 59.9778L149.059 60.0514L148.786 60.125L148.512 60.2091L148.239 60.2933C152.748 57.1685 158.208 55.7168 163.674 56.189C169.141 56.6612 174.271 59.0277 178.177 62.8793C182.083 66.731 184.519 71.8257 185.066 77.2827C185.612 82.7397 184.233 88.2159 181.168 92.7647C188.428 85.4039 191.521 74.8886 187.481 61.5656C184.924 52.9851 179.485 48.0428 171.7 46.5707C161.263 44.5938 146.576 48.7894 128.818 58.716C137.329 60.0736 145.25 63.9148 151.584 69.7571C121.948 80.7982 76.4457 83.7635 56.993 78.632L57.0141 78.6426Z" fill="#67953F"/>
<path fill-rule="evenodd" clip-rule="evenodd" d="M41.1278 63.5004C44.4102 64.5519 47.0193 64.92 48.629 63.9631C48.1858 63.3209 47.6743 62.7286 47.1035 62.1965C40.1283 56.697 35.5308 56.2974 33.8475 61.145C32.5865 64.9417 30.6904 68.4972 28.24 71.6603C26.22 74.2051 25.4099 76.918 26.4304 79.1578C28.1769 83.0695 31.5961 84.0895 35.9516 82.5437C35.6827 81.6262 35.4754 80.6918 35.3309 79.7467C35.2363 80.4438 35.0228 81.1196 34.6996 81.7446C29.7234 82.2493 25.5257 79.5574 27.5772 76.0452C29.8707 72.123 32.8375 69.2418 34.0158 65.5929C34.8364 60.9872 37.2071 60.2862 41.1278 63.4899V63.5004Z" fill="#5E863B"/>
<path fill-rule="evenodd" clip-rule="evenodd" d="M93.7521 92.5124C112.468 91.8079 119.002 99.2423 134.372 102.975C137.428 103.721 140.532 104.248 143.662 104.553C159.369 103.312 165.997 86.9288 158.391 73.3955C138.591 84.696 106.496 89.824 62.106 88.7795C63.158 93.4378 67.1033 95.6881 73.5419 93.9846C79.4966 92.4073 86.0194 92.0182 93.7521 92.5124Z" fill="#ADC941"/>
<path fill-rule="evenodd" clip-rule="evenodd" d="M107.839 47.2857C107.439 47.7064 107.408 47.9693 107.745 48.0639C112.837 47.6015 117.969 48.2767 122.768 50.0408C118.132 47.7903 112.973 46.8382 107.839 47.2857Z" fill="#385125"/>
<path fill-rule="evenodd" clip-rule="evenodd" d="M110.196 45.8136C110.044 37.6197 112.845 29.6444 118.086 23.3423C120.471 20.8607 126.044 18.4912 134.804 16.2339C129.918 16.6247 125.124 17.7852 120.601 19.6724C114.057 22.5221 109.354 35.0669 107.839 47.2858C112.973 46.8382 118.133 47.7903 122.768 50.0408C118.841 47.9492 114.592 46.5276 110.196 45.8347V45.8136Z" fill="#67953F"/>
<path fill-rule="evenodd" clip-rule="evenodd" d="M75.5515 85.9087L76.7929 85.6563H76.8666C79.0549 85.6563 81.2432 85.6563 83.4315 85.6563H83.4946L84.3889 85.8245L84.0837 86.5921C83.4949 88.0725 82.6471 89.4363 81.5798 90.6195L81.1695 91.0717L80.6751 90.7142C79.108 89.568 77.6595 88.2681 76.3511 86.834L75.5515 85.9402V85.9087ZM162.578 68.5898C164.441 72.4978 164.966 76.9096 164.072 81.1452L163.925 81.8287L163.252 81.671C158.982 80.6631 155.161 78.2843 152.373 74.8991L151.91 74.3417L152.552 73.8791H152.605C155.795 72.4267 158.792 70.5828 161.526 68.39L162.221 68.001L162.536 68.6635L162.578 68.5898ZM101.19 85.0885L102.474 84.7415H102.505C104.61 84.5732 106.714 84.3804 108.818 84.1631L109.796 84.0579L109.544 85.0148C109.143 86.4741 108.582 87.8847 107.871 89.221L107.545 89.8519L106.924 89.4944C105.212 88.4529 103.599 87.2562 102.106 85.9192L101.148 85.0779L101.19 85.0885Z" fill="#385125"/>
<path fill-rule="evenodd" clip-rule="evenodd" d="M76.856 86.3398C78.9601 86.3398 81.1484 86.3398 83.4314 86.3398C82.882 87.7459 82.0797 89.0396 81.0642 90.1569C79.5336 89.0448 78.1232 87.776 76.856 86.3713V86.3398ZM161.968 68.8843C159.193 71.115 156.15 72.9908 152.91 74.4679C155.608 77.7383 159.303 80.0355 163.43 81.0085C164.294 76.9185 163.788 72.658 161.989 68.8843H161.968ZM102.589 85.3829C104.694 85.2147 106.798 85.0184 108.902 84.794C108.511 86.2118 107.967 87.5832 107.282 88.8845C105.603 87.8651 104.021 86.6929 102.558 85.3829H102.589Z" fill="white"/>
<path fill-rule="evenodd" clip-rule="evenodd" d="M27.9771 82.8066C28.5849 85.0304 29.4574 87.1733 30.5757 89.1895C31.8697 88.3483 33.0059 86.6448 34.0054 84.0685C32.9682 84.2919 31.8956 84.295 30.8571 84.0776C29.8186 83.8602 28.8374 83.4272 27.9771 82.8066Z" fill="white"/>
<path fill-rule="evenodd" clip-rule="evenodd" d="M44.2524 91.4819C44.8402 93.9171 46.0181 96.1704 47.6822 98.0435C49.3024 97.4336 50.4807 95.4077 51.2171 91.9657C48.9117 92.6361 46.4429 92.4646 44.2524 91.4819Z" fill="white"/>
<path fill-rule="evenodd" clip-rule="evenodd" d="M67.5767 59.7465C80.5802 56.0801 93.6784 52.7433 106.871 49.7359C112.137 48.7693 117.543 48.873 122.768 50.0408C117.975 48.2799 112.851 47.6046 107.766 48.0639C88.3234 51.6392 72.7844 56.2975 60.9592 59.6308C69.7966 61.4605 72.9317 66.8654 69.6493 74.6888C72.4548 68.9895 71.771 64.0087 67.5978 59.7465H67.5767Z" fill="#5E863B"/>
<path fill-rule="evenodd" clip-rule="evenodd" d="M128.807 58.7264C153.783 45.5086 177.297 44.0575 184.64 58.8C190.952 71.5447 189.248 83.1326 181.158 92.7752C188.417 85.4144 191.51 74.8991 187.47 61.5761C184.914 52.9956 179.474 48.0533 171.689 46.5812C161.253 44.6043 146.566 48.7999 128.807 58.7264Z" fill="#5E863B"/>
<path fill-rule="evenodd" clip-rule="evenodd" d="M156.855 50.3879C154.898 50.777 167.796 49.9883 174.382 53.7949C180.968 57.6014 185.24 63.8476 184.903 62.5331C182.641 52.5751 171.226 47.5698 156.813 50.3879H156.855Z" fill="#8CB759"/>
<path fill-rule="evenodd" clip-rule="evenodd" d="M71.1642 61.4395C95.9298 54.254 113.131 50.4544 122.768 50.0408C117.543 48.873 112.137 48.7692 106.871 49.7358C93.6924 52.7432 80.5942 56.0801 67.5767 59.7465C71.7849 64.0087 72.4688 68.9895 69.6282 74.6888C70.8452 72.7299 71.6139 70.5264 71.8794 68.2359C72.145 65.9454 71.9007 63.6246 71.1642 61.4395Z" fill="#67953F"/>
<path fill-rule="evenodd" clip-rule="evenodd" d="M61.0961 72.6279C63.5369 71.1242 64.6626 68.1694 62.306 65.3828C58.8552 66.0838 57.2175 68.5795 57.3928 72.8698C57.9921 73.0934 58.6321 73.1876 59.2704 73.1459C59.9088 73.1042 60.5311 72.9276 61.0961 72.6279Z" fill="#2A3B1B"/>
</g>
</svg>
