<svg width="250" height="216" viewBox="0 0 250 216" fill="none" xmlns="http://www.w3.org/2000/svg">
<mask id="mask0_9:825" style="mask-type:alpha" maskUnits="userSpaceOnUse" x="0" y="0" width="250" height="216">
<path d="M235 121.5C235 138.018 203.652 146.739 197.5 161C179.483 202.766 152 215 118 215C87.5 215 55.5056 218.426 34.5 186.5C22.3179 167.985 0 145.32 0 121.5C0 56.6065 52.6065 3.99994 117.5 3.99994C188.5 -15.5 285.5 39.9999 235 121.5Z" fill="#C4C4C4"/>
</mask>
<g mask="url(#mask0_9:825)">
<path fill-rule="evenodd" clip-rule="evenodd" d="M74.9466 191.069C93.5583 212.371 108.229 225.845 118.958 231.49C117.547 233.031 116.501 234.869 115.897 236.868C115.292 238.868 115.146 240.978 115.467 243.042C120.98 244.547 123.628 247.675 122.993 252.354C122.232 257.694 114.488 261.847 104.777 261.711C95.5652 261.593 89.4902 258.828 86.9333 254.457C85.2377 251.583 85.5279 247.639 87.3504 242.851C85.6024 240.399 84.1506 237.748 83.0254 234.954C82.6902 235.951 82.6902 237.031 83.0254 238.028C80.4237 233.177 78.7828 227.869 78.1926 222.396C77.7574 222.937 77.4742 223.584 77.3722 224.271C77.2702 224.958 77.3531 225.66 77.6123 226.304C73.1628 215.097 72.233 202.8 74.9466 191.051V191.069Z" fill="black"/>
<path fill-rule="evenodd" clip-rule="evenodd" d="M75.2549 192.329C73.1086 202.584 73.7346 213.225 77.0684 223.158C77.2357 222.757 77.4585 222.381 77.7303 222.042L78.637 220.945L78.7911 222.351C79.2715 226.827 80.4653 231.199 82.3273 235.298C82.3273 235.126 82.4179 234.954 82.4724 234.782L82.9801 233.276L83.5785 234.754C84.6883 237.504 86.1155 240.115 87.831 242.534L88.0214 242.788L87.9036 243.087C86.6432 246.406 85.5098 250.885 87.4411 254.176C90.7234 259.743 98.9382 261.049 104.787 261.121C108.992 261.256 113.168 260.379 116.964 258.565C119.403 257.295 121.987 255.164 122.404 252.272C123.111 247.294 119.729 244.81 115.304 243.604L114.942 243.504C110.101 242.771 105.158 243.14 100.48 244.583C105.058 242.846 109.999 242.285 114.851 242.951C114.565 240.952 114.7 238.916 115.246 236.972C115.793 235.028 116.739 233.22 118.024 231.662C111.415 228.036 104.986 222.595 99.5004 217.581C90.9713 209.605 82.8778 201.176 75.2549 192.329Z" fill="#333333"/>
<path fill-rule="evenodd" clip-rule="evenodd" d="M90.0432 228.942C96.3818 234.057 103.974 237.382 112.031 238.572C112.064 239.526 112.179 240.475 112.375 241.41C108.232 241.618 104.179 242.697 100.479 244.574C105.061 242.837 110.005 242.276 114.86 242.942C114.508 240.43 114.82 237.87 115.767 235.516C91.231 232.27 81.8102 218.289 77.9749 202.775C76.9336 203.677 76.2567 204.928 76.0708 206.293C75.2511 202.469 74.8408 198.57 74.8467 194.66C73.2307 204.197 73.9937 213.986 77.0681 223.158C77.2355 222.757 77.4583 222.381 77.7301 222.042L78.6368 220.945L78.7909 222.351C79.2713 226.828 80.4651 231.199 82.3271 235.298C82.3271 235.126 82.4177 234.954 82.4721 234.782L82.9799 233.276L83.5783 234.754C84.6881 237.504 86.1152 240.115 87.8308 242.534L88.0212 242.788L87.9033 243.087C86.643 246.406 85.5096 250.885 87.4409 254.176C88.6254 256.085 90.3347 257.611 92.3643 258.574C88.0605 255.733 87.3291 250.619 90.1701 243.232C89.0183 242.405 88.067 241.33 87.3865 240.086C87.9181 240.528 88.574 240.794 89.2634 240.848C86.2004 237.42 84.0216 233.296 82.9164 228.834C82.4355 229.838 82.2201 230.95 82.2908 232.061C81.2192 228.557 80.7411 224.898 80.8763 221.235C83.9047 225.338 87.4661 229.018 91.4667 232.179C90.7789 231.212 90.2975 230.113 90.0522 228.951L90.0432 228.942Z" fill="#121212"/>
<path fill-rule="evenodd" clip-rule="evenodd" d="M176.009 191.069C157.403 212.371 142.732 225.845 131.997 231.49C133.407 233.031 134.454 234.869 135.059 236.868C135.665 238.868 135.815 240.977 135.497 243.042C129.975 244.547 127.336 247.675 127.971 252.354C128.724 257.694 136.467 261.847 146.187 261.711C155.39 261.593 161.465 258.828 164.031 254.457C165.717 251.583 165.436 247.639 163.614 242.851C165.355 240.394 166.806 237.744 167.939 234.954C168.265 235.953 168.265 237.029 167.939 238.028C170.534 233.174 172.171 227.868 172.763 222.396C173.2 222.936 173.485 223.583 173.587 224.271C173.689 224.958 173.605 225.66 173.343 226.304C177.797 215.098 178.727 202.8 176.009 191.051V191.069Z" fill="black"/>
<path fill-rule="evenodd" clip-rule="evenodd" d="M175.691 192.329C177.845 202.583 177.219 213.227 173.878 223.158C173.714 222.755 173.491 222.379 173.216 222.042L172.309 220.945L172.155 222.351C171.682 226.823 170.497 231.191 168.646 235.289C168.646 235.117 168.555 234.945 168.501 234.772L167.993 233.267L167.404 234.745C166.287 237.494 164.857 240.104 163.142 242.525L162.961 242.779L163.07 243.078C164.339 246.397 165.463 250.876 163.532 254.167C160.259 259.734 152.035 261.04 146.187 261.112C141.975 261.249 137.793 260.373 133.991 258.555C131.552 257.286 128.968 255.155 128.551 252.263C127.844 247.285 131.271 244.801 135.651 243.595L136.022 243.495C140.872 242.76 145.826 243.132 150.512 244.583C145.933 242.846 140.992 242.285 136.14 242.951C136.42 240.949 136.278 238.911 135.724 236.967C135.169 235.023 134.215 233.216 132.921 231.662C139.531 228.036 145.96 222.595 151.446 217.581C159.975 209.605 168.068 201.176 175.691 192.329Z" fill="#333333"/>
<path fill-rule="evenodd" clip-rule="evenodd" d="M160.912 228.942C154.574 234.058 146.982 237.383 138.924 238.572C138.894 239.525 138.782 240.475 138.588 241.41C142.742 241.617 146.805 242.699 150.512 244.583C145.933 242.846 140.992 242.285 136.14 242.951C136.489 240.439 136.177 237.879 135.234 235.525C159.769 232.279 169.19 218.298 173.025 202.784C174.067 203.686 174.743 204.937 174.929 206.302C175.748 202.478 176.161 198.579 176.163 194.669C177.761 204.206 176.985 213.991 173.905 223.158C173.741 222.755 173.518 222.379 173.243 222.042L172.336 220.945L172.182 222.351C171.701 226.824 170.507 231.193 168.646 235.289C168.646 235.117 168.555 234.945 168.501 234.772L167.993 233.267L167.404 234.745C166.287 237.494 164.857 240.104 163.142 242.525L162.961 242.779L163.07 243.078C164.339 246.397 165.463 250.876 163.532 254.167C162.348 256.076 160.638 257.602 158.609 258.565C162.919 255.724 163.65 250.61 160.803 243.223C161.955 242.396 162.906 241.321 163.586 240.077C163.057 240.517 162.405 240.783 161.719 240.838C164.779 237.409 166.957 233.285 168.066 228.824C168.547 229.829 168.762 230.941 168.691 232.052C169.772 228.55 170.25 224.889 170.106 221.226C167.077 225.328 163.516 229.009 159.515 232.17C160.203 231.203 160.685 230.104 160.93 228.942H160.912Z" fill="#121212"/>
<path fill-rule="evenodd" clip-rule="evenodd" d="M77.1317 173.434C75.2622 178.545 73.8512 183.813 72.9155 189.174C73.4938 188.147 74.3566 187.31 75.3999 186.762C74.4594 193.263 74.6804 199.879 76.0527 206.302C76.2387 204.937 76.9156 203.686 77.9568 202.784C82.2365 220.066 93.4706 235.507 124.897 236.205C156.324 236.903 166.035 221.235 171.838 202.784C172.394 204.644 172.633 206.584 172.545 208.523C175.365 203.516 176.563 197.756 175.972 192.039C176.462 193.216 176.862 194.429 177.169 195.666C177.616 189.828 176.396 183.982 173.651 178.81C175.313 179.441 176.739 180.572 177.731 182.047C177.559 175.285 176.081 168.619 173.379 162.417C174.634 163.308 175.728 164.406 176.616 165.663C175.862 158.526 173.842 151.581 170.65 145.153C168.23 141.412 165.081 138.196 161.392 135.696C161.678 136.081 161.869 136.528 161.949 137.001C162.029 137.474 161.997 137.959 161.855 138.416C158.736 135.998 153.9 133.898 147.347 132.115C148.135 133.453 148.4 135.036 148.091 136.558C146.882 134.581 143.056 133.1 136.612 132.115C137.319 132.695 137.782 133.928 137.999 135.742C134.868 133.97 129.467 132.798 121.796 132.224C122.697 132.942 123.399 133.878 123.836 134.944C120.714 133.642 117.479 132.632 114.171 131.924C109.703 132.666 105.404 134.201 101.477 136.458C101.921 135.324 103.58 134.146 106.473 132.94C101.628 133.474 97.0208 135.317 93.1442 138.271C88.4021 153.622 83.6056 164.412 77.4037 169.018C76.624 169.598 75.8442 170.142 75.0644 170.668C74.261 173.234 73.8424 175.904 73.8222 178.593C74.2554 176.52 75.4327 174.679 77.1317 173.415V173.434Z" fill="black"/>
<path fill-rule="evenodd" clip-rule="evenodd" d="M177.006 180.189C176.634 174.145 175.207 168.213 172.79 162.662L171.883 160.567L173.751 161.891C174.457 162.388 175.116 162.95 175.718 163.569C174.827 157.262 172.929 151.139 170.097 145.434C168.107 142.334 165.58 139.614 162.634 137.401C162.64 137.787 162.588 138.172 162.48 138.543L162.217 139.45L161.465 138.861C157.956 136.141 152.851 134.282 148.435 133.031C148.875 134.188 148.963 135.45 148.689 136.657L148.308 138.144L147.52 136.83C146.205 134.644 141.109 133.475 137.963 132.922C138.3 133.776 138.516 134.673 138.607 135.587L138.761 136.848L137.655 136.222C134.028 134.164 127.989 133.33 123.428 132.922C123.809 133.434 124.132 133.988 124.389 134.572L125.042 136.032L123.564 135.424C120.522 134.171 117.371 133.197 114.153 132.514C109.807 133.271 105.625 134.778 101.794 136.966L100.262 137.791L100.896 136.168C101.245 135.435 101.783 134.808 102.456 134.354C99.2893 135.218 96.3186 136.683 93.7063 138.67C90.8774 147.828 85.7091 163.659 77.7935 169.544C77.0863 170.07 76.3518 170.577 75.6174 171.076C75.2351 172.344 74.9473 173.638 74.756 174.948C75.3104 174.159 75.9904 173.467 76.7689 172.899L78.4645 171.684L77.7482 173.642C76.1632 177.966 74.9083 182.403 73.9944 186.916C74.3403 186.634 74.714 186.388 75.1096 186.182L76.2158 185.62L76.0345 186.844C75.2224 192.488 75.2959 198.223 76.2521 203.845C76.5923 203.252 77.0343 202.724 77.5578 202.285L78.3466 201.623L78.5914 202.621C84.4397 226.249 101.259 235.035 124.924 235.561C139.504 235.888 153.585 232.841 162.707 220.61C166.696 215.251 169.244 208.913 171.239 202.584L171.865 200.59L172.454 202.593C172.786 203.693 173.011 204.823 173.125 205.966C175.066 201.619 175.829 196.838 175.337 192.103L174.893 187.805L176.571 191.785V191.849C176.358 187.387 175.17 183.026 173.089 179.073L172.291 177.568L173.878 178.176C175.046 178.615 176.111 179.291 177.006 180.161V180.189Z" fill="white"/>
<path fill-rule="evenodd" clip-rule="evenodd" d="M207.218 102.221C212.748 108.205 224.445 92.7182 216.665 88.4204C209.557 84.4943 202.33 99.4369 207.218 102.221Z" fill="#F6A5A4"/>
<path fill-rule="evenodd" clip-rule="evenodd" d="M216.702 88.4021C220.7 96.1907 211.071 103.979 207.254 102.202C212.785 108.187 224.481 92.6999 216.702 88.4021Z" fill="#E59595"/>
<path fill-rule="evenodd" clip-rule="evenodd" d="M71.2109 133.321L72.2808 131.507C76.9775 123.673 85.3465 118.605 93.5976 115.186L93.8424 115.087L94.0872 115.186C104.357 119.442 115.396 121.528 126.51 121.313C137.625 121.097 148.575 118.585 158.672 113.935H158.745H158.826C172.146 111.414 189.319 105.856 193.744 91.3399C193.698 82.4632 197.797 76.4789 206.256 73.786C207.571 71.0205 211.697 69.9869 214.48 70.0503C217.554 70.1229 220.6 71.3651 221.997 74.2121C224.808 74.9375 226.403 77.3131 227.292 79.9788C228.356 82.9168 228.216 86.1564 226.902 88.9915C228.298 94.0147 226.721 99.5094 223.874 103.735C222.308 106.091 220.289 108.113 217.936 109.683C215.583 111.254 212.941 112.341 210.164 112.883C208.596 116.338 206.356 120.599 203.509 123.637L205.594 122.467L203.654 124.97C201.396 127.889 197.307 130.628 193.272 132.867L190.906 135.134C185.257 140.574 178.574 144.591 170.74 145.77L170.323 145.833L170.106 145.471C168.112 142.36 165.579 139.63 162.625 137.41C162.631 137.796 162.579 138.181 162.471 138.552L162.208 139.459L161.456 138.87C157.947 136.15 152.842 134.291 148.426 133.04C148.866 134.197 148.954 135.459 148.68 136.666L148.299 138.153L147.511 136.839C146.196 134.653 141.1 133.484 137.954 132.931C138.291 133.785 138.507 134.682 138.598 135.596L138.752 136.857L137.646 136.231C134.019 134.173 127.98 133.339 123.419 132.931C123.8 133.443 124.123 133.997 124.38 134.581L125.033 136.041L123.555 135.433C120.513 134.18 117.363 133.206 114.144 132.523C109.798 133.281 105.616 134.787 101.785 136.975L100.253 137.8L100.887 136.177C101.236 135.444 101.774 134.817 102.447 134.363C99.2803 135.227 96.3096 136.692 93.6973 138.679C90.8683 147.837 85.7001 163.668 77.7845 169.553C77.0138 170.124 76.225 170.677 75.4271 171.212C72.172 173.406 68.4273 175.401 65.4079 177.885C63.7033 182.945 60.2487 185.874 54.881 186.218C52.9124 187.875 50.4952 188.908 47.9374 189.185C45.3796 189.463 42.797 188.973 40.5187 187.778L39.9112 187.524C38.4105 186.986 37.1823 185.878 36.4929 184.441V184.396V184.341C36.0028 182.402 35.8768 180.388 36.1212 178.402C37.2364 169.861 45.56 163.632 52.442 159.561C57.0299 156.841 61.5091 147.774 63.7668 143.167C65.4561 139.737 67.8217 136.684 70.7212 134.191C71.374 133.628 72.0889 133.141 72.852 132.74C72.2977 132.875 71.7596 133.07 71.2471 133.321H71.2109ZM216.348 88.9825C210.001 85.4554 203.427 99.328 207.535 101.676L207.616 101.722L207.689 101.794C208.194 102.374 208.881 102.765 209.638 102.9C212.358 103.354 215.187 100.588 216.566 98.5845C218.488 95.81 220.084 91.0588 216.348 88.9915V88.9825Z" fill="black"/>
<path fill-rule="evenodd" clip-rule="evenodd" d="M193.925 92.718C189.954 103.599 178.287 110.852 158.926 114.479C148.755 119.174 137.723 121.714 126.523 121.942C115.323 122.17 104.196 120.08 93.8425 115.803C83.7539 119.956 76.748 125.299 72.825 131.834C74.2395 130.655 75.4454 130.31 76.4518 130.818C70.8937 134.118 66.8135 138.298 64.3291 143.412C60.1038 152.089 56.4316 157.92 52.7504 160.078C40.2741 167.458 34.9245 175.238 37.1006 184.151C37.6508 185.327 38.6211 186.255 39.8207 186.753C39.4416 185.327 39.3684 183.837 39.6059 182.38C39.8434 180.924 40.3863 179.534 41.1989 178.302C39.7643 180.928 39.3818 184.001 40.129 186.898V186.789C42.3633 188.157 44.9765 188.774 47.5867 188.551C50.1969 188.327 52.6672 187.275 54.6364 185.547C48.3136 185.511 46.4306 182.488 48.9876 176.48C47.1741 182.265 49.1236 185.085 54.727 185.012C56.1682 185.047 57.6083 184.907 59.0158 184.595C61.7722 183.386 63.7216 181.02 64.8641 177.495C67.6567 175.165 71.2836 173.234 75.0736 170.677C75.8534 170.151 76.6332 169.607 77.4129 169.027C83.6148 164.421 88.4113 153.613 93.1534 138.28C97.0287 135.312 101.64 133.456 106.491 132.913C103.599 134.118 101.958 135.297 101.495 136.431C105.422 134.174 109.721 132.639 114.189 131.897C117.483 132.589 120.706 133.581 123.818 134.862C123.381 133.796 122.679 132.86 121.778 132.142C129.449 132.746 134.85 133.919 137.981 135.66C137.764 133.846 137.301 132.631 136.594 132.033C143.056 133.018 146.882 134.499 148.073 136.476C148.382 134.954 148.117 133.371 147.329 132.033C153.906 133.804 158.742 135.905 161.837 138.335L161.891 138.117C159.468 134.749 156.706 131.638 153.649 128.832C158.251 131.893 162.457 135.511 166.171 139.604L166.026 139.468C167.795 141.137 169.343 143.026 170.632 145.09C177.65 144.038 184.254 140.55 190.443 134.626C189.059 135.219 187.591 135.592 186.091 135.732C194.85 131.628 200.529 127.895 203.128 124.535C202.266 125.001 201.326 125.308 200.354 125.441C203.582 123.32 206.698 118.922 209.702 112.249C221.281 110.335 228.906 97.986 226.186 88.8192C226.848 87.4669 227.23 85.9949 227.309 84.4915C227.389 82.988 227.164 81.484 226.648 80.0694C225.597 76.9322 223.874 75.1369 221.516 74.6292C218.896 68.5633 208.306 69.9868 206.701 74.1667C198.389 76.7236 194.273 82.4359 194.351 91.3036C194.666 94.5639 195.649 97.7242 197.241 100.587C198.832 103.45 200.997 105.954 203.6 107.942C200.975 106.239 198.75 103.989 197.077 101.346C195.404 98.7021 194.323 95.728 193.907 92.6274L193.925 92.718ZM216.702 88.4021C224.463 92.6999 212.785 108.187 207.254 102.202C202.367 99.4186 209.593 84.476 216.702 88.4021Z" fill="#333333"/>
<path fill-rule="evenodd" clip-rule="evenodd" d="M153.667 128.887C158.269 131.947 162.475 135.565 166.189 139.659L166.044 139.523C167.813 141.192 169.361 143.081 170.65 145.144C177.668 144.092 184.272 140.605 190.462 134.681C189.077 135.273 187.609 135.646 186.109 135.787C194.868 131.683 200.547 127.95 203.146 124.589C202.284 125.056 201.344 125.363 200.372 125.496C203.6 123.374 206.716 118.977 209.72 112.303C212.396 111.828 214.952 110.828 217.239 109.361C219.527 107.893 221.501 105.987 223.049 103.753C218.888 108.092 213.303 110.786 207.317 111.342C203.652 118.566 197.488 124.214 189.972 127.237C191.519 127.218 193.058 127.021 194.56 126.647C189.182 131.54 182.76 135.144 175.782 137.183C177.651 137.495 179.567 137.38 181.385 136.848C178.012 138.714 174.413 140.14 170.677 141.091C165.53 136.347 159.824 132.249 153.685 128.887H153.667Z" fill="#212221"/>
<path fill-rule="evenodd" clip-rule="evenodd" d="M80.4685 127.635C82.9643 123.908 86.4365 120.937 90.5058 119.049C98.5828 123.765 107.684 126.45 117.027 126.874C119.37 128.426 122.118 129.254 124.929 129.254C127.74 129.254 130.488 128.426 132.831 126.874C143.441 126.123 153.744 122.983 162.97 117.689C169.154 116.685 175.072 114.443 180.369 111.098C185.666 107.753 190.234 103.374 193.798 98.2217C195.938 102.449 199.368 105.885 203.591 108.032C200.966 106.33 198.741 104.08 197.068 101.436C195.395 98.7927 194.314 95.8187 193.898 92.718C190.543 101.93 181.633 108.561 167.168 112.611C156.701 119.96 144.442 124.346 131.689 125.305C129.815 126.438 127.667 127.037 125.478 127.037C123.288 127.037 121.14 126.438 119.267 125.305C109.37 124.523 99.7401 121.711 90.9772 117.045C82.4058 121.01 76.3611 125.94 72.843 131.833C74.2575 130.655 75.4634 130.31 76.4699 130.818C70.9117 134.118 66.8315 138.298 64.3472 143.412C60.1219 152.089 56.4497 157.92 52.7685 160.078C40.2921 167.458 34.9425 175.238 37.1186 184.151C37.6689 185.327 38.6391 186.255 39.8388 186.753C39.4596 185.327 39.3864 183.837 39.6239 182.38C39.8615 180.924 40.4044 179.534 41.217 178.302C39.8041 180.895 39.4158 183.924 40.1289 186.789C42.3632 188.157 44.9764 188.774 47.5866 188.551C50.1968 188.327 52.6671 187.275 54.6363 185.547C50.0483 185.547 47.7906 183.906 47.8904 180.714C47.8118 183.507 48.9603 185.169 51.3359 185.701C49.8354 186.577 48.147 187.082 46.4118 187.172C44.6765 187.261 42.945 186.934 41.362 186.218C40.7829 184.976 40.473 183.625 40.4526 182.255C40.4323 180.884 40.7021 179.525 41.2442 178.266C39.7389 180.32 38.9692 182.821 39.059 185.366C38.4506 184.958 38.007 184.348 37.8077 183.643C37.4367 182.042 37.3174 180.393 37.4541 178.756C39.059 171.366 45.1884 166.062 52.6052 162.245C65.408 155.653 64.0751 137.51 84.9114 126.711C83.3857 126.574 81.8523 126.869 80.4866 127.563L80.4685 127.635ZM90.5692 137.364C86.5616 154.093 80.4322 164.475 73.7769 168.193C70.2136 170.196 65.6166 173.887 62.8511 175.927C57.7917 184.74 49.2504 183.752 48.9784 176.435C47.165 182.219 49.1144 185.039 54.7179 184.967C56.1591 185.002 57.5992 184.861 59.0066 184.55C61.763 183.341 63.7125 180.974 64.8549 177.45C67.6476 175.12 71.2744 173.189 75.0645 170.632C75.8443 170.106 76.624 169.562 77.4038 168.981C83.6057 164.375 88.4022 153.567 93.1443 138.235C97.0195 135.266 101.631 133.411 106.482 132.867C101.105 133.166 94.8036 134.001 90.5692 137.328V137.364Z" fill="#212221"/>
<path fill-rule="evenodd" clip-rule="evenodd" d="M202.92 107.443C193.853 92.017 195.364 81.4388 207.453 75.7083C208.199 74.5283 209.244 73.5669 210.482 72.9217C211.72 72.2765 213.107 71.9706 214.502 72.035C215.896 72.0995 217.249 72.5321 218.422 73.2887C219.595 74.0454 220.547 75.0992 221.181 76.3431C222.289 76.8118 223.284 77.5134 224.097 78.4005C224.91 79.2875 225.523 80.3392 225.893 81.484C226.264 82.6288 226.384 83.84 226.245 85.0352C226.106 86.2305 225.712 87.382 225.089 88.4114C225.984 90.826 226.3 93.4168 226.011 95.9757C225.723 98.5346 224.839 100.99 223.429 103.145C226.385 98.7025 227.582 93.3711 226.231 88.8284C226.893 87.4761 227.275 86.0042 227.355 84.5007C227.434 82.9972 227.209 81.4932 226.694 80.0787C225.642 76.9415 223.919 75.1462 221.562 74.6384C218.941 68.5725 208.351 69.9961 206.746 74.176C198.434 76.7329 194.318 82.4452 194.397 91.3128C194.986 97.6071 198.052 103.409 202.92 107.443Z" fill="#212221"/>
<path fill-rule="evenodd" clip-rule="evenodd" d="M170.16 198.54C168.378 207.332 164.106 215.425 157.852 221.855C151.598 228.286 143.627 232.782 134.889 234.809L134.3 234.945C133.257 235.171 132.187 235.371 131.117 235.525C132.232 235.462 133.348 235.38 134.454 235.271L135.061 235.208C145.842 234.002 155.725 230.039 162.698 220.7C166.687 215.342 169.235 209.004 171.23 202.675L171.856 200.68L172.445 202.684C172.563 203.056 172.663 203.437 172.753 203.826C172.92 204.562 173.041 205.307 173.116 206.057C173.424 205.359 173.705 204.652 173.959 203.926C175.222 200.318 175.707 196.483 175.383 192.674C175.383 192.487 175.365 192.296 175.328 192.103V191.867L174.902 187.805L176.58 191.785V191.849C176.365 187.386 175.173 183.025 173.089 179.073L172.291 177.568L173.878 178.176C175.046 178.615 176.111 179.291 177.006 180.161C176.634 174.118 175.207 168.186 172.79 162.635L171.883 160.54L173.751 161.864C174.457 162.361 175.116 162.922 175.718 163.541C174.816 157.276 172.922 151.194 170.106 145.525C168.112 142.414 165.579 139.684 162.625 137.464C162.631 137.851 162.579 138.236 162.471 138.607C167.986 143.661 171.537 150.501 172.499 157.92C170.375 156.269 168.066 154.872 165.618 153.758C170.061 160.397 173.143 167.852 174.685 175.691C172.385 174.002 169.939 172.521 167.377 171.267C170.439 175.719 172.709 180.667 174.086 185.892C173.496 184.695 172.545 183.715 171.366 183.09C172.388 186.727 173.017 190.463 173.243 194.234C173.243 194.515 173.243 194.796 173.243 195.077C173.334 196.889 173.334 198.705 173.243 200.517C172.913 199.221 172.406 197.976 171.738 196.818C171.629 196.636 171.529 196.464 171.411 196.292C171.188 195.931 170.946 195.583 170.686 195.249C170.595 195.993 170.478 196.736 170.351 197.47C170.287 197.842 170.215 198.223 170.133 198.595L170.16 198.54Z" fill="#CECECE"/>
<path fill-rule="evenodd" clip-rule="evenodd" d="M116.057 234.809C107.41 233.245 99.4666 229.022 93.3342 222.729C87.2018 216.435 83.1859 208.385 81.8466 199.701C81.7922 199.347 81.7469 199.003 81.7015 198.649C81.6199 198.024 81.5565 197.398 81.5021 196.763C81.1938 196.981 80.8916 197.207 80.5954 197.443L80.142 197.824C79.2099 198.644 78.3789 199.573 77.6667 200.59C77.457 198.635 77.3511 196.671 77.3493 194.705C77.3493 194.406 77.3493 194.116 77.3493 193.798C77.4035 189.812 77.8776 185.843 78.7638 181.957C77.6216 182.718 76.5421 183.57 75.5359 184.504C76.8507 179.055 79.0303 173.851 81.9917 169.09C88.5001 159.96 92.6774 149.377 94.1597 138.262L93.6792 138.616C90.8503 147.774 85.682 163.605 77.7664 169.489C77.0592 170.015 76.3247 170.523 75.5903 171.022C75.208 172.289 74.9202 173.583 74.7289 174.893C75.2833 174.105 75.9633 173.413 76.7418 172.844L78.4374 171.629L77.7211 173.588C76.1361 177.911 74.8812 182.349 73.9673 186.862C74.3132 186.58 74.6869 186.334 75.0825 186.127L76.1887 185.565L76.0074 186.789C75.7716 188.421 75.6175 190.054 75.5268 191.695C75.5268 191.976 75.5268 192.257 75.5268 192.538C75.3812 196.304 75.6273 200.075 76.2613 203.79C76.6014 203.198 77.0434 202.67 77.5669 202.231L78.3558 201.569L78.6006 202.566C83.6872 223.112 97.0521 232.433 116.021 234.863L116.628 234.936C117.644 235.063 118.677 235.162 119.72 235.244C118.695 235.153 117.68 235.017 116.664 234.854L116.075 234.745L116.057 234.809Z" fill="#CECECE"/>
<path fill-rule="evenodd" clip-rule="evenodd" d="M107.098 223.384C106.255 222.985 105.43 222.559 104.614 222.106C87.0873 212.359 81.6924 193.934 95.6829 176.634C103.027 167.567 123.582 162.063 135.179 163.569C119.402 158.527 93.4706 165.908 85.02 179.654C84.1286 181.107 83.3408 182.622 82.6626 184.187C83.6328 172.899 93.7245 157.43 93.9693 139.758C92.323 150.337 88.2277 160.384 82.0098 169.099C79.0483 173.86 76.8688 179.064 75.554 184.514C76.5602 183.579 77.6396 182.727 78.7819 181.966C77.8957 185.852 77.4215 189.821 77.3674 193.807C77.3674 194.107 77.3674 194.397 77.3674 194.714C77.3691 196.68 77.475 198.644 77.6847 200.599C78.397 199.582 79.2279 198.653 80.1601 197.833L80.6134 197.452C80.9036 197.217 81.2058 196.99 81.5201 196.772C81.5745 197.407 81.638 198.033 81.7196 198.658L81.8647 199.71C83.2046 208.39 87.2186 216.436 93.3473 222.728C99.4761 229.019 107.415 233.242 116.057 234.809L116.646 234.918C117.662 235.081 118.677 235.217 119.702 235.307C121.4 235.44 123.138 235.528 124.915 235.57C126.992 235.616 129.068 235.57 131.117 235.489C132.187 235.335 133.257 235.135 134.3 234.909L134.889 234.772C143.627 232.746 151.598 228.25 157.852 221.819C164.106 215.389 168.378 207.295 170.16 198.504L170.378 197.38C170.505 196.645 170.623 195.902 170.713 195.158C170.973 195.493 171.216 195.841 171.439 196.201L171.765 196.727C172.434 197.885 172.94 199.13 173.27 200.426C173.361 198.614 173.361 196.798 173.27 194.986V194.143C173.033 190.386 172.394 186.666 171.366 183.045C172.545 183.67 173.496 184.65 174.086 185.846C172.709 180.621 170.439 175.673 167.377 171.221C169.939 172.476 172.385 173.956 174.685 175.646C173.488 169.603 171.375 163.778 168.419 158.373C168.616 157.378 168.728 156.368 168.755 155.354C170.05 156.109 171.292 156.951 172.472 157.874C171.51 150.456 167.959 143.616 162.444 138.561L162.181 139.468L161.429 138.879C158.755 136.942 155.797 135.431 152.661 134.4C156.974 138.531 160.11 143.736 161.747 149.481C163.383 155.225 163.461 161.302 161.973 167.087C165.346 173.066 167.376 179.71 167.921 186.554C167.514 193.654 165.389 200.549 161.728 206.646C161.193 207.553 160.631 208.396 160.041 209.24C156.661 214.035 152.342 218.094 147.347 221.172C146.441 221.743 145.534 222.269 144.527 222.768C138.555 225.854 131.928 227.461 125.205 227.455C118.918 227.459 112.709 226.065 107.026 223.375L107.098 223.384ZM164.747 144.074C164.992 145.135 165.191 146.278 165.355 147.465C165.091 146.347 164.889 145.215 164.747 144.074Z" fill="#E5E5E4"/>
<path fill-rule="evenodd" clip-rule="evenodd" d="M85.02 179.654C93.4706 165.908 119.402 158.527 135.179 163.569C119.611 156.424 92.183 164.094 85.02 179.654Z" fill="#CECECE"/>
<path fill-rule="evenodd" clip-rule="evenodd" d="M85.02 179.654C92.183 164.094 119.611 156.424 135.179 163.569C121.461 155.499 94.7853 160.658 86.3438 174.15C91.8234 163.021 94.5121 150.726 94.1778 138.326C94.1143 138.797 94.0418 139.232 93.9693 139.731C93.7245 157.43 83.6328 172.899 82.6626 184.16C83.3408 182.595 84.1286 181.08 85.02 179.626V179.654Z" fill="#E5E5E4"/>
<path fill-rule="evenodd" clip-rule="evenodd" d="M74.2573 51.0002C70.8026 50.9579 67.4869 49.6329 64.9545 47.2827C63.4015 45.7276 62.2122 43.8478 61.4723 41.7784C60.7323 39.709 60.4599 37.5014 60.6748 35.3142C60.8425 32.8661 61.4378 30.4663 62.4338 28.2237C62.1388 28.121 61.8212 28.1014 61.5158 28.167C61.2104 28.2325 60.9289 28.3807 60.702 28.5954C62.5224 24.9441 65.2088 21.7938 68.5269 19.4195C68.2949 19.3078 68.0408 19.2498 67.7834 19.2498C67.526 19.2498 67.2718 19.3078 67.0399 19.4195C70.4038 16.7719 73.9853 15.4844 78.2196 14.4054C81.3885 13.5569 84.7368 13.6578 87.8489 14.6955C87.8216 14.0744 87.5924 13.4791 87.1961 13C90.968 14.768 93.9249 17.9064 95.4653 21.777C95.6103 22.0943 95.7373 22.4298 95.8642 22.7743V22.8831V23.0101C96.2904 29.2664 93.8967 35.568 90.1157 40.4915C86.2261 45.6572 80.6886 49.3392 74.4205 50.9277H74.3117L74.2573 51.0002Z" fill="black"/>
<path fill-rule="evenodd" clip-rule="evenodd" d="M95.0665 23.1188C95.4564 28.7766 93.4435 34.906 89.4993 40.0289C85.7318 45.0418 80.3632 48.6156 74.2847 50.1569C66.3238 49.9211 60.9742 43.7283 61.5182 35.3775C62.0622 27.0267 68.3367 18.8572 76.5061 15.8742C84.6756 12.8911 92.4552 15.9286 95.0665 23.1278V23.1188Z" fill="#1A1A1A"/>
<path fill-rule="evenodd" clip-rule="evenodd" d="M91.8294 27.6523C92.0022 32.2508 90.5118 36.7575 87.6313 40.3463C84.798 44.1362 80.7487 46.8378 76.1614 47.9989C70.1771 47.8176 66.1876 43.1571 66.5594 36.8736C66.9311 30.5901 71.6913 24.4426 77.8388 22.1939C83.9863 19.9453 89.8437 22.1939 91.8112 27.6342L91.8294 27.6523Z" fill="#DD847D"/>
<path fill-rule="evenodd" clip-rule="evenodd" d="M72.5347 47.2373C65.7979 40.5912 67.4027 28.4594 79.6705 24.5696C83.0072 23.5087 86.5615 24.5696 88.1392 26.5643C88.8646 26.0112 89.6081 25.4763 90.3606 24.9595C87.6405 21.5684 82.8894 20.4259 77.9024 22.2393C71.755 24.488 67.0219 30.6355 66.623 36.919C66.3056 41.7971 68.6631 45.6959 72.5347 47.2827V47.2373Z" fill="#C87871"/>
<path fill-rule="evenodd" clip-rule="evenodd" d="M61.8174 33.0292C67.7745 15.9015 88.1936 13.0181 93.3256 23.0554C93.7789 22.7834 94.2323 22.5204 94.7128 22.2575C91.8023 15.7111 84.3401 13.0453 76.5061 15.9105C72.8219 17.3217 69.5485 19.6308 66.9833 22.6283C64.4181 25.6258 62.6424 29.2166 61.8174 33.0746V33.0292Z" fill="#333333"/>
<path fill-rule="evenodd" clip-rule="evenodd" d="M176.698 51.0002C180.153 50.9596 183.469 49.6344 186 47.2827C187.556 45.7292 188.748 43.8499 189.489 41.7802C190.231 39.7106 190.504 37.5021 190.289 35.3142C190.113 32.8675 189.518 30.4692 188.53 28.2237C188.824 28.1218 189.14 28.1026 189.444 28.1681C189.747 28.2337 190.027 28.3815 190.253 28.5954C188.439 24.9426 185.755 21.7916 182.437 19.4195C182.669 19.3078 182.923 19.2498 183.181 19.2498C183.438 19.2498 183.692 19.3078 183.924 19.4195C180.551 16.7719 176.97 15.4844 172.735 14.4054C169.569 13.5571 166.224 13.658 163.115 14.6955C163.143 14.0761 163.369 13.4819 163.759 13C159.991 14.7714 157.038 17.9091 155.499 21.777C155.354 22.0943 155.218 22.4298 155.091 22.7743V22.8831V23.0101C154.655 29.2664 157.049 35.568 160.83 40.4915C164.722 45.6594 170.263 49.3418 176.534 50.9277H176.634L176.698 51.0002Z" fill="black"/>
<path fill-rule="evenodd" clip-rule="evenodd" d="M155.889 23.1188C155.499 28.7767 157.521 34.906 161.465 40.029C165.231 45.0435 170.6 48.6177 176.679 50.1569C184.631 49.9212 189.981 43.7283 189.446 35.3775C188.911 27.0267 182.618 18.8482 174.449 15.8651C166.279 12.8821 158.509 15.9195 155.889 23.1188Z" fill="#1A1A1A"/>
<path fill-rule="evenodd" clip-rule="evenodd" d="M159.135 27.6524C158.962 32.2493 160.449 36.7548 163.324 40.3464C166.157 44.1227 170.198 46.8141 174.775 47.9718C180.769 47.7905 184.794 43.13 184.386 36.8465C183.978 30.563 179.245 24.4155 173.098 22.1668C166.95 19.9182 161.102 22.1668 159.135 27.6071V27.6524Z" fill="#DD847D"/>
<path fill-rule="evenodd" clip-rule="evenodd" d="M178.475 47.2373C185.211 40.5912 183.607 28.4594 171.33 24.5696C167.993 23.5087 164.439 24.5696 162.87 26.5643C162.145 26.0082 161.401 25.4733 160.64 24.9595C163.36 21.5684 168.111 20.4259 173.098 22.2393C179.245 24.488 183.978 30.6355 184.386 36.919C184.704 41.7971 182.346 45.6959 178.475 47.2827V47.2373Z" fill="#C87871"/>
<path fill-rule="evenodd" clip-rule="evenodd" d="M189.138 33.0292C183.181 15.9015 162.761 13.0181 157.638 23.0554L156.251 22.2575C159.162 15.7111 166.624 13.0453 174.449 15.9105C178.134 17.3202 181.408 19.629 183.974 22.6267C186.539 25.6244 188.314 29.2159 189.138 33.0746V33.0292Z" fill="#333333"/>
<path fill-rule="evenodd" clip-rule="evenodd" d="M72.4802 101.449L72.5618 101.703C72.9434 103.321 73.66 104.841 74.6654 106.164C73.3923 104.961 72.1818 103.693 71.0385 102.365C67.6292 95.854 65.7968 88.6331 65.6889 81.2842L64.2019 83.9408L64.6009 79.8969C65.5096 70.4733 67.6181 61.2042 70.8753 52.3148C77.5034 27.1808 101.504 14.6138 125.505 14.6138C149.505 14.6138 173.515 27.1808 180.134 52.3148C183.39 61.2051 185.501 70.4736 186.417 79.8969L186.807 83.9408L185.329 81.2842C185.217 88.6326 183.385 95.8525 179.98 102.365C178.825 103.689 177.616 104.955 176.353 106.164C177.357 104.839 178.077 103.32 178.466 101.703L178.547 101.449C177.168 103.646 175.507 105.652 173.606 107.416C162.109 118.097 147.139 124.072 131.761 125.332C129.889 126.471 127.741 127.073 125.55 127.073C123.359 127.073 121.211 126.471 119.339 125.332C103.925 124.072 89.0004 118.079 77.5034 107.416C75.5968 105.654 73.9321 103.648 72.5527 101.449H72.4802Z" fill="black"/>
<path fill-rule="evenodd" clip-rule="evenodd" d="M71.4376 97.7775C73.0206 101.197 75.2532 104.277 78.0112 106.845C89.0005 117.054 103.2 122.902 117.906 124.399C117.082 123.724 116.35 122.944 115.73 122.077C116.674 123.058 117.759 123.892 118.949 124.553H119.031L119.131 124.607H119.185H119.257L119.375 124.671L119.493 124.725H119.548L119.792 124.843H119.847L119.974 124.897H120.055L120.182 124.952H120.246L120.382 125.015L120.491 125.06H120.545L120.672 125.106H120.726L120.826 125.151L120.98 125.196L121.116 125.242L121.261 125.287L121.406 125.332H121.551L121.697 125.378H121.751H121.823H121.896H122.023H122.068H122.159H122.404H122.549H122.685H122.73H122.848L123.165 125.432H123.31H123.365H123.664L124.308 125.505H126.43H126.738H127.028H127.073L127.373 125.459H127.418H127.563H127.681L127.935 125.414H128.034H128.08H128.207H128.261H128.37H128.442H128.515H128.642H128.705H128.76H128.86H128.977H129.05H129.122H129.249H129.313H129.367H129.44L129.685 125.332L129.821 125.287L130.174 125.151H130.256L130.383 125.097H130.464L130.646 125.015H130.727H130.773L130.927 124.943H130.99L131.081 124.897L131.19 124.843H131.235H131.299H131.362L131.489 124.77L131.761 124.625L131.834 124.58C132.98 123.932 134.024 123.119 134.934 122.168C134.316 123.032 133.587 123.813 132.767 124.489C147.438 122.993 161.646 117.145 172.663 106.935C175.418 104.365 177.65 101.286 179.236 97.8682C179.483 99.2727 179.37 100.717 178.91 102.066C182.97 94.5496 184.854 86.0498 184.35 77.5216C184.703 78.3563 185.103 79.1706 185.547 79.9606C184.639 70.5955 182.539 61.3845 179.3 52.5508C166.307 3.0625 84.6574 3.0625 71.6552 52.5508C68.4186 61.3849 66.3223 70.5959 65.417 79.9606C65.8546 79.1686 66.2511 78.3545 66.6048 77.5216C66.0272 86.0021 67.8131 94.4766 71.764 102.003C71.2943 100.655 71.1819 99.2087 71.4376 97.8047V97.7775Z" fill="white"/>
<path fill-rule="evenodd" clip-rule="evenodd" d="M148.336 90.9405C138.579 86.8603 132.749 82.2845 130.845 77.2129C140.901 66.1511 132.495 56.7031 133.973 51.4896C137.047 40.6906 152.389 44.0001 159.307 50.474C178.72 68.6083 163.632 95.3834 152.905 92.89C151.364 92.3006 149.832 91.6478 148.372 90.9405H148.336Z" fill="#333333"/>
<path fill-rule="evenodd" clip-rule="evenodd" d="M102.619 90.9405C112.381 86.8603 118.212 82.2845 120.11 77.2129C110.054 66.1511 118.468 56.7031 116.981 51.4896C113.908 40.6906 98.5662 44.0001 91.648 50.474C72.2353 68.6083 87.323 95.3834 98.0494 92.89C99.6029 92.2855 101.114 91.6357 102.583 90.9405H102.619Z" fill="#333333"/>
<path fill-rule="evenodd" clip-rule="evenodd" d="M106.99 104.251C112.543 100.837 118.935 99.0286 125.455 99.0286C131.974 99.0286 138.366 100.837 143.92 104.251V104.46C141.028 106.718 138.851 110.208 137.292 113.527L137.237 113.636C136.013 116.247 136.394 116.8 134.055 118.976C131.71 121.143 128.634 122.346 125.441 122.346C122.248 122.346 119.173 121.143 116.827 118.976C114.488 116.8 114.869 116.256 113.645 113.636L113.59 113.527C112.04 110.208 109.864 106.718 106.962 104.46V104.251H106.99Z" fill="black"/>
<path fill-rule="evenodd" clip-rule="evenodd" d="M107.325 104.723C112.785 101.362 119.071 99.5823 125.482 99.5823C131.893 99.5823 138.179 101.362 143.639 104.723C140.665 107.017 138.291 109.997 136.721 113.409H114.243C112.67 109.999 110.297 107.019 107.325 104.723Z" fill="#851619"/>
<path fill-rule="evenodd" clip-rule="evenodd" d="M124.87 111.596C121.996 109.9 113.21 110.934 114.089 113.128C115.449 115.948 114.869 116.319 117.263 118.568C119.498 120.637 122.432 121.786 125.477 121.786C128.523 121.786 131.457 120.637 133.692 118.568C136.313 116.138 136.023 114.415 137.818 111.36C133.665 110.299 127.572 110.163 124.87 111.623V111.596Z" fill="#EC2024"/>
<path fill-rule="evenodd" clip-rule="evenodd" d="M102.039 61.9351C103.969 61.9351 105.855 62.5073 107.459 63.5793C109.064 64.6513 110.314 66.175 111.053 67.9577C111.791 69.7404 111.984 71.7021 111.608 73.5946C111.231 75.4871 110.302 77.2255 108.938 78.5899C107.573 79.9544 105.835 80.8836 103.942 81.26C102.05 81.6365 100.088 81.4433 98.3056 80.7048C96.5229 79.9664 94.9992 78.7159 93.9272 77.1115C92.8552 75.5071 92.283 73.6209 92.283 71.6913C92.2818 70.4097 92.5333 69.1405 93.0232 67.9563C93.5131 66.7721 94.2316 65.6961 95.1378 64.7899C96.044 63.8837 97.12 63.1652 98.3042 62.6753C99.4884 62.1854 100.758 61.9339 102.039 61.9351Z" fill="white"/>
<path fill-rule="evenodd" clip-rule="evenodd" d="M102.039 65.7341C103.226 65.7341 104.387 66.0862 105.374 66.7457C106.361 67.4053 107.13 68.3427 107.585 69.4395C108.039 70.5363 108.158 71.7432 107.926 72.9076C107.695 74.0719 107.123 75.1415 106.283 75.9809C105.444 76.8204 104.374 77.392 103.21 77.6236C102.046 77.8552 100.839 77.7364 99.742 77.2821C98.6452 76.8278 97.7078 76.0584 97.0482 75.0713C96.3886 74.0842 96.0366 72.9237 96.0366 71.7365C96.0366 70.1446 96.669 68.6179 97.7947 67.4922C98.9203 66.3665 100.447 65.7341 102.039 65.7341Z" fill="#33C5F3"/>
<path fill-rule="evenodd" clip-rule="evenodd" d="M102.039 67.4387C102.88 67.4387 103.702 67.6881 104.401 68.1554C105.101 68.6227 105.646 69.2868 105.968 70.0638C106.289 70.8409 106.374 71.6959 106.21 72.5208C106.046 73.3457 105.641 74.1034 105.046 74.6981C104.451 75.2929 103.693 75.6979 102.868 75.862C102.044 76.0261 101.189 75.9418 100.411 75.62C99.6345 75.2981 98.9703 74.7531 98.5031 74.0537C98.0358 73.3544 97.7864 72.5323 97.7864 71.6912C97.7852 71.1324 97.8944 70.5789 98.1076 70.0624C98.3209 69.546 98.6341 69.0767 99.0292 68.6816C99.4244 68.2865 99.8936 67.9733 100.41 67.76C100.927 67.5467 101.48 67.4375 102.039 67.4387Z" fill="black"/>
<path fill-rule="evenodd" clip-rule="evenodd" d="M99.5998 67.4387C99.9585 67.4387 100.309 67.5451 100.607 67.7443C100.906 67.9436 101.138 68.2268 101.275 68.5582C101.412 68.8895 101.448 69.2541 101.378 69.6059C101.308 69.9577 101.136 70.2808 100.882 70.5344C100.628 70.788 100.305 70.9608 99.9536 71.0307C99.6018 71.1007 99.2372 71.0648 98.9058 70.9275C98.5745 70.7903 98.2913 70.5578 98.092 70.2596C97.8927 69.9614 97.7864 69.6108 97.7864 69.2521C97.7864 68.7712 97.9774 68.3099 98.3175 67.9699C98.6576 67.6298 99.1188 67.4387 99.5998 67.4387Z" fill="white"/>
<path fill-rule="evenodd" clip-rule="evenodd" d="M105.176 73.6497C105.403 73.6479 105.624 73.7134 105.814 73.8378C106.003 73.9622 106.15 74.14 106.238 74.3486C106.326 74.5572 106.35 74.7872 106.307 75.0094C106.264 75.2316 106.156 75.436 105.996 75.5967C105.837 75.7574 105.634 75.8671 105.412 75.9119C105.19 75.9568 104.96 75.9347 104.75 75.8485C104.541 75.7623 104.362 75.6158 104.236 75.4278C104.11 75.2397 104.043 75.0185 104.043 74.7921C104.043 74.4907 104.162 74.2015 104.374 73.9875C104.587 73.7735 104.875 73.6521 105.176 73.6497Z" fill="white"/>
<path fill-rule="evenodd" clip-rule="evenodd" d="M148.925 61.9351C150.855 61.9351 152.741 62.5073 154.345 63.5793C155.95 64.6513 157.2 66.175 157.939 67.9577C158.677 69.7404 158.87 71.7021 158.494 73.5946C158.117 75.4871 157.188 77.2255 155.824 78.5899C154.459 79.9544 152.721 80.8836 150.829 81.26C148.936 81.6365 146.974 81.4433 145.192 80.7048C143.409 79.9664 141.885 78.7159 140.813 77.1115C139.741 75.5071 139.169 73.6209 139.169 71.6913C139.168 70.4097 139.419 69.1405 139.909 67.9563C140.399 66.7721 141.118 65.6961 142.024 64.7899C142.93 63.8837 144.006 63.1652 145.19 62.6753C146.374 62.1854 147.644 61.9339 148.925 61.9351Z" fill="white"/>
<path fill-rule="evenodd" clip-rule="evenodd" d="M148.925 65.7341C150.112 65.7341 151.273 66.0862 152.26 66.7457C153.247 67.4053 154.016 68.3427 154.471 69.4395C154.925 70.5363 155.044 71.7432 154.812 72.9076C154.581 74.0719 154.009 75.1415 153.169 75.9809C152.33 76.8204 151.26 77.392 150.096 77.6236C148.932 77.8552 147.725 77.7364 146.628 77.2821C145.531 76.8278 144.594 76.0584 143.934 75.0713C143.275 74.0842 142.923 72.9237 142.923 71.7366C142.921 70.948 143.076 70.1669 143.377 69.4381C143.678 68.7093 144.12 68.0471 144.678 67.4895C145.236 66.9319 145.898 66.4898 146.627 66.1886C147.355 65.8874 148.136 65.7329 148.925 65.7341Z" fill="#33C5F3"/>
<path fill-rule="evenodd" clip-rule="evenodd" d="M148.925 67.4387C149.766 67.4387 150.588 67.6881 151.287 68.1554C151.987 68.6227 152.532 69.2868 152.854 70.0638C153.175 70.8409 153.26 71.6959 153.096 72.5208C152.932 73.3457 152.527 74.1034 151.932 74.6981C151.337 75.2929 150.579 75.6979 149.754 75.862C148.93 76.026 148.075 75.9418 147.297 75.62C146.52 75.2981 145.856 74.7531 145.389 74.0537C144.922 73.3544 144.672 72.5323 144.672 71.6912C144.672 70.5634 145.12 69.4817 145.918 68.6842C146.715 67.8867 147.797 67.4387 148.925 67.4387Z" fill="black"/>
<path fill-rule="evenodd" clip-rule="evenodd" d="M146.477 67.4387C146.835 67.4387 147.186 67.5451 147.484 67.7443C147.782 67.9436 148.015 68.2268 148.152 68.5582C148.289 68.8895 148.325 69.2541 148.255 69.6059C148.185 69.9577 148.013 70.2808 147.759 70.5344C147.505 70.788 147.182 70.9608 146.831 71.0307C146.479 71.1007 146.114 71.0648 145.783 70.9275C145.451 70.7903 145.168 70.5578 144.969 70.2596C144.77 69.9614 144.663 69.6108 144.663 69.2521C144.663 68.7712 144.854 68.3099 145.194 67.9699C145.535 67.6298 145.996 67.4387 146.477 67.4387Z" fill="white"/>
<path fill-rule="evenodd" clip-rule="evenodd" d="M152.026 73.6499C152.252 73.6499 152.473 73.7169 152.661 73.8424C152.849 73.968 152.995 74.1464 153.081 74.3551C153.168 74.5639 153.191 74.7936 153.147 75.0152C153.102 75.2368 152.994 75.4404 152.834 75.6002C152.674 75.76 152.47 75.8688 152.249 75.9129C152.027 75.9569 151.798 75.9343 151.589 75.8478C151.38 75.7614 151.202 75.615 151.076 75.4271C150.951 75.2392 150.884 75.0183 150.884 74.7923C150.884 74.4893 151.004 74.1988 151.218 73.9845C151.432 73.7703 151.723 73.6499 152.026 73.6499Z" fill="white"/>
<path fill-rule="evenodd" clip-rule="evenodd" d="M125.477 108.467C123.688 109.403 121.716 109.933 119.699 110.021C117.683 110.108 115.671 109.751 113.808 108.975C108.259 106.445 102.565 101.595 102.365 95.0209C101.957 81.1845 113.454 76.8867 125.477 76.8867C137.5 76.8867 149.006 81.1664 148.589 95.0209C148.399 101.595 142.696 106.446 137.129 108.984C135.267 109.756 133.259 110.11 131.246 110.021C129.232 109.932 127.263 109.401 125.477 108.467Z" fill="black"/>
<path fill-rule="evenodd" clip-rule="evenodd" d="M125.478 77.5212C111.052 77.5847 102.61 83.4149 102.955 95.0298C103.127 100.833 107.942 105.675 114.053 108.476C115.884 109.233 117.861 109.568 119.839 109.457C121.816 109.345 123.744 108.79 125.478 107.833C127.212 108.79 129.139 109.345 131.117 109.457C133.094 109.568 135.072 109.233 136.902 108.476C143.013 105.675 147.837 100.833 148.009 95.0298C148.354 83.4149 139.913 77.5847 125.478 77.5212Z" fill="white"/>
<path fill-rule="evenodd" clip-rule="evenodd" d="M125.187 88.9187H125.768V108.159H125.187V88.9187Z" fill="black"/>
<path fill-rule="evenodd" clip-rule="evenodd" d="M125.477 80.6226C120.79 80.6226 116.981 82.3 116.981 85.1561C116.981 88.0122 120.79 90.3697 125.477 90.3697C130.165 90.3697 133.973 88.0395 133.973 85.1561C133.973 82.2728 130.174 80.6226 125.477 80.6226Z" fill="#333333"/>
<path fill-rule="evenodd" clip-rule="evenodd" d="M121.062 82.0551C119.847 82.3906 118.976 83.0434 119.103 83.524C119.23 84.0045 120.327 84.1043 121.533 83.7688C122.739 83.4333 123.628 82.7805 123.492 82.2999C123.356 81.8193 122.277 81.7196 121.062 82.0551Z" fill="white"/>
<path fill-rule="evenodd" clip-rule="evenodd" d="M124.353 107.098C118.979 109.686 112.765 108.041 105.711 102.166C107.959 104.888 110.817 107.04 114.053 108.449C115.832 109.186 117.751 109.524 119.674 109.439C121.598 109.354 123.48 108.85 125.187 107.96V98.5391C125.059 101.405 124.781 104.262 124.353 107.098Z" fill="#CECECE"/>
<path fill-rule="evenodd" clip-rule="evenodd" d="M126.602 107.098C126.185 104.269 125.904 101.413 125.768 98.5571V107.96C127.475 108.849 129.357 109.354 131.281 109.439C133.204 109.524 135.123 109.186 136.902 108.449C143.013 105.648 147.837 100.806 148.009 95.0027C148.063 93.4299 147.929 91.8562 147.61 90.315C146.241 83.9681 141.445 79.9695 133.946 78.3374C131.16 77.7625 128.322 77.4799 125.478 77.4942C128.45 77.5216 131.404 77.9642 134.254 78.8089C157.158 86.5341 144.174 113.364 126.602 107.098Z" fill="#CECECE"/>
<path fill-rule="evenodd" clip-rule="evenodd" d="M125.378 112.656C125.756 113.479 125.93 114.382 125.885 115.286C125.839 116.191 125.575 117.071 125.115 117.852C126.448 116.601 126.285 114.978 125.722 112.611C125.656 112.393 125.546 112.191 125.4 112.017C125.253 111.842 125.073 111.699 124.87 111.596C124.021 111.169 123.097 110.913 122.15 110.843C123.773 111.124 124.961 111.659 125.342 112.656H125.378Z" fill="#A51E22"/>
<path fill-rule="evenodd" clip-rule="evenodd" d="M84.2312 81.3751C88.7224 93.3739 94.205 97.9558 100.679 95.1208C101.776 101.169 104.569 104.551 108.078 106.908C111.179 109.012 113.037 112.666 114.842 116.41C114.497 115.676 114.289 114.887 113.681 113.6L113.627 113.491C112.334 110.563 110.539 107.884 108.323 105.575C107.978 105.303 107.642 105.013 107.325 104.668L106.999 104.378C104.369 101.858 102.465 98.6751 102.365 94.9394C102.317 93.5744 102.402 92.2078 102.619 90.8592C101.12 91.5665 99.609 92.2163 98.0857 92.8087C93.1351 93.9602 87.2596 88.8826 84.2675 81.2935L84.2312 81.3751Z" fill="#E5E5E4"/>
<path fill-rule="evenodd" clip-rule="evenodd" d="M166.724 81.3749C162.244 93.3737 156.762 97.9556 150.276 95.1206C149.977 100.815 148.608 104.396 142.115 110.535C140.819 111.759 137.754 116.882 135.614 118.994C129.267 125.341 120.345 124.317 115.531 117.553C115.935 118.055 116.378 118.524 116.855 118.958C119.2 121.125 122.275 122.328 125.468 122.328C128.661 122.328 131.737 121.125 134.082 118.958C134.926 118.263 135.615 117.398 136.104 116.419L136.167 116.301C136.476 115.612 136.702 114.842 137.265 113.581L137.319 113.472C138.619 110.548 140.413 107.871 142.623 105.557C142.968 105.285 143.303 104.995 143.63 104.65L143.947 104.36C146.577 101.839 148.481 98.6568 148.58 94.9211C148.629 93.556 148.544 92.1895 148.326 90.8409C149.823 91.5482 151.355 92.201 152.86 92.7904C157.811 93.9419 163.695 88.8643 166.678 81.2751L166.724 81.3749Z" fill="#E5E5E4"/>
<path fill-rule="evenodd" clip-rule="evenodd" d="M72.4168 95.5922C69.635 88.0077 68.7783 79.8515 69.9233 71.8545C69.2078 72.922 68.5656 74.0368 68.0011 75.1912C68.399 67.9122 69.4982 60.6885 71.2834 53.6206C68.2563 62.1365 66.2861 70.9917 65.417 79.9877C65.8546 79.1957 66.2511 78.3816 66.6048 77.5487C66.0323 86.0201 67.818 94.4845 71.764 102.003C71.2943 100.655 71.1819 99.2086 71.4376 97.8046C73.0206 101.224 75.2532 104.304 78.0112 106.872C80.4841 109.171 83.1372 111.27 85.9449 113.146C78.9306 107.782 74.3141 99.8683 73.0968 91.1221C72.676 91.7896 72.3983 92.5372 72.2813 93.3176C72.1642 94.0979 72.2104 94.8941 72.4168 95.6557V95.5922Z" fill="#CECECE"/>
<path fill-rule="evenodd" clip-rule="evenodd" d="M140.538 103.072C138.786 104.555 136.676 105.552 134.418 105.962C132.16 106.373 129.833 106.183 127.672 105.412C127.329 103.503 127.084 101.579 126.937 99.6451C126.937 99.4456 126.937 99.2461 126.892 99.0557C126.715 96.5267 126.764 93.987 127.037 91.4666C132.541 91.0948 136.231 88.012 133.837 84.3851C133.903 84.646 133.937 84.914 133.937 85.1831C133.947 85.3219 133.947 85.4613 133.937 85.6001C133.602 88.2296 130.093 90.306 125.777 90.3966V98.557V99.0285V99.6179C125.931 102.12 126.185 104.614 126.557 107.098C129.169 108.106 132.018 108.331 134.755 107.745C137.493 107.159 140 105.787 141.971 103.798L142.397 103.363C144.074 101.614 145.294 99.4787 145.947 97.1455C146.601 94.8123 146.667 92.3538 146.142 89.9886C146.069 89.7075 145.996 89.4265 145.906 89.1454C144.555 84.9382 140.919 81.0575 134.246 78.8089C133.248 78.5097 132.224 78.2648 131.199 78.0654C129.311 77.6976 127.392 77.5063 125.469 77.4941H124.671C127.009 77.6846 129.321 78.1161 131.571 78.7817C138.017 80.7402 142.315 84.503 144.129 89.0275C146.214 94.2048 145.244 99.0013 141.064 102.628L140.565 103.036L140.538 103.072Z" fill="#E5E5E4"/>
<path fill-rule="evenodd" clip-rule="evenodd" d="M123.356 106.11C118.865 107.506 114.24 106.645 109.483 103.526L108.921 103.154C107.788 102.365 106.704 101.508 105.675 100.588C104.03 97.7473 103.356 94.4473 103.757 91.1891C104.158 87.9308 105.611 84.8925 107.896 82.5354C105.454 84.6361 103.819 87.5213 103.272 90.6958C103.002 92.1238 102.893 93.5775 102.946 95.0299C103.056 97.6486 104.01 100.161 105.666 102.193C106.373 102.773 107.062 103.317 107.742 103.816L108.268 104.197C114.252 108.428 119.599 109.404 124.308 107.125C124.683 104.641 124.943 102.148 125.088 99.645C125.088 99.4455 125.088 99.2461 125.088 99.0557V98.566V90.4056C120.763 90.315 117.254 88.2386 116.927 85.6092C117 88.6315 119.291 90.587 123.8 91.4756C123.998 94.0002 124.046 96.5344 123.945 99.0647V99.6541C123.836 101.812 123.622 103.967 123.301 106.119L123.356 106.11Z" fill="#E5E5E4"/>
<path fill-rule="evenodd" clip-rule="evenodd" d="M111.931 123.51C92.3766 116.105 80.4322 104.859 76.0981 89.771C76.5027 90.9244 77.2452 91.9291 78.2289 92.6544C75.0211 83.1135 73.5531 73.0739 73.8948 63.014C74.0078 64.2037 74.4824 65.3302 75.2549 66.2419C75.4187 60.7091 76.3089 55.2219 77.9025 49.9211C78.0113 49.5675 78.111 49.2139 78.2289 48.8693C78.4103 48.3072 78.5916 47.745 78.7911 47.1919C81.4995 39.4425 85.6909 32.2946 91.1314 26.1472C91.6664 25.5306 92.2195 24.9322 92.7907 24.3337C92.1197 24.7418 91.4669 25.177 90.8141 25.6122C82.8575 30.9414 76.7373 38.594 73.2873 47.5274C72.979 48.3253 72.6768 49.1413 72.3806 49.9755C72.299 50.2475 72.2083 50.5195 72.1267 50.7915C71.9454 51.3809 71.7822 51.9793 71.619 52.605C71.492 52.9586 71.3651 53.3032 71.2472 53.6477C69.4759 60.708 68.3889 67.9224 68.0012 75.1911C68.5657 74.0367 69.2079 72.9219 69.9234 71.8544C68.7784 79.8514 69.6351 88.0076 72.4169 95.5921C72.2105 94.8305 72.1643 94.0344 72.2814 93.254C72.3984 92.4736 72.6761 91.7261 73.0969 91.0586C74.3232 99.7916 78.9389 107.691 85.945 113.046C93.8089 118.253 102.651 121.804 111.931 123.483V123.51Z" fill="#E5E5E4"/>
<path fill-rule="evenodd" clip-rule="evenodd" d="M178.538 95.5922C181.323 88.0084 182.182 79.8523 181.041 71.8545C181.756 72.922 182.398 74.0368 182.963 75.1912C182.56 67.9127 181.461 60.6895 179.681 53.6206C182.703 62.1377 184.674 70.9924 185.547 79.9877C185.103 79.1977 184.703 78.3834 184.35 77.5487C184.926 86.0193 183.143 94.4838 179.2 102.003C179.661 100.653 179.773 99.2091 179.526 97.8046C177.94 101.222 175.708 104.301 172.953 106.872C170.475 109.169 167.819 111.268 165.01 113.146C172.024 107.782 176.641 99.8683 177.858 91.1221C178.279 91.7896 178.557 92.5372 178.674 93.3176C178.791 94.0979 178.745 94.8941 178.538 95.6557V95.5922Z" fill="#CECECE"/>
<path fill-rule="evenodd" clip-rule="evenodd" d="M139.024 123.51C158.578 116.105 170.523 104.859 174.857 89.771C174.456 90.9237 173.716 91.9286 172.735 92.6544C175.943 83.1135 177.411 73.0739 177.069 63.014C176.952 64.2027 176.478 65.328 175.709 66.2419C175.541 60.7096 174.651 55.2229 173.062 49.9211L172.735 48.8693C172.554 48.3072 172.363 47.745 172.173 47.1919C169.457 39.4458 165.267 32.2992 159.833 26.1472C159.289 25.5306 158.736 24.9322 158.173 24.3337C158.844 24.7418 159.497 25.177 160.141 25.6122C168.116 30.9327 174.253 38.5866 177.713 47.5274C178.012 48.3253 178.311 49.1413 178.62 49.9755C178.71 50.2475 178.792 50.5195 178.874 50.7915C179.055 51.3809 179.227 51.9793 179.381 52.605L179.762 53.6477C181.543 60.7166 182.642 67.9398 183.044 75.2183C182.48 74.0639 181.838 72.9491 181.122 71.8816C182.264 79.8794 181.404 88.0355 178.62 95.6193C178.826 94.8577 178.872 94.0616 178.755 93.2812C178.638 92.5008 178.361 91.7533 177.94 91.0858C176.695 99.8301 172.052 107.731 165.019 113.073C157.155 118.28 148.313 121.831 139.033 123.51H139.024Z" fill="#E5E5E4"/>
<path fill-rule="evenodd" clip-rule="evenodd" d="M135.252 122.014C132.446 124.162 129.011 125.326 125.477 125.326C121.944 125.326 118.509 124.162 115.703 122.014C116.647 122.994 117.732 123.829 118.922 124.489H119.004L119.103 124.543H119.158H119.23L119.348 124.607L119.466 124.661H119.52L119.765 124.779H119.82L119.947 124.834H120.028L120.155 124.888H120.219L120.355 124.951L120.463 124.997H120.518L120.645 125.042H120.699L120.799 125.087L120.953 125.133L121.089 125.178L121.234 125.223L121.379 125.269H121.524L121.669 125.314H121.724H121.796H121.869H121.996H122.041H122.132H122.404H122.549H122.685H122.73H122.848L123.165 125.368H123.31H123.365H123.664L124.308 125.441H126.43H126.738H127.028H127.073L127.373 125.396H127.418H127.563H127.681L127.935 125.35H128.034H128.08H128.207H128.261H128.37H128.442H128.515H128.642H128.705H128.76H128.86H128.977H129.05H129.122H129.249H129.313H129.367H129.44L129.685 125.269L129.821 125.223L130.174 125.087H130.256L130.383 125.033H130.464L130.646 124.951H130.727H130.773L130.927 124.879H130.99L131.081 124.834L131.19 124.779H131.235H131.299H131.362L131.489 124.707L131.761 124.562L131.834 124.516C132.98 123.868 134.024 123.056 134.934 122.104L135.252 122.014Z" fill="#CECECE"/>
<path fill-rule="evenodd" clip-rule="evenodd" d="M132.477 82.4359C135.497 87.1599 123.066 92.1558 116.982 85.156C116.972 85.2949 116.972 85.4342 116.982 85.5731C117.326 88.2026 120.835 90.2789 125.142 90.3696H125.722C130.256 90.2699 133.928 87.9759 133.928 85.156C133.928 84.887 133.894 84.619 133.828 84.3581C133.593 83.5707 133.102 82.8844 132.432 82.4087L132.477 82.4359Z" fill="black"/>
</g>
</svg>
