<svg width="322" height="69" viewBox="0 0 322 69" fill="none" xmlns="http://www.w3.org/2000/svg">
<path d="M321.579 36.6583C321.579 36.1097 320.794 35.6639 320.402 36.1611C317.57 39.8252 313.416 42.221 308.84 42.8303C310.531 38.5944 310.823 33.9249 309.676 29.5091C309.539 28.9776 308.653 28.7719 308.414 29.3376C304.662 38.167 296.17 40.9787 287.285 41.6302C277.753 42.1274 268.987 38.047 261.058 33.1437C260.58 32.8522 259.83 33.3494 260.035 33.9324C261.999 39.6055 263.661 45.3799 265.014 51.2311C265.781 54.2657 266.532 57.3174 267.231 60.3691C267.363 61.476 267.603 62.567 267.947 63.6266C268.493 64.7752 270.164 65.1696 271.358 65.6325C278.656 68.4956 286.978 68.1013 294.499 66.4897C301.559 64.981 308.687 61.9635 313.666 56.5459C318.271 51.454 321.818 43.6704 321.579 36.6583Z" fill="#F3F3F3"/>
<path d="M60.5324 34.1437C52.6027 39.047 43.8375 43.1274 34.3048 42.6302C25.4202 41.9787 16.9278 39.2013 13.1762 30.3376C12.9374 29.7719 12.0507 29.9776 11.9142 30.5091C10.7751 34.9257 11.0679 39.5925 12.7498 43.8303C8.17393 43.221 4.02052 40.8252 1.18789 37.1611C0.795673 36.6639 0.0282881 37.1611 0.0112351 37.6583C-0.210454 44.1732 2.87614 51.0824 6.83244 56.1572C11.1469 61.712 17.7805 65.0209 24.4141 66.8382C31.8567 69.0616 39.7424 69.3273 47.3163 67.6097C49.0135 67.1576 50.6638 66.5433 52.2446 65.7752C53.7112 65.0552 53.6259 64.7294 53.9499 63.2207C54.5809 60.3576 55.263 57.5288 55.9622 54.6485C57.459 47.9671 59.3206 41.3737 61.5385 34.8981C61.7602 34.3837 61.0269 33.8522 60.5324 34.1437Z" fill="#F3F3F3"/>
<path d="M277.172 26.2034C274.676 21.9204 272.16 17.6179 269.431 13.4128C269.351 13.2746 269.229 13.1655 269.083 13.1013C268.961 13.0348 268.825 13 268.686 13C268.548 13 268.411 13.0348 268.29 13.1013C261.942 16.7808 255.092 19.6231 248.415 22.8354C248.324 22.8759 248.242 22.9358 248.176 23.0108C248.11 23.0859 248.06 23.1744 248.031 23.2704C248.001 23.3664 247.993 23.4677 248.006 23.5673C248.019 23.6669 248.053 23.7625 248.106 23.8477C254.937 37.3003 260.626 51.1032 267.458 64.6337C267.728 65.1788 268.599 65.062 268.909 64.6337C274.869 56.5349 277.811 44.6398 279.939 35.2172C280.365 33.5429 278.449 28.3059 277.172 26.2034Z" fill="#B4B4B4"/>
<path d="M74.6178 22.8433C67.941 19.7063 61.0708 16.8617 54.7424 13.1013C54.6206 13.0348 54.4842 13 54.3457 13C54.2071 13 54.0708 13.0348 53.949 13.1013C53.7973 13.1645 53.6689 13.2734 53.5813 13.4131C50.8719 17.6216 48.356 21.9275 45.8401 26.214C44.6596 28.1623 42.6469 33.345 43.0533 35.196C45.1821 44.6262 48.1431 56.6283 54.0844 64.6361C54.1712 64.7494 54.2826 64.841 54.4101 64.9041C54.5376 64.9672 54.6778 65 54.8198 65C54.9619 65 55.102 64.9672 55.2295 64.9041C55.357 64.841 55.4684 64.7494 55.5552 64.6361C62.3674 51.1728 68.0765 37.3587 74.9081 23.8174C74.955 23.7349 74.9847 23.6435 74.9955 23.549C75.0062 23.4545 74.9978 23.3587 74.9706 23.2676C74.9435 23.1765 74.8982 23.0919 74.8375 23.0189C74.7769 22.946 74.7021 22.8862 74.6178 22.8433Z" fill="#B4B4B4"/>
<path d="M280.896 32.779C280.112 28.8719 278.544 25.1674 276.289 21.8928C273.824 17.5137 271.143 13.2619 268.256 9.15325C266.05 6.09029 263.63 2.38353 259.836 0.686219C256.042 -1.01109 251.997 0.90082 248.222 1.93481C243.325 3.24194 238.544 4.74415 233.647 6.22685C213.863 12.393 193.407 16.1076 172.732 17.2886C152.98 18.208 133.191 16.6747 113.81 12.7235C104.134 10.6208 94.5723 8.01612 85.1627 4.91973C80.2461 3.41752 75.2522 2.18844 70.3356 0.686219C68.6793 0.0246222 66.874 -0.163338 65.1185 0.143027C63.363 0.449392 61.7255 1.23819 60.3863 2.42255C57.165 5.46446 54.4061 8.96826 52.1985 12.821C49.508 16.8985 46.9722 21.1125 44.7075 25.4045C43.0622 28.5065 41.5331 31.9986 42.1331 35.4908C42.3545 36.6762 42.8503 37.7923 43.5801 38.7482C44.31 39.7042 45.2533 40.4731 46.3335 40.9924C58.7217 48.7962 74.2069 51.9762 88.7437 54.9221C106.903 58.651 125.286 61.1731 143.774 62.4722C161.635 63.5441 179.555 62.9826 197.315 60.7944C214.915 58.8027 232.371 55.6814 249.577 51.4494C256.69 49.7748 263.621 47.3961 270.269 44.348C273.077 43.1404 275.751 41.6363 278.244 39.8609C279.269 39.0228 280.054 37.9255 280.52 36.6813C280.986 35.437 281.116 34.0904 280.896 32.779Z" fill="#E7E7E7"/>
<path d="M125.176 46.144L124.72 30.664C126.608 30.408 128.296 30.376 129.784 30.568C130.424 30.648 131.048 30.792 131.656 31C132.264 31.192 132.808 31.472 133.288 31.84C133.768 32.192 134.152 32.64 134.44 33.184C134.728 33.728 134.872 34.392 134.872 35.176C134.872 35.976 134.752 36.672 134.512 37.264C134.288 37.84 133.984 38.328 133.6 38.728C133.216 39.128 132.784 39.448 132.304 39.688C131.824 39.928 131.336 40.112 130.84 40.24C130.36 40.352 129.888 40.416 129.424 40.432C128.976 40.448 128.584 40.44 128.248 40.408L127.792 45.688L125.176 46.144ZM131.368 36.328C131.368 36.056 131.328 35.792 131.248 35.536C131.168 35.28 131.024 35.064 130.816 34.888C130.608 34.696 130.336 34.552 130 34.456C129.68 34.36 129.272 34.336 128.776 34.384L128.416 38.44C128.944 38.472 129.392 38.432 129.76 38.32C130.128 38.208 130.432 38.056 130.672 37.864C130.912 37.656 131.088 37.424 131.2 37.168C131.312 36.896 131.368 36.616 131.368 36.328ZM136.431 45.904L135.783 30.856L139.743 30.352L139.335 36.184L142.695 36.04L142.599 30.256L146.631 30.784L145.191 45.904H142.839L142.743 39.88L139.047 40.408L138.687 45.544L136.431 45.904ZM155.075 38.848L155.267 46.144L151.859 45.832L152.123 38.992L147.275 33.136L150.635 30.256L153.635 35.728L157.307 30.664L159.995 33.64L155.075 38.848ZM164.775 43.264C165.095 43.264 165.383 43.144 165.639 42.904C165.911 42.664 166.047 42.352 166.047 41.968C166.047 41.632 165.911 41.336 165.639 41.08C165.383 40.824 165.055 40.568 164.655 40.312C164.255 40.056 163.823 39.792 163.359 39.52C162.911 39.232 162.487 38.904 162.087 38.536C161.687 38.168 161.351 37.736 161.079 37.24C160.823 36.744 160.695 36.144 160.695 35.44C160.695 34.496 160.831 33.696 161.103 33.04C161.391 32.384 161.775 31.856 162.255 31.456C162.751 31.04 163.327 30.744 163.983 30.568C164.655 30.376 165.375 30.28 166.143 30.28C166.655 30.28 167.119 30.36 167.535 30.52C167.951 30.68 168.303 30.856 168.591 31.048C168.927 31.272 169.231 31.528 169.503 31.816L167.847 34.984C167.575 34.648 167.247 34.416 166.863 34.288C166.495 34.16 166.143 34.12 165.807 34.168C165.471 34.216 165.183 34.352 164.943 34.576C164.703 34.784 164.583 35.072 164.583 35.44C164.583 35.744 164.703 36.024 164.943 36.28C165.183 36.52 165.487 36.776 165.855 37.048C166.223 37.304 166.615 37.576 167.031 37.864C167.463 38.152 167.863 38.48 168.231 38.848C168.599 39.2 168.903 39.616 169.143 40.096C169.383 40.56 169.503 41.104 169.503 41.728C169.503 42.272 169.423 42.808 169.263 43.336C169.103 43.864 168.847 44.336 168.495 44.752C168.159 45.168 167.711 45.504 167.151 45.76C166.591 46.016 165.903 46.144 165.087 46.144C164.271 46.144 163.583 46 163.023 45.712C162.463 45.424 162.007 45.096 161.655 44.728C161.239 44.312 160.911 43.832 160.671 43.288L162.039 40.912C162.215 41.36 162.439 41.76 162.711 42.112C162.935 42.416 163.215 42.688 163.551 42.928C163.903 43.168 164.311 43.288 164.775 43.288V43.264ZM171.375 45.928L170.919 30.448L175.263 30.736L173.967 45.496L171.375 45.928ZM181.361 46.12C180.561 46.12 179.841 45.92 179.201 45.52C178.561 45.12 178.025 44.544 177.593 43.792C177.161 43.04 176.841 42.136 176.633 41.08C176.441 40.008 176.385 38.808 176.465 37.48C176.545 36.152 176.753 35.048 177.089 34.168C177.441 33.272 177.873 32.552 178.385 32.008C178.897 31.448 179.465 31.048 180.089 30.808C180.729 30.552 181.377 30.408 182.033 30.376C182.705 30.344 183.273 30.448 183.737 30.688C184.201 30.912 184.593 31.176 184.913 31.48C185.265 31.832 185.561 32.232 185.801 32.68L183.761 35.656C183.633 35.496 183.489 35.344 183.329 35.2C183.201 35.072 183.049 34.96 182.873 34.864C182.697 34.768 182.497 34.72 182.273 34.72C181.889 34.72 181.529 34.92 181.193 35.32C180.857 35.72 180.569 36.224 180.329 36.832C180.105 37.44 179.945 38.096 179.849 38.8C179.769 39.504 179.777 40.152 179.873 40.744C179.969 41.336 180.177 41.832 180.497 42.232C180.833 42.616 181.305 42.792 181.913 42.76C182.233 42.744 182.521 42.68 182.777 42.568C183.033 42.456 183.249 42.328 183.425 42.184C183.617 42.024 183.793 41.84 183.953 41.632L185.033 42.52C184.889 43.192 184.665 43.792 184.361 44.32C184.089 44.784 183.713 45.208 183.233 45.592C182.753 45.96 182.121 46.144 181.337 46.144L181.361 46.12ZM190.767 43.264C191.087 43.264 191.375 43.144 191.631 42.904C191.903 42.664 192.039 42.352 192.039 41.968C192.039 41.632 191.903 41.336 191.631 41.08C191.375 40.824 191.047 40.568 190.647 40.312C190.247 40.056 189.815 39.792 189.351 39.52C188.903 39.232 188.479 38.904 188.079 38.536C187.679 38.168 187.343 37.736 187.071 37.24C186.815 36.744 186.687 36.144 186.687 35.44C186.687 34.496 186.823 33.696 187.095 33.04C187.383 32.384 187.767 31.856 188.247 31.456C188.743 31.04 189.319 30.744 189.975 30.568C190.647 30.376 191.367 30.28 192.135 30.28C192.647 30.28 193.111 30.36 193.527 30.52C193.943 30.68 194.295 30.856 194.583 31.048C194.919 31.272 195.223 31.528 195.495 31.816L193.839 34.984C193.567 34.648 193.239 34.416 192.855 34.288C192.487 34.16 192.135 34.12 191.799 34.168C191.463 34.216 191.175 34.352 190.935 34.576C190.695 34.784 190.575 35.072 190.575 35.44C190.575 35.744 190.695 36.024 190.935 36.28C191.175 36.52 191.479 36.776 191.847 37.048C192.215 37.304 192.607 37.576 193.023 37.864C193.455 38.152 193.855 38.48 194.223 38.848C194.591 39.2 194.895 39.616 195.135 40.096C195.375 40.56 195.495 41.104 195.495 41.728C195.495 42.272 195.415 42.808 195.255 43.336C195.095 43.864 194.839 44.336 194.487 44.752C194.151 45.168 193.703 45.504 193.143 45.76C192.583 46.016 191.895 46.144 191.079 46.144C190.263 46.144 189.575 46 189.015 45.712C188.455 45.424 187.999 45.096 187.647 44.728C187.231 44.312 186.903 43.832 186.663 43.288L188.031 40.912C188.207 41.36 188.431 41.76 188.703 42.112C188.927 42.416 189.207 42.688 189.543 42.928C189.895 43.168 190.303 43.288 190.767 43.288V43.264Z" fill="#333333"/>
</svg>
