<svg width="264" height="249" viewBox="0 0 264 249" fill="none" xmlns="http://www.w3.org/2000/svg">
<mask id="mask0_9:1096" style="mask-type:alpha" maskUnits="userSpaceOnUse" x="0" y="0" width="264" height="249">
<path d="M263.771 135.5C263.771 152.018 207.923 182.239 201.771 196.5C191.271 227.5 152.771 249 118.771 249C88.271 249 75.7766 241.426 54.771 209.5C42.5889 190.985 0.770996 179.32 0.770996 155.5C0.770996 90.6065 91.8775 0 156.771 0C221.664 0 263.771 70.6065 263.771 135.5Z" fill="#C4C4C4"/>
</mask>
<g mask="url(#mask0_9:1096)">
<path fill-rule="evenodd" clip-rule="evenodd" d="M113.848 238.831C111.907 243.485 111.249 248.573 111.941 253.567L112.01 254.044L111.611 254.33C110.918 254.841 110.198 255.318 109.453 255.769C109.453 255.942 109.453 256.115 109.453 256.289V256.505L109.34 256.688C108.151 258.477 106.419 259.838 104.4 260.571C103.531 260.986 102.578 261.197 101.615 261.188C100.652 261.179 99.7043 260.95 98.8434 260.519L98.5053 260.319L98.4446 259.964C97.8639 260.068 97.2831 260.172 96.711 260.25C96.711 260.337 96.7111 260.432 96.6677 260.519L96.6157 260.813L96.3817 261.004C94.6733 262.392 92.5122 263.099 90.314 262.989C89.2631 262.993 88.2219 262.788 87.2514 262.384C86.281 261.981 85.4008 261.388 84.6625 260.64L84.4631 260.423V260.12C84.4674 260.057 84.4674 259.993 84.4631 259.929C83.917 259.825 83.3796 259.704 82.8336 259.565L82.7815 259.886L82.4435 260.085C81.5833 260.519 80.6349 260.75 79.6715 260.759C78.708 260.768 77.7554 260.555 76.8873 260.137C75.2404 259.453 71.9205 257.208 71.9118 255.275V254.685L71.7731 254.581L71.6865 254.321C67.4055 240.921 68.3658 226.396 74.3736 213.677C70.967 210.322 69.5628 206.101 69.5801 201.386C64.3297 200.998 59.2437 199.383 54.7318 196.67C51.7847 194.867 47.5374 191.391 47.9968 187.482C48.107 186.552 48.4764 185.672 49.0629 184.942C64.0499 165.682 79.6871 146.95 96.425 129.198C115.633 107.884 137.511 105.552 158.133 126.052C178.468 117.236 194.374 105.743 205.668 86.2568C206.091 85.4565 206.809 84.853 207.67 84.5752C210.097 83.8818 212.759 86.4302 214.206 88.0424C216.633 90.9013 218.625 94.1025 220.118 97.5426C222.155 102.093 224.946 110.683 221.175 115.017C220.146 116.172 219.043 117.258 217.873 118.268C216.338 119.637 214.744 120.946 213.14 122.229C209.231 125.332 205.191 128.297 201.109 131.166C197.277 133.853 193.386 136.471 189.433 138.967C186.476 140.917 183.421 142.713 180.279 144.35C173.137 147.921 171.473 155.254 173.622 162.457C175.633 166.939 177.852 171.325 179.967 175.754C183.435 183.061 187.717 192.397 188.011 200.562C188.193 205.598 186.824 210.097 183.227 213.651C189.237 226.369 190.201 240.894 185.922 254.295L185.836 254.555L185.697 254.659C185.697 254.841 185.697 255.032 185.697 255.223C185.697 257.182 182.377 259.427 180.73 260.111C179.862 260.529 178.909 260.742 177.946 260.733C176.983 260.724 176.034 260.493 175.174 260.059L174.836 259.86L174.784 259.539C174.241 259.678 173.695 259.799 173.146 259.903V260.094V260.397L172.946 260.614C172.208 261.362 171.328 261.955 170.357 262.358C169.387 262.762 168.346 262.967 167.295 262.963C165.097 263.073 162.936 262.366 161.227 260.978L160.993 260.788L160.941 260.493L160.889 260.224C160.308 260.146 159.728 260.042 159.155 259.938L159.095 260.293L158.748 260.501C157.887 260.933 156.939 261.162 155.976 261.171C155.013 261.18 154.061 260.969 153.192 260.553C151.172 259.821 149.44 258.46 148.251 256.67L148.138 256.488V256.271C148.138 256.098 148.138 255.925 148.138 255.751C147.402 255.301 146.682 254.824 145.98 254.312L145.59 254.026L145.659 253.55C146.341 248.558 145.671 243.475 143.718 238.831C133.906 241.232 123.66 241.232 113.848 238.831Z" fill="#4C94D0"/>
<path fill-rule="evenodd" clip-rule="evenodd" d="M157.959 127.014C138.17 107.077 116.665 107.944 97.0405 129.744C79.9731 147.834 64.44 166.505 49.7131 185.445C45.2404 191.201 57.7397 200.016 70.369 200.579C70.1956 205.537 71.5392 209.967 75.3271 213.451C69.1821 226.101 68.1423 240.631 72.4233 254.026C83.6917 261.828 100.161 261.654 111.126 253.628C110.386 248.276 111.167 242.824 113.38 237.895C123.489 240.478 134.085 240.478 144.195 237.895C146.401 242.826 147.178 248.277 146.44 253.628C157.431 261.654 173.917 261.828 185.142 254.026C189.426 240.632 188.389 226.102 182.247 213.451C186.035 209.984 187.379 205.537 187.197 200.579C186.789 189.138 178.295 174.853 172.86 162.726C170.745 155.688 171.993 147.592 179.924 143.613C189.346 138.898 214.518 121.466 220.569 114.506C227.451 106.575 210.947 78.7849 206.379 86.6642C194.963 106.358 178.875 118.025 157.959 127.014Z" fill="#9CC6E9"/>
<path fill-rule="evenodd" clip-rule="evenodd" d="M180.73 143.188C190.715 137.944 214.691 121.276 220.603 114.506C227.485 106.575 210.981 78.7849 206.413 86.6642C204.341 90.2167 202.027 93.6226 199.487 96.8577C203.015 93.6679 206.136 91.0415 207.557 88.1897C208.979 85.3379 218.436 100.698 215.359 108.126C213.625 112.321 190.759 135.283 180.687 143.197L180.73 143.188Z" fill="#6AABDD"/>
<path fill-rule="evenodd" clip-rule="evenodd" d="M72.4231 254.026C83.6915 261.827 100.161 261.654 111.126 253.628C110.385 248.276 111.166 242.824 113.38 237.895C123.489 240.478 134.085 240.478 144.194 237.895C146.4 242.826 147.178 248.277 146.439 253.628C157.43 261.654 173.917 261.827 185.142 254.035C179.467 257.129 173.076 258.669 166.615 258.5C160.154 258.331 153.852 256.459 148.346 253.073C149.587 248.136 149.161 242.928 147.133 238.259C148.676 237.618 150.094 236.709 151.319 235.572C136.644 239.975 120.999 239.975 106.324 235.572C107.549 236.709 108.967 237.618 110.51 238.259C108.482 242.928 108.056 248.136 109.297 253.073C103.786 256.467 97.4756 258.342 91.0057 258.51C84.5358 258.677 78.1368 257.13 72.4578 254.026H72.4231Z" fill="#6AABDD"/>
<path fill-rule="evenodd" clip-rule="evenodd" d="M172.869 162.735L173.042 163.125L173.397 163.913L173.761 164.702L174.134 165.5L174.515 166.306L174.897 167.112L175.287 167.927L175.686 168.742L176.084 169.565L176.483 170.432L176.882 171.255L177.289 172.122L177.688 172.989L178.095 173.856L178.503 174.723L178.901 175.589L179.3 176.456L179.699 177.323L180.098 178.19L180.488 179.057L180.878 179.923C181.008 180.209 181.129 180.487 181.259 180.79L181.632 181.657L182.005 182.524L182.369 183.391C182.49 183.677 182.603 183.954 182.724 184.257C182.845 184.561 182.958 184.812 183.071 185.124L183.409 185.991L183.738 186.858L184.05 187.725L184.362 188.548C184.458 188.825 184.562 189.103 184.657 189.371C184.752 189.64 184.839 189.926 184.934 190.195C185.03 190.464 185.116 190.741 185.203 191.01L185.463 191.825L185.697 192.639C185.775 192.908 185.853 193.177 185.923 193.445C186.001 193.705 186.07 193.974 186.131 194.243C186.2 194.503 186.269 194.772 186.33 195.032C186.391 195.3 186.451 195.56 186.503 195.82C186.555 196.081 186.616 196.349 186.659 196.609C186.703 196.869 186.755 197.129 186.798 197.381C186.841 197.641 186.885 197.901 186.919 198.152C186.954 198.404 186.989 198.664 187.023 198.915C187.023 199.175 187.084 199.426 187.101 199.669C187.101 199.929 187.145 200.172 187.162 200.423C187.162 200.675 187.162 200.917 187.162 201.169C187.344 206.127 186.001 210.556 182.213 214.041C179.866 216.102 177.131 217.673 174.169 218.661C186.529 213.209 189.026 200.623 181.147 183.616C178.159 176.942 175.385 170.178 172.825 163.324L172.869 162.735Z" fill="#6AABDD"/>
<path fill-rule="evenodd" clip-rule="evenodd" d="M77.8324 180.07C83.0938 169.912 87.9913 157.352 88.9361 150.235C86.8038 163.697 70.9326 184.838 70.3345 200.579C70.1612 205.537 71.5047 209.966 75.2926 213.451C77.6388 215.512 80.3738 217.083 83.3366 218.071C70.2652 212.315 68.2195 198.577 77.7977 180.07H77.8324Z" fill="#6AABDD"/>
<path fill-rule="evenodd" clip-rule="evenodd" d="M118.624 152.298C116.067 152.437 113.302 152.523 110.493 152.437C104.036 152.246 97.3787 151.102 92.672 147.375C92.0202 146.852 91.4034 146.288 90.8257 145.684V149.663C92.698 152.957 99.2596 154.985 110.493 155.263C112.972 155.326 115.683 155.3 118.624 155.185C123.008 154.893 127.407 154.893 131.791 155.185C144.853 157.655 157.058 158.366 167.226 154.049C175.114 150.703 182.126 135.291 180.115 115.043L178.433 116.178C179.378 121.45 179.29 126.855 178.173 132.093C177.047 139.894 174.039 147.201 166.905 151.163C159.485 155.271 149.569 154.682 141.386 153.85C137.642 153.468 133.914 152.983 130.179 152.602C128.376 152.419 126.529 152.263 124.692 152.185C124.492 152.367 124.284 152.541 124.068 152.714L123.955 152.801H123.816C122.162 153.164 120.433 152.969 118.901 152.246L118.624 152.298Z" fill="#6AABDD"/>
<path fill-rule="evenodd" clip-rule="evenodd" d="M161.773 241.553C163.724 242.211 165.81 242.355 167.832 241.972C169.855 241.59 171.744 240.693 173.319 239.369C171.64 240.489 169.752 241.26 167.769 241.635C165.785 242.01 163.746 241.982 161.773 241.553Z" fill="#4C94D0"/>
<path fill-rule="evenodd" clip-rule="evenodd" d="M164.487 243.026C165.644 243.659 166.99 243.855 168.28 243.58C169.57 243.305 170.718 242.576 171.517 241.527C170.543 242.308 169.401 242.851 168.18 243.112C166.959 243.372 165.694 243.343 164.487 243.026Z" fill="#4C94D0"/>
<path fill-rule="evenodd" clip-rule="evenodd" d="M164.2 240.114C165.231 240.515 166.358 240.602 167.438 240.363C168.518 240.124 169.503 239.569 170.268 238.77C168.471 239.93 166.318 240.407 164.2 240.114Z" fill="#4C94D0"/>
<path fill-rule="evenodd" clip-rule="evenodd" d="M159.303 221.183C151.554 232.018 106.021 232.018 98.2718 221.183C94.2848 215.58 91.917 208.989 91.4279 202.13C90.9388 195.271 92.3473 188.41 95.4991 182.298C98.6508 176.187 103.424 171.061 109.296 167.483C115.168 163.904 121.911 162.011 128.788 162.011C135.664 162.011 142.407 163.904 148.279 167.483C154.151 171.061 158.924 176.187 162.076 182.298C165.228 188.41 166.636 195.271 166.147 202.13C165.658 208.989 163.29 215.58 159.303 221.183Z" fill="#CCCBCB"/>
<path fill-rule="evenodd" clip-rule="evenodd" d="M158.801 220.819C162.719 215.309 165.046 208.828 165.525 202.084C166.005 195.34 164.619 188.594 161.519 182.586C158.419 176.578 153.726 171.538 147.952 168.02C142.179 164.502 135.548 162.641 128.787 162.641C122.027 162.641 115.396 164.502 109.623 168.02C103.849 171.538 99.1556 176.578 96.056 182.586C92.9563 188.594 91.5703 195.34 92.0498 202.084C92.5293 208.828 94.8558 215.309 98.7744 220.819C106.264 231.29 151.303 231.29 158.801 220.819Z" fill="#F1F1F1"/>
<path fill-rule="evenodd" clip-rule="evenodd" d="M158.8 220.819C162.864 215.136 165.225 208.414 165.608 201.438C165.99 194.462 164.378 187.522 160.96 181.429C157.541 175.336 152.458 170.343 146.306 167.034C140.153 163.725 133.185 162.236 126.217 162.743C133.221 163.247 139.863 166.053 145.105 170.726C186.33 207.6 114.767 236.603 97.8552 212.983C94.4675 208.274 92.4431 202.723 92.0043 196.938C91.3967 205.442 93.7823 213.89 98.748 220.819C106.237 231.29 151.276 231.29 158.774 220.819H158.8Z" fill="#E3E3E3"/>
<path fill-rule="evenodd" clip-rule="evenodd" d="M101.219 192.891C99.8231 194.693 97.8728 193.203 98.4536 189.796C100.291 178.996 109.15 170.813 119.742 168.022C122.24 167.284 124.865 167.072 127.449 167.401C130.033 167.729 132.521 168.59 134.755 169.929C139.419 172.703 138.483 176.465 131.938 175.658C121.597 174.384 112.184 178.71 101.219 192.891Z" fill="white"/>
<path fill-rule="evenodd" clip-rule="evenodd" d="M102.155 50.1976C99.3033 57.3487 94.4839 62.6796 87.1681 65.41L86.596 65.6267L86.2319 65.124C81.5165 58.6576 77.8933 50.2756 79.2021 42.1103C79.9823 37.2822 82.9814 31.7867 88.3122 31.05C89.6229 30.9101 90.9482 31.0648 92.1914 31.5027C93.4346 31.9406 94.5643 32.6506 95.498 33.581C98.2891 36.1294 100.014 39.9953 101.072 43.5492C102.129 47.1031 107.928 45.6036 111.274 45.5949L107.434 47.0251C106.229 48.0566 103.967 49.8942 102.155 50.1976ZM170.173 72.2577C168.075 71.0962 167.521 66.8489 167.287 64.9333L166.975 62.3329L168.708 64.3178C171.43 67.4383 174.611 65.8781 177.376 63.6071L177.636 63.3817L180.653 61.1713C182.458 59.9809 184.477 59.1535 186.599 58.7356C187.774 58.4787 188.992 58.4837 190.165 58.7503C191.338 59.017 192.437 59.5388 193.386 60.2785C197.243 63.4944 196.611 69.3193 194.877 73.4713C191.756 80.9604 184.475 86.8894 177.619 90.8073L177.116 91.0933L176.683 90.7206C171.075 85.8665 169.332 79.4522 170.19 72.2577H170.173Z" fill="#4C94D0"/>
<path fill-rule="evenodd" clip-rule="evenodd" d="M101.582 49.4176C98.6931 57.005 93.7957 62.0816 86.8901 64.6473C67.6471 38.2445 92.559 17.84 100.3 43.7834C101.218 46.8692 103.767 46.9819 106.913 46.3838C104.469 48.4526 102.692 49.4552 101.582 49.3916V49.4176Z" fill="#6AABDD"/>
<path fill-rule="evenodd" clip-rule="evenodd" d="M95.9395 51.888C92.7187 53.9702 90.0863 56.8444 88.2943 60.2353C88.1532 59.7446 87.9794 59.2639 87.7742 58.7964C83.3015 54.6964 81.2645 40.8276 85.8239 36.7449C90.1579 32.8443 94.674 39.3973 95.9395 51.888Z" fill="#3A81BB"/>
<path fill-rule="evenodd" clip-rule="evenodd" d="M95.9396 51.888C92.351 40.8102 84.6712 39.198 83.475 47.4153C83.0069 42.5525 83.3103 38.9986 85.824 36.7449C90.158 32.8443 94.6741 39.3973 95.9396 51.888Z" fill="#3876A8"/>
<path fill-rule="evenodd" clip-rule="evenodd" d="M177.714 112.885C179.82 119.264 179.69 126.043 178.399 132.579C177.263 140.38 174.238 147.67 167.061 151.648C159.632 155.739 149.725 155.115 141.534 154.249C137.798 153.859 134.07 153.382 130.334 152.974C127.028 152.572 123.695 152.433 120.366 152.558C111.698 153.044 100.022 153.356 92.8713 147.652C91.5543 146.593 90.3878 145.36 89.404 143.986C84.992 137.918 78.1356 133.835 72.4841 129.025C68.2517 125.583 65.138 120.961 63.5387 115.745C60.7822 106.158 64.2234 96.6756 70.0137 88.9177C72.3194 85.8405 74.7984 82.8501 77.0694 79.7556C78.7879 77.5821 80.1351 75.1395 81.0567 72.5265C89.8634 43.7746 114.992 41.4516 140.753 48.5507C153.105 51.9573 165.024 58.0249 172.322 68.9639C180.99 81.9659 180.713 98.2011 177.714 112.919V112.885Z" fill="#4C94D0" stroke="#1D87BB" stroke-miterlimit="10"/>
<path fill-rule="evenodd" clip-rule="evenodd" d="M140.545 49.3222C171.698 57.9122 183.885 78.9322 176.864 112.937C178.8 118.64 179.043 125.139 177.592 132.431C172.79 165.231 139.557 150.634 120.323 151.735C104.911 152.602 95.5407 151.076 90.0799 143.509C85.6072 137.311 78.8548 133.333 73.0212 128.401C61.6054 118.753 59.7938 103.896 70.6808 89.3945C76.1417 82.1134 80.3283 77.7533 81.8626 72.7432C89.3864 48.1694 109.886 40.8709 140.545 49.3396V49.3222Z" fill="#9CC6E9"/>
<path fill-rule="evenodd" clip-rule="evenodd" d="M142.383 49.8682C172.167 58.7789 183.713 79.6255 176.856 112.954C178.792 118.658 179.035 125.156 177.584 132.448C172.782 165.248 139.549 150.651 120.315 151.752C104.903 152.619 95.5327 151.093 90.0719 143.526C85.5992 137.329 78.8468 133.35 73.0132 128.418C71.7835 127.384 70.6386 126.254 69.5894 125.037C80.4186 131.278 87.2086 136.768 89.9592 141.507C93.2704 147.271 100.76 150.825 112.34 149.542C123.921 148.259 134.01 147.808 143.675 148.675C157.925 149.88 168.11 141.793 168.214 126.207C168.275 117.08 166.767 110.605 168.691 103.671C175.929 77.6665 164.73 59.169 142.383 49.8508V49.8682Z" fill="#6AABDD"/>
<path fill-rule="evenodd" clip-rule="evenodd" d="M132.12 145.216C124.102 147.323 114.463 149.204 106.159 147.955C100.937 147.213 96.0515 144.942 92.1172 141.428C89.5168 139.201 87.1591 136.661 84.6541 134.303C81.5076 131.339 79.0199 128.409 75.2146 126.372L75.596 125.583L76.4021 125.939C84.237 129.405 92.6719 131.313 101.236 131.556H101.539L101.773 131.712C110.711 138.09 121.112 142.115 132.016 143.413L136.81 143.977L132.12 145.216Z" fill="#4C94D0"/>
<path fill-rule="evenodd" clip-rule="evenodd" d="M131.878 144.35C120.817 143.035 110.267 138.954 101.201 132.483C92.5314 132.24 83.9924 130.306 76.0642 126.788C93.9723 136.366 92.1521 154.751 131.878 144.35Z" fill="#851619"/>
<path fill-rule="evenodd" clip-rule="evenodd" d="M86.856 135.136C94.3971 142.529 100.222 149.62 120.054 146.777C117.255 144.095 113.913 142.044 110.255 140.761C106.596 139.478 102.705 138.993 98.8438 139.34C97.3077 137.758 95.4253 136.555 93.3449 135.826C91.2646 135.096 89.0432 134.86 86.856 135.136Z" fill="#EC2024"/>
<path fill-rule="evenodd" clip-rule="evenodd" d="M86.856 135.136L87.09 135.361C89.1313 135.223 91.179 135.512 93.1027 136.209C95.0263 136.906 96.7838 137.995 98.2631 139.409C97.8456 139.43 97.4389 139.549 97.0756 139.756C105.978 138.507 115.955 142.919 120.054 146.777C117.255 144.095 113.913 142.044 110.255 140.761C106.596 139.478 102.705 138.993 98.8438 139.34C97.3077 137.758 95.4253 136.555 93.3449 135.826C91.2646 135.096 89.0432 134.86 86.856 135.136Z" fill="#B82025"/>
<path fill-rule="evenodd" clip-rule="evenodd" d="M99.8057 141.359C105.726 141.479 111.513 143.14 116.596 146.179C114.272 144.275 111.585 142.866 108.698 142.037C105.811 141.208 102.785 140.978 99.8057 141.359Z" fill="#EF4A4A"/>
<path fill-rule="evenodd" clip-rule="evenodd" d="M78.6817 138.681C77.7119 135.388 77.8923 131.863 79.1931 128.687C83.1181 130.146 87.1855 131.189 91.3284 131.799L91.259 131.955C90.1657 134.407 89.3964 136.992 88.9707 139.643V139.912L88.7453 140.068C87.2281 141.091 85.3956 141.539 83.5776 141.331C81.7596 141.122 80.0756 140.272 78.8291 138.932L78.725 138.828L78.6817 138.681Z" fill="#E3E3E3"/>
<path fill-rule="evenodd" clip-rule="evenodd" d="M90.7303 131.703C88.3607 131.336 86.0159 130.823 83.7092 130.169H83.6485L83.4752 130.117C82.2443 129.779 81.0828 129.397 80.008 128.999L79.8086 128.929C78.5603 131.979 78.3861 135.363 79.3145 138.525C80.4601 139.755 82.0074 140.536 83.6776 140.726C85.3477 140.917 87.0311 140.505 88.4246 139.565C88.8621 136.874 89.6489 134.251 90.765 131.764L90.7303 131.703Z" fill="#F2F2F2"/>
<path fill-rule="evenodd" clip-rule="evenodd" d="M85.0698 132.214C86.2986 132.467 87.5444 132.629 88.797 132.7C87.79 134.599 87.238 136.705 87.1848 138.854C85.6469 139.356 83.9919 139.374 82.4434 138.906C82.5286 136.446 83.4453 134.087 85.0438 132.214H85.0698Z" fill="white"/>
<path fill-rule="evenodd" clip-rule="evenodd" d="M129.503 144.627C128.751 147.961 126.89 150.941 124.224 153.079L124.111 153.174H123.964C122.176 153.559 120.31 153.295 118.701 152.427C117.091 151.56 115.844 150.146 115.183 148.441L115.079 148.19L115.2 147.947C116.177 145.926 116.929 143.804 117.445 141.619V141.55C121.326 143.039 125.376 144.043 129.503 144.541V144.601V144.627Z" fill="#E3E3E3"/>
<path fill-rule="evenodd" clip-rule="evenodd" d="M128.895 144.497C128.175 147.692 126.39 150.546 123.833 152.593C122.192 152.951 120.477 152.711 118.998 151.916C117.518 151.121 116.371 149.825 115.763 148.259C116.756 146.198 117.523 144.036 118.052 141.81C121.556 143.107 125.192 144.014 128.895 144.514V144.497Z" fill="#F2F2F2"/>
<path fill-rule="evenodd" clip-rule="evenodd" d="M116.526 148.381C117.158 149.414 118.003 150.301 119.005 150.981C121.454 149.751 123.417 147.733 124.579 145.251C122.557 144.897 120.59 144.279 118.728 143.414C118.21 145.171 117.47 146.854 116.526 148.424V148.381Z" fill="white"/>
<path fill-rule="evenodd" clip-rule="evenodd" d="M73.958 100.143C73.4856 99.1748 73.2328 98.1146 73.2175 97.0378C73.2022 95.961 73.4249 94.8941 73.8696 93.9132C74.3143 92.9324 74.97 92.0618 75.79 91.3637C76.61 90.6655 77.5741 90.157 78.6133 89.8745C79.6525 89.592 80.7413 89.5423 81.8019 89.7292C82.8625 89.916 83.8688 90.3347 84.7489 90.9554C85.629 91.5761 86.3612 92.3834 86.8933 93.3198C87.4253 94.2561 87.7441 95.2983 87.8268 96.3721C87.8547 95.2049 87.6096 94.0473 87.1111 92.9916C86.6126 91.9358 85.8745 91.0111 84.9555 90.291C84.0364 89.5709 82.962 89.0754 81.8176 88.8439C80.6733 88.6124 79.4907 88.6514 78.364 88.9577C77.2374 89.264 76.1979 89.8292 75.3282 90.6082C74.4586 91.3872 73.7829 92.3585 73.355 93.4448C72.9271 94.5311 72.7588 95.7023 72.8634 96.8651C72.9681 98.028 73.3429 99.1503 73.958 100.143Z" fill="#4C94D0"/>
<path fill-rule="evenodd" clip-rule="evenodd" d="M77.4772 91.388C84.4116 87.5134 86.2319 104.511 80.849 104.815C75.4662 105.118 73.0045 93.8757 77.4772 91.388Z" fill="#3876A8"/>
<path fill-rule="evenodd" clip-rule="evenodd" d="M77.6848 95.8086C77.1446 96.6225 76.8271 97.5637 76.7639 98.5384C76.7007 99.5132 76.894 100.488 77.3245 101.364C77.755 102.241 78.4078 102.99 79.2177 103.536C80.0276 104.082 80.9665 104.406 81.9408 104.477C83.215 103.705 83.8737 101.738 83.9778 99.5358C83.7524 96.7361 83.1716 94.7858 82.2442 93.6763C81.3715 93.6227 80.4995 93.7901 79.7086 94.1628C78.9178 94.5355 78.2336 95.1015 77.7194 95.8086H77.6848Z" fill="#3A81BB"/>
<path fill-rule="evenodd" clip-rule="evenodd" d="M147.48 124.205C148.574 123.61 149.522 122.78 150.255 121.774C150.989 120.768 151.49 119.612 151.723 118.388C151.955 117.165 151.913 115.906 151.599 114.701C151.285 113.496 150.708 112.376 149.908 111.421C149.109 110.467 148.108 109.701 146.976 109.181C145.845 108.661 144.613 108.398 143.368 108.412C142.123 108.426 140.896 108.716 139.777 109.262C138.658 109.808 137.674 110.595 136.896 111.567C137.632 110.44 138.621 109.5 139.786 108.824C140.95 108.148 142.256 107.754 143.6 107.674C144.944 107.594 146.288 107.829 147.524 108.362C148.76 108.895 149.854 109.71 150.719 110.743C151.583 111.775 152.193 112.995 152.501 114.306C152.809 115.616 152.805 116.981 152.49 118.29C152.175 119.598 151.558 120.815 150.688 121.843C149.818 122.87 148.719 123.679 147.48 124.205Z" fill="#4C94D0"/>
<path fill-rule="evenodd" clip-rule="evenodd" d="M149.916 113.639C145.903 105.422 133.039 120.27 137.92 124.092C142.8 127.915 152.499 118.892 149.916 113.639Z" fill="#3876A8"/>
<path fill-rule="evenodd" clip-rule="evenodd" d="M146.812 117.67C146.789 118.793 146.471 119.89 145.89 120.852C145.31 121.814 144.488 122.607 143.505 123.151C142.523 123.696 141.415 123.974 140.292 123.956C139.168 123.939 138.069 123.627 137.104 123.052C136.411 121.501 137.104 119.204 138.439 117.054C140.479 114.558 142.316 113.113 143.952 112.72C144.813 113.24 145.527 113.97 146.027 114.842C146.528 115.714 146.798 116.699 146.812 117.704V117.67Z" fill="#3A81BB"/>
<path fill-rule="evenodd" clip-rule="evenodd" d="M100.985 128.132C97.5174 128.019 94.3276 127.794 91.3892 127.421C82.9985 126.364 76.7922 124.162 73.1863 120.391C68.0809 115.017 66.85 107.017 68.9303 99.9002C69.9522 96.3951 71.8192 93.1946 74.3674 90.5799C76.9156 87.9652 80.067 86.0163 83.5446 84.9045C79.314 85.7752 75.4323 87.8691 72.3812 90.9263C69.3301 93.9836 67.244 97.8696 66.3819 102.102C63.0794 116.742 69.6671 125.844 86.9598 129.597C91.7804 130.59 96.6737 131.19 101.591 131.391C117.489 143.064 131.866 146.612 144.724 142.035C148.364 140.715 151.783 138.85 154.865 136.505C151.072 137.966 147.148 139.06 143.146 139.773C128.081 142.391 114.016 138.51 100.95 128.132H100.985Z" fill="#6AABDD"/>
<path fill-rule="evenodd" clip-rule="evenodd" d="M101.618 131.391C121.843 146.236 139.601 147.941 154.891 136.505C142.011 149.021 121.953 147.071 101.071 132.899C73.7932 130.888 63.3136 122.497 64.7264 105.699C66.6161 83.1617 94.2671 72.9595 109.271 95.6263C109.826 96.5476 110.691 97.2412 111.711 97.5827C112.731 97.9242 113.839 97.8913 114.836 97.49C130.205 91.275 150.705 98.4175 159.849 111.775C149.491 99.1629 128.766 93.0606 115.218 99.0242C112.409 100.264 109.679 99.0762 108.188 96.4238C97.951 77.9869 71.0541 81.5495 66.408 102.119C62.2994 120.322 73.5158 129.978 101.618 131.408V131.391Z" fill="#4C94D0"/>
<path fill-rule="evenodd" clip-rule="evenodd" d="M89.7163 83.3009C88.3828 80.7317 87.8916 77.8081 88.3121 74.9442C88.7326 72.0804 90.0437 69.4214 92.0594 67.3441C94.0751 65.2667 96.6934 63.8763 99.5433 63.3698C102.393 62.8633 105.33 63.2663 107.938 64.5219C110.547 65.7774 112.693 67.8217 114.075 70.3653C115.457 72.9089 116.003 75.8227 115.636 78.694C115.27 81.5653 114.009 84.2484 112.033 86.3634C110.057 88.4784 107.465 89.9179 104.625 90.478L104.305 90.5387L104.071 90.3133C100.327 86.5943 95.443 84.2407 90.2017 83.6303H89.8636L89.7076 83.3355L89.7163 83.3009Z" fill="#4C94D0"/>
<path fill-rule="evenodd" clip-rule="evenodd" d="M105.873 64.3871C108.663 65.2651 111.081 67.0469 112.745 69.4515C114.41 71.856 115.227 74.7464 115.067 77.6666C114.907 80.5868 113.779 83.3707 111.862 85.579C109.945 87.7873 107.346 89.2944 104.477 89.8624C100.646 86.046 95.6419 83.6308 90.2706 83.006C89.0743 80.7 88.5874 78.0916 88.8713 75.5094C89.1551 72.9272 90.1969 70.4867 91.8654 68.4956C93.5339 66.5045 95.7544 65.0519 98.2472 64.3207C100.74 63.5896 103.393 63.6127 105.873 64.3871Z" fill="white"/>
<path fill-rule="evenodd" clip-rule="evenodd" d="M105.874 64.3872C108.664 65.2652 111.082 67.0471 112.746 69.4516C114.411 71.8561 115.228 74.7465 115.068 77.6668C114.908 80.587 113.78 83.3708 111.863 85.5791C109.945 87.7874 107.347 89.2945 104.478 89.8625C104.036 89.4465 103.612 89.0477 103.144 88.6663C105.88 88.2304 108.398 86.9094 110.313 84.9058C112.227 82.9022 113.432 80.3263 113.742 77.5727C114.053 74.8191 113.453 72.0395 112.033 69.6597C110.614 67.2798 108.453 65.4308 105.883 64.3959L105.874 64.3872Z" fill="#EBD5D8"/>
<path fill-rule="evenodd" clip-rule="evenodd" d="M149.552 102.743C144.207 99.239 138.138 96.9926 131.799 96.173H131.461L131.314 95.861C130.063 93.2699 129.615 90.3643 130.027 87.5168C130.439 84.6693 131.692 82.0098 133.625 79.8792C135.559 77.7486 138.085 76.2441 140.879 75.5586C143.673 74.8732 146.609 75.0381 149.308 76.0321C152.008 77.026 154.35 78.8039 156.033 81.1376C157.715 83.4712 158.663 86.2544 158.753 89.1301C158.844 92.0058 158.073 94.8429 156.54 97.2777C155.007 99.7124 152.782 101.634 150.15 102.795L149.838 102.934L149.552 102.752V102.743Z" fill="#4C94D0"/>
<path fill-rule="evenodd" clip-rule="evenodd" d="M148.459 76.3838C151.14 77.2236 153.501 78.8615 155.227 81.0786C156.953 83.2958 157.962 85.9867 158.118 88.7921C158.275 91.5975 157.571 94.3839 156.103 96.7791C154.634 99.1743 152.469 101.064 149.898 102.197C144.469 98.6477 138.309 96.3692 131.877 95.5314C130.713 93.1053 130.284 90.3921 130.641 87.7251C130.998 85.0582 132.127 82.5538 133.889 80.5197C135.65 78.4857 137.968 77.0106 140.556 76.2758C143.145 75.541 145.891 75.5785 148.459 76.3838Z" fill="white"/>
<path fill-rule="evenodd" clip-rule="evenodd" d="M163.377 82.5554C162.784 79.4659 161.408 76.5805 159.38 74.1756C157.352 71.7707 154.74 69.9269 151.795 68.8211C148.85 67.7153 145.67 67.3844 142.561 67.8602C139.451 68.336 136.516 69.6025 134.036 71.5384L132.406 74.2688C134.803 72.3343 137.616 70.9816 140.624 70.3169C143.632 69.6521 146.753 69.6934 149.742 70.4376C155.81 71.9631 160.915 76.7652 163.342 82.5728L163.377 82.5554Z" fill="#4C94D0"/>
<path fill-rule="evenodd" clip-rule="evenodd" d="M91.51 60.686C93.6126 58.6336 96.2073 57.1559 99.0452 56.3948C101.883 55.6337 104.869 55.6147 107.717 56.3396C110.564 57.0645 113.177 58.509 115.306 60.5345C117.434 62.56 119.007 65.0985 119.872 67.9065L119.664 70.8623C118.86 68.0939 117.423 65.5504 115.468 63.4323C113.512 61.3143 111.091 59.6797 108.395 58.6577C102.926 56.5861 96.4508 57.5569 91.51 60.686Z" fill="#4C94D0"/>
<path fill-rule="evenodd" clip-rule="evenodd" d="M148.459 76.3838C151.141 77.2237 153.502 78.8615 155.228 81.0787C156.954 83.2958 157.962 85.9868 158.119 88.7921C158.275 91.5975 157.572 94.3839 156.103 96.7791C154.634 99.1744 152.47 101.065 149.898 102.197C149.188 101.738 148.468 101.287 147.723 100.871C150.277 100.047 152.514 98.4533 154.127 96.3077C155.739 94.1621 156.648 91.5701 156.729 88.8873C156.81 86.2045 156.058 83.5625 154.578 81.3238C153.097 79.0851 150.96 77.3595 148.459 76.3838Z" fill="#EBD5D8"/>
<path fill-rule="evenodd" clip-rule="evenodd" d="M171.057 71.7289C169.976 79.5013 172.022 85.6267 177.194 90.1052C206.405 73.2632 195.787 49.1661 178.139 63.9884L177.87 64.2224C173.894 67.551 170.635 67.759 168.092 64.8465C168.624 69.1863 169.612 71.4805 171.057 71.7289Z" fill="#6AABDD"/>
<path fill-rule="evenodd" clip-rule="evenodd" d="M173.9 74.7887C176.742 77.9897 178.209 82.1813 177.983 86.4559C189.364 77.5538 194.66 70.1166 191.851 65.1672C189.043 60.2178 182.438 63.8843 173.935 74.7887H173.9Z" fill="#3A81BB"/>
<path fill-rule="evenodd" clip-rule="evenodd" d="M173.9 74.7885C184.302 65.9037 192.363 68.0621 189.121 75.872C192.415 71.616 193.455 67.9927 191.817 65.167C189.017 60.2608 182.403 63.8841 173.9 74.7885Z" fill="#3876A8"/>
<path fill-rule="evenodd" clip-rule="evenodd" d="M148.346 82.6335C149.746 83.3437 150.903 84.4531 151.672 85.8214C152.441 87.1897 152.786 88.7553 152.665 90.32C152.543 91.8848 151.961 93.3783 150.99 94.6116C150.019 95.8449 148.704 96.7625 147.212 97.2482C145.72 97.734 144.117 97.766 142.606 97.3403C141.095 96.9146 139.745 96.0502 138.726 94.8567C137.707 93.6632 137.065 92.1941 136.881 90.6355C136.697 89.0768 136.98 87.4986 137.693 86.1007C138.648 84.2301 140.306 82.8145 142.303 82.1646C144.3 81.5146 146.473 81.6832 148.346 82.6335Z" fill="#3F8AC9"/>
<path fill-rule="evenodd" clip-rule="evenodd" d="M147.332 84.6963C148.323 85.1979 149.144 85.982 149.689 86.9496C150.234 87.9172 150.481 89.0247 150.397 90.1323C150.313 91.2399 149.903 92.2977 149.218 93.172C148.533 94.0464 147.604 94.698 146.548 95.0445C145.493 95.391 144.359 95.4169 143.289 95.1188C142.219 94.8207 141.261 94.2121 140.537 93.3699C139.813 92.5276 139.355 91.4896 139.22 90.387C139.086 89.2845 139.282 88.1668 139.783 87.1754C140.115 86.5167 140.575 85.93 141.134 85.4489C141.694 84.9678 142.343 84.6016 143.044 84.3714C143.745 84.1412 144.485 84.0514 145.22 84.1071C145.956 84.1629 146.674 84.3631 147.332 84.6963Z" fill="#262626"/>
<path fill-rule="evenodd" clip-rule="evenodd" d="M147.289 93.8755C147.554 94.0113 147.773 94.2224 147.918 94.4823C148.063 94.7422 148.128 95.0392 148.105 95.336C148.081 95.6327 147.971 95.9159 147.787 96.1499C147.603 96.3839 147.354 96.5582 147.071 96.6509C146.788 96.7436 146.484 96.7505 146.197 96.6707C145.91 96.591 145.653 96.4282 145.459 96.2028C145.265 95.9774 145.141 95.6996 145.104 95.4042C145.068 95.1088 145.119 94.8092 145.252 94.5429C145.436 94.1862 145.752 93.9161 146.134 93.7912C146.515 93.6663 146.93 93.6965 147.289 93.8755Z" fill="white"/>
<path fill-rule="evenodd" clip-rule="evenodd" d="M144.446 83.2402C144.866 83.4538 145.214 83.787 145.445 84.1979C145.675 84.6088 145.779 85.0789 145.743 85.5488C145.706 86.0186 145.532 86.4672 145.241 86.8378C144.949 87.2083 144.555 87.4843 144.107 87.6308C143.659 87.7772 143.178 87.7877 142.724 87.6607C142.27 87.5338 141.864 87.2752 141.557 86.9176C141.25 86.5599 141.056 86.1194 141 85.6515C140.943 85.1837 141.026 84.7096 141.239 84.2891C141.381 84.0094 141.576 83.7604 141.814 83.5563C142.052 83.3521 142.327 83.1969 142.625 83.0995C142.923 83.0021 143.237 82.9644 143.55 82.9885C143.862 83.0127 144.167 83.0982 144.446 83.2402Z" fill="white"/>
<path fill-rule="evenodd" clip-rule="evenodd" d="M105.925 69.5185C107.325 70.2287 108.482 71.3381 109.251 72.7064C110.02 74.0747 110.365 75.6403 110.244 77.205C110.123 78.7698 109.54 80.2633 108.569 81.4966C107.598 82.7299 106.284 83.6475 104.791 84.1332C103.299 84.619 101.696 84.651 100.185 84.2253C98.6745 83.7996 97.3242 82.9352 96.305 81.7417C95.2859 80.5482 94.6437 79.0791 94.4599 77.5205C94.276 75.9618 94.5587 74.3836 95.2722 72.9857C96.227 71.1151 97.8848 69.6995 99.8819 69.0496C101.879 68.3996 104.052 68.5682 105.925 69.5185Z" fill="#3F8AC9"/>
<path fill-rule="evenodd" clip-rule="evenodd" d="M104.885 71.5902C105.876 72.0926 106.695 72.8774 107.24 73.8456C107.785 74.8137 108.031 75.9216 107.946 77.0293C107.861 78.1369 107.449 79.1946 106.763 80.0684C106.077 80.9422 105.148 81.593 104.092 81.9385C103.036 82.2839 101.902 82.3086 100.832 82.0092C99.7619 81.7099 98.8049 81.1001 98.0817 80.2569C97.3584 79.4137 96.9015 78.3749 96.7686 77.272C96.6357 76.1691 96.8329 75.0515 97.3351 74.0606C97.6677 73.4019 98.1271 72.8152 98.6869 72.3344C99.2467 71.8535 99.8959 71.4878 100.597 71.2583C101.299 71.0288 102.038 70.94 102.774 70.997C103.51 71.0539 104.227 71.2555 104.885 71.5902Z" fill="#262626"/>
<path fill-rule="evenodd" clip-rule="evenodd" d="M104.833 80.7699C105.099 80.9053 105.319 81.1166 105.464 81.3768C105.61 81.6371 105.675 81.9348 105.652 82.2322C105.629 82.5296 105.517 82.8134 105.333 83.0476C105.148 83.2819 104.898 83.4561 104.614 83.5483C104.331 83.6404 104.026 83.6463 103.739 83.5653C103.452 83.4843 103.195 83.32 103.001 83.0931C102.808 82.8662 102.686 82.587 102.651 82.2907C102.616 81.9944 102.669 81.6945 102.805 81.4287C102.894 81.2515 103.017 81.0937 103.168 80.9644C103.318 80.8352 103.493 80.7371 103.681 80.6759C103.87 80.6146 104.069 80.5914 104.267 80.6075C104.464 80.6237 104.657 80.6788 104.833 80.7699Z" fill="white"/>
<path fill-rule="evenodd" clip-rule="evenodd" d="M101.999 70.1254C102.419 70.3382 102.767 70.6707 102.998 71.0811C103.23 71.4914 103.334 71.9611 103.299 72.4309C103.264 72.9006 103.09 73.3494 102.8 73.7205C102.51 74.0916 102.116 74.3684 101.668 74.5159C101.221 74.6634 100.74 74.6751 100.286 74.5494C99.832 74.4237 99.4254 74.1662 99.1176 73.8096C98.8097 73.453 98.6145 73.0132 98.5565 72.5457C98.4985 72.0781 98.5803 71.6039 98.7916 71.1829C99.0792 70.6199 99.5774 70.193 100.178 69.995C100.778 69.797 101.433 69.8439 101.999 70.1254Z" fill="white"/>
</g>
</svg>
