<svg width="322" height="69" viewBox="0 0 322 69" fill="none" xmlns="http://www.w3.org/2000/svg">
<path d="M321.579 36.6583C321.579 36.1097 320.794 35.6639 320.402 36.1611C317.57 39.8252 313.416 42.221 308.84 42.8303C310.531 38.5944 310.823 33.9249 309.676 29.5091C309.539 28.9776 308.653 28.7719 308.414 29.3376C304.662 38.167 296.17 40.9787 287.285 41.6302C277.753 42.1274 268.987 38.047 261.058 33.1437C260.58 32.8522 259.83 33.3494 260.035 33.9324C261.999 39.6055 263.661 45.3799 265.014 51.2311C265.781 54.2657 266.532 57.3174 267.231 60.3691C267.363 61.476 267.603 62.567 267.947 63.6266C268.493 64.7752 270.164 65.1696 271.358 65.6325C278.656 68.4956 286.978 68.1013 294.499 66.4897C301.559 64.981 308.687 61.9635 313.666 56.5459C318.271 51.454 321.818 43.6704 321.579 36.6583Z" fill="#BBDCF5"/>
<path d="M60.5324 34.1437C52.6027 39.047 43.8375 43.1274 34.3048 42.6302C25.4202 41.9787 16.9278 39.2013 13.1762 30.3376C12.9374 29.7719 12.0507 29.9776 11.9142 30.5091C10.7751 34.9257 11.0679 39.5925 12.7498 43.8303C8.17393 43.221 4.02052 40.8252 1.18789 37.1611C0.795673 36.6639 0.0282881 37.1611 0.0112351 37.6583C-0.210454 44.1732 2.87614 51.0824 6.83244 56.1572C11.1469 61.712 17.7805 65.0209 24.4141 66.8382C31.8567 69.0616 39.7424 69.3273 47.3163 67.6097C49.0135 67.1576 50.6638 66.5433 52.2446 65.7752C53.7112 65.0552 53.6259 64.7294 53.9499 63.2207C54.5809 60.3576 55.263 57.5288 55.9622 54.6485C57.459 47.9671 59.3206 41.3737 61.5385 34.8981C61.7602 34.3837 61.0269 33.8522 60.5324 34.1437Z" fill="#BBDCF5"/>
<path d="M277.172 26.2034C274.676 21.9204 272.16 17.6179 269.431 13.4128C269.351 13.2746 269.229 13.1655 269.083 13.1013C268.961 13.0348 268.825 13 268.686 13C268.548 13 268.411 13.0348 268.29 13.1013C261.942 16.7808 255.092 19.6231 248.415 22.8354C248.324 22.8759 248.242 22.9358 248.176 23.0108C248.11 23.0859 248.06 23.1744 248.031 23.2704C248.001 23.3664 247.993 23.4677 248.006 23.5673C248.019 23.6669 248.053 23.7625 248.106 23.8477C254.937 37.3003 260.626 51.1032 267.458 64.6337C267.728 65.1788 268.599 65.062 268.909 64.6337C274.869 56.5349 277.811 44.6398 279.939 35.2172C280.365 33.5429 278.449 28.3059 277.172 26.2034Z" fill="#538DBA"/>
<path d="M74.6178 22.8433C67.941 19.7063 61.0708 16.8617 54.7424 13.1013C54.6206 13.0348 54.4842 13 54.3457 13C54.2071 13 54.0708 13.0348 53.949 13.1013C53.7973 13.1645 53.6689 13.2734 53.5813 13.4131C50.8719 17.6216 48.356 21.9275 45.8401 26.214C44.6596 28.1623 42.6469 33.345 43.0533 35.196C45.1821 44.6262 48.1431 56.6283 54.0844 64.6361C54.1712 64.7494 54.2826 64.841 54.4101 64.9041C54.5376 64.9672 54.6778 65 54.8198 65C54.9619 65 55.102 64.9672 55.2295 64.9041C55.357 64.841 55.4684 64.7494 55.5552 64.6361C62.3674 51.1728 68.0765 37.3587 74.9081 23.8174C74.955 23.7349 74.9847 23.6435 74.9955 23.549C75.0062 23.4545 74.9978 23.3587 74.9706 23.2676C74.9435 23.1765 74.8982 23.0919 74.8375 23.0189C74.7769 22.946 74.7021 22.8862 74.6178 22.8433Z" fill="#538DBA"/>
<path d="M280.896 32.779C280.112 28.8719 278.544 25.1674 276.289 21.8928C273.824 17.5137 271.143 13.2619 268.256 9.15325C266.05 6.09029 263.63 2.38353 259.836 0.686219C256.042 -1.01109 251.997 0.90082 248.222 1.93481C243.325 3.24194 238.544 4.74415 233.647 6.22685C213.863 12.393 193.407 16.1076 172.732 17.2886C152.98 18.208 133.191 16.6747 113.81 12.7235C104.134 10.6208 94.5723 8.01612 85.1627 4.91973C80.2461 3.41752 75.2522 2.18844 70.3356 0.686219C68.6793 0.0246222 66.874 -0.163338 65.1185 0.143027C63.363 0.449392 61.7255 1.23819 60.3863 2.42255C57.165 5.46446 54.4061 8.96826 52.1985 12.821C49.508 16.8985 46.9722 21.1125 44.7075 25.4045C43.0622 28.5065 41.5331 31.9986 42.1331 35.4908C42.3545 36.6762 42.8503 37.7923 43.5801 38.7482C44.31 39.7042 45.2533 40.4731 46.3335 40.9924C58.7217 48.7962 74.2069 51.9762 88.7437 54.9221C106.903 58.651 125.286 61.1731 143.774 62.4722C161.635 63.5441 179.555 62.9826 197.315 60.7944C214.915 58.8027 232.371 55.6814 249.577 51.4494C256.69 49.7748 263.621 47.3961 270.269 44.348C273.077 43.1404 275.751 41.6363 278.244 39.8609C279.269 39.0228 280.054 37.9255 280.52 36.6813C280.986 35.437 281.116 34.0904 280.896 32.779Z" fill="#6AABDD"/>
<path d="M132.83 45.264C133.15 45.264 133.438 45.144 133.694 44.904C133.966 44.664 134.102 44.352 134.102 43.968C134.102 43.632 133.966 43.336 133.694 43.08C133.438 42.824 133.11 42.568 132.71 42.312C132.31 42.056 131.878 41.792 131.414 41.52C130.966 41.232 130.542 40.904 130.142 40.536C129.742 40.168 129.406 39.736 129.134 39.24C128.878 38.744 128.75 38.144 128.75 37.44C128.75 36.496 128.886 35.696 129.158 35.04C129.446 34.384 129.83 33.856 130.31 33.456C130.806 33.04 131.382 32.744 132.038 32.568C132.71 32.376 133.43 32.28 134.198 32.28C134.71 32.28 135.174 32.36 135.59 32.52C136.006 32.68 136.358 32.856 136.646 33.048C136.982 33.272 137.286 33.528 137.558 33.816L135.902 36.984C135.63 36.648 135.302 36.416 134.918 36.288C134.55 36.16 134.198 36.12 133.862 36.168C133.526 36.216 133.238 36.352 132.998 36.576C132.758 36.784 132.638 37.072 132.638 37.44C132.638 37.744 132.758 38.024 132.998 38.28C133.238 38.52 133.542 38.776 133.91 39.048C134.278 39.304 134.67 39.576 135.086 39.864C135.518 40.152 135.918 40.48 136.286 40.848C136.654 41.2 136.958 41.616 137.198 42.096C137.438 42.56 137.558 43.104 137.558 43.728C137.558 44.272 137.478 44.808 137.318 45.336C137.158 45.864 136.902 46.336 136.55 46.752C136.214 47.168 135.766 47.504 135.206 47.76C134.646 48.016 133.958 48.144 133.142 48.144C132.326 48.144 131.638 48 131.078 47.712C130.518 47.424 130.062 47.096 129.71 46.728C129.294 46.312 128.966 45.832 128.726 45.288L130.094 42.912C130.27 43.36 130.494 43.76 130.766 44.112C130.99 44.416 131.27 44.688 131.606 44.928C131.958 45.168 132.366 45.288 132.83 45.288V45.264ZM143.486 48.12C142.686 48.12 141.966 47.92 141.326 47.52C140.686 47.12 140.15 46.544 139.718 45.792C139.286 45.04 138.966 44.136 138.758 43.08C138.566 42.008 138.51 40.808 138.59 39.48C138.67 38.152 138.878 37.048 139.214 36.168C139.566 35.272 139.998 34.552 140.51 34.008C141.022 33.448 141.59 33.048 142.214 32.808C142.854 32.552 143.502 32.408 144.158 32.376C144.83 32.344 145.398 32.448 145.862 32.688C146.326 32.912 146.718 33.176 147.038 33.48C147.39 33.832 147.686 34.232 147.926 34.68L145.886 37.656C145.758 37.496 145.614 37.344 145.454 37.2C145.326 37.072 145.174 36.96 144.998 36.864C144.822 36.768 144.622 36.72 144.398 36.72C144.014 36.72 143.654 36.92 143.318 37.32C142.982 37.72 142.694 38.224 142.454 38.832C142.23 39.44 142.07 40.096 141.974 40.8C141.894 41.504 141.902 42.152 141.998 42.744C142.094 43.336 142.302 43.832 142.622 44.232C142.958 44.616 143.43 44.792 144.038 44.76C144.358 44.744 144.646 44.68 144.902 44.568C145.158 44.456 145.374 44.328 145.55 44.184C145.742 44.024 145.918 43.84 146.078 43.632L147.158 44.52C147.014 45.192 146.79 45.792 146.486 46.32C146.214 46.784 145.838 47.208 145.358 47.592C144.878 47.96 144.246 48.144 143.462 48.144L143.486 48.12ZM149.508 47.928L149.052 32.448L153.396 32.736L152.1 47.496L149.508 47.928ZM155.198 48.144L154.742 32.376L162.278 32.808V36.936H157.982L157.958 38.808L160.598 38.592V41.736L157.934 41.4L157.886 44.832L161.774 44.52L162.302 47.04L155.198 48.144ZM164.083 47.904L163.435 32.856L167.395 32.352L171.475 40.248L171.307 32.256L175.339 32.784L174.163 47.904H171.643L167.035 39.936L166.675 47.544L164.083 47.904ZM181.431 48.12C180.631 48.12 179.911 47.92 179.271 47.52C178.631 47.12 178.095 46.544 177.663 45.792C177.231 45.04 176.911 44.136 176.703 43.08C176.511 42.008 176.455 40.808 176.535 39.48C176.615 38.152 176.823 37.048 177.159 36.168C177.511 35.272 177.943 34.552 178.455 34.008C178.967 33.448 179.535 33.048 180.159 32.808C180.799 32.552 181.447 32.408 182.103 32.376C182.775 32.344 183.343 32.448 183.807 32.688C184.271 32.912 184.663 33.176 184.983 33.48C185.335 33.832 185.631 34.232 185.871 34.68L183.831 37.656C183.703 37.496 183.559 37.344 183.399 37.2C183.271 37.072 183.119 36.96 182.943 36.864C182.767 36.768 182.567 36.72 182.343 36.72C181.959 36.72 181.599 36.92 181.263 37.32C180.927 37.72 180.639 38.224 180.399 38.832C180.175 39.44 180.015 40.096 179.919 40.8C179.839 41.504 179.847 42.152 179.943 42.744C180.039 43.336 180.247 43.832 180.567 44.232C180.903 44.616 181.375 44.792 181.983 44.76C182.303 44.744 182.591 44.68 182.847 44.568C183.103 44.456 183.319 44.328 183.495 44.184C183.687 44.024 183.863 43.84 184.023 43.632L185.103 44.52C184.959 45.192 184.735 45.792 184.431 46.32C184.159 46.784 183.783 47.208 183.303 47.592C182.823 47.96 182.191 48.144 181.407 48.144L181.431 48.12ZM187.213 48.144L186.757 32.376L194.293 32.808V36.936H189.997L189.973 38.808L192.613 38.592V41.736L189.949 41.4L189.901 44.832L193.789 44.52L194.317 47.04L187.213 48.144Z" fill="white"/>
</svg>
