<svg width="489" height="92" viewBox="0 0 489 92" fill="none" xmlns="http://www.w3.org/2000/svg">
<path d="M0.0132913 41.1167C0.0132912 41.8247 0.915162 42.4 1.36609 41.7583C4.62274 37.0297 9.39788 33.9379 14.6588 33.1515C12.7155 38.6181 12.3788 44.6442 13.6981 50.343C13.8549 51.0289 14.8744 51.2944 15.1489 50.5643C19.4622 39.1696 29.2258 35.541 39.4404 34.7003C50.4 34.0586 60.4773 39.3245 69.5939 45.6524C70.1429 46.0285 71.0056 45.3869 70.7703 44.6346C68.5116 37.3133 66.6005 29.8611 65.0454 22.31C64.1632 18.3937 63.3005 14.4554 62.4967 10.517C62.3453 9.08862 62.0695 7.68054 61.6733 6.3132C61.0459 4.83079 59.1245 4.32191 57.7521 3.72452C49.3609 0.0295582 39.7933 0.538442 31.1472 2.61824C23.0304 4.56529 14.8352 8.45939 9.11035 15.4511C3.81681 22.0223 -0.261183 32.0673 0.0132913 41.1167Z" fill="#65BCFF"/>
<path d="M419.394 44.6502C428.512 38.3196 438.591 33.0516 449.553 33.6935C459.769 34.5346 469.535 38.1204 473.849 49.5641C474.123 50.2945 475.143 50.0289 475.3 49.3427C476.61 43.6405 476.273 37.6153 474.339 32.144C479.601 32.9308 484.377 36.0239 487.634 40.7545C488.085 41.3964 488.967 40.7544 488.987 40.1125C489.242 31.7013 485.693 22.781 481.143 16.2291C476.182 9.05746 468.554 4.78546 460.926 2.43917C452.368 -0.431495 443.3 -0.774491 434.591 1.44308C432.639 2.02671 430.742 2.81981 428.924 3.81151C427.238 4.74117 427.336 5.16171 426.963 7.10957C426.238 10.8061 425.453 14.4583 424.649 18.177C422.928 26.8031 420.787 35.3157 418.237 43.6762C417.982 44.3403 418.825 45.0265 419.394 44.6502Z" fill="#65BCFF"/>
<path d="M49.868 54.8987C52.9583 60.4281 56.0727 65.9826 59.4505 71.4114C59.5502 71.5899 59.7012 71.7306 59.8817 71.8136C60.0325 71.8994 60.2013 71.9443 60.3729 71.9443C60.5444 71.9443 60.7132 71.8994 60.864 71.8136C68.7217 67.0633 77.2023 63.3938 85.4673 59.2468C85.5804 59.1944 85.6814 59.1172 85.7635 59.0203C85.8457 58.9234 85.907 58.8091 85.9433 58.6852C85.9797 58.5612 85.9902 58.4305 85.9742 58.3019C85.9582 58.1733 85.9161 58.0498 85.8506 57.9398C77.394 40.5725 70.3508 22.7528 61.8941 5.28496C61.5587 4.58121 60.4807 4.73202 60.0974 5.28496C52.7188 15.7405 49.0774 31.0972 46.4422 43.2618C45.9152 45.4233 48.2868 52.1843 49.868 54.8987Z" fill="#006EC2"/>
<path d="M402.298 59.2366C410.563 63.2864 419.068 66.9588 426.903 71.8135C427.053 71.8994 427.222 71.9443 427.394 71.9443C427.565 71.9443 427.734 71.8994 427.885 71.8135C428.073 71.732 428.232 71.5914 428.34 71.4111C431.694 65.9778 434.809 60.4189 437.923 54.885C439.384 52.3697 441.876 45.6788 441.373 43.2891C438.738 31.1147 435.072 15.62 427.717 5.28177C427.61 5.1356 427.472 5.01723 427.314 4.9358C427.156 4.85437 426.983 4.81202 426.807 4.81202C426.631 4.81202 426.457 4.85437 426.3 4.9358C426.142 5.01723 426.004 5.1356 425.896 5.28177C417.463 22.663 410.396 40.4971 401.939 57.9789C401.881 58.0856 401.844 58.2035 401.83 58.3255C401.817 58.4475 401.828 58.5711 401.861 58.6888C401.895 58.8064 401.951 58.9157 402.026 59.0098C402.101 59.104 402.194 59.1812 402.298 59.2366Z" fill="#006EC2"/>
<path d="M45.3887 49.3352C46.69 54.4207 49.2921 59.2424 53.0354 63.5046C57.1267 69.2043 61.5768 74.7385 66.369 80.0862C70.0317 84.0729 74.0479 88.8976 80.3452 91.1068C86.6425 93.316 93.3574 90.8275 99.6226 89.4816C107.751 87.7803 115.687 85.8251 123.816 83.8952C156.655 75.8694 190.608 71.0345 224.926 69.4973C257.711 68.3007 290.558 70.2964 322.727 75.4393C338.788 78.1761 354.659 81.5663 370.278 85.5965C378.439 87.5518 386.728 89.1516 394.889 91.1068C397.638 91.9679 400.635 92.2126 403.548 91.8138C406.462 91.4151 409.18 90.3884 411.403 88.8468C416.75 84.8875 421.33 80.327 424.994 75.3123C429.46 70.0052 433.669 64.5203 437.428 58.9338C440.159 54.8963 442.697 50.351 441.701 45.8056C441.333 44.2627 440.511 42.8101 439.299 41.5659C438.088 40.3216 436.522 39.3208 434.729 38.6448C414.166 28.4876 388.463 24.3485 364.334 20.5141C334.192 15.6606 303.678 12.3779 272.991 10.687C243.345 9.2918 213.601 10.0227 184.122 12.8708C154.908 15.4631 125.933 19.5258 97.3736 25.0341C85.5678 27.2138 74.0632 30.3098 63.0276 34.2771C58.3666 35.849 53.9294 37.8067 49.7903 40.1175C48.0898 41.2084 46.7863 42.6366 46.013 44.2561C45.2396 45.8756 45.0242 47.6284 45.3887 49.3352Z" fill="#309AEC"/>
<path d="M177.448 58.921H178.345V61.742H177.227V60H172.352V61.742H171.234V58.921H172.027C172.443 58.349 172.651 57.5473 172.651 56.516V53.5H177.448V58.921ZM173.314 58.921H176.33V54.553H173.769V56.516C173.769 57.4867 173.617 58.2883 173.314 58.921ZM184.985 53.5V60H183.854V54.592H181.293V57.244C181.293 58.31 181.076 59.0553 180.643 59.48C180.218 59.896 179.616 60.0693 178.836 60V58.934C179.278 58.9947 179.607 58.8993 179.824 58.648C180.049 58.388 180.162 57.9113 180.162 57.218V53.5H184.985ZM191.561 53.5V60H190.443V57.66H189.494L187.674 60H186.296L188.194 57.595C187.708 57.4737 187.314 57.231 187.011 56.867C186.707 56.503 186.556 56.0783 186.556 55.593C186.556 54.995 186.768 54.4967 187.193 54.098C187.617 53.6993 188.15 53.5 188.792 53.5H191.561ZM188.831 56.646H190.443V54.553H188.831C188.51 54.553 188.237 54.6483 188.012 54.839C187.786 55.0297 187.674 55.2853 187.674 55.606C187.674 55.918 187.786 56.1693 188.012 56.36C188.237 56.5507 188.51 56.646 188.831 56.646ZM201.062 53.5H202.271L199.619 60.403C199.342 61.1397 198.952 61.6987 198.449 62.08C197.946 62.47 197.374 62.6433 196.733 62.6V61.547C197.53 61.6077 198.115 61.1743 198.488 60.247L198.592 60.013L195.771 53.5H196.967L199.19 58.596L201.062 53.5ZM207.31 53.5H208.441V60H207.31V57.66C206.79 57.8853 206.205 57.998 205.555 57.998C204.723 57.998 204.078 57.803 203.618 57.413C203.168 57.0143 202.942 56.4293 202.942 55.658V53.5H204.073V55.593C204.073 56.0783 204.203 56.425 204.463 56.633C204.732 56.841 205.122 56.945 205.633 56.945C206.249 56.945 206.808 56.8323 207.31 56.607V53.5ZM215.542 53.5H216.673V60H215.542V58.882C214.978 59.74 214.159 60.169 213.085 60.169C212.175 60.169 211.399 59.8397 210.758 59.181C210.116 58.5137 209.796 57.7033 209.796 56.75C209.796 55.7967 210.116 54.9907 210.758 54.332C211.399 53.6647 212.175 53.331 213.085 53.331C214.159 53.331 214.978 53.76 215.542 54.618V53.5ZM213.228 59.077C213.886 59.077 214.437 58.856 214.879 58.414C215.321 57.9633 215.542 57.4087 215.542 56.75C215.542 56.0913 215.321 55.541 214.879 55.099C214.437 54.6483 213.886 54.423 213.228 54.423C212.578 54.423 212.032 54.6483 211.59 55.099C211.148 55.541 210.927 56.0913 210.927 56.75C210.927 57.4087 211.148 57.9633 211.59 58.414C212.032 58.856 212.578 59.077 213.228 59.077ZM221.441 60.169C220.462 60.169 219.647 59.844 218.997 59.194C218.347 58.5353 218.022 57.7207 218.022 56.75C218.022 55.7793 218.347 54.969 218.997 54.319C219.647 53.6603 220.462 53.331 221.441 53.331C222.083 53.331 222.659 53.487 223.17 53.799C223.682 54.1023 224.063 54.514 224.314 55.034L223.365 55.58C223.201 55.2333 222.945 54.956 222.598 54.748C222.26 54.54 221.875 54.436 221.441 54.436C220.791 54.436 220.245 54.657 219.803 55.099C219.37 55.541 219.153 56.0913 219.153 56.75C219.153 57.4 219.37 57.946 219.803 58.388C220.245 58.83 220.791 59.051 221.441 59.051C221.875 59.051 222.265 58.9513 222.611 58.752C222.958 58.544 223.222 58.2667 223.404 57.92L224.366 58.479C224.089 58.9903 223.69 59.402 223.17 59.714C222.65 60.0173 222.074 60.169 221.441 60.169ZM230.217 53.5V54.592H228.007V60H226.876V54.592H224.653V53.5H230.217ZM235.928 53.5H236.838V60H235.72V55.437L232.119 60H231.209V53.5H232.327V58.063L235.928 53.5ZM243.421 53.5V60H242.303V57.66H241.354L239.534 60H238.156L240.054 57.595C239.569 57.4737 239.175 57.231 238.871 56.867C238.568 56.503 238.416 56.0783 238.416 55.593C238.416 54.995 238.629 54.4967 239.053 54.098C239.478 53.6993 240.011 53.5 240.652 53.5H243.421ZM240.691 56.646H242.303V54.553H240.691C240.371 54.553 240.098 54.6483 239.872 54.839C239.647 55.0297 239.534 55.2853 239.534 55.606C239.534 55.918 239.647 56.1693 239.872 56.36C240.098 56.5507 240.371 56.646 240.691 56.646ZM252.714 56.659C253.382 56.9363 253.715 57.439 253.715 58.167C253.715 58.7043 253.533 59.1463 253.169 59.493C252.814 59.831 252.303 60 251.635 60H248.385V53.5H251.375C252.025 53.5 252.528 53.6647 252.883 53.994C253.239 54.3147 253.416 54.7393 253.416 55.268C253.416 55.892 253.182 56.3557 252.714 56.659ZM251.323 54.514H249.49V56.217H251.323C251.982 56.217 252.311 55.9267 252.311 55.346C252.311 54.7913 251.982 54.514 251.323 54.514ZM251.57 58.973C251.9 58.973 252.151 58.895 252.324 58.739C252.506 58.583 252.597 58.362 252.597 58.076C252.597 57.8073 252.506 57.5993 252.324 57.452C252.151 57.296 251.9 57.218 251.57 57.218H249.49V58.973H251.57ZM263.685 60H262.281L259.317 56.919V60H258.186V53.5H259.317V56.373L262.125 53.5H263.581L260.474 56.646L263.685 60ZM269.626 59.181C268.959 59.8397 268.149 60.169 267.195 60.169C266.242 60.169 265.432 59.8397 264.764 59.181C264.106 58.5223 263.776 57.712 263.776 56.75C263.776 55.788 264.106 54.9777 264.764 54.319C265.432 53.6603 266.242 53.331 267.195 53.331C268.149 53.331 268.959 53.6603 269.626 54.319C270.294 54.9777 270.627 55.788 270.627 56.75C270.627 57.712 270.294 58.5223 269.626 59.181ZM267.195 59.064C267.845 59.064 268.391 58.843 268.833 58.401C269.275 57.959 269.496 57.4087 269.496 56.75C269.496 56.0913 269.275 55.541 268.833 55.099C268.391 54.657 267.845 54.436 267.195 54.436C266.554 54.436 266.012 54.657 265.57 55.099C265.128 55.541 264.907 56.0913 264.907 56.75C264.907 57.4087 265.128 57.959 265.57 58.401C266.012 58.843 266.554 59.064 267.195 59.064ZM276.459 53.5H277.59V60H276.459V57.283H273.092V60H271.961V53.5H273.092V56.204H276.459V53.5ZM284.81 60H283.406L280.442 56.919V60H279.311V53.5H280.442V56.373L283.25 53.5H284.706L281.599 56.646L284.81 60ZM290.208 53.5H291.417L288.765 60.403C288.488 61.1397 288.098 61.6987 287.595 62.08C287.093 62.47 286.521 62.6433 285.879 62.6V61.547C286.677 61.6077 287.262 61.1743 287.634 60.247L287.738 60.013L284.917 53.5H286.113L288.336 58.596L290.208 53.5ZM295.95 53.331C296.86 53.331 297.636 53.6647 298.277 54.332C298.918 54.9907 299.239 55.7967 299.239 56.75C299.239 57.7033 298.918 58.5137 298.277 59.181C297.636 59.8397 296.86 60.169 295.95 60.169C294.875 60.169 294.056 59.74 293.493 58.882V62.6H292.362V53.5H293.493V54.618C294.056 53.76 294.875 53.331 295.95 53.331ZM295.807 59.077C296.457 59.077 297.003 58.856 297.445 58.414C297.887 57.9633 298.108 57.4087 298.108 56.75C298.108 56.0913 297.887 55.541 297.445 55.099C297.003 54.6483 296.457 54.423 295.807 54.423C295.148 54.423 294.598 54.6483 294.156 55.099C293.714 55.541 293.493 56.0913 293.493 56.75C293.493 57.4087 293.714 57.9633 294.156 58.414C294.598 58.856 295.148 59.077 295.807 59.077ZM303.643 60.169C302.664 60.169 301.849 59.844 301.199 59.194C300.549 58.5353 300.224 57.7207 300.224 56.75C300.224 55.7793 300.549 54.969 301.199 54.319C301.849 53.6603 302.664 53.331 303.643 53.331C304.285 53.331 304.861 53.487 305.372 53.799C305.884 54.1023 306.265 54.514 306.516 55.034L305.567 55.58C305.403 55.2333 305.147 54.956 304.8 54.748C304.462 54.54 304.077 54.436 303.643 54.436C302.993 54.436 302.447 54.657 302.005 55.099C301.572 55.541 301.355 56.0913 301.355 56.75C301.355 57.4 301.572 57.946 302.005 58.388C302.447 58.83 302.993 59.051 303.643 59.051C304.077 59.051 304.467 58.9513 304.813 58.752C305.16 58.544 305.424 58.2667 305.606 57.92L306.568 58.479C306.291 58.9903 305.892 59.402 305.372 59.714C304.852 60.0173 304.276 60.169 303.643 60.169ZM308.389 57.27C308.502 57.8507 308.766 58.3013 309.182 58.622C309.607 58.9427 310.127 59.103 310.742 59.103C311.6 59.103 312.224 58.7867 312.614 58.154L313.576 58.7C312.944 59.6793 311.99 60.169 310.716 60.169C309.685 60.169 308.844 59.8483 308.194 59.207C307.553 58.557 307.232 57.738 307.232 56.75C307.232 55.7707 307.549 54.956 308.181 54.306C308.814 53.656 309.633 53.331 310.638 53.331C311.592 53.331 312.367 53.669 312.965 54.345C313.572 55.0123 313.875 55.8183 313.875 56.763C313.875 56.9277 313.862 57.0967 313.836 57.27H308.389ZM310.638 54.397C310.032 54.397 309.529 54.5703 309.13 54.917C308.732 55.255 308.485 55.71 308.389 56.282H312.731C312.636 55.6667 312.393 55.1987 312.003 54.878C311.613 54.5573 311.158 54.397 310.638 54.397Z" fill="white"/>
<path d="M164.6 46.192L163.992 25.552C166.509 25.2107 168.76 25.168 170.744 25.424C171.597 25.5307 172.429 25.7227 173.24 26C174.051 26.256 174.776 26.6293 175.416 27.12C176.056 27.5893 176.568 28.1867 176.952 28.912C177.336 29.6373 177.528 30.5227 177.528 31.568C177.528 32.4213 177.421 33.1787 177.208 33.84C177.016 34.5013 176.749 35.0773 176.408 35.568C176.088 36.0587 175.704 36.4853 175.256 36.848C174.808 37.1893 174.328 37.4773 173.816 37.712L177.208 42.928L172.984 46.48L169.688 38.608C169.496 38.608 169.315 38.608 169.144 38.608C168.973 38.5867 168.813 38.5653 168.664 38.544L168.056 45.584L164.6 46.192ZM172.856 33.104C172.856 32.7413 172.803 32.3893 172.696 32.048C172.589 31.7067 172.397 31.4187 172.12 31.184C171.843 30.928 171.48 30.736 171.032 30.608C170.605 30.48 170.061 30.448 169.4 30.512L168.92 35.92C169.624 35.9627 170.221 35.9093 170.712 35.76C171.203 35.6107 171.608 35.408 171.928 35.152C172.248 34.8747 172.483 34.5653 172.632 34.224C172.781 33.8613 172.856 33.488 172.856 33.104ZM179.472 46.192L178.864 25.168L188.912 25.744V31.248H183.184L183.152 33.744L186.672 33.456V37.648L183.12 37.2L183.056 41.776L188.24 41.36L188.944 44.72L179.472 46.192ZM196.727 45.776C195.66 45.776 194.7 45.5093 193.847 44.976C192.993 44.4427 192.279 43.6747 191.703 42.672C191.127 41.6693 190.7 40.464 190.423 39.056C190.167 37.6267 190.092 36.0267 190.199 34.256C190.305 32.4853 190.583 31.0133 191.031 29.84C191.5 28.6453 192.076 27.6853 192.759 26.96C193.441 26.2133 194.199 25.68 195.031 25.36C195.884 25.0187 196.748 24.8267 197.623 24.784C198.519 24.7413 199.276 24.88 199.895 25.2C200.513 25.4987 201.036 25.8507 201.463 26.256C201.932 26.7253 202.327 27.2587 202.647 27.856L199.927 31.824C199.756 31.6107 199.564 31.408 199.351 31.216C199.18 31.0453 198.977 30.896 198.743 30.768C198.508 30.64 198.241 30.576 197.943 30.576C197.132 30.5973 196.449 30.8747 195.895 31.408C195.34 31.9413 194.903 32.6133 194.583 33.424C194.284 34.2347 194.113 35.1093 194.071 36.048C194.028 36.9653 194.124 37.8187 194.359 38.608C194.593 39.3973 194.967 40.0587 195.479 40.592C195.991 41.104 196.652 41.3387 197.463 41.296C198.039 41.2747 198.519 41.1467 198.903 40.912C199.308 40.656 199.617 40.4213 199.831 40.208L199.639 38.128L196.727 37.872L197.303 33.424L203.223 33.872L202.327 45.296L200.375 45.872L200.215 44.176C199.852 44.6453 199.383 45.0507 198.807 45.392C198.231 45.712 197.527 45.872 196.695 45.872L196.727 45.776ZM206.011 45.904L205.403 25.264L211.195 25.648L209.467 45.328L206.011 45.904ZM218.429 42.352C218.856 42.352 219.24 42.192 219.581 41.872C219.944 41.552 220.125 41.136 220.125 40.624C220.125 40.176 219.944 39.7813 219.581 39.44C219.24 39.0987 218.802 38.7573 218.269 38.416C217.736 38.0747 217.16 37.7227 216.541 37.36C215.944 36.976 215.378 36.5387 214.845 36.048C214.312 35.5573 213.864 34.9813 213.501 34.32C213.16 33.6587 212.989 32.8587 212.989 31.92C212.989 30.6613 213.17 29.5947 213.533 28.72C213.917 27.8453 214.429 27.1413 215.069 26.608C215.73 26.0533 216.498 25.6587 217.373 25.424C218.269 25.168 219.229 25.04 220.253 25.04C220.936 25.04 221.554 25.1467 222.109 25.36C222.664 25.5733 223.133 25.808 223.517 26.064C223.965 26.3627 224.37 26.704 224.733 27.088L222.525 31.312C222.162 30.864 221.725 30.5547 221.213 30.384C220.722 30.2133 220.253 30.16 219.805 30.224C219.357 30.288 218.973 30.4693 218.653 30.768C218.333 31.0453 218.173 31.4293 218.173 31.92C218.173 32.3253 218.333 32.6987 218.653 33.04C218.973 33.36 219.378 33.7013 219.869 34.064C220.36 34.4053 220.882 34.768 221.437 35.152C222.013 35.536 222.546 35.9733 223.037 36.464C223.528 36.9333 223.933 37.488 224.253 38.128C224.573 38.7467 224.733 39.472 224.733 40.304C224.733 41.0293 224.626 41.744 224.413 42.448C224.2 43.152 223.858 43.7813 223.389 44.336C222.941 44.8907 222.344 45.3387 221.597 45.68C220.85 46.0213 219.933 46.192 218.845 46.192C217.757 46.192 216.84 46 216.093 45.616C215.346 45.232 214.738 44.7947 214.269 44.304C213.714 43.7493 213.277 43.1093 212.957 42.384L214.781 39.216C215.016 39.8133 215.314 40.3467 215.677 40.816C215.976 41.2213 216.349 41.584 216.797 41.904C217.266 42.224 217.81 42.384 218.429 42.384V42.352ZM226.462 31.344L225.438 25.264L239.934 25.648L239.614 30.704L235.806 30.896L234.526 45.328L231.07 45.904L230.622 31.152L226.462 31.344ZM241.538 46.192L240.93 25.552C243.447 25.2107 245.698 25.168 247.682 25.424C248.535 25.5307 249.367 25.7227 250.178 26C250.988 26.256 251.714 26.6293 252.354 27.12C252.994 27.5893 253.506 28.1867 253.89 28.912C254.274 29.6373 254.466 30.5227 254.466 31.568C254.466 32.4213 254.359 33.1787 254.146 33.84C253.954 34.5013 253.687 35.0773 253.346 35.568C253.026 36.0587 252.642 36.4853 252.194 36.848C251.746 37.1893 251.266 37.4773 250.754 37.712L254.146 42.928L249.922 46.48L246.626 38.608C246.434 38.608 246.252 38.608 246.082 38.608C245.911 38.5867 245.751 38.5653 245.602 38.544L244.994 45.584L241.538 46.192ZM249.794 33.104C249.794 32.7413 249.74 32.3893 249.634 32.048C249.527 31.7067 249.335 31.4187 249.058 31.184C248.78 30.928 248.418 30.736 247.97 30.608C247.543 30.48 246.999 30.448 246.338 30.512L245.858 35.92C246.562 35.9627 247.159 35.9093 247.65 35.76C248.14 35.6107 248.546 35.408 248.866 35.152C249.186 34.8747 249.42 34.5653 249.57 34.224C249.719 33.8613 249.794 33.488 249.794 33.104ZM258.746 45.936L255.706 44.912L258.746 25.168L267.066 24.848L268.954 45.584L265.69 46.192L264.794 40.56L259.866 40.912L258.746 45.936ZM262.778 27.984L260.858 36.592H264.154L262.778 27.984ZM270.712 31.344L269.688 25.264L284.184 25.648L283.864 30.704L280.056 30.896L278.776 45.328L275.32 45.904L274.872 31.152L270.712 31.344ZM285.98 45.904L285.372 25.264L291.164 25.648L289.436 45.328L285.98 45.904ZM298.814 46C297.832 46 296.968 45.7013 296.222 45.104C295.475 44.5067 294.846 43.7173 294.334 42.736C293.822 41.7547 293.438 40.6453 293.182 39.408C292.926 38.1493 292.787 36.8693 292.766 35.568C292.766 34.2667 292.894 32.9973 293.15 31.76C293.406 30.5013 293.8 29.3813 294.334 28.4C294.867 27.4187 295.528 26.6293 296.318 26.032C297.128 25.4347 298.088 25.136 299.198 25.136C300.414 25.136 301.448 25.4347 302.302 26.032C303.155 26.6293 303.838 27.4187 304.35 28.4C304.862 29.3813 305.214 30.5013 305.406 31.76C305.619 32.9973 305.683 34.2667 305.598 35.568C305.512 36.8693 305.288 38.1493 304.926 39.408C304.584 40.6453 304.115 41.7547 303.518 42.736C302.942 43.7173 302.259 44.5067 301.47 45.104C300.68 45.7013 299.795 46 298.814 46ZM299.198 31.408C298.6 31.408 298.099 31.6747 297.694 32.208C297.31 32.72 297.011 33.3813 296.798 34.192C296.606 34.9813 296.51 35.8347 296.51 36.752C296.51 37.6693 296.595 38.5333 296.766 39.344C296.936 40.1333 297.182 40.7947 297.502 41.328C297.843 41.84 298.259 42.096 298.75 42.096C299.24 42.096 299.656 41.84 299.998 41.328C300.339 40.7947 300.595 40.1333 300.766 39.344C300.958 38.5333 301.064 37.6693 301.086 36.752C301.128 35.8347 301.086 34.9813 300.958 34.192C300.83 33.3813 300.616 32.72 300.318 32.208C300.04 31.6747 299.678 31.408 299.23 31.408H299.198ZM307.944 45.872L307.08 25.808L312.36 25.136L317.8 35.664L317.576 25.008L322.952 25.712L321.384 45.872H318.024L311.88 35.248L311.4 45.392L307.944 45.872Z" fill="white"/>
</svg>
