<svg width="489" height="92" viewBox="0 0 489 92" fill="none" xmlns="http://www.w3.org/2000/svg">
<path d="M0.012803 41.1167C0.0128029 41.8247 0.914674 42.4 1.3656 41.7583C4.62225 37.0297 9.39739 33.9379 14.6583 33.1515C12.715 38.6181 12.3783 44.6442 13.6976 50.343C13.8545 51.0289 14.8739 51.2944 15.1484 50.5643C19.4617 39.1696 29.2253 35.541 39.4399 34.7003C50.3995 34.0586 60.4768 39.3245 69.5935 45.6524C70.1424 46.0285 71.0051 45.3869 70.7698 44.6346C68.5111 37.3133 66.6 29.8611 65.0449 22.31C64.1627 18.3937 63.3 14.4554 62.4962 10.517C62.3448 9.08862 62.069 7.68054 61.6728 6.3132C61.0454 4.83079 59.124 4.32191 57.7516 3.72452C49.3604 0.0295582 39.7928 0.538442 31.1467 2.61824C23.0299 4.56529 14.8347 8.45939 9.10986 15.4511C3.81632 22.0223 -0.261671 32.0673 0.012803 41.1167Z" fill="#FF9B3F"/>
<path d="M419.394 44.6502C428.512 38.3196 438.591 33.0516 449.553 33.6935C459.769 34.5346 469.535 38.1204 473.849 49.5641C474.123 50.2945 475.143 50.0289 475.3 49.3427C476.61 43.6405 476.273 37.6153 474.339 32.144C479.601 32.9308 484.377 36.0239 487.634 40.7545C488.085 41.3964 488.967 40.7544 488.987 40.1125C489.242 31.7013 485.693 22.781 481.143 16.2291C476.182 9.05746 468.554 4.78546 460.926 2.43917C452.368 -0.431495 443.3 -0.774491 434.591 1.44308C432.639 2.02671 430.742 2.81981 428.924 3.81151C427.238 4.74117 427.336 5.16171 426.963 7.10957C426.238 10.8061 425.453 14.4583 424.649 18.177C422.928 26.8031 420.787 35.3157 418.237 43.6762C417.982 44.3403 418.825 45.0265 419.394 44.6502Z" fill="#FF9B3F"/>
<path d="M49.868 54.8987C52.9583 60.4281 56.0727 65.9826 59.4505 71.4114C59.5502 71.5899 59.7012 71.7306 59.8817 71.8136C60.0325 71.8994 60.2013 71.9443 60.3729 71.9443C60.5444 71.9443 60.7132 71.8994 60.864 71.8136C68.7217 67.0633 77.2023 63.3938 85.4673 59.2468C85.5804 59.1944 85.6814 59.1172 85.7635 59.0203C85.8457 58.9234 85.907 58.8091 85.9433 58.6852C85.9797 58.5612 85.9902 58.4305 85.9742 58.3019C85.9582 58.1733 85.9161 58.0498 85.8506 57.9398C77.394 40.5725 70.3508 22.7528 61.8941 5.28496C61.5587 4.58121 60.4807 4.73202 60.0974 5.28496C52.7188 15.7405 49.0774 31.0972 46.4422 43.2618C45.9152 45.4233 48.2868 52.1843 49.868 54.8987Z" fill="#E26D00"/>
<path d="M402.298 59.2366C410.563 63.2864 419.068 66.9588 426.902 71.8135C427.053 71.8994 427.222 71.9443 427.393 71.9443C427.565 71.9443 427.734 71.8994 427.884 71.8135C428.072 71.732 428.231 71.5914 428.339 71.4111C431.694 65.9778 434.808 60.4189 437.923 54.885C439.384 52.3697 441.876 45.6788 441.372 43.2891C438.737 31.1147 435.072 15.62 427.717 5.28177C427.609 5.1356 427.471 5.01723 427.313 4.9358C427.156 4.85437 426.982 4.81202 426.806 4.81202C426.63 4.81202 426.457 4.85437 426.299 4.9358C426.141 5.01723 426.003 5.1356 425.896 5.28177C417.463 22.663 410.395 40.4971 401.938 57.9789C401.88 58.0856 401.843 58.2035 401.83 58.3255C401.817 58.4475 401.827 58.5711 401.861 58.6888C401.894 58.8064 401.95 58.9157 402.025 59.0098C402.101 59.104 402.193 59.1812 402.298 59.2366Z" fill="#E26D00"/>
<path d="M45.3887 49.3352C46.69 54.4207 49.2921 59.2424 53.0354 63.5046C57.1267 69.2043 61.5768 74.7385 66.369 80.0862C70.0317 84.0729 74.0479 88.8976 80.3452 91.1068C86.6425 93.316 93.3574 90.8275 99.6226 89.4816C107.751 87.7803 115.687 85.8251 123.816 83.8952C156.655 75.8694 190.608 71.0345 224.926 69.4973C257.711 68.3007 290.558 70.2964 322.727 75.4393C338.788 78.1761 354.659 81.5663 370.278 85.5965C378.439 87.5518 386.728 89.1516 394.889 91.1068C397.638 91.9679 400.635 92.2126 403.548 91.8138C406.462 91.4151 409.18 90.3884 411.403 88.8468C416.75 84.8875 421.33 80.327 424.994 75.3123C429.46 70.0052 433.669 64.5203 437.428 58.9338C440.159 54.8963 442.697 50.351 441.701 45.8056C441.333 44.2627 440.511 42.8101 439.299 41.5659C438.088 40.3216 436.522 39.3208 434.729 38.6448C414.166 28.4876 388.463 24.3485 364.334 20.5141C334.192 15.6606 303.678 12.3779 272.991 10.687C243.345 9.2918 213.601 10.0227 184.122 12.8708C154.908 15.4631 125.933 19.5258 97.3736 25.0341C85.5678 27.2138 74.0632 30.3098 63.0276 34.2771C58.3666 35.849 53.9294 37.8067 49.7903 40.1175C48.0898 41.2084 46.7863 42.6366 46.013 44.2561C45.2396 45.8756 45.0242 47.6284 45.3887 49.3352Z" fill="#FB7800"/>
</svg>
