<svg width="489" height="92" viewBox="0 0 489 92" fill="none" xmlns="http://www.w3.org/2000/svg">
<path d="M0.0118264 41.1167C0.0118264 41.8247 0.913697 42.4 1.36462 41.7583C4.62128 37.0297 9.39642 33.9379 14.6573 33.1515C12.7141 38.6181 12.3773 44.6442 13.6966 50.343C13.8535 51.0289 14.873 51.2944 15.1474 50.5643C19.4607 39.1696 29.2243 35.541 39.4389 34.7003C50.3985 34.0586 60.4758 39.3245 69.5925 45.6524C70.1414 46.0285 71.0041 45.3869 70.7688 44.6346C68.5101 37.3133 66.5991 29.8611 65.0439 22.31C64.1617 18.3937 63.2991 14.4554 62.4952 10.517C62.3439 9.08862 62.0681 7.68054 61.6718 6.3132C61.0444 4.83079 59.1231 4.32191 57.7507 3.72452C49.3594 0.0295582 39.7918 0.538442 31.1457 2.61824C23.0289 4.56529 14.8337 8.45939 9.10888 15.4511C3.81534 22.0223 -0.262648 32.0673 0.0118264 41.1167Z" fill="#33C5F3"/>
<path d="M419.394 44.6502C428.512 38.3196 438.591 33.0516 449.553 33.6935C459.769 34.5346 469.535 38.1204 473.849 49.5641C474.123 50.2945 475.143 50.0289 475.3 49.3427C476.61 43.6405 476.273 37.6153 474.339 32.144C479.601 32.9308 484.377 36.0239 487.634 40.7545C488.085 41.3964 488.967 40.7544 488.987 40.1125C489.242 31.7013 485.693 22.781 481.143 16.2291C476.182 9.05746 468.554 4.78546 460.926 2.43917C452.368 -0.431495 443.3 -0.774491 434.591 1.44308C432.639 2.02671 430.742 2.81981 428.924 3.81151C427.238 4.74117 427.336 5.16171 426.963 7.10957C426.238 10.8061 425.453 14.4583 424.649 18.177C422.928 26.8031 420.787 35.3157 418.237 43.6762C417.982 44.3403 418.825 45.0265 419.394 44.6502Z" fill="#33C5F3"/>
<path d="M49.867 54.8987C52.9574 60.4281 56.0717 65.9826 59.4496 71.4114C59.5493 71.5899 59.7002 71.7306 59.8808 71.8136C60.0315 71.8994 60.2004 71.9443 60.3719 71.9443C60.5434 71.9443 60.7122 71.8994 60.863 71.8136C68.7207 67.0633 77.2013 63.3938 85.4663 59.2468C85.5794 59.1944 85.6804 59.1172 85.7625 59.0203C85.8447 58.9234 85.906 58.8091 85.9424 58.6852C85.9787 58.5612 85.9892 58.4305 85.9732 58.3019C85.9572 58.1733 85.9151 58.0498 85.8496 57.9398C77.393 40.5725 70.3498 22.7528 61.8931 5.28496C61.5578 4.58121 60.4797 4.73202 60.0964 5.28496C52.7178 15.7405 49.0764 31.0972 46.4412 43.2618C45.9142 45.4233 48.2859 52.1843 49.867 54.8987Z" fill="#0091BE"/>
<path d="M402.297 59.2366C410.562 63.2864 419.067 66.9588 426.901 71.8135C427.052 71.8994 427.221 71.9443 427.392 71.9443C427.564 71.9443 427.733 71.8994 427.883 71.8135C428.071 71.732 428.23 71.5914 428.339 71.4111C431.693 65.9778 434.807 60.4189 437.922 54.885C439.383 52.3697 441.875 45.6788 441.371 43.2891C438.736 31.1147 435.071 15.62 427.716 5.28177C427.608 5.1356 427.47 5.01723 427.312 4.9358C427.155 4.85437 426.981 4.81202 426.805 4.81202C426.629 4.81202 426.456 4.85437 426.298 4.9358C426.14 5.01723 426.002 5.1356 425.895 5.28177C417.462 22.663 410.394 40.4971 401.937 57.9789C401.879 58.0856 401.842 58.2035 401.829 58.3255C401.816 58.4475 401.826 58.5711 401.86 58.6888C401.893 58.8064 401.949 58.9157 402.024 59.0098C402.1 59.104 402.192 59.1812 402.297 59.2366Z" fill="#0091BE"/>
<path d="M45.3887 49.3352C46.69 54.4207 49.2921 59.2424 53.0354 63.5046C57.1267 69.2043 61.5768 74.7385 66.369 80.0862C70.0317 84.0729 74.0479 88.8976 80.3452 91.1068C86.6425 93.316 93.3574 90.8275 99.6226 89.4816C107.751 87.7803 115.687 85.8251 123.816 83.8952C156.655 75.8694 190.608 71.0345 224.926 69.4973C257.711 68.3007 290.558 70.2964 322.727 75.4393C338.788 78.1761 354.659 81.5663 370.278 85.5965C378.439 87.5518 386.728 89.1516 394.889 91.1068C397.638 91.9679 400.635 92.2126 403.548 91.8138C406.462 91.4151 409.18 90.3884 411.403 88.8468C416.75 84.8875 421.33 80.327 424.994 75.3123C429.46 70.0052 433.669 64.5203 437.428 58.9338C440.159 54.8963 442.697 50.351 441.701 45.8056C441.333 44.2627 440.511 42.8101 439.299 41.5659C438.088 40.3216 436.522 39.3208 434.729 38.6448C414.166 28.4876 388.463 24.3485 364.334 20.5141C334.192 15.6606 303.678 12.3779 272.991 10.687C243.345 9.2918 213.601 10.0227 184.122 12.8708C154.908 15.4631 125.933 19.5258 97.3736 25.0341C85.5678 27.2138 74.0632 30.3098 63.0276 34.2771C58.3666 35.849 53.9294 37.8067 49.7903 40.1175C48.0898 41.2084 46.7863 42.6366 46.013 44.2561C45.2396 45.8756 45.0242 47.6284 45.3887 49.3352Z" fill="#33C5F3"/>
</svg>
