<svg width="200" height="483" viewBox="0 0 200 483" fill="none" xmlns="http://www.w3.org/2000/svg">
<path fill-rule="evenodd" clip-rule="evenodd" d="M138.008 212.928C140.701 230.761 147.747 282.066 149.972 296.497C153.1 316.909 150.037 323.875 117.757 327.132C85.4778 330.372 47.0876 300.479 52.747 250.658C54.6818 233.663 21.0803 206.14 39.0419 196.353C54.7785 187.776 134.155 187.502 138.008 212.928Z" fill="#135C1B"/>
<path fill-rule="evenodd" clip-rule="evenodd" d="M123.287 215.396C123.287 215.396 136.46 276.956 139.588 297.368C142.716 317.781 143.055 324.633 110.775 327.874C96.0384 329.357 43.1047 332.808 31.6247 320.586C23.3856 311.831 19.0645 265.685 23.6759 234.245C26.8038 212.913 33.4145 208.269 45.5071 202.497C61.5178 194.903 85.7516 201.643 123.287 215.396Z" fill="#22852C"/>
<path fill-rule="evenodd" clip-rule="evenodd" d="M119.643 453.911L120.836 434.079C113.903 434.208 102.44 434.225 93.0072 434.208C94.0553 445.753 94.7808 453.815 94.7808 453.815C92.3623 465.601 110.211 470.615 116.548 467.358C122.884 464.118 120.949 454.83 119.643 453.911Z" fill="#FAECE8"/>
<path fill-rule="evenodd" clip-rule="evenodd" d="M119.643 453.912C122.03 454.412 134.171 468.52 133.058 478.113H85.3484C85.3484 478.113 84.4616 467.149 94.7807 453.815C113.145 458.781 120.272 456.088 119.643 453.912Z" fill="#1E489E"/>
<path fill-rule="evenodd" clip-rule="evenodd" d="M132.204 477.323H86.671C85.2683 477.323 84.1396 478.468 84.1396 479.855C84.1396 481.258 85.2844 482.402 86.671 482.402H132.204C133.591 482.402 134.735 481.258 134.735 479.855C134.735 478.468 133.591 477.323 132.204 477.323Z" fill="#452821"/>
<path fill-rule="evenodd" clip-rule="evenodd" d="M123.723 461.941C124.449 462.151 125.255 461.861 125.545 461.313C125.819 460.748 125.465 460.136 124.739 459.91C122.53 459.265 119.16 458.813 115.936 458.975C113.307 459.104 110.728 459.652 108.841 460.829C108.229 461.2 108.132 461.893 108.615 462.361C109.099 462.828 109.986 462.893 110.599 462.522C111.985 461.667 114.001 461.248 116.097 461.151C118.902 461.006 121.837 461.393 123.723 461.941Z" fill="#D9B2A7"/>
<path fill-rule="evenodd" clip-rule="evenodd" d="M124.626 465.908C125.351 466.117 126.157 465.827 126.448 465.279C126.722 464.715 126.367 464.086 125.641 463.876C123.432 463.231 120.063 462.78 116.838 462.941C114.21 463.07 111.63 463.618 109.744 464.795C109.131 465.166 109.034 465.859 109.518 466.327C110.002 466.795 110.888 466.859 111.501 466.488C112.888 465.634 114.903 465.214 116.999 465.118C119.805 464.973 122.739 465.36 124.626 465.908Z" fill="#D9B2A7"/>
<path fill-rule="evenodd" clip-rule="evenodd" d="M35.6881 451.751C35.6881 451.751 35.7042 444.463 35.8816 434.112C44.6851 434.176 55.3266 434.192 63.8398 434.144C62.8079 445.511 62.034 453.831 62.034 453.831L52.1503 471.502L35.6881 451.751Z" fill="#FAECE8"/>
<path fill-rule="evenodd" clip-rule="evenodd" d="M62.034 453.832C62.034 453.832 66.1455 456.847 67.1452 464.505C68.1448 472.164 66.1616 478.226 66.1616 478.226L14.6307 480.194L8.74563 477.533C7.11715 464.086 28.7872 455.766 35.6881 451.752C39.4127 455.17 56.6165 464.57 62.034 453.832Z" fill="#1E489E"/>
<path fill-rule="evenodd" clip-rule="evenodd" d="M16.1626 463.279C16.7753 462.796 17.3719 462.296 18.0168 461.828C19.8872 462.763 21.8865 464.021 22.9345 465.037C23.386 465.456 23.3537 466.117 22.87 466.488C22.3863 466.859 21.6285 466.81 21.1932 466.391C20.1613 465.375 18.1136 464.134 16.1626 463.279Z" fill="#D9B2A7"/>
<path fill-rule="evenodd" clip-rule="evenodd" d="M20.5643 460.054C21.2415 459.619 21.9026 459.184 22.5959 458.781C23.8374 459.522 25.2885 460.522 26.0625 461.247C26.5139 461.667 26.4817 462.328 25.998 462.699C25.5143 463.069 24.7726 463.021 24.3211 462.602C23.515 461.844 21.9671 460.812 20.5643 460.054Z" fill="#D9B2A7"/>
<path fill-rule="evenodd" clip-rule="evenodd" d="M66.1618 477.323H9.32624C7.92349 477.323 6.79481 478.468 6.79481 479.855C6.79481 481.258 7.93961 482.402 9.32624 482.402H66.1618C67.5484 482.402 68.6932 481.258 68.6932 479.855C68.7093 478.468 67.5645 477.323 66.1618 477.323Z" fill="#452821"/>
<path fill-rule="evenodd" clip-rule="evenodd" d="M125.029 311.831C126.657 340.208 125.383 432.338 125.786 441.964L85.0421 441.98L83.6877 341.563C81.0918 341.547 78.7378 341.369 76.1419 341.353L73.4009 442.012L30.2059 440.432C29.9156 415.989 31.9956 337.838 32.8501 311.67C32.834 311.654 110.808 285.969 125.029 311.831Z" fill="#002B82"/>
<path fill-rule="evenodd" clip-rule="evenodd" d="M119.66 214.17C119.66 214.17 135.639 226.214 146.183 248.674C156.712 271.135 162.581 307.622 162.581 307.622C162.581 307.622 177.415 322.021 181.043 329.228C183.574 334.242 182.203 337.032 178.947 333.565C177.576 332.098 174.932 327.922 172.965 326.342C174.384 328.615 180.801 339.466 177.802 341.224C174.803 342.965 174.351 337.677 167.305 329.534C170.981 335.645 174.996 343.562 172.287 345.593C169.579 347.625 165.048 335.21 162.662 332.662C164.193 336.451 166.902 346.174 163.178 346.351C159.437 346.512 157.631 336.629 155.277 333.759L148.102 325.89C147.377 326.68 145.716 333.549 144.652 334.387C143.604 335.21 142.072 335 140.959 331.259C139.202 325.084 143.539 314.733 143.539 314.733C140.008 278.632 128.947 261.186 104.149 240.097C99.9572 236.533 94.2656 225.263 100.264 217.266C106.229 209.285 114.42 209.559 119.66 214.17Z" fill="#E39B6D"/>
<path fill-rule="evenodd" clip-rule="evenodd" d="M119.659 214.17C119.659 214.17 135.638 226.214 146.183 248.674C133.219 243.37 123.803 252.254 120.659 256.027C115.999 250.706 110.517 245.514 104.132 240.097C99.9402 236.533 94.2486 225.263 100.247 217.266C106.228 209.285 114.419 209.559 119.659 214.17Z" fill="#D58756"/>
<path fill-rule="evenodd" clip-rule="evenodd" d="M134.752 225.522C127.464 234.89 117.967 242.468 106.68 245.644L112.549 254.689C118.805 253.222 137.928 241.516 140.766 233.842L134.752 225.522Z" fill="#EEEEEE"/>
<path fill-rule="evenodd" clip-rule="evenodd" d="M134.751 225.521C131.155 233.293 116.58 243.177 105.632 246.675C88.686 234.599 75.8355 207.447 95.3611 202.61C97.2314 202.142 96.6832 199.675 98.8277 200.223C110.453 203.222 127.366 213.235 134.751 225.521Z" fill="white"/>
<path fill-rule="evenodd" clip-rule="evenodd" d="M92.104 173.829L69.6922 177.263L67.3543 199.401L79.447 202.158L92.1523 202.077L92.104 173.829Z" fill="#E8935A"/>
<path fill-rule="evenodd" clip-rule="evenodd" d="M125.126 313.717C125.126 313.717 119.773 239.017 117.516 224.908C115.516 212.413 108.873 204.98 98.8607 201.191C94.8298 204.883 87.4936 197.692 79.8832 197.466C71.5474 197.224 62.9051 203.513 58.713 197.756C45.9915 199.24 37.5428 205.093 36.8978 222.329C36.1078 243.531 32.8186 311.814 32.8186 311.814C34.0601 313.056 88.5094 324.068 125.126 313.717Z" fill="white"/>
<path fill-rule="evenodd" clip-rule="evenodd" d="M101.392 203.239C96.2966 199.514 84.4941 196.935 76.2388 196.467C69.3541 196.08 60.5506 196.515 56.8261 199.224C60.6796 204.077 71.1438 197.289 79.8666 197.467C88.5734 197.628 96.8931 204.755 101.392 203.239Z" fill="#E8935A"/>
<path fill-rule="evenodd" clip-rule="evenodd" d="M92.1528 194.032C85.526 199.45 74.433 198.112 68.032 193.033L55.1493 198.257C59.4059 203.803 66.1133 207.028 73.3044 208.334L79.8183 197.45L84.0588 208.882C91.5885 208.35 98.6184 205.883 102.875 201.949L92.1528 194.032Z" fill="#EEEEEE"/>
<path fill-rule="evenodd" clip-rule="evenodd" d="M124.158 211.124C117.096 244.628 120.578 257.93 133.235 284.824L123.319 290.564C108.244 270.813 99.5532 226.118 108.405 203.562L124.158 211.124Z" fill="#4FBB5A"/>
<path fill-rule="evenodd" clip-rule="evenodd" d="M153.518 154.352C171.125 156.384 177.252 132.166 163.386 126.636C179.074 88.2617 159.113 43.8413 108.84 30.3458C74.0453 21.0103 32.6722 33.3932 18.0643 74.3309C8.26118 101.805 4.97197 130.006 13.1466 149.838C33.0592 198.144 129.897 201.949 153.518 154.352Z" fill="#E39B6D"/>
<path fill-rule="evenodd" clip-rule="evenodd" d="M164.209 127.007C163.935 126.878 163.661 126.749 163.37 126.636C164.402 124.121 165.273 121.573 165.998 119.026C170.578 88.9552 152.31 57.9979 135.025 41.6648C127.512 36.8761 118.773 33.0064 108.84 30.3299C105.503 29.427 102.085 28.7337 98.6504 28.2499C79.2698 28.9433 57.761 35.9409 48.49 38.2949C47.2323 38.6174 45.8779 39.085 44.4429 39.6816C33.0113 47.3725 23.6113 58.788 18.0648 74.315L17.968 74.6052C25.2881 77.6848 33.7369 74.7019 35.6717 67.2045C34.0432 70.4776 46.0069 74.4117 48.6673 69.1877C50.6022 72.2189 78.0122 79.1682 81.6078 67.7849C86.7028 68.9619 89.9436 67.4302 92.9749 64.1894C94.2164 71.9287 111.372 76.1531 118.724 70.9451C118.724 70.9451 119.563 75.5726 126.528 82.3123C133.493 89.0519 146.15 88.9068 146.15 88.9068C145.247 93.0022 145.07 96.9041 149.569 100.258C149.569 100.258 145.667 106.949 147.166 116.027C148.666 125.104 153.874 125.894 153.874 125.894C153.874 125.894 153.454 128.667 154.583 131.924C155.712 135.181 160.516 136.455 160.516 136.455C162.048 133.376 163.274 130.215 164.209 127.007Z" fill="#D48756"/>
<path fill-rule="evenodd" clip-rule="evenodd" d="M153.519 154.352C158.018 155.691 161.823 153.337 164.548 151.579C159.34 152.482 154.293 151.902 149.408 147.645C130.704 193.323 47.8616 194.032 20.4999 162.027C50.2801 198.402 132.075 197.563 153.519 154.352Z" fill="#D58756"/>
<path fill-rule="evenodd" clip-rule="evenodd" d="M54.956 129.457C54.3594 140.582 71.7406 141.904 73.498 133.971C71.4181 134.439 68.9351 135.245 65.1783 134.697C61.9375 134.213 57.4712 132.681 54.956 129.457Z" fill="#D2702E"/>
<path fill-rule="evenodd" clip-rule="evenodd" d="M159.275 141.808C159.275 141.808 161.661 138.325 158.243 137.196C156.469 136.616 155.26 138.116 154.551 139.663C153.89 141.098 153.648 142.582 153.744 142.533C153.744 142.533 154.293 141.888 155.05 141.227C156.469 140.018 158.598 138.809 159.275 141.808Z" fill="#D58756"/>
<path fill-rule="evenodd" clip-rule="evenodd" d="M83.8489 155.675C70.1277 159.835 57.3095 155.401 47.1355 150.87C43.0724 149.064 45.2329 156.449 45.9101 158.351C49.3606 168.17 61.0663 174.539 71.3692 173.636C80.0115 172.879 86.3158 166.977 88.8633 161.657C91.7817 155.562 91.9107 153.24 83.8489 155.675Z" fill="#8F2F23"/>
<path fill-rule="evenodd" clip-rule="evenodd" d="M53.7465 168.492C58.8093 172.2 65.3232 174.168 71.3695 173.635C79.528 172.926 85.6066 167.605 88.4121 162.542C81.4629 159.205 55.9393 156.835 53.7465 168.492Z" fill="#B13B32"/>
<path fill-rule="evenodd" clip-rule="evenodd" d="M83.1562 155.885C70.3541 159.093 58.455 155.481 48.8292 151.628C48.3455 158.158 56.4879 162.189 65.8557 163.608C74.0787 164.865 80.7377 162.963 83.1562 155.885Z" fill="#FEFEFE"/>
<path fill-rule="evenodd" clip-rule="evenodd" d="M83.1562 155.885C70.3541 159.093 58.455 155.481 48.8292 151.628C48.7647 152.418 48.8453 153.176 49.0227 153.885C62.9534 160.061 74.9332 159.512 82.1566 158.142C82.5436 157.449 82.8821 156.691 83.1562 155.885Z" fill="#F2F2F2"/>
<path fill-rule="evenodd" clip-rule="evenodd" d="M157.115 124.056C149.795 122.992 147.521 105.901 154.196 99.0965C154.196 99.0965 151.02 96.8554 149.633 93.3727C148.247 89.89 152.439 83.5051 152.439 83.5051C152.439 83.5051 150.569 85.585 146.651 85.5366C142.716 85.4882 141.314 82.2797 141.314 82.2797C134.316 84.8917 121.433 75.8947 125.819 69.7194C125.819 69.7194 122.917 70.8803 120.224 69.5259C117.531 68.1715 118.467 63.7698 118.467 63.7698C116.677 71.5091 96.9255 70.3482 92.9429 56.8206C92.9429 56.8206 94.1844 61.9801 88.1865 63.1571C82.1885 64.3341 78.6252 60.0936 78.6252 60.0936C78.8348 71.6865 57.6968 74.0566 49.1352 60.0936C49.1352 60.0936 50.2316 66.93 44.5561 67.575C38.8807 68.2199 32.6892 61.7866 32.6892 61.7866C32.6892 61.7866 34.882 68.9938 29.5612 72.1863C24.2405 75.3788 18.6456 71.8155 18.6456 71.8155C16.6785 78.4584 14.5824 84.8272 12.2284 94.2917C4.95668 91.1637 -1.37989 83.102 5.35975 76.0076C-0.976805 65.2209 3.24758 43.9217 12.0188 44.0023C10.9385 37.698 14.6953 29.6685 21.7413 32.1999C14.8565 23.2029 31.0284 4.38674 51.7795 15.9473C50.5541 5.72499 62.8241 -1.77246 72.0952 11.5134C71.289 4.40286 79.3024 1.71022 83.8976 4.93494C91.4434 -6.64178 114.839 4.53185 115.403 14.0931C115.403 14.0931 119.273 8.24026 126.77 9.15931C134.268 10.0783 135.864 17.8015 135.864 17.8015C135.864 17.8015 139.653 16.1569 142.878 17.8338C146.102 19.5106 146.892 23.5093 146.892 23.5093C167.337 15.9957 177.221 34.6345 175.979 44.5344C175.979 44.5344 182.558 43.1317 186.718 50.226C190.894 57.3204 187.056 62.6089 187.056 62.6089C200.503 66.4463 202.47 78.5229 195.989 89.4869C202.116 93.9854 200.068 104.014 192.974 101.87C201.89 107.529 195.15 126.668 183.896 122.718C195.94 144.904 150.375 146.016 157.115 124.056Z" fill="#542022"/>
<path fill-rule="evenodd" clip-rule="evenodd" d="M11.8569 42.2778C11.6473 36.3443 15.3235 29.8788 21.7407 32.1845C19.2576 28.9436 19.7736 24.429 22.4017 20.5271C50.489 44.8737 156.421 22.204 199.503 79.4426C199.213 82.2804 198.294 85.2148 196.778 88.1171C187.281 78.2333 173.866 64.3026 150.907 57.5791C116.192 47.4535 44.2814 56.4665 11.8569 42.2778Z" fill="#653638"/>
<path fill-rule="evenodd" clip-rule="evenodd" d="M44.6208 250.046L89.4121 261.639C85.349 282.438 81.302 303.254 77.2388 324.053C73.3853 322.86 73.8529 324.408 73.5626 325.875L30.8352 315.121L44.6208 250.046Z" fill="#D1B56F"/>
<path fill-rule="evenodd" clip-rule="evenodd" d="M45.54 250.464L41.8639 250.916L29.4326 314.749L32.8347 315.636L45.54 250.464Z" fill="#E66800"/>
<path fill-rule="evenodd" clip-rule="evenodd" d="M42.9923 252.802L85.7197 263.557L73.5787 325.874L30.8513 315.12L42.9923 252.802Z" fill="#E66800"/>
<path fill-rule="evenodd" clip-rule="evenodd" d="M44.6689 253.237L85.7034 263.621C84.2361 261.799 86.4451 260.944 89.1377 261.573L88.9926 261.525L45.2655 250.206C43.5725 249.771 42.0408 250.093 41.8795 250.916C41.7022 251.754 42.9598 252.802 44.6689 253.237Z" fill="#E8CC84"/>
<path fill-rule="evenodd" clip-rule="evenodd" d="M9.84158 233.552C8.06798 233.955 -5.9434 262.493 2.90844 284.26C11.7603 306.043 53.343 313.25 53.343 313.25C53.343 313.25 70.4178 321.796 79.6566 318.636C88.8954 315.475 88.2666 309.929 88.589 306.495C89.2179 303.157 88.4278 295.885 82.5911 301.303C80.0597 303.657 70.9176 303.415 68.5313 301.996C68.5313 301.996 76.3513 295.53 72.7557 294.031C69.144 292.532 58.1155 297.385 58.1155 297.385C41.8952 295.015 21.5311 286.55 23.0468 267.347C24.2077 252.706 29.2544 243.903 29.3188 243.677L9.84158 233.552Z" fill="#E39B6D"/>
<path fill-rule="evenodd" clip-rule="evenodd" d="M6.31147 290.177C19.3877 307.365 53.3278 313.25 53.3278 313.25C53.3278 313.25 70.4026 321.795 79.6414 318.635C86.365 316.329 87.8645 312.782 88.2998 309.686C86.0425 319.328 66.1299 318.039 56.7299 311.154C56.746 311.138 24.257 307.784 6.31147 290.177Z" fill="#D58756"/>
<path fill-rule="evenodd" clip-rule="evenodd" d="M9.8416 233.552C9.0193 233.745 5.6011 239.904 3.02133 248.627C10.6639 247.724 19.0965 258.366 22.8372 264.412C24.9332 253.819 29.2544 243.854 29.3027 243.661L9.8416 233.552Z" fill="#D58756"/>
<path fill-rule="evenodd" clip-rule="evenodd" d="M8.52043 222.281C14.7925 232.584 21.129 240.742 32.4316 245.015L31.5932 253.77C17.7431 249.207 7.19829 239.017 2.66757 229.343C4.31217 227.134 6.53723 224.522 8.52043 222.281Z" fill="#EEEEEE"/>
<path fill-rule="evenodd" clip-rule="evenodd" d="M35.9306 246.627C53.6988 236.163 66.0655 210.865 47.201 204.351C45.508 203.77 45.7015 202.464 43.4925 202.674C33.9151 203.529 18.2269 212.397 8.52055 222.296C11.3744 234.341 24.8376 243.064 35.9306 246.627Z" fill="white"/>
<path fill-rule="evenodd" clip-rule="evenodd" d="M50.957 198.998C36.4619 232.293 34.2046 276.181 33.8661 288.629C29.9803 285.92 26.8039 282.55 24.9013 278.407C24.6595 263.557 26.5621 211.671 33.9628 203.384L50.957 198.998Z" fill="#4FBB5A"/>
<path fill-rule="evenodd" clip-rule="evenodd" d="M58.2773 236.163L39.832 235.792C38.9936 239.92 38.268 243.983 37.6553 247.933L37.2361 253.592L40.9768 255.495L41.8635 250.932C42.0248 250.094 43.5404 249.787 45.2495 250.223L57.0197 253.27L58.2773 236.163Z" fill="#FFFAF8"/>
<g clip-path="url(#clip0_494:4)">
<path fill-rule="evenodd" clip-rule="evenodd" d="M37.323 98.0422C30.5626 97.466 24.6259 102.442 24.0436 109.132C23.4613 115.836 28.4748 121.726 35.2352 122.288C41.9956 122.864 47.9322 117.888 48.5145 111.198C49.0968 104.508 44.0834 98.6185 37.323 98.0422Z" fill="#E8935A"/>
<path fill-rule="evenodd" clip-rule="evenodd" d="M111.928 106.588C104.699 105.984 98.3792 110.903 97.7969 117.607C97.2146 124.312 102.612 130.229 109.826 130.834C117.056 131.438 123.376 126.505 123.958 119.814C124.54 113.124 119.143 107.192 111.928 106.588Z" fill="#E8935A"/>
<path fill-rule="evenodd" clip-rule="evenodd" d="M110.409 107.698C103.18 107.094 96.8596 112.027 96.2773 118.718C95.695 125.422 101.092 131.339 108.307 131.944C115.536 132.548 121.856 127.615 122.438 120.924C123.021 114.234 117.638 108.317 110.409 107.698Z" fill="#FEFEFE"/>
<path fill-rule="evenodd" clip-rule="evenodd" d="M108.875 110.383C104.018 109.975 99.7432 113.531 99.3313 118.338C98.9195 123.145 102.513 127.376 107.37 127.783C112.227 128.191 116.502 124.635 116.914 119.828C117.34 115.021 113.733 110.79 108.875 110.383Z" fill="#401B0F"/>
<path fill-rule="evenodd" clip-rule="evenodd" d="M38.2742 99.841C31.5138 99.2648 25.5771 104.226 24.9948 110.931C24.4125 117.621 29.426 123.524 36.1864 124.087C42.9468 124.663 48.8835 119.687 49.4658 112.997C50.0339 106.292 45.0346 100.403 38.2742 99.841Z" fill="#FEFEFE"/>
<path fill-rule="evenodd" clip-rule="evenodd" d="M39.9357 103.552C35.4477 103.173 31.471 106.757 31.0591 111.564C30.6473 116.371 33.9422 120.573 38.4302 120.953C42.9182 121.332 46.8949 117.734 47.3068 112.927C47.7329 108.134 44.4237 103.932 39.9357 103.552Z" fill="#401B0F"/>
<path fill-rule="evenodd" clip-rule="evenodd" d="M120.791 119.505C116.118 111.451 106.191 108.696 98.7203 114.262C97.0444 115.513 95.8514 117.045 97.6551 113.461C100.723 107.403 108.861 106.237 114.67 108.485C119.2 110.256 123.56 115.794 122.893 121.515C122.538 124.579 121.913 121.444 120.791 119.505Z" fill="#401B0F"/>
<path fill-rule="evenodd" clip-rule="evenodd" d="M112.98 114.979C111.617 114.867 110.409 115.865 110.296 117.214C110.182 118.563 111.191 119.758 112.554 119.87C113.917 119.983 115.125 118.985 115.238 117.636C115.366 116.272 114.343 115.092 112.98 114.979Z" fill="#FEFEFE"/>
<path fill-rule="evenodd" clip-rule="evenodd" d="M43.9127 107.796C42.5493 107.684 41.3421 108.682 41.2285 110.031C41.1148 111.381 42.1232 112.575 43.4867 112.688C44.8501 112.8 46.0573 111.802 46.171 110.453C46.2846 109.09 45.2762 107.909 43.9127 107.796Z" fill="#FEFEFE"/>
<path fill-rule="evenodd" clip-rule="evenodd" d="M47.605 108.387C49.1104 109.765 50.4171 111.971 49.3093 108.106C47.5198 101.894 41.2422 99.1669 35.5186 99.8556C29.6388 100.558 24.8809 104.747 24.6253 110.327C24.5827 111.339 25.1366 110.72 25.591 110.13C30.7182 103.524 39.0835 100.643 47.605 108.387Z" fill="#401B0F"/>
</g>
<defs>
<clipPath id="clip0_494:4">
<rect width="100" height="34" fill="white" transform="matrix(-1 0 0 1 124.001 98)"/>
</clipPath>
</defs>
</svg>
