<svg width="407" height="475" viewBox="0 0 407 475" fill="none" xmlns="http://www.w3.org/2000/svg">
<path fill-rule="evenodd" clip-rule="evenodd" d="M41.8516 471.838V341.153C41.8516 339.791 42.9654 338.691 44.3284 338.691H51.8467C53.2097 338.691 54.3088 339.805 54.3088 341.153V471.838C54.3088 473.186 53.195 474.3 51.8467 474.3H44.3284C42.9654 474.3 41.8516 473.186 41.8516 471.838Z" fill="#7F848A"/>
<path fill-rule="evenodd" clip-rule="evenodd" d="M41.8516 471.838V463.763H54.3088V471.838C54.3088 473.186 53.195 474.3 51.8467 474.3H44.3284C42.9654 474.3 41.8516 473.186 41.8516 471.838Z" fill="#494C4F"/>
<path fill-rule="evenodd" clip-rule="evenodd" d="M178.617 471.838V341.153C178.617 339.791 179.731 338.691 181.094 338.691H188.612C189.975 338.691 191.074 339.805 191.074 341.153V471.838C191.074 473.186 189.961 474.3 188.612 474.3H181.094C179.731 474.3 178.617 473.186 178.617 471.838Z" fill="#6D7278"/>
<path fill-rule="evenodd" clip-rule="evenodd" d="M178.617 471.838V463.763H191.074V471.838C191.074 473.186 189.961 474.3 188.612 474.3H181.094C179.731 474.3 178.617 473.186 178.617 471.838Z" fill="#3E4247"/>
<path fill-rule="evenodd" clip-rule="evenodd" d="M42.4664 337.372L15.8518 180.073C15.2802 176.703 17.5812 173.464 20.952 172.892C24.3228 172.321 27.5617 174.607 28.1332 177.992L54.7478 335.276C55.3194 338.662 53.0185 341.886 49.6477 342.458C46.2769 343.029 43.038 340.743 42.4664 337.372Z" fill="#7F848A"/>
<path fill-rule="evenodd" clip-rule="evenodd" d="M177.812 337.372L151.198 180.073C150.626 176.703 152.927 173.464 156.298 172.892C159.668 172.321 162.907 174.607 163.479 177.992L190.094 335.276C190.665 338.662 188.364 341.886 184.993 342.458C181.608 343.029 178.384 340.743 177.812 337.372Z" fill="#7F848A"/>
<path fill-rule="evenodd" clip-rule="evenodd" d="M23.9275 333.576H218.921C222.98 333.576 226.292 336.888 226.292 340.948C226.292 345.008 222.98 348.32 218.921 348.32H23.9275C19.8678 348.32 16.5557 345.008 16.5557 340.948C16.5557 336.903 19.8678 333.576 23.9275 333.576Z" fill="#A6704E"/>
<path fill-rule="evenodd" clip-rule="evenodd" d="M93.5856 333.576H218.921C222.98 333.576 226.292 336.888 226.292 340.948C226.292 345.008 222.98 348.32 218.921 348.32H93.5856C89.526 348.32 86.2139 344.993 86.2139 340.948C86.2139 336.903 89.526 333.576 93.5856 333.576Z" fill="#94503B"/>
<path fill-rule="evenodd" clip-rule="evenodd" d="M6.91254 183.078H164.768C169.253 183.078 173.518 186.742 174.265 191.227L181.505 234.93C182.252 239.414 179.189 243.078 174.705 243.078H16.8491C12.3644 243.078 8.09964 239.414 7.35221 234.93L0.112324 191.227C-0.635113 186.742 2.42792 183.078 6.91254 183.078Z" fill="#A6704E"/>
<path fill-rule="evenodd" clip-rule="evenodd" d="M16.3217 183.078H164.769C169.253 183.078 173.518 186.742 174.265 191.227L181.505 234.93C182.253 239.414 179.19 243.078 174.705 243.078H26.2582C21.7736 243.078 17.5088 239.414 16.7614 234.93L9.5215 191.227C8.77407 186.742 11.8371 183.078 16.3217 183.078Z" fill="#B87F5C"/>
<path fill-rule="evenodd" clip-rule="evenodd" d="M28.3976 206.308C30.4201 206.308 32.1348 208.096 32.2373 210.309C32.3399 212.522 30.8011 214.31 28.7786 214.31C26.7708 214.31 25.0414 212.522 24.9388 210.309C24.8216 208.11 26.3751 206.308 28.3976 206.308Z" fill="#494C4F"/>
<path fill-rule="evenodd" clip-rule="evenodd" d="M29.1599 206.161C31.1823 206.161 32.897 207.948 32.9996 210.161C33.1022 212.374 31.5634 214.162 29.5409 214.162C27.5184 214.162 25.8037 212.374 25.7011 210.161C25.5985 207.963 27.1374 206.161 29.1599 206.161Z" fill="#626569"/>
<path fill-rule="evenodd" clip-rule="evenodd" d="M164.256 206.308C166.278 206.308 167.993 208.096 168.095 210.309C168.198 212.522 166.659 214.31 164.637 214.31C162.629 214.31 160.899 212.522 160.797 210.309C160.694 208.11 162.233 206.308 164.256 206.308Z" fill="#494C4F"/>
<path fill-rule="evenodd" clip-rule="evenodd" d="M165.017 206.161C167.025 206.161 168.754 207.948 168.857 210.161C168.96 212.374 167.406 214.162 165.398 214.162C163.376 214.162 161.661 212.374 161.559 210.161C161.456 207.963 162.995 206.161 165.017 206.161Z" fill="#626569"/>
<path fill-rule="evenodd" clip-rule="evenodd" d="M228.49 441.398C228.49 441.398 228.476 433.572 228.285 422.463C218.847 422.522 207.416 422.551 198.271 422.492C199.384 434.686 200.205 443.626 200.205 443.626L210.816 462.59L228.49 441.398Z" fill="#E0E8FF"/>
<path fill-rule="evenodd" clip-rule="evenodd" d="M200.206 443.64C200.206 443.64 195.795 446.879 194.725 455.101C193.655 463.323 195.78 469.83 195.78 469.83L251.09 471.94L257.407 469.097C259.151 454.676 235.893 445.736 228.492 441.413C224.491 445.077 206.024 455.16 200.206 443.64Z" fill="black"/>
<path fill-rule="evenodd" clip-rule="evenodd" d="M249.448 453.782C248.789 453.254 248.159 452.727 247.455 452.228C245.447 453.225 243.308 454.573 242.165 455.658C241.681 456.112 241.725 456.815 242.238 457.211C242.751 457.607 243.557 457.563 244.04 457.109C245.169 456.039 247.353 454.69 249.448 453.782Z" fill="#E0E8FF"/>
<path fill-rule="evenodd" clip-rule="evenodd" d="M244.729 450.338C243.996 449.884 243.293 449.4 242.545 448.961C241.212 449.752 239.643 450.822 238.823 451.613C238.339 452.068 238.383 452.771 238.896 453.167C239.409 453.562 240.215 453.519 240.699 453.064C241.563 452.243 243.234 451.13 244.729 450.338Z" fill="#E0E8FF"/>
<path fill-rule="evenodd" clip-rule="evenodd" d="M195.78 468.848H256.776C258.271 468.848 259.502 470.064 259.502 471.574C259.502 473.069 258.271 474.3 256.776 474.3H195.78C194.285 474.3 193.054 473.083 193.054 471.574C193.054 470.079 194.285 468.848 195.78 468.848Z" fill="#171454"/>
<path fill-rule="evenodd" clip-rule="evenodd" d="M178.266 441.398C178.266 441.398 178.456 433.543 178.266 422.434C168.828 422.493 157.191 422.551 148.046 422.507C149.16 434.701 149.98 443.641 149.98 443.641L160.591 462.605L178.266 441.398Z" fill="#E0E8FF"/>
<path fill-rule="evenodd" clip-rule="evenodd" d="M149.981 443.64C149.981 443.64 145.569 446.879 144.499 455.101C143.429 463.323 145.555 469.83 145.555 469.83L200.865 471.94L207.181 469.097C208.925 454.676 185.667 445.736 178.251 441.413C174.25 445.077 155.799 455.16 149.981 443.64Z" fill="black"/>
<path fill-rule="evenodd" clip-rule="evenodd" d="M199.209 453.782C198.55 453.254 197.919 452.727 197.216 452.228C195.208 453.225 193.068 454.573 191.925 455.658C191.442 456.112 191.486 456.815 191.999 457.211C192.512 457.607 193.318 457.563 193.801 457.109C194.93 456.039 197.113 454.69 199.209 453.782Z" fill="#E0E8FF"/>
<path fill-rule="evenodd" clip-rule="evenodd" d="M194.49 450.338C193.757 449.884 193.053 449.4 192.321 448.961C190.987 449.752 189.419 450.822 188.598 451.613C188.115 452.068 188.158 452.771 188.671 453.167C189.184 453.562 189.99 453.519 190.474 453.064C191.324 452.243 192.995 451.13 194.49 450.338Z" fill="#E0E8FF"/>
<path fill-rule="evenodd" clip-rule="evenodd" d="M145.555 468.848H206.552C208.047 468.848 209.278 470.064 209.278 471.574C209.278 473.069 208.047 474.3 206.552 474.3H145.555C144.06 474.3 142.829 473.083 142.829 471.574C142.829 470.079 144.046 468.848 145.555 468.848Z" fill="#171454"/>
<path fill-rule="evenodd" clip-rule="evenodd" d="M94.7286 310.025C88.0309 362.375 126.898 350.078 137.743 374.949C145.496 392.726 144.206 417.216 143.957 432.428L182.237 433.396C187.528 392.726 186.253 364.544 161.851 334.148H171.128C199.707 369.072 197.611 382.585 196.702 432.428H231.729C233.737 396.918 249.067 357.934 193.654 309.951C181.329 300.762 102.833 296.439 94.7286 310.025Z" fill="#171454"/>
<path fill-rule="evenodd" clip-rule="evenodd" d="M205.379 223.821C196.703 234.08 185.799 240.616 172.99 244.382L178.046 253.469C192.819 249.79 204.72 240.162 211.124 230.606L205.379 223.821Z" fill="#F5F5F5"/>
<path fill-rule="evenodd" clip-rule="evenodd" d="M205.379 223.821C196.762 234.007 185.492 241.511 173.591 245.468C168.96 238.228 168.638 233.875 165.706 229.947C154.158 214.427 147.475 197.06 164.343 192.517C167.744 191.594 171.95 191.462 175.423 194.041C186.928 202.571 196.132 211.774 205.379 223.821Z" fill="white"/>
<path fill-rule="evenodd" clip-rule="evenodd" d="M135.428 174.065L159.17 176.439L161.105 192.077L146.654 191.388L133.024 191.198L135.428 174.065Z" fill="#E8935A"/>
<path fill-rule="evenodd" clip-rule="evenodd" d="M95.0371 310.025C95.0371 310.025 102.16 229.932 104.871 214.822C107.275 201.456 114.558 193.615 125.374 189.79C126.796 191.153 165.238 192.633 165.824 191.871C179.439 193.732 179.292 214.499 179.629 233.01C180.04 255.77 193.992 309.952 193.992 309.952C196.747 310.64 134.124 321.955 95.0371 310.025Z" fill="white"/>
<path fill-rule="evenodd" clip-rule="evenodd" d="M183.425 258.672C183.425 258.672 194.871 283.088 208.457 279.395C226.424 275.145 231.656 203.582 227.099 199.126C224.563 190.406 216.048 194.451 212.355 206.308C208.676 218.164 197.919 250.817 197.919 250.817C190.709 255.565 185.902 257.5 183.425 258.672Z" fill="#FECC8D"/>
<path fill-rule="evenodd" clip-rule="evenodd" d="M212.956 204.563C211.197 184.28 217.499 184.309 228.081 179.957C237.724 175.985 246.605 158.369 250.152 165.154C253.493 171.559 249.067 184.661 240.333 194.744C231.598 204.813 228.271 205.941 228.271 205.941C228.271 205.941 216.063 216.127 212.956 204.563Z" fill="#FECC8D"/>
<path fill-rule="evenodd" clip-rule="evenodd" d="M181.373 252.634C181.373 252.634 189.126 280.729 202.125 278.237C190.005 269.898 201.202 242.375 200.909 241.671C192.936 248.164 183.865 251.447 181.373 252.634Z" fill="#FAA66E"/>
<path fill-rule="evenodd" clip-rule="evenodd" d="M212.81 194.979C213.777 184.148 219.536 183.474 228.095 179.957C237.739 175.985 246.62 158.369 250.167 165.154C251.207 167.148 251.5 169.8 251.134 172.805C237.797 189.541 222.775 195.111 212.81 194.979Z" fill="#FAA66E"/>
<path fill-rule="evenodd" clip-rule="evenodd" d="M239.644 265.37H132.819C132.438 265.37 132.13 265.677 132.13 266.058V269.854C132.13 270.235 132.438 270.543 132.819 270.543H239.644C240.025 270.543 240.332 270.235 240.332 269.854V266.058C240.332 265.677 240.025 265.37 239.644 265.37Z" fill="#0DA18D"/>
<path fill-rule="evenodd" clip-rule="evenodd" d="M314.123 265.37H202.418C202.096 265.37 201.832 265.633 201.832 265.956V269.957C201.832 270.279 202.096 270.543 202.418 270.543H314.123C314.446 270.543 314.71 270.279 314.71 269.957V265.956C314.71 265.633 314.46 265.37 314.123 265.37Z" fill="#60B5AA"/>
<path fill-rule="evenodd" clip-rule="evenodd" d="M284.622 254.656H265.804C264.954 254.627 264.09 254.627 263.24 254.656H215.36C214.51 254.627 213.645 254.627 212.795 254.656H212.37L212.341 254.671C202.961 255.067 193.831 258.628 188.862 265.355H239.307H260.763H289.737C286.395 260.826 281.163 257.734 275.243 256.078C278.247 255.243 281.427 254.774 284.622 254.656Z" fill="#E5D9C3"/>
<path fill-rule="evenodd" clip-rule="evenodd" d="M231.7 254.656H212.882C212.032 254.627 211.168 254.627 210.318 254.656H162.438C161.588 254.627 160.723 254.627 159.873 254.656H159.448L159.419 254.671C150.039 255.067 140.909 258.628 135.94 265.355H186.385H207.841H236.815C233.474 260.826 228.242 257.734 222.321 256.078C225.325 255.243 228.491 254.774 231.7 254.656Z" fill="#E5D9C3"/>
<path fill-rule="evenodd" clip-rule="evenodd" d="M258.271 265.369C268.824 251.08 298.164 251.08 308.716 265.369H258.271Z" fill="#F2E9D7"/>
<path fill-rule="evenodd" clip-rule="evenodd" d="M258.271 265.369C247.719 251.08 218.393 251.08 207.826 265.369H258.271Z" fill="#F2E9D7"/>
<path fill-rule="evenodd" clip-rule="evenodd" d="M262.594 265.12H253.962C254.299 266.938 255.779 268.315 257.553 268.315H259.018C260.777 268.315 262.257 266.938 262.594 265.12Z" fill="#F2E9D7"/>
<path fill-rule="evenodd" clip-rule="evenodd" d="M82.5352 221.828C67.8649 246.933 75.3833 267.509 89.4966 274.617C112.799 286.356 158.451 273.415 184.084 272.038C184.26 263.127 174.25 260.357 167.025 259.39C159.917 251.989 149.204 258.203 144.69 261.515C126.106 264.856 88.7492 264.812 101.631 237.319C107.083 225.697 82.5352 221.828 82.5352 221.828Z" fill="#FECC8D"/>
<path fill-rule="evenodd" clip-rule="evenodd" d="M82.5351 221.828C75.9841 233.054 73.859 243.371 74.7823 251.989C79.2376 244.558 92.0467 248.706 99.8874 252.165C98.3925 248.457 98.7003 243.606 101.646 237.319C102.115 236.307 102.364 235.355 102.423 234.461C101.91 232.849 101.324 231.222 100.65 229.624C95.7692 223.909 82.5351 221.828 82.5351 221.828Z" fill="#FAA66E"/>
<path fill-rule="evenodd" clip-rule="evenodd" d="M205.042 471.882L175.042 277.358C174.837 276.039 175.775 274.954 177.138 274.954H184.656C186.019 274.954 187.294 276.039 187.499 277.358L217.499 471.882C217.704 473.201 216.766 474.285 215.403 474.285H207.885C206.522 474.3 205.247 473.215 205.042 471.882Z" fill="#7F848A"/>
<path fill-rule="evenodd" clip-rule="evenodd" d="M205.042 471.882L203.781 463.748H216.239L217.499 471.882C217.704 473.216 216.766 474.285 215.403 474.285H207.885C206.522 474.3 205.247 473.216 205.042 471.882Z" fill="#494C4F"/>
<path fill-rule="evenodd" clip-rule="evenodd" d="M370.548 471.882L340.548 277.358C340.343 276.039 341.28 274.954 342.643 274.954H350.162C351.51 274.954 352.8 276.039 353.005 277.358L383.005 471.882C383.21 473.201 382.272 474.285 380.909 474.285H373.391C372.028 474.3 370.753 473.215 370.548 471.882Z" fill="#6D7278"/>
<path fill-rule="evenodd" clip-rule="evenodd" d="M370.548 471.882L369.288 463.748H381.745L383.006 471.882C383.211 473.216 382.273 474.285 380.91 474.285H373.392C372.029 474.3 370.754 473.216 370.548 471.882Z" fill="#3E4247"/>
<path fill-rule="evenodd" clip-rule="evenodd" d="M86.4485 277.841H370.724C372.087 277.841 373.186 278.955 373.186 280.303V287.822C373.186 289.185 372.072 290.284 370.724 290.284H86.4485C85.0855 290.284 83.9717 289.17 83.9717 287.822V280.303C83.9717 278.955 85.0855 277.841 86.4485 277.841Z" fill="#6D7278"/>
<path fill-rule="evenodd" clip-rule="evenodd" d="M57.987 270.528H399.155C403.215 270.528 406.527 273.84 406.527 277.9C406.527 281.959 403.215 285.272 399.155 285.272H57.987C53.9274 285.272 50.6152 281.959 50.6152 277.9C50.6152 273.855 53.9421 270.528 57.987 270.528Z" fill="#A6704E"/>
<path fill-rule="evenodd" clip-rule="evenodd" d="M167.817 270.528H399.156C403.216 270.528 406.528 273.84 406.528 277.9C406.528 281.959 403.216 285.272 399.156 285.272H167.817C163.757 285.272 160.445 281.959 160.445 277.9C160.445 273.855 163.757 270.528 167.817 270.528Z" fill="#B87F5C"/>
<path fill-rule="evenodd" clip-rule="evenodd" d="M81.3188 217.783C88.6466 227.778 98.4366 235.853 110.366 239.165L103.581 248.911C96.9417 247.372 77.0394 234.944 74.416 226.737L81.3188 217.783Z" fill="#F5F5F5"/>
<path fill-rule="evenodd" clip-rule="evenodd" d="M81.3193 217.783C84.7488 226.107 99.888 236.6 111.451 240.279C130.298 227.206 145.555 197.954 124.832 192.912C122.853 192.428 123.572 189.761 121.241 190.377C108.608 193.674 89.9075 204.534 81.3193 217.783Z" fill="white"/>
<path fill-rule="evenodd" clip-rule="evenodd" d="M133.977 184.426C138.359 192.678 155.008 193.22 160.665 188.486L172.023 192.297C166.483 197.661 161.236 199.536 155.579 199.932L149.952 191.798L143.386 200.196C134.768 200.123 125.066 195.066 121.241 190.362L133.977 184.426Z" fill="#F5F5F5"/>
<path d="M97.8656 122.55C79.1064 117.802 82.228 90.7035 98.5397 90.4251C97.4112 45.1539 135.003 7.51821 191.574 13.2339C230.719 17.1763 268.179 45.8866 267.226 93.3562C266.581 125.218 259.019 155.291 242.971 172.365C203.914 213.957 103.537 180.308 97.8656 122.55Z" fill="#FECC8D"/>
<path fill-rule="evenodd" clip-rule="evenodd" d="M246.342 131.373C235.379 130.45 225.281 137.485 223.772 147.099C222.277 156.713 229.957 165.257 240.904 166.18C251.852 167.104 261.965 160.069 263.459 150.455C264.954 140.841 257.289 132.296 246.342 131.373Z" fill="#FECC8D"/>
<path fill-rule="evenodd" clip-rule="evenodd" d="M174.229 152.324C186.874 159.083 200.311 157.237 211.174 154.78C215.512 153.802 211.951 160.623 210.915 162.357C205.614 171.313 192.89 175.274 182.962 172.376C174.634 169.946 169.603 162.927 168.143 157.211C166.471 150.664 166.798 148.362 174.229 152.324Z" fill="#8F2F23"/>
<path fill-rule="evenodd" clip-rule="evenodd" d="M201.249 170.773C195.559 173.421 188.786 174.079 182.96 172.376C175.097 170.087 170.175 163.682 168.412 158.169C175.879 156.253 201.374 158.912 201.249 170.773Z" fill="#B13B32"/>
<path fill-rule="evenodd" clip-rule="evenodd" d="M206.427 155.296C193.625 158.505 181.725 154.893 172.1 151.04C171.616 157.57 179.758 161.601 189.126 163.02C197.349 164.277 204.008 162.375 206.427 155.296Z" fill="#FEFEFE"/>
<path fill-rule="evenodd" clip-rule="evenodd" d="M206.427 155.296C193.625 158.505 181.725 154.893 172.1 151.04C172.035 151.83 172.116 152.588 172.293 153.297C186.224 159.472 198.204 158.924 205.427 157.554C205.814 156.86 206.153 156.103 206.427 155.296Z" fill="#F2F2F2"/>
<path fill-rule="evenodd" clip-rule="evenodd" d="M97.8653 122.55C92.7505 122.169 89.7754 118.286 87.6797 115.442C92.6626 118.388 98.0265 119.751 104.666 117.304C106.058 171.207 190.386 204.05 230.748 181.979C186.224 207.553 103.009 174.988 97.8653 122.55Z" fill="#FAA66E"/>
<path fill-rule="evenodd" clip-rule="evenodd" d="M208.178 135.33C204.47 146.937 186.209 141.529 187.499 132.75C189.433 134.025 191.676 135.828 195.721 136.707C199.209 137.469 204.353 137.645 208.178 135.33Z" fill="#E8935A"/>
<path fill-rule="evenodd" clip-rule="evenodd" d="M96.8541 107.499C96.8541 107.499 95.7696 103.014 99.6973 103.19C101.734 103.278 102.394 105.271 102.526 107.147C102.643 108.862 102.321 110.474 102.233 110.386C102.233 110.386 101.925 109.507 101.397 108.539C100.415 106.751 98.7007 104.7 96.8541 107.499Z" fill="#FAA66E"/>
<path fill-rule="evenodd" clip-rule="evenodd" d="M113.518 104.524C118.955 87.4356 122.692 64.1332 135.12 51.3974C135.12 51.3974 182.223 75.0223 197.363 70.3911C212.502 65.7599 161.178 26.8346 161.178 26.8346L195.223 60.4546L198.77 65.0272C198.77 65.0272 217.734 81.0897 223.45 79.8147C229.165 78.5397 209.981 40.435 209.981 40.435C209.981 40.435 227.641 81.9398 259.532 90.0883C271.476 93.1367 267.871 83.9329 265.321 73.8352C261.071 56.9666 247.353 32.7115 222.981 23.1414C184.041 7.84092 142.199 11.754 132.131 19.8732C122.077 27.9777 101.691 77.2939 113.518 104.524Z" fill="#F29F68"/>
<path fill-rule="evenodd" clip-rule="evenodd" d="M108.271 105.799L113.518 104.524C114.016 101.007 114.031 74.9635 134.065 46.3557C156.708 61.0114 180.377 70.9918 207.49 71.8272L200.528 62.2278C200.528 62.2278 213.733 76.0773 224.227 79.1697C229.649 70.5961 224.52 60.7915 224.52 60.7915C234.207 79.111 252.615 87.7139 271.608 91.5683C274.173 86.6147 272.957 80.8697 270.788 73.6445C272.458 74.9195 274.012 76.8541 275.272 79.9025C277.339 77.1032 279.405 67.2546 273.953 52.8189C268.941 39.5409 258.638 24.255 240.099 13.9521C216.503 0.850019 157.602 -7.44506 134.153 12.7211C134.153 12.7211 130.46 9.45288 132.629 0C126.386 2.30093 126.825 12.8676 126.825 12.8676C126.825 12.8676 123.836 12.2521 120.992 7.81145C119.263 11.0357 123.836 15.4031 123.836 15.4031C123.836 15.4031 98.115 25.193 91.6665 50.6645C85.218 76.136 92.795 91.8175 92.795 91.8175C100.548 89.1208 103.743 92.433 105.326 96.5073C106.938 100.567 106.923 105.418 108.271 105.799Z" fill="black"/>
<path fill-rule="evenodd" clip-rule="evenodd" d="M273.792 52.8194C271.594 46.8838 268.325 40.5379 263.738 34.4265C232.141 48.8623 147.739 5.18857 93.2785 45.6088C92.663 47.2209 92.1207 48.9063 91.6811 50.665C91.3879 51.8374 91.1095 52.9952 90.875 54.1237C102.145 48.1735 118.999 37.3723 143.225 36.8301C178.779 36.024 244.759 63.9869 273.792 52.8194Z" fill="#313131"/>
<path fill-rule="evenodd" clip-rule="evenodd" d="M244.339 107.237C251.777 109.244 256.154 116.914 254.148 124.352C252.135 131.804 244.474 136.202 237.043 134.18C229.605 132.173 225.228 124.503 227.234 117.066C229.257 109.634 236.902 105.23 244.339 107.237Z" fill="#E8935A"/>
<path fill-rule="evenodd" clip-rule="evenodd" d="M161.42 87.4502C169.368 89.609 174.171 97.3831 172.165 104.82C170.152 112.273 162.071 116.552 154.138 114.399C146.19 112.24 141.387 104.466 143.394 97.029C145.406 89.5766 153.472 85.2914 161.42 87.4502Z" fill="#E8935A"/>
<path fill-rule="evenodd" clip-rule="evenodd" d="M162.59 89.2334C170.538 91.3922 175.341 99.1663 173.334 106.603C171.322 114.056 163.241 118.336 155.308 116.182C147.36 114.023 142.557 106.249 144.563 98.8122C146.57 91.3749 154.636 87.0897 162.59 89.2334Z" fill="#FEFEFE"/>
<path fill-rule="evenodd" clip-rule="evenodd" d="M163.171 92.7225C168.512 94.1713 171.675 99.6658 170.226 105.007C168.777 110.348 163.283 113.511 157.942 112.062C152.601 110.613 149.438 105.119 150.887 99.7776C152.336 94.4366 157.83 91.2736 163.171 92.7225Z" fill="#401B0F"/>
<path fill-rule="evenodd" clip-rule="evenodd" d="M242.617 108.806C250.054 110.813 254.432 118.484 252.425 125.921C250.418 133.358 242.751 137.772 235.32 135.75C227.883 133.743 223.505 126.072 225.512 118.635C227.539 111.188 235.2 106.79 242.617 108.806Z" fill="#FEFEFE"/>
<path fill-rule="evenodd" clip-rule="evenodd" d="M239.387 112.16C244.323 113.495 247.157 118.904 245.708 124.245C244.259 129.586 239.093 132.835 234.157 131.499C229.221 130.163 226.393 124.739 227.842 119.398C229.285 114.073 234.45 110.824 239.387 112.16Z" fill="#401B0F"/>
<path fill-rule="evenodd" clip-rule="evenodd" d="M146.894 97.9277C155.042 91.0639 166.713 91.9539 172.49 100.872C173.786 102.872 174.456 104.987 173.94 100.423C173.048 92.7009 164.826 88.28 157.746 88.4457C152.218 88.5933 145.392 92.867 143.857 99.292C143.023 102.712 144.921 99.5766 146.894 97.9277Z" fill="#401B0F"/>
<path fill-rule="evenodd" clip-rule="evenodd" d="M156.989 96.081C158.487 96.4898 159.383 98.0347 158.974 99.5331C158.565 101.032 157.02 101.927 155.522 101.518C154.024 101.11 153.128 99.5647 153.537 98.0663C153.951 96.5527 155.49 95.6722 156.989 96.081Z" fill="#FEFEFE"/>
<path fill-rule="evenodd" clip-rule="evenodd" d="M233.478 115.189C234.977 115.598 235.872 117.143 235.463 118.642C235.055 120.14 233.51 121.036 232.011 120.627C230.513 120.218 229.617 118.673 230.026 117.175C230.44 115.661 231.98 114.781 233.478 115.189Z" fill="#FEFEFE"/>
<path fill-rule="evenodd" clip-rule="evenodd" d="M229.322 114.395C227.175 115.295 224.914 117.165 227.614 113.43C231.963 107.43 239.73 106.931 245.565 109.898C251.56 112.942 254.99 119.305 253.071 125.419C252.719 126.526 252.371 125.644 252.118 124.831C249.229 115.713 241.438 109.355 229.322 114.395Z" fill="#401B0F"/>
<path fill-rule="evenodd" clip-rule="evenodd" d="M148.6 80.7198C154.821 77.3066 165.094 77.8416 169.883 78.7804C178.949 80.5571 176.084 74.4332 171.798 73.1973C163.727 70.8566 153.38 72.9719 147.276 77.1483C142.457 80.4371 141.183 84.7782 148.6 80.7198Z" fill="#401B0F"/>
<path fill-rule="evenodd" clip-rule="evenodd" d="M255.332 107.021C251.823 101.486 242.967 97.8639 238.488 96.7807C230.016 94.74 235.466 90.4281 239.658 91.029C247.562 92.1766 255.169 98.1922 258.212 104.346C260.606 109.218 259.505 113.604 255.332 107.021Z" fill="#401B0F"/>
</svg>
