<svg width="113" height="99" viewBox="0 0 113 99" fill="none" xmlns="http://www.w3.org/2000/svg">
<g clip-path="url(#clip0_48:7467)">
<path d="M42.1349 27.4883C19.3118 42.6827 13.1826 73.5083 28.3338 96.2664L28.0945 97.7395L29.481 97.8487L111.28 43.6729L111.952 42.85L110.87 41.2244C95.6535 18.5097 64.8929 12.3372 42.1349 27.4883ZM39.4608 76.1899C33.0118 64.8116 37.8314 49.2157 50.7709 40.6012C63.7105 31.9867 80.0234 33.5137 88.0329 43.853L39.4608 76.1899Z" fill="#FFA118"/>
<path d="M41.3974 28.3544C18.6394 43.5055 12.5102 74.3311 27.6613 97.0891L28.7435 98.7147L111.214 43.7161L110.132 42.0905C94.981 19.3324 64.1554 13.2033 41.3974 28.3544ZM38.8316 77.0777C32.3826 65.6994 37.2022 50.1035 50.1418 41.489C63.0813 32.8745 79.3942 34.4015 87.4037 44.7408L38.8316 77.0777Z" fill="#FFC31A"/>
<path d="M104.132 41.1119C104.046 40.9818 103.959 40.8518 103.872 40.7217L106.213 38.8817C106.3 39.0117 106.387 39.1418 106.516 39.3369L104.132 41.1119ZM29.0307 91.1106L26.4732 92.6255C26.3866 92.4955 26.3001 92.3654 26.1702 92.1703L28.7709 90.7204C28.8575 90.8505 28.9441 90.9805 29.0307 91.1106ZM101.036 37.4485C100.95 37.3185 100.798 37.2317 100.712 37.1016L102.879 35.0015C102.966 35.1316 103.118 35.2183 103.204 35.3484L101.036 37.4485ZM26.8885 86.9062L24.1146 88.096C24.028 87.9659 24.0065 87.7926 23.9199 87.6626L26.6938 86.4728C26.7804 86.6028 26.8019 86.7761 26.8885 86.9062ZM97.572 34.2182C97.4204 34.1314 97.3339 34.0014 97.1823 33.9146L99.1119 31.5977C99.2635 31.6844 99.3501 31.8145 99.5017 31.9012L97.572 34.2182ZM25.2015 82.3988L22.3195 83.2852C22.2979 83.1119 22.2113 82.9818 22.1898 82.8085L25.0718 81.922C25.0934 82.0954 25.1799 82.2254 25.2015 82.3988ZM93.6958 31.3559C93.5442 31.2692 93.3926 31.1824 93.306 31.0524L94.9325 28.5619C95.0841 28.6487 95.2357 28.7354 95.3873 28.8222L93.6958 31.3559ZM24.0562 77.7184L21.1311 78.2581C21.1095 78.0848 21.088 77.9114 21.0664 77.7381L23.9915 77.1983C23.9914 77.48 24.0129 77.6533 24.0562 77.7184ZM89.5593 28.9485C89.4077 28.8617 89.2561 28.7749 89.1478 28.7532L90.471 26.0892C90.6226 26.176 90.7742 26.2628 90.9258 26.3495L89.5593 28.9485ZM23.3659 73.0166L20.3326 73.253L20.268 72.733L23.2362 72.5399L23.3659 73.0166ZM85.2275 26.9525C85.0759 26.8658 84.9676 26.844 84.751 26.8006L85.7711 23.9631C85.9227 24.0498 86.1393 24.0933 86.2476 24.115L85.2275 26.9525ZM23.3039 68.2719L20.3359 68.1833C20.3143 68.01 20.3578 67.7934 20.3795 67.6851L23.3909 67.8386L23.3039 68.2719ZM80.6138 25.5197L80.1372 25.3677L80.8974 22.4217L81.3739 22.5737L80.6138 25.5197ZM23.6969 63.5058L20.6858 63.0706L20.7294 62.5723L23.7406 63.0075L23.6969 63.5058ZM75.9564 24.5851L75.4581 24.5415L75.8933 21.5303L76.3916 21.5739L75.9564 24.5851ZM24.5882 58.7834L21.6855 58.0882C21.7723 57.9366 21.7507 57.7633 21.8375 57.6117L24.7835 58.3718C24.7184 58.4151 24.675 58.6318 24.5882 58.7834ZM71.212 24.0838C71.0387 24.1054 70.9304 24.0836 70.7137 24.0402L70.8023 21.0721C70.9756 21.0505 71.1922 21.094 71.3006 21.1157L71.212 24.0838ZM26.0211 54.1696L23.1836 53.1495C23.2703 52.9979 23.3138 52.7813 23.3355 52.673L26.108 53.7363C26.1295 53.9097 26.1078 54.018 26.0211 54.1696ZM66.4023 24.1891C66.2289 24.2106 66.0556 24.2322 65.9473 24.2104L65.7109 21.1772C65.8842 21.1556 66.0576 21.1341 66.2309 21.1125L66.4023 24.1891ZM27.9087 49.8161L25.2447 48.4928C25.3315 48.3412 25.4182 48.1896 25.505 48.038L28.169 49.3613C28.0822 49.5129 27.9954 49.6645 27.9087 49.8161ZM61.6789 24.706C61.5056 24.7276 61.3323 24.7491 61.2022 24.8357L60.6625 21.9106C60.8358 21.889 61.0091 21.8675 61.1825 21.8459L61.6789 24.706ZM30.2729 45.6146L27.7174 44.0314C27.8041 43.8798 27.8909 43.7282 27.9777 43.5766L30.4681 45.2031C30.4464 45.3114 30.3596 45.463 30.2729 45.6146ZM57.0203 25.743C56.847 25.7645 56.7169 25.8511 56.5436 25.8727L55.7222 22.9474C55.8305 22.9691 55.9605 22.8825 56.1338 22.861L57.0203 25.743ZM33.0268 41.7166L30.6448 39.8302L30.9484 39.4404L33.3304 41.3268L33.0268 41.7166ZM52.4263 27.3C52.2962 27.3865 52.1229 27.4081 51.9929 27.4947L50.8681 24.6775C50.9981 24.5909 51.1714 24.5693 51.3015 24.4828L52.4263 27.3ZM36.1705 38.1222L34.0054 35.9976C34.1354 35.911 34.2222 35.7594 34.3522 35.6729L36.5174 37.7974C36.3873 37.884 36.2573 37.9706 36.1705 38.1222ZM48.092 29.2471L47.6586 29.4418L46.2737 26.7977L46.7071 26.603L48.092 29.2471ZM39.7041 34.8313L37.799 32.5336C37.929 32.447 38.0591 32.3605 38.2109 32.1656L40.0509 34.5066C39.9641 34.6582 39.8341 34.7448 39.7041 34.8313ZM43.9307 31.7359L43.7357 31.8658L43.5406 31.9956L41.8956 29.5248L42.0907 29.3949L42.3508 29.2217L43.9307 31.7359Z" fill="#FFE578"/>
</g>
<defs>
<clipPath id="clip0_48:7467">
<rect width="100.221" height="51.8682" fill="white" transform="translate(0 55.5396) rotate(-33.6536)"/>
</clipPath>
</defs>
</svg>
