<svg width="280" height="468" viewBox="0 0 280 468" fill="none" xmlns="http://www.w3.org/2000/svg">
<path d="M144.643 166.339C119.728 141.424 119.728 101.028 144.643 76.113C169.559 51.1978 209.954 51.1978 234.869 76.113C259.785 101.028 259.785 141.424 234.869 166.339C209.954 191.254 169.559 191.254 144.643 166.339Z" fill="#86D8F2"/>
<path d="M226.976 69.3566C223.876 70.1566 220.176 70.0566 216.976 69.6566C215.076 69.4566 213.076 69.0566 211.176 69.5566C209.276 70.0566 207.576 71.9566 208.076 73.8566C208.376 75.0566 209.376 76.0566 209.476 77.2566C209.576 78.9566 207.776 80.1566 206.076 80.3566C204.376 80.5566 202.676 80.0566 200.976 80.1566C198.576 80.3566 196.376 81.6566 193.976 82.3566C191.676 83.0566 188.676 82.9566 187.276 80.8566C186.876 80.2566 186.676 79.4566 186.176 78.8566C184.976 77.2566 182.176 77.5566 181.276 79.2566C180.576 80.6566 180.976 82.4566 180.376 83.8566C179.976 84.7566 179.076 85.4566 178.676 86.3566C177.476 88.5566 178.676 91.2566 179.776 93.5566C180.476 95.0566 181.176 96.7566 180.976 98.4566C180.776 100.157 179.576 101.857 177.876 101.957C176.176 102.057 174.676 100.557 173.876 99.0566C172.976 97.5566 172.376 95.7566 170.976 94.7566C169.576 93.6566 167.576 93.5566 166.176 92.4566C164.476 91.0566 164.276 88.3566 164.976 86.2566C165.276 85.2566 165.776 84.2566 165.476 83.1566C164.876 81.1566 161.976 81.3566 159.976 81.0566C156.376 80.4566 153.676 76.9566 153.376 73.2566C153.276 71.5566 153.576 69.8566 154.176 68.3566C164.376 61.4566 176.776 57.3566 189.976 57.3566C203.676 57.3566 216.476 61.8566 226.976 69.3566Z" fill="#39A873"/>
<path d="M169.676 113.157C173.176 113.057 174.576 117.957 177.876 119.157C180.576 120.157 183.876 118.357 186.376 119.857C187.176 120.357 187.776 121.157 188.376 121.857C190.376 123.957 193.576 125.057 196.476 124.657C199.376 124.257 202.076 122.357 203.376 119.657C203.876 118.757 204.176 117.757 204.776 116.957C207.076 114.157 211.976 115.357 214.876 113.157C216.576 111.857 217.176 109.657 217.276 107.557C217.276 105.457 216.676 103.457 216.376 101.357C215.676 97.9566 215.476 94.4566 215.776 90.9566C215.776 90.3566 215.876 89.7566 216.276 89.3566C216.576 88.9566 217.076 88.8566 217.476 88.6566C219.776 88.0566 222.176 88.7566 224.476 89.1566C226.776 89.4566 229.576 89.2566 230.876 87.2566C233.076 88.5566 235.776 89.8566 238.176 89.0566C239.976 88.4566 241.176 86.6566 241.676 84.7566C241.776 84.5566 241.776 84.3566 241.776 84.0566C249.276 94.4566 253.676 107.257 253.676 121.157C253.676 132.957 250.476 144.057 244.876 153.457C244.576 150.857 245.476 148.357 246.476 145.957C247.576 143.557 248.776 141.157 248.976 138.557C249.176 135.957 248.176 132.957 245.776 131.857C244.976 131.457 244.076 131.357 243.476 130.657C243.076 130.157 242.976 129.457 242.676 128.857C241.976 127.257 240.076 126.257 238.376 126.557C236.676 126.857 235.276 128.557 235.276 130.357C235.276 133.657 239.076 135.557 240.776 138.457C242.276 141.057 241.776 144.557 239.876 146.857C237.976 149.157 234.876 150.357 231.876 150.357C229.976 150.357 227.976 149.957 226.276 150.857C224.376 151.957 223.776 154.357 222.576 156.157C220.576 159.057 216.576 160.457 213.276 159.257C211.676 158.757 210.176 157.457 210.176 155.757C210.176 153.457 213.076 151.657 212.176 149.557C211.876 148.757 211.076 148.257 210.576 147.657C208.576 145.257 210.176 140.857 207.776 138.757C206.376 137.557 204.276 137.757 202.576 138.557C200.876 139.257 199.476 140.457 197.776 141.157C196.376 141.757 194.776 141.857 193.276 141.857C189.976 141.857 186.576 141.057 183.676 139.657C180.976 138.357 178.576 136.357 176.276 134.457C171.376 130.457 166.276 125.657 165.676 119.357C165.276 116.857 166.776 113.257 169.676 113.157Z" fill="#39A873"/>
<path d="M189.776 185.057C167.276 185.057 147.576 173.457 136.176 155.857C139.476 156.857 142.776 157.757 146.076 158.557C147.376 158.857 148.676 159.157 149.876 158.757C151.676 158.257 152.876 156.657 154.576 155.857C156.676 154.957 159.376 155.757 160.576 157.657C160.876 158.057 161.076 158.557 161.476 158.857C161.876 159.157 162.276 159.257 162.776 159.357C168.076 160.657 173.676 160.557 178.876 159.057C180.176 158.657 181.776 158.257 182.876 159.157C184.576 160.457 183.276 163.157 181.676 164.657C178.676 167.357 174.976 169.257 170.976 169.857C169.976 171.057 171.576 172.657 172.976 173.257C176.676 174.957 180.476 176.257 184.476 176.957C185.276 177.157 186.176 177.257 186.876 177.757C189.076 179.257 188.676 183.357 191.276 184.257C191.976 184.457 192.976 184.457 193.476 184.857C192.276 184.957 191.076 185.057 189.776 185.057Z" fill="#39A873"/>
<path d="M148.376 97.4566C150.276 99.2566 147.976 103.357 150.176 104.757C150.576 105.057 151.176 105.157 151.576 105.357C152.876 105.957 153.576 107.557 153.676 108.957C153.876 110.957 153.076 113.057 152.476 114.957C151.176 118.957 150.176 123.157 151.076 127.257C152.576 133.957 159.276 139.257 158.676 146.157C156.976 147.357 154.476 147.357 152.876 146.157C151.576 145.257 150.776 143.757 149.676 142.657C147.776 140.857 144.676 140.057 143.676 137.557C143.376 136.857 143.276 136.057 142.776 135.457C142.276 134.957 141.476 134.857 140.676 134.857C138.276 134.857 135.676 135.457 133.776 134.057C132.176 132.857 131.776 130.657 131.476 128.657C130.876 124.657 130.376 120.357 131.876 116.557C132.276 115.457 132.876 114.457 133.076 113.357C133.976 108.957 133.776 103.857 136.476 99.9566C138.476 97.3566 145.776 94.9566 148.376 97.4566Z" fill="#39A873"/>
<path d="M172.182 47.1L178.482 77L257.182 0L172.182 47.1Z" fill="#E5E5E5"/>
<path d="M201.582 56.6L178.482 77V51.2L201.582 56.6Z" fill="#D3D3D3"/>
<path d="M257.182 0L211.682 77L178.482 51.2L257.182 0Z" fill="#F4F4F4"/>
<path d="M172.182 47.1L127.482 38.3L257.182 0L172.182 47.1Z" fill="#F4F4F4"/>
<path d="M42.3814 227.3C42.4814 227.3 42.4814 227.3 42.5815 227.3L42.3814 226.8L42.7814 226.5L42.6815 226.4L42.2814 226.7L42.1815 226.4L42.2814 226.7L41.7814 227C41.9814 227 42.0814 227.3 42.3814 227.3ZM40.2814 223.9L41.2814 223.5C40.6814 222.2 40.1814 220.9 39.7814 219.5L38.7814 219.8C39.1814 221.2 39.6814 222.6 40.2814 223.9ZM37.8814 216.5L38.9814 216.3C38.6814 214.9 38.4814 213.5 38.2814 212L37.1815 212.1C37.3815 213.6 37.5814 215.1 37.8814 216.5ZM36.8814 208.8H37.9814C37.9814 208.1 37.9814 207.4 37.9814 206.7C37.9814 206 37.9814 205.2 38.0815 204.5L36.9814 204.4C36.9814 205.2 36.8814 205.9 36.8814 206.7C36.8814 207.4 36.8814 208.1 36.8814 208.8ZM38.2814 201.2C38.4814 199.8 38.6814 198.4 38.9814 196.9L37.8814 196.7C37.5814 198.2 37.3815 199.6 37.1815 201.1L38.2814 201.2ZM39.5815 193.8C39.9814 192.4 40.3814 191 40.7814 189.6L39.7814 189.3C39.2814 190.7 38.8815 192.1 38.5815 193.5L39.5815 193.8ZM41.9814 186.6C42.4814 185.3 43.0815 183.9 43.6815 182.6L42.6815 182.1C42.0815 183.5 41.4814 184.8 40.9814 186.2L41.9814 186.6ZM45.0815 179.7C45.6814 178.4 46.3815 177.2 47.1815 175.9L46.2814 175.3C45.4814 176.6 44.7815 177.9 44.1815 179.2L45.0815 179.7ZM48.8814 173.1C49.6814 171.9 50.4814 170.7 51.2814 169.5L50.3814 168.9C49.5814 170.1 48.6814 171.3 47.9814 172.6L48.8814 173.1ZM53.1815 166.8C53.9815 165.7 54.8814 164.5 55.8814 163.4L54.9814 162.7C54.0814 163.9 53.1814 165 52.2814 166.2L53.1815 166.8ZM57.9814 160.8C58.8814 159.7 59.8814 158.6 60.8814 157.5L60.0815 156.8C59.0815 157.9 58.0815 159 57.1815 160.1L57.9814 160.8ZM63.0815 155.2C64.0815 154.2 65.0815 153.1 66.1815 152.1L65.3814 151.3C64.2814 152.4 63.2814 153.4 62.2814 154.4L63.0815 155.2ZM68.4814 149.8C69.4814 148.8 70.5815 147.8 71.6815 146.8L70.9814 146C69.8814 147 68.7814 148 67.7814 149L68.4814 149.8ZM74.0815 144.7C75.1814 143.7 76.2814 142.8 77.3814 141.8L76.6814 141C75.5814 142 74.4814 142.9 73.3814 143.9L74.0815 144.7ZM79.8814 139.6L83.1814 136.7L82.4814 135.9L79.1814 138.8L79.8814 139.6ZM85.6814 134.6C86.7814 133.6 87.8814 132.7 88.9814 131.7L88.2814 130.9C87.1814 131.8 86.0814 132.8 84.9814 133.8L85.6814 134.6ZM91.4814 129.6C92.5814 128.6 93.6814 127.7 94.7814 126.8L94.0815 126C92.9815 126.9 91.8814 127.9 90.7814 128.8L91.4814 129.6ZM97.2814 124.6C98.3814 123.6 99.4815 122.7 100.581 121.8L99.8814 121C98.7814 121.9 97.6814 122.9 96.5815 123.8L97.2814 124.6ZM103.081 119.7L106.481 116.9L105.781 116.1L102.381 118.9L103.081 119.7ZM108.981 114.8L112.381 112L111.681 111.2L108.281 114L108.981 114.8ZM114.881 109.9C115.981 109 117.181 108 118.281 107.1L117.581 106.3C116.481 107.2 115.381 108.1 114.181 109.1L114.881 109.9ZM120.781 105C121.881 104.1 123.081 103.1 124.181 102.2L123.481 101.4C122.381 102.3 121.281 103.2 120.081 104.2L120.781 105ZM126.781 100.2C127.981 99.3 129.081 98.4 130.181 97.5L129.481 96.6C128.381 97.5 127.181 98.4 126.081 99.4L126.781 100.2ZM132.681 95.4L136.081 92.7L135.381 91.8L131.981 94.5L132.681 95.4ZM138.681 90.6C139.881 89.7 140.981 88.8 142.081 87.9L141.381 87C140.281 87.9 139.081 88.8 137.981 89.7L138.681 90.6ZM144.681 85.9C145.881 85 146.981 84.1 148.081 83.2L147.381 82.3C146.281 83.2 145.081 84.1 143.981 85L144.681 85.9ZM150.781 81.2C151.981 80.3 153.081 79.4 154.281 78.5L153.581 77.6C152.481 78.5 151.281 79.4 150.081 80.3L150.781 81.2ZM156.781 76.5C157.981 75.6 159.181 74.7 160.281 73.8L159.581 72.9C158.481 73.7 157.281 74.6 156.081 75.6L156.781 76.5ZM162.881 71.8C164.181 70.8 165.281 69.9 166.381 69.2L165.681 68.3C164.681 69.1 163.481 70 162.181 70.9L162.881 71.8ZM168.981 67.2C171.281 65.5 172.481 64.6 172.481 64.6L171.881 63.7C171.881 63.7 170.681 64.6 168.381 66.3L168.981 67.2Z" fill="#F4F4F4"/>
<path d="M141.338 342.342L141.236 342.934L140.152 342.748L140.254 342.157C140.473 340.875 140.676 339.693 140.895 338.411L141.98 338.597C141.777 339.78 141.557 341.061 141.338 342.342ZM140.597 346.071C140.344 347.549 140.108 348.929 139.756 350.391L138.671 350.205C138.908 348.825 139.26 347.364 139.513 345.885L140.597 346.071ZM142.438 335.328L141.354 335.142C141.591 333.762 141.746 332.267 141.999 330.788L143.083 330.974C142.83 332.452 142.692 333.849 142.438 335.328ZM139.198 353.643C138.945 355.122 138.61 356.485 138.356 357.963L137.272 357.778C137.607 356.415 137.861 354.936 138.114 353.458L139.198 353.643ZM143.542 327.704L142.458 327.519C142.596 326.122 142.849 324.643 143.004 323.148L144.088 323.334C143.933 324.829 143.68 326.308 143.542 327.704ZM137.602 361.182C137.25 362.644 136.915 364.007 136.662 365.485L135.594 365.201C135.929 363.838 136.281 362.376 136.535 360.898L137.602 361.182ZM144.53 320.163L143.429 320.076C143.567 318.679 143.722 317.184 143.975 315.705L145.076 315.792C144.823 317.271 144.685 318.668 144.53 320.163ZM135.924 368.605C135.572 370.067 135.237 371.43 134.885 372.891L133.818 372.607C134.153 371.244 134.505 369.783 134.857 368.321L135.924 368.605ZM145.338 312.489L144.237 312.402C144.375 311.005 144.529 309.51 144.684 308.014L145.785 308.102C145.63 309.597 145.476 311.092 145.338 312.489ZM133.934 376.077C133.582 377.538 133.148 378.884 132.796 380.346L131.729 380.061C132.064 378.698 132.514 377.254 132.849 375.891L133.934 376.077ZM146.03 304.897L144.929 304.81C145.067 303.413 145.123 301.901 145.278 300.405L146.379 300.493C146.323 302.005 146.185 303.402 146.03 304.897ZM131.96 383.449C131.509 384.894 131.174 386.257 130.724 387.701L129.657 387.417C130.09 386.071 130.541 384.626 130.876 383.263L131.96 383.449ZM146.641 297.189L145.54 297.102C145.677 295.705 145.734 294.193 145.773 292.779L146.874 292.867C146.835 294.28 146.68 295.776 146.641 297.189ZM147.136 289.563L146.035 289.476C146.091 287.964 146.13 286.55 146.17 285.137L147.271 285.224C147.231 286.638 147.192 288.051 147.136 289.563ZM129.691 390.771C129.24 392.216 128.806 393.562 128.373 394.908L127.322 394.525C127.756 393.179 128.207 391.734 128.64 390.388L129.691 390.771ZM147.335 281.887L146.217 281.898C146.274 280.386 146.313 278.972 146.254 277.542L147.372 277.53C147.431 278.961 147.392 280.375 147.335 281.887ZM127.323 398.076C126.872 399.521 126.34 400.85 125.906 402.196L124.856 401.813C125.29 400.467 125.822 399.138 126.272 397.693L127.323 398.076ZM147.436 274.193L146.318 274.205C146.259 272.774 146.315 271.262 146.256 269.831L147.374 269.82C147.433 271.251 147.476 272.78 147.436 274.193ZM124.775 405.249C124.225 406.676 123.792 408.023 123.26 409.352L122.209 408.969C122.741 407.64 123.274 406.31 123.724 404.866L124.775 405.249ZM147.323 266.565L146.205 266.576C146.146 265.145 146.104 263.616 146.044 262.186L147.162 262.174C147.222 263.605 147.281 265.036 147.323 266.565ZM122.012 412.486C121.463 413.914 120.931 415.243 120.399 416.572L119.349 416.189C119.881 414.86 120.413 413.531 120.962 412.103L122.012 412.486ZM147.013 258.902L145.878 259.012C145.819 257.581 145.661 256.134 145.602 254.703L146.737 254.594C146.813 255.926 146.855 257.455 147.013 258.902ZM119.07 419.591C118.521 421.019 117.89 422.331 117.26 423.644L116.226 423.162C116.857 421.85 117.389 420.521 117.921 419.191L119.07 419.591ZM146.407 251.189L145.272 251.299C145.114 249.851 144.957 248.404 144.799 246.957L145.835 246.83C146.091 248.294 146.249 249.742 146.407 251.189ZM116.046 426.581C115.415 427.893 114.768 429.304 114.154 430.518L113.12 430.036C113.751 428.724 114.382 427.412 115.012 426.099L116.046 426.581ZM145.57 243.639L144.534 243.766C144.376 242.319 144.12 240.854 143.962 239.407L144.998 239.28C145.156 240.727 145.314 242.175 145.57 243.639ZM112.628 433.503C111.997 434.815 111.268 436.111 110.637 437.423L109.702 436.958C110.316 435.745 111.045 434.449 111.693 433.038L112.628 433.503ZM144.339 236.022L143.286 236.247C143.03 234.783 142.773 233.318 142.5 231.953L143.553 231.727C143.827 233.093 144.083 234.557 144.339 236.022ZM109.128 440.31C108.398 441.605 107.669 442.9 106.957 444.097L106.039 443.534C106.751 442.337 107.48 441.042 108.111 439.729L109.128 440.31ZM142.796 228.452L141.742 228.678C141.371 227.295 141.114 225.831 140.742 224.448L141.813 224.124C142.167 225.605 142.522 227.087 142.796 228.452ZM105.349 446.967C104.521 448.245 103.792 449.541 103.079 450.738L102.161 450.175C102.874 448.978 103.685 447.798 104.431 446.404L105.349 446.967ZM101.291 453.475C100.447 454.852 99.6357 456.032 98.8416 457.114L97.9404 456.452C98.6359 455.354 99.4469 454.174 100.39 452.813L101.291 453.475ZM140.922 221.029L139.852 221.353C139.481 219.971 139.01 218.571 138.54 217.171L139.61 216.847C139.982 218.23 140.452 219.63 140.922 221.029ZM96.955 459.834C95.4992 461.817 94.4911 462.963 94.2264 463.323L93.4407 462.58C93.6885 462.318 94.598 461.155 96.0538 459.172L96.955 459.834ZM138.424 213.702L137.436 214.141C136.867 212.725 136.38 211.424 135.794 210.106L136.782 209.667C137.368 210.985 137.954 212.302 138.424 213.702ZM135.366 206.685L134.36 207.222C133.676 205.888 132.975 204.651 132.273 203.415L133.18 202.86C133.898 203.998 134.681 205.35 135.366 206.685ZM131.335 200.008L130.412 200.661C129.513 199.391 128.581 198.318 127.731 197.361L128.573 196.592C129.505 197.665 130.42 198.836 131.335 200.008ZM126.117 194.345L125.472 195.148C124.309 194.238 123.129 193.427 121.915 192.813L122.38 191.878C123.692 192.509 124.872 193.32 126.117 194.345ZM119.245 190.631L118.961 191.698C118.567 191.631 118.173 191.563 117.778 191.496C116.793 191.327 115.79 191.256 114.771 191.285L114.759 190.167C115.877 190.155 116.995 190.144 118.08 190.33C118.457 190.496 118.851 190.564 119.245 190.631ZM111.727 191.879C110.443 192.268 109.142 192.755 107.79 193.538L107.252 192.533C108.604 191.75 110.02 191.181 111.403 190.809L111.727 191.879ZM105.07 195.202C104.492 195.611 103.898 196.118 103.321 196.526C102.842 196.951 102.248 197.458 101.752 197.982L100.967 197.239C101.462 196.715 102.057 196.208 102.552 195.684C103.146 195.177 103.74 194.67 104.318 194.262L105.07 195.202ZM99.8011 200.488C99.007 201.57 98.1961 202.75 97.4668 204.045L96.5487 203.482C97.2949 202.088 98.2044 200.925 99.0154 199.745L99.8011 200.488ZM95.859 206.915C95.2451 208.129 94.6144 209.441 94.0654 210.869L93.0319 210.387C93.6795 208.976 94.2116 207.647 94.8423 206.335L95.859 206.915ZM92.8349 213.905C92.3028 215.234 91.7537 216.662 91.3201 218.008L90.2697 217.625C90.8019 216.296 91.2524 214.851 91.7845 213.522L92.8349 213.905ZM90.1883 221.06L90.1545 221.257C89.7209 222.604 89.1887 223.933 88.772 225.18L87.7216 224.797C88.2537 223.468 88.6873 222.122 89.1041 220.875L89.1378 220.677L90.1883 221.06ZM87.5247 228.315C86.9587 229.841 86.4266 231.17 85.8127 232.384L84.7792 231.903C85.2945 230.672 85.8266 229.343 86.4743 227.932L87.5247 228.315ZM84.3852 235.386C83.639 236.78 82.9097 238.075 82.1973 239.272L81.2792 238.709C81.9747 237.611 82.704 236.315 83.4502 234.921L84.3852 235.386ZM80.229 241.877C79.204 243.122 78.1143 244.153 77.0583 244.986L76.388 244.161C77.444 243.328 78.4352 242.28 79.4433 241.134L80.229 241.877ZM74.2057 246.831C72.871 247.515 71.4714 247.986 69.9902 248.341L69.7648 247.288C71.1306 247.014 72.5302 246.544 73.7495 245.941L74.2057 246.831ZM66.6842 248.687C65.155 248.73 63.6597 248.575 62.2798 248.338L62.3671 247.237L62.4656 247.254C63.8455 247.491 65.2423 247.629 66.6728 247.569L66.6842 248.687ZM59.3454 246.517L58.9624 247.567C57.5178 247.116 56.2055 246.486 54.9269 245.658L55.4901 244.74C56.6869 245.452 57.9993 246.083 59.3454 246.517ZM52.8682 242.87L52.2065 243.771C51.0434 242.862 49.9958 241.871 48.9819 240.682L49.8239 239.913C50.7561 240.986 51.8037 241.977 52.8682 242.87ZM47.7145 237.421L46.7909 238.075C45.9741 236.92 45.1743 235.667 44.3914 234.315L45.2981 233.761C46.0979 235.014 46.8978 236.267 47.7145 237.421ZM43.9631 230.894L42.9747 231.333C42.3889 230.015 41.8031 228.698 41.2341 227.281L42.2226 226.842C42.7915 228.258 43.2787 229.559 43.9631 230.894ZM41.1185 223.812L40.0484 224.136C39.271 221.567 38.9499 219.889 38.9668 219.79L40.02 219.565C40.1017 219.681 40.4228 221.359 41.1185 223.812Z" fill="#F4F4F4"/>
</svg>
