<svg width="181" height="181" viewBox="0 0 181 181" fill="none" xmlns="http://www.w3.org/2000/svg">
<path d="M45.1142 135.339C20.199 110.424 20.199 70.0282 45.1142 45.113C70.0294 20.1978 110.425 20.1978 135.34 45.113C160.255 70.0282 160.255 110.424 135.34 135.339C110.425 160.254 70.0294 160.254 45.1142 135.339Z" fill="#86D8F2"/>
<path d="M127.445 38.3567C124.345 39.1567 120.645 39.0567 117.445 38.6567C115.545 38.4567 113.545 38.0567 111.645 38.5567C109.745 39.0567 108.045 40.9567 108.545 42.8567C108.845 44.0567 109.845 45.0567 109.945 46.2567C110.045 47.9567 108.245 49.1567 106.545 49.3567C104.845 49.5567 103.145 49.0567 101.445 49.1567C99.0453 49.3567 96.8453 50.6567 94.4453 51.3567C92.1453 52.0567 89.1453 51.9567 87.7453 49.8567C87.3453 49.2567 87.1453 48.4567 86.6453 47.8567C85.4453 46.2567 82.6453 46.5567 81.7453 48.2567C81.0453 49.6567 81.4453 51.4567 80.8453 52.8567C80.4453 53.7567 79.5453 54.4567 79.1453 55.3567C77.9453 57.5567 79.1453 60.2567 80.2453 62.5567C80.9453 64.0567 81.6453 65.7567 81.4453 67.4567C81.2453 69.1567 80.0453 70.8567 78.3453 70.9567C76.6453 71.0567 75.1453 69.5567 74.3453 68.0567C73.4453 66.5567 72.8453 64.7567 71.4453 63.7567C70.0453 62.6567 68.0453 62.5567 66.6453 61.4567C64.9453 60.0567 64.7453 57.3567 65.4453 55.2567C65.7453 54.2567 66.2453 53.2567 65.9453 52.1567C65.3453 50.1567 62.4453 50.3567 60.4453 50.0567C56.8453 49.4567 54.1453 45.9567 53.8453 42.2567C53.7453 40.5567 54.0453 38.8567 54.6453 37.3567C64.8453 30.4567 77.2453 26.3567 90.4453 26.3567C104.145 26.3567 116.945 30.8567 127.445 38.3567Z" fill="#39A873"/>
<path d="M70.1484 82.1566C73.6484 82.0566 75.0484 86.9566 78.3484 88.1566C81.0484 89.1566 84.3484 87.3566 86.8484 88.8566C87.6484 89.3566 88.2484 90.1566 88.8484 90.8566C90.8484 92.9566 94.0484 94.0566 96.9484 93.6566C99.8484 93.2566 102.548 91.3566 103.848 88.6566C104.348 87.7566 104.648 86.7566 105.248 85.9566C107.548 83.1566 112.448 84.3566 115.348 82.1566C117.048 80.8566 117.648 78.6566 117.748 76.5566C117.748 74.4566 117.148 72.4566 116.848 70.3566C116.148 66.9566 115.948 63.4566 116.248 59.9566C116.248 59.3566 116.348 58.7566 116.748 58.3566C117.048 57.9566 117.548 57.8566 117.948 57.6566C120.248 57.0566 122.648 57.7566 124.948 58.1566C127.248 58.4566 130.048 58.2566 131.348 56.2566C133.548 57.5566 136.248 58.8566 138.648 58.0566C140.448 57.4566 141.648 55.6566 142.148 53.7566C142.248 53.5566 142.248 53.3566 142.248 53.0566C149.748 63.4566 154.148 76.2566 154.148 90.1566C154.148 101.957 150.948 113.057 145.348 122.457C145.048 119.857 145.948 117.357 146.948 114.957C148.048 112.557 149.248 110.157 149.448 107.557C149.648 104.957 148.648 101.957 146.248 100.857C145.448 100.457 144.548 100.357 143.948 99.6566C143.548 99.1566 143.448 98.4566 143.148 97.8566C142.448 96.2566 140.548 95.2566 138.848 95.5566C137.148 95.8566 135.748 97.5566 135.748 99.3566C135.748 102.657 139.548 104.557 141.248 107.457C142.748 110.057 142.248 113.557 140.348 115.857C138.448 118.157 135.348 119.357 132.348 119.357C130.448 119.357 128.448 118.957 126.748 119.857C124.848 120.957 124.248 123.357 123.048 125.157C121.048 128.057 117.048 129.457 113.748 128.257C112.148 127.757 110.648 126.457 110.648 124.757C110.648 122.457 113.548 120.657 112.648 118.557C112.348 117.757 111.548 117.257 111.048 116.657C109.048 114.257 110.648 109.857 108.248 107.757C106.848 106.557 104.748 106.757 103.048 107.557C101.348 108.257 99.9484 109.457 98.2484 110.157C96.8484 110.757 95.2484 110.857 93.7484 110.857C90.4484 110.857 87.0484 110.057 84.1484 108.657C81.4484 107.357 79.0484 105.357 76.7484 103.457C71.8484 99.4566 66.7484 94.6566 66.1484 88.3566C65.7484 85.8566 67.2484 82.2566 70.1484 82.1566Z" fill="#39A873"/>
<path d="M90.2453 154.057C67.7453 154.057 48.0453 142.457 36.6453 124.857C39.9453 125.857 43.2453 126.757 46.5453 127.557C47.8453 127.857 49.1453 128.157 50.3453 127.757C52.1453 127.257 53.3453 125.657 55.0453 124.857C57.1453 123.957 59.8453 124.757 61.0453 126.657C61.3453 127.057 61.5453 127.557 61.9453 127.857C62.3453 128.157 62.7453 128.257 63.2453 128.357C68.5453 129.657 74.1453 129.557 79.3453 128.057C80.6453 127.657 82.2453 127.257 83.3453 128.157C85.0453 129.457 83.7453 132.157 82.1453 133.657C79.1453 136.357 75.4453 138.257 71.4453 138.857C70.4453 140.057 72.0453 141.657 73.4453 142.257C77.1453 143.957 80.9453 145.257 84.9453 145.957C85.7453 146.157 86.6453 146.257 87.3453 146.757C89.5453 148.257 89.1453 152.357 91.7453 153.257C92.4453 153.457 93.4453 153.457 93.9453 153.857C92.7453 153.957 91.5453 154.057 90.2453 154.057Z" fill="#39A873"/>
<path d="M48.8457 66.4567C50.7457 68.2567 48.4457 72.3567 50.6457 73.7567C51.0457 74.0567 51.6457 74.1567 52.0457 74.3567C53.3457 74.9567 54.0457 76.5567 54.1457 77.9567C54.3457 79.9567 53.5457 82.0567 52.9457 83.9567C51.6457 87.9567 50.6457 92.1567 51.5457 96.2567C53.0457 102.957 59.7457 108.257 59.1457 115.157C57.4457 116.357 54.9457 116.357 53.3457 115.157C52.0457 114.257 51.2457 112.757 50.1457 111.657C48.2457 109.857 45.1457 109.057 44.1457 106.557C43.8457 105.857 43.7457 105.057 43.2457 104.457C42.7457 103.957 41.9457 103.857 41.1457 103.857C38.7457 103.857 36.1457 104.457 34.2457 103.057C32.6457 101.857 32.2457 99.6567 31.9457 97.6567C31.3457 93.6567 30.8457 89.3567 32.3457 85.5567C32.7457 84.4567 33.3457 83.4567 33.5457 82.3567C34.4457 77.9567 34.2457 72.8567 36.9457 68.9567C38.9457 66.3567 46.2457 63.9567 48.8457 66.4567Z" fill="#39A873"/>
</svg>
