<svg width="104" height="109" viewBox="0 0 104 109" fill="none" xmlns="http://www.w3.org/2000/svg">
<g clip-path="url(#clip0_48:7446)">
<path d="M58.8197 54.7093L54.835 59.756L66.3845 68.8229L70.3692 63.7762L58.8197 54.7093Z" fill="white"/>
<g opacity="0.54">
<path opacity="0.54" d="M29.1646 10.7033C13.1236 13.6538 2.50443 29.0131 5.44612 45.0092C8.38781 61.0053 23.7764 71.5808 39.8174 68.6303C55.8585 65.6797 66.4776 50.3204 63.5359 34.3244C60.5942 18.3283 45.2057 7.75274 29.1646 10.7033Z" fill="#DBFCF7"/>
</g>
<g opacity="0.54">
<path opacity="0.54" d="M13.1042 22.8855C3.41603 35.1616 5.54532 52.9825 17.8435 62.6327C30.1417 72.2828 47.9535 70.1517 57.6997 57.8646C67.3879 45.5886 65.2696 27.8255 52.9604 18.1175C40.6622 8.46732 22.7924 10.6095 13.1042 22.8855ZM52.9643 54.1494C45.3056 63.8209 31.2623 65.5345 21.5734 57.9058C11.8845 50.2771 10.1809 36.2722 17.8396 26.6007C25.4983 16.9293 39.5416 15.2156 49.2305 22.8444C58.9194 30.4731 60.623 44.478 52.9643 54.1494Z" fill="#DBFCF7"/>
</g>
<path d="M11.3338 21.4838C1.25855 34.2532 3.46197 52.7794 16.2544 62.8152C29.0469 72.8509 47.624 70.6341 57.6992 57.8647C67.7745 45.0953 65.5711 26.569 52.7786 16.5333C39.9861 6.49755 21.4091 8.71435 11.3338 21.4838ZM52.7567 54.009C44.816 64.0939 30.1704 65.8023 20.0673 57.8926C10.0222 49.972 8.27751 35.4353 16.2183 25.3505C24.1591 15.2656 38.8046 13.5572 48.9077 21.4669C59.0108 29.3765 60.7085 43.982 52.7567 54.009Z" fill="#FFC200"/>
<path d="M50.6449 19.2177C39.3352 10.3386 22.9379 12.3204 14.0239 23.6098C5.10993 34.8991 7.02193 51.2625 18.3316 60.1416C29.6414 69.0206 46.0386 67.0388 54.9526 55.7495C63.9246 44.4491 61.9546 28.0967 50.6449 19.2177ZM52.7575 54.0089C44.8167 64.0938 30.1711 65.8021 20.068 57.8925C10.0229 49.9719 8.27826 35.4352 16.219 25.3503C24.1598 15.2654 38.8054 13.5571 48.9085 21.4667C59.0116 29.3763 60.7093 43.9819 52.7575 54.0089Z" fill="#F2A700"/>
<g opacity="0.56">
<path opacity="0.56" d="M38.5924 22.2311C35.441 21.1522 26.4265 21.489 20.3352 29.6031C14.1748 37.6704 16.0732 49.5398 22.3633 54.1582C27.4689 57.9228 28.4094 51.8083 25.9992 49.5691C20.6734 44.6473 20.8507 39.5773 24.3023 33.7044C27.7539 27.8314 34.4814 26.8507 37.8297 26.753C41.6892 26.498 40.3242 22.8009 38.5924 22.2311Z" fill="#FDFFFF"/>
</g>
<path d="M59.472 67.4477L93.5176 94.1752L101.45 84.1281L67.4048 57.4006L59.472 67.4477Z" fill="#E54235"/>
<path d="M63.4329 62.409L97.4785 89.1365L100.367 85.4788L66.3209 58.7513L63.4329 62.409Z" fill="#FF7562"/>
</g>
<defs>
<clipPath id="clip0_48:7446">
<rect width="94" height="87" fill="white" transform="translate(17.5762 108.609) rotate(-100.776)"/>
</clipPath>
</defs>
</svg>
