<svg width="240" height="225" viewBox="0 0 240 225" fill="none" xmlns="http://www.w3.org/2000/svg">
<g clip-path="url(#clip0_48:7418)">
<path d="M127.2 35.3015L125.947 39.2296L151.482 47.0144L152.652 43.1411L150.839 21.0205L149.676 7.55881L141.296 17.9454L127.2 35.3015Z" fill="#FFD297"/>
<path d="M141.296 17.9454C144.958 21.1656 148.451 21.3888 150.839 21.0204L149.759 7.50402L141.296 17.9454Z" fill="#FFA118"/>
<path d="M94.9005 200.117L98.3584 201.2C101.153 201.999 104.133 200.527 104.933 197.732L152.652 43.1412L150.261 43.8701C148.565 44.3829 146.739 43.7852 145.64 42.4725L144.104 40.4904L94.9005 200.117Z" fill="#DD8512"/>
<path d="M86.3522 197.466L94.8457 200.033L144.159 40.5741L141.767 41.303C139.987 41.8706 138.3 41.3019 137.147 39.9054L135.61 37.9234L86.3522 197.466Z" fill="#FFA118"/>
<path d="M82.8946 196.383L86.3526 197.466L135.611 37.9234L133.219 38.6523C131.523 39.1651 129.698 38.5675 128.599 37.2547L127.062 35.2726L79.427 189.809C78.627 192.603 80.1836 195.529 82.8946 196.383Z" fill="#DD8512"/>
<path d="M167.396 74.6057L164.929 77.7748L185.814 94.3409L188.281 91.1718L194.672 69.8962L198.469 56.8919L186.82 63.5624L167.396 74.6057Z" fill="#FFD297"/>
<path d="M186.82 63.5623C189.085 67.9358 192.234 69.4598 194.588 69.9509L198.469 56.8919L186.82 63.5623Z" fill="#E54235"/>
<path d="M77.6784 216.531L80.4611 218.774C82.7477 220.623 86.0793 220.235 87.8742 217.865L188.281 91.1718L185.786 91.0124C184.012 90.8589 182.524 89.6816 182.011 87.9854L181.282 85.594L77.6784 216.531Z" fill="#FF7562"/>
<path d="M70.6799 210.954L77.6783 216.531L181.337 85.6777L178.842 85.5182C176.985 85.4195 175.635 84.2711 175.068 82.4912L174.339 80.0999L70.6799 210.954Z" fill="#E54235"/>
<path d="M67.814 208.766L70.5966 211.008L174.394 80.1835L171.899 80.0241C170.125 79.8706 168.637 78.6933 168.124 76.9971L167.395 74.6057L66.9887 201.299C65.139 203.585 65.5273 206.917 67.814 208.766Z" fill="#FF7562"/>
</g>
<defs>
<clipPath id="clip0_48:7418">
<rect width="142.4" height="192.7" fill="white" transform="matrix(-0.547743 -0.836647 -0.836647 0.547743 239.221 119.138)"/>
</clipPath>
</defs>
</svg>
