<svg width="571" height="170" viewBox="0 0 571 170" fill="none" xmlns="http://www.w3.org/2000/svg">
<g opacity="0.6">
<path d="M542.706 62.5142C541.745 85.5407 513.765 104.617 489.107 106.727C490.707 107.201 492.056 108.288 492.861 109.751C493.666 111.214 493.863 112.936 493.408 114.543C492.944 116.152 491.867 117.513 490.409 118.334C488.952 119.155 487.23 119.37 485.616 118.932C493.678 143.529 453.571 146.804 434.04 117.396C428.088 125.075 420.575 131.402 411.998 135.96C403.421 140.517 393.976 143.2 384.286 143.833C374.602 144.477 364.891 143.055 355.796 139.662C346.702 136.268 338.431 130.981 331.53 124.149C330.802 125.465 329.79 126.603 328.568 127.479C327.345 128.355 325.943 128.948 324.464 129.213C322.986 129.497 321.463 129.45 320.006 129.076C318.548 128.703 317.191 128.012 316.031 127.053C312.301 132.648 306.728 136.754 300.282 138.654C293.836 140.555 286.928 140.129 280.764 137.452C272.389 146.326 261.213 152.038 249.12 153.625C237.028 155.212 224.758 152.576 214.381 146.163C195.297 156.976 172.858 160.24 151.488 155.312C161.81 155.455 172.07 153.681 181.745 150.079C184.271 146.255 187.945 143.331 192.236 141.729C196.528 140.128 201.217 139.93 205.627 141.166C209.013 136.141 213.622 132.063 219.019 129.316C224.417 126.569 230.424 125.244 236.475 125.466C237.894 122.854 240.005 120.684 242.576 119.195C245.146 117.706 248.078 116.955 251.047 117.025C253.999 117.09 256.876 117.968 259.363 119.561C261.85 121.154 263.851 123.401 265.147 126.057C265.3 125.263 265.614 124.509 266.069 123.841C266.525 123.173 267.112 122.606 267.795 122.174C268.481 121.744 269.249 121.461 270.05 121.342C270.851 121.223 271.668 121.27 272.449 121.482C272.366 120.598 272.566 119.71 273.021 118.948C273.476 118.186 274.162 117.589 274.979 117.244C275.798 116.889 276.709 116.806 277.578 117.01C278.447 117.214 279.227 117.693 279.803 118.375C281.377 110.663 284.587 103.378 289.217 97.0146C293.846 90.651 299.786 85.3565 306.636 81.4891C319.095 74.4525 333.802 72.5511 347.637 76.1883C351.906 78.4533 355.788 81.3821 359.14 84.8654C359.58 81.8453 361.066 79.0758 363.337 77.0396C365.609 75.0035 368.522 73.83 371.57 73.7236C373.454 63.2836 377.624 53.3905 383.78 44.7548C388.556 41.9804 394.079 40.7688 399.576 41.2894C405.074 41.81 410.271 44.0367 414.442 47.6584C414.012 46.7893 413.858 45.8095 414 44.8501C414.141 43.8908 414.572 42.9976 415.235 42.2901C415.897 41.5835 416.76 41.0977 417.708 40.8984C418.655 40.6991 419.64 40.796 420.531 41.1759C420.12 39.6413 420.175 38.0191 420.689 36.5159C421.202 35.0127 422.151 33.6966 423.415 32.7351C424.677 31.775 426.195 31.2112 427.777 31.1151C429.359 31.0189 430.934 31.3947 432.303 32.1949C431.354 28.2092 431.808 24.0179 433.587 20.3277C435.365 16.6375 438.361 13.6741 442.068 11.937C445.768 10.1946 449.954 9.78048 453.922 10.7643C457.891 11.7482 461.4 14.0699 463.859 17.3391C466.253 15.7217 469.049 14.802 471.935 14.6828C474.821 14.5636 477.683 15.2494 480.202 16.6638C482.2 19.3039 483.294 22.5186 483.322 25.8306C491.393 23.708 499.877 23.72 507.943 25.8655C516.008 28.011 523.378 32.2163 529.332 38.0697C536.101 44.7193 540.754 53.2241 542.706 62.5142Z" fill="#F1F1F1"/>
<path d="M538.068 79.6996C523.918 101.274 489.748 104.33 477.554 99.7549C477.554 99.7549 492.581 109.766 480.607 116.738C482.124 127.846 450.569 149.859 435.069 109.546C425.978 128.285 391.64 152.037 372.008 136.185C352.208 139.663 335.443 130.952 331.53 117.227C330.342 121.123 328.178 124.65 325.243 127.472C322.309 130.293 318.702 132.317 314.766 133.349C366.78 149.252 397.408 162.976 432.944 133.569C478.869 157.524 491.485 135.966 495.347 120.486C534.138 121.093 538.507 79.4801 538.068 79.6996Z" fill="#DBDBDB"/>
<path d="M564.985 139.883C562.894 142.69 560.261 145.05 557.243 146.821C552.684 149.494 547.424 150.725 542.154 150.351C536.883 149.978 531.849 148.017 527.711 144.728C527.207 146.576 526.342 148.306 525.167 149.818C523.992 151.33 522.529 152.595 520.864 153.54C519.192 154.48 517.351 155.081 515.446 155.307C513.542 155.533 511.612 155.38 509.766 154.856C509.766 170.151 487.757 168.818 467.13 163.415C458.474 161.155 450.014 158.202 441.831 154.586C469.39 160.259 486.002 156.73 481.229 148.644C483.562 149.648 486.095 150.095 488.63 149.952C491.164 149.808 493.631 149.077 495.835 147.817C498.043 146.553 499.927 144.792 501.338 142.674C502.749 140.556 503.648 138.138 503.965 135.611C504.68 135.6 505.378 135.384 505.976 134.989C506.573 134.595 507.046 134.037 507.338 133.383C507.636 132.731 507.744 132.007 507.648 131.296C507.553 130.585 507.258 129.916 506.798 129.365C540.917 145.2 566.975 129.095 557.227 101.663C560.547 103.604 563.4 106.253 565.583 109.421C567.766 112.589 569.226 116.2 569.859 119.996C570.42 123.469 570.278 127.019 569.44 130.435C568.603 133.851 567.088 137.064 564.985 139.883Z" fill="#D9D9D9"/>
<path d="M506.732 129.433C507.197 129.984 507.495 130.656 507.59 131.371C507.686 132.086 507.575 132.813 507.271 133.467C506.979 134.12 506.505 134.675 505.908 135.066C505.31 135.458 504.613 135.671 503.898 135.679C503.582 138.205 502.683 140.623 501.272 142.741C499.861 144.86 497.977 146.621 495.769 147.884C493.568 149.153 491.1 149.889 488.564 150.033C486.028 150.177 483.493 149.724 481.163 148.711C485.936 156.815 469.357 160.343 441.765 154.654C439.329 153.588 436.963 152.371 434.681 151.007C417.337 162.737 397.013 169.278 376.09 169.864C357.855 166.939 341.181 157.825 328.865 144.052C326.244 147.529 322.563 150.056 318.379 151.253C314.195 152.45 309.736 152.251 305.675 150.687C276.993 163.502 244.843 166.302 214.381 158.638C193.664 166.863 171.204 169.709 149.093 166.91C122.471 169.12 95.677 165.933 70.3133 157.541C46.4968 161.943 21.9002 158.742 0 148.391C22.5004 155.708 46.5394 156.908 69.6556 151.868C96.2886 159.399 124.311 160.595 151.488 155.363C172.858 160.29 195.297 157.026 214.381 146.213C224.758 152.626 237.028 155.262 249.12 153.675C261.213 152.088 272.389 146.376 280.764 137.502C286.928 140.18 293.836 140.606 300.282 138.705C306.727 136.804 312.301 132.698 316.031 127.103C317.191 128.062 318.548 128.753 320.006 129.127C321.463 129.5 322.986 129.547 324.463 129.264C325.943 128.998 327.345 128.406 328.568 127.53C329.79 126.654 330.802 125.516 331.53 124.199C338.431 131.031 346.702 136.319 355.796 139.712C364.891 143.105 374.602 144.527 384.286 143.883C393.976 143.251 403.421 140.567 411.998 136.01C420.575 131.453 428.088 125.126 434.04 117.447C453.621 146.854 493.678 143.579 485.616 118.983C487.23 119.421 488.952 119.206 490.409 118.385C491.867 117.564 492.944 116.202 493.408 114.594C493.863 112.987 493.666 111.265 492.861 109.802C492.056 108.338 490.707 107.252 489.107 106.778C513.765 104.617 541.745 85.5406 542.706 62.5479C544.23 69.613 544.132 76.932 542.42 83.9537C543.96 84.2763 545.403 84.954 546.636 85.9327C547.868 86.9115 548.856 88.1645 549.52 89.5921C550.185 91.0189 550.508 92.5811 550.464 94.1548C550.42 95.7284 550.01 97.2701 549.267 98.6575C552.042 99.2193 554.704 100.241 557.143 101.679C566.909 129.095 540.851 145.2 506.732 129.433Z" fill="#F4F4F4"/>
<path d="M347.637 76.1881C333.801 72.5508 319.094 74.4522 306.636 81.4889C299.777 85.3598 293.83 90.6614 289.197 97.0343C284.565 103.407 281.355 110.703 279.786 118.426C279.21 117.743 278.43 117.264 277.561 117.061C276.692 116.857 275.781 116.939 274.962 117.295C274.145 117.639 273.458 118.236 273.003 118.998C272.548 119.761 272.348 120.648 272.432 121.532C271.65 121.321 270.834 121.273 270.033 121.392C269.232 121.511 268.464 121.795 267.777 122.224C267.103 122.652 266.523 123.213 266.071 123.871C265.618 124.53 265.304 125.273 265.146 126.056C263.86 123.374 261.857 121.101 259.36 119.489C256.862 117.877 253.967 116.989 250.996 116.923C248.026 116.854 245.095 117.605 242.525 119.094C239.954 120.583 237.843 122.752 236.424 125.364C237.195 122.097 238.87 119.114 241.256 116.756C243.642 114.397 246.643 112.759 249.916 112.028C253.189 111.3 256.6 111.509 259.758 112.632C262.917 113.754 265.696 115.745 267.777 118.375C267.746 116.767 268.079 115.172 268.751 113.71C269.422 112.248 270.416 110.957 271.656 109.934C272.883 108.907 274.325 108.169 275.875 107.775C277.425 107.38 279.044 107.339 280.612 107.655C282.289 99.3903 286.193 91.7418 291.901 85.5377C297.609 79.3336 304.903 74.8103 312.994 72.4572C324.586 69.1309 337.017 70.4697 347.637 76.1881Z" fill="white"/>
<path d="M480.202 16.7314C477.683 15.317 474.821 14.6311 471.935 14.7504C469.049 14.8696 466.253 15.7893 463.859 17.4067C461.4 14.1375 457.891 11.8157 453.922 10.8319C449.954 9.84805 445.768 10.2622 442.068 12.0046C438.361 13.7417 435.365 16.7051 433.587 20.3953C431.808 24.0855 431.354 28.2767 432.303 32.2625C430.934 31.4623 429.359 31.0865 427.777 31.1827C426.195 31.2788 424.677 31.8426 423.415 32.8027C422.151 33.7641 421.202 35.0803 420.689 36.5835C420.175 38.0867 420.12 39.7089 420.531 41.2435C419.64 40.8636 418.655 40.7667 417.708 40.966C416.76 41.1653 415.897 41.6511 415.235 42.3577C414.572 43.0651 414.141 43.9583 414 44.9177C413.858 45.8771 414.012 46.8569 414.442 47.726C410.271 44.1043 405.073 41.8776 399.576 41.357C394.079 40.8364 388.556 42.048 383.78 44.8224C393.259 31.6885 405.706 25.3242 413.144 33.7987C412.171 32.1953 411.862 30.2757 412.281 28.4475C412.699 26.6194 413.814 25.0266 415.387 24.0074C416.958 22.9937 418.861 22.6296 420.695 22.9917C422.528 23.3538 424.151 24.4138 425.219 25.9488C423.908 21.0368 424.454 15.813 426.755 11.2797C429.055 6.74651 432.947 3.22323 437.683 1.38605C442.416 -0.444218 447.658 -0.462429 452.404 1.33489C457.15 3.13221 461.066 6.61873 463.404 11.1267C465.713 10.4634 468.144 10.3422 470.507 10.7726C472.871 11.2031 475.103 12.1734 477.031 13.6083C478.238 14.4844 479.307 15.5372 480.202 16.7314Z" fill="white"/>
<path d="M376.089 169.797C357.859 170.335 339.782 166.326 323.485 158.132C322.956 158.772 322.287 159.282 321.529 159.622C320.772 159.962 319.946 160.122 319.116 160.09C318.297 160.072 317.492 159.867 316.764 159.489C316.036 159.112 315.404 158.572 314.917 157.912C282.195 168.036 247.215 168.265 214.363 158.571C244.825 166.234 276.976 163.434 305.658 150.619C309.719 152.184 314.178 152.383 318.362 151.186C322.546 149.989 326.227 147.461 328.848 143.985C341.168 157.761 357.849 166.875 376.089 169.797Z" fill="white"/>
<path d="M224.551 137.975C225.586 136.378 226.953 135.024 228.561 134.007C230.168 132.99 231.976 132.334 233.861 132.083C235.743 131.833 237.656 131.997 239.468 132.562C241.279 133.128 242.946 134.082 244.352 135.358C244.764 134.471 245.504 133.778 246.416 133.425C247.328 133.073 248.342 133.088 249.243 133.468C250.142 133.846 250.86 134.559 251.244 135.457C251.628 136.355 251.648 137.366 251.301 138.279C250.951 139.183 250.267 139.917 249.391 140.329C248.514 140.741 247.513 140.799 246.595 140.49C244.646 142.408 242.131 143.645 239.423 144.016C236.715 144.387 233.96 143.873 231.568 142.55C231.441 143.602 230.959 144.579 230.202 145.32C229.444 146.06 228.456 146.518 227.402 146.618C226.35 146.723 225.293 146.463 224.41 145.883C223.526 145.302 222.867 144.436 222.544 143.428C222.212 142.426 222.23 141.34 222.595 140.35C222.959 139.359 223.649 138.522 224.551 137.975Z" fill="white"/>
<path d="M296.162 105.224C295.602 102.108 295.87 98.8988 296.938 95.9184C298.007 92.938 299.839 90.2907 302.25 88.2415C304.647 86.1801 307.542 84.7837 310.647 84.1913C313.751 83.5989 316.956 83.8312 319.942 84.8652C320.28 83.4413 321.081 82.1704 322.22 81.2532C323.36 80.3361 324.772 79.825 326.233 79.8007C327.707 79.7733 329.146 80.2406 330.323 81.1279C331.5 82.0152 332.346 83.2715 332.727 84.6963C333.1 86.1197 332.987 87.627 332.407 88.9789C331.826 90.3308 330.811 91.4498 329.522 92.158C328.844 93.8258 327.794 95.3164 326.452 96.516C325.111 97.7156 323.513 98.5924 321.781 99.0795C320.045 99.5634 318.221 99.6431 316.449 99.3124C314.678 98.9818 313.005 98.2495 311.56 97.1718C311.47 97.8123 311.229 98.422 310.856 98.9505C310.484 99.479 309.991 99.9109 309.418 100.211C308.841 100.505 308.203 100.659 307.555 100.659C306.907 100.659 306.268 100.505 305.691 100.211C306.516 101.182 307.124 102.319 307.476 103.544C307.828 104.77 307.915 106.056 307.732 107.318C307.544 108.58 307.091 109.788 306.401 110.862C305.712 111.936 304.803 112.851 303.735 113.547C303.156 114.759 302.195 115.746 301 116.356C299.805 116.966 298.443 117.166 297.123 116.923C295.799 116.681 294.592 116.006 293.692 115.004C292.792 114.002 292.249 112.73 292.148 111.386C292.055 110.062 292.397 108.743 293.121 107.631C293.846 106.518 294.913 105.674 296.162 105.224Z" fill="white"/>
<path d="M362.967 88.917C363.318 88.1097 363.914 87.4337 364.671 86.9851C365.428 86.5365 366.307 86.3383 367.183 86.4186C368.06 86.4963 368.89 86.8502 369.554 87.4296C370.218 88.0089 370.681 88.7837 370.877 89.6429C371.073 90.5012 370.992 91.3995 370.647 92.2092C370.302 93.0189 369.709 93.6984 368.954 94.1503C369.191 95.2094 369.043 96.3183 368.536 97.2777C368.029 98.237 367.196 98.9838 366.188 99.3836C365.184 99.7905 364.068 99.8272 363.04 99.487C362.011 99.1469 361.136 98.4522 360.572 97.5266C360.122 98.4291 359.412 99.1763 358.535 99.6726C357.657 100.169 356.652 100.392 355.647 100.312C354.638 100.233 353.677 99.8527 352.886 99.2208C352.095 98.5888 351.512 97.7341 351.211 96.767C350.422 96.6295 349.683 96.2852 349.07 95.7693C348.457 95.2534 347.991 94.5841 347.72 93.8296C347.448 93.075 347.381 92.2614 347.526 91.4723C347.671 90.6832 348.023 89.947 348.547 89.3391C349.064 88.7271 349.736 88.265 350.492 88.0008C351.249 87.7366 352.062 87.6799 352.847 87.8366C354.405 86.837 356.257 86.3993 358.097 86.5958C359.937 86.7922 361.655 87.6111 362.967 88.917Z" fill="white"/>
<path d="M383.645 59.1209C384.065 56.2457 385.605 53.6539 387.929 51.9124C390.263 50.184 393.185 49.4497 396.058 49.8698C396.914 49.9617 397.705 50.3684 398.279 51.0108C398.852 51.6533 399.167 52.4859 399.162 53.3474C399.167 54.2088 398.852 55.0414 398.279 55.6839C397.705 56.3264 396.914 56.733 396.058 56.825C396.922 57.4576 397.505 58.4019 397.684 59.4576C397.864 60.5133 397.625 61.5975 397.02 62.4803C396.411 63.3602 395.484 63.9675 394.435 64.1725C393.385 64.3775 392.298 64.164 391.403 63.5776C391.927 66.7469 391.463 70.0006 390.075 72.8968C388.687 75.7931 386.442 78.1918 383.645 79.767C382.224 80.0888 380.733 79.8417 379.492 79.0783C378.25 78.315 377.356 77.096 377 75.6817C376.639 74.2652 376.848 72.7633 377.584 71.5C378.319 70.2368 379.521 69.3134 380.93 68.9291C380.01 68.7475 379.158 68.3135 378.47 67.6755C377.782 67.0376 377.285 66.2208 377.034 65.3164C376.784 64.4233 376.784 63.4787 377.034 62.5857C377.284 61.6926 377.774 60.8853 378.45 60.2519C379.126 59.5996 379.97 59.1483 380.887 58.9485C381.805 58.7488 382.76 58.8084 383.645 59.1209Z" fill="white"/>
<path d="M443.923 47.8442C443.322 52.0081 441.326 55.844 438.261 58.7239C435.197 61.6038 431.247 63.3569 427.058 63.696C425.733 63.7358 424.424 63.3984 423.284 62.723C422.143 62.0476 421.218 61.062 420.615 59.8808C420.009 58.6961 419.754 57.363 419.88 56.0382C420.005 54.7134 420.506 53.452 421.323 52.4022C422.137 51.3535 423.232 50.5584 424.48 50.1099C425.729 49.6614 427.079 49.5782 428.373 49.87C427.968 49.061 427.77 48.164 427.796 47.2595C427.823 46.355 428.073 45.4713 428.525 44.6874C428.977 43.9014 429.617 43.241 430.389 42.7663C431.161 42.2916 432.039 42.0177 432.944 41.9694C432.646 40.8267 432.68 39.6226 433.041 38.4984C433.403 37.3742 434.077 36.3764 434.984 35.6219C435.892 34.8665 436.996 34.3858 438.167 34.2363C439.338 34.0868 440.528 34.2747 441.596 34.7779C440.89 33.5032 440.575 32.0489 440.689 30.5961C440.803 29.1432 441.341 27.756 442.237 26.6072C443.129 25.4545 444.34 24.5901 445.72 24.1218C447.1 23.6535 448.586 23.602 449.995 23.9737C451.403 24.3468 452.67 25.1244 453.641 26.2104C454.612 27.2964 455.244 28.6433 455.46 30.0848C456.203 29.4932 457.124 29.1711 458.074 29.1711C459.023 29.1711 459.945 29.4932 460.688 30.0848C462.274 29.0924 464.113 28.5803 465.983 28.6103C467.854 28.6402 469.675 29.2109 471.229 30.2536C472.781 31.2947 473.998 32.7647 474.732 34.4849C475.465 36.205 475.684 38.1014 475.361 39.9437C475.044 41.7893 474.198 43.5029 472.925 44.8757C471.652 46.2485 470.008 47.2212 468.193 47.6754C467.009 49.6732 465.326 51.3279 463.309 52.4764C461.292 53.625 459.011 54.2278 456.691 54.2255C454.37 54.2278 452.089 53.625 450.072 52.4764C448.055 51.3279 446.372 49.6732 445.188 47.6754L443.923 47.8442Z" fill="white"/>
<path d="M317.971 109.766C321.967 110.979 326.227 111.025 330.249 109.897C334.27 108.77 337.887 106.516 340.672 103.401C343.888 106.5 347.716 108.893 351.91 110.425C356.104 111.957 360.572 112.595 365.026 112.298C369.482 112.004 373.826 110.782 377.782 108.709C381.738 106.636 385.217 103.759 387.997 100.261C390.64 100.444 393.256 99.6257 395.324 97.9683C397.392 96.3108 398.762 93.9356 399.162 91.314C405.489 91.3774 411.7 89.6195 417.057 86.2496C418.675 87.9662 420.807 89.11 423.131 89.5089C425.455 89.9078 427.845 89.54 429.942 88.4611C432.05 87.3823 433.749 85.6448 434.781 83.5121C435.813 81.3795 436.121 78.9681 435.66 76.6439C436.765 76.813 437.893 76.7341 438.964 76.4129C440.034 76.0917 441.02 75.5364 441.85 74.787C442.677 74.0356 443.327 73.1098 443.753 72.0762C444.178 71.0427 444.37 69.9274 444.312 68.8109C460.807 64.5567 474.35 83.3291 482.344 64.7087C502.094 76.3232 505.535 64.0672 502.094 54.4278C498.654 44.7884 509.616 38.4072 520.646 56.116C531.677 73.8247 498.923 96.8006 454.87 83.2278C455.375 84.4387 455.576 85.7549 455.455 87.0615C455.335 88.3681 454.896 89.6253 454.179 90.7232C453.458 91.8194 452.481 92.722 451.331 93.3518C450.181 93.9817 448.895 94.3196 447.584 94.3358C441.968 98.9366 435.204 101.918 428.022 102.959C420.839 104 413.509 103.061 406.82 100.244C400.502 108.26 391.761 114.013 381.904 116.642C372.048 119.272 361.606 118.636 352.141 114.83C347.687 115.169 343.266 113.832 339.744 111.082C336.239 112.469 332.473 113.069 328.712 112.842C324.95 112.614 321.283 111.564 317.971 109.766Z" fill="#DBDBDB"/>
<path d="M452.964 3.56357C452.964 4.74528 449.793 5.69064 445.863 5.69064C441.933 5.69064 438.763 4.74528 438.763 3.56357C438.763 2.38186 441.95 1.45337 445.863 1.45337C449.776 1.45337 452.964 2.39874 452.964 3.56357Z" fill="#DBDBDB"/>
<path d="M471.904 32.7689C471.904 33.9338 468.716 34.8791 464.804 34.8791C460.891 34.8791 457.703 33.9338 457.703 32.7689C457.703 31.6041 460.874 30.6418 464.804 30.6418C468.733 30.6418 471.904 31.5197 471.904 32.7689Z" fill="#F2F2F2"/>
<path d="M319.337 88.5287C319.337 89.6935 316.166 90.6558 312.236 90.6558C308.307 90.6558 305.136 89.6935 305.136 88.5287C305.136 87.3639 308.307 86.4016 312.236 86.4016C316.166 86.4016 319.337 87.3639 319.337 88.5287Z" fill="#F2F2F2"/>
<path d="M423.415 25.8643C423.415 26.6408 422.032 27.2654 420.329 27.2654C418.625 27.2654 417.226 26.6408 417.226 25.8643C417.226 25.0877 418.609 24.48 420.329 24.48C422.049 24.48 423.415 25.1046 423.415 25.8643Z" fill="#DBDBDB"/>
<path d="M329.624 82.8396C329.624 83.5993 328.224 84.2239 326.52 84.2239C324.817 84.2239 323.417 83.5993 323.417 82.8396C323.417 82.0799 324.8 81.4553 326.52 81.4553C328.241 81.4553 329.624 82.0631 329.624 82.8396Z" fill="#F2F2F2"/>
<path d="M397.088 52.9932C397.088 53.7529 395.705 54.3775 393.984 54.3775C392.264 54.3775 390.881 53.7529 390.881 52.9932C390.881 52.2335 392.281 51.6089 393.984 51.6089C395.688 51.6089 397.088 52.2335 397.088 52.9932Z" fill="#F2F2F2"/>
<path d="M358.566 89.8115C358.566 90.5712 357.183 91.1958 355.463 91.1958C353.742 91.1958 352.359 90.5712 352.359 89.8115C352.359 89.0519 353.759 88.4272 355.463 88.4272C357.166 88.4272 358.566 89.035 358.566 89.8115Z" fill="#F2F2F2"/>
<path d="M451.716 26.9109C451.716 27.6706 450.333 28.2952 448.613 28.2952C446.893 28.2952 445.51 27.6706 445.51 26.9109C445.51 26.1513 446.91 25.5098 448.613 25.5098C450.316 25.5098 451.716 26.1344 451.716 26.9109Z" fill="#F2F2F2"/>
<path d="M410.192 33.208C410.192 33.8495 408.505 34.3559 406.431 34.3559C404.356 34.3559 402.67 33.8495 402.67 33.208C402.67 32.5665 404.356 32.0601 406.431 32.0601C408.505 32.0601 410.192 32.5158 410.192 33.208Z" fill="#DBDBDB"/>
<path d="M276.025 112.703C277.469 112.703 278.639 112.083 278.639 111.318C278.639 110.554 277.469 109.934 276.025 109.934C274.582 109.934 273.411 110.554 273.411 111.318C273.411 112.083 274.582 112.703 276.025 112.703Z" fill="#F2F2F2"/>
<path d="M258.568 114.239C258.568 114.746 257.134 115.151 255.38 115.151C253.626 115.151 252.192 114.746 252.192 114.239C252.192 113.733 253.626 113.344 255.38 113.344C257.134 113.344 258.568 113.767 258.568 114.239Z" fill="#F2F2F2"/>
<path d="M253.087 124.639C256.831 124.639 259.867 123.618 259.867 122.36C259.867 121.101 256.831 120.081 253.087 120.081C249.342 120.081 246.307 121.101 246.307 122.36C246.307 123.618 249.342 124.639 253.087 124.639Z" fill="white"/>
<path d="M205.999 143.174C205.999 143.765 203.182 144.238 199.724 144.238C196.267 144.238 193.434 143.765 193.434 143.174C193.434 142.584 196.25 142.111 199.724 142.111C203.199 142.111 205.999 142.6 205.999 143.174Z" fill="white"/>
<path d="M455.104 13.9459C455.104 14.9757 452.693 15.8198 449.724 15.8198C446.756 15.8198 444.327 14.9757 444.327 13.9459C444.327 12.9161 446.739 12.0552 449.724 12.0552C452.709 12.0552 455.104 12.9499 455.104 13.9459Z" fill="white"/>
<path d="M478.111 17.4576C478.111 18.1835 476.424 18.7575 474.35 18.7575C472.275 18.7575 470.589 18.1835 470.589 17.4576C470.589 16.7317 472.275 16.1577 474.35 16.1577C476.424 16.1577 478.111 16.7317 478.111 17.4576Z" fill="white"/>
<path d="M431.915 34.5244C431.915 35.301 430.447 35.9256 428.643 35.9256C426.838 35.9256 425.388 35.301 425.388 34.5244C425.388 33.7479 426.838 33.1401 428.643 33.1401C430.447 33.1401 431.915 33.7647 431.915 34.5244Z" fill="white"/>
<path d="M404.812 44.4172C404.812 45.0418 403.125 45.5652 400.899 45.5652C398.673 45.5652 396.986 45.0418 396.986 44.4172C396.986 43.7926 398.673 43.2693 400.899 43.2693C403.125 43.2693 404.812 43.7757 404.812 44.4172Z" fill="white"/>
<path d="M510.257 30.7767C510.257 33.0726 504.641 34.9464 497.692 34.9464C490.743 34.9464 485.127 33.0726 485.127 30.7767C485.127 28.4808 490.743 26.6069 497.692 26.6069C504.641 26.6069 510.257 28.4639 510.257 30.7767Z" fill="white"/>
<path d="M518.487 56.555C517.914 57.0445 515.738 55.4577 513.613 53.0098C511.488 50.562 510.24 48.1648 510.813 47.6753C511.387 47.1857 513.562 48.7557 515.687 51.2204C517.812 53.6851 519.06 56.0485 518.487 56.555Z" fill="#D9D9D9"/>
<path d="M430.094 100.616C430.094 101.359 427.548 102.102 424.31 102.304C421.071 102.507 418.423 101.984 418.373 101.224C418.322 100.464 420.936 99.7384 424.175 99.5358C427.413 99.3332 430.061 99.8565 430.094 100.616Z" fill="#F4F4F4"/>
<path d="M492.683 84.0212C492.683 84.7809 488.601 85.5912 483.508 85.8444C478.414 86.0976 474.248 85.6756 474.198 84.9159C474.147 84.1562 478.279 83.3459 483.373 83.1096C488.466 82.8732 492.632 83.2784 492.683 84.0212Z" fill="#F4F4F4"/>
<path d="M375.365 115.927C375.365 116.687 372.801 117.413 369.563 117.615C366.325 117.818 363.677 117.278 363.643 116.518C363.609 115.758 366.207 115.033 369.445 114.83C372.683 114.627 375.331 115.1 375.365 115.927Z" fill="#F4F4F4"/>
<path d="M293.649 138.043C299.331 138.043 303.938 136.433 303.938 134.447C303.938 132.461 299.331 130.851 293.649 130.851C287.967 130.851 283.361 132.461 283.361 134.447C283.361 136.433 287.967 138.043 293.649 138.043Z" fill="white"/>
<path d="M251.654 151.024C251.654 152.155 247.235 153.067 241.771 153.067C236.306 153.067 231.904 152.155 231.904 151.024C231.904 149.893 236.323 148.981 241.771 148.981C247.218 148.981 251.654 149.893 251.654 151.024Z" fill="white"/>
<path d="M540.244 95.8218C534.578 117.396 514.119 119.794 500.408 117.616C495.618 130.682 494.538 131.56 488.23 135.477C501.065 132.641 503.241 123.052 503.241 123.052C503.241 123.052 538.71 129.804 540.244 95.8218Z" fill="white"/>
<path d="M390.729 149.286C403.985 157.575 429.739 147.733 435.676 139.444C441.613 131.155 444.699 141.132 439.184 144.795C433.669 148.459 431.695 146.213 431.695 146.213C431.695 146.213 408.876 161.407 390.729 149.286Z" fill="white"/>
<path d="M440.229 140.321C445.289 136.067 453.941 138.853 464.719 144.575C475.496 150.298 479.341 141.79 479.341 141.79C479.341 141.79 481.129 152.088 464.651 149.64C448.173 154.046 447.785 143.428 447.785 143.428C447.785 143.428 440.719 150.281 440.229 140.321Z" fill="white"/>
<path d="M366.56 146.315C349.594 150.012 333.487 140.001 328.039 133.468C320.213 141.909 305.844 140.659 305.844 140.659C305.844 140.659 318.24 146.315 328.039 139.343C335.882 148.324 354.383 150.282 366.56 146.315Z" fill="white"/>
<path d="M332.508 101.275C339.693 104.381 345.882 101.275 348.007 97.9995C345.731 108.787 334.785 106.018 332.508 101.275Z" fill="#DBDBDB"/>
<path d="M386.698 92.614C395.991 92.7829 401.388 89.2377 401.22 77.9102C409.872 78.8893 416.078 76.931 416.888 70.5498C417.225 78.5686 410.698 81.506 404.981 81.0164C404.323 90.8077 400.073 96.2098 386.698 92.614Z" fill="#DBDBDB"/>
<path d="M426.923 107.487C431.983 111.15 436.401 111.218 440.635 104.887C445.07 108.753 449.27 110.036 452.171 106.795C449.287 111.386 444.531 110.509 441.529 108.044C437.413 113.26 432.995 114.628 426.923 107.487Z" fill="#DBDBDB"/>
<path d="M361.18 123.626C368.82 127.34 375.313 127.458 381.419 121.212C388.064 125.111 394.321 126.445 398.554 123.254C394.355 127.779 387.288 126.85 382.802 124.369C376.848 129.433 370.304 130.8 361.18 123.626Z" fill="#DBDBDB"/>
<path d="M390.627 121.364C396.243 123.609 400.746 123.17 404.356 117.751C409.314 120.249 413.75 120.756 416.347 117.92C413.902 121.803 408.943 121.684 405.621 120.114C401.978 124.639 397.593 126.209 390.627 121.364Z" fill="#DBDBDB"/>
<path d="M467.89 97.5266C472.949 101.19 477.385 101.257 481.602 94.9099C486.037 98.7758 490.237 100.076 493.138 96.8344C490.254 101.409 485.498 100.548 482.512 98.0836C478.397 103.283 473.961 104.651 467.89 97.5266Z" fill="#DBDBDB"/>
<path d="M434.883 66.1775C440.752 68.8448 445.407 69.0474 449.084 63.4258C446.335 73.7236 442.236 70.8875 434.883 66.1775Z" fill="#DBDBDB"/>
<path d="M410.428 84.0891C414.577 86.1486 418 86.7057 421.137 83.8865C418.371 89.3899 415.538 87.4485 410.428 84.0891Z" fill="#DBDBDB"/>
<path d="M459.321 59.1545C468.125 66.633 471.026 64.4384 475.462 58.2767C480.707 65.6877 489.916 62.362 491.198 58.1416C487.285 70.4314 476.76 64.6579 475.732 62.9697C470.773 69.1484 462.931 66.9707 459.321 59.1545Z" fill="#DBDBDB"/>
<path d="M352.257 154.113C362.377 155.396 363.456 154.907 367.723 153.033C371.99 151.159 377.725 159.583 381.992 157.304C386.259 155.025 395.585 160.512 384.133 161.71C372.682 162.909 375.06 153.438 369.46 156.241C363.861 159.043 348.125 153.573 352.257 154.113Z" fill="white"/>
<path d="M505.888 28.6832C505.888 29.8481 502.701 30.7934 498.788 30.7934C494.875 30.7934 491.688 29.8481 491.688 28.6832C491.688 27.5184 494.858 26.5562 498.788 26.5562C502.718 26.5562 505.888 27.5015 505.888 28.6832Z" fill="#F2F2F2"/>
<path d="M468.481 128.639C468.481 129.23 465.107 129.703 460.958 129.703C456.809 129.703 453.453 129.23 453.453 128.639C453.453 128.049 456.826 127.576 460.958 127.576C465.091 127.576 468.481 128.049 468.481 128.639Z" fill="#DBDBDB"/>
<path d="M393.714 139.562C393.714 140.153 391.269 140.625 388.25 140.625C385.231 140.625 382.785 140.153 382.785 139.562C382.785 138.971 385.231 138.515 388.25 138.515C391.269 138.515 393.714 139.005 393.714 139.562Z" fill="#DBDBDB"/>
<path d="M564.986 139.882C562.895 142.69 560.263 145.049 557.245 146.82C552.686 149.494 547.425 150.724 542.155 150.351C536.884 149.977 531.85 148.017 527.713 144.727C527.208 146.575 526.343 148.305 525.168 149.817C523.993 151.33 522.53 152.595 520.865 153.539C519.193 154.48 517.352 155.08 515.448 155.306C513.543 155.532 511.613 155.379 509.768 154.856C509.768 170.151 487.758 168.817 467.131 163.415C498.569 166.639 506.496 162.487 506.192 149.91C512.331 154.974 525.25 153.793 526.549 140.051C533.396 145.875 553.399 148.745 564.986 139.882Z" fill="white"/>
</g>
</svg>
