<svg width="274" height="170" viewBox="0 0 274 170" fill="none" xmlns="http://www.w3.org/2000/svg">
<g opacity="0.6">
<path d="M245.706 62.5142C244.745 85.5407 216.765 104.617 192.107 106.727C193.707 107.201 195.056 108.288 195.861 109.751C196.666 111.214 196.863 112.936 196.408 114.543C195.944 116.152 194.867 117.513 193.409 118.334C191.952 119.155 190.23 119.37 188.616 118.932C196.678 143.529 156.571 146.804 137.04 117.396C131.088 125.075 123.575 131.402 114.998 135.96C106.421 140.517 96.9761 143.2 87.2864 143.833C77.6018 144.477 67.8911 143.055 58.7965 139.662C49.7019 136.268 41.4308 130.981 34.5302 124.149C33.8022 125.465 32.7902 126.603 31.5678 127.479C30.3454 128.355 28.9433 128.948 27.4635 129.213C25.9857 129.497 24.4635 129.45 23.0058 129.076C21.548 128.703 20.1907 128.012 19.0307 127.053C15.3015 132.648 9.72751 136.754 3.28186 138.654C-3.1638 140.555 -10.0716 140.129 -16.2357 137.452C-24.6108 146.326 -35.787 152.038 -47.8797 153.625C-59.9724 155.212 -72.2419 152.576 -82.6193 146.163C-101.703 156.976 -124.142 160.24 -145.512 155.312C-135.19 155.455 -124.93 153.681 -115.255 150.079C-112.729 146.255 -109.055 143.331 -104.764 141.729C-100.472 140.128 -95.7835 139.93 -91.3726 141.166C-87.9868 136.141 -83.3778 132.063 -77.9806 129.316C-72.5834 126.569 -66.576 125.244 -60.5252 125.466C-59.106 122.854 -56.9951 120.684 -54.4243 119.195C-51.8536 117.706 -48.9225 116.955 -45.9531 117.025C-43.0013 117.09 -40.1244 117.968 -37.6374 119.561C-35.1505 121.154 -33.1494 123.401 -31.8534 126.057C-31.7 125.263 -31.3859 124.509 -30.9305 123.841C-30.4752 123.173 -29.8881 122.606 -29.2054 122.174C-28.5188 121.744 -27.751 121.461 -26.9501 121.342C-26.1491 121.223 -25.3323 121.27 -24.5505 121.482C-24.6345 120.598 -24.4343 119.71 -23.9793 118.948C-23.5243 118.186 -22.8381 117.589 -22.0206 117.244C-21.202 116.889 -20.2906 116.806 -19.4217 117.01C-18.5527 117.214 -17.7726 117.693 -17.197 118.375C-15.623 110.663 -12.4128 103.378 -7.78348 97.0146C-3.15413 90.651 2.78639 85.3565 9.63641 81.4891C22.0946 74.4525 36.8015 72.5511 50.6371 76.1883C54.9058 78.4533 58.7882 81.3821 62.1395 84.8654C62.5801 81.8453 64.0656 79.0758 66.3371 77.0396C68.6087 75.0035 71.5222 73.83 74.5696 73.7236C76.4537 63.2836 80.6238 53.3905 86.7804 44.7548C91.5562 41.9804 97.0788 40.7688 102.576 41.2894C108.074 41.81 113.271 44.0367 117.442 47.6584C117.012 46.7893 116.858 45.8095 117 44.8501C117.141 43.8908 117.572 42.9976 118.235 42.2901C118.897 41.5835 119.76 41.0977 120.708 40.8984C121.655 40.6991 122.64 40.796 123.531 41.1759C123.12 39.6413 123.175 38.0191 123.689 36.5159C124.202 35.0127 125.151 33.6966 126.415 32.7351C127.677 31.775 129.195 31.2112 130.777 31.1151C132.359 31.0189 133.934 31.3947 135.303 32.1949C134.354 28.2092 134.808 24.0179 136.587 20.3277C138.365 16.6375 141.361 13.6741 145.068 11.937C148.768 10.1946 152.954 9.78048 156.922 10.7643C160.891 11.7482 164.4 14.0699 166.859 17.3391C169.253 15.7217 172.049 14.802 174.935 14.6828C177.821 14.5636 180.683 15.2494 183.202 16.6638C185.2 19.3039 186.294 22.5186 186.322 25.8306C194.393 23.708 202.877 23.72 210.943 25.8655C219.008 28.011 226.378 32.2163 232.332 38.0697C239.101 44.7193 243.754 53.2241 245.706 62.5142Z" fill="#F1F1F1"/>
<path d="M241.068 79.6996C226.918 101.274 192.748 104.33 180.554 99.7549C180.554 99.7549 195.581 109.766 183.607 116.738C185.124 127.846 153.569 149.859 138.069 109.546C128.978 128.285 94.6397 152.037 75.0079 136.185C55.2076 139.663 38.443 130.952 34.5301 117.227C33.3421 121.123 31.1779 124.65 28.2435 127.472C25.309 130.293 21.702 132.317 17.7656 133.349C69.7796 149.252 100.408 162.976 135.944 133.569C181.869 157.524 194.485 135.966 198.347 120.486C237.138 121.093 241.507 79.4801 241.068 79.6996Z" fill="#DBDBDB"/>
<path d="M267.985 139.883C265.894 142.69 263.261 145.05 260.243 146.821C255.684 149.494 250.424 150.725 245.154 150.351C239.883 149.978 234.849 148.017 230.711 144.728C230.207 146.576 229.342 148.306 228.167 149.818C226.992 151.33 225.529 152.595 223.864 153.54C222.192 154.48 220.351 155.081 218.446 155.307C216.542 155.533 214.612 155.38 212.766 154.856C212.766 170.151 190.757 168.818 170.13 163.415C161.474 161.155 153.014 158.202 144.831 154.586C172.39 160.259 189.002 156.73 184.229 148.644C186.562 149.648 189.095 150.095 191.63 149.952C194.164 149.808 196.631 149.077 198.835 147.817C201.043 146.553 202.927 144.792 204.338 142.674C205.749 140.556 206.648 138.138 206.965 135.611C207.68 135.6 208.378 135.384 208.976 134.989C209.573 134.595 210.046 134.037 210.338 133.383C210.636 132.731 210.744 132.007 210.648 131.296C210.553 130.585 210.258 129.916 209.798 129.365C243.917 145.2 269.975 129.095 260.227 101.663C263.547 103.604 266.4 106.253 268.583 109.421C270.766 112.589 272.226 116.2 272.859 119.996C273.42 123.469 273.278 127.019 272.44 130.435C271.603 133.851 270.088 137.064 267.985 139.883Z" fill="#D9D9D9"/>
<path d="M209.732 129.433C210.197 129.984 210.495 130.656 210.59 131.371C210.686 132.086 210.575 132.813 210.271 133.467C209.979 134.12 209.505 134.675 208.908 135.066C208.31 135.458 207.613 135.671 206.898 135.679C206.582 138.205 205.683 140.623 204.272 142.741C202.861 144.86 200.977 146.621 198.769 147.884C196.568 149.153 194.1 149.889 191.564 150.033C189.028 150.177 186.493 149.724 184.163 148.711C188.936 156.815 172.357 160.343 144.765 154.654C142.329 153.588 139.963 152.371 137.681 151.007C120.337 162.737 100.013 169.278 79.0895 169.864C60.8554 166.939 44.1813 157.825 31.8654 144.052C29.244 147.529 25.5631 150.056 21.3792 151.253C17.1954 152.45 12.7359 152.251 8.67499 150.687C-20.0066 163.502 -52.1575 166.302 -82.6194 158.638C-103.336 166.863 -125.796 169.709 -147.907 166.91C-174.529 169.12 -201.323 165.933 -226.687 157.541C-250.503 161.943 -275.1 158.742 -297 148.391C-274.5 155.708 -250.461 156.908 -227.344 151.868C-200.711 159.399 -172.689 160.595 -145.512 155.363C-124.142 160.29 -101.703 157.026 -82.6194 146.213C-72.2419 152.626 -59.9724 155.262 -47.8797 153.675C-35.787 152.088 -24.6108 146.376 -16.2357 137.502C-10.0717 140.18 -3.16385 140.606 3.2818 138.705C9.72745 136.804 15.3014 132.698 19.0306 127.103C20.1906 128.062 21.548 128.753 23.0057 129.127C24.4634 129.5 25.9856 129.547 27.4635 129.264C28.9433 128.998 30.3453 128.406 31.5677 127.53C32.7901 126.654 33.8021 125.516 34.5302 124.199C41.4307 131.031 49.7018 136.319 58.7964 139.712C67.891 143.105 77.6018 144.527 87.2863 143.883C96.976 143.251 106.421 140.567 114.998 136.01C123.575 131.453 131.088 125.126 137.04 117.447C156.621 146.854 196.678 143.579 188.616 118.983C190.23 119.421 191.952 119.206 193.409 118.385C194.867 117.564 195.944 116.202 196.408 114.594C196.863 112.987 196.666 111.265 195.861 109.802C195.056 108.338 193.707 107.252 192.107 106.778C216.765 104.617 244.745 85.5406 245.706 62.5479C247.23 69.613 247.132 76.932 245.42 83.9537C246.96 84.2763 248.403 84.954 249.636 85.9327C250.868 86.9115 251.856 88.1645 252.52 89.5921C253.185 91.0189 253.508 92.5811 253.464 94.1548C253.42 95.7284 253.01 97.2701 252.267 98.6575C255.042 99.2193 257.704 100.241 260.143 101.679C269.909 129.095 243.851 145.2 209.732 129.433Z" fill="#F4F4F4"/>
<path d="M50.6367 76.1881C36.8011 72.5508 22.0941 74.4522 9.63599 81.4889C2.77716 85.3598 -3.1701 90.6614 -7.80273 97.0343C-12.4354 103.407 -15.6451 110.703 -17.2143 118.426C-17.7899 117.743 -18.57 117.264 -19.4389 117.061C-20.3079 116.857 -21.2193 116.939 -22.0379 117.295C-22.8553 117.639 -23.5416 118.236 -23.9966 118.998C-24.4516 119.761 -24.6517 120.648 -24.5678 121.532C-25.3495 121.321 -26.1664 121.273 -26.9674 121.392C-27.7683 121.511 -28.5361 121.795 -29.2227 122.224C-29.8968 122.652 -30.4773 123.213 -30.9295 123.871C-31.3816 124.53 -31.696 125.273 -31.8538 126.056C-33.1397 123.374 -35.1425 121.101 -37.6402 119.489C-40.1379 117.877 -43.033 116.989 -46.0042 116.923C-48.9735 116.854 -51.9046 117.605 -54.4754 119.094C-57.0461 120.583 -59.157 122.752 -60.5762 125.364C-59.8048 122.097 -58.1303 119.114 -55.7441 116.756C-53.3579 114.397 -50.3566 112.759 -47.0836 112.028C-43.8114 111.3 -40.4004 111.509 -37.2416 112.632C-34.0827 113.754 -31.3037 115.745 -29.2227 118.375C-29.2538 116.767 -28.9211 115.172 -28.2493 113.71C-27.5776 112.248 -26.5842 110.957 -25.3436 109.934C-24.1167 108.907 -22.675 108.169 -21.1249 107.775C-19.5748 107.38 -17.9558 107.339 -16.3879 107.655C-14.7106 99.3903 -10.8068 91.7418 -5.09905 85.5377C0.608696 79.3336 7.903 74.8103 15.9944 72.4572C27.586 69.1309 40.0173 70.4697 50.6367 76.1881Z" fill="white"/>
<path d="M183.202 16.7314C180.683 15.317 177.821 14.6311 174.935 14.7504C172.049 14.8696 169.253 15.7893 166.859 17.4067C164.4 14.1375 160.891 11.8157 156.922 10.8319C152.954 9.84805 148.768 10.2622 145.068 12.0046C141.361 13.7417 138.365 16.7051 136.587 20.3953C134.808 24.0855 134.354 28.2767 135.303 32.2625C133.934 31.4623 132.359 31.0865 130.777 31.1827C129.195 31.2788 127.677 31.8426 126.415 32.8027C125.151 33.7641 124.202 35.0803 123.689 36.5835C123.175 38.0867 123.12 39.7089 123.531 41.2435C122.64 40.8636 121.655 40.7667 120.708 40.966C119.76 41.1653 118.897 41.6511 118.235 42.3577C117.572 43.0651 117.141 43.9583 117 44.9177C116.858 45.8771 117.012 46.8569 117.442 47.726C113.271 44.1043 108.073 41.8776 102.576 41.357C97.0786 40.8364 91.5561 42.048 86.7803 44.8224C96.2588 31.6885 108.706 25.3242 116.144 33.7987C115.171 32.1953 114.862 30.2757 115.281 28.4475C115.699 26.6194 116.814 25.0266 118.387 24.0074C119.958 22.9937 121.861 22.6296 123.695 22.9917C125.528 23.3538 127.151 24.4138 128.219 25.9488C126.908 21.0368 127.454 15.813 129.755 11.2797C132.055 6.74651 135.947 3.22323 140.683 1.38605C145.416 -0.444218 150.658 -0.462429 155.404 1.33489C160.15 3.13221 164.066 6.61873 166.404 11.1267C168.713 10.4634 171.144 10.3422 173.507 10.7726C175.871 11.2031 178.103 12.1734 180.031 13.6083C181.238 14.4844 182.307 15.5372 183.202 16.7314Z" fill="white"/>
<path d="M79.089 169.797C60.8591 170.335 42.7817 166.326 26.4847 158.132C25.9561 158.772 25.287 159.282 24.5294 159.622C23.7717 159.962 22.946 160.122 22.1165 160.09C21.2967 160.072 20.492 159.867 19.7639 159.489C19.0359 159.112 18.404 158.572 17.9169 157.912C-14.8052 168.036 -49.7851 168.265 -82.6367 158.571C-52.1749 166.234 -20.024 163.434 8.65759 150.619C12.7185 152.184 17.178 152.383 21.3618 151.186C25.5457 149.989 29.2266 147.461 31.848 143.985C44.1682 157.761 60.8488 166.875 79.089 169.797Z" fill="white"/>
<path d="M-0.838177 105.224C-1.39796 102.108 -1.13021 98.8988 -0.061698 95.9184C1.00681 92.938 2.83858 90.2907 5.25033 88.2415C7.64733 86.1801 10.5423 84.7837 13.6465 84.1913C16.7508 83.5989 19.9559 83.8312 22.9425 84.8652C23.2797 83.4413 24.0812 82.1704 25.2204 81.2532C26.3596 80.3361 27.7717 79.825 29.2334 79.8007C30.7066 79.7733 32.1465 80.2406 33.3234 81.1279C34.5003 82.0152 35.3464 83.2715 35.7268 84.6963C36.1 86.1197 35.9874 87.627 35.4068 88.9789C34.8262 90.3308 33.8109 91.4498 32.5223 92.158C31.844 93.8258 30.794 95.3164 29.4523 96.516C28.1106 97.7156 26.5128 98.5924 24.7808 99.0795C23.0448 99.5634 21.2211 99.6431 19.4495 99.3124C17.6779 98.9818 16.0054 98.2495 14.5602 97.1718C14.4702 97.8123 14.2289 98.422 13.8564 98.9505C13.4839 99.479 12.9909 99.9109 12.4183 100.211C11.8412 100.505 11.2025 100.659 10.5546 100.659C9.90667 100.659 9.26802 100.505 8.69096 100.211C9.51566 101.182 10.1242 102.319 10.476 103.544C10.8279 104.77 10.9151 106.056 10.7317 107.318C10.544 108.58 10.0905 109.788 9.40145 110.862C8.71238 111.936 7.80338 112.851 6.73453 113.547C6.15621 114.759 5.19524 115.746 4.00023 116.356C2.80521 116.966 1.44265 117.166 0.123131 116.923C-1.20108 116.681 -2.4076 116.006 -3.30782 115.004C-4.20804 114.002 -4.75116 112.73 -4.85223 111.386C-4.94513 110.062 -4.60334 108.743 -3.87878 107.631C-3.15422 106.518 -2.08653 105.674 -0.838177 105.224Z" fill="white"/>
<path d="M65.9669 88.917C66.3179 88.1097 66.9143 87.4337 67.6713 86.9851C68.4283 86.5365 69.3073 86.3383 70.1833 86.4186C71.0604 86.4963 71.8903 86.8502 72.5539 87.4296C73.2175 88.0089 73.6807 88.7837 73.8769 89.6429C74.0729 90.5012 73.9924 91.3995 73.647 92.2092C73.3016 93.0189 72.709 93.6984 71.9542 94.1503C72.1911 95.2094 72.0427 96.3183 71.5357 97.2777C71.0287 98.237 70.1963 98.9838 69.1882 99.3836C68.1841 99.7905 67.0682 99.8272 66.0396 99.487C65.0109 99.1469 64.1363 98.4522 63.5719 97.5266C63.1215 98.4291 62.4122 99.1763 61.5348 99.6726C60.6574 100.169 59.6518 100.392 58.6471 100.312C57.6384 100.233 56.6766 99.8527 55.8859 99.2208C55.0952 98.5888 54.5119 97.7341 54.2114 96.767C53.4222 96.6295 52.6835 96.2852 52.0703 95.7693C51.4571 95.2534 50.9913 94.5841 50.7202 93.8296C50.4478 93.075 50.3807 92.2614 50.526 91.4723C50.6712 90.6832 51.0235 89.947 51.5467 89.3391C52.0643 88.7271 52.7361 88.265 53.4924 88.0008C54.2486 87.7366 55.0618 87.6799 55.8474 87.8366C57.4052 86.837 59.257 86.3993 61.097 86.5958C62.9369 86.7922 64.6548 87.6111 65.9669 88.917Z" fill="white"/>
<path d="M86.6451 59.1209C87.0649 56.2457 88.6051 53.6539 90.929 51.9124C93.2631 50.184 96.1854 49.4497 99.0583 49.8698C99.914 49.9617 100.705 50.3684 101.279 51.0108C101.852 51.6533 102.167 52.4859 102.162 53.3474C102.167 54.2088 101.852 55.0414 101.279 55.6839C100.705 56.3264 99.914 56.733 99.0583 56.825C99.9216 57.4576 100.505 58.4019 100.684 59.4576C100.864 60.5133 100.625 61.5975 100.02 62.4803C99.4114 63.3602 98.4837 63.9675 97.4345 64.1725C96.3853 64.3775 95.2975 64.164 94.4033 63.5776C94.9265 66.7469 94.4626 70.0006 93.0747 72.8968C91.6867 75.7931 89.442 78.1918 86.6451 79.767C85.2239 80.0888 83.7334 79.8417 82.4917 79.0783C81.2501 78.315 80.3559 77.096 80 75.6817C79.6388 74.2652 79.8484 72.7633 80.5836 71.5C81.3188 70.2368 82.5205 69.3134 83.9297 68.9291C83.0096 68.7475 82.1581 68.3135 81.4701 67.6755C80.7822 67.0376 80.2849 66.2208 80.0337 65.3164C79.784 64.4233 79.784 63.4787 80.0338 62.5857C80.2837 61.6926 80.7737 60.8853 81.4505 60.2519C82.1262 59.5996 82.97 59.1483 83.8874 58.9485C84.8048 58.7488 85.7597 58.8084 86.6451 59.1209Z" fill="white"/>
<path d="M146.923 47.8442C146.322 52.0081 144.326 55.844 141.261 58.7239C138.197 61.6038 134.247 63.3569 130.058 63.696C128.733 63.7358 127.424 63.3984 126.284 62.723C125.143 62.0476 124.218 61.062 123.615 59.8808C123.009 58.6961 122.754 57.363 122.88 56.0382C123.005 54.7134 123.506 53.452 124.323 52.4022C125.137 51.3535 126.232 50.5584 127.48 50.1099C128.729 49.6614 130.079 49.5782 131.373 49.87C130.968 49.061 130.77 48.164 130.796 47.2595C130.823 46.355 131.073 45.4713 131.525 44.6874C131.977 43.9014 132.617 43.241 133.389 42.7663C134.161 42.2916 135.039 42.0177 135.944 41.9694C135.646 40.8267 135.68 39.6226 136.041 38.4984C136.403 37.3742 137.077 36.3764 137.984 35.6219C138.892 34.8665 139.996 34.3858 141.167 34.2363C142.338 34.0868 143.528 34.2747 144.596 34.7779C143.89 33.5032 143.575 32.0489 143.689 30.5961C143.803 29.1432 144.341 27.756 145.237 26.6072C146.129 25.4545 147.34 24.5901 148.72 24.1218C150.1 23.6535 151.586 23.602 152.995 23.9737C154.403 24.3468 155.67 25.1244 156.641 26.2104C157.612 27.2964 158.244 28.6433 158.46 30.0848C159.203 29.4932 160.124 29.1711 161.074 29.1711C162.023 29.1711 162.945 29.4932 163.688 30.0848C165.274 29.0924 167.113 28.5803 168.983 28.6103C170.854 28.6402 172.675 29.2109 174.229 30.2536C175.781 31.2947 176.998 32.7647 177.732 34.4849C178.465 36.205 178.684 38.1014 178.361 39.9437C178.044 41.7893 177.198 43.5029 175.925 44.8757C174.652 46.2485 173.008 47.2212 171.193 47.6754C170.009 49.6732 168.326 51.3279 166.309 52.4764C164.292 53.625 162.011 54.2278 159.691 54.2255C157.37 54.2278 155.089 53.625 153.072 52.4764C151.055 51.3279 149.372 49.6732 148.188 47.6754L146.923 47.8442Z" fill="white"/>
<path d="M20.9707 109.766C24.9673 110.979 29.227 111.025 33.2487 109.897C37.2703 108.77 40.8866 106.516 43.672 103.401C46.8883 106.5 50.7162 108.893 54.9101 110.425C59.104 111.957 63.5715 112.595 68.0262 112.298C72.4816 112.004 76.8265 110.782 80.7823 108.709C84.7381 106.636 88.2175 103.759 90.9973 100.261C93.6405 100.444 96.2558 99.6257 98.324 97.9683C100.392 96.3108 101.762 93.9356 102.162 91.314C108.489 91.3774 114.7 89.6195 120.057 86.2496C121.675 87.9662 123.807 89.11 126.131 89.5089C128.455 89.9078 130.845 89.54 132.942 88.4611C135.05 87.3823 136.749 85.6448 137.781 83.5121C138.813 81.3795 139.121 78.9681 138.66 76.6439C139.765 76.813 140.893 76.7341 141.964 76.4129C143.034 76.0917 144.02 75.5364 144.85 74.787C145.677 74.0356 146.327 73.1098 146.753 72.0762C147.178 71.0427 147.37 69.9274 147.312 68.8109C163.807 64.5567 177.35 83.3291 185.344 64.7087C205.094 76.3232 208.535 64.0672 205.094 54.4278C201.654 44.7884 212.616 38.4072 223.646 56.116C234.677 73.8247 201.923 96.8006 157.87 83.2278C158.375 84.4387 158.576 85.7549 158.455 87.0615C158.335 88.3681 157.896 89.6253 157.179 90.7232C156.458 91.8194 155.481 92.722 154.331 93.3518C153.181 93.9817 151.895 94.3196 150.584 94.3358C144.968 98.9366 138.204 101.918 131.022 102.959C123.839 104 116.509 103.061 109.82 100.244C103.502 108.26 94.7608 114.013 84.9044 116.642C75.048 119.272 64.606 118.636 55.1407 114.83C50.6866 115.169 46.2665 113.832 42.7444 111.082C39.2394 112.469 35.4735 113.069 31.7116 112.842C27.9497 112.614 24.2834 111.564 20.9707 109.766Z" fill="#DBDBDB"/>
<path d="M155.964 3.56357C155.964 4.74528 152.793 5.69064 148.863 5.69064C144.933 5.69064 141.763 4.74528 141.763 3.56357C141.763 2.38186 144.95 1.45337 148.863 1.45337C152.776 1.45337 155.964 2.39874 155.964 3.56357Z" fill="#DBDBDB"/>
<path d="M174.904 32.7689C174.904 33.9338 171.716 34.8791 167.804 34.8791C163.891 34.8791 160.703 33.9338 160.703 32.7689C160.703 31.6041 163.874 30.6418 167.804 30.6418C171.733 30.6418 174.904 31.5197 174.904 32.7689Z" fill="#F2F2F2"/>
<path d="M22.3368 88.5287C22.3368 89.6935 19.166 90.6558 15.2363 90.6558C11.3065 90.6558 8.13574 89.6935 8.13574 88.5287C8.13574 87.3639 11.3065 86.4016 15.2363 86.4016C19.166 86.4016 22.3368 87.3639 22.3368 88.5287Z" fill="#F2F2F2"/>
<path d="M126.415 25.8643C126.415 26.6408 125.032 27.2654 123.329 27.2654C121.625 27.2654 120.226 26.6408 120.226 25.8643C120.226 25.0877 121.609 24.48 123.329 24.48C125.049 24.48 126.415 25.1046 126.415 25.8643Z" fill="#DBDBDB"/>
<path d="M32.6236 82.8396C32.6236 83.5993 31.2238 84.2239 29.5203 84.2239C27.8169 84.2239 26.417 83.5993 26.417 82.8396C26.417 82.0799 27.8 81.4553 29.5203 81.4553C31.2407 81.4553 32.6236 82.0631 32.6236 82.8396Z" fill="#F2F2F2"/>
<path d="M100.088 52.9932C100.088 53.7529 98.7045 54.3775 96.9842 54.3775C95.2639 54.3775 93.8809 53.7529 93.8809 52.9932C93.8809 52.2335 95.2808 51.6089 96.9842 51.6089C98.6877 51.6089 100.088 52.2335 100.088 52.9932Z" fill="#F2F2F2"/>
<path d="M61.566 89.8115C61.566 90.5712 60.1829 91.1958 58.4627 91.1958C56.7424 91.1958 55.3594 90.5712 55.3594 89.8115C55.3594 89.0519 56.7592 88.4272 58.4627 88.4272C60.1661 88.4272 61.566 89.035 61.566 89.8115Z" fill="#F2F2F2"/>
<path d="M154.716 26.9109C154.716 27.6706 153.333 28.2952 151.613 28.2952C149.893 28.2952 148.51 27.6706 148.51 26.9109C148.51 26.1513 149.91 25.5098 151.613 25.5098C153.316 25.5098 154.716 26.1344 154.716 26.9109Z" fill="#F2F2F2"/>
<path d="M113.192 33.208C113.192 33.8495 111.505 34.3559 109.431 34.3559C107.356 34.3559 105.67 33.8495 105.67 33.208C105.67 32.5665 107.356 32.0601 109.431 32.0601C111.505 32.0601 113.192 32.5158 113.192 33.208Z" fill="#DBDBDB"/>
<path d="M158.104 13.9459C158.104 14.9757 155.693 15.8198 152.724 15.8198C149.756 15.8198 147.327 14.9757 147.327 13.9459C147.327 12.9161 149.739 12.0552 152.724 12.0552C155.709 12.0552 158.104 12.9499 158.104 13.9459Z" fill="white"/>
<path d="M181.111 17.4576C181.111 18.1835 179.424 18.7575 177.35 18.7575C175.275 18.7575 173.589 18.1835 173.589 17.4576C173.589 16.7317 175.275 16.1577 177.35 16.1577C179.424 16.1577 181.111 16.7317 181.111 17.4576Z" fill="white"/>
<path d="M134.915 34.5244C134.915 35.301 133.447 35.9256 131.643 35.9256C129.838 35.9256 128.388 35.301 128.388 34.5244C128.388 33.7479 129.838 33.1401 131.643 33.1401C133.447 33.1401 134.915 33.7647 134.915 34.5244Z" fill="white"/>
<path d="M107.812 44.4172C107.812 45.0418 106.125 45.5652 103.899 45.5652C101.673 45.5652 99.9863 45.0418 99.9863 44.4172C99.9863 43.7926 101.673 43.2693 103.899 43.2693C106.125 43.2693 107.812 43.7757 107.812 44.4172Z" fill="white"/>
<path d="M213.257 30.7767C213.257 33.0726 207.641 34.9464 200.692 34.9464C193.743 34.9464 188.127 33.0726 188.127 30.7767C188.127 28.4808 193.743 26.6069 200.692 26.6069C207.641 26.6069 213.257 28.4639 213.257 30.7767Z" fill="white"/>
<path d="M221.487 56.555C220.914 57.0445 218.738 55.4577 216.613 53.0098C214.488 50.562 213.24 48.1648 213.813 47.6753C214.387 47.1857 216.562 48.7557 218.687 51.2204C220.812 53.6851 222.06 56.0485 221.487 56.555Z" fill="#D9D9D9"/>
<path d="M133.094 100.616C133.094 101.359 130.548 102.102 127.31 102.304C124.071 102.507 121.423 101.984 121.373 101.224C121.322 100.464 123.936 99.7384 127.175 99.5358C130.413 99.3332 133.061 99.8565 133.094 100.616Z" fill="#F4F4F4"/>
<path d="M195.683 84.0212C195.683 84.7809 191.601 85.5912 186.508 85.8444C181.414 86.0976 177.248 85.6756 177.198 84.9159C177.147 84.1562 181.279 83.3459 186.373 83.1096C191.466 82.8732 195.632 83.2784 195.683 84.0212Z" fill="#F4F4F4"/>
<path d="M78.3646 115.927C78.3646 116.687 75.801 117.413 72.5628 117.615C69.3246 117.818 66.6766 117.278 66.6429 116.518C66.6092 115.758 69.2065 115.033 72.4447 114.83C75.683 114.627 78.3309 115.1 78.3646 115.927Z" fill="#F4F4F4"/>
<path d="M-3.35055 138.043C2.33142 138.043 6.93755 136.433 6.93755 134.447C6.93755 132.461 2.33142 130.851 -3.35055 130.851C-9.03252 130.851 -13.6387 132.461 -13.6387 134.447C-13.6387 136.433 -9.03252 138.043 -3.35055 138.043Z" fill="white"/>
<path d="M243.244 95.8218C237.578 117.396 217.119 119.794 203.408 117.616C198.618 130.682 197.538 131.56 191.23 135.477C204.065 132.641 206.241 123.052 206.241 123.052C206.241 123.052 241.71 129.804 243.244 95.8218Z" fill="white"/>
<path d="M93.7285 149.286C106.985 157.575 132.739 147.733 138.676 139.444C144.613 131.155 147.699 141.132 142.184 144.795C136.669 148.459 134.695 146.213 134.695 146.213C134.695 146.213 111.876 161.407 93.7285 149.286Z" fill="white"/>
<path d="M143.229 140.321C148.289 136.067 156.941 138.853 167.719 144.575C178.496 150.298 182.341 141.79 182.341 141.79C182.341 141.79 184.129 152.088 167.651 149.64C151.173 154.046 150.785 143.428 150.785 143.428C150.785 143.428 143.719 150.281 143.229 140.321Z" fill="white"/>
<path d="M69.5605 146.315C52.5935 150.012 36.4867 140.001 31.0391 133.468C23.2134 141.909 8.84375 140.659 8.84375 140.659C8.84375 140.659 21.2401 146.315 31.0391 139.343C38.8817 148.324 57.3834 150.282 69.5605 146.315Z" fill="white"/>
<path d="M35.5078 101.275C42.6926 104.381 48.8824 101.275 51.0075 97.9995C48.7306 108.787 37.7847 106.018 35.5078 101.275Z" fill="#DBDBDB"/>
<path d="M89.6982 92.614C98.9913 92.7829 104.388 89.2377 104.22 77.9102C112.872 78.8893 119.078 76.931 119.888 70.5498C120.225 78.5686 113.698 81.506 107.981 81.0164C107.323 90.8077 103.073 96.2098 89.6982 92.614Z" fill="#DBDBDB"/>
<path d="M129.923 107.487C134.983 111.15 139.401 111.218 143.635 104.887C148.07 108.753 152.27 110.036 155.171 106.795C152.287 111.386 147.531 110.509 144.529 108.044C140.413 113.26 135.995 114.628 129.923 107.487Z" fill="#DBDBDB"/>
<path d="M64.1797 123.626C71.8199 127.34 78.3132 127.458 84.4186 121.212C91.0637 125.111 97.3209 126.445 101.554 123.254C97.3546 127.779 90.2879 126.85 85.8016 124.369C79.848 129.433 73.3041 130.8 64.1797 123.626Z" fill="#DBDBDB"/>
<path d="M93.627 121.364C99.2433 123.609 103.746 123.17 107.356 117.751C112.314 120.249 116.75 120.756 119.347 117.92C116.902 121.803 111.943 121.684 108.621 120.114C104.978 124.639 100.593 126.209 93.627 121.364Z" fill="#DBDBDB"/>
<path d="M170.89 97.5266C175.949 101.19 180.385 101.257 184.602 94.9099C189.037 98.7758 193.237 100.076 196.138 96.8344C193.254 101.409 188.498 100.548 185.512 98.0836C181.397 103.283 176.961 104.651 170.89 97.5266Z" fill="#DBDBDB"/>
<path d="M137.883 66.1775C143.752 68.8448 148.407 69.0474 152.084 63.4258C149.335 73.7236 145.236 70.8875 137.883 66.1775Z" fill="#DBDBDB"/>
<path d="M113.428 84.0891C117.577 86.1486 121 86.7057 124.137 83.8865C121.371 89.3899 118.538 87.4485 113.428 84.0891Z" fill="#DBDBDB"/>
<path d="M162.321 59.1545C171.125 66.633 174.026 64.4384 178.462 58.2767C183.707 65.6877 192.916 62.362 194.198 58.1416C190.285 70.4314 179.76 64.6579 178.732 62.9697C173.773 69.1484 165.931 66.9707 162.321 59.1545Z" fill="#DBDBDB"/>
<path d="M55.2572 154.113C65.3767 155.396 66.4561 154.907 70.7232 153.033C74.9902 151.159 80.7245 159.583 84.9916 157.304C89.2586 155.025 98.5853 160.512 87.1335 161.71C75.6817 162.909 78.0598 153.438 72.4603 156.241C66.8609 159.043 51.1251 153.573 55.2572 154.113Z" fill="white"/>
<path d="M208.888 28.6832C208.888 29.8481 205.701 30.7934 201.788 30.7934C197.875 30.7934 194.688 29.8481 194.688 28.6832C194.688 27.5184 197.858 26.5562 201.788 26.5562C205.718 26.5562 208.888 27.5015 208.888 28.6832Z" fill="#F2F2F2"/>
<path d="M171.481 128.639C171.481 129.23 168.107 129.703 163.958 129.703C159.809 129.703 156.453 129.23 156.453 128.639C156.453 128.049 159.826 127.576 163.958 127.576C168.091 127.576 171.481 128.049 171.481 128.639Z" fill="#DBDBDB"/>
<path d="M96.7142 139.562C96.7142 140.153 94.2686 140.625 91.2496 140.625C88.2307 140.625 85.7852 140.153 85.7852 139.562C85.7852 138.971 88.2307 138.515 91.2496 138.515C94.2686 138.515 96.7142 139.005 96.7142 139.562Z" fill="#DBDBDB"/>
<path d="M267.986 139.882C265.895 142.69 263.263 145.049 260.245 146.82C255.686 149.494 250.425 150.724 245.155 150.351C239.884 149.977 234.85 148.017 230.713 144.727C230.208 146.575 229.343 148.305 228.168 149.817C226.993 151.33 225.53 152.595 223.865 153.539C222.193 154.48 220.352 155.08 218.448 155.306C216.543 155.532 214.613 155.379 212.768 154.856C212.768 170.151 190.758 168.817 170.131 163.415C201.569 166.639 209.496 162.487 209.192 149.91C215.331 154.974 228.25 153.793 229.549 140.051C236.396 145.875 256.399 148.745 267.986 139.882Z" fill="white"/>
</g>
</svg>
