<svg width="112" height="97" viewBox="0 0 112 97" fill="none" xmlns="http://www.w3.org/2000/svg">
<mask id="mask0_48:6357" style="mask-type:alpha" maskUnits="userSpaceOnUse" x="0" y="0" width="112" height="97">
<path d="M105.245 54.3772C105.245 61.7747 91.2059 65.6807 88.4509 72.0674C80.3821 90.7722 68.0736 96.2514 52.8466 96.2514C39.1871 96.2514 24.8583 97.7856 15.4509 83.4876C9.99514 75.1956 0 65.0451 0 54.3772C0 25.3145 23.56 1.75453 52.6227 1.75453C84.4202 -6.97856 127.862 17.8772 105.245 54.3772Z" fill="#C4C4C4"/>
</mask>
<g mask="url(#mask0_48:6357)">
<path fill-rule="evenodd" clip-rule="evenodd" d="M33.5646 85.5312C41.8999 95.0712 48.4701 101.105 53.2753 103.634C52.6434 104.324 52.1748 105.147 51.9042 106.042C51.6336 106.938 51.5679 107.883 51.7119 108.807C54.1809 109.481 55.3666 110.882 55.0823 112.978C54.7412 115.369 51.2734 117.229 46.9243 117.168C42.7986 117.116 40.078 115.877 38.9328 113.92C38.1735 112.633 38.3034 110.866 39.1196 108.722C38.3368 107.624 37.6866 106.436 37.1827 105.185C37.0326 105.632 37.0326 106.115 37.1827 106.562C36.0175 104.389 35.2826 102.012 35.0183 99.561C34.8234 99.8034 34.6966 100.093 34.6509 100.401C34.6052 100.708 34.6423 101.023 34.7584 101.311C32.7657 96.292 32.3493 90.7849 33.5646 85.5231V85.5312Z" fill="black"/>
<path fill-rule="evenodd" clip-rule="evenodd" d="M33.7034 86.0978C32.7421 90.6903 33.0225 95.4561 34.5155 99.9043C34.5905 99.7247 34.6903 99.5566 34.812 99.4048L35.2181 98.9135L35.2871 99.5429C35.5022 101.548 36.0369 103.506 36.8708 105.342C36.8708 105.264 36.9114 105.187 36.9357 105.11L37.1631 104.436L37.4311 105.098C37.9282 106.329 38.5673 107.499 39.3356 108.582L39.4209 108.696L39.3681 108.83C38.8037 110.316 38.2961 112.322 39.161 113.796C40.631 116.289 44.31 116.874 46.9292 116.907C48.8125 116.967 50.6827 116.574 52.3827 115.761C53.4751 115.193 54.6324 114.239 54.8192 112.943C55.1359 110.714 53.6213 109.601 51.6396 109.061L51.4772 109.017C49.3094 108.688 47.0954 108.853 45.0003 109.5C47.0509 108.722 49.2638 108.471 51.4366 108.769V108.769C51.3086 107.874 51.3689 106.962 51.6137 106.091C51.8584 105.22 52.2822 104.411 52.8578 103.713C49.8976 102.089 47.0185 99.6525 44.5618 97.4069C40.742 93.8348 37.1173 90.0596 33.7034 86.0978V86.0978Z" fill="#333333"/>
<path fill-rule="evenodd" clip-rule="evenodd" d="M40.3261 102.495C43.1648 104.786 46.5649 106.275 50.1733 106.808C50.1882 107.235 50.2398 107.66 50.3276 108.079C48.472 108.172 46.6568 108.655 45 109.496C47.0519 108.718 49.2662 108.466 51.4403 108.765C51.2826 107.64 51.4226 106.493 51.8463 105.439C40.858 103.985 36.6389 97.7238 34.9212 90.7759C34.4549 91.1799 34.1518 91.74 34.0685 92.3514C33.7014 90.6392 33.5176 88.8927 33.5203 87.1415C32.7966 91.4129 33.1383 95.7968 34.5152 99.9044C34.5901 99.7248 34.6899 99.5567 34.8116 99.4049L35.2177 98.9136L35.2867 99.543C35.5019 101.548 36.0365 103.506 36.8704 105.342C36.8704 105.265 36.911 105.187 36.9354 105.11L37.1628 104.436L37.4308 105.098C37.9278 106.33 38.5669 107.499 39.3353 108.582L39.4205 108.696L39.3677 108.83C38.8033 110.316 38.2957 112.322 39.1606 113.796C39.6911 114.651 40.4566 115.335 41.3656 115.766C39.4381 114.493 39.1106 112.203 40.3829 108.895C39.8671 108.524 39.441 108.043 39.1363 107.486C39.3744 107.684 39.6681 107.803 39.9769 107.827C38.6051 106.292 37.6293 104.445 37.1343 102.446C36.919 102.896 36.8225 103.394 36.8542 103.892C36.3742 102.322 36.1601 100.684 36.2207 99.0435C37.5769 100.881 39.1719 102.529 40.9636 103.945C40.6556 103.511 40.44 103.019 40.3301 102.499L40.3261 102.495Z" fill="#121212"/>
<path fill-rule="evenodd" clip-rule="evenodd" d="M78.8257 85.5312C70.4931 95.0712 63.9229 101.105 59.115 103.634C59.7466 104.324 60.2153 105.147 60.4865 106.043C60.7578 106.938 60.8247 107.883 60.6824 108.807C58.2094 109.481 57.0278 110.882 57.312 112.978C57.649 115.369 61.1169 117.229 65.47 117.168C69.5916 117.116 72.3123 115.877 73.4615 113.92C74.2168 112.633 74.0909 110.866 73.2747 108.722C74.0545 107.622 74.7045 106.435 75.2117 105.185C75.3577 105.632 75.3577 106.114 75.2117 106.562C76.3737 104.388 77.1071 102.011 77.372 99.561C77.5681 99.8028 77.6956 100.093 77.7413 100.401C77.787 100.708 77.7492 101.023 77.6319 101.311C79.6266 96.2925 80.0431 90.7847 78.8257 85.5231V85.5312Z" fill="black"/>
<path fill-rule="evenodd" clip-rule="evenodd" d="M78.6836 86.0978C79.6484 90.6901 79.368 95.4568 77.8714 99.9043C77.798 99.7239 77.6981 99.5556 77.575 99.4048L77.1689 98.9135L77.0999 99.5429C76.8882 101.546 76.3576 103.502 75.5284 105.338C75.5284 105.26 75.4878 105.183 75.4634 105.106L75.236 104.432L74.9721 105.094C74.4718 106.325 73.8314 107.494 73.0635 108.578L72.9823 108.692L73.031 108.826C73.5995 110.312 74.1031 112.318 73.2381 113.792C71.7722 116.285 68.0891 116.87 65.47 116.902C63.584 116.964 61.7108 116.571 60.0083 115.757C58.9159 115.189 57.7586 114.235 57.5718 112.939C57.2551 110.71 58.7901 109.597 60.7514 109.057L60.9179 109.012C63.09 108.683 65.3084 108.85 67.4069 109.5C65.3564 108.722 63.1435 108.471 60.9707 108.769V108.769C61.0959 107.872 61.0323 106.959 60.7841 106.089C60.5358 105.218 60.1084 104.409 59.5291 103.713C62.4894 102.089 65.3684 99.6525 67.8252 97.4069C71.645 93.8348 75.2697 90.0596 78.6836 86.0978V86.0978Z" fill="#333333"/>
<path fill-rule="evenodd" clip-rule="evenodd" d="M72.0644 102.495C69.2261 104.786 65.8258 106.275 62.2172 106.807C62.2037 107.234 62.1534 107.66 62.0669 108.078C63.927 108.171 65.7465 108.656 67.4068 109.499C65.3562 108.722 63.1433 108.47 60.9705 108.769C61.1267 107.643 60.9868 106.497 60.5645 105.443C71.5528 103.989 75.7719 97.7274 77.4896 90.7795C77.9559 91.1836 78.259 91.7437 78.3423 92.3551C78.7087 90.6426 78.8938 88.8964 78.8946 87.1452C79.6104 91.4166 79.2631 95.7986 77.8834 99.904C77.8101 99.7236 77.7102 99.5553 77.587 99.4045L77.1809 98.9131L77.1119 99.5425C76.8963 101.546 76.3617 103.502 75.5282 105.337C75.5282 105.26 75.4876 105.183 75.4633 105.106L75.2359 104.432L74.9719 105.094C74.4717 106.324 73.8313 107.493 73.0634 108.578L72.9822 108.691L73.0309 108.825C73.5994 110.312 74.1029 112.318 73.238 113.792C72.7075 114.646 71.942 115.33 71.033 115.761C72.9632 114.489 73.2908 112.198 72.0157 108.89C72.5315 108.52 72.9576 108.038 73.2623 107.481C73.0254 107.679 72.7332 107.798 72.4258 107.822C73.7964 106.286 74.772 104.44 75.2683 102.442C75.4837 102.892 75.5802 103.39 75.5485 103.888C76.0324 102.319 76.2466 100.679 76.182 99.039C74.8258 100.876 73.2307 102.524 71.4391 103.94C71.7471 103.507 71.9627 103.015 72.0725 102.495H72.0644Z" fill="#121212"/>
<path fill-rule="evenodd" clip-rule="evenodd" d="M34.5435 77.6341C33.7062 79.9232 33.0743 82.2823 32.6553 84.6835C32.9143 84.2237 33.3007 83.8486 33.7679 83.6033C33.3467 86.5146 33.4457 89.4775 34.0603 92.3542C34.1436 91.7428 34.4467 91.1827 34.913 90.7786C36.8297 98.5184 41.8609 105.434 55.9354 105.746C70.0099 106.059 74.3589 99.0422 76.9578 90.7786C77.2068 91.6116 77.3139 92.4805 77.2745 93.3491C78.5377 91.1064 79.074 88.527 78.8095 85.9667C79.0289 86.4938 79.2081 87.0368 79.3455 87.5909C79.5457 84.9762 78.9993 82.3584 77.7699 80.0421C78.5143 80.3247 79.1527 80.8312 79.5972 81.4917C79.5201 78.463 78.8583 75.4778 77.6481 72.7003C78.2101 73.0993 78.7003 73.5909 79.0978 74.154C78.7603 70.9577 77.8554 67.8472 76.4258 64.9686C75.3419 63.293 73.9319 61.8527 72.2798 60.7333C72.4078 60.9058 72.4932 61.106 72.5292 61.3176C72.5652 61.5293 72.5507 61.7465 72.4869 61.9515C71.09 60.8687 68.9243 59.9279 65.9898 59.1293C66.3425 59.7288 66.4611 60.4375 66.3227 61.1191C65.7813 60.2338 64.0677 59.5706 61.1819 59.1293C61.4986 59.3892 61.7057 59.9415 61.8032 60.7536C60.4009 59.9604 57.982 59.4352 54.5466 59.1781C54.9499 59.4997 55.2644 59.919 55.4603 60.3963C54.062 59.8135 52.613 59.3608 51.1316 59.0441C49.1306 59.3761 47.2052 60.0638 45.4466 61.0744C45.6455 60.5668 46.3886 60.0389 47.684 59.4989C45.5144 59.7382 43.4509 60.5636 41.7147 61.8866C39.591 68.7614 37.4429 73.5936 34.6653 75.6565C34.3161 75.9164 33.9669 76.16 33.6177 76.3955C33.2579 77.5446 33.0704 78.7406 33.0613 79.9446C33.2553 79.0165 33.7826 78.1916 34.5435 77.6259V77.6341Z" fill="black"/>
<path fill-rule="evenodd" clip-rule="evenodd" d="M79.2726 80.6602C79.1062 77.9536 78.4671 75.297 77.3843 72.8108L76.9783 71.8728L77.8148 72.4657C78.1311 72.6882 78.4261 72.9397 78.6959 73.2169C78.2966 70.3925 77.4466 67.6505 76.1783 65.0955C75.2871 63.707 74.1554 62.4887 72.8363 61.4977C72.8389 61.6707 72.8156 61.8431 72.7673 62.0093L72.6495 62.4154L72.3125 62.1514C70.741 60.9332 68.4548 60.1008 66.4772 59.5404C66.6741 60.0588 66.7137 60.6239 66.5909 61.1647L66.4204 61.8306L66.0671 61.2418C65.4783 60.2632 63.1962 59.7394 61.7871 59.4917C61.938 59.8744 62.035 60.2761 62.0754 60.6855L62.1444 61.25L61.649 60.9698C60.0247 60.048 57.3203 59.6744 55.2778 59.4917C55.4484 59.7211 55.5928 59.969 55.7082 60.2307L56.0006 60.8845L55.3387 60.6124C53.976 60.0512 52.5652 59.6149 51.1236 59.3089C49.1772 59.6483 47.3045 60.3229 45.5889 61.3027L44.9026 61.6723L45.1868 60.9454C45.3428 60.617 45.584 60.3366 45.8853 60.1333C44.4671 60.5199 43.1366 61.1762 41.9667 62.0662C40.6998 66.1675 38.3851 73.2575 34.8401 75.8929C34.5234 76.1285 34.1945 76.3559 33.8655 76.5792C33.6944 77.1469 33.5654 77.7264 33.4798 78.3131C33.7281 77.96 34.0326 77.65 34.3813 77.3954L35.1406 76.8513L34.8198 77.7284C34.11 79.6647 33.548 81.652 33.1387 83.6733C33.2936 83.547 33.4609 83.4368 33.6381 83.3444L34.1336 83.0926L34.0523 83.6408C33.6887 86.1684 33.7215 88.7372 34.1498 91.2547C34.3021 90.9893 34.5001 90.7528 34.7345 90.5562L35.0878 90.2598L35.1975 90.7065C37.8166 101.289 45.3493 105.224 55.9478 105.459C62.4774 105.605 68.7837 104.241 72.8688 98.7629C74.6555 96.363 75.7966 93.5246 76.6899 90.6902L76.9701 89.7969L77.2341 90.6943C77.3828 91.1869 77.4835 91.6928 77.5346 92.2049C78.4037 90.258 78.7454 88.1167 78.5254 85.996L78.3264 84.0712L79.0777 85.8539V85.8823C78.9826 83.884 78.4503 81.9309 77.5183 80.1608L77.161 79.4867L77.8716 79.7587C78.3948 79.9556 78.8718 80.2583 79.2726 80.648V80.6602Z" fill="white"/>
<path fill-rule="evenodd" clip-rule="evenodd" d="M92.8029 45.7424C95.2799 48.4225 100.518 41.4868 97.0341 39.562C93.8505 37.8037 90.6141 44.4958 92.8029 45.7424Z" fill="#F6A5A4"/>
<path fill-rule="evenodd" clip-rule="evenodd" d="M97.0506 39.5538C98.8414 43.042 94.5289 46.5302 92.8193 45.7343C95.2964 48.4143 100.535 41.4786 97.0506 39.5538Z" fill="#E59595"/>
<path fill-rule="evenodd" clip-rule="evenodd" d="M31.8923 59.6708L32.3715 58.8587C34.4749 55.3502 38.223 53.0803 41.9183 51.5494L42.0279 51.5047L42.1375 51.5494C46.7369 53.4553 51.6807 54.3894 56.6584 54.293C61.6361 54.1966 66.54 53.0717 71.0621 50.989H71.0946H71.1311C77.0963 49.8601 84.7873 47.3709 86.769 40.8697C86.7487 36.8942 88.5841 34.2142 92.3728 33.0081C92.9616 31.7696 94.8092 31.3067 96.0558 31.3351C97.4324 31.3676 98.7968 31.9239 99.4222 33.199C100.681 33.5238 101.396 34.5877 101.794 35.7816C102.27 37.0974 102.208 38.5482 101.619 39.818C102.244 42.0676 101.538 44.5284 100.263 46.4207C99.5613 47.4759 98.6575 48.3814 97.6035 49.0847C96.5496 49.7881 95.3665 50.2752 94.1229 50.518C93.4204 52.0651 92.4174 53.9736 91.1424 55.334L92.0763 54.8102L91.2073 55.9309C90.1962 57.2385 88.3648 58.4648 86.5578 59.4678L85.498 60.483C82.9681 62.9194 79.9754 64.7183 76.4669 65.2462L76.2801 65.2746L76.1826 65.1122C75.2898 63.719 74.1553 62.4965 72.8325 61.5022C72.8351 61.6753 72.8118 61.8477 72.7635 62.0139L72.6458 62.42L72.3087 62.156C70.7372 60.9378 68.451 60.1053 66.4735 59.545C66.6704 60.0634 66.7099 60.6284 66.5872 61.1693L66.4166 61.8352L66.0633 61.2464C65.4745 60.2678 63.1924 59.7439 61.7833 59.4962C61.9342 59.8789 62.0313 60.2807 62.0716 60.6901L62.1407 61.2545L61.6453 60.9743C60.021 60.0525 57.3165 59.679 55.274 59.4962C55.4447 59.7257 55.589 59.9736 55.7044 60.2353L55.9968 60.8891L55.3349 60.617C53.9722 60.0557 52.5614 59.6195 51.1199 59.3135C49.1735 59.6529 47.3008 60.3275 45.5851 61.3073L44.8988 61.6768L45.1831 60.95C45.339 60.6216 45.5802 60.3411 45.8815 60.1378C44.4633 60.5245 43.1328 61.1807 41.9629 62.0707C40.696 66.1721 38.3814 73.2621 34.8363 75.8975C34.4912 76.1533 34.1379 76.401 33.7806 76.6406C32.3228 77.6233 30.6457 78.5167 29.2935 79.6293C28.53 81.8952 26.9829 83.2068 24.579 83.3611C23.6973 84.103 22.6148 84.5656 21.4692 84.69C20.3237 84.8144 19.1671 84.5949 18.1468 84.0596L17.8747 83.9459C17.2026 83.705 16.6525 83.209 16.3438 82.5652V82.5449V82.5205C16.1243 81.6519 16.0679 80.75 16.1773 79.8608C16.6768 76.0356 20.4045 73.2459 23.4866 71.4226C25.5413 70.2044 27.5473 66.1436 28.5585 64.0808C29.315 62.5445 30.3745 61.1771 31.673 60.0607C31.9654 59.8085 32.2855 59.5905 32.6273 59.411C32.3791 59.4714 32.1381 59.5585 31.9086 59.6708H31.8923ZM96.8923 39.8139C94.0498 38.2343 91.1058 44.4472 92.9453 45.4989L92.9819 45.5192L93.0144 45.5517C93.2404 45.8115 93.5484 45.9863 93.8874 46.0471C95.1056 46.2501 96.3726 45.0116 96.9898 44.1142C97.8507 42.8716 98.5654 40.7438 96.8923 39.818V39.8139Z" fill="black"/>
<path fill-rule="evenodd" clip-rule="evenodd" d="M86.8495 41.4857C85.0709 46.3586 79.8461 49.6072 71.1751 51.2315C66.6199 53.3339 61.6791 54.4718 56.6631 54.5739C51.6471 54.6759 46.6642 53.7398 42.0272 51.8243C37.509 53.6841 34.3714 56.0773 32.6145 59.0037C33.248 58.4758 33.788 58.3215 34.2388 58.5489C31.7495 60.027 29.9222 61.899 28.8096 64.1892C26.9173 68.0754 25.2727 70.6864 23.624 71.6528C18.0365 74.9583 15.6406 78.4424 16.6152 82.4341C16.8617 82.9609 17.2962 83.3766 17.8334 83.5995C17.6636 82.9608 17.6308 82.2934 17.7372 81.6412C17.8436 80.9889 18.0867 80.3665 18.4507 79.8149C17.8082 80.9908 17.6369 82.367 17.9715 83.6645V83.6157C18.9721 84.2284 20.1425 84.5048 21.3115 84.4047C22.4804 84.3046 23.5868 83.8332 24.4687 83.0594C21.637 83.0432 20.7937 81.6896 21.9388 78.9987C21.1267 81.5894 21.9997 82.8523 24.5093 82.8198C25.1547 82.8354 25.7997 82.7727 26.43 82.633C27.6644 82.0916 28.5375 81.0318 29.0492 79.4535C30.2999 78.4099 31.9241 77.545 33.6215 76.3998C33.9708 76.1643 34.32 75.9207 34.6692 75.6608C37.4467 73.5979 39.5949 68.7576 41.7186 61.8909C43.4542 60.5614 45.5193 59.7303 47.692 59.4869C46.3966 60.027 45.6616 60.5549 45.4545 61.0625C47.2131 60.0518 49.1385 59.3642 51.1395 59.0321C52.6146 59.3419 54.0581 59.7864 55.452 60.36C55.2561 59.8827 54.9416 59.4634 54.5383 59.1418C57.9737 59.4125 60.3925 59.9377 61.7948 60.7173C61.6974 59.9052 61.4903 59.361 61.1736 59.093C64.0675 59.5343 65.7811 60.1975 66.3144 61.0828C66.4528 60.4012 66.3342 59.6925 65.9815 59.093C68.9268 59.8862 71.0926 60.827 72.4786 61.9152L72.503 61.8178C71.4178 60.3093 70.181 58.916 68.8118 57.6596C70.8728 59.0302 72.7564 60.6506 74.4196 62.4837L74.3547 62.4228C75.1471 63.1703 75.8404 64.0165 76.4175 64.9405C79.5605 64.4694 82.5181 62.9074 85.2902 60.2544C84.6701 60.5197 84.0125 60.6868 83.3411 60.7498C87.2637 58.9117 89.8071 57.24 90.9712 55.7348C90.5847 55.9437 90.1638 56.0813 89.7286 56.1409C91.1742 55.1907 92.5697 53.2212 93.9152 50.2325C99.1007 49.3757 102.516 43.845 101.298 39.7396C101.594 39.134 101.765 38.4748 101.801 37.8014C101.836 37.1281 101.736 36.4545 101.505 35.821C101.034 34.416 100.262 33.612 99.2063 33.3846C98.0328 30.6679 93.2898 31.3055 92.5711 33.1775C88.8488 34.3226 87.0052 36.8809 87.0404 40.8523C87.1811 42.3124 87.6216 43.7278 88.3343 45.0099C89.047 46.292 90.0165 47.4133 91.1823 48.3037C90.0069 47.5412 89.0104 46.5334 88.2611 45.3496C87.5118 44.1657 87.0275 42.8338 86.8414 41.4451L86.8495 41.4857ZM97.0501 39.5528C100.526 41.4776 95.2958 48.4133 92.8188 45.7332C90.6301 44.4866 93.8665 37.7945 97.0501 39.5528Z" fill="#333333"/>
<path fill-rule="evenodd" clip-rule="evenodd" d="M68.8203 57.6836C70.8814 59.0542 72.765 60.6746 74.4282 62.5077L74.3632 62.4468C75.1557 63.1943 75.8489 64.0404 76.426 64.9644C79.569 64.4934 82.5266 62.9314 85.2987 60.2784C84.6787 60.5437 84.0211 60.7108 83.3496 60.7738C87.2722 58.9356 89.8156 57.264 90.9797 55.7588C90.5933 55.9677 90.1723 56.1053 89.7371 56.1649C91.1827 55.2146 92.5783 53.2452 93.9237 50.2565C95.1222 50.0437 96.2667 49.5958 97.2912 48.9386C98.3157 48.2814 99.1999 47.4279 99.893 46.4272C98.0296 48.3705 95.5283 49.5771 92.8476 49.8261C91.206 53.0615 88.4456 55.591 85.0794 56.9445C85.7723 56.9362 86.4618 56.8477 87.1342 56.6806C84.7258 58.8719 81.8498 60.4856 78.7244 61.3991C79.5616 61.5385 80.4194 61.4871 81.2339 61.2489C79.7232 62.0848 78.1115 62.7235 76.4382 63.1493C74.1333 61.0247 71.5778 59.1893 68.8284 57.6836H68.8203Z" fill="#212221"/>
<path fill-rule="evenodd" clip-rule="evenodd" d="M36.0374 57.1236C37.1551 55.4541 38.7101 54.1238 40.5326 53.2781C44.1499 55.3901 48.2258 56.5926 52.4102 56.7825C53.4596 57.4776 54.6904 57.8484 55.9491 57.8484C57.2079 57.8484 58.4387 57.4776 59.488 56.7825C64.2399 56.4462 68.8542 55.04 72.9859 52.6689C75.7554 52.2194 78.4057 51.2155 80.778 49.7174C83.1504 48.2193 85.196 46.2579 86.7924 43.9506C87.7507 45.8436 89.2867 47.3824 91.1779 48.3443C90.0026 47.5818 89.006 46.574 88.2567 45.3902C87.5074 44.2063 87.0231 42.8744 86.837 41.4857C85.3346 45.6114 81.3442 48.5812 74.866 50.3949C70.1781 53.6863 64.6882 55.6504 58.9764 56.08C58.1373 56.5873 57.1754 56.8555 56.1948 56.8555C55.2142 56.8555 54.2523 56.5873 53.4132 56.08C48.9809 55.7295 44.6682 54.4703 40.7437 52.3806C36.905 54.1565 34.1978 56.3642 32.6223 59.0037C33.2558 58.4758 33.7958 58.3215 34.2466 58.5489C31.7574 60.027 29.93 61.899 28.8174 64.1892C26.9251 68.0753 25.2805 70.6864 23.6318 71.6528C18.0443 74.9583 15.6485 78.4424 16.623 82.4341C16.8695 82.9609 17.304 83.3766 17.8412 83.5995C17.6714 82.9608 17.6386 82.2934 17.745 81.6412C17.8514 80.9889 18.0945 80.3665 18.4585 79.8149C17.8257 80.9761 17.6518 82.3325 17.9712 83.6157C18.9718 84.2284 20.1422 84.5048 21.3111 84.4047C22.4801 84.3046 23.5864 83.8332 24.4684 83.0594C22.4136 83.0594 21.4025 82.3244 21.4472 80.895C21.412 82.1458 21.9263 82.8902 22.9902 83.1284C22.3183 83.5209 21.5621 83.7467 20.785 83.787C20.0078 83.8272 19.2324 83.6808 18.5234 83.3599C18.2641 82.8036 18.1253 82.1987 18.1162 81.5849C18.1071 80.9712 18.2279 80.3624 18.4707 79.7986C17.7965 80.7185 17.4518 81.8385 17.492 82.9782C17.2195 82.7957 17.0209 82.5222 16.9316 82.2067C16.7655 81.4898 16.712 80.7513 16.7733 80.0179C17.492 76.7084 20.2371 74.3329 23.5587 72.6234C29.2925 69.6712 28.6956 61.5457 38.0271 56.7094C37.3438 56.6481 36.6571 56.7804 36.0455 57.0911L36.0374 57.1236ZM40.561 61.4807C38.7662 68.9728 36.0211 73.6223 33.0405 75.2872C31.4447 76.1846 29.3859 77.8373 28.1474 78.751C25.8815 82.698 22.0563 82.2554 21.9345 78.9784C21.1223 81.5691 21.9954 82.832 24.5049 82.7995C25.1503 82.8151 25.7953 82.7524 26.4256 82.6127C27.6601 82.0713 28.5331 81.0115 29.0448 79.4332C30.2955 78.3896 31.9198 77.5246 33.6172 76.3795C33.9664 76.144 34.3156 75.9004 34.6648 75.6405C37.4424 73.5776 39.5905 68.7372 41.7143 61.8705C43.4498 60.5411 45.5149 59.71 47.6876 59.4666C45.2796 59.6006 42.4574 59.9742 40.561 61.4645V61.4807Z" fill="#212221"/>
<path fill-rule="evenodd" clip-rule="evenodd" d="M90.8781 48.0799C86.8174 41.1713 87.4942 36.4338 92.9085 33.8674C93.2426 33.3389 93.7106 32.9083 94.265 32.6194C94.8195 32.3304 95.4405 32.1934 96.0651 32.2223C96.6896 32.2512 97.2954 32.4449 97.8208 32.7838C98.3462 33.1226 98.7725 33.5946 99.0564 34.1516C99.5528 34.3615 99.9982 34.6758 100.362 35.0731C100.726 35.4703 101.001 35.9413 101.167 36.454C101.333 36.9667 101.387 37.5091 101.325 38.0445C101.262 38.5798 101.086 39.0955 100.807 39.5565C101.207 40.6379 101.349 41.7982 101.22 42.9442C101.091 44.0902 100.695 45.19 100.063 46.1551C101.387 44.1654 101.923 41.7777 101.318 39.7433C101.615 39.1376 101.786 38.4784 101.821 37.8051C101.857 37.1317 101.756 36.4582 101.525 35.8247C101.054 34.4196 100.283 33.6156 99.227 33.3882C98.0534 30.6716 93.3105 31.3091 92.5917 33.1811C88.8694 34.3262 87.0258 36.8845 87.061 40.8559C87.3251 43.6748 88.6982 46.2733 90.8781 48.0799V48.0799Z" fill="#212221"/>
<path fill-rule="evenodd" clip-rule="evenodd" d="M76.2062 88.8794C75.4082 92.8166 73.4947 96.4412 70.694 99.3211C67.8932 102.201 64.3234 104.215 60.41 105.122L60.146 105.183C59.679 105.285 59.1999 105.374 58.7207 105.443C59.2202 105.415 59.7197 105.378 60.2151 105.329L60.4871 105.301C65.3153 104.761 69.7415 102.986 72.8642 98.8038C74.6509 96.4039 75.792 93.5655 76.6854 90.7311L76.9656 89.8377L77.2295 90.7352C77.2823 90.9016 77.327 91.0722 77.3676 91.2468C77.4421 91.5761 77.4963 91.9098 77.53 92.2457C77.6681 91.9331 77.7939 91.6163 77.9076 91.2915C78.4732 89.6755 78.6905 87.9581 78.5452 86.2521C78.5452 86.1682 78.537 86.0829 78.5208 85.9963V85.8907L78.33 84.0715L79.0812 85.8542V85.8826C78.9849 83.884 78.4512 81.9309 77.5178 80.161L77.1605 79.4869L77.8711 79.759C78.3943 79.9559 78.8712 80.2586 79.272 80.6483C79.1057 77.9417 78.4666 75.2851 77.3838 72.7989L76.9777 71.8609L77.8142 72.4538C78.1306 72.6763 78.4256 72.9278 78.6954 73.205C78.2915 70.399 77.443 67.6753 76.1818 65.1363C75.289 63.7431 74.1545 62.5206 72.8317 61.5264C72.8343 61.6994 72.811 61.8718 72.7627 62.038C75.2324 64.3017 76.823 67.365 77.2539 70.6874C76.3026 69.9481 75.2683 69.3226 74.1718 68.8235C76.1617 71.797 77.5419 75.1357 78.2325 78.6464C77.2027 77.8897 76.1073 77.2266 74.9596 76.6647C76.3311 78.6586 77.3477 80.8745 77.9645 83.2147C77.7004 82.6788 77.2741 82.2398 76.7463 81.9599C77.204 83.5886 77.4858 85.2618 77.5868 86.9506C77.5868 87.0764 77.5868 87.2023 77.5868 87.3282C77.6276 88.1398 77.6276 88.953 77.5868 89.7646C77.439 89.1841 77.2122 88.6267 76.9128 88.1079C76.864 88.0267 76.8194 87.9495 76.7666 87.8723C76.6667 87.711 76.5583 87.5551 76.4417 87.4054C76.4011 87.7383 76.3483 88.0713 76.2915 88.4002C76.263 88.5667 76.2306 88.7373 76.194 88.9038L76.2062 88.8794Z" fill="#CECECE"/>
<path fill-rule="evenodd" clip-rule="evenodd" d="M51.9768 105.122C48.1044 104.422 44.5469 102.531 41.8005 99.7121C39.0541 96.8936 37.2556 93.2884 36.6557 89.399C36.6314 89.2407 36.6111 89.0864 36.5908 88.928C36.5542 88.6478 36.5258 88.3676 36.5014 88.0834C36.3634 88.1808 36.228 88.2824 36.0954 88.3879L35.8923 88.5585C35.4749 88.9258 35.1027 89.3416 34.7837 89.797C34.6898 88.9217 34.6424 88.0419 34.6416 87.1616C34.6416 87.0276 34.6416 86.8976 34.6416 86.7555C34.6659 84.9704 34.8782 83.1928 35.2751 81.4522C34.7635 81.7934 34.2801 82.1749 33.8295 82.5933C34.4183 80.1525 35.3944 77.8219 36.7207 75.69C39.6355 71.6009 41.5063 66.8611 42.1702 61.8836L41.955 62.0419C40.688 66.1433 38.3734 73.2333 34.8284 75.8687C34.5117 76.1042 34.1827 76.3316 33.8538 76.555C33.6826 77.1226 33.5537 77.7022 33.4681 78.2889C33.7164 77.9358 34.0209 77.6257 34.3695 77.3712L35.1289 76.827L34.8081 77.7042C34.0982 79.6404 33.5362 81.6278 33.127 83.6491C33.2819 83.5228 33.4492 83.4126 33.6264 83.3201L34.1218 83.0684L34.0406 83.6166C33.935 84.3475 33.866 85.0784 33.8254 85.8134C33.8254 85.9393 33.8254 86.0652 33.8254 86.1911C33.7602 87.8777 33.8704 89.5666 34.1543 91.2304C34.3067 90.9651 34.5046 90.7286 34.7391 90.532L35.0924 90.2356L35.202 90.6822C37.4801 99.8838 43.4656 104.058 51.9606 105.147L52.2327 105.179C52.6875 105.236 53.1504 105.281 53.6174 105.317C53.1585 105.276 52.7037 105.216 52.2489 105.142L51.985 105.094L51.9768 105.122Z" fill="#CECECE"/>
<path fill-rule="evenodd" clip-rule="evenodd" d="M47.9642 100.005C47.5865 99.8267 47.217 99.6358 46.8515 99.4328C39.0022 95.0675 36.586 86.8161 42.8517 79.0682C46.1409 75.0075 55.3466 72.5426 60.5402 73.2167C53.4746 70.959 41.8609 74.2644 38.0763 80.4205C37.6771 81.0716 37.3243 81.7501 37.0205 82.4508C37.455 77.3952 41.9746 70.4676 42.0843 62.5533C41.347 67.2909 39.5129 71.7907 36.7282 75.6938C35.4019 77.8256 34.4258 80.1563 33.8369 82.597C34.2876 82.1787 34.771 81.7971 35.2825 81.4559C34.8857 83.1965 34.6733 84.9741 34.6491 86.7592C34.6491 86.8932 34.6491 87.0232 34.6491 87.1653C34.6498 88.0457 34.6973 88.9254 34.7912 89.8007C35.1102 89.3453 35.4823 88.9295 35.8998 88.5622L36.1028 88.3917C36.2327 88.2861 36.3681 88.1846 36.5089 88.0871C36.5332 88.3713 36.5617 88.6515 36.5982 88.9317L36.6632 89.4028C37.2633 93.2902 39.0609 96.8937 41.8057 99.7113C44.5505 102.529 48.1057 104.42 51.9762 105.122L52.2401 105.171C52.6949 105.244 53.1497 105.305 53.6086 105.345C54.3693 105.405 55.1476 105.444 55.9435 105.463C56.8734 105.483 57.8033 105.463 58.721 105.426C59.2002 105.357 59.6794 105.268 60.1464 105.167L60.4103 105.106C64.3237 104.198 67.8936 102.184 70.6943 99.3044C73.495 96.4245 75.4085 92.7999 76.2065 88.8627L76.304 88.3592C76.3608 88.0303 76.4136 87.6973 76.4542 87.3643C76.5708 87.514 76.6792 87.6699 76.7791 87.8313L76.9253 88.0668C77.2247 88.5856 77.4515 89.1431 77.5994 89.7236C77.6401 88.9119 77.6401 88.0988 77.5994 87.2871V86.9095C77.4929 85.2271 77.2071 83.5608 76.7466 81.9392C77.2745 82.219 77.7007 82.658 77.9648 83.1939C77.348 80.8538 76.3314 78.6379 74.9599 76.644C76.1077 77.2058 77.203 77.869 78.2328 78.6256C77.6968 75.9192 76.7505 73.3106 75.4269 70.8899C75.515 70.4442 75.5652 69.9919 75.5771 69.5377C76.157 69.8758 76.7133 70.253 77.242 70.6666C76.8112 67.3443 75.2205 64.2809 72.7509 62.0172L72.6331 62.4233L72.2961 62.1594C71.0986 61.2919 69.774 60.6152 68.3693 60.1534C70.3012 62.0037 71.7057 64.3349 72.4387 66.9076C73.1716 69.4803 73.2064 72.2017 72.5397 74.7923C74.0504 77.4704 74.9594 80.4455 75.2035 83.5107C75.0215 86.6906 74.0697 89.7786 72.4301 92.5092C72.1905 92.9153 71.9387 93.2929 71.6748 93.6706C70.1608 95.8182 68.2268 97.6362 65.9897 99.0145C65.5837 99.2703 65.1776 99.5059 64.7269 99.7292C62.0519 101.111 59.0844 101.831 56.0735 101.829C53.2577 101.83 50.4768 101.206 47.9317 100.001L47.9642 100.005ZM73.7823 64.4862C73.8919 64.9613 73.9813 65.4729 74.0543 66.0049C73.9365 65.5039 73.8456 64.9969 73.7823 64.4862V64.4862Z" fill="#E5E5E4"/>
<path fill-rule="evenodd" clip-rule="evenodd" d="M38.0762 80.4195C41.8608 74.2635 53.4744 70.958 60.5401 73.2158C53.5678 70.016 41.2841 73.4513 38.0762 80.4195Z" fill="#CECECE"/>
<path fill-rule="evenodd" clip-rule="evenodd" d="M38.0763 80.4215C41.2843 73.4533 53.568 70.0179 60.5402 73.2178C54.3963 69.6037 42.4497 71.9143 38.6692 77.9567C41.1232 72.9726 42.3273 67.4662 42.1776 61.9127C42.1492 62.1239 42.1167 62.3188 42.0842 62.5421C41.9746 70.4687 37.455 77.3963 37.0205 82.4397C37.3243 81.7389 37.6771 81.0605 38.0763 80.4093V80.4215Z" fill="#E5E5E4"/>
<path fill-rule="evenodd" clip-rule="evenodd" d="M33.2565 22.8024C31.7093 22.7834 30.2244 22.19 29.0902 21.1375C28.3947 20.4411 27.8621 19.5992 27.5307 18.6724C27.1993 17.7456 27.0773 16.7569 27.1735 15.7773C27.2486 14.681 27.5153 13.6062 27.9613 12.6019V12.6019C27.8292 12.5559 27.687 12.5471 27.5502 12.5765C27.4134 12.6058 27.2873 12.6722 27.1857 12.7683C28.001 11.1331 29.2041 9.72221 30.6901 8.6589C30.5862 8.60888 30.4724 8.5829 30.3571 8.5829C30.2418 8.5829 30.128 8.60888 30.0241 8.6589C31.5307 7.47317 33.1347 6.89654 35.031 6.41332C36.4502 6.03331 37.9498 6.07849 39.3435 6.54325C39.3313 6.26506 39.2287 5.99844 39.0511 5.7839C40.7404 6.57571 42.0647 7.98126 42.7545 9.71468V9.71468C42.8195 9.8568 42.8763 10.0071 42.9332 10.1614V10.2101V10.2669C43.124 13.0688 42.052 15.891 40.3587 18.096C38.6168 20.4095 36.1368 22.0585 33.3296 22.7699H33.2808L33.2565 22.8024Z" fill="black"/>
<path fill-rule="evenodd" clip-rule="evenodd" d="M42.5759 10.3159C42.7505 12.8498 41.849 15.5949 40.0826 17.8892C38.3953 20.1342 35.991 21.7348 33.2687 22.425C29.7034 22.3194 27.3076 19.546 27.5512 15.806C27.7948 12.0661 30.6049 8.4074 34.2636 7.07143C37.9223 5.73545 41.4064 7.09579 42.5759 10.32V10.3159Z" fill="#1A1A1A"/>
<path fill-rule="evenodd" clip-rule="evenodd" d="M41.1268 12.3471C41.2042 14.4066 40.5367 16.4249 39.2467 18.0321C37.9778 19.7295 36.1643 20.9394 34.1099 21.4594C31.4298 21.3782 29.6431 19.291 29.8096 16.4769C29.976 13.6628 32.1079 10.9096 34.8611 9.90256C37.6143 8.8955 40.2375 9.90256 41.1187 12.339L41.1268 12.3471Z" fill="#DD847D"/>
<path fill-rule="evenodd" clip-rule="evenodd" d="M32.4846 21.1159C29.4674 18.1394 30.1862 12.7061 35.6804 10.9641C37.1747 10.489 38.7665 10.9641 39.4731 11.8574C39.7979 11.6097 40.1309 11.3702 40.468 11.1387C39.2497 9.61999 37.1219 9.10834 34.8885 9.92048C32.1353 10.9275 30.0156 13.6807 29.837 16.4948C29.6949 18.6795 30.7506 20.4256 32.4846 21.1362V21.1159Z" fill="#C87871"/>
<path fill-rule="evenodd" clip-rule="evenodd" d="M27.6855 14.7537C30.3534 7.08302 39.4982 5.79171 41.7966 10.2869C41.9996 10.1651 42.2026 10.0474 42.4179 9.92959C41.1144 6.99775 37.7724 5.80389 34.2639 7.08708C32.6139 7.71906 31.1479 8.75323 29.9991 10.0956C28.8503 11.4381 28.055 13.0462 27.6855 14.774V14.7537Z" fill="#333333"/>
<path fill-rule="evenodd" clip-rule="evenodd" d="M79.1351 22.8024C80.6824 22.7842 82.1676 22.1907 83.3014 21.1375C83.9981 20.4418 84.5317 19.6001 84.8639 18.6732C85.196 17.7463 85.3183 16.7572 85.2221 15.7773C85.143 14.6816 84.8766 13.6075 84.4343 12.6019V12.6019C84.5658 12.5562 84.7073 12.5476 84.8434 12.577C84.9795 12.6063 85.1048 12.6725 85.2058 12.7683C84.3934 11.1324 83.1913 9.72123 81.7055 8.6589C81.8094 8.60888 81.9232 8.5829 82.0385 8.5829C82.1538 8.5829 82.2676 8.60888 82.3715 8.6589C80.8609 7.47317 79.2569 6.89654 77.3605 6.41332C75.9427 6.03341 74.4444 6.07859 73.0521 6.54325V6.54325C73.0646 6.26583 73.1656 5.99971 73.3404 5.7839C71.6531 6.57721 70.3307 7.98243 69.6411 9.71468V9.71468C69.5761 9.8568 69.5152 10.0071 69.4583 10.1614V10.2101V10.2669C69.2634 13.0688 70.3355 15.891 72.0288 18.096C73.7715 20.4105 76.2531 22.0597 79.062 22.7699H79.1066L79.1351 22.8024Z" fill="black"/>
<path fill-rule="evenodd" clip-rule="evenodd" d="M69.8162 10.3151C69.6416 12.849 70.5471 15.5941 72.3136 17.8884C74.0002 20.1342 76.4048 21.7349 79.1274 22.4242C82.6887 22.3187 85.0845 19.5452 84.845 15.8052C84.6054 12.0653 81.7872 8.40254 78.1285 7.06657C74.4698 5.73059 70.9898 7.09093 69.8162 10.3151V10.3151Z" fill="#1A1A1A"/>
<path fill-rule="evenodd" clip-rule="evenodd" d="M71.2697 12.3459C71.1926 14.4047 71.8585 16.4225 73.1457 18.0309C74.4146 19.7222 76.2247 20.9275 78.2744 21.446C80.9586 21.3648 82.7615 19.2776 82.5788 16.4635C82.3961 13.6494 80.2764 10.8963 77.5232 9.8892C74.77 8.88214 72.1509 9.8892 71.2697 12.3256V12.3459Z" fill="#DD847D"/>
<path fill-rule="evenodd" clip-rule="evenodd" d="M79.9308 21.1159C82.9479 18.1394 82.2292 12.7061 76.7309 10.9641C75.2366 10.489 73.6448 10.9641 72.9423 11.8574C72.6174 11.6084 72.2845 11.3688 71.9434 11.1387C73.1616 9.61999 75.2894 9.10834 77.5228 9.92048C80.276 10.9275 82.3957 13.6807 82.5784 16.4948C82.7205 18.6795 81.6647 20.4256 79.9308 21.1362V21.1159Z" fill="#C87871"/>
<path fill-rule="evenodd" clip-rule="evenodd" d="M84.7058 14.7537C82.0379 7.08302 72.8931 5.79171 70.5988 10.2869L69.9775 9.92959C71.281 6.99775 74.623 5.80389 78.1274 7.08708C79.7778 7.71842 81.2442 8.75239 82.3931 10.0949C83.542 11.4374 84.337 13.0459 84.7058 14.774V14.7537Z" fill="#333333"/>
<path fill-rule="evenodd" clip-rule="evenodd" d="M32.4604 45.3964L32.4969 45.5101C32.6678 46.2346 32.9888 46.9152 33.439 47.508C32.8689 46.9689 32.3267 46.401 31.8147 45.8065C30.2879 42.8905 29.4672 39.6566 29.4189 36.3653L28.7529 37.5551L28.9316 35.7441C29.3386 31.5236 30.2829 27.3725 31.7416 23.3913C34.71 12.135 45.4588 6.50684 56.2075 6.50684C66.9562 6.50684 77.709 12.135 80.6734 23.3913C82.1315 27.3729 83.0772 31.5238 83.4874 35.7441L83.6621 37.5551L83.0002 36.3653C82.9499 39.6563 82.1294 42.8898 80.6043 45.8065C80.0873 46.3994 79.5458 46.9665 78.98 47.508C79.4299 46.9144 79.752 46.2342 79.9262 45.5101V45.5101L79.9627 45.3964C79.3452 46.3801 78.6011 47.2784 77.7496 48.0684C72.6006 52.8519 65.8964 55.5279 59.0094 56.0924C58.1712 56.6023 57.2089 56.872 56.2278 56.872C55.2467 56.872 54.2844 56.6023 53.4462 56.0924C46.543 55.5279 39.859 52.8438 34.71 48.0684C33.8562 47.2796 33.1106 46.3811 32.4929 45.3964H32.4604Z" fill="black"/>
<path fill-rule="evenodd" clip-rule="evenodd" d="M31.9942 43.7512C32.7031 45.2828 33.703 46.662 34.9382 47.812C39.8598 52.3844 46.2189 55.0035 52.8054 55.6735C52.436 55.3717 52.1083 55.0221 51.8308 54.634C52.2535 55.0732 52.7394 55.4469 53.2724 55.7426V55.7426H53.3089L53.3536 55.7669H53.378H53.4104L53.4632 55.7954L53.516 55.8197H53.5404L53.65 55.8725H53.6744L53.7312 55.8969H53.7678L53.8246 55.9212H53.8531L53.914 55.9497L53.9627 55.97H53.9871L54.0439 55.9903H54.0683L54.1129 56.0106L54.182 56.0309L54.2429 56.0512L54.3079 56.0715L54.3728 56.0918H54.4378L54.5028 56.1121H54.5271H54.5596H54.5921H54.649H54.6693H54.7099H54.8195H54.8845H54.9454H54.9657H55.0185L55.1606 56.1365H55.2256H55.2499H55.384L55.6723 56.169H56.6225H56.7605H56.8905H56.9108L57.0448 56.1486H57.0651H57.1301H57.1829L57.2966 56.1283H57.3412H57.3615H57.4184H57.4427H57.4915H57.524H57.5564H57.6133H57.6417H57.6661H57.7107H57.7635H57.796H57.8285H57.8854H57.9138H57.9381H57.9706L58.0803 56.0918L58.1412 56.0715L58.2996 56.0106H58.3361L58.3929 55.9862H58.4295L58.5107 55.9497H58.5473H58.5676L58.6366 55.9172H58.665L58.7056 55.8969L58.7544 55.8725H58.7747H58.8031H58.8315L58.8884 55.84L59.0102 55.7751L59.0427 55.7548C59.5559 55.4645 60.0238 55.1006 60.4314 54.6746C60.1543 55.0617 59.8281 55.4111 59.4609 55.7141C66.0312 55.0441 72.3943 52.425 77.3281 47.8526C78.562 46.7014 79.5617 45.3225 80.2721 43.7919V43.7919C80.3825 44.4209 80.3322 45.0676 80.126 45.672C81.9443 42.3056 82.7881 38.499 82.5624 34.6796C82.7205 35.0534 82.8995 35.4181 83.0984 35.7719C82.6917 31.5777 81.7514 27.4526 80.3006 23.4964C74.4815 1.33291 37.9147 1.33291 32.0916 23.4964C30.6421 27.4527 29.7033 31.5779 29.2979 35.7719C29.4938 35.4172 29.6714 35.0526 29.8298 34.6796C29.5711 38.4776 30.371 42.2729 32.1404 45.6435C31.93 45.04 31.8797 44.3922 31.9942 43.7634V43.7512Z" fill="white"/>
<path fill-rule="evenodd" clip-rule="evenodd" d="M66.4337 40.6897C62.0644 38.8624 59.4533 36.8131 58.6006 34.5418C63.1039 29.5877 59.3396 25.3564 60.0015 23.0215C61.3781 18.1852 68.2489 19.6674 71.3472 22.5667C80.0412 30.6882 73.2842 42.6795 68.4803 41.5628C67.79 41.2988 67.1038 41.0065 66.45 40.6897H66.4337Z" fill="#333333"/>
<path fill-rule="evenodd" clip-rule="evenodd" d="M45.9588 40.6897C50.3308 38.8624 52.9419 36.8131 53.7919 34.5418C49.2886 29.5877 53.0569 25.3564 52.391 23.0215C51.0144 18.1852 44.1436 19.6674 41.0453 22.5667C32.3513 30.6882 39.1083 42.6795 43.9122 41.5628C44.6079 41.2921 45.2847 41.0011 45.9425 40.6897H45.9588Z" fill="#333333"/>
<path fill-rule="evenodd" clip-rule="evenodd" d="M47.9165 46.6514C50.4037 45.1221 53.2663 44.3124 56.1861 44.3124C59.106 44.3124 61.9686 45.1221 64.4558 46.6514V46.7448C63.1604 47.7559 62.1859 49.3193 61.4874 50.8055L61.4631 50.8543C60.9149 52.0238 61.0854 52.2715 60.0377 53.246C58.9874 54.2163 57.61 54.7552 56.1801 54.7552C54.7501 54.7552 53.3727 54.2163 52.3224 53.246C51.2747 52.2715 51.4452 52.0278 50.897 50.8543L50.8727 50.8055C50.1783 49.3193 49.2037 47.7559 47.9043 46.7448V46.6514H47.9165Z" fill="black"/>
<path fill-rule="evenodd" clip-rule="evenodd" d="M48.0664 46.8624C50.5116 45.3572 53.3266 44.5602 56.198 44.5602C59.0694 44.5602 61.8844 45.3572 64.3296 46.8624C62.9976 47.8897 61.9345 49.2245 61.2313 50.7526H51.1647C50.4601 49.2254 49.3972 47.8909 48.0664 46.8624V46.8624Z" fill="#851619"/>
<path fill-rule="evenodd" clip-rule="evenodd" d="M55.9241 49.9404C54.6369 49.1811 50.702 49.644 51.0959 50.6267C51.705 51.8896 51.4452 52.0561 52.5172 53.0631C53.5184 53.9895 54.8322 54.5041 56.1962 54.5041C57.5602 54.5041 58.8741 53.9895 59.8752 53.0631C61.0488 51.9749 60.9188 51.2033 61.7229 49.8349C59.863 49.3598 57.1342 49.2988 55.9241 49.9526V49.9404Z" fill="#EC2024"/>
<path fill-rule="evenodd" clip-rule="evenodd" d="M45.6994 27.6993C46.5636 27.6993 47.4084 27.9556 48.1269 28.4357C48.8454 28.9158 49.4055 29.5982 49.7362 30.3966C50.0669 31.195 50.1534 32.0735 49.9848 32.9211C49.8162 33.7686 49.4001 34.5472 48.789 35.1582C48.1779 35.7693 47.3994 36.1854 46.5518 36.354C45.7043 36.5226 44.8257 36.4361 44.0273 36.1054C43.229 35.7747 42.5466 35.2147 42.0664 34.4961C41.5863 33.7776 41.3301 32.9328 41.3301 32.0687C41.3295 31.4947 41.4422 30.9263 41.6616 30.3959C41.881 29.8656 42.2028 29.3837 42.6086 28.9779C43.0145 28.572 43.4964 28.2502 44.0267 28.0308C44.5571 27.8114 45.1255 27.6988 45.6994 27.6993V27.6993Z" fill="white"/>
<path fill-rule="evenodd" clip-rule="evenodd" d="M45.6989 29.4003C46.2306 29.4003 46.7503 29.558 47.1924 29.8534C47.6345 30.1488 47.9791 30.5686 48.1825 31.0598C48.386 31.551 48.4392 32.0915 48.3355 32.613C48.2318 33.1344 47.9757 33.6134 47.5998 33.9894C47.2238 34.3653 46.7448 34.6214 46.2234 34.7251C45.7019 34.8288 45.1614 34.7756 44.6702 34.5721C44.179 34.3687 43.7592 34.0241 43.4638 33.582C43.1684 33.14 43.0107 32.6202 43.0107 32.0885C43.0107 31.3756 43.294 30.6918 43.7981 30.1877C44.3022 29.6836 44.986 29.4003 45.6989 29.4003Z" fill="#33C5F3"/>
<path fill-rule="evenodd" clip-rule="evenodd" d="M45.6994 30.1646C46.0761 30.1646 46.4443 30.2763 46.7575 30.4856C47.0707 30.6948 47.3148 30.9923 47.4589 31.3403C47.6031 31.6883 47.6408 32.0712 47.5673 32.4406C47.4938 32.8101 47.3124 33.1494 47.0461 33.4157C46.7797 33.6821 46.4404 33.8635 46.071 33.937C45.7015 34.0105 45.3186 33.9727 44.9706 33.8286C44.6226 33.6844 44.3252 33.4403 44.1159 33.1272C43.9066 32.814 43.7949 32.4458 43.7949 32.0691C43.7944 31.8188 43.8433 31.5709 43.9388 31.3396C44.0343 31.1083 44.1746 30.8982 44.3515 30.7212C44.5285 30.5443 44.7387 30.404 44.97 30.3085C45.2013 30.213 45.4492 30.1641 45.6994 30.1646V30.1646Z" fill="black"/>
<path fill-rule="evenodd" clip-rule="evenodd" d="M44.6071 30.1646C44.7677 30.1646 44.9247 30.2122 45.0583 30.3015C45.1918 30.3907 45.2959 30.5175 45.3574 30.6659C45.4189 30.8143 45.4349 30.9776 45.4036 31.1352C45.3723 31.2927 45.2949 31.4374 45.1813 31.551C45.0678 31.6646 44.923 31.7419 44.7655 31.7733C44.608 31.8046 44.4447 31.7885 44.2963 31.7271C44.1479 31.6656 44.021 31.5615 43.9318 31.4279C43.8426 31.2944 43.7949 31.1374 43.7949 30.9767C43.7949 30.7613 43.8805 30.5548 44.0328 30.4025C44.1851 30.2502 44.3917 30.1646 44.6071 30.1646Z" fill="white"/>
<path fill-rule="evenodd" clip-rule="evenodd" d="M47.1033 32.947C47.2047 32.9462 47.304 32.9755 47.3887 33.0313C47.4733 33.087 47.5395 33.1666 47.5789 33.26C47.6182 33.3535 47.629 33.4565 47.6097 33.556C47.5904 33.6555 47.542 33.747 47.4706 33.819C47.3992 33.891 47.308 33.9401 47.2087 33.9602C47.1093 33.9802 47.0062 33.9704 46.9125 33.9318C46.8188 33.8932 46.7386 33.8276 46.6822 33.7433C46.6258 33.6591 46.5957 33.56 46.5957 33.4587C46.5957 33.3237 46.649 33.1941 46.7441 33.0983C46.8392 33.0025 46.9683 32.9481 47.1033 32.947V32.947Z" fill="white"/>
<path fill-rule="evenodd" clip-rule="evenodd" d="M66.6965 27.6993C67.5607 27.6993 68.4054 27.9556 69.124 28.4357C69.8425 28.9158 70.4025 29.5982 70.7332 30.3966C71.0639 31.195 71.1505 32.0735 70.9819 32.9211C70.8133 33.7686 70.3971 34.5472 69.7861 35.1582C69.175 35.7693 68.3965 36.1854 67.5489 36.354C66.7013 36.5226 65.8228 36.4361 65.0244 36.1054C64.226 35.7747 63.5436 35.2147 63.0635 34.4961C62.5834 33.7776 62.3272 32.9328 62.3272 32.0687C62.3266 31.4947 62.4393 30.9263 62.6587 30.3959C62.878 29.8656 63.1999 29.3837 63.6057 28.9779C64.0116 28.572 64.4934 28.2502 65.0238 28.0308C65.5541 27.8114 66.1226 27.6988 66.6965 27.6993V27.6993Z" fill="white"/>
<path fill-rule="evenodd" clip-rule="evenodd" d="M66.697 29.4003C67.2287 29.4003 67.7484 29.558 68.1905 29.8534C68.6326 30.1488 68.9771 30.5686 69.1806 31.0598C69.384 31.551 69.4373 32.0915 69.3335 32.613C69.2298 33.1345 68.9738 33.6134 68.5978 33.9894C68.2219 34.3653 67.7429 34.6214 67.2214 34.7251C66.7 34.8288 66.1595 34.7756 65.6683 34.5721C65.1771 34.3687 64.7572 34.0241 64.4618 33.582C64.1664 33.14 64.0088 32.6202 64.0088 32.0885C64.0083 31.7354 64.0774 31.3856 64.2123 31.0592C64.3472 30.7328 64.5452 30.4362 64.795 30.1865C65.0447 29.9368 65.3412 29.7388 65.6676 29.6039C65.994 29.469 66.3438 29.3998 66.697 29.4003Z" fill="#33C5F3"/>
<path fill-rule="evenodd" clip-rule="evenodd" d="M66.6965 30.1646C67.0731 30.1646 67.4414 30.2763 67.7545 30.4856C68.0677 30.6948 68.3118 30.9923 68.456 31.3403C68.6001 31.6883 68.6378 32.0712 68.5644 32.4406C68.4909 32.8101 68.3095 33.1494 68.0432 33.4157C67.7768 33.6821 67.4375 33.8635 67.068 33.937C66.6986 34.0104 66.3157 33.9727 65.9677 33.8286C65.6197 33.6844 65.3222 33.4403 65.113 33.1271C64.9037 32.814 64.792 32.4457 64.792 32.0691C64.792 31.564 64.9926 31.0796 65.3498 30.7224C65.707 30.3652 66.1914 30.1646 66.6965 30.1646Z" fill="black"/>
<path fill-rule="evenodd" clip-rule="evenodd" d="M65.6002 30.1646C65.7609 30.1646 65.9179 30.2122 66.0514 30.3015C66.185 30.3907 66.2891 30.5175 66.3506 30.6659C66.412 30.8143 66.4281 30.9776 66.3968 31.1352C66.3654 31.2927 66.2881 31.4374 66.1745 31.551C66.0609 31.6646 65.9162 31.7419 65.7587 31.7733C65.6011 31.8046 65.4378 31.7885 65.2894 31.7271C65.141 31.6656 65.0142 31.5615 64.925 31.4279C64.8357 31.2944 64.7881 31.1374 64.7881 30.9767C64.7881 30.7613 64.8737 30.5548 65.026 30.4025C65.1783 30.2502 65.3848 30.1646 65.6002 30.1646Z" fill="white"/>
<path fill-rule="evenodd" clip-rule="evenodd" d="M68.0859 32.947C68.1871 32.947 68.286 32.977 68.3701 33.0332C68.4543 33.0895 68.5198 33.1694 68.5586 33.2629C68.5973 33.3563 68.6074 33.4592 68.5877 33.5585C68.5679 33.6577 68.5192 33.7489 68.4477 33.8204C68.3761 33.892 68.2849 33.9407 68.1857 33.9605C68.0864 33.9802 67.9836 33.9701 67.8901 33.9314C67.7966 33.8926 67.7167 33.8271 67.6604 33.7429C67.6042 33.6588 67.5742 33.5598 67.5742 33.4586C67.5742 33.323 67.6281 33.1928 67.7241 33.0969C67.82 33.0009 67.9502 32.947 68.0859 32.947V32.947Z" fill="white"/>
<path fill-rule="evenodd" clip-rule="evenodd" d="M56.1954 48.54C55.3942 48.9588 54.5108 49.1963 53.6076 49.2356C52.7045 49.2749 51.8037 49.1151 50.9692 48.7674C48.484 47.6345 45.9339 45.462 45.8446 42.518C45.6618 36.3213 50.8108 34.3965 56.1954 34.3965C61.5799 34.3965 66.7329 36.3132 66.5461 42.518C66.4609 45.462 63.9067 47.6345 61.4134 48.7715C60.5797 49.1173 59.6803 49.2758 58.7786 49.2358C57.877 49.1958 56.9951 48.9583 56.1954 48.54V48.54Z" fill="black"/>
<path fill-rule="evenodd" clip-rule="evenodd" d="M56.1969 34.6808C49.7363 34.7093 45.9557 37.3203 46.11 42.5221C46.1872 45.121 48.3434 47.2894 51.0804 48.5442C51.9002 48.883 52.7858 49.0331 53.6715 48.9832C54.5572 48.9332 55.4203 48.6847 56.1969 48.2558C56.9734 48.6847 57.8366 48.9332 58.7223 48.9832C59.608 49.0331 60.4935 48.883 61.3134 48.5442C64.0503 47.2894 66.2106 45.121 66.2878 42.5221C66.4421 37.3203 62.6615 34.7093 56.1969 34.6808V34.6808Z" fill="white"/>
<path fill-rule="evenodd" clip-rule="evenodd" d="M56.0654 39.7852H56.3253V48.402H56.0654V39.7852Z" fill="black"/>
<path fill-rule="evenodd" clip-rule="evenodd" d="M56.1955 36.0684C54.0961 36.0684 52.3906 36.8196 52.3906 38.0988C52.3906 39.3779 54.0961 40.4337 56.1955 40.4337C58.2949 40.4337 60.0004 39.3901 60.0004 38.0988C60.0004 36.8075 58.299 36.0684 56.1955 36.0684Z" fill="#333333"/>
<path fill-rule="evenodd" clip-rule="evenodd" d="M54.2186 36.7108C53.6744 36.861 53.2846 37.1534 53.3414 37.3686C53.3983 37.5838 53.8896 37.6285 54.4297 37.4783C54.9698 37.328 55.3678 37.0356 55.3068 36.8204C55.2459 36.6052 54.7627 36.5605 54.2186 36.7108Z" fill="white"/>
<path fill-rule="evenodd" clip-rule="evenodd" d="M55.6926 47.9258C53.2859 49.0844 50.503 48.3481 47.3438 45.7167C48.3503 46.9356 49.6303 47.8998 51.0796 48.5308C51.8764 48.8606 52.7357 49.0119 53.5972 48.974C54.4587 48.9361 55.3015 48.71 56.0662 48.3115V44.0924C56.0087 45.3759 55.884 46.6554 55.6926 47.9258V47.9258Z" fill="#CECECE"/>
<path fill-rule="evenodd" clip-rule="evenodd" d="M56.6998 47.926C56.513 46.659 56.3871 45.3799 56.3262 44.1008V48.3118C57.091 48.7102 57.9337 48.9364 58.7952 48.9742C59.6567 49.0121 60.516 48.8608 61.3128 48.531C64.0497 47.2763 66.21 45.1078 66.2872 42.509C66.3112 41.8046 66.2512 41.0998 66.1085 40.4096C65.4953 37.5671 63.3472 35.7763 59.989 35.0454C58.7413 34.7879 57.4702 34.6613 56.1963 34.6677C57.5276 34.68 58.8506 34.8782 60.1271 35.2565C70.3845 38.7163 64.5695 50.7319 56.6998 47.926Z" fill="#CECECE"/>
<path fill-rule="evenodd" clip-rule="evenodd" d="M56.1517 50.4159C56.3213 50.7845 56.3992 51.1886 56.3787 51.5938C56.3581 51.999 56.2399 52.3932 56.0339 52.7427C56.6308 52.1824 56.5577 51.4555 56.306 50.3956C56.2762 50.2981 56.227 50.2075 56.1614 50.1294C56.0958 50.0512 56.0152 49.9871 55.9243 49.9408C55.5442 49.7498 55.1303 49.6353 54.7061 49.6038C55.4329 49.7297 55.9649 49.9693 56.1354 50.4159H56.1517Z" fill="#A51E22"/>
<path fill-rule="evenodd" clip-rule="evenodd" d="M37.7236 36.4063C39.735 41.78 42.1904 43.832 45.0898 42.5623C45.5811 45.2708 46.8318 46.7855 48.4033 47.8413C49.7921 48.7834 50.6246 50.4199 51.4326 52.0969C51.2783 51.768 51.1849 51.4147 50.9129 50.8381L50.8885 50.7894C50.3095 49.4782 49.5055 48.2784 48.513 47.2444C48.3587 47.1225 48.2084 46.9926 48.0663 46.8383L47.9201 46.7083C46.7425 45.5795 45.8898 44.1541 45.8451 42.4811C45.8234 41.8698 45.8615 41.2578 45.9588 40.6538C45.2874 40.9705 44.6106 41.2615 43.9284 41.5268C41.7113 42.0426 39.0799 39.7686 37.7399 36.3697L37.7236 36.4063Z" fill="#E5E5E4"/>
<path fill-rule="evenodd" clip-rule="evenodd" d="M74.6681 36.4059C72.6621 41.7796 70.2067 43.8316 67.3019 42.562C67.1679 45.1121 66.5547 46.7161 63.6472 49.4652C63.0666 50.0134 61.694 52.3077 60.7357 53.2538C57.8932 56.0963 53.8975 55.6375 51.7412 52.6082C51.9223 52.833 52.1205 53.0434 52.3341 53.2376C53.3844 54.2079 54.7618 54.7468 56.1918 54.7468C57.6217 54.7468 58.9991 54.2079 60.0495 53.2376C60.4276 52.9262 60.7361 52.5388 60.955 52.1006L60.9834 52.0478C61.1215 51.7392 61.223 51.394 61.4748 50.8296L61.4991 50.7809C62.0811 49.4713 62.8848 48.2721 63.8746 47.2359C64.029 47.114 64.1792 46.9841 64.3254 46.8298L64.4675 46.6998C65.6451 45.571 66.4979 44.1456 66.5425 42.4726C66.5642 41.8613 66.5261 41.2492 66.4288 40.6453C67.0989 40.962 67.7851 41.2544 68.4592 41.5183C70.6764 42.0341 73.3118 39.7601 74.6478 36.3612L74.6681 36.4059Z" fill="#E5E5E4"/>
<path fill-rule="evenodd" clip-rule="evenodd" d="M32.4327 42.7736C31.1869 39.3768 30.8032 35.7241 31.316 32.1426C30.9956 32.6206 30.708 33.1199 30.4552 33.6369C30.6333 30.377 31.1256 27.1419 31.9251 23.9765C30.5694 27.7903 29.6871 31.7562 29.2979 35.7851C29.4938 35.4303 29.6714 35.0657 29.8298 34.6927C29.5734 38.4867 30.3732 42.2775 32.1404 45.6445C31.93 45.0409 31.8797 44.3932 31.9942 43.7644C32.7031 45.2959 33.703 46.6751 34.9382 47.8251C36.0457 48.8551 37.2339 49.7948 38.4913 50.6351C35.35 48.2327 33.2824 44.6886 32.7373 40.7716C32.5488 41.0706 32.4245 41.4054 32.372 41.7549C32.3196 42.1043 32.3403 42.4609 32.4327 42.802V42.7736Z" fill="#CECECE"/>
<path fill-rule="evenodd" clip-rule="evenodd" d="M62.9403 46.1228C62.1557 46.7868 61.2105 47.2331 60.1992 47.4169C59.188 47.6008 58.1462 47.5158 57.1781 47.1705C57.0246 46.3157 56.9148 45.4537 56.8492 44.5878C56.8492 44.4985 56.8492 44.4092 56.8289 44.3239C56.7497 43.1913 56.7714 42.0538 56.8938 40.9251C59.3587 40.7586 61.0114 39.3779 59.9394 37.7536C59.9689 37.8705 59.9839 37.9905 59.984 38.111C59.9882 38.1732 59.9882 38.2356 59.984 38.2978C59.8338 39.4754 58.2623 40.4053 56.3294 40.4459V44.1005V44.3117V44.5756C56.3984 45.6964 56.5121 46.8131 56.6786 47.9257C57.8484 48.3772 59.1244 48.4778 60.3505 48.2153C61.5765 47.9528 62.6995 47.3385 63.5818 46.4476L63.7727 46.2527C64.524 45.4698 65.0702 44.5133 65.3628 43.4684C65.6554 42.4234 65.6853 41.3224 65.4498 40.2632C65.4173 40.1373 65.3848 40.0114 65.3442 39.8855C64.7392 38.0013 63.1108 36.2634 60.1221 35.2563C59.6754 35.1223 59.2166 35.0126 58.7577 34.9233C57.912 34.7586 57.0529 34.6729 56.1913 34.6675H55.834C56.8812 34.7528 57.9167 34.946 58.9242 35.2441C61.8114 36.1212 63.7362 37.8064 64.5483 39.8327C65.4823 42.1514 65.0478 44.2995 63.1758 45.9238L62.9524 46.1065L62.9403 46.1228Z" fill="#E5E5E4"/>
<path fill-rule="evenodd" clip-rule="evenodd" d="M55.2451 47.4829C53.2337 48.1082 51.1627 47.7225 49.0322 46.3256L48.7804 46.1591C48.2731 45.8057 47.7877 45.4219 47.3267 45.0099C46.5898 43.7377 46.2883 42.2598 46.4678 40.8006C46.6474 39.3414 47.2982 37.9806 48.3216 36.925C47.2279 37.8658 46.4957 39.1579 46.2506 40.5797C46.1298 41.2192 46.0808 41.8702 46.1044 42.5207C46.1536 43.6935 46.5809 44.8189 47.3226 45.7287C47.6394 45.9885 47.948 46.2322 48.2525 46.4555L48.488 46.6261C51.1681 48.5211 53.5626 48.9583 55.6715 47.9377C55.8393 46.825 55.9557 45.7083 56.0207 44.5876C56.0207 44.4983 56.0207 44.4089 56.0207 44.3236V44.1044V40.4497C54.0837 40.4091 52.5122 39.4792 52.366 38.3016C52.3985 39.6552 53.4245 40.5309 55.4441 40.9289C55.5327 42.0596 55.5544 43.1945 55.509 44.3277V44.5917C55.4603 45.5581 55.3642 46.5232 55.2207 47.487L55.2451 47.4829Z" fill="#E5E5E4"/>
<path fill-rule="evenodd" clip-rule="evenodd" d="M50.1293 55.2765C41.3717 51.9602 36.0223 46.9236 34.0813 40.1665C34.2625 40.6831 34.595 41.133 35.0356 41.4578C33.5989 37.1849 32.9415 32.6887 33.0945 28.1833C33.1451 28.7161 33.3577 29.2206 33.7037 29.6289C33.777 27.1511 34.1757 24.6936 34.8894 22.3196C34.9381 22.1613 34.9828 22.0029 35.0356 21.8486C35.1168 21.5968 35.198 21.3451 35.2873 21.0974C36.5003 17.6268 38.3775 14.4255 40.814 11.6724C41.0536 11.3963 41.3013 11.1283 41.5571 10.8603C41.2566 11.043 40.9642 11.2379 40.6719 11.4328C37.1085 13.8195 34.3675 17.2468 32.8225 21.2476C32.6844 21.605 32.5491 21.9704 32.4164 22.344C32.3799 22.4658 32.3392 22.5876 32.3027 22.7095C32.2215 22.9734 32.1484 23.2414 32.0753 23.5216C32.0185 23.68 31.9616 23.8343 31.9088 23.9886C31.1155 27.1506 30.6287 30.3816 30.4551 33.6369C30.7079 33.1199 30.9955 32.6206 31.3159 32.1425C30.8031 35.724 31.1868 39.3768 32.4326 42.7735C32.3402 42.4324 32.3195 42.0759 32.372 41.7264C32.4244 41.3769 32.5487 41.0421 32.7372 40.7432C33.2864 44.6543 35.3535 48.1918 38.4913 50.5904C42.0131 52.9222 45.9729 54.5125 50.1293 55.2643V55.2765Z" fill="#E5E5E4"/>
<path fill-rule="evenodd" clip-rule="evenodd" d="M79.959 42.7736C81.206 39.3771 81.5911 35.7244 81.0798 32.1426C81.4002 32.6206 81.6878 33.1199 81.9406 33.6369C81.7603 30.3772 81.2681 27.1423 80.4707 23.9765C81.8245 27.7909 82.7068 31.7565 83.0979 35.7851C82.899 35.4312 82.7201 35.0665 82.5619 34.6927C82.8198 38.4863 82.0214 42.2771 80.2554 45.6445C80.4617 45.0401 80.512 44.3934 80.4016 43.7644C79.6912 45.295 78.6915 46.6739 77.4576 47.8251C76.3479 48.8542 75.1584 49.7938 73.9004 50.6351C77.0418 48.2327 79.1093 44.6886 79.6544 40.7716C79.8429 41.0706 79.9673 41.4054 80.0197 41.7549C80.0721 42.1043 80.0515 42.4609 79.959 42.802V42.7736Z" fill="#CECECE"/>
<path fill-rule="evenodd" clip-rule="evenodd" d="M62.2627 55.2765C71.0203 51.9602 76.3697 46.9236 78.3107 40.1665C78.1311 40.6828 77.7999 41.1328 77.3605 41.4578C78.7971 37.1849 79.4546 32.6887 79.3015 28.1833C79.2492 28.7157 79.0368 29.2197 78.6924 29.6289C78.617 27.1513 78.2184 24.6941 77.5067 22.3196L77.3605 21.8486C77.2793 21.5968 77.194 21.3451 77.1087 21.0974C75.8925 17.6282 74.0157 14.4276 71.5821 11.6724C71.3384 11.3963 71.0907 11.1283 70.839 10.8603C71.1395 11.043 71.4318 11.2379 71.7201 11.4328C75.2918 13.8156 78.0403 17.2435 79.5898 21.2476C79.7238 21.605 79.8578 21.9704 79.9959 22.344C80.0365 22.4658 80.073 22.5876 80.1096 22.7095C80.1908 22.9734 80.268 23.2414 80.337 23.5216L80.5075 23.9886C81.305 27.1544 81.7972 30.3893 81.9775 33.6491C81.7247 33.132 81.4371 32.6328 81.1167 32.1547C81.628 35.7365 81.2429 39.3893 79.9959 42.7857C80.0883 42.4446 80.109 42.0881 80.0566 41.7386C80.0042 41.3891 79.8798 41.0543 79.6913 40.7553C79.134 44.6715 77.0547 48.2099 73.9048 50.6026C70.3829 52.9344 66.4231 54.5247 62.2668 55.2765H62.2627Z" fill="#E5E5E4"/>
<path fill-rule="evenodd" clip-rule="evenodd" d="M60.5733 54.6073C59.3169 55.5695 57.7784 56.0909 56.1958 56.0909C54.6133 56.0909 53.0748 55.5695 51.8184 54.6073C52.241 55.0465 52.7269 55.4201 53.2599 55.7158V55.7158H53.2965L53.3411 55.7402H53.3655H53.398L53.4508 55.7686L53.5036 55.793H53.5279L53.6376 55.8458H53.6619L53.7188 55.8701H53.7553L53.8122 55.8945H53.8406L53.9015 55.9229L53.9502 55.9432H53.9746L54.0315 55.9635H54.0558L54.1005 55.9838L54.1695 56.0042L54.2304 56.0245L54.2954 56.0448L54.3604 56.0651H54.4254L54.4903 56.0854H54.5147H54.5472H54.5797H54.6365H54.6568H54.6974H54.8192H54.8842H54.9451H54.9654H55.0182L55.1603 56.1097H55.2253H55.2497H55.3837L55.672 56.1422H56.6222H56.7603H56.8902H56.9105L57.0445 56.1219H57.0648H57.1298H57.1826L57.2963 56.1016H57.3409H57.3613H57.4181H57.4425H57.4912H57.5237H57.5562H57.613H57.6415H57.6658H57.7105H57.7633H57.7957H57.8282H57.8851H57.9135H57.9379H57.9704L58.08 56.0651L58.1409 56.0448L58.2993 55.9838H58.3358L58.3927 55.9595H58.4292L58.5104 55.9229H58.547H58.5673L58.6363 55.8905H58.6647L58.7054 55.8701L58.7541 55.8458H58.7744H58.8028H58.8312L58.8881 55.8133L59.0099 55.7483L59.0424 55.728C59.5556 55.4378 60.0235 55.0739 60.4312 54.6479L60.5733 54.6073Z" fill="#CECECE"/>
<path fill-rule="evenodd" clip-rule="evenodd" d="M59.3306 36.8801C60.6828 38.9957 55.1156 41.2332 52.3908 38.0983C52.3867 38.1605 52.3867 38.2229 52.3908 38.2851C52.5451 39.4627 54.1166 40.3926 56.0455 40.4332H56.3054C58.3357 40.3885 59.9803 39.3612 59.9803 38.0983C59.9802 37.9778 59.9652 37.8578 59.9357 37.7409C59.8305 37.3883 59.6103 37.081 59.3103 36.8679L59.3306 36.8801Z" fill="black"/>
</g>
</svg>
