<svg width="147" height="222" viewBox="0 0 147 222" fill="none" xmlns="http://www.w3.org/2000/svg">
<path d="M45.3124 216.546C43.728 213.563 48.4162 210.97 53.8087 208.739L67.0083 205.827C84.407 204.996 120.148 203.501 123.921 204.166C128.637 204.996 133.668 208.942 131.467 213.095C129.706 216.418 120.189 218.061 108.828 219.741C87.7609 222.856 76.9193 221.843 71.1416 221.843C67.054 221.012 50.6176 221.156 45.3124 216.546Z" fill="#DDEEE8"/>
<g clip-path="url(#clip0_457:3)">
<path d="M91.2923 184.669H90.0117V199.323H91.2923V184.669Z" fill="#602D91"/>
<path d="M116.528 93.1819L56.3447 173.882L57.3672 174.661L117.551 93.9616L116.528 93.1819Z" fill="#602D91"/>
<path d="M131.622 144.779C137.549 119.547 122.126 94.2329 97.1735 88.2392C72.2208 82.2455 47.1877 97.8417 41.2605 123.074C35.3333 148.307 50.7565 173.621 75.7092 179.614C100.662 185.608 125.695 170.012 131.622 144.779Z" fill="#1794FF"/>
<path d="M131.622 144.779C137.549 119.547 122.126 94.2329 97.1735 88.2392C72.2208 82.2455 47.1877 97.8417 41.2605 123.074C35.3333 148.307 50.7565 173.621 75.7092 179.614C100.662 185.608 125.695 170.012 131.622 144.779Z" fill="#1794FF"/>
<path d="M86.4391 87C82.058 87 77.8791 87.6134 73.8351 88.7721C69.3866 92.7252 63.8597 98.1778 65.3425 99.6772C67.7689 102.131 85.5629 100.495 86.3043 105.062C87.0457 109.628 88.0567 116.239 90.4157 118.625C92.7748 121.01 107.401 119.102 107.401 122.101C107.401 125.1 110.366 129.053 114.141 132.87C117.915 136.686 122.903 123.464 127.756 126.258C129.104 127.076 130.789 127.417 132.407 127.485C129.306 104.585 109.895 87 86.4391 87Z" fill="#FFB40B"/>
<path d="M121.151 109.219C123.78 110.514 126.139 111.877 127.959 113.104C120.41 97.6325 104.638 87 86.4396 87C86.2374 87 86.1026 87 85.9004 87C88.1246 89.59 91.5621 92.657 95.9432 93.952C104.031 96.3375 103.492 96.3375 107.469 100.359C111.513 104.448 114.681 105.948 121.151 109.219Z" fill="#91BE4A"/>
<path d="M66.0166 101.381C66.0166 101.381 63.3205 98.5185 59.2765 102.608C55.2324 106.697 46.7398 108.06 52.2667 110.582C57.7936 113.104 68.6452 102.335 66.0166 101.381Z" fill="#F9A01B"/>
<path d="M69.252 107.038C69.252 107.038 54.8281 110.65 54.8281 115.762C54.8281 120.874 60.4898 121.078 60.4898 125.986C60.4898 130.893 55.5695 138.05 58.4678 146.024C61.366 153.998 62.2423 161.768 66.4211 161.768C70.6674 161.768 74.6441 152.363 78.2837 142.616C81.9908 132.87 84.9564 137.163 86.4393 130.893C87.9221 124.623 86.2371 113.99 77.7445 110.514C69.252 107.038 69.252 107.038 69.252 107.038Z" fill="#F9A01B"/>
<path d="M98.9082 102.608C98.9082 102.608 99.043 115.081 101.537 112.627C104.031 110.105 100.593 107.515 103.02 105.13C105.379 102.608 101.874 99.609 98.9082 102.608Z" fill="#1794FF"/>
<path d="M86.4396 98.1095C86.4396 98.1095 92.0339 99.2682 93.1123 98.1095C94.2581 96.9509 95.6062 97.1553 94.7299 94.4972C93.8537 91.8391 96.078 93.0659 90.7533 93.952C85.3612 94.838 86.4396 98.1095 86.4396 98.1095Z" fill="#1794FF"/>
<path d="M84.9563 140.912C84.9563 140.912 80.373 149.704 80.373 152.294C80.373 154.884 82.8669 152.976 86.3717 149.5C89.7418 146.024 86.4391 139.413 84.9563 140.912Z" fill="#F9A01B"/>
<path opacity="0.44" d="M115.826 97.6324C118.994 103.971 120.746 111.128 120.746 118.693C120.746 144.593 99.9867 165.653 74.3068 165.653C63.1183 165.653 52.8733 161.632 44.8525 155.021C52.4689 170.356 68.1733 180.852 86.3042 180.852C111.917 180.852 132.744 159.86 132.744 133.892C132.811 119.306 126.206 106.22 115.826 97.6324Z" fill="#A967AA"/>
<path opacity="0.53" d="M126.813 157.134C126.88 157.065 126.948 156.929 126.948 156.861C127.015 156.725 127.15 156.52 127.217 156.384C131.8 147.66 132.946 137.504 130.452 127.485C130.385 126.735 130.318 125.986 130.25 125.236C128.902 113.24 123.106 102.881 113.939 95.9967C104.705 89.2491 93.1795 86.7273 81.5191 89.0446C79.1601 89.5217 76.8685 90.1351 74.6442 90.953C74.1724 91.0212 73.768 91.0893 73.2962 91.2257C61.7032 93.543 52.1996 100.222 46.4705 109.969C46.4031 110.105 46.3357 110.241 46.2683 110.378C46.2683 110.446 46.2009 110.446 46.2009 110.514C46.1335 110.582 46.0661 110.719 46.0661 110.787C45.9987 110.855 45.9313 110.991 45.9313 111.059C45.8639 111.196 45.7291 111.4 45.6617 111.536C41.011 120.192 39.8652 130.348 42.4265 140.367C42.4939 141.117 42.5613 141.866 42.6287 142.548C43.9767 154.544 49.7732 164.903 58.9398 171.787C65.8821 176.967 74.1724 179.693 82.8672 179.693C85.698 179.693 88.5289 179.421 91.3597 178.876C93.7187 178.398 96.0104 177.785 98.2346 176.967C98.7064 176.899 99.1108 176.831 99.5826 176.695C111.176 174.377 120.679 167.698 126.408 157.951C126.476 157.815 126.543 157.679 126.611 157.542C126.611 157.474 126.678 157.474 126.678 157.406C126.745 157.338 126.745 157.27 126.813 157.134ZM42.6287 133.415C43.1005 135.8 43.7745 138.254 44.6507 140.64C45.2573 142.207 45.9313 143.775 46.7401 145.274C46.7401 145.41 46.7401 145.547 46.7401 145.683C46.8075 148 47.0097 150.181 47.4142 152.294C45.2573 148.478 43.6397 144.456 42.5613 140.367C42.3591 138.05 42.4265 135.8 42.6287 133.415ZM130.25 134.505C129.778 132.052 129.104 129.598 128.228 127.213C127.622 125.645 126.948 124.077 126.139 122.578C126.139 122.442 126.139 122.305 126.139 122.169C126.071 119.852 125.869 117.671 125.465 115.558C127.689 119.375 129.307 123.464 130.318 127.622C130.52 129.939 130.452 132.256 130.25 134.505ZM47.4142 137.232C48.3578 139.004 49.4362 140.844 50.582 142.548C50.245 144.388 50.0428 146.228 49.908 148.069C49.8406 148.887 49.8406 149.636 49.8406 150.386C48.6948 148.75 47.6838 146.978 46.8075 145.206C46.8075 142.616 47.0097 139.89 47.4142 137.232ZM125.397 130.62C124.454 128.848 123.375 127.008 122.229 125.304C122.566 123.464 122.769 121.624 122.903 119.783C122.971 119.034 122.971 118.216 122.971 117.466C124.117 119.17 125.128 120.874 126.004 122.578C126.071 125.304 125.869 127.962 125.397 130.62ZM52.941 154.612C54.1543 156.043 55.4349 157.474 56.8503 158.837C56.5133 160.541 56.3111 162.109 56.2437 163.54C55.1653 162.518 54.0869 161.427 53.1433 160.269C52.8736 158.497 52.8062 156.656 52.941 154.612ZM119.938 113.24C118.725 111.809 117.444 110.378 116.029 109.015C116.366 107.311 116.568 105.743 116.635 104.312C117.714 105.334 118.792 106.425 119.736 107.583C120.005 109.355 120.073 111.264 119.938 113.24ZM125.128 152.431C123.982 150.863 122.297 149.023 120.14 146.978C120.747 145.751 121.353 144.524 121.892 143.229C123.914 145.683 125.33 148 126.274 150.113C125.869 150.863 125.532 151.613 125.128 152.431ZM126.274 150.25C127.352 152.771 127.554 154.952 126.88 156.725C127.015 155.702 126.408 154.271 125.195 152.499C125.599 151.749 125.937 150.999 126.274 150.25ZM120.073 146.91C119.399 146.297 118.725 145.683 117.983 145.07C117.309 144.456 116.635 143.911 115.894 143.298C116.635 141.866 117.377 140.435 117.983 138.936C118.725 139.685 119.466 140.435 120.14 141.253C120.747 141.934 121.286 142.548 121.758 143.161C121.286 144.388 120.679 145.615 120.073 146.91ZM115.018 155.157C114.613 155.634 114.276 156.179 113.872 156.656C113.198 156.452 112.456 156.179 111.782 155.975C110.704 155.566 109.558 155.157 108.412 154.68C109.154 153.726 109.895 152.84 110.569 151.817C110.771 151.476 111.041 151.204 111.243 150.863C112.187 151.34 113.063 151.817 113.939 152.226C114.681 152.635 115.489 152.976 116.298 153.385C115.826 153.998 115.422 154.612 115.018 155.157ZM120.005 160.746C120.275 160.337 120.612 159.996 120.881 159.587C121.084 159.246 121.353 158.974 121.555 158.633C122.162 158.701 122.701 158.701 123.173 158.701C124.521 158.701 125.465 158.497 126.139 158.02C124.925 159.519 122.836 160.405 120.005 160.746ZM120.814 159.519C120.477 159.928 120.207 160.337 119.87 160.746C117.444 161.018 114.411 160.814 111.108 160.201C112.052 159.11 112.995 158.02 113.939 156.861C116.972 157.815 119.466 158.428 121.488 158.633C121.218 158.906 121.016 159.178 120.814 159.519ZM110.973 160.132C109.086 159.792 107.064 159.315 104.907 158.701C106.053 157.474 107.199 156.111 108.277 154.816C109.423 155.293 110.569 155.702 111.715 156.111C112.456 156.384 113.13 156.588 113.804 156.793C112.861 157.951 111.917 159.042 110.973 160.132ZM47.6838 115.49C48.8296 117.057 50.5146 118.897 52.6714 120.942C52.0648 122.169 51.4582 123.396 50.919 124.691C48.9644 122.237 47.4816 119.92 46.6053 117.807C46.9423 116.989 47.3468 116.239 47.6838 115.49ZM46.5379 117.602C45.4595 115.081 45.2573 112.9 45.9313 111.128C45.7965 112.15 46.4031 113.581 47.6164 115.353C47.2793 116.103 46.8749 116.853 46.5379 117.602ZM52.8062 121.01C53.4803 121.624 54.1543 122.237 54.8957 122.851C55.5697 123.464 56.2437 124.009 56.9851 124.623C56.1763 126.054 55.5023 127.485 54.8283 128.985C53.4129 127.553 52.1322 126.122 51.0538 124.759C51.593 123.464 52.1322 122.237 52.8062 121.01ZM51.9974 108.401C52.3344 107.992 52.604 107.583 52.941 107.106C53.6151 107.038 54.2891 107.038 55.0305 107.038C56.9851 107.038 59.2094 107.243 61.7032 107.72C60.7596 108.81 59.816 109.901 58.8724 111.059C55.8393 110.105 53.3455 109.492 51.3234 109.287C51.593 109.015 51.7952 108.674 51.9974 108.401ZM51.256 109.287C49.0992 109.015 47.549 109.219 46.6727 109.901C47.886 108.401 49.9754 107.515 52.8062 107.174C52.5366 107.583 52.1996 107.992 51.93 108.333C51.7278 108.606 51.4582 108.946 51.256 109.287ZM61.9054 107.72C62.3772 107.788 62.849 107.924 63.3882 107.992C64.8711 108.333 66.4213 108.674 67.9715 109.151C66.8257 110.378 65.6799 111.741 64.6014 113.036C63.4556 112.559 62.3098 112.15 61.164 111.741C60.4226 111.468 59.7486 111.264 59.0746 111.059C59.9508 109.969 60.8944 108.81 61.9054 107.72ZM74.779 154.339C73.2962 153.453 71.8134 152.567 70.3979 151.613C71.8134 149.5 73.3636 147.251 74.9812 144.865C76.2618 145.683 77.5425 146.433 78.8905 147.251C79.2275 147.455 79.5645 147.66 79.9689 147.864C78.1491 150.113 76.4641 152.294 74.779 154.339ZM98.0998 113.513C99.5826 114.399 101.065 115.285 102.481 116.239C101.065 118.42 99.5153 120.601 97.8976 122.987C96.617 122.169 95.3364 121.419 93.9884 120.601C93.6513 120.397 93.3143 120.192 92.9099 119.988C94.7298 117.739 96.4148 115.558 98.0998 113.513C98.0324 113.513 98.0324 113.513 98.0998 113.513ZM82.0583 141.662C80.9125 140.98 79.7667 140.299 78.6209 139.617C79.7667 137.981 80.9125 136.346 82.1257 134.71C83.0694 135.255 84.0804 135.869 85.024 136.414C85.8328 136.891 86.6416 137.368 87.383 137.777C86.1698 139.413 84.9566 141.048 83.7434 142.684C83.2042 142.343 82.5976 142.003 82.0583 141.662ZM83.7434 142.752C82.4628 144.456 81.1821 146.16 79.9689 147.796C79.6319 147.592 79.2949 147.387 78.8905 147.183C77.5425 146.433 76.2618 145.615 74.9812 144.797C76.127 143.161 77.3403 141.457 78.5535 139.685C79.6993 140.367 80.8451 141.048 81.9909 141.73C82.5302 142.071 83.1368 142.412 83.7434 142.752ZM73.9702 124.691C74.105 124.486 74.3072 124.214 74.442 124.009C76.5989 125.168 78.7557 126.463 81.1147 127.758C80.7777 128.235 80.4407 128.712 80.0363 129.189C79.3623 130.143 78.6209 131.098 77.9469 132.052C75.6552 130.689 73.4984 129.394 71.4764 128.167C72.2852 127.008 73.094 125.849 73.9702 124.691ZM71.409 128.099C68.8477 126.531 66.4887 125.032 64.2644 123.668C65.0733 122.373 65.9495 121.147 66.8931 119.852C69.2521 121.078 71.746 122.442 74.3746 123.941C74.2398 124.146 74.0376 124.35 73.9028 124.623C73.0266 125.781 72.2178 126.94 71.409 128.099ZM80.1037 129.257C80.4407 128.78 80.8451 128.303 81.1821 127.826C82.5302 128.576 83.8782 129.394 85.2936 130.211C84.8218 130.825 84.35 131.506 83.8782 132.12C83.2716 132.938 82.665 133.756 82.1257 134.574C80.7777 133.756 79.4297 132.938 78.0817 132.188C78.7557 131.166 79.4297 130.211 80.1037 129.257ZM90.8205 126.258C91.9663 126.94 93.1121 127.622 94.258 128.303C93.1121 129.939 91.9663 131.575 90.7531 133.21C89.8095 132.665 88.7985 132.052 87.8548 131.506C87.046 131.029 86.3046 130.552 85.4958 130.143C86.709 128.508 87.9222 126.872 89.1355 125.236C89.6073 125.577 90.2139 125.918 90.8205 126.258ZM89.1355 125.168C90.4161 123.464 91.6967 121.76 92.9099 120.124C93.2469 120.329 93.5839 120.533 93.9884 120.738C95.3364 121.487 96.617 122.305 97.8976 123.123C96.7518 124.759 95.5386 126.531 94.3254 128.235C93.1795 127.553 92.0337 126.872 90.8879 126.19C90.2813 125.849 89.6747 125.509 89.1355 125.168ZM94.3254 128.303C95.6734 129.121 96.954 129.939 98.2346 130.757C97.1562 132.393 96.0104 134.028 94.8646 135.664C93.5165 134.846 92.1685 134.096 90.8205 133.279C91.9663 131.575 93.1795 129.939 94.3254 128.303ZM90.6183 133.279C90.0117 134.096 89.4051 134.914 88.8659 135.732C88.3941 136.346 87.9222 137.027 87.4504 137.641C86.6416 137.164 85.8328 136.686 85.0914 136.277C84.0804 135.732 83.1368 135.119 82.1931 134.574C82.7998 133.756 83.4064 132.938 83.9456 132.12C84.4174 131.506 84.8892 130.825 85.361 130.211C86.1698 130.689 86.9112 131.098 87.72 131.575C88.7311 132.188 89.6747 132.733 90.6183 133.279ZM85.361 130.075C84.013 129.257 82.5976 128.508 81.2495 127.69C82.4628 126.054 83.676 124.418 84.8892 122.851C86.2372 123.6 87.5852 124.35 88.9333 125.1C87.7874 126.804 86.5742 128.439 85.361 130.075ZM82.0583 134.642C80.8451 136.277 79.6993 137.981 78.5535 139.549C77.2055 138.731 75.9248 137.913 74.6442 137.095C75.7226 135.46 76.8685 133.824 78.0143 132.188C79.3623 133.006 80.7103 133.824 82.0583 134.642ZM87.5178 137.777C88.8659 138.595 90.2813 139.345 91.6293 140.162C90.4161 141.798 89.2029 143.434 87.9896 145.002C86.6416 144.252 85.2936 143.502 83.9456 142.752C85.0914 141.117 86.3046 139.481 87.5178 137.777ZM87.5852 137.709C88.057 137.095 88.5289 136.414 89.0007 135.8C89.6073 134.982 90.2139 134.165 90.7531 133.347C92.1011 134.165 93.4491 134.982 94.7972 135.732C94.1232 136.686 93.4491 137.641 92.7077 138.595C92.3707 139.072 91.9663 139.549 91.6293 140.026C90.2813 139.276 88.9333 138.527 87.5852 137.709ZM92.7751 138.663C93.4491 137.709 94.1906 136.755 94.8646 135.8C97.0888 137.095 99.2456 138.458 101.335 139.685C100.526 140.844 99.7175 142.003 98.9086 143.161C98.7738 143.366 98.5716 143.638 98.4368 143.843C96.28 142.616 94.0558 141.389 91.7641 140.094C92.1011 139.617 92.4381 139.14 92.7751 138.663ZM98.976 143.298C99.8523 142.139 100.661 140.98 101.402 139.822C103.896 141.321 106.255 142.821 108.547 144.252C107.738 145.547 106.862 146.774 105.918 148.069C103.559 146.774 101.065 145.41 98.4368 143.979C98.639 143.707 98.8412 143.502 98.976 143.298ZM101.47 139.685C102.548 138.118 103.559 136.55 104.57 134.914C106.929 136.55 109.154 138.118 111.243 139.685C110.434 141.185 109.558 142.616 108.614 144.047C106.39 142.684 103.964 141.185 101.47 139.685ZM101.402 139.617C99.313 138.322 97.1562 137.027 94.932 135.732C96.0778 134.096 97.2236 132.461 98.302 130.825C100.459 132.188 102.481 133.551 104.503 134.914C103.492 136.482 102.481 138.05 101.402 139.617ZM98.3694 130.757C99.5152 129.053 100.661 127.349 101.739 125.645C103.762 127.008 105.649 128.371 107.536 129.803C106.592 131.438 105.581 133.142 104.57 134.846C102.548 133.415 100.526 132.052 98.3694 130.757ZM98.302 130.689C97.0214 129.871 95.7408 129.053 94.3928 128.235C95.606 126.531 96.8192 124.827 97.965 123.123C99.2456 123.941 100.459 124.691 101.672 125.509C100.594 127.213 99.4478 128.917 98.302 130.689ZM98.0324 123.055C99.6501 120.738 101.133 118.488 102.616 116.376C103.762 117.125 104.84 117.875 105.918 118.693C104.638 120.874 103.222 123.191 101.739 125.509C100.526 124.623 99.2456 123.873 98.0324 123.055ZM92.8425 119.988C91.4945 119.238 90.2139 118.488 88.8659 117.807C90.6857 115.558 92.5055 113.445 94.258 111.468C95.4712 112.082 96.6844 112.763 97.8976 113.445C96.28 115.49 94.595 117.671 92.8425 119.988ZM92.7751 120.056C91.5619 121.692 90.2813 123.396 89.0007 125.1C87.6526 124.35 86.3046 123.532 84.9566 122.851C86.2372 121.147 87.5852 119.511 88.8659 117.943C90.1465 118.557 91.4945 119.306 92.7751 120.056ZM84.8892 122.782C82.5976 121.556 80.3733 120.329 78.1491 119.238C79.4297 117.602 80.7777 116.035 82.1257 114.535C84.35 115.558 86.5742 116.648 88.7985 117.875C87.4504 119.443 86.1698 121.078 84.8892 122.782ZM84.8218 122.851C83.6086 124.418 82.3954 126.054 81.1821 127.69C78.9579 126.395 76.7337 125.168 74.5094 123.941C75.6552 122.373 76.8685 120.806 78.0817 119.306C80.2385 120.397 82.4628 121.624 84.8218 122.851ZM74.442 123.873C71.8808 122.442 69.3869 121.078 66.9605 119.783C67.0279 119.715 67.0279 119.647 67.0953 119.579C68.1063 118.216 69.1173 116.853 70.1957 115.558C72.6896 116.648 75.2508 117.875 77.9469 119.238C76.7337 120.738 75.5878 122.305 74.442 123.873ZM67.0279 119.511C66.9605 119.579 66.9605 119.647 66.8931 119.715C65.1407 118.761 63.3882 117.875 61.7706 116.989C61.9728 116.648 62.175 116.376 62.4446 116.035C63.186 115.081 63.9274 114.126 64.6688 113.172C66.4213 113.854 68.2411 114.604 70.1283 115.49C69.0499 116.853 67.9715 118.148 67.0279 119.511ZM66.8257 119.852C65.9495 121.078 65.0733 122.373 64.2644 123.668C62.5794 122.578 60.9618 121.556 59.479 120.601C60.2204 119.443 60.9618 118.284 61.7032 117.193C63.2534 117.943 65.0059 118.829 66.8257 119.852ZM64.1296 123.737C63.186 125.168 62.3098 126.667 61.501 128.099C59.9508 126.94 58.4679 125.713 57.0525 124.623C57.7939 123.259 58.5353 121.964 59.3442 120.67C60.8944 121.624 62.4446 122.646 64.1296 123.737ZM64.2644 123.737C66.4887 125.168 68.9151 126.667 71.409 128.167C70.3305 129.734 69.3195 131.37 68.3085 132.938C65.9495 131.302 63.7252 129.734 61.6358 128.167C62.4446 126.667 63.3208 125.236 64.2644 123.737ZM71.409 128.235C73.4984 129.53 75.6552 130.825 77.8795 132.12C76.7337 133.756 75.5878 135.391 74.5094 137.027C72.3526 135.664 70.3305 134.301 68.3085 132.938C69.3195 131.438 70.3305 129.803 71.409 128.235ZM74.442 137.163C73.2962 138.867 72.1504 140.571 71.072 142.275C69.0499 140.912 67.0953 139.549 65.2755 138.118C66.2191 136.482 67.2301 134.778 68.2411 133.074C70.2631 134.437 72.3526 135.8 74.442 137.163ZM74.5768 137.232C75.8574 138.05 77.1381 138.867 78.4861 139.685C77.2729 141.389 76.0596 143.093 74.9138 144.797C73.6332 143.979 72.42 143.229 71.2068 142.412C72.2852 140.64 73.3636 138.936 74.5768 137.232ZM74.8464 144.865C73.2288 147.183 71.746 149.432 70.2631 151.545C69.1173 150.795 68.0389 150.045 66.9605 149.227C68.2411 147.046 69.6565 144.729 71.1394 142.412C72.3526 143.229 73.5658 144.047 74.8464 144.865ZM79.9689 147.932C81.3169 148.682 82.5976 149.432 83.9456 150.113C82.1257 152.363 80.3059 154.475 78.5535 156.452C77.3403 155.839 76.127 155.157 74.9138 154.475C76.5315 152.363 78.2165 150.181 79.9689 147.932ZM80.0363 147.796C81.2495 146.16 82.5302 144.456 83.8108 142.752C85.1588 143.502 86.5068 144.32 87.8548 145.002C86.5742 146.705 85.2262 148.341 83.9456 149.909C82.665 149.295 81.3843 148.546 80.0363 147.796ZM87.9896 145.138C90.2813 146.365 92.5055 147.592 94.7298 148.682C93.4491 150.318 92.1011 151.885 90.7531 153.385C88.5289 152.363 86.3046 151.272 84.0804 150.113C85.361 148.478 86.709 146.842 87.9896 145.138ZM88.0571 145.002C89.2703 143.434 90.4835 141.798 91.6967 140.162C93.9883 141.457 96.2126 142.684 98.3694 143.911C97.2236 145.479 96.0104 147.046 94.8646 148.546C92.5729 147.455 90.3487 146.297 88.0571 145.002ZM98.4368 144.047C100.998 145.479 103.492 146.842 105.918 148.137C105.851 148.205 105.851 148.273 105.784 148.341C104.773 149.704 103.762 151.068 102.683 152.363C100.189 151.272 97.5606 150.045 94.932 148.682C96.0778 147.114 97.291 145.615 98.4368 144.047ZM105.851 148.341C105.918 148.273 105.918 148.205 105.986 148.137C107.738 149.091 109.491 149.977 111.108 150.863C110.906 151.204 110.704 151.476 110.434 151.817C109.693 152.771 108.951 153.726 108.21 154.68C106.458 153.998 104.638 153.249 102.751 152.363C103.829 151.068 104.84 149.704 105.851 148.341ZM106.053 148.069C106.929 146.842 107.806 145.547 108.682 144.252C110.367 145.342 111.984 146.365 113.467 147.319C112.726 148.478 111.984 149.636 111.176 150.727C109.558 149.909 107.806 149.023 106.053 148.069ZM108.682 144.184C109.625 142.752 110.502 141.253 111.31 139.822C112.861 140.98 114.344 142.139 115.759 143.298C115.018 144.661 114.276 145.956 113.467 147.251C111.984 146.297 110.367 145.206 108.682 144.184ZM111.378 139.685C112.254 138.118 113.063 136.55 113.872 134.982C115.287 136.277 116.703 137.572 117.916 138.867C117.242 140.299 116.568 141.798 115.826 143.229C114.411 142.071 112.995 140.844 111.378 139.685ZM111.31 139.617C109.221 138.05 106.997 136.414 104.638 134.846C105.649 133.142 106.66 131.506 107.603 129.803C109.828 131.506 111.85 133.21 113.804 134.914C113.063 136.482 112.187 138.05 111.31 139.617ZM107.671 129.734C108.951 127.417 110.165 125.1 111.176 122.851C113.13 124.554 115.018 126.327 116.703 128.099C115.894 130.348 114.95 132.597 113.872 134.778C111.917 133.074 109.828 131.37 107.671 129.734ZM107.603 129.666C105.784 128.235 103.829 126.872 101.807 125.509C103.29 123.191 104.705 120.874 105.986 118.693C107.806 119.988 109.491 121.351 111.108 122.782C110.03 125.032 108.884 127.349 107.603 129.666ZM105.986 118.625C107.266 116.376 108.48 114.263 109.558 112.218C111.108 113.377 112.524 114.672 113.939 115.967C113.13 118.148 112.254 120.397 111.176 122.714C109.491 121.283 107.806 119.92 105.986 118.625ZM105.918 118.557C104.84 117.807 103.762 116.989 102.616 116.239C104.099 114.058 105.447 112.014 106.66 110.037C107.603 110.719 108.547 111.4 109.423 112.082C108.412 114.126 107.199 116.307 105.918 118.557ZM102.548 116.171C101.133 115.217 99.6501 114.331 98.1672 113.445C98.1672 113.445 98.1672 113.445 98.0998 113.445C99.7849 111.332 101.335 109.355 102.818 107.583C104.099 108.401 105.379 109.219 106.592 110.037C105.379 111.945 103.964 113.99 102.548 116.171ZM97.965 113.377C96.7518 112.695 95.5386 112.014 94.3254 111.4C96.1452 109.355 97.8976 107.447 99.5826 105.743C100.324 106.152 101.065 106.561 101.807 106.97C102.076 107.174 102.413 107.311 102.683 107.515C101.2 109.287 99.6501 111.264 97.965 113.377ZM94.258 111.332C92.1685 110.241 90.0791 109.219 87.9896 108.333C90.0117 106.357 92.0337 104.584 93.9884 103.017C95.8756 103.835 97.6954 104.721 99.5153 105.675C97.8302 107.379 96.0778 109.287 94.258 111.332ZM94.1906 111.4C92.4381 113.377 90.6183 115.49 88.7985 117.739C86.5742 116.58 84.35 115.421 82.1257 114.399C84.013 112.218 85.9676 110.241 87.8548 108.333C90.0117 109.287 92.1011 110.31 94.1906 111.4ZM82.0583 114.399C79.3623 113.172 76.6663 112.082 74.105 111.128C75.9922 109.083 77.9469 107.243 79.9015 105.539C82.5302 106.357 85.1588 107.311 87.7874 108.401C85.9002 110.241 83.9456 112.218 82.0583 114.399ZM81.9909 114.467C80.6429 115.967 79.3623 117.534 78.0143 119.17C75.3182 117.807 72.757 116.58 70.2631 115.49C71.4764 113.99 72.757 112.559 74.0376 111.196C76.5989 112.15 79.2949 113.24 81.9909 114.467ZM70.1283 115.421C68.2411 114.604 66.4213 113.786 64.6688 113.104C65.7473 111.741 66.8931 110.446 68.0389 109.151C69.9261 109.696 71.8808 110.31 73.9028 111.059C72.6222 112.491 71.3416 113.922 70.1283 115.421ZM64.4666 113.172C63.7252 114.126 62.9838 115.012 62.3098 116.035C62.1076 116.376 61.838 116.648 61.6358 116.989C59.8834 116.035 58.1983 115.217 56.6481 114.467C57.0525 113.922 57.4569 113.309 57.8613 112.763C58.2657 112.218 58.6027 111.741 59.0072 111.264C60.6922 111.741 62.512 112.423 64.4666 113.172ZM61.5684 117.057C60.7596 118.148 60.0182 119.306 59.3442 120.465C57.6591 119.375 56.1089 118.352 54.7609 117.398C55.3675 116.444 55.9741 115.49 56.5807 114.535C58.1309 115.285 59.7486 116.103 61.5684 117.057ZM59.2768 120.601C58.4679 121.896 57.7265 123.259 56.9851 124.554C55.4349 123.259 54.0869 122.101 52.8062 120.942C53.4129 119.783 54.0195 118.693 54.6935 117.534C56.1089 118.488 57.5917 119.511 59.2768 120.601ZM57.0525 124.691C58.4005 125.849 59.8834 127.008 61.501 128.167C60.6248 129.734 59.816 131.302 59.0072 132.87C57.5243 131.575 56.1763 130.28 54.9631 128.985C55.5697 127.622 56.2437 126.122 57.0525 124.691ZM61.501 128.235C63.5904 129.803 65.8147 131.438 68.1737 133.006C67.1627 134.71 66.1517 136.346 65.2081 138.05C62.9838 136.346 60.8944 134.642 59.0072 132.938C59.816 131.37 60.6248 129.803 61.501 128.235ZM65.2081 138.186C63.9274 140.503 62.7142 142.821 61.7032 145.07C59.7486 143.366 57.8613 141.594 56.1763 139.822C56.9851 137.572 57.9287 135.391 59.0072 133.142C60.8944 134.778 62.9838 136.482 65.2081 138.186ZM65.2755 138.254C67.0953 139.685 69.0499 141.048 71.072 142.412C69.5891 144.729 68.1737 147.046 66.8931 149.227C65.0733 147.932 63.3882 146.569 61.7706 145.138C62.7816 142.889 63.9948 140.571 65.2755 138.254ZM66.8257 149.295C65.5451 151.545 64.3318 153.658 63.2534 155.702C61.7032 154.544 60.2878 153.249 58.8724 151.954C59.6812 149.773 60.5574 147.523 61.6358 145.206C63.3208 146.637 65.0059 148 66.8257 149.295ZM66.8931 149.364C67.9715 150.113 69.0499 150.931 70.1957 151.681C68.7129 153.862 67.3649 155.907 66.1517 157.883C65.2081 157.202 64.2644 156.52 63.3882 155.839C64.3992 153.726 65.6125 151.613 66.8931 149.364ZM70.3305 151.681C71.746 152.635 73.2288 153.521 74.7116 154.407C74.7116 154.407 74.7116 154.407 74.779 154.407C73.1614 156.52 71.5438 158.497 70.0609 160.269C68.7803 159.451 67.4997 158.633 66.2865 157.815C67.4997 155.975 68.8477 153.862 70.3305 151.681ZM74.8464 154.544C76.0596 155.225 77.2729 155.907 78.4861 156.52C76.6663 158.565 74.9138 160.473 73.2288 162.177C72.4874 161.768 71.746 161.359 71.0046 160.95C70.735 160.746 70.3979 160.61 70.1283 160.405C71.6112 158.565 73.2288 156.588 74.8464 154.544ZM78.5535 156.588C80.6429 157.679 82.7324 158.701 84.8218 159.587C82.7998 161.564 80.7777 163.336 78.8231 164.903C76.9359 164.086 75.116 163.199 73.2962 162.245C75.0486 160.541 76.8011 158.633 78.5535 156.588ZM78.6209 156.452C80.3733 154.475 82.1932 152.363 84.013 150.113C86.2372 151.272 88.4615 152.431 90.6857 153.453C88.7985 155.566 86.8438 157.611 84.9566 159.451C82.8672 158.565 80.7777 157.611 78.6209 156.452ZM90.8205 153.453C93.5165 154.68 96.2126 155.77 98.7738 156.725C96.8866 158.769 94.932 160.61 92.9773 162.313C90.4161 161.564 87.72 160.541 85.0914 159.451C86.9786 157.611 88.8659 155.634 90.8205 153.453ZM90.8879 153.385C92.2359 151.885 93.5165 150.318 94.8646 148.682C97.5606 150.045 100.122 151.272 102.616 152.363C101.402 153.862 100.122 155.293 98.8412 156.656C96.28 155.77 93.5839 154.612 90.8879 153.385ZM102.683 152.431C104.57 153.249 106.39 154.066 108.143 154.748C107.064 156.111 105.918 157.406 104.773 158.701C102.885 158.156 100.931 157.542 98.9086 156.793C100.189 155.361 101.47 153.93 102.683 152.431ZM113.939 152.158C113.063 151.749 112.187 151.272 111.31 150.795C112.119 149.636 112.861 148.546 113.602 147.387C114.411 147.864 115.152 148.409 115.894 148.887C116.703 149.432 117.511 149.977 118.185 150.454C117.579 151.408 116.972 152.431 116.366 153.385C115.557 152.976 114.748 152.635 113.939 152.158ZM115.826 148.818C115.085 148.341 114.344 147.864 113.535 147.319C114.344 146.024 115.085 144.661 115.826 143.366C116.568 143.979 117.242 144.524 117.916 145.138C118.657 145.751 119.331 146.433 120.005 146.978C119.399 148.137 118.792 149.227 118.118 150.386C117.377 149.841 116.568 149.295 115.826 148.818ZM120.207 141.117C119.533 140.367 118.792 139.549 118.051 138.799C118.994 136.686 119.803 134.574 120.477 132.461C121.758 134.096 122.903 135.732 123.847 137.368C123.308 139.276 122.634 141.117 121.825 142.957C121.353 142.412 120.814 141.798 120.207 141.117ZM117.983 138.731C116.703 137.436 115.355 136.141 113.939 134.846C115.018 132.597 115.961 130.348 116.77 128.167C118.051 129.598 119.331 130.961 120.41 132.393C119.736 134.505 118.927 136.618 117.983 138.731ZM116.77 128.03C117.646 125.645 118.32 123.328 118.859 121.078C120.005 122.442 121.084 123.873 122.095 125.372C121.69 127.69 121.084 129.939 120.41 132.256C119.331 130.825 118.118 129.462 116.77 128.03ZM116.703 127.962C115.018 126.19 113.198 124.418 111.243 122.714C112.321 120.397 113.265 118.148 114.007 115.967C115.692 117.602 117.309 119.238 118.792 120.942C118.253 123.259 117.579 125.577 116.703 127.962ZM114.074 115.83C114.344 115.149 114.546 114.399 114.748 113.717C115.287 112.082 115.692 110.582 115.961 109.151C117.377 110.514 118.657 111.945 119.87 113.377C119.803 114.672 119.668 115.967 119.466 117.33C119.264 118.488 119.062 119.647 118.792 120.806C117.377 119.102 115.759 117.466 114.074 115.83ZM116.635 104.244C116.77 101.108 116.163 98.6548 114.95 97.0872C117.579 99.5408 119.196 103.017 119.736 107.447C118.792 106.288 117.714 105.266 116.635 104.244ZM116.568 104.107C115.759 103.358 114.883 102.608 114.007 101.858C114.748 99.3363 114.883 97.4961 114.344 96.5419C115.961 98.1095 116.703 100.631 116.568 104.107ZM116.568 104.244C116.5 105.675 116.298 107.243 115.961 108.946C114.883 107.924 113.737 106.902 112.524 105.948C113.13 104.448 113.602 103.153 114.007 101.994C114.883 102.744 115.692 103.494 116.568 104.244ZM115.894 109.083C115.557 110.514 115.152 112.082 114.681 113.717C114.478 114.399 114.209 115.081 114.007 115.762C112.658 114.467 111.176 113.24 109.625 112.082C109.895 111.536 110.165 111.059 110.367 110.582C111.176 108.946 111.85 107.447 112.456 106.084C113.669 107.038 114.815 108.06 115.894 109.083ZM110.299 110.514C110.03 110.991 109.828 111.536 109.558 112.014C108.682 111.332 107.738 110.65 106.795 109.969C107.132 109.492 107.401 109.015 107.738 108.538C108.614 107.174 109.491 105.743 110.299 104.38C111.041 104.925 111.715 105.47 112.456 106.016C111.782 107.379 111.108 108.878 110.299 110.514ZM107.536 108.469C107.266 108.946 106.929 109.424 106.66 109.901C105.447 109.083 104.166 108.265 102.885 107.447C104.503 105.539 105.918 103.767 107.266 102.267C108.277 102.881 109.221 103.562 110.165 104.244C109.423 105.47 108.547 106.902 107.536 108.469ZM104.031 105.879C103.627 106.357 103.222 106.902 102.751 107.447C102.481 107.243 102.144 107.106 101.874 106.902C101.133 106.493 100.391 106.084 99.6501 105.675C101.47 103.835 103.155 102.199 104.705 100.836C104.84 100.904 105.042 100.972 105.177 101.108C105.851 101.517 106.458 101.858 107.132 102.267C106.121 103.426 105.042 104.653 104.031 105.879ZM101.335 103.835C100.796 104.38 100.189 104.993 99.5826 105.607C97.7628 104.653 95.943 103.767 94.0558 102.949C95.0668 102.131 96.0778 101.381 97.0214 100.699C98.1672 99.8816 99.2456 99.2 100.324 98.5185C101.807 99.2 103.222 99.9498 104.638 100.768C103.627 101.654 102.481 102.676 101.335 103.835ZM100.459 98.4503C102.076 97.4961 103.627 96.6782 105.11 96.133C105.986 96.6101 106.929 97.0872 107.806 97.6324C107.94 97.7006 108.143 97.8369 108.277 97.9051C107.199 98.6548 106.053 99.5408 104.773 100.631C103.357 99.8134 101.874 99.1319 100.459 98.4503ZM107.806 97.4961C106.929 96.9509 106.053 96.4738 105.177 96.0648C106.997 95.3832 108.614 95.0425 110.03 95.0425C111.31 95.0425 112.389 95.3151 113.265 95.8603C112.187 95.5877 110.434 96.2693 108.21 97.8369C108.143 97.7006 108.008 97.6324 107.806 97.4961ZM105.11 95.9967C103.694 95.2469 102.211 94.5654 100.796 93.9519C102.346 93.6112 103.829 93.4748 105.244 93.4748C108.075 93.4748 110.569 94.0883 112.726 95.3832C110.704 94.6335 108.143 94.838 105.11 95.9967ZM104.975 96.0648C103.559 96.6101 102.009 97.428 100.324 98.3822C98.3694 97.4961 96.4148 96.6782 94.3928 96.0648C96.5496 95.1106 98.5716 94.4972 100.526 94.0201C102.009 94.6335 103.492 95.3151 104.975 96.0648ZM100.189 98.4503C99.1782 99.0637 98.0998 99.8134 96.954 100.563C95.943 101.245 94.932 102.063 93.921 102.881C91.4945 101.858 89.0681 100.972 86.6416 100.291C88.4615 99.0637 90.2813 97.9732 92.1685 97.0872C92.8425 96.7464 93.5165 96.4056 94.1906 96.133C96.2126 96.7464 98.2346 97.5643 100.189 98.4503ZM93.8536 102.949C91.8989 104.516 89.8769 106.357 87.8548 108.265C85.2262 107.174 82.5976 106.152 79.9689 105.402C82.1257 103.494 84.35 101.858 86.5742 100.359C89.0007 101.04 91.4271 101.926 93.8536 102.949ZM79.8341 105.402C77.8121 104.721 75.7226 104.244 73.7006 103.835C75.8574 101.994 78.0817 100.359 80.3059 98.9274C82.328 99.2682 84.35 99.7453 86.372 100.291C84.2152 101.79 81.9909 103.494 79.8341 105.402ZM79.7667 105.47C77.8121 107.174 75.8574 109.083 73.9702 111.059C71.9482 110.31 69.9935 109.696 68.1063 109.151C69.8587 107.243 71.6786 105.539 73.5658 103.903C75.6552 104.312 77.6773 104.857 79.7667 105.47ZM68.0389 109.083C66.4213 108.606 64.8711 108.197 63.3882 107.924C62.9164 107.856 62.4446 107.72 61.9728 107.652C63.4556 106.016 65.0733 104.448 66.6909 102.949C68.9151 103.085 71.1394 103.426 73.4984 103.835C71.6112 105.47 69.7913 107.243 68.0389 109.083ZM61.838 107.583C58.4005 106.97 55.5023 106.765 53.0758 106.97C53.9521 105.879 54.8283 104.789 55.7719 103.767C58.1309 103.153 60.7596 102.812 63.7252 102.812C64.534 102.812 65.4103 102.812 66.2191 102.881C66.2865 102.881 66.4213 102.881 66.4887 102.881C64.8711 104.38 63.3208 105.948 61.838 107.583ZM52.941 107.038C50.3124 107.311 48.3578 108.06 47.0771 109.355C48.9644 106.765 51.8626 104.925 55.6371 103.903C54.6261 104.857 53.7499 105.948 52.941 107.038ZM49.6384 109.287C50.1102 109.287 50.6494 109.355 51.256 109.355C50.7842 109.969 50.3798 110.65 49.9754 111.332C48.1556 110.582 46.9423 110.241 46.4705 110.31C46.9423 109.628 48.0208 109.287 49.6384 109.287ZM51.3234 109.355C53.3455 109.56 55.9067 110.173 58.8724 111.128C58.4679 111.605 58.1309 112.082 57.7265 112.627C57.3221 113.172 56.9177 113.786 56.5133 114.331C53.8847 113.036 51.6604 112.014 49.9754 111.332C50.4472 110.719 50.8516 110.037 51.3234 109.355ZM56.5133 114.467C55.9067 115.421 55.3001 116.376 54.6935 117.33C52.267 115.694 50.3798 114.263 48.9644 113.172C49.3014 112.559 49.6384 112.014 49.9754 111.4C51.593 112.15 53.8173 113.172 56.5133 114.467ZM54.6261 117.466C53.9521 118.557 53.3455 119.715 52.7388 120.806C50.582 118.761 48.897 116.921 47.7512 115.353C48.0882 114.672 48.4926 113.99 48.8296 113.309C50.3124 114.467 52.267 115.83 54.6261 117.466ZM47.6838 115.285C46.2683 113.309 45.7291 111.741 46.2009 110.719C46.3357 111.196 47.2793 112.082 48.7622 113.309C48.3578 113.922 48.0208 114.604 47.6838 115.285ZM46.4705 117.807C45.9313 118.966 45.5269 120.124 45.0551 121.283C44.2463 117.807 44.3811 114.535 45.5943 111.741C45.1899 113.445 45.5269 115.49 46.4705 117.807ZM46.5379 117.943C47.4142 119.988 48.897 122.305 50.919 124.759C50.1102 126.599 49.5036 128.439 48.897 130.348C47.0771 127.349 45.7965 124.35 45.1225 121.556C45.5943 120.329 46.0661 119.102 46.5379 117.943ZM50.9864 124.827C51.4582 125.44 51.9974 126.054 52.604 126.735C53.2781 127.485 54.0195 128.303 54.7609 129.053C53.8173 131.166 53.0084 133.279 52.3344 135.391C51.0538 133.756 49.908 132.12 48.9644 130.484C49.571 128.576 50.1776 126.735 50.9864 124.827ZM54.8283 129.189C56.1089 130.484 57.4569 131.779 58.8724 133.074C57.7939 135.323 56.8503 137.572 56.0415 139.753C54.7609 138.322 53.4803 136.959 52.4018 135.528C53.1433 133.347 53.9521 131.234 54.8283 129.189ZM56.0415 139.822C55.1653 142.207 54.4913 144.524 53.9521 146.774C52.8062 145.41 51.7278 143.979 50.7168 142.48C51.1212 140.162 51.7278 137.913 52.4018 135.596C53.5477 137.027 54.7609 138.458 56.0415 139.822ZM56.1089 139.89C57.7939 141.662 59.6138 143.434 61.5684 145.138C60.49 147.455 59.5464 149.704 58.8049 151.885C57.1199 150.25 55.5023 148.614 54.0195 146.91C54.5587 144.593 55.3001 142.275 56.1089 139.89ZM58.8049 152.022C58.5353 152.703 58.3331 153.453 58.1309 154.135C57.5917 155.77 57.1873 157.27 56.9177 158.769C55.5023 157.406 54.2217 155.975 53.0084 154.544C53.0758 153.249 53.2107 151.954 53.4129 150.59C53.6151 149.432 53.8173 148.273 54.0869 147.114C55.5023 148.75 57.0525 150.454 58.8049 152.022ZM56.1763 163.677C56.0415 166.812 56.6481 169.265 57.8613 170.833C55.2327 168.379 53.6151 164.903 53.0758 160.473C54.0869 161.564 55.0979 162.654 56.1763 163.677ZM56.3111 163.745C57.1199 164.494 57.9961 165.244 58.8724 165.994C58.1309 168.516 57.9961 170.356 58.5353 171.31C56.9177 169.811 56.1763 167.221 56.3111 163.745ZM56.3111 163.608C56.3785 162.177 56.5807 160.61 56.9177 158.906C57.9961 159.928 59.142 160.95 60.3552 161.905C59.7486 163.404 59.2768 164.699 58.8724 165.858C57.9961 165.176 57.1199 164.358 56.3111 163.608ZM56.9177 158.769C57.2547 157.338 57.6591 155.77 58.1309 154.135C58.3331 153.453 58.6027 152.771 58.8049 152.09C60.153 153.385 61.6358 154.612 63.186 155.77C62.9164 156.316 62.6468 156.793 62.4446 157.27C61.6358 158.906 60.9618 160.405 60.3552 161.768C59.2094 160.882 58.0635 159.86 56.9177 158.769ZM62.5794 157.406C62.849 156.929 63.0512 156.384 63.3208 155.907C64.197 156.588 65.1407 157.27 66.0843 157.951C65.7473 158.428 65.4777 158.906 65.1407 159.383C64.2644 160.746 63.3882 162.177 62.5794 163.54C61.838 162.995 61.0966 162.45 60.4226 161.905C61.0292 160.541 61.7706 159.042 62.5794 157.406ZM66.2191 158.02C67.4323 158.837 68.7129 159.655 69.9935 160.473C69.5891 161.018 69.1173 161.496 68.7129 161.973C67.5671 163.404 66.4887 164.563 65.6125 165.585C64.6014 164.972 63.6578 164.29 62.7142 163.608C63.7252 161.905 64.8711 160.064 66.2191 158.02ZM68.7803 162.041C69.1847 161.564 69.5891 161.018 70.0609 160.473C70.3305 160.678 70.6676 160.814 70.9372 161.018C71.6786 161.427 72.42 161.836 73.1614 162.245C72.5548 162.859 72.0156 163.404 71.4764 163.949C70.2631 165.108 69.1847 166.13 68.1063 167.084C67.9715 167.016 67.8367 166.88 67.6345 166.812C66.9605 166.403 66.3539 166.062 65.6799 165.653C66.7583 164.494 67.7693 163.199 68.7803 162.041ZM71.5438 164.086C72.083 163.54 72.6896 162.927 73.2962 162.313C75.116 163.268 76.9359 164.154 78.8231 164.972C77.8121 165.789 76.8011 166.539 75.8574 167.221C74.7116 168.039 73.6332 168.72 72.5548 169.402C71.072 168.72 69.6565 167.97 68.2411 167.153C69.2521 166.267 70.3305 165.244 71.5438 164.086ZM72.42 169.47C70.8024 170.424 69.2521 171.242 67.7693 171.787C66.8931 171.31 65.9495 170.833 65.0733 170.288C64.9385 170.22 64.7362 170.083 64.6014 170.015C65.6799 169.265 66.8257 168.379 68.1063 167.221C69.5217 168.039 70.9372 168.788 72.42 169.47ZM65.0059 170.356C65.8821 170.901 66.7583 171.378 67.6345 171.787C64.2644 173.082 61.501 173.15 59.5464 172.06C59.6812 172.06 59.816 172.128 59.9508 172.128C61.0292 172.128 62.5794 171.446 64.534 170.083C64.6688 170.152 64.8711 170.288 65.0059 170.356ZM62.7142 172.946C64.197 172.946 65.8821 172.605 67.7019 171.855C69.1173 172.605 70.5328 173.287 72.0156 173.832C67.4997 174.786 63.3882 174.377 60.153 172.469C60.9618 172.81 61.7706 172.946 62.7142 172.946ZM67.9041 171.855C69.3195 171.31 70.8698 170.492 72.5548 169.538C74.5094 170.424 76.4641 171.242 78.4861 171.855C76.3293 172.741 74.3072 173.423 72.2852 173.9C70.8024 173.219 69.3195 172.605 67.9041 171.855ZM72.6222 169.47C73.6332 168.857 74.7116 168.107 75.8574 167.357C76.8685 166.675 77.8795 165.858 78.8905 165.04C81.3169 166.062 83.7434 166.948 86.1698 167.63C83.6086 169.334 81.1147 170.697 78.6209 171.787C76.5989 171.106 74.5768 170.356 72.6222 169.47ZM78.9579 164.972C80.9125 163.404 82.9346 161.564 84.9566 159.655C87.5852 160.746 90.2139 161.768 92.8425 162.518C90.6857 164.426 88.4615 166.062 86.2372 167.562C83.8108 166.812 81.3843 165.994 78.9579 164.972ZM92.9773 162.518C95.0668 163.131 97.0888 163.677 99.1108 164.086C96.954 165.926 94.7298 167.562 92.5055 168.993C90.4835 168.652 88.4615 168.175 86.4394 167.63C88.6637 166.062 90.8205 164.358 92.9773 162.518ZM93.1121 162.382C95.0668 160.678 97.0214 158.769 98.9086 156.793C100.931 157.542 102.885 158.156 104.773 158.701C103.02 160.541 101.2 162.313 99.313 163.881C97.2236 163.54 95.2016 163.063 93.1121 162.382ZM104.84 158.769C106.458 159.246 108.008 159.655 109.491 159.928C109.962 159.996 110.434 160.132 110.906 160.201C109.423 161.836 107.873 163.404 106.188 164.835C104.031 164.699 101.739 164.358 99.3804 163.949C101.268 162.382 103.088 160.678 104.84 158.769ZM110.973 160.269C113.467 160.746 115.759 160.95 117.714 160.95C118.455 160.95 119.129 160.95 119.736 160.882C118.859 161.973 117.983 163.063 117.04 164.017C114.613 164.699 111.917 164.972 109.019 164.972C108.143 164.972 107.199 164.903 106.255 164.903C107.94 163.472 109.491 161.905 110.973 160.269ZM119.938 160.882C122.566 160.61 124.521 159.86 125.802 158.633C123.914 161.223 120.949 162.995 117.309 164.017C118.185 162.995 119.062 161.905 119.938 160.882ZM121.623 158.497C122.095 157.815 122.499 157.202 122.903 156.52C124.454 157.134 125.667 157.542 126.274 157.542C126.341 157.542 126.408 157.542 126.408 157.542C125.734 158.497 124.117 158.769 121.623 158.497ZM121.488 158.497C119.466 158.292 116.972 157.679 113.939 156.725C114.343 156.247 114.681 155.77 115.018 155.225C115.422 154.68 115.826 154.066 116.231 153.521C118.522 154.68 120.881 155.77 122.769 156.52C122.432 157.202 121.96 157.815 121.488 158.497ZM116.366 153.385C116.972 152.431 117.646 151.476 118.185 150.522C120.881 152.363 122.701 153.658 123.914 154.68C123.577 155.293 123.24 155.839 122.836 156.452C121.421 155.77 119.264 154.816 116.366 153.385ZM118.253 150.454C118.927 149.364 119.533 148.205 120.14 147.114C122.364 149.159 123.982 150.999 125.128 152.567C124.791 153.249 124.386 153.93 124.049 154.612C122.432 153.317 120.342 151.885 118.253 150.454ZM125.195 152.635C126.611 154.612 127.15 156.179 126.678 157.202C126.543 156.725 125.532 155.77 124.049 154.612C124.454 153.93 124.791 153.317 125.195 152.635ZM126.341 150.113C126.88 148.955 127.285 147.796 127.756 146.637C128.565 150.113 128.43 153.385 127.217 156.179C127.622 154.475 127.352 152.431 126.341 150.113ZM126.274 149.977C125.397 147.932 123.914 145.615 121.892 143.161C122.701 141.321 123.308 139.481 123.914 137.572C125.734 140.64 127.015 143.57 127.689 146.433C127.285 147.592 126.813 148.818 126.274 149.977ZM123.982 137.368C124.588 135.255 125.128 133.074 125.465 130.961C125.532 131.098 125.599 131.234 125.734 131.438C127.419 134.914 128.565 138.39 129.104 141.662C128.767 143.161 128.296 144.661 127.824 146.16C127.082 143.434 125.802 140.435 123.982 137.368ZM123.914 137.3C123.645 136.891 123.443 136.482 123.173 136.073C122.364 134.846 121.488 133.619 120.544 132.393C121.286 130.075 121.825 127.758 122.229 125.509C123.443 127.281 124.454 129.053 125.397 130.825C125.06 133.006 124.521 135.119 123.914 137.3ZM122.836 119.852C122.701 121.624 122.499 123.396 122.162 125.236C121.151 123.805 120.073 122.373 118.927 121.01C119.196 119.783 119.466 118.625 119.601 117.466C119.803 116.171 119.938 114.876 120.005 113.649C121.016 114.876 121.96 116.171 122.903 117.466C122.903 118.148 122.836 118.966 122.836 119.852ZM120.005 113.377C120.14 111.4 120.073 109.492 119.87 107.72C120.747 108.674 121.555 109.696 122.297 110.719C122.634 112.695 122.836 114.876 122.836 117.057C122.027 115.83 121.016 114.604 120.005 113.377ZM119.87 107.515C119.399 103.562 118.051 100.359 115.961 97.9051C119.196 101.04 121.286 105.334 122.297 110.446C121.555 109.492 120.747 108.469 119.87 107.515ZM113.939 101.79C113.4 101.381 112.928 100.972 112.389 100.563C113.467 98.5866 114.141 96.9509 114.074 96.3374C114.815 97.1553 114.748 98.9956 113.939 101.79ZM113.872 101.926C113.535 103.085 112.995 104.448 112.389 105.879C111.715 105.334 110.973 104.789 110.232 104.244C110.973 103.017 111.647 101.79 112.254 100.699C112.861 101.108 113.332 101.517 113.872 101.926ZM110.165 104.175C109.221 103.494 108.277 102.812 107.266 102.199C108.277 101.04 109.221 99.9498 110.097 99.1319C110.839 99.609 111.513 100.086 112.187 100.631C111.715 101.586 111.041 102.744 110.165 104.175ZM107.199 102.131C106.525 101.722 105.918 101.313 105.244 100.904C105.11 100.836 104.975 100.768 104.84 100.631C106.121 99.5408 107.266 98.5866 108.277 97.9051C108.884 98.2458 109.423 98.6548 109.962 98.9956C109.154 99.9498 108.21 101.04 107.199 102.131ZM108.412 97.9051C110.299 96.6101 111.85 95.8603 112.928 95.8603C113.198 95.8603 113.467 95.9285 113.737 95.9967C113.13 96.133 111.782 97.2916 110.165 98.9274C109.558 98.5866 108.951 98.2458 108.412 97.9051ZM100.594 93.8838C99.2456 93.3385 97.965 92.8614 96.617 92.4525C98.0998 92.248 99.5826 92.1117 101.065 92.1117C104.907 92.1117 108.48 92.9296 111.58 94.6335C108.412 93.2704 104.705 92.9977 100.594 93.8838ZM100.391 93.9519C98.4368 94.3609 96.3474 95.0425 94.258 95.9967C92.5055 95.4514 90.7531 94.9743 89.0007 94.5654C91.4945 93.6112 93.9884 92.9296 96.3474 92.5206C97.6954 92.9296 99.0434 93.4067 100.391 93.9519ZM94.0558 96.0648C93.4491 96.3374 92.7751 96.6782 92.1011 96.9509C90.2139 97.9051 88.3941 98.9956 86.5068 100.222C84.4848 99.6771 82.4628 99.2 80.4407 98.8592C83.1368 97.1553 85.9002 95.724 88.7311 94.6335C90.4835 95.0425 92.3033 95.5196 94.0558 96.0648ZM80.3059 98.7911C77.8795 98.3821 75.453 98.1095 73.0266 98.0414C75.7226 96.2693 78.5535 94.7698 81.4517 93.6112C83.8108 93.7475 86.1698 94.0883 88.5289 94.5654C85.7654 95.724 83.002 97.1553 80.3059 98.7911ZM80.1711 98.9274C77.9469 100.359 75.7226 101.994 73.5658 103.835C71.2742 103.358 68.9825 103.085 66.7583 102.881C68.7129 101.177 70.735 99.609 72.8918 98.2458C75.3182 98.2458 77.7447 98.5185 80.1711 98.9274ZM66.6235 102.881C66.4887 102.881 66.3539 102.881 66.2191 102.881C62.3098 102.676 58.8049 102.949 55.8393 103.767C57.0525 102.472 58.2657 101.245 59.6138 100.086C62.4446 99.1319 65.5451 98.5185 68.9151 98.314C69.8587 98.2458 70.8024 98.2458 71.8134 98.2458C72.083 98.2458 72.42 98.2458 72.6896 98.2458C70.6002 99.609 68.5781 101.177 66.6235 102.881ZM55.7045 103.767C52.3344 104.721 49.571 106.22 47.6838 108.401C50.4472 104.653 54.4239 101.858 59.4116 100.154C58.0635 101.245 56.8503 102.472 55.7045 103.767ZM46.5379 110.378C47.0771 110.378 48.1556 110.719 49.8406 111.4C49.5036 111.945 49.1666 112.559 48.8296 113.104C47.0097 111.673 46.1335 110.787 46.2683 110.446C46.3357 110.446 46.4031 110.378 46.5379 110.378ZM45.0551 121.487C44.5159 122.919 44.1115 124.418 43.7745 125.918C43.0331 121.147 43.5049 116.716 45.2573 112.695C44.3137 115.353 44.2463 118.284 45.0551 121.487ZM45.0551 121.76C45.7291 124.554 47.0097 127.485 48.8296 130.552C48.223 132.665 47.6838 134.846 47.3468 136.959C47.2793 136.823 47.2119 136.686 47.0771 136.482C45.3921 133.006 44.2463 129.598 43.7071 126.258C44.1115 124.759 44.5833 123.259 45.0551 121.76ZM48.897 130.62C49.1666 131.029 49.3688 131.438 49.6384 131.847C50.4472 133.074 51.3234 134.301 52.267 135.528C51.5256 137.845 50.9864 140.162 50.582 142.412C49.3688 140.64 48.3578 138.867 47.4142 137.095C47.8186 134.914 48.2904 132.733 48.897 130.62ZM50.0428 148.069C50.1776 146.297 50.3798 144.524 50.7168 142.684C51.7278 144.116 52.8062 145.547 53.9521 146.91C53.6825 148.137 53.4129 149.295 53.2781 150.454C53.0759 151.749 52.941 153.044 52.8736 154.271C51.8626 153.044 50.919 151.749 49.9754 150.454C49.9754 149.704 49.9754 148.887 50.0428 148.069ZM52.8062 154.475C52.6714 156.452 52.7388 158.36 52.941 160.132C52.0648 159.178 51.256 158.156 50.5146 157.134C50.1776 155.157 49.9754 152.976 49.9754 150.795C50.8516 152.022 51.7952 153.249 52.8062 154.475ZM52.941 160.337C53.4129 164.29 54.7609 167.493 56.8503 169.947C53.6151 166.812 51.5256 162.518 50.5146 157.406C51.3234 158.428 52.1322 159.383 52.941 160.337ZM58.9398 166.062C59.479 166.471 59.9508 166.88 60.49 167.289C59.4116 169.265 58.7375 170.901 58.8049 171.515C58.0635 170.697 58.0635 168.857 58.9398 166.062ZM58.9398 165.926C59.2768 164.767 59.816 163.404 60.4226 161.973C61.0966 162.518 61.838 163.063 62.5794 163.608C61.838 164.835 61.164 166.062 60.5574 167.153C60.0182 166.812 59.479 166.403 58.9398 165.926ZM62.6468 163.677C63.5904 164.358 64.534 165.04 65.5451 165.653C64.4666 166.948 63.523 167.902 62.7142 168.72C61.9728 168.243 61.2988 167.766 60.6248 167.221C61.164 166.198 61.838 165.04 62.6468 163.677ZM65.6125 165.721C66.2865 166.13 66.8931 166.539 67.5671 166.948C67.7019 167.016 67.8367 167.084 67.9715 167.153C66.6909 168.243 65.5451 169.197 64.4666 169.879C63.86 169.538 63.3208 169.129 62.7816 168.788C63.7252 167.902 64.6688 166.88 65.6125 165.721ZM64.4666 170.015C62.0402 171.719 60.2204 172.333 59.2094 171.855C59.8834 171.719 61.164 170.56 62.7816 168.925C63.3208 169.265 63.86 169.674 64.4666 170.015ZM67.6345 174.514C69.1173 174.514 70.6676 174.309 72.2852 173.968C73.6332 174.514 74.9138 174.991 76.2618 175.4C70.6676 176.286 65.4777 175.536 61.2314 173.15C63.1186 174.036 65.2755 174.514 67.6345 174.514ZM72.42 173.9C74.3746 173.491 76.4641 172.81 78.5535 171.855C80.3059 172.401 82.0583 172.878 83.8108 173.287C81.2495 174.241 78.8231 174.923 76.3967 175.331C75.116 174.923 73.768 174.445 72.42 173.9ZM78.7557 171.855C79.3623 171.583 80.0363 171.242 80.7103 170.969C82.5976 170.015 84.4174 168.925 86.3046 167.698C88.3267 168.243 90.3487 168.72 92.3707 169.061C89.6747 170.765 86.9112 172.196 84.0804 173.287C82.328 172.878 80.5755 172.401 78.7557 171.855ZM92.5055 169.061C94.932 169.47 97.3584 169.743 99.7849 169.811C97.0888 171.583 94.258 173.082 91.2923 174.241C88.9333 174.105 86.6416 173.764 84.2826 173.287C87.046 172.196 89.8095 170.765 92.5055 169.061ZM92.6403 168.993C94.8646 167.562 97.0888 165.926 99.2456 164.086C101.605 164.563 103.829 164.835 106.053 165.04C104.099 166.744 102.076 168.311 99.9197 169.743C97.5606 169.606 95.1342 169.402 92.6403 168.993ZM106.188 165.04C106.323 165.04 106.458 165.04 106.592 165.04C107.469 165.108 108.277 165.108 109.086 165.108C111.984 165.108 114.613 164.767 116.905 164.154C115.692 165.449 114.411 166.675 113.13 167.834C110.299 168.788 107.199 169.334 103.896 169.606C102.616 169.674 101.402 169.743 100.122 169.674C102.211 168.311 104.233 166.744 106.188 165.04ZM117.174 164.154C120.612 163.199 123.308 161.632 125.195 159.451C122.432 163.199 118.388 165.994 113.467 167.766C114.748 166.607 115.961 165.449 117.174 164.154ZM122.971 156.452C123.308 155.907 123.645 155.293 123.982 154.748C126.341 156.588 126.611 157.202 126.543 157.406V157.474C126.408 157.542 125.802 157.611 122.971 156.452ZM127.824 146.365C128.363 144.933 128.767 143.434 129.104 141.934C129.846 146.705 129.374 151.136 127.622 155.157C128.565 152.567 128.565 149.568 127.824 146.365ZM129.172 141.662C129.644 139.617 130.048 137.504 130.25 135.391C131.261 141.73 130.655 148.137 128.228 153.93C129.576 150.25 129.913 146.092 129.172 141.662ZM129.172 141.389C128.633 138.118 127.487 134.778 125.869 131.37C125.802 131.166 125.667 130.961 125.532 130.757C125.937 128.099 126.206 125.44 126.139 122.851C128.161 126.804 129.509 130.893 130.183 134.982C129.981 137.164 129.644 139.345 129.172 141.389ZM126.004 122.237C126.004 122.305 126.004 122.373 126.004 122.442C125.128 120.669 124.117 118.966 122.971 117.33C122.971 115.081 122.836 112.968 122.432 110.991C123.443 112.354 124.386 113.854 125.262 115.285C125.734 117.466 126.004 119.783 126.004 122.237ZM122.432 110.719C121.555 105.811 119.533 101.654 116.568 98.5185C120.949 102.744 123.914 108.401 125.195 114.944C124.386 113.445 123.443 112.014 122.432 110.719ZM113.872 96.2011C114.007 96.4056 114.006 97.2916 112.254 100.563C111.58 100.086 110.906 99.5408 110.165 99.0637C111.984 97.1553 113.198 96.133 113.669 96.133C113.804 96.133 113.804 96.133 113.872 96.2011C113.872 96.133 113.872 96.2011 113.872 96.2011ZM96.3474 92.3843C94.4602 91.8391 92.5729 91.362 90.6857 91.0212C92.6403 90.6804 94.5276 90.5441 96.4148 90.5441C101.537 90.5441 106.39 91.7028 110.636 94.0201C106.458 92.1117 101.605 91.5664 96.3474 92.3843ZM96.0778 92.4525C93.7187 92.8614 91.2923 93.543 88.7985 94.4972C88.7985 94.4972 88.7985 94.4972 88.7311 94.4972C86.4394 94.0201 84.0804 93.6793 81.7887 93.543C83.0694 93.0659 84.35 92.5888 85.6306 92.248C87.1808 91.7709 88.7985 91.362 90.3487 91.0893C92.2359 91.4301 94.1906 91.9072 96.0778 92.4525ZM85.6306 92.1117C84.2826 92.5206 82.9346 92.9977 81.5865 93.543C78.1491 93.3385 74.7116 93.4748 71.3416 94.0201C69.5891 94.2927 67.9715 94.7017 66.3539 95.1788C68.9825 93.543 71.746 92.248 74.5768 91.1575C77.1381 90.7486 79.7667 90.4759 82.3954 90.4759C84.8892 90.4759 87.4504 90.6804 90.0117 91.0893C88.5289 91.362 87.046 91.7028 85.6306 92.1117ZM78.4861 93.543C79.4297 93.543 80.3059 93.543 81.2495 93.6112C78.3513 94.7698 75.5878 96.2693 72.8918 98.0414C71.5438 98.0414 70.2631 98.0414 68.9151 98.1095C65.6125 98.314 62.5794 98.8592 59.8834 99.8134C61.7706 98.1777 63.7926 96.6782 65.9495 95.3151C69.8587 94.1564 74.105 93.543 78.4861 93.543ZM59.6138 99.9498C54.8957 101.517 51.0538 104.107 48.223 107.515C52.4692 101.722 58.5353 97.7006 65.5451 95.5196C63.4556 96.8145 61.4336 98.314 59.6138 99.9498ZM43.6397 126.19C43.1679 128.303 42.7635 130.416 42.5613 132.529C41.4829 125.986 42.1569 119.579 44.6507 113.786C43.2353 117.602 42.9657 121.76 43.6397 126.19ZM43.7071 126.531C44.2463 129.734 45.3921 133.142 47.0097 136.482C47.0771 136.686 47.2119 136.891 47.3468 137.095C46.9423 139.753 46.6727 142.412 46.7401 145.07C45.9987 143.57 45.3247 142.139 44.7181 140.64C43.7745 138.118 43.1005 135.528 42.6287 133.074C42.8309 130.893 43.1679 128.712 43.7071 126.531ZM46.8075 145.683C46.8075 145.615 46.8075 145.547 46.8075 145.479C47.6838 147.251 48.6948 148.955 49.8406 150.59C49.8406 152.84 49.9754 154.952 50.3798 156.929C49.3688 155.566 48.4252 154.066 47.549 152.635C47.0771 150.386 46.8749 148.069 46.8075 145.683ZM50.3798 157.202C51.256 162.109 53.2781 166.267 56.2437 169.402C51.8626 165.176 48.897 159.519 47.6164 152.976C48.4926 154.407 49.3688 155.839 50.3798 157.202ZM60.5574 167.357C61.2314 167.834 61.9054 168.379 62.6468 168.857C60.0182 171.583 59.2768 171.855 59.0072 171.787C59.0072 171.787 59.0072 171.787 58.9398 171.787C58.6027 171.446 59.2094 169.879 60.5574 167.357ZM71.8134 175.877C73.2962 175.877 74.9138 175.74 76.4641 175.468C78.3513 176.013 80.2385 176.49 82.1257 176.831C74.8464 177.99 67.9715 176.967 62.1076 173.764C65.0733 175.127 68.3085 175.877 71.8134 175.877ZM76.7337 175.4C79.0927 174.991 81.5191 174.309 84.013 173.355C84.013 173.355 84.013 173.355 84.0804 173.355C86.372 173.832 88.7311 174.173 91.0227 174.309C89.7421 174.786 88.4615 175.263 87.1808 175.604C85.5632 176.081 84.013 176.422 82.4628 176.695C80.5081 176.422 78.6209 176.013 76.7337 175.4ZM87.2482 175.74C88.5963 175.331 89.9443 174.854 91.2923 174.309C92.3033 174.377 93.3143 174.377 94.3254 174.377C96.7518 174.377 99.1782 174.173 101.537 173.832C103.222 173.559 104.84 173.219 106.458 172.741C103.762 174.377 100.931 175.74 98.0324 176.763C92.9773 177.581 87.8549 177.581 82.7324 176.763C84.2152 176.558 85.7654 176.217 87.2482 175.74ZM91.5619 174.241C94.4602 173.082 97.291 171.583 99.9871 169.811C100.324 169.811 100.728 169.811 101.065 169.811C102.009 169.811 103.02 169.811 103.964 169.743C107.199 169.538 110.232 168.993 112.995 168.107C111.041 169.811 109.019 171.31 106.862 172.605C102.076 173.968 96.8866 174.582 91.5619 174.241ZM113.265 167.97C117.983 166.403 121.825 163.813 124.588 160.405C120.342 166.198 114.276 170.22 107.266 172.401C109.423 171.106 111.378 169.606 113.265 167.97ZM129.374 151.34C130.992 146.228 131.329 140.64 130.385 134.914C130.587 132.665 130.655 130.416 130.52 128.167C132.272 135.869 132.003 143.911 129.374 151.34ZM130.183 125.304C130.25 125.849 130.318 126.395 130.318 126.94C130.183 126.327 129.981 125.781 129.846 125.168C128.767 121.692 127.285 118.352 125.465 115.217C124.251 108.81 121.421 103.221 117.309 98.9956C124.454 105.675 129.037 114.876 130.183 125.304ZM81.5191 89.181C84.35 88.6357 87.1808 88.3631 90.0117 88.3631C97.1562 88.3631 104.031 90.2033 110.165 93.7475C104.368 90.7486 97.628 89.8625 90.4161 91.0212C85.361 90.1351 80.2385 90.1351 75.2508 90.8849C77.2729 90.1351 79.3623 89.5899 81.5191 89.181ZM73.9702 91.2257C71.2068 92.3162 68.5107 93.6112 65.9495 95.2469C59.2094 97.2235 53.6151 100.836 49.4362 105.743C55.5023 97.9732 64.2644 93.0659 73.9702 91.2257ZM43.5049 116.58C41.8873 121.692 41.5503 127.281 42.4939 133.006C42.2917 135.255 42.2243 137.504 42.3591 139.753C40.5392 131.984 40.8088 124.009 43.5049 116.58ZM42.5613 141.048C42.6961 141.594 42.8983 142.207 43.0331 142.752C44.1115 146.228 45.5943 149.568 47.4142 152.703C48.6274 159.11 51.3908 164.631 55.5697 168.925C47.7512 161.632 43.3701 151.681 42.5613 141.048ZM62.5794 174.105C66.7583 176.286 71.409 177.376 76.3967 177.376C78.3513 177.376 80.3733 177.172 82.3954 176.831C85.024 177.308 87.72 177.512 90.4161 177.512C92.7751 177.512 95.1342 177.308 97.4258 176.967C85.9002 181.057 73.2288 180.307 62.5794 174.105ZM99.5153 176.558C99.2456 176.626 99.0434 176.626 98.7738 176.695C101.605 175.604 104.368 174.241 106.929 172.673C113.669 170.629 119.331 167.016 123.51 162.041C117.714 169.47 109.356 174.582 99.5153 176.558Z" fill="#91CCF9"/>
<path d="M90.6852 188.009C80.9795 188.009 66.8252 185.351 57.9957 179.694C56.041 178.467 54.1538 177.035 52.4014 175.604L55.9062 171.31C57.5239 172.605 59.2089 173.9 60.9613 174.991C68.8473 180.034 77.6768 182.42 86.439 182.42C102.413 182.42 117.983 174.377 127.082 159.792C140.764 137.845 134.968 109.015 113.939 94.2246L117.106 89.6581C145.348 104.857 151.009 139.753 135.844 164.222C125.599 180.511 108.479 188.009 90.6852 188.009Z" fill="#EF8031"/>
<path d="M127.014 159.723C117.915 174.377 102.278 182.42 86.3716 182.42C77.6768 182.42 68.8473 180.034 60.894 174.991C59.1415 173.9 57.4565 172.605 55.8389 171.31C65.5446 179.83 78.0812 184.464 90.9549 183.919C92.7073 183.851 94.4597 183.715 96.347 183.51C114.073 181.67 124.521 170.492 130.587 161.768C136.653 153.044 140.36 130.893 133.822 114.263C127.351 97.5642 113.871 94.1564 113.871 94.1564C134.9 109.015 140.63 137.777 127.014 159.723Z" fill="#DB521F"/>
<path d="M111.917 206.752H70.1959C70.1959 206.752 67.9717 208.865 67.9717 208.933C67.9717 210.5 78.2167 212 91.0229 212C103.829 212 114.141 210.705 113.872 209.205L111.917 206.752Z" fill="#80451A"/>
<path d="M112.119 207.093C112.119 208.456 102.683 209.546 91.0897 209.546C79.4293 209.546 70.0605 208.456 70.0605 207.093C70.0605 205.73 79.4967 204.639 91.0897 204.639C102.683 204.639 112.119 205.73 112.119 207.093Z" fill="#FF6C0B"/>
<path d="M94.9319 194.347V191.348H87.0459H86.7089V194.415C86.7089 195.847 85.8327 197.074 84.5521 197.619C83.7433 197.96 82.9345 198.369 82.5301 198.846C80.171 201.572 76.127 206.207 76.127 206.207C76.127 206.888 82.7997 207.433 91.09 207.433C99.3803 207.433 106.053 206.888 106.053 206.207C106.053 206.138 101.807 201.504 99.3803 198.778C98.9085 198.3 98.0323 197.823 97.1561 197.551C95.8081 197.074 94.9319 195.779 94.9319 194.347Z" fill="#F15A22"/>
<path d="M76.0596 206.207C76.0596 206.888 82.7323 207.433 91.0226 207.433C99.313 207.433 105.986 206.888 105.986 206.207C105.986 206.207 105.514 205.661 104.705 204.775C100.324 205.116 88.057 205.866 84.0129 204.026C82.0583 203.14 81.6539 201.367 81.8561 199.527C79.497 202.185 76.0596 206.138 76.0596 206.207Z" fill="#DB521F"/>
<path opacity="0.28" d="M98.1669 200.481C98.1669 201.436 95.8752 202.254 92.977 202.254C90.0787 202.254 87.7871 201.436 87.7871 200.481C87.7871 199.527 90.0787 198.709 92.977 198.709C95.8752 198.709 98.1669 199.459 98.1669 200.481Z" fill="#FFC730"/>
<path opacity="0.28" d="M128.026 99.609C137.058 108.129 143.461 126.531 138.608 148.75C138.069 151.204 137.395 153.589 136.519 155.907C137.26 153.521 137.8 151.136 138.204 148.682C141.035 132.87 139.687 115.694 130.318 102.54C129.577 101.517 128.835 100.495 128.026 99.609Z" fill="#AAF3FF"/>
</g>
<path d="M104.621 0.75L106.121 3.85C106.321 4.25 106.721 4.55 107.121 4.55L110.521 5.05C111.621 5.25 112.021 6.55 111.221 7.35L108.721 9.75C108.421 10.05 108.221 10.45 108.321 10.95L108.921 14.35C109.121 15.45 107.921 16.25 107.021 15.75L103.921 14.15C103.521 13.95 103.121 13.95 102.721 14.15L99.6208 15.75C98.6208 16.25 97.5208 15.45 97.7208 14.35L98.3208 10.95C98.4208 10.55 98.2208 10.05 97.9208 9.75L95.4208 7.35C94.6208 6.55 95.0208 5.25 96.1208 5.05L99.5208 4.55C99.9208 4.45 100.321 4.25 100.521 3.85L102.021 0.75C102.721 -0.25 104.121 -0.25 104.621 0.75Z" fill="#FFC200"/>
<path d="M15.5524 93.4382L16.4524 95.2382C16.5524 95.4382 16.7524 95.6382 17.0524 95.6382L19.0524 95.9382C19.6524 96.0382 19.9524 96.8382 19.4524 97.2382L18.0524 98.7382C17.8524 98.9382 17.7524 99.1382 17.8524 99.4382L18.1524 101.438C18.2524 102.038 17.5524 102.538 17.0524 102.238L15.2524 101.238C15.0524 101.138 14.7524 101.138 14.5524 101.238L12.7524 102.238C12.1524 102.538 11.4524 102.038 11.6524 101.438L11.9524 99.4382C11.9524 99.1382 11.9524 98.9382 11.7524 98.7382L10.2524 97.3382C9.75244 96.8382 10.0524 96.1382 10.6524 96.0382L12.6524 95.7382C12.9524 95.7382 13.1524 95.5382 13.2524 95.3382L14.1524 93.5382C14.4524 92.8382 15.2524 92.8382 15.5524 93.4382Z" fill="#FF7562"/>
<path d="M104 41.3999L104.9 43.1999C105 43.3999 105.2 43.5999 105.5 43.5999L107.5 43.8999C108.1 43.9999 108.4 44.7999 107.9 45.1999L106.4 46.5999C106.2 46.7999 106.1 46.9999 106.2 47.2999L106.5 49.2999C106.6 49.8999 105.9 50.3999 105.4 50.0999L103.6 49.0999C103.4 48.9999 103.1 48.9999 102.9 49.0999L101.1 50.0999C100.5 50.3999 99.8001 49.8999 100 49.2999L100.3 47.2999C100.3 46.9999 100.3 46.7999 100.1 46.5999L98.6001 45.1999C98.1001 44.6999 98.4001 43.9999 99.0001 43.8999L101 43.5999C101.3 43.5999 101.5 43.3999 101.6 43.1999L102.5 41.3999C102.9 40.8999 103.7 40.8999 104 41.3999Z" fill="#FF7562"/>
<path d="M10.6524 58.45L11.5524 60.25C11.6524 60.45 11.8524 60.65 12.1524 60.65L14.1524 60.95C14.7524 61.05 15.0524 61.85 14.5524 62.25L13.0524 63.65C12.8524 63.85 12.7524 64.05 12.8524 64.35L13.1524 66.35C13.2524 66.95 12.5524 67.45 12.0524 67.15L10.2524 66.15C10.0524 66.05 9.75244 66.05 9.55244 66.15L7.75244 67.15C7.15244 67.45 6.45244 66.95 6.65244 66.35L6.95244 64.35C6.95244 64.05 6.95244 63.85 6.75244 63.65L5.25244 62.25C4.75244 61.75 5.05244 61.05 5.65244 60.95L7.65244 60.65C7.95244 60.65 8.15244 60.45 8.25244 60.25L9.15244 58.45C9.55244 57.85 10.3524 57.85 10.6524 58.45Z" fill="#FFC200"/>
<path d="M143.644 31.3L144.244 32.5C144.344 32.7 144.444 32.8 144.644 32.8L145.944 33C146.344 33.1 146.544 33.6 146.244 33.9L145.244 34.8C145.144 34.9 145.044 35.1 145.144 35.3L145.344 36.6C145.444 37 144.944 37.3 144.644 37.1L143.444 36.5C143.344 36.4 143.144 36.4 142.944 36.5L141.744 37.1C141.344 37.3 140.944 37 141.044 36.6L141.244 35.3C141.244 35.1 141.244 35 141.144 34.8L140.144 33.9C139.844 33.6 140.044 33.1 140.444 33L141.744 32.8C141.944 32.8 142.044 32.7 142.144 32.5L142.744 31.3C142.944 30.9 143.444 30.9 143.644 31.3Z" fill="#FF8100"/>
<path d="M13.6444 16.3L14.2444 17.5C14.3444 17.7 14.4444 17.8 14.6444 17.8L15.9444 18C16.3444 18.1 16.5444 18.6 16.2444 18.9L15.2444 19.8C15.1444 19.9 15.0444 20.1 15.1444 20.3L15.3444 21.6C15.4444 22 14.9444 22.3 14.6444 22.1L13.4444 21.5C13.3444 21.4 13.1444 21.4 12.9444 21.5L11.7444 22.1C11.3444 22.3 10.9444 22 11.0444 21.6L11.2444 20.3C11.2444 20.1 11.2444 20 11.1444 19.8L10.1444 18.9C9.84444 18.6 10.0444 18.1 10.4444 18L11.7444 17.8C11.9444 17.8 12.0444 17.7 12.1444 17.5L12.7444 16.3C12.9444 15.9 13.4444 15.9 13.6444 16.3Z" fill="#FF8100"/>
<path d="M53.6444 37.3L54.2444 38.5C54.3444 38.7 54.4444 38.8 54.6444 38.8L55.9444 39C56.3444 39.1 56.5444 39.6 56.2444 39.9L55.2444 40.8C55.1444 40.9 55.0444 41.1 55.1444 41.3L55.3444 42.6C55.4444 43 54.9444 43.3 54.6444 43.1L53.4444 42.5C53.3444 42.4 53.1444 42.4 52.9444 42.5L51.7444 43.1C51.3444 43.3 50.9444 43 51.0444 42.6L51.2444 41.3C51.2444 41.1 51.2444 41 51.1444 40.8L50.1444 39.9C49.8444 39.6 50.0444 39.1 50.4444 39L51.7444 38.8C51.9444 38.8 52.0444 38.7 52.1444 38.5L52.7444 37.3C52.9444 36.9 53.4444 36.9 53.6444 37.3Z" fill="#FFC200"/>
<path d="M2.82419 137.174L3.28915 138.104C3.36664 138.259 3.44413 138.337 3.59912 138.337L4.60653 138.492C4.9165 138.569 5.07148 138.957 4.839 139.189L4.06408 139.887C3.98658 139.964 3.90909 140.119 3.98658 140.274L4.14157 141.281C4.21906 141.591 3.8316 141.824 3.59912 141.669L2.6692 141.204C2.59171 141.126 2.43672 141.126 2.28174 141.204L1.35182 141.669C1.04185 141.824 0.731878 141.591 0.809371 141.281L0.964357 140.274C0.964357 140.119 0.964357 140.042 0.886864 139.887L0.111934 139.189C-0.120545 138.957 0.0344413 138.569 0.344413 138.492L1.35182 138.337C1.50681 138.337 1.5843 138.259 1.66179 138.104L2.12675 137.174C2.28174 136.942 2.6692 136.942 2.82419 137.174Z" fill="#FF8100"/>
<defs>
<clipPath id="clip0_457:3">
<rect width="104" height="125" fill="white" transform="translate(40 87)"/>
</clipPath>
</defs>
</svg>
