<svg width="48" height="48" viewBox="0 0 48 48" fill="none" xmlns="http://www.w3.org/2000/svg">
<g clip-path="url(#clip0_62:1912)">
<path d="M44.1263 4.78688L42.8785 10.7766C41.2453 18.6178 35.1272 24.5728 27.2925 26.2378C27.1941 26.2594 27.0956 26.2688 26.9991 26.2688C26.3485 26.2688 25.7653 25.8159 25.6247 25.155C25.4635 24.3947 25.9481 23.6484 26.7075 23.4872C33.4528 22.0537 38.7188 16.9538 40.125 10.2028L41.0203 5.90625H36.8578L36.6619 7.48594C36.5738 8.19 35.9756 8.71875 35.266 8.71875H12.7341C12.0244 8.71875 11.4263 8.19 11.3381 7.48594L11.1422 5.90625H6.97971L7.87502 10.2028C9.28127 16.9538 14.5472 22.0537 21.2925 23.4872C22.0519 23.6484 22.5366 24.3947 22.3753 25.155C22.2347 25.8159 21.6516 26.2688 21.001 26.2688C20.9044 26.2688 20.806 26.2594 20.7075 26.2378C12.8728 24.5728 6.75471 18.6178 5.12159 10.7766L3.87377 4.78688C3.78659 4.3725 3.89159 3.94125 4.15877 3.61313C4.42596 3.28406 4.82721 3.09375 5.25002 3.09375H10.7925L10.6041 1.57969C10.5544 1.17938 10.6791 0.777188 10.9463 0.475313C11.2135 0.173438 11.5969 0 12 0H36C36.4031 0 36.7866 0.173438 37.0538 0.475313C37.321 0.777188 37.4456 1.17938 37.396 1.57969L37.2075 3.09375H42.75C43.1728 3.09375 43.5741 3.28406 43.8413 3.61313C44.1085 3.94125 44.2135 4.3725 44.1263 4.78688Z" fill="#FEAA3A"/>
<path d="M35.5119 16.7428L36.6613 7.48594L36.8572 5.90625H11.1416L11.3375 7.48594L12.4879 16.7438C13.0091 20.9156 15.7541 24.4622 19.5932 26.0381V39.4022L14.6582 40.6359C14.1885 40.7531 13.8125 41.1037 13.6625 41.5631L12.1625 46.1569C11.9188 46.9041 12.3246 47.7759 13.2594 48H34.7394C35.6741 47.7759 36.08 46.9041 35.8363 46.1569L34.3363 41.5631C34.1863 41.1037 33.8103 40.7531 33.3407 40.6359L28.4057 39.4022V26.0381C32.2447 24.4622 34.9897 20.9156 35.5119 16.7428Z" fill="#FEAA3A"/>
<path d="M22.7 5.98L26.32 6.24L25.24 18.66L23.08 19.02L22.8 9.32L21.98 9.88L21.26 8.38L22.7 5.98Z" fill="white"/>
</g>
<defs>
<clipPath id="clip0_62:1912">
<rect width="48" height="48" fill="white"/>
</clipPath>
</defs>
</svg>
