<svg width="48" height="48" viewBox="0 0 48 48" fill="none" xmlns="http://www.w3.org/2000/svg">
<g clip-path="url(#clip0_62:2657)">
<path d="M44.1263 4.78688L42.8785 10.7766C41.2453 18.6178 35.1272 24.5728 27.2925 26.2378C27.1941 26.2594 27.0956 26.2688 26.9991 26.2688C26.3485 26.2688 25.7653 25.8159 25.6247 25.155C25.4635 24.3947 25.9481 23.6484 26.7075 23.4872C33.4528 22.0537 38.7188 16.9538 40.125 10.2028L41.0203 5.90625H36.8578L36.6619 7.48594C36.5738 8.19 35.9756 8.71875 35.266 8.71875H12.7341C12.0244 8.71875 11.4263 8.19 11.3381 7.48594L11.1422 5.90625H6.97971L7.87502 10.2028C9.28127 16.9538 14.5472 22.0537 21.2925 23.4872C22.0519 23.6484 22.5366 24.3947 22.3753 25.155C22.2347 25.8159 21.6516 26.2688 21.001 26.2688C20.9044 26.2688 20.806 26.2594 20.7075 26.2378C12.8728 24.5728 6.75471 18.6178 5.12159 10.7766L3.87377 4.78688C3.78659 4.3725 3.89159 3.94125 4.15877 3.61313C4.42596 3.28406 4.82721 3.09375 5.25002 3.09375H10.7925L10.6041 1.57969C10.5544 1.17938 10.6791 0.777188 10.9463 0.475313C11.2135 0.173438 11.5969 0 12 0H36C36.4031 0 36.7866 0.173438 37.0538 0.475313C37.321 0.777188 37.4456 1.17938 37.396 1.57969L37.2075 3.09375H42.75C43.1728 3.09375 43.5741 3.28406 43.8413 3.61313C44.1085 3.94125 44.2135 4.3725 44.1263 4.78688Z" fill="#E97A05"/>
<path d="M35.5119 16.7428L36.6613 7.48594L36.8572 5.90625H11.1416L11.3375 7.48594L12.4879 16.7438C13.0091 20.9156 15.7541 24.4622 19.5932 26.0381V39.4022L14.6582 40.6359C14.1885 40.7531 13.8125 41.1037 13.6625 41.5631L12.1625 46.1569C11.9188 46.9041 12.3246 47.7759 13.2594 48H34.7394C35.6741 47.7759 36.08 46.9041 35.8363 46.1569L34.3363 41.5631C34.1863 41.1037 33.8103 40.7531 33.3407 40.6359L28.4057 39.4022V26.0381C32.2447 24.4622 34.9897 20.9156 35.5119 16.7428Z" fill="#E97A05"/>
<path d="M22.7 15.82C22.8333 16.0733 23.0467 16.2733 23.34 16.42C23.6467 16.5533 23.96 16.62 24.28 16.62C24.6 16.6067 24.8933 16.5133 25.16 16.34C25.4267 16.1533 25.6 15.8667 25.68 15.48C25.72 15.2533 25.7133 15.0533 25.66 14.88C25.62 14.6933 25.54 14.5333 25.42 14.4C25.3 14.2533 25.16 14.1333 25 14.04C24.84 13.9467 24.6733 13.8667 24.5 13.8C24.0867 13.6533 23.6067 13.5533 23.06 13.5L22.74 11.72C23.6333 11.48 24.3 11.18 24.74 10.82C25.1933 10.4467 25.4667 10.0867 25.56 9.74C25.6533 9.39333 25.6 9.09333 25.4 8.84C25.2133 8.58667 24.9333 8.46 24.56 8.46C24.24 8.46 23.96 8.52 23.72 8.64C23.4933 8.76 23.3 8.89333 23.14 9.04C22.9533 9.21333 22.7933 9.40667 22.66 9.62L21.36 8.16C21.7067 7.48 22.1133 6.96 22.58 6.6C23.0467 6.22667 23.5267 5.98 24.02 5.86C24.5267 5.72667 25.0267 5.71333 25.52 5.82C26.0133 5.92667 26.4467 6.12 26.82 6.4C27.2067 6.66667 27.52 7.00667 27.76 7.42C28 7.83333 28.12 8.29333 28.12 8.8C28.12 9.48 28.0267 10.0467 27.84 10.5C27.6667 10.9533 27.4667 11.3133 27.24 11.58C26.9867 11.9 26.7 12.14 26.38 12.3C26.9133 12.5667 27.32 12.92 27.6 13.36C27.8933 13.7867 28.0733 14.2467 28.14 14.74C28.22 15.2333 28.1867 15.7333 28.04 16.24C27.9067 16.7333 27.6867 17.1867 27.38 17.6C27.0733 18 26.6867 18.3333 26.22 18.6C25.7533 18.8533 25.22 18.98 24.62 18.98C23.9 18.98 23.34 18.8667 22.94 18.64C22.54 18.4133 22.2333 18.16 22.02 17.88C21.78 17.56 21.62 17.1933 21.54 16.78L22.72 15.84L22.7 15.82Z" fill="white"/>
</g>
<defs>
<clipPath id="clip0_62:2657">
<rect width="48" height="48" fill="white"/>
</clipPath>
</defs>
</svg>
