<svg width="21" height="21" viewBox="0 0 21 21" fill="none" xmlns="http://www.w3.org/2000/svg">
<path d="M21 14.3548C21 13.5538 20.4841 12.8773 19.7695 12.6225V6.24889L21 5.74156L10.5 1.52869L0 5.74156L10.5 9.95448L18.5391 6.74296V12.6225C17.8245 12.8773 17.3086 13.5538 17.3086 14.3548C17.3086 15.0882 17.7417 15.7177 18.3627 16.0152L17.3405 19.0821L18.5072 19.4714L19.1543 17.5302L19.8014 19.4714L20.9681 19.0821L19.9459 16.0152C20.5669 15.7178 21 15.0882 21 14.3548Z" fill="#62A82D"/>
<path d="M10.5 11.2805L4.96289 9.05713V10.6635C4.96289 12.4173 7.34331 13.7396 10.5 13.7396C13.6567 13.7396 16.0371 12.4173 16.0371 10.6635V9.05713L10.5 11.2805Z" fill="#62A82D"/>
</svg>
