<svg width="21" height="21" viewBox="0 0 21 21" fill="none" xmlns="http://www.w3.org/2000/svg">
<path d="M21 14.355C21 13.5539 20.4841 12.8774 19.7695 12.6226V6.24901L21 5.74169L10.5 1.52881L0 5.74169L10.5 9.95461L18.5391 6.74308V12.6226C17.8245 12.8774 17.3086 13.5539 17.3086 14.355C17.3086 15.0883 17.7417 15.7178 18.3627 16.0153L17.3405 19.0822L18.5072 19.4715L19.1543 17.5303L19.8014 19.4715L20.9681 19.0822L19.9459 16.0153C20.5669 15.7179 21 15.0884 21 14.355Z" fill="#33C5F3"/>
<path d="M10.5 11.2805L4.96289 9.05713V10.6635C4.96289 12.4173 7.34331 13.7396 10.5 13.7396C13.6567 13.7396 16.0371 12.4173 16.0371 10.6635V9.05713L10.5 11.2805Z" fill="#33C5F3"/>
</svg>
