<svg width="26" height="18" viewBox="0 0 26 18" fill="none" xmlns="http://www.w3.org/2000/svg">
<path d="M4.74356 11.7112C4.18451 13.1173 3.30358 14.5065 2.12615 15.8449C1.75344 16.2684 1.70261 16.8783 2.00755 17.3526C2.24475 17.7253 2.63437 17.9286 3.0579 17.9286C3.1765 17.9286 3.29511 17.9202 3.4137 17.8778C5.90403 17.1493 11.7234 14.5658 11.8844 6.28146C11.9436 3.08806 9.60576 0.343568 6.56477 0.0301535C4.87911 -0.139268 3.20194 0.411292 1.95672 1.52943C0.711561 2.65604 0 4.26549 0 5.94266C0 8.73797 1.98216 11.186 4.74356 11.7112Z" fill="#FEAA3A"/>
<path d="M20.0837 0.0301535C18.4065 -0.139268 16.7293 0.411292 15.4841 1.52943C14.2389 2.65604 13.5273 4.26549 13.5273 5.94266C13.5273 8.73797 15.5095 11.186 18.2709 11.7112C17.7119 13.1173 16.8309 14.5065 15.6535 15.8449C15.2808 16.2684 15.23 16.8783 15.5349 17.3526C15.7721 17.7253 16.1618 17.9286 16.5853 17.9286C16.7038 17.9286 16.8224 17.9202 16.941 17.8778C19.4314 17.1493 25.2508 14.5658 25.4117 6.28145V6.16291C25.4117 3.02027 23.0992 0.343568 20.0837 0.0301535Z" fill="#FEAA3A"/>
</svg>
