<svg width="70" height="75" viewBox="0 0 70 75" fill="none" xmlns="http://www.w3.org/2000/svg">
<mask id="mask0_62:2665" style="mask-type:alpha" maskUnits="userSpaceOnUse" x="0" y="0" width="70" height="75">
<path d="M69.842 46.2146C69.842 51.1237 61.5655 54.1615 59.7372 58.3998C56.6166 67.613 45.1744 74.0028 35.0696 74.0028C26.005 74.0028 22.2917 71.7517 16.0488 62.2634C12.4283 56.7607 0 53.294 0 46.2146C0 26.9283 27.0769 0 46.3632 0C65.6496 0 69.842 26.9283 69.842 46.2146Z" fill="#C4C4C4"/>
</mask>
<g mask="url(#mask0_62:2665)">
<path fill-rule="evenodd" clip-rule="evenodd" d="M54.7666 59.8808C55.535 60.8304 56.2248 61.8413 56.8292 62.9033C57.5216 63.9573 57.9773 65.1492 58.1649 66.3968C58.3255 67.1812 58.4048 67.9801 58.4015 68.7808L58.5717 70.6272C58.8255 73.3521 60.3372 74.5167 62.8412 74.9299C65.0943 75.2997 68.9196 76.1435 70.0533 78.4148C70.3562 79.0245 69.4561 79.6226 68.8994 78.8973C67.3618 76.7763 64.0673 76.262 61.6469 76.1724C60.1324 76.1175 58.2861 75.8834 57.1119 74.8201C56.1235 76.9994 54.5952 78.8893 52.6722 80.3103C53.3126 80.6455 53.9704 80.9894 54.5733 81.3737C55.0175 81.6627 55.6205 82.0846 55.7647 82.6249C55.932 83.2433 55.4041 84.1189 55.0983 84.6303C54.5617 85.529 53.9761 86.3872 53.4684 87.309C52.2971 89.4358 51.7894 92.3832 51.4115 94.8394C51.5575 95.5036 51.63 96.1819 51.6279 96.8621V97.0326L51.475 97.1077C49.9654 97.8608 48.3154 98.2895 46.6307 98.3661C44.946 98.4427 43.2639 98.1657 41.6925 97.5527L41.58 97.5065L41.5367 97.3909C41.2405 96.6035 41.1581 95.7515 41.298 94.9218C41.4378 94.0921 41.7949 93.3144 42.3328 92.6681C42.8707 92.0218 43.5702 91.53 44.3598 91.2429C45.1494 90.9557 46.0009 90.8836 46.8275 91.0337C49.0748 88.8405 50.748 86.2456 51.4288 83.1624C49.5333 82.3892 47.7469 81.3711 46.1149 80.1341C45.0948 80.0179 44.0888 79.8001 43.1118 79.4839C43.3522 79.8268 43.5946 80.1688 43.8388 80.5097C44.309 81.1715 43.735 81.8447 43.2215 82.2435C40.3366 84.535 38.4009 87.5171 37.2556 91.0106C37.2758 91.0511 37.2931 91.0944 37.3133 91.1349V91.158V91.184C37.4596 91.8375 37.5332 92.5052 37.5326 93.1749V93.3483L37.3797 93.4234C35.9242 94.1489 34.3335 94.5618 32.7095 94.6354C31.0855 94.709 29.464 94.4419 27.9491 93.8511L27.8337 93.8049L27.7905 93.6893C27.4999 92.9173 27.4224 92.0812 27.566 91.2689C27.7096 90.4565 28.0691 89.6979 28.6067 89.0728C29.1442 88.4478 29.8399 87.9793 30.6207 87.7168C31.4015 87.4542 32.2385 87.4071 33.0438 87.5806C33.4185 87.6645 33.7846 87.7835 34.1371 87.9361C35.9686 86.3728 37.5046 84.4926 38.6721 82.3851C39.249 80.9403 38.5221 79.8307 37.4056 78.9176C36.2892 78.0044 35.1699 77.0364 34.1111 76.0279C33.4482 75.429 32.8292 74.7829 32.2591 74.0948L32.236 74.0688L32.2216 74.0341C31.3994 72.179 32.2071 69.8933 33.0524 68.1942L33.2313 67.8301C33.1128 66.8772 33.0521 65.918 33.0495 64.9578C33.0495 64.5995 33.0495 64.2441 33.0697 63.8858C32.9409 63.7991 32.8139 63.7095 32.6889 63.617L32.4668 63.4581L32.6226 63.2327C32.7874 62.9989 32.9645 62.7742 33.1534 62.5594C33.3603 60.2649 33.8268 58.0013 34.5439 55.8122C33.7303 56.1387 32.8995 56.4334 32.0716 56.7166C30.8715 57.1298 29.6598 57.5142 28.4453 57.8898C26.5442 58.4677 25.8865 56.5981 25.5403 55.11C25.1893 53.4527 24.7296 51.8204 24.1642 50.2236C24.0258 49.8567 23.5094 48.5477 23.0911 48.4205C22.8026 48.3367 22.4304 48.5332 22.0698 48.5245L21.8881 48.7413C20.5993 49.2931 19.1606 49.3859 17.8118 49.0042L17.6618 48.9638L17.6185 48.8164C16.8656 46.288 17.2262 43.566 18.3022 41.1878L18.3686 41.0375H18.5359C19.8686 40.9615 21.1837 41.3722 22.2372 42.1934C22.5912 42.4576 22.9187 42.7556 23.2151 43.0834C23.3017 43.1788 23.3853 43.277 23.4661 43.3724L23.5296 43.4619C23.567 43.5076 23.5895 43.5637 23.5942 43.6226C23.5988 43.6815 23.5853 43.7404 23.5555 43.7914C25.0643 44.7536 26.0913 46.5076 26.7606 48.1258C27.1875 49.1516 27.626 50.1861 28.1366 51.1772C28.4487 51.8172 28.8165 52.4283 29.2358 53.0035C30.8009 52.3938 32.247 51.5135 33.5082 50.4028C34.3233 49.6737 35.2162 49.037 36.1709 48.5043C36.7738 48.2009 37.5066 47.9697 38.1499 48.2963L38.1816 48.3107L38.4701 47.8946C39.799 46.0685 40.7772 44.0108 41.355 41.8264C41.7213 32.6721 45.988 29.5195 54.5012 33.4465L55.3666 32.2271C55.1441 32.7803 54.8927 33.3214 54.6137 33.8482C54.2772 34.3751 53.9681 34.9191 53.6876 35.4779C51.8529 39.1275 51.2442 43.3203 51.4548 47.3889C53.0818 48.8077 54.0915 50.6455 53.803 52.9341C53.6501 54.1275 53.3905 56.1329 54.2415 57.1269C54.6627 57.6153 55.6984 58.8434 55.2512 59.5484C55.1327 59.7215 54.9517 59.8417 54.7464 59.8836L54.7666 59.8808Z" fill="#8D4F21"/>
<path fill-rule="evenodd" clip-rule="evenodd" d="M29.1175 53.2838C28.3213 52.284 27.4991 50.5849 26.5211 48.2357C25.6239 46.0771 24.5017 44.6641 23.2757 43.9446C21.8006 44.1372 21.3823 45.5743 22.0208 48.2559C22.3843 48.3108 22.7766 48.0449 23.1891 48.1692C23.968 48.4061 24.8652 50.8854 25.8288 55.0609C26.3192 57.1819 27.0519 58.0517 28.3818 57.6414C31.1051 56.7947 33.2082 56.0839 34.6737 55.4799L34.7141 55.3701L34.7314 55.3152L34.7862 55.1534V55.1303C34.8093 55.0667 34.8323 55.006 34.8525 54.9425L34.9218 54.7489V54.7344L34.991 54.5466V54.5235L35.0631 54.3328C35.0862 54.2692 35.1093 54.2085 35.1352 54.1449V54.1189L35.2045 53.9484V53.9138L35.2737 53.7375V53.723C35.2997 53.6566 35.3285 53.593 35.3545 53.5294C35.4064 53.3994 35.4641 53.2665 35.5189 53.1365V53.1162L35.5997 52.9342L35.6805 52.755V52.7261L35.7584 52.5527V52.5354L35.842 52.3563V52.3389C35.9026 52.2147 35.9603 52.0904 36.018 51.969L36.0353 51.9373C36.093 51.813 36.1536 51.6916 36.2171 51.5674L36.3094 51.3882V51.3651L36.3959 51.2004V51.1744L36.4825 51.0068V50.9895C36.5805 50.8016 36.6815 50.6196 36.7709 50.4347V50.4173L36.8661 50.2468L36.9642 50.0763L37.0623 49.9059L37.1662 49.7267L37.1892 49.6891L37.2037 49.6631L37.2325 49.614L37.2787 49.5418L37.2989 49.5071L37.3248 49.4637L37.3393 49.4406L37.3537 49.4204V49.4002L37.3796 49.3597L37.5268 49.1228L37.57 49.0563L37.5902 49.0245L37.6306 48.9638L37.7114 48.8367L37.7864 48.7211L37.8037 48.6922C36.8979 48.2357 35.5362 49.0216 33.4765 50.767C31.7859 52.1915 30.2339 53.0498 28.9271 53.4803C28.5623 53.6066 28.188 53.7032 27.8078 53.7693C28.1524 53.6593 28.4804 53.5028 28.7828 53.304C28.8174 53.3532 28.855 53.3994 28.8896 53.4428L29.1175 53.2838Z" fill="#FBC867"/>
<path fill-rule="evenodd" clip-rule="evenodd" d="M29.1175 53.2838C28.3213 52.284 27.4991 50.5849 26.5211 48.2357C25.6239 46.0771 24.5017 44.6641 23.2757 43.9446C21.8006 44.1372 21.3823 45.5743 22.0208 48.2559C22.3843 48.3108 22.7766 48.0449 23.1891 48.1692C23.968 48.4061 24.8652 50.8854 25.8288 55.0609C26.3192 57.1819 27.0519 58.0517 28.3818 57.6414C31.1051 56.7947 33.2082 56.0839 34.6737 55.4799L34.7141 55.3701L34.7314 55.3152L34.7862 55.1534V55.1303C34.8093 55.0667 34.8323 55.006 34.8525 54.9425L34.9218 54.7489V54.7344L34.991 54.5466V54.5235L35.0631 54.3328C35.0862 54.2692 35.1093 54.2085 35.1352 54.1449V54.1189L35.2045 53.9484V53.9138L35.2737 53.7375V53.723C35.2997 53.6566 35.3285 53.593 35.3545 53.5294C35.4064 53.3994 35.4641 53.2665 35.5189 53.1365V53.1162L35.5997 52.9342L35.6805 52.755V52.7261L35.7584 52.5527V52.5354L35.842 52.3563V52.3389C35.9026 52.2147 35.9603 52.0904 36.018 51.969L36.0353 51.9373C36.093 51.813 36.1536 51.6916 36.2171 51.5674L36.3094 51.3882V51.3651L36.3959 51.2004V51.1744L36.4825 51.0068V50.9895C36.5805 50.8016 36.6815 50.6196 36.7709 50.4347V50.4173L36.8661 50.2468L36.9642 50.0763L37.0623 49.9059L37.1662 49.7267L37.1892 49.6891L37.2037 49.6631L37.2325 49.614L37.2787 49.5418L37.2989 49.5071L37.3248 49.4637L37.3393 49.4406L37.3537 49.4204V49.4002L37.3796 49.3597L37.5268 49.1228L37.57 49.0563L37.5902 49.0245L37.6306 48.9638L37.7114 48.8367L37.7864 48.7211L37.8037 48.6922C36.8979 48.2357 35.5362 49.0216 33.4765 50.767C31.7859 52.1915 30.2339 53.0498 28.9271 53.4803C28.5623 53.6066 28.188 53.7032 27.8078 53.7693C28.1524 53.6593 28.4804 53.5028 28.7828 53.304C28.8174 53.3532 28.855 53.3994 28.8896 53.4428L29.1175 53.2838ZM27.0173 56.1734C26.5153 55.5233 26.7057 54.5813 27.5943 54.5466C30.0147 54.4599 32.2937 53.3532 34.2294 51.9026C33.6951 52.8929 33.4342 54.0081 33.4736 55.1332C29.882 56.786 27.7385 57.1212 27.0029 56.1734H27.0173Z" fill="#E7B021"/>
<path fill-rule="evenodd" clip-rule="evenodd" d="M54.4 33.695C46.2551 29.9443 42.0038 32.6692 41.6461 41.8697C41.0616 44.0985 40.0655 46.1979 38.7093 48.0593C35.7618 52.3316 33.9552 57.2886 33.4618 62.4583C34.0828 61.7967 34.8115 61.2456 35.6168 60.8285C35.9761 60.069 36.4141 59.3493 36.9236 58.6815C39.1017 58.7191 41.4644 58.6237 43.8905 57.9013C45.6012 57.3928 47.0494 56.9073 48.3995 56.9217C48.1398 56.3167 47.7284 55.7891 47.2052 55.3903C44.9665 53.1595 45.1396 50.3536 47.7244 46.9728C45.5031 50.3854 45.307 53.1797 47.3263 55.1735C47.883 55.671 48.33 56.2792 48.6389 56.9593C49.126 56.9401 49.612 57.0186 50.0683 57.1903C50.5245 57.3621 50.9419 57.6234 51.2959 57.9591C50.5371 57.4171 49.6314 57.1197 48.6995 57.1067H48.4716C47.1976 57.1653 45.9398 57.4176 44.7415 57.8551C41.9461 58.7711 39.3123 58.8665 37.0621 58.9387C36.537 59.5027 36.0968 60.1403 35.7553 60.8314C37.5991 61.1912 39.3301 61.9878 40.8037 63.1547L40.8816 63.2182V63.2327C42.451 62.9206 42.8491 62.2531 42.0211 61.2764C41.6259 60.8141 41.6259 60.5656 42.0731 60.4818C45.2983 59.7594 49.3717 59.6004 54.3019 59.6524C55.4558 59.6524 55.3318 58.8029 54.0422 57.3032C53.2662 56.3987 53.2835 54.9164 53.5374 52.8965C53.8057 50.7871 52.9258 48.9869 51.1949 47.5189C50.9757 47.3311 50.7391 47.1491 50.491 46.9728C50.7314 47.0441 50.9635 47.141 51.1834 47.2618C50.9526 42.4419 51.8757 37.6162 54.3913 33.6806L54.4 33.695ZM40.8412 63.3569C40.4694 64.3441 39.8361 65.2112 39.0094 65.8651L38.9661 65.8998H38.9084C36.9332 65.6739 35.0363 64.9967 33.3637 63.9204C33.1185 70.2776 35.1927 75.8632 39.7911 77.9004C41.6634 78.7268 43.5587 79.4694 45.4945 79.77C44.5882 79.1208 43.7647 78.3629 43.0424 77.5132C40.7691 74.768 42.6442 69.8528 48.4457 62.9437L48.1918 63.2876L47.9437 63.6286L47.7014 63.9638L47.4648 64.2961L47.234 64.6226C47.159 64.7324 47.0811 64.8393 47.009 64.9462L46.7869 65.267L46.5734 65.5819L46.3628 65.894L46.1609 66.2032C46.0253 66.4055 45.8955 66.6077 45.7685 66.8042C45.7079 66.9054 45.6445 67.0036 45.5839 67.0932C45.5233 67.1828 45.4599 67.2868 45.4022 67.3822C45.3445 67.4775 45.2839 67.5729 45.2262 67.6711C45.1685 67.7694 45.1108 67.8618 45.056 67.9601C45.0012 68.0583 44.9435 68.145 44.8887 68.2491C44.8338 68.3531 44.7819 68.434 44.73 68.538L44.5771 68.8096C44.4761 68.9917 44.378 69.168 44.2886 69.3442L44.1501 69.6043L44.0203 69.8615C43.977 69.9453 43.9338 70.0319 43.8934 70.1157C43.8097 70.2833 43.7318 70.4481 43.6568 70.6099L43.5472 70.8526L43.4433 71.0895L43.3453 71.3236C43.3135 71.4016 43.2818 71.4796 43.2529 71.5548C43.1924 71.7079 43.1376 71.8582 43.0856 72.0056C43.0568 72.0807 43.0337 72.1529 43.0077 72.2252C42.9818 72.2974 42.9587 72.3696 42.9385 72.4419C42.9183 72.5141 42.8924 72.5835 42.8722 72.6528C42.852 72.7222 42.8318 72.7944 42.8145 72.8638C42.7971 72.9331 42.777 72.9996 42.7596 73.0689C42.7423 73.1383 42.7279 73.2019 42.7106 73.2683C42.6933 73.3348 42.6818 73.4012 42.6702 73.4677C42.6587 73.5342 42.6443 73.5977 42.6327 73.6613C42.6212 73.7249 42.6096 73.7913 42.601 73.852C42.5646 74.0943 42.5414 74.3383 42.5317 74.5831C42.5317 74.6409 42.5317 74.6987 42.5317 74.7565C42.5317 74.8143 42.5317 74.8692 42.5317 74.9241C42.5361 75.0884 42.5496 75.2524 42.5721 75.4153C42.5721 75.4673 42.5866 75.5193 42.5981 75.5713C42.6154 75.6754 42.6385 75.7765 42.6644 75.8748C42.6904 75.973 42.7193 76.0684 42.7539 76.1637L42.8058 76.3024C42.826 76.3486 42.8433 76.3949 42.8664 76.4382C42.906 76.5282 42.9503 76.6159 42.9991 76.7012C43.025 76.7445 43.0481 76.7879 43.0741 76.8283L43.1578 76.9497C43.184 76.992 43.2129 77.0325 43.2443 77.0711C43.2731 77.1115 43.3049 77.1491 43.3366 77.1866C43.3683 77.2242 43.4001 77.2647 43.4347 77.3022L43.6136 77.4958L43.6453 77.5305L43.7116 77.6027L43.7347 77.6259L43.8213 77.7183L43.9107 77.8137L43.9309 77.8339L44.1213 78.0275L44.2194 78.1258L44.3117 78.2182L44.3319 78.2385L44.5223 78.4205L44.5396 78.4378L44.6348 78.5274L44.7415 78.6257L44.8425 78.7181H44.8569L44.955 78.8077L45.056 78.8944L45.2637 79.0765L45.2868 79.0967L45.4945 79.2729L45.5204 79.2932L45.9849 79.6717L46.1955 79.8364C47.8976 81.1399 49.7725 82.1999 51.7661 82.9861C51.1603 85.9528 49.6275 88.6575 47.1677 91.1002C48.0372 91.323 48.8491 91.7293 49.5491 92.2919C50.2492 92.8546 50.8211 93.5605 51.2266 94.3625C51.6853 91.4902 52.2248 89.0283 53.246 87.176C54.3567 85.1533 55.7385 83.5236 55.5164 82.6971C55.3231 81.969 53.9701 81.3043 52.1642 80.345L51.7661 80.1312C51.9519 80.1502 52.1354 80.1869 52.3142 80.241C54.1902 78.907 55.7033 77.1243 56.7161 75.0551C57.7288 72.9859 58.2089 70.696 58.1127 68.3935C58.0943 67.7354 58.02 67.0799 57.8906 66.4344C57.7055 65.1761 57.239 63.976 56.5261 62.9235C55.908 61.8611 55.2067 60.8494 54.4288 59.8981C50.3124 59.6481 46.1809 59.8916 42.1221 60.6233C41.8653 60.6696 41.8336 60.8141 42.0154 61.0452C43.0366 62.2964 42.6471 63.068 40.8383 63.3569H40.8412ZM37.0909 90.6696C38.1953 87.2699 40.2705 84.2691 43.0597 82.0383C43.6568 81.5615 43.9251 81.079 43.6222 80.6715C43.2789 80.1918 42.9645 79.7526 42.6875 79.3423C41.6634 78.9984 40.6681 78.5794 39.6815 78.146C38.9646 77.8286 38.2917 77.4197 37.6795 76.9295C35.0831 74.8605 33.8109 71.6126 33.3176 68.3329C32.154 70.685 31.879 72.5536 32.4925 73.9387C33.2339 74.8721 34.9129 76.4902 37.5987 78.7066C39.0411 79.8913 39.5056 81.1339 38.9401 82.5209C37.7739 84.6236 36.2477 86.5044 34.4311 88.0776C35.5644 88.6477 36.4929 89.5565 37.0881 90.6783L37.0909 90.6696Z" fill="#FBC867"/>
<path fill-rule="evenodd" clip-rule="evenodd" d="M55.0148 60.6554C56.8178 63.6904 57.5425 67.2471 57.0711 70.747C56.5997 74.247 54.9599 77.4842 52.4185 79.932L51.7607 80.1314C51.9465 80.1504 52.1301 80.1872 52.3089 80.2412C54.1859 78.9079 55.7002 77.1255 56.7139 75.0563C57.7277 72.987 58.2087 70.6967 58.1131 68.3938C58.0947 67.7356 58.0204 67.0802 57.891 66.4346C57.7059 65.1764 57.2394 63.9762 56.5265 62.9237C56.0728 62.1318 55.5668 61.3711 55.0119 60.6467L55.0148 60.6554Z" fill="#E7B021"/>
<path fill-rule="evenodd" clip-rule="evenodd" d="M51.6168 36.7728C50.7463 40.0995 50.3701 43.5366 50.5003 46.9732L51.1927 47.2621C50.9619 42.4422 51.885 37.6166 54.4006 33.6809C53.9631 34.1175 53.4795 34.5051 52.9582 34.8368C52.4929 35.1239 52.0511 35.4476 51.6369 35.8048C51.5533 35.8828 51.4754 35.9637 51.3975 36.0504C50.9573 36.5968 50.3585 36.9926 49.6839 37.1831C49.1473 37.4345 48.5848 37.6397 48.0424 37.8766C47.3208 38.186 46.6252 38.5532 45.9625 38.9747C44.9153 39.648 43.9431 40.4195 42.9103 41.1043C42.5064 41.3854 42.0843 41.6393 41.6468 41.8643C41.2543 43.4095 40.6474 44.8918 39.8438 46.2681C40.7208 45.0574 41.4664 43.7565 42.068 42.3873C42.4978 42.2617 42.8888 42.0291 43.2046 41.7112C45.0102 40.0906 47.1671 38.9124 49.5051 38.2696C50.1051 38.0991 50.8177 37.6455 51.6168 36.7786V36.7728Z" fill="#D59929"/>
<path fill-rule="evenodd" clip-rule="evenodd" d="M50.5001 46.9729C51.4051 47.6751 52.1147 48.5986 52.5608 49.6547C53.0068 50.7107 53.1744 51.8639 53.0474 53.0035C52.7849 55.2228 53.0474 56.7167 53.8696 57.598C54.8648 58.6759 55.0235 59.404 53.8494 59.3636C49.349 59.2104 45.2843 59.5196 41.6984 60.3721C41.384 60.4472 41.3869 60.7101 41.6234 61.0222C42.4658 62.1376 42.2495 62.7733 41.0061 62.9091C39.47 61.7548 37.6529 61.0343 35.7441 60.8228C37.5928 61.1834 39.328 61.9831 40.8041 63.1548L40.882 63.2183V63.2328C42.4514 62.9207 42.8495 62.2532 42.0215 61.2765C41.6263 60.8142 41.6263 60.5657 42.0735 60.4819C45.2987 59.7595 49.3721 59.6005 54.3023 59.6525C55.4562 59.6525 55.3322 58.803 54.0427 57.3033C53.2666 56.3988 53.2839 54.9165 53.5378 52.8966C53.8061 50.7872 52.9262 48.987 51.1953 47.519C50.9761 47.3312 50.7395 47.1492 50.4914 46.9729H50.5001Z" fill="#D59929"/>
<path fill-rule="evenodd" clip-rule="evenodd" d="M49.3865 54.9223C49.2797 54.8067 49.1672 54.6969 49.0518 54.5842C48.4888 54.05 48.0409 53.406 47.7358 52.6919C47.4306 51.9777 47.2747 51.2086 47.2777 50.4318C47.2832 49.6539 47.4495 48.8857 47.7663 48.1755C48.0831 47.4652 48.5434 46.8285 49.1182 46.3054C47.3007 46.736 45.1573 51.4605 46.9517 53.7982C47.8777 55.0032 48.472 55.2112 48.8355 56.6156C49.3219 56.6264 49.7988 56.7535 50.2263 56.9862C50.6538 57.2189 51.0196 57.5505 51.2934 57.9535C51.1922 57.6449 51.0678 57.3445 50.9212 57.0548C50.5051 56.8308 50.0731 56.6376 49.6288 56.4769C49.4393 55.9857 49.3567 55.4596 49.3865 54.9338V54.9223Z" fill="#E7B021"/>
<path fill-rule="evenodd" clip-rule="evenodd" d="M55.015 60.6553C53.5115 61.1908 51.9571 61.5704 50.3762 61.788C49.5245 62.652 48.9087 63.7207 48.5876 64.8915C49.3893 65.8614 50.3623 66.6754 51.458 67.2927C52.6141 67.2131 53.7757 67.3105 54.9025 67.5817C55.9085 67.0195 56.849 66.3469 57.7065 65.5763C57.4845 64.6284 57.0851 63.7312 56.5295 62.9323C56.0758 62.1404 55.5699 61.3797 55.015 60.6553ZM34.3509 72.26C34.2325 72.9381 34.0745 73.6087 33.8778 74.2683C34.3135 75.0768 34.9283 75.7747 35.6751 76.3083C36.0371 76.2192 36.4041 76.1517 36.7742 76.1061C35.7233 74.995 34.9 73.6883 34.3509 72.26ZM33.3037 72.8812C32.8589 71.7833 32.6991 70.5903 32.8393 69.4137C32.095 71.2611 31.9825 72.7705 32.5017 73.9417C32.5623 74.0169 32.6287 74.0949 32.7008 74.1787C32.8289 73.7167 33.0326 73.2793 33.3037 72.8841V72.8812ZM41.2255 78.7963C41.7591 79.3068 42.1627 79.938 42.4025 80.637C42.8492 80.6714 43.2911 80.7528 43.7209 80.8797C43.6998 80.8031 43.6657 80.7307 43.6199 80.6659C43.2766 80.1862 42.9621 79.747 42.6852 79.3367C42.1948 79.1719 41.7072 78.9899 41.2255 78.7963ZM38.9407 82.5152C38.783 82.7888 38.6214 83.0575 38.456 83.3214C38.7694 83.2189 39.099 83.1749 39.4282 83.1914C39.8038 82.857 40.0912 82.4349 40.2648 81.9626C40.4384 81.4903 40.4929 80.9823 40.4235 80.4838C39.8903 80.1739 39.3896 79.8109 38.9291 79.4002C38.7503 79.4262 38.5685 79.4493 38.3868 79.4696C39.1888 80.4231 39.385 81.4258 38.9407 82.5152ZM37.5877 87.1762C37.748 87.8336 37.7735 88.5169 37.6627 89.1845C38.3965 87.4492 39.3907 85.8365 40.611 84.4022C40.1225 84.484 39.6452 84.6226 39.1888 84.8154C38.6407 85.5859 38.107 86.3729 37.5877 87.1762ZM50.1396 87.286C49.4897 88.4132 48.7155 89.4639 47.8317 90.4183C48.2029 90.3721 48.5751 90.3172 48.9482 90.2536C49.6889 89.6324 50.2116 88.7898 50.4396 87.8495C50.3312 87.6682 50.2348 87.48 50.1512 87.286H50.1396ZM55.4506 83.3503C54.8361 83.7462 54.2274 84.145 53.6216 84.5553C53.0326 85.2385 52.6038 86.0452 52.3667 86.9161C52.519 87.2573 52.6894 87.5901 52.8773 87.913C52.9927 87.6616 53.1139 87.4189 53.2408 87.1877C54.1063 85.6042 55.1506 84.2577 55.4506 83.3503ZM51.0685 80.3914C50.0301 80.7775 48.9308 80.9732 47.8231 80.9693C49.0698 81.767 50.3893 82.4442 51.7638 82.992C51.7003 83.281 51.6282 83.5931 51.5474 83.8907C51.9022 83.7867 52.2571 83.674 52.6033 83.5526C53.0346 82.9849 53.3047 82.311 53.385 81.6021C52.6573 81.122 51.8843 80.7145 51.0772 80.3856L51.0685 80.3914ZM54.5073 76.1667C54.4928 76.866 54.5073 77.5682 54.5476 78.2646C55.1034 77.6522 55.6026 76.9907 56.0391 76.2881C55.5259 76.2938 55.0132 76.2532 54.5073 76.1667ZM46.3287 76.9903C46.9859 77.9462 47.8918 78.7037 48.9482 79.1806C50.3859 79.3134 51.8321 79.0432 53.1254 78.4004C53.3577 77.9307 53.4749 77.4124 53.4674 76.8882C53.4599 76.3641 53.3278 75.8494 53.0821 75.3865C51.8745 74.2439 50.4131 73.4051 48.8184 72.939C47.696 74.0834 46.8451 75.466 46.3287 76.9845V76.9903ZM56.1978 68.3214C56.8151 68.8473 57.4488 69.353 58.0989 69.8385C58.1289 69.3575 58.1337 68.8752 58.1133 68.3937C58.0948 67.7355 58.0205 67.0801 57.8912 66.4345C56.8488 67.3534 56.2834 67.9756 56.1949 68.3012L56.1978 68.3214ZM58.0008 70.847C57.2568 70.218 56.4484 69.6698 55.5891 69.2114C54.4861 69.1317 53.3929 68.9499 52.3234 68.6682C51.8785 68.9846 51.5122 69.3994 51.253 69.8805C50.9939 70.3616 50.8488 70.8959 50.8291 71.4422C51.6319 72.6307 52.653 73.6555 53.838 74.4619C54.7931 74.7834 55.8003 74.9206 56.8065 74.8664C57.4082 73.5868 57.8109 72.2225 58.0008 70.8209V70.847ZM50.0098 70.2517C50.4193 69.5398 50.6352 68.7327 50.6358 67.9111C49.7394 67.5488 48.9287 67.0025 48.2558 66.3074C47.7245 66.7932 47.1606 67.2422 46.5682 67.651C46.8971 68.5468 47.2288 69.4426 47.5635 70.3384C48.3745 70.5006 49.2122 70.4709 50.0098 70.2517Z" fill="#8C2B1C"/>
<path fill-rule="evenodd" clip-rule="evenodd" d="M57.0139 66.163C57.2504 65.9752 57.4812 65.7787 57.7062 65.5851C57.4842 64.6372 57.0848 63.74 56.5292 62.9411C56.0755 62.1492 55.5695 61.3885 55.0147 60.6641C56.0235 62.3564 56.7019 64.2255 57.0139 66.1717V66.163ZM57.1379 67.1368C57.2032 67.8022 57.2254 68.4711 57.2043 69.1393C57.4927 69.3734 57.7985 69.6016 58.0986 69.827C58.1282 69.3499 58.133 68.8715 58.113 68.3938C58.0945 67.7356 58.0202 67.0802 57.8908 66.4346C57.6024 66.6889 57.3514 66.9201 57.135 67.1281L57.1379 67.1368ZM57.1379 70.1651C56.981 71.7865 56.5732 73.3736 55.9291 74.8694C56.2176 74.8694 56.5061 74.8694 56.7946 74.8694C57.3963 73.5898 57.7991 72.2256 57.9889 70.824C57.7004 70.5899 57.412 70.3645 57.1235 70.1536L57.1379 70.1651ZM55.2512 76.2478C55.0243 76.6581 54.7781 77.0578 54.5127 77.447C54.5127 77.7167 54.5242 77.9854 54.5473 78.2532C55.1031 77.6408 55.6022 76.9793 56.0388 76.2767C55.7763 76.2767 55.5137 76.2767 55.2512 76.2478Z" fill="#712413"/>
<path fill-rule="evenodd" clip-rule="evenodd" d="M35.6111 87.731C36.8083 86.7774 37.9363 85.2893 39.0065 83.6856C40.3566 81.6628 39.8547 79.7874 37.7516 78.2242C39.2227 79.0767 40.8488 79.6268 42.5347 79.8424C43.1117 80.6312 43.2415 81.212 42.8809 81.5328C40.5946 83.5337 38.682 85.926 37.2324 88.5979C36.7941 88.1592 36.2377 87.858 35.6313 87.731H35.6111ZM37.0823 90.6698C38.1867 87.2701 40.2619 84.2692 43.0511 82.0385C43.6482 81.5617 43.9165 81.0791 43.6136 80.6717C43.2703 80.192 42.9559 79.7528 42.6789 79.3425C41.6548 78.9986 40.6595 78.5796 39.6729 78.1461C38.956 77.8288 38.2831 77.4199 37.6709 76.9296C35.0745 74.8607 33.8023 71.6127 33.309 68.333C32.1512 70.6852 31.8791 72.5538 32.4926 73.9389C33.234 74.8722 34.913 76.4904 37.5987 78.7067C39.0412 79.8915 39.5056 81.134 38.9402 82.521C37.774 84.6237 36.2478 86.5046 34.4312 88.0778C35.5645 88.6479 36.4929 89.5567 37.0881 90.6784L37.0823 90.6698Z" fill="#D59929"/>
<path fill-rule="evenodd" clip-rule="evenodd" d="M35.6809 60.9529C37.5259 61.3022 39.2585 62.0955 40.7293 63.2646C40.3697 64.2458 39.7456 65.108 38.9263 65.7554C36.7396 65.5063 34.6534 64.6983 32.8682 63.4091C33.5946 62.3754 34.5595 61.5328 35.6809 60.9529Z" fill="#7E2818"/>
<path fill-rule="evenodd" clip-rule="evenodd" d="M53.0126 36.3189C51.7355 36.8921 50.6153 37.7653 49.747 38.8646C49.346 39.7142 49.2306 41.1446 49.3806 42.0721C49.7008 43.1731 50.3153 43.6787 51.1923 44.4185C51.3045 41.6261 51.9202 38.8772 53.0097 36.3044L53.0126 36.3189ZM45.4659 58.6788C45.5553 58.3139 45.6247 57.9445 45.6736 57.572C45.3678 57.6587 45.0533 57.7541 44.7302 57.861C43.9387 58.1188 43.1311 58.3244 42.3127 58.4765L43.5186 59.092C44.161 58.9244 44.81 58.7866 45.4659 58.6788ZM40.2732 61.2939C39.9094 61.5805 39.5169 61.8284 39.1019 62.0336C39.7109 62.3608 40.2901 62.7408 40.8328 63.1692L40.9107 63.2328V63.2472C41.3307 63.1828 41.7337 63.0354 42.0964 62.8138C42.0095 62.3927 41.8546 61.9886 41.6377 61.6175C41.1773 61.559 40.7245 61.4505 40.2876 61.2939H40.2732ZM36.2979 59.9039C37.0364 59.9617 37.773 60.034 38.5076 60.1207C38.9681 59.9509 39.3993 59.7101 39.7856 59.4069C39.8173 59.2018 39.8577 58.9995 39.9039 58.7972C38.9057 58.8839 37.9509 58.9157 37.0594 58.9446C36.7748 59.2386 36.5197 59.56 36.2979 59.9039ZM46.7554 59.8462L46.1582 59.1902C45.2678 59.0903 44.3664 59.189 43.5186 59.4792C43.3532 59.6911 43.1719 59.8901 42.9762 60.0744L43.2647 60.2507C44.3437 60.0629 45.5091 59.9271 46.7611 59.8317L46.7554 59.8462ZM46.4265 58.8146C46.6861 58.9103 46.9549 58.979 47.2285 59.0197C47.5574 58.7674 47.893 58.5256 48.2353 58.2944C48.0615 58.092 47.8682 57.9072 47.6583 57.7425C47.2305 57.7673 46.81 57.865 46.415 58.0315C46.4664 58.2914 46.4732 58.5581 46.4352 58.8203L46.4265 58.8146ZM51.3307 59.6641C50.9557 59.4508 50.6479 59.1364 50.4422 58.7568C49.9288 58.5983 49.3997 58.4966 48.8642 58.4534C48.3611 58.6313 47.8926 58.8953 47.4795 59.2336C47.568 59.4223 47.6692 59.6047 47.7824 59.7797C48.9017 59.7161 50.0845 59.6776 51.3307 59.6641ZM54.8445 58.3696L52.3981 57.4131C52.3191 57.9625 52.078 58.4756 51.7058 58.8868C51.9074 59.1984 52.1817 59.4562 52.5049 59.6381H54.3108C55.1762 59.6381 55.3205 59.1844 54.83 58.3407L54.8445 58.3696ZM46.389 44.4387C46.8941 44.5923 47.4268 44.6321 47.949 44.5552C48.4712 44.4782 48.9699 44.2865 49.4094 43.9937C49.016 43.5379 48.7108 43.0127 48.5094 42.4449C47.9625 42.3597 47.4069 42.3451 46.8564 42.4015C46.5511 43.0373 46.3915 43.7333 46.389 44.4387ZM51.8154 56.2861C51.8064 56.6805 51.6908 57.065 51.4807 57.3987C50.903 57.0286 50.2868 56.7225 49.6431 56.4855C49.4503 55.9822 49.3686 55.4429 49.4037 54.9049C49.9304 55.036 50.482 55.028 51.0047 54.8818C51.2267 55.3762 51.4983 55.8468 51.8154 56.2861ZM49.3171 53.8011C49.7769 53.9597 50.2803 53.9329 50.7208 53.7264C51.1612 53.5198 51.5041 53.1497 51.6769 52.6944C51.3057 52.3572 50.9307 52.0249 50.5518 51.6974C50.093 51.7251 49.644 51.8429 49.2306 52.0442C49.0893 52.3187 49.0229 52.6258 49.0381 52.9343C49.0533 53.2428 49.1495 53.5418 49.3171 53.8011ZM52.1298 56.1619C52.8428 56.7163 53.5895 57.2259 54.3656 57.6876C54.2733 57.5691 54.1752 57.4507 54.0771 57.3235C53.3011 56.4191 53.3184 54.9367 53.5722 52.9169C53.5896 52.7984 53.6011 52.677 53.6069 52.5585C53.5059 52.4921 53.4078 52.4198 53.3184 52.3476C52.787 53.0256 52.1346 53.5988 51.3942 54.038C51.6452 54.7922 51.899 55.5002 52.15 56.1619H52.1298ZM53.1511 51.2495C53.173 50.6133 52.9988 49.9857 52.652 49.4522C52.0385 49.5986 51.4182 49.7209 50.7913 49.8192C50.7768 50.5705 50.7711 50.9461 50.7711 50.9461C51.2378 51.3417 51.6458 51.8019 51.9827 52.3129C52.4523 52.0584 52.8532 51.6935 53.1511 51.2495ZM51.4779 48.2154L51.9971 49.1257C51.2009 49.2499 50.4047 49.4002 49.6171 49.5793C49.2061 49.3362 48.8983 48.9507 48.7517 48.4957C48.9078 48.0201 49.1417 47.5739 49.444 47.1752C50.2135 47.3017 50.9244 47.6654 51.4779 48.2154ZM49.4008 46.2765C49.889 46.1942 50.3906 46.2575 50.8432 46.4586C50.6666 46.0017 50.569 45.5179 50.5547 45.0282C50.2662 44.9415 49.9777 44.8433 49.6893 44.7392C49.3149 45.0281 48.8628 45.1982 48.3911 45.2276C48.616 45.6689 48.965 46.0345 49.395 46.2794L49.4008 46.2765ZM45.3995 41.0752C46.2558 40.1039 47.3493 39.3721 48.5728 38.9513C48.2412 39.6382 48.0997 40.4016 48.1632 41.1619C47.5919 41.2844 47.0621 41.5532 46.6256 41.9421C46.167 41.7387 45.7547 41.4437 45.4139 41.0752H45.3995Z" fill="#8C2B1C"/>
<path fill-rule="evenodd" clip-rule="evenodd" d="M53.0122 36.3188C52.4855 36.5571 51.984 36.8475 51.515 37.1857C50.9721 39.3642 50.6388 41.5897 50.5197 43.8319C50.7245 44.0197 50.9495 44.2075 51.1947 44.4098V44.3289C51.1947 44.2566 51.1947 44.1844 51.1947 44.115C51.1947 43.9706 51.2121 43.8261 51.2236 43.6787C51.2236 43.6094 51.2236 43.54 51.238 43.4707V43.4446C51.238 43.3031 51.264 43.1557 51.2784 43.0228V43.0083C51.2784 42.9419 51.2928 42.8725 51.2986 42.806V42.7771L51.3246 42.572L51.3505 42.3524C51.3505 42.2811 51.3592 42.2117 51.3765 42.1443V42.0981C51.3765 42.0287 51.3967 41.9594 51.4082 41.89C51.4082 41.8236 51.4284 41.7542 51.44 41.6878C51.44 41.6213 51.4602 41.5548 51.4717 41.4884V41.4566C51.4717 41.393 51.4919 41.3294 51.5034 41.263V41.2312C51.5265 41.0983 51.5525 40.9654 51.5784 40.8324V40.8035L51.6131 40.6186V40.5695C51.639 40.4452 51.665 40.3181 51.6938 40.1938V40.1476C51.6938 40.0869 51.7198 40.0262 51.7342 39.9684V39.9338C51.7515 39.8702 51.7659 39.8066 51.7804 39.743V39.7142L51.8236 39.535V39.5177C51.8236 39.457 51.8554 39.3934 51.8727 39.3327L51.8871 39.2778C51.9015 39.22 51.916 39.1622 51.9333 39.1044V39.0784C51.9708 38.9513 52.0054 38.8241 52.0429 38.6999L52.0573 38.6508L52.1092 38.4803L52.1237 38.4369C52.1612 38.3098 52.2016 38.1826 52.2448 38.0584V38.0353C52.265 37.9746 52.2881 37.9139 52.3083 37.8503V37.8186L52.3718 37.6365V37.6163L52.4323 37.4487L52.4468 37.4111C52.467 37.3562 52.49 37.2984 52.5102 37.2406L52.5275 37.2002C52.5477 37.1395 52.5708 37.0817 52.5939 37.021V36.9979L52.6602 36.8361L52.6747 36.8043C52.6977 36.7436 52.7208 36.6829 52.7468 36.6223V36.5962C52.7699 36.5385 52.7958 36.4807 52.8218 36.42V36.3882L52.8535 36.3188H53.0122ZM50.4793 45.0253C50.4793 45.4674 50.4793 45.9095 50.4793 46.3516C50.5947 46.3834 50.7076 46.424 50.8168 46.473C50.6402 46.0161 50.5427 45.5324 50.5284 45.0426L50.4678 45.0253H50.4793Z" fill="#712413"/>
<path fill-rule="evenodd" clip-rule="evenodd" d="M54.6859 59.6151H54.7205H54.7494H54.7782H54.8071H54.8244H54.8446H54.8648H54.8821L54.9052 59.5978H54.9225L54.9369 59.5833L54.9513 59.5631V59.5486V59.5284C54.9529 59.5208 54.9529 59.5129 54.9513 59.5053V59.488V59.462V59.4359V59.3984C54.9513 59.3984 54.9513 59.3782 54.9513 59.3695V59.1846V59.1528V59.1181V59.0921V59.0776V59.043V59.0141C54.9435 58.9865 54.9338 58.9595 54.9225 58.9332V58.9187V58.8898V58.8754L54.9052 58.8349V58.8205L54.9398 58.5691V58.5546V58.5286V58.5055L54.9167 58.4621L54.8965 58.4246V58.4044V58.3812V58.3581L54.4061 58.1703C54.9398 58.9245 54.859 59.4013 53.9157 59.3666C53.3156 59.3464 52.7213 59.3348 52.1386 59.3319C52.2703 59.4532 52.4155 59.5588 52.5713 59.6469H53.7253H54.3744H54.6282H54.6657H54.6946H54.6513H54.6801L54.6859 59.6151ZM39.1972 62.0771H39.2117L39.4251 62.1955H39.4424C39.5405 62.2533 39.6386 62.3111 39.7309 62.3718C39.8809 62.4643 40.0194 62.5625 40.1694 62.6608L40.38 62.8081L40.6685 63.0162L40.7291 63.0624L40.7579 63.0855L40.807 63.1231L40.8849 63.1867V63.2011L41.0926 63.1924L41.2195 63.1607L41.2801 63.1433L41.332 63.126H41.3522L41.3984 63.1115L41.4503 63.0942H41.4647L41.508 63.0769L41.5542 63.0595L41.6003 63.0422L41.6407 63.0249H41.658L41.6926 63.0104L41.7359 62.9931L41.7705 62.9757H41.7849L41.8196 62.9584L41.8599 62.9353L41.9003 62.9122L41.935 62.8919L41.9696 62.8688H41.9869C41.9667 62.7706 41.9407 62.6752 41.9148 62.5799C41.7474 62.7918 41.4157 62.9247 40.9195 62.9786C40.3998 62.5878 39.8455 62.2454 39.2636 61.9557C39.1799 62.0019 39.0934 62.0453 39.0068 62.0886L39.1107 62.1464L39.1972 62.0771ZM54.3628 57.6675L54.3455 57.6415L54.1868 57.4479L54.0743 57.315C53.2983 56.4105 53.3156 54.9281 53.5695 52.9083C53.5695 52.8765 53.5695 52.8447 53.5695 52.8129V52.7234C53.5695 52.6713 53.5695 52.6193 53.5695 52.5644C53.4685 52.498 53.3704 52.4257 53.281 52.3535C53.2175 52.4383 53.1512 52.5192 53.0819 52.5962C53.0819 52.7407 53.0618 52.8852 53.0444 53.0297C52.8194 54.9137 52.9839 56.2776 53.5378 57.1849C53.8032 57.3612 54.0743 57.5288 54.3484 57.6935L54.3628 57.6675ZM52.4877 49.4668C52.7681 50.0698 52.9558 50.7118 53.0444 51.371C53.0819 51.3248 53.1137 51.2757 53.1483 51.2265C53.1703 50.5903 52.996 49.9627 52.6492 49.4292L52.4877 49.4668ZM50.8952 59.3319C49.7663 59.3473 48.6701 59.3955 47.6065 59.4764C47.6613 59.5747 47.719 59.67 47.7796 59.7654L48.1431 59.7451H48.3191H48.3595H48.5268H48.5412L48.9191 59.7307H48.9336H49.3086H49.3403H49.525L50.1308 59.7133H50.1452L50.9702 59.6989H51.3078C51.1514 59.6105 51.0062 59.5038 50.8751 59.381L50.8952 59.3319ZM46.5247 59.5747C45.3073 59.6979 44.1351 59.8703 43.0081 60.0919L43.262 60.2508H43.3312H43.3514L43.487 60.2277H43.5216L43.8274 60.1786L43.9774 60.1555H44.0091L44.2976 60.115H44.3294L44.6525 60.0717L44.9958 60.0312C45.3333 59.9908 45.6795 59.9561 46.0314 59.9243H46.0949L46.2334 59.9098L46.4122 59.8954L46.7267 59.8694L46.493 59.6122L46.5247 59.5747Z" fill="#712413"/>
<path fill-rule="evenodd" clip-rule="evenodd" d="M17.9008 48.7443C19.1891 49.1106 20.5639 49.0229 21.7953 48.4958L21.752 48.3138C21.3713 46.7216 20.9789 43.9793 23.2377 43.6644L23.3329 43.6499C23.3704 43.673 21.5674 41.1071 18.5701 41.3122C17.4479 43.7973 17.2113 46.4268 17.9008 48.7443Z" fill="#7E2818"/>
<path fill-rule="evenodd" clip-rule="evenodd" d="M62.7985 75.1987C59.7463 74.6988 58.2433 73.176 58.2952 70.6187C58.1361 71.9731 57.7834 73.2975 57.248 74.5514C58.1683 75.4327 59.6453 75.8171 61.6763 75.8922C65.4266 76.0338 67.9162 77.048 69.1393 78.7327C69.4826 79.1864 69.9644 78.8425 69.8115 78.5362C69.0124 76.9382 66.6382 75.8286 62.8014 75.1987H62.7985Z" fill="#FFCC05"/>
<path fill-rule="evenodd" clip-rule="evenodd" d="M43.6429 42.7917C43.0391 42.4853 42.4604 42.1317 41.912 41.7341C41.8255 41.7833 41.7418 41.8266 41.6553 41.8699C41.1514 43.8163 40.3233 45.6637 39.2061 47.3342C40.4325 46.4926 41.7556 45.8018 43.1467 45.2768C43.2484 44.4417 43.4143 43.6157 43.6429 42.8062V42.7917Z" fill="#8C2B1C"/>
<path fill-rule="evenodd" clip-rule="evenodd" d="M42.5609 42.182C42.3388 42.0404 42.1167 41.8931 41.9032 41.7341L41.7849 41.7948H41.7676H41.7503L41.6955 41.8237L41.6753 41.8988V41.9191L41.658 41.9769V41.9971C41.6378 42.0751 41.6176 42.1531 41.5945 42.2283L41.5801 42.2889V42.3178V42.367V42.3959C41.5656 42.4421 41.5541 42.4883 41.5397 42.5346L41.5166 42.6068V42.6386L41.4993 42.6993V42.7224V42.76L41.4849 42.8033L41.4531 42.9044L41.4272 42.9824L41.381 43.1212C41.3435 43.231 41.3031 43.3379 41.2627 43.4477L41.2368 43.517V43.5315L41.2224 43.5719L41.1964 43.6413L41.1733 43.6962L41.1445 43.7684V43.7858L41.0925 43.9158L41.0348 44.0603L41.0146 44.1065L41.0002 44.1412L40.9829 44.1788V44.2163L40.9656 44.2568L40.8041 44.4099L40.781 44.4648L40.7608 44.5053V44.5284L40.7377 44.5775L40.7117 44.6353L40.6858 44.696L40.6714 44.7278V44.7422L40.6281 44.8405L40.6108 44.878L40.5877 44.9272V44.9503L40.5156 44.9878L40.4896 45.0399V45.063L40.4579 45.1294V45.1554L40.4233 45.2219L40.4088 45.2537L40.3857 45.3028L40.3713 45.3259L40.3367 45.3953V45.4097C40.3079 45.4646 40.279 45.5195 40.253 45.5744V45.5918L40.2242 45.6496L40.1982 45.6958L40.1809 45.7305L40.1665 45.7565C40.1088 45.8663 40.0482 45.9761 39.9876 46.083L39.9703 46.1148L39.9328 46.1842L39.8838 46.2708C40.747 45.0574 41.4791 43.7556 42.0676 42.3872C42.2388 42.3388 42.4042 42.272 42.5609 42.1878V42.182Z" fill="#712413"/>
<path fill-rule="evenodd" clip-rule="evenodd" d="M33.5718 50.7296L35.5278 50.6892C36.0439 50.302 36.6239 50.0086 37.2413 49.8223L37.3452 49.6431L37.3683 49.6056L37.3827 49.5796L37.4115 49.5304L37.4577 49.4582L37.4779 49.4235L37.5039 49.3802L37.5183 49.3571L37.5327 49.3368V49.3166L37.5587 49.2762L37.7058 49.0392L37.7491 48.9727L37.7693 48.941L37.8097 48.8803L37.8904 48.7531L37.9654 48.6375L37.9827 48.6086C37.0769 48.1521 35.7153 48.9381 33.6555 50.6834L33.5228 50.7932L33.5718 50.7296ZM23.423 47.4268C22.8984 47.0028 22.3331 46.6321 21.7354 46.3201C21.7653 46.9736 21.862 47.6223 22.0238 48.2561C22.3873 48.311 22.7797 48.0452 23.1922 48.1694C23.6047 48.2937 23.9624 48.9063 24.3807 49.9754C24.4211 49.7269 24.4558 49.4755 24.4846 49.227C24.2339 48.5722 23.8761 47.9638 23.4259 47.4268H23.423ZM25.7309 46.6061C26.1609 47.8279 26.2847 49.1367 26.0915 50.4176L27.3031 52.5645C27.7131 52.4931 28.1276 52.4506 28.5436 52.4374C27.7694 51.0879 27.0944 49.6837 26.5242 48.2359C26.2938 47.6757 26.0268 47.1313 25.7251 46.6061H25.7309ZM28.7109 57.5405C31.1082 56.792 33.0035 56.1534 34.3911 55.5986C34.1748 55.3629 33.9393 55.1454 33.6872 54.9485C32.4448 55.1161 31.1947 55.2461 29.9369 55.3386C29.4519 56.0282 29.0391 56.766 28.7051 57.5405H28.7109ZM35.245 51.3076C34.4986 51.3313 33.7514 51.2897 33.0122 51.1833C31.8577 52.1094 30.5571 52.836 29.1638 53.3332L30.5283 54.2752C31.675 54.3306 32.8214 54.1618 33.9036 53.7782C34.488 53.0372 34.9417 52.2017 35.245 51.3076Z" fill="#8C2B1C"/>
<path fill-rule="evenodd" clip-rule="evenodd" d="M45.4949 79.7644C44.5886 79.1152 43.7651 78.3573 43.0428 77.5076C40.7695 74.7625 42.6447 69.8472 48.4461 62.9382C39.9502 69.5843 42.8985 79.5217 37.6452 74.1383C35.1585 71.5868 34.7056 67.8592 34.4863 64.5592C34.1017 64.3666 33.7276 64.1518 33.3641 63.9149C33.1189 70.272 35.1931 75.8577 39.7916 77.8948C41.6638 78.7213 43.5592 79.4639 45.4949 79.7644ZM33.4622 62.4585C33.772 62.1285 34.1088 61.825 34.469 61.5512C34.7306 56.9085 36.3067 52.1695 39.1973 47.3342C39.0415 47.5741 38.8799 47.8168 38.7097 48.0595C35.7622 52.3318 33.9556 57.2888 33.4622 62.4585Z" fill="#E7B021"/>
<path fill-rule="evenodd" clip-rule="evenodd" d="M45.4949 79.7645C44.5886 79.1153 43.7651 78.3574 43.0428 77.5077C41.1244 75.196 42.16 71.324 46.0228 66.0186C41.5744 71.6678 40.5416 75.5544 43.6832 78.6434C41.032 78.1001 38.528 76.8345 36.9961 75.0689C35.0551 71.7382 33.9355 67.9916 33.7305 64.1404C33.6065 64.0681 33.4853 63.993 33.3641 63.915C33.1189 70.2721 35.1931 75.8578 39.7916 77.895C41.6638 78.7214 43.5592 79.464 45.4949 79.7645ZM33.7017 62.213C33.731 61.0945 33.837 59.9794 34.019 58.8755C33.7605 60.0573 33.5745 61.254 33.4622 62.4586C33.5401 62.3748 33.6209 62.2939 33.7017 62.213Z" fill="#D59929"/>
<path fill-rule="evenodd" clip-rule="evenodd" d="M54.1639 81.4373C55.1476 82.047 55.5659 82.7319 55.1592 83.3358L54.9341 83.6739L55.4505 83.3387C55.5333 83.1355 55.5544 82.9123 55.5111 82.6972C55.4015 82.2782 54.9053 81.8823 54.1639 81.4373ZM50.2809 87.5604C50.9692 86.3475 51.542 85.0724 51.9916 83.7519L51.5473 83.8848C51.2245 85.0702 50.7513 86.2094 50.1395 87.2744C50.1828 87.3726 50.229 87.468 50.2809 87.5633V87.5604ZM52.7272 87.6327C51.8924 89.4458 51.3221 91.3697 51.0338 93.3454C50.3732 92.1694 49.3289 91.0829 47.7826 90.8546C47.9442 90.6928 48.1057 90.5252 48.2644 90.3489C48.1202 90.372 47.9759 90.3894 47.8317 90.4067C47.6182 90.6417 47.3961 90.8729 47.1653 91.1002C48.0348 91.323 48.8467 91.7294 49.5467 92.292C50.2468 92.8546 50.8187 93.5606 51.2242 94.3626C51.6252 91.8515 52.0897 89.6525 52.8773 87.9014C52.8253 87.8118 52.7763 87.7223 52.7272 87.6327ZM47.823 80.9692C48.1709 80.9688 48.5186 80.9495 48.8644 80.9114C46.6431 79.6342 45.0103 78.1576 44.0612 76.4209C42.5092 73.5949 44.0612 69.0466 48.4461 62.938L48.1923 63.2819L47.9442 63.6228L47.7019 63.958L47.4653 64.2903L47.2345 64.6169L47.0095 64.9405L46.7874 65.2612L46.5739 65.5762L46.3633 65.8883L46.1614 66.1975L45.769 66.7985L45.5844 67.0875L45.4026 67.3764L45.2267 67.6654L45.0565 67.9544L44.8891 68.2433L44.7305 68.5323L44.5776 68.8039L44.2891 69.3385L44.1506 69.5986L44.0208 69.8557L43.8939 70.11C43.8102 70.2776 43.7323 70.4423 43.6573 70.6041L43.5477 70.8469L43.4438 71.0838L43.3458 71.3179L43.2534 71.5491C43.1929 71.7022 43.138 71.8525 43.0861 71.9998L43.0082 72.2194L42.939 72.4362L42.8726 72.6471L42.8149 72.8581L42.7601 73.0632L42.7111 73.2626L42.6707 73.462L42.6332 73.6556L42.6015 73.8463C42.5651 74.0885 42.5419 74.3326 42.5322 74.5774V74.7508C42.5322 74.8085 42.5322 74.8634 42.5322 74.9183C42.5366 75.0827 42.5501 75.2467 42.5726 75.4096L42.5986 75.5656C42.6159 75.6697 42.639 75.7708 42.6649 75.869C42.6909 75.9673 42.7197 76.0626 42.7544 76.158L42.8063 76.2967L42.8669 76.4325C42.9065 76.5224 42.9508 76.6102 42.9996 76.6955L43.0746 76.8226L43.1582 76.944L43.2448 77.0653L43.3371 77.1809L43.4352 77.2965L43.614 77.4901L43.6458 77.5248L43.7121 77.597L43.7352 77.6201L43.8217 77.7126L43.9112 77.808L43.9314 77.8282L44.1218 78.0218L44.2199 78.12L44.3122 78.2125L44.3324 78.2327L44.5228 78.4148L44.5401 78.4321L44.6353 78.5217L44.742 78.62L44.843 78.7124H44.8574L44.9555 78.802L45.0565 78.8887L45.2642 79.0707L45.2872 79.091L45.495 79.2672L45.5209 79.2875L45.9854 79.666L46.196 79.8307C46.6979 80.215 47.2259 80.5878 47.7826 80.9403L47.823 80.9692Z" fill="#E7B021"/>
<path fill-rule="evenodd" clip-rule="evenodd" d="M39.3006 83.1942C39.9814 81.9054 39.9007 80.686 39.1275 79.5792L38.9285 79.4059C38.7496 79.4319 38.5679 79.455 38.3861 79.4752L38.4034 79.4955L38.4294 79.5301L38.4438 79.5475L38.4755 79.5879L38.513 79.6399V79.6544L38.5419 79.6948V79.7093L38.5707 79.7497L38.6429 79.8567V79.8769L38.6631 79.9087V79.9289L38.689 79.9693L38.7121 80.004L38.7352 80.0474L38.7496 80.0734V80.0994L38.7669 80.1283V80.1456C38.7958 80.2015 38.8217 80.2564 38.8448 80.3103V80.3277L38.8592 80.3623V80.3826C38.8737 80.4172 38.8852 80.4548 38.8996 80.4895V80.5039L38.914 80.5473L38.9314 80.5964L38.9487 80.6513V80.6657L38.9631 80.712V80.7611V80.8102V80.868V80.9171V80.9345V80.9836V81.0414V81.4748V81.5326V81.5731V81.5962V81.6395V81.654L38.9458 81.7667V81.7869V81.8303C38.9458 81.8707 38.9285 81.9141 38.9169 81.9545L38.9025 82.0123V82.0296V82.0701V82.0874V82.1308V82.1481L38.8852 82.203V82.2232V82.2666L38.8679 82.3186L38.8448 82.3822L38.79 82.4746V82.4949V82.5122L38.7467 82.5873L38.7236 82.622L38.6948 82.674L38.6602 82.7289L38.6227 82.7954L38.5621 82.8965L38.5015 82.9948V83.0092C38.4698 83.0641 38.4352 83.1161 38.4034 83.1682C38.6763 83.0791 38.9617 83.0342 39.2487 83.0352L39.3006 83.1942ZM41.9922 79.7613C42.1652 79.7902 42.3412 79.8191 42.5201 79.8422C42.7252 80.1045 42.8887 80.3969 43.0047 80.7091C43.2461 80.7516 43.485 80.8076 43.7202 80.8767V80.8594C43.7103 80.8453 43.6997 80.8318 43.6884 80.8189V80.8016V80.7842V80.7669V80.7495L43.6538 80.6917C43.3105 80.2121 42.9961 79.7728 42.7191 79.3625L42.6672 79.3452H42.6441L42.5951 79.3307L42.5432 79.3105H42.5172L42.3932 79.2672H42.3556L42.2951 79.244H42.272L42.2114 79.2209H42.1768H42.1479L42.0902 79.1978L41.9575 79.0851H41.9373H41.9171L41.6921 79.0013H41.6691H41.6402L41.5681 78.9724L41.4671 78.9349L41.4152 78.9146L41.3575 78.8915L41.2219 78.8366C41.5176 79.1222 41.7755 79.4446 41.9893 79.796L41.9922 79.7613ZM39.7766 85.4423C39.8026 85.4018 39.8314 85.3643 39.8603 85.3267L39.8776 85.3036L39.9641 85.188L40.0535 85.0695L40.0709 85.0493L40.1488 84.9481L40.1689 84.9222L40.2584 84.8095L40.3478 84.6996L40.3709 84.6708L40.4545 84.5696L40.4719 84.5494L40.5526 84.4511L40.5844 84.4165L40.5988 84.3991C40.3781 84.4369 40.1595 84.4861 39.9439 84.5465C39.1105 85.5544 38.358 86.627 37.6938 87.754C37.751 88.226 37.7403 88.7038 37.662 89.1728L37.7082 89.0687V89.037C37.7284 88.9936 37.7486 88.9503 37.7659 88.904L37.9043 88.6151L37.9678 88.4793L38.037 88.3377L38.1005 88.2105L38.1149 88.1787L38.1813 88.0487V88.0343L38.2476 87.9071L38.265 87.8724L38.3313 87.7453C38.3573 87.6991 38.3832 87.6528 38.4063 87.6066V87.5893L38.4669 87.4766L38.49 87.4332L38.6371 87.1703L38.7121 87.0431V87.0258L38.7842 86.9015L38.7986 86.8784L38.8737 86.7542L38.9487 86.6357L38.966 86.6039L39.0381 86.4912L39.0554 86.4652L39.1333 86.3438L39.2227 86.208C39.2544 86.1618 39.2833 86.1156 39.315 86.0722C39.2833 86.1156 39.2544 86.1618 39.2227 86.208L39.6987 85.529L39.7766 85.4423ZM34.3502 72.257C34.2318 72.9351 34.0738 73.6056 33.8771 74.2652C34.3128 75.0738 34.9276 75.7717 35.6744 76.3053C36.0364 76.2162 36.4035 76.1487 36.7735 76.103L36.6812 76.0019L36.6639 75.9846L36.5715 75.8863L36.4792 75.7823C36.384 75.6725 36.2888 75.5598 36.1908 75.4442L36.009 75.213V75.1957L35.9311 75.0917V75.0772L35.8561 74.9732L35.8417 74.953L35.7638 74.8403L35.683 74.7218C35.6282 74.6409 35.5763 74.5571 35.5215 74.4733V74.456L35.4494 74.3404L35.3686 74.2132C35.3426 74.1728 35.3195 74.1323 35.2965 74.0919V74.0745L35.2272 73.9503C35.2013 73.9098 35.1782 73.8665 35.1551 73.826V73.8087L35.0916 73.6931V73.6758C35.0686 73.6324 35.0455 73.5891 35.0253 73.5457C34.982 73.459 34.9359 73.3724 34.8926 73.2828V73.2597L34.8349 73.1383C34.8118 73.095 34.7916 73.0516 34.7714 73.0083C34.7512 72.9678 34.7339 72.9245 34.7137 72.884V72.8667C34.6503 72.728 34.5897 72.5777 34.532 72.4477L34.4829 72.3292L34.3502 72.257ZM33.303 72.8811C32.8582 71.7831 32.6985 70.5902 32.8386 69.4136C32.8126 69.4743 32.7895 69.5349 32.7665 69.5927L32.752 69.6361L32.7318 69.6852L32.7145 69.7343L32.6972 69.7748L32.677 69.8297L32.6626 69.8759L32.6482 69.9135L32.6193 69.9973L32.5876 70.0926L32.5616 70.1735V70.1996L32.5414 70.2631V70.3007L32.5241 70.3527V70.3845C32.5068 70.4452 32.4895 70.503 32.4751 70.5636V70.581L32.4549 70.659L32.4376 70.7255V70.7688V70.8064V70.8497V70.9104V70.9335L32.403 71.0982V71.1445V71.182V71.2225V71.2745V71.3005V71.3554V71.3872C32.403 71.4421 32.3857 71.4941 32.3799 71.549V71.5692V71.6328V71.653V71.7137V71.7397V71.7917V71.8986V72.0518V72.728V72.7886V72.8551V72.8782V72.9245V72.9476V72.9996V73.0198V73.0718V73.0892C32.3799 73.1354 32.3972 73.1816 32.4059 73.225V73.2539V73.2914V73.3174V73.3637V73.381V73.433V73.4504V73.4966V73.5168L32.426 73.5804L32.4462 73.6382V73.6555L32.4635 73.7047V73.722L32.4809 73.7653V73.7913L32.4953 73.8231V73.852L32.5212 73.9127L32.6597 74.0803L32.7059 74.1323C32.8334 73.6702 33.0372 73.2326 33.3088 72.8378L33.303 72.8811ZM39.4016 85.9884L39.4852 85.867L39.4997 85.8468L39.5804 85.7312V85.7081L39.6583 85.5983L39.6785 85.5723L39.7593 85.4596L39.3756 86.0029L39.4016 85.9884Z" fill="#712413"/>
<path fill-rule="evenodd" clip-rule="evenodd" d="M51.2934 57.9535C51.0197 57.5505 50.6538 57.2189 50.2263 56.9862C49.7988 56.7535 49.322 56.6264 48.8355 56.6156C48.472 55.2112 47.8778 55.0032 46.9517 53.7982C45.1574 51.4605 47.3008 46.736 49.1182 46.3054C48.5955 46.3764 48.1082 46.6099 47.7249 46.9729C45.5035 50.3856 45.3074 53.1798 47.3267 55.1737C47.8817 55.6697 48.3277 56.2759 48.6365 56.9537C49.1235 56.9344 49.6095 57.013 50.0658 57.1847C50.5221 57.3564 50.9395 57.6178 51.2934 57.9535Z" fill="#D59929"/>
<path fill-rule="evenodd" clip-rule="evenodd" d="M49.3868 54.9222C49.357 55.448 49.4396 55.9741 49.6291 56.4653C50.0735 56.626 50.5054 56.8191 50.9215 57.0432C50.5212 56.2583 50.0036 55.5392 49.3868 54.9106V54.9222Z" fill="#712413"/>
<path fill-rule="evenodd" clip-rule="evenodd" d="M35.5279 50.6889C36.044 50.3017 36.624 50.0083 37.2414 49.822L37.3453 49.6457L37.3684 49.6081L37.3828 49.5821L37.4117 49.533L37.4578 49.4608L37.478 49.4261L37.504 49.3828L37.5184 49.3596L37.5328 49.3394V49.3192L37.5588 49.2787C37.6078 49.2007 37.654 49.1227 37.703 49.0476L37.7463 48.9811L37.7665 48.9493L37.8069 48.8886L37.8877 48.7615L37.9627 48.6459L37.98 48.617C37.0741 48.1604 35.7125 48.9464 33.6527 50.6918L33.6066 50.7293L33.5892 50.7467L35.5394 50.712L35.5279 50.6889ZM28.1398 51.7494C28.0561 51.5904 27.9696 51.4286 27.8859 51.2581L27.8715 51.2321L27.8225 51.1339L27.7648 51.0183L27.7301 50.946L27.6725 50.8276L27.6061 50.6946L27.5513 50.5762L27.5253 50.5242V50.5097L27.4965 50.4461L27.4244 50.2959V50.2785L27.3984 50.2236V50.2092L27.3465 50.0994V50.0705L27.3263 50.03V50.004L27.2138 49.7526L27.1503 49.611C27.0984 49.4897 27.0436 49.3683 26.9916 49.2441L26.9657 49.1892L26.9195 49.0793L26.8849 49.0013L26.8099 48.8222L26.7955 48.7875L26.781 48.7586L26.7118 48.591L26.6858 48.5303L26.6166 48.3685L26.5993 48.328L26.5618 48.2356L26.5214 48.1373L26.4839 48.0564V48.0333L26.4089 47.8599V47.8397L26.3772 47.7646L26.3598 47.7328L26.3281 47.6577L26.2993 47.5912L26.2733 47.5363L26.2473 47.4872L26.2329 47.4525L26.1983 47.3831L26.0916 47.2993L26.0714 47.2618L26.0396 47.1982V47.1838L25.9992 47.1086L25.9819 47.074L25.9617 47.0364L25.9416 46.9988L25.9069 46.9352L25.8637 46.8572C25.8348 46.8023 25.8031 46.7474 25.7713 46.6925L25.7338 46.6261C26.1595 47.8418 26.2822 49.1432 26.0916 50.4172L27.3032 52.5642C27.7132 52.4928 28.1277 52.4503 28.5437 52.4371L28.5206 52.3995L28.4542 52.2868L28.3994 52.2117V52.1915L28.3273 52.0672L28.3013 52.0239L28.284 51.9921L28.2667 51.9603L28.2436 51.9198L28.2148 51.8649L28.1802 51.8014V51.784L28.16 51.7494H28.1398ZM21.7355 46.3198V46.3949C21.7355 46.4556 21.7355 46.5191 21.7355 46.5827C21.7355 46.6116 21.7355 46.6463 21.7355 46.6781C21.7355 46.7416 21.7355 46.8081 21.7528 46.8746V46.9728C21.7528 47.0364 21.7672 47.1028 21.7787 47.1693V47.1953L21.7932 47.282V47.2993L21.8076 47.4005L21.8249 47.5103L21.8422 47.6143V47.6403L21.8624 47.7386C21.8768 47.8166 21.8941 47.8975 21.9114 47.9755L21.9374 48.0882V48.1055L21.9662 48.2211C22.3297 48.276 22.7221 48.0102 23.1346 48.1344L23.1692 48.1489L23.2038 48.1633L23.2356 48.1807L23.2673 48.2009L23.299 48.224L23.3308 48.25L23.3625 48.2789C23.3724 48.2902 23.3829 48.3009 23.3942 48.3107C23.4062 48.3198 23.4169 48.3305 23.426 48.3425L23.501 48.4263C23.515 48.4404 23.5276 48.4559 23.5385 48.4725L23.5731 48.5188L23.6077 48.5679L23.6423 48.617L23.677 48.6719L23.7116 48.7297L23.7462 48.7904C23.7866 48.8568 23.827 48.9291 23.8645 49.0071L23.8991 49.0765V49.0909L23.9308 49.1545V49.1776L23.9654 49.2469L24.0001 49.3221V49.3394C24.026 49.3914 24.0491 49.4463 24.0722 49.5041V49.5272L24.1039 49.6024V49.6197C24.1299 49.6775 24.1529 49.7382 24.1789 49.8018V49.8249L24.1962 49.8653C24.2366 49.6168 24.2712 49.3654 24.3001 49.1169C24.0494 48.4621 23.6916 47.8537 23.2413 47.3167C22.7168 46.8927 22.1515 46.522 21.5537 46.21L21.7355 46.3198ZM28.7023 57.5401L28.7485 57.5257H28.7802L29.0976 57.4246L29.2706 57.3697L29.7726 57.2107L30.1765 57.0836L30.2486 57.0576L30.338 57.0316L30.6265 56.9391L31.2612 56.7311L31.3881 56.6877L31.5497 56.6328H31.5814L32.017 56.4854L32.1699 56.4334C32.5507 56.3034 32.9055 56.1762 33.2431 56.0549H33.2661L33.321 56.0347H33.3469L33.3931 56.0173H33.4133L33.7421 55.896L33.7854 55.8786L33.97 55.8093L34.0104 55.7919H34.0335L34.0883 55.7717H34.1114H34.1316L34.2528 55.7255L34.3133 55.6995L34.3883 55.6706C34.172 55.4348 33.9366 55.2173 33.6844 55.0204L33.4912 55.0464C33.4912 55.1013 33.4912 55.1562 33.4912 55.2111C31.6679 56.0491 30.2169 56.55 29.1379 56.7137C28.9793 57.0027 28.8495 57.3061 28.7052 57.6124L28.7023 57.5401ZM30.9583 52.5324L30.7881 52.6249L30.7275 52.6596H30.7102L30.6583 52.6856H30.6438L30.5977 52.7087L30.5659 52.726L30.5313 52.7434H30.5054L30.4707 52.7636L30.4361 52.7809L30.4015 52.7954H30.3813L30.3207 52.8243L30.2832 52.8416H30.2573L30.2111 52.8619L30.1736 52.8792H30.1476L30.1159 52.8936L30.0755 52.911H30.0553L29.8043 53.0208L29.7582 53.0381L29.7178 53.0555L29.6688 53.0728H29.6399L29.6082 53.0872L29.4668 53.1393H29.4351H29.4178L29.3745 53.1566L29.3226 53.1768L29.2043 53.2173L30.2717 53.9541C31.6945 53.491 33.0352 52.8054 34.2441 51.9227C33.911 52.5394 33.6829 53.2074 33.5691 53.8992C33.6787 53.8674 33.7854 53.8299 33.895 53.7923C34.4795 53.0514 34.9332 52.2158 35.2365 51.3217C34.49 51.3454 33.7429 51.3038 33.0036 51.1974L32.8565 51.3101L32.8277 51.3304C32.7094 51.4199 32.5882 51.5095 32.4728 51.5904L32.4353 51.6164L32.4036 51.6395L32.369 51.6656L32.317 51.7002L32.1699 51.8014L32.1151 51.8389L32.0776 51.8621L31.9593 51.9401L31.9276 51.9632L31.8814 51.9921L31.8526 52.0123L31.8295 52.0268L31.7833 52.0557L31.7343 52.0845L31.616 52.1597L31.567 52.1915L31.5208 52.2175L31.466 52.2493L31.44 52.2666L31.3997 52.2897L31.3737 52.307L31.3304 52.3302L31.3045 52.3475L31.2439 52.3822L31.1804 52.4197L31.1458 52.44L31.1169 52.4544L31.0737 52.4775L31.0506 52.492L31.0102 52.5151H30.99L30.9583 52.5324Z" fill="#7E2818"/>
<path fill-rule="evenodd" clip-rule="evenodd" d="M21.3661 44.956C21.4207 44.6288 21.5474 44.3179 21.7371 44.046C21.9267 43.7741 22.1745 43.5479 22.4624 43.384C22.0661 42.9022 21.565 42.5176 20.9975 42.2597C20.43 42.0017 19.811 41.8773 19.1881 41.8959C18.7715 42.5465 18.5255 43.2919 18.4727 44.0631C19.4781 44.1935 20.4538 44.4955 21.3575 44.956H21.3661Z" fill="#975035"/>
<path fill-rule="evenodd" clip-rule="evenodd" d="M35.5769 61.3171C36.0819 61.3403 36.582 61.4267 37.0655 61.5743C36.3281 62.3428 35.6628 63.1776 35.0779 64.0681C34.4515 63.9662 33.8737 63.6677 33.4277 63.2156C34.1162 62.551 34.8327 61.9182 35.5769 61.3171Z" fill="#8B3C1F"/>
<path fill-rule="evenodd" clip-rule="evenodd" d="M34.5326 65.2151C36.0264 65.7435 37.5643 66.1371 39.1281 66.3912C40.0249 65.6804 40.7053 64.7325 41.0927 63.6547C42.9159 63.5681 43.439 62.7484 42.662 61.1957C46.6221 60.2177 50.7198 59.9245 54.7784 60.3288C54.6658 60.1814 54.5533 60.0398 54.4379 59.8953C50.3215 59.6454 46.19 59.8889 42.1312 60.6206C41.8745 60.6669 41.8428 60.8114 42.0245 61.0425C43.0457 62.2937 42.6563 63.0653 40.8475 63.3542C40.4756 64.3414 39.8423 65.2085 39.0156 65.8624L38.9146 65.8913C37.3724 65.7158 35.8744 65.2636 34.4922 64.5563C34.4922 64.7701 34.521 64.9869 34.5383 65.2065L34.5326 65.2151Z" fill="#E7B021"/>
<path fill-rule="evenodd" clip-rule="evenodd" d="M58.1452 74.8318C58.4474 74.4367 58.6886 73.9983 58.8607 73.5314C59.63 74.4388 61.0666 75.0167 63.1706 75.2652L62.7985 75.2016C59.7463 74.7017 58.2433 73.1789 58.2952 70.6216C58.1358 71.975 57.7831 73.2985 57.248 74.5515C58.1683 75.4328 59.6453 75.8171 61.6763 75.8922H61.8897C60.2569 75.7497 59.0068 75.3933 58.1395 74.8231L58.1452 74.8318Z" fill="#E7B021"/>
<path fill-rule="evenodd" clip-rule="evenodd" d="M28.166 25.4855C27.7546 25.3803 27.3206 25.4075 26.9255 25.5635C26.2159 25.8525 25.9822 26.6789 25.9678 27.384C25.9965 28.4573 26.3005 29.5052 26.8505 30.4268C26.9304 31.1022 27.1144 31.7611 27.3958 32.3801C28.792 35.4287 31.2355 37.5641 34.2646 38.9222C35.306 40.5462 36.9013 42.1211 38.9063 42.3233C39.3505 42.4109 39.8068 42.4178 40.2535 42.3436C41.2228 42.1846 42.1084 41.6529 42.9104 41.1097C43.9403 40.4133 44.9154 39.6649 45.9626 38.98C46.6253 38.5586 47.3209 38.1914 48.0425 37.882C48.5849 37.6479 49.1474 37.4399 49.684 37.1885C50.3583 36.9972 50.9569 36.6015 51.3976 36.0557C51.4755 35.9719 51.5534 35.8881 51.637 35.8101C52.0512 35.453 52.493 35.1293 52.9583 34.8421C53.479 34.5096 53.9626 34.1221 54.4007 33.6863C55.7104 32.3253 56.0162 30.4846 56.0162 28.6612C56.0584 26.4229 55.902 24.1852 55.5489 21.9746C56.7009 21.815 57.7931 21.3635 58.7222 20.6628C61.5464 18.4695 61.6561 14.4443 61.1195 11.2195C61.106 11.1279 61.0692 11.0413 61.0128 10.9681C60.6752 10.5173 59.7809 10.7369 59.3367 10.8698C58.495 11.1419 57.6936 11.5258 56.9538 12.0112C56.1691 12.5198 55.2719 13.2451 54.8104 14.0715C54.3471 14.9074 53.7639 15.6707 53.0795 16.337C52.2503 15.4535 51.227 14.7758 50.0908 14.3576C50.2301 13.8095 50.4773 13.2947 50.8177 12.8434C50.9294 12.8742 51.0432 12.8964 51.1582 12.9099C51.9255 12.9966 52.7708 12.6787 53.1025 11.9361C53.1994 11.7114 53.2405 11.4666 53.2224 11.2226C53.2043 10.9786 53.1276 10.7425 52.9987 10.5346C52.6019 9.93544 52.0381 9.4662 51.3774 9.18519C48.9801 8.02934 46.8453 10.5578 49.1474 11.965C49.2228 12.6485 49.1184 13.3398 48.8445 13.9704C48.0045 13.7707 47.148 13.6489 46.2857 13.6063C45.5023 13.5576 44.7163 13.5683 43.9345 13.6381C43.6801 13.0246 43.5858 12.3563 43.6605 11.6963C45.9683 10.2861 43.8249 7.75483 41.4276 8.91356C40.7679 9.19632 40.2046 9.66519 39.8063 10.263C39.6774 10.4714 39.6007 10.7079 39.5826 10.9524C39.5645 11.1969 39.6056 11.4422 39.7025 11.6674C40.0342 12.4071 40.8795 12.7279 41.6469 12.6383C41.7618 12.6258 41.8756 12.6045 41.9873 12.5747C42.2723 12.9517 42.4926 13.3736 42.6392 13.823C41.2933 14.0691 40.0179 14.6088 38.9034 15.4036C38.6193 15.0386 38.3637 14.6522 38.1389 14.2478C37.7235 13.5052 36.9157 12.8521 36.2089 12.3955C35.5459 11.9584 34.8268 11.6134 34.0713 11.3697C33.6616 11.2484 32.8568 11.0519 32.5452 11.4651C32.4944 11.5342 32.4608 11.6144 32.4471 11.6992C31.899 14.9933 32.1586 19.0706 35.5166 20.7552L35.5656 20.7812C35.4128 21.4657 35.3163 22.1615 35.2771 22.8617C34.0892 22.8244 32.901 22.9282 31.7374 23.1709C30.298 23.4749 29.02 24.2975 28.1458 25.4826L28.166 25.4855Z" fill="#8D4F21"/>
<path fill-rule="evenodd" clip-rule="evenodd" d="M35.6261 20.5615C33.1567 19.3248 31.8989 16.3918 32.6721 11.7395C32.8423 10.7108 36.9099 12.4908 37.9571 14.3575C38.1873 14.7689 38.4487 15.1621 38.7389 15.5336C38.3924 15.8036 38.0673 16.1002 37.7667 16.4207C36.7052 17.5906 35.9673 19.018 35.6261 20.5615Z" fill="#FBC867"/>
<path fill-rule="evenodd" clip-rule="evenodd" d="M33.826 13.2625C33.6472 15.9122 34.729 17.8598 36.1339 18.9926C36.4819 18.1433 36.9629 17.3551 37.559 16.6578C36.5252 15.3146 35.2624 14.1651 33.8289 13.2625H33.826Z" fill="#EF5A7B"/>
<path fill-rule="evenodd" clip-rule="evenodd" d="M35.7348 20.1368C33.4269 18.614 32.5615 15.655 33.1125 12.462C33.1125 12.1412 33.1875 11.9158 33.3404 11.884C34.1279 11.7598 35.0713 12.0372 36.1589 12.6122C34.6328 11.6095 32.7836 11.0461 32.6711 11.7309C31.898 16.3832 33.1558 19.3161 35.6223 20.5529C35.6569 20.4113 35.6944 20.2639 35.7348 20.1281V20.1368Z" fill="#E7A622"/>
<path fill-rule="evenodd" clip-rule="evenodd" d="M36.2089 18.1719C34.919 16.8259 34.0852 15.1071 33.826 13.2595C33.6472 15.9093 34.729 17.8569 36.1339 18.9896C36.2204 18.7816 36.3156 18.5735 36.4224 18.3713C36.7355 17.754 37.123 17.1775 37.5763 16.6548C37.0172 17.0493 36.5562 17.5674 36.2291 18.169L36.2089 18.1719Z" fill="#E05070"/>
<path fill-rule="evenodd" clip-rule="evenodd" d="M51.2303 35.9142C52.7765 34.1804 55.7969 34.1457 55.7969 28.6728C55.8368 26.4335 55.6795 24.195 55.3267 21.9833C54.6315 22.0119 53.9352 21.9663 53.2496 21.8475H53.2208C53.7168 21.8909 54.2154 21.8967 54.7122 21.8649C54.9084 21.8504 55.1017 21.8331 55.2892 21.81C54.8882 19.7208 54.1959 17.9841 53.0535 16.6664C52.8486 16.8543 52.6352 17.0334 52.4159 17.2039C52.6005 16.9901 52.7736 16.7676 52.941 16.5393C51.4985 14.9616 49.3868 14.0167 46.2799 13.8288C39.5611 13.4272 35.8339 17.0565 35.5137 22.882C38.9582 23.0669 41.9699 24.5435 45.0048 26.8581C45.4202 27.176 45.8298 27.5025 46.2337 27.8319C48.0656 29.3374 51.8505 32.6778 51.2966 35.3767C51.2444 35.633 51.1529 35.8796 51.0254 36.1078C51.0079 36.1415 50.9887 36.1743 50.9677 36.206C51.0609 36.1159 51.1477 36.0194 51.2274 35.9171L51.2303 35.9142Z" fill="#FBC867"/>
<path fill-rule="evenodd" clip-rule="evenodd" d="M51.2301 35.9141C52.7763 34.1803 55.7967 34.1456 55.7967 28.6727C55.8366 26.4334 55.6793 24.1949 55.3265 21.9832C54.6313 22.0117 53.9351 21.9662 53.2494 21.8474H53.2206C54.2101 25.9882 54.5851 29.1119 53.9533 31.0942C53.7923 31.5609 53.5304 31.9863 53.1863 32.3399C52.8422 32.6936 52.4245 32.9668 51.9628 33.14C50.8089 31.545 49.153 29.9865 46.9951 28.4646C48.9366 30.1493 51.7868 33.0071 51.2993 35.3708C51.2471 35.6271 51.1556 35.8737 51.0281 36.1019C51.0106 36.1356 50.9913 36.1684 50.9704 36.2001C51.0636 36.11 51.1504 36.0135 51.2301 35.9112V35.9141Z" fill="#E7B021"/>
<path fill-rule="evenodd" clip-rule="evenodd" d="M51.2298 35.9142C52.776 34.1804 55.7964 34.1457 55.7964 28.6728C55.8377 26.4334 55.6804 24.1948 55.3262 21.9833C54.632 22.0119 53.9366 21.9664 53.252 21.8475C53.8132 22.0222 54.3955 22.1194 54.9829 22.1365C55.7359 27.4447 55.5859 30.7186 54.6714 32.0594C53.9992 33.0448 53.3732 33.7094 52.6981 34.0532C52.2082 34.2999 51.7936 34.6742 51.498 35.1369C51.8981 33.6516 50.7884 31.7888 48.1689 29.5483C49.8998 31.2243 51.6827 33.458 51.2903 35.3709C51.2381 35.6272 51.1467 35.8738 51.0192 36.102C51.0016 36.1357 50.9824 36.1685 50.9615 36.2002C51.0547 36.1101 51.1414 36.0136 51.2211 35.9113L51.2298 35.9142ZM55.2916 21.8013C55.0897 21.8244 54.8906 21.8446 54.6887 21.8562H54.7117C54.9079 21.8417 55.1012 21.8244 55.2887 21.8013H55.2916ZM53.578 21.8764H53.4511H53.578Z" fill="#D59929"/>
<path fill-rule="evenodd" clip-rule="evenodd" d="M38.8018 19.0705L38.6402 19.1775C38.5635 18.8077 38.6267 18.4225 38.8175 18.0968C39.0084 17.7711 39.3133 17.528 39.673 17.4148C39.3629 17.5519 39.1085 17.7904 38.9513 18.0911C38.7941 18.3919 38.7434 18.7372 38.8075 19.0705H38.8018Z" fill="#AE6027"/>
<path fill-rule="evenodd" clip-rule="evenodd" d="M39.7891 18.7902L39.6016 18.8335C39.6596 18.4605 39.8536 18.1223 40.1462 17.8842C40.4387 17.6462 40.809 17.5252 41.1853 17.5448C40.8462 17.5634 40.5235 17.6967 40.2698 17.923C40.0162 18.1492 39.8467 18.4549 39.7891 18.7902Z" fill="#AE6027"/>
<path fill-rule="evenodd" clip-rule="evenodd" d="M37.8506 19.7814L37.7207 19.9258C37.5524 19.5881 37.5152 19.1998 37.6165 18.8362C37.7178 18.4726 37.9502 18.1596 38.2689 17.958C38.0019 18.1685 37.8148 18.4641 37.7387 18.7958C37.6626 19.1275 37.7021 19.4752 37.8506 19.7814Z" fill="#AE6027"/>
<path fill-rule="evenodd" clip-rule="evenodd" d="M40.3333 18.8363C38.9226 18.4983 37.4485 19.5674 37.059 21.2289C36.9115 21.8319 36.9274 22.4634 37.1052 23.0581C38.4563 23.302 39.767 23.7329 40.9997 24.3382C41.5882 23.8592 42.0004 23.1972 42.1709 22.457C42.5662 20.7955 41.744 19.1744 40.3333 18.8363Z" fill="white"/>
<path fill-rule="evenodd" clip-rule="evenodd" d="M40.5163 19.9751C39.596 19.7555 38.644 20.4548 38.3844 21.5355C38.2934 21.8749 38.2899 22.2319 38.3742 22.573C38.4584 22.9141 38.6277 23.2283 38.8661 23.486C39.2729 23.6132 39.6768 23.775 40.0749 23.9224C40.4773 23.8574 40.8501 23.6701 41.1427 23.3858C41.4353 23.1015 41.6335 22.734 41.7106 22.3331C41.9702 21.2524 41.4221 20.1976 40.5163 19.9751Z" fill="#33C5F3"/>
<path fill-rule="evenodd" clip-rule="evenodd" d="M40.3768 20.5471C39.7248 20.391 39.0498 20.8852 38.8681 21.6509C38.6863 22.4167 39.0613 23.1622 39.7133 23.3182C40.3653 23.4743 41.0375 22.9801 41.2221 22.2144C41.4067 21.4486 41.0259 20.7031 40.3768 20.5471Z" fill="black"/>
<path fill-rule="evenodd" clip-rule="evenodd" d="M41.0519 20.7147C40.9364 20.6667 40.8089 20.6553 40.6867 20.6822C40.5645 20.709 40.4534 20.7727 40.3685 20.8648C40.2836 20.9568 40.2289 21.0727 40.2118 21.1968C40.1947 21.3209 40.216 21.4473 40.2729 21.559C40.3297 21.6706 40.4194 21.7621 40.5298 21.8211C40.6401 21.88 40.7659 21.9037 40.8902 21.8888C41.0144 21.874 41.1311 21.8213 41.2245 21.738C41.3179 21.6546 41.3835 21.5446 41.4125 21.4227C41.458 21.2809 41.4457 21.1268 41.3781 20.9942C41.3105 20.8615 41.1932 20.761 41.0519 20.7147Z" fill="white"/>
<path fill-rule="evenodd" clip-rule="evenodd" d="M39.0304 22.3677C38.9387 22.3535 38.8451 22.3757 38.7696 22.4297C38.6941 22.4837 38.6427 22.5652 38.6265 22.6567C38.6205 22.7196 38.6327 22.7829 38.6616 22.8391C38.6905 22.8953 38.7349 22.9419 38.7896 22.9735C38.8443 23.0051 38.9068 23.0202 38.9698 23.0172C39.0329 23.0141 39.0937 22.9929 39.145 22.9562C39.1964 22.9194 39.2361 22.8687 39.2594 22.81C39.2828 22.7513 39.2887 22.6871 39.2767 22.625C39.2646 22.563 39.2349 22.5058 39.1913 22.4601C39.1476 22.4145 39.0917 22.3824 39.0304 22.3677Z" fill="white"/>
<path fill-rule="evenodd" clip-rule="evenodd" d="M48.2124 21.6655L48.3105 21.8388C48.5518 21.535 48.6721 21.1524 48.6481 20.7649C48.6241 20.3774 48.4576 20.0126 48.1807 19.741C48.4039 20.0102 48.5287 20.3477 48.5344 20.6976C48.5402 21.0475 48.4266 21.389 48.2124 21.6655Z" fill="#AE6027"/>
<path fill-rule="evenodd" clip-rule="evenodd" d="M47.4391 20.9488L47.5891 21.0759C47.7093 20.7056 47.6873 20.3037 47.5272 19.9488C47.3671 19.5939 47.0806 19.3116 46.7236 19.1572C47.0267 19.3313 47.2616 19.6036 47.3895 19.9293C47.5175 20.2549 47.5309 20.6145 47.4275 20.9488H47.4391Z" fill="#AE6027"/>
<path fill-rule="evenodd" clip-rule="evenodd" d="M48.7549 22.7605C48.7722 22.8241 48.7895 22.8876 48.8039 22.9541C49.1154 22.723 49.3302 22.3845 49.4069 22.0039C49.4837 21.6234 49.4168 21.2278 49.2193 20.8938C49.3649 21.2116 49.3983 21.5695 49.3139 21.9087C49.2295 22.248 49.0323 22.5483 48.7549 22.7605Z" fill="#AE6027"/>
<path fill-rule="evenodd" clip-rule="evenodd" d="M46.5101 19.9923C44.8196 19.5877 43.1002 20.7176 42.6704 22.5149C42.2405 24.3122 43.2473 26.098 44.9523 26.5026C46.6572 26.9071 48.3621 25.7802 48.792 23.9828C49.2218 22.1855 48.2006 20.3968 46.5101 19.9923Z" fill="white"/>
<path fill-rule="evenodd" clip-rule="evenodd" d="M46.5736 21.2088C46.1556 21.0815 45.7091 21.0828 45.2919 21.2126C44.8747 21.3423 44.506 21.5946 44.2336 21.9368C43.9613 22.2789 43.7977 22.6951 43.7642 23.1314C43.7307 23.5677 43.8288 24.004 44.0458 24.3838C44.2628 24.7636 44.5886 25.0694 44.9811 25.2615C45.3736 25.4536 45.8147 25.5233 46.2472 25.4614C46.6796 25.3995 47.0836 25.209 47.4067 24.9144C47.7298 24.6199 47.9571 24.235 48.0593 23.8095C48.1323 23.541 48.1518 23.2608 48.1166 22.9848C48.0814 22.7087 47.9923 22.4424 47.8544 22.2008C47.7164 21.9593 47.5323 21.7474 47.3125 21.5772C47.0927 21.407 46.8416 21.2818 46.5736 21.2088Z" fill="#33C5F3"/>
<path fill-rule="evenodd" clip-rule="evenodd" d="M46.4238 21.8301C46.1279 21.7394 45.8115 21.7399 45.5159 21.8315C45.2202 21.9232 44.9589 22.1017 44.7659 22.344C44.5728 22.5862 44.4569 22.8811 44.4332 23.1901C44.4096 23.4992 44.4792 23.8083 44.6331 24.0772C44.787 24.3462 45.0181 24.5625 45.2963 24.6983C45.5745 24.834 45.8871 24.8828 46.1934 24.8384C46.4996 24.7939 46.7855 24.6583 47.0138 24.4491C47.2422 24.2398 47.4025 23.9667 47.4739 23.665C47.5772 23.2823 47.5246 22.874 47.3277 22.53C47.1309 22.186 46.8058 21.9343 46.4238 21.8301Z" fill="black"/>
<path fill-rule="evenodd" clip-rule="evenodd" d="M47.2343 22.0238C47.1087 21.9857 46.9747 21.9862 46.8494 22.0254C46.7242 22.0645 46.6136 22.1404 46.532 22.2433C46.4503 22.3461 46.4014 22.4711 46.3915 22.6022C46.3816 22.7332 46.4113 22.8642 46.4766 22.9781C46.5419 23.0921 46.6399 23.1838 46.7578 23.2413C46.8757 23.2988 47.0082 23.3195 47.138 23.3008C47.2679 23.282 47.3891 23.2246 47.486 23.136C47.5829 23.0474 47.651 22.9318 47.6814 22.804C47.7033 22.7233 47.709 22.6392 47.6984 22.5563C47.6877 22.4734 47.6609 22.3935 47.6193 22.321C47.5778 22.2485 47.5224 22.185 47.4564 22.134C47.3903 22.083 47.3148 22.0455 47.2343 22.0238Z" fill="white"/>
<path fill-rule="evenodd" clip-rule="evenodd" d="M44.8694 23.7749C44.7896 23.7516 44.7046 23.7529 44.6255 23.7785C44.5465 23.8041 44.4769 23.8529 44.4257 23.9185C44.3746 23.9842 44.3443 24.0636 44.3388 24.1467C44.3333 24.2298 44.3528 24.3126 44.3947 24.3845C44.4367 24.4563 44.4992 24.5139 44.5742 24.5498C44.6492 24.5857 44.7332 24.5983 44.8154 24.5858C44.8975 24.5734 44.9741 24.5366 45.0352 24.4801C45.0962 24.4236 45.139 24.3501 45.1579 24.269C45.1713 24.2176 45.1746 24.164 45.1673 24.1113C45.1601 24.0587 45.1426 24.0079 45.1159 23.962C45.0891 23.9162 45.0535 23.876 45.0112 23.8439C44.9689 23.8118 44.9207 23.7883 44.8694 23.7749Z" fill="white"/>
<path fill-rule="evenodd" clip-rule="evenodd" d="M45.5547 16.915C46.6226 17.3191 47.581 17.9683 48.353 18.8106C47.3698 18.0483 46.1714 17.6165 44.9287 17.5768C45.0988 17.3226 45.3105 17.0989 45.5547 16.915Z" fill="#8C2B1C"/>
<path fill-rule="evenodd" clip-rule="evenodd" d="M42.1864 16.7791C41.3663 16.7301 40.5462 16.8746 39.792 17.201C40.6624 16.9897 41.5772 17.0595 42.4057 17.4004C42.3679 17.1824 42.2938 16.9724 42.1864 16.7791Z" fill="#8C2B1C"/>
<path fill-rule="evenodd" clip-rule="evenodd" d="M55.3528 22.1277C55.0187 22.4906 54.7537 22.9117 54.571 23.3702C54.2666 24.3763 54.1946 25.4385 54.3604 26.4766C54.7049 27.0069 55.2106 27.4122 55.8028 27.6324C55.7993 25.7937 55.6527 23.958 55.3643 22.1421L55.3528 22.1277ZM50.9967 33.2614C51.125 33.1182 51.2638 32.9849 51.4121 32.8626C51.7333 32.8139 52.061 32.8306 52.3756 32.9117C52.8043 33.3036 53.1218 33.802 53.2959 34.3565C52.5574 34.8853 51.7958 35.2928 51.2303 35.9285C51.1507 36.0308 51.0639 36.1274 50.9707 36.2175C50.9916 36.1857 51.0109 36.1529 51.0284 36.1192C51.1559 35.891 51.2474 35.6444 51.2996 35.3881C51.4174 34.6696 51.3116 33.9321 50.9967 33.2758V33.2614ZM53.8815 33.8769C54.8768 33.01 55.7076 31.7183 55.7797 29.0512C55.0026 29.1339 54.2789 29.4866 53.7344 30.0481C53.3565 30.8401 53.2481 31.7343 53.4257 32.5939C53.5308 33.0368 53.6837 33.467 53.8815 33.8769ZM51.1524 29.9614C51.0572 30.6665 51.2823 31.3773 51.7035 31.7125C52.0525 31.7443 52.3872 31.4987 52.5862 31.0624C52.5391 30.6724 52.4093 30.297 52.2054 29.9614C51.8639 29.8458 51.4939 29.8458 51.1524 29.9614ZM53.2843 26.5257C52.79 27.1442 52.5441 27.9253 52.5949 28.716C52.791 29.1726 53.1314 29.4471 53.4949 29.4355C53.9969 29.3142 54.3892 28.7073 54.4585 27.9445C54.17 27.0342 53.7661 26.595 53.2843 26.5257Z" fill="#8C2B1C"/>
<path fill-rule="evenodd" clip-rule="evenodd" d="M55.3528 22.1277C55.0187 22.4906 54.7537 22.9117 54.571 23.3702C54.2666 24.3763 54.1946 25.4385 54.3604 26.4766C54.7049 27.0069 55.2106 27.4122 55.8028 27.6324C55.7993 25.7937 55.6527 23.958 55.3643 22.1421L55.3528 22.1277ZM51.7352 32.8511C51.8131 32.9522 51.8881 33.0533 51.9631 33.1574C52.1102 33.0938 52.2516 33.0215 52.3958 32.9435C52.8123 33.329 53.1224 33.8157 53.2959 34.3565C52.5574 34.8853 51.7958 35.2928 51.2303 35.9285C51.1507 36.0308 51.0639 36.1274 50.9707 36.2175C50.9916 36.1857 51.0109 36.1529 51.0284 36.1192C51.1559 35.891 51.2474 35.6444 51.2996 35.3881C51.4174 34.6696 51.3116 33.9321 50.9967 33.2758C51.125 33.1327 51.2638 32.9994 51.4121 32.8771C51.5189 32.8597 51.627 32.851 51.7352 32.8511ZM53.3738 32.1604C53.6345 31.8531 53.8307 31.4964 53.9507 31.1115C54.0932 30.6412 54.1841 30.1567 54.2219 29.6667C54.6806 29.3298 55.222 29.124 55.7884 29.0714C55.7163 31.7386 54.8854 33.0273 53.8902 33.8971C53.6923 33.4872 53.5395 33.057 53.4344 32.6141C53.4045 32.4662 53.3833 32.3166 53.3709 32.1662L53.3738 32.1604ZM54.2652 28.6929C54.2652 28.2537 54.2392 27.7856 54.196 27.2914C54.3034 27.4975 54.3913 27.7133 54.4585 27.9358C54.4363 28.1971 54.371 28.453 54.2652 28.6929Z" fill="#7E2818"/>
<path fill-rule="evenodd" clip-rule="evenodd" d="M55.3528 22.1277C55.2406 22.2468 55.1366 22.3733 55.0412 22.5062C55.2814 24.1579 55.4249 25.8223 55.471 27.4908C55.574 27.5453 55.6811 27.5917 55.7913 27.6295C55.7877 25.7908 55.6411 23.9551 55.3528 22.1392V22.1277ZM51.2044 33.0475C51.5593 33.6837 51.6672 34.4287 51.5073 35.1396C51.8029 34.677 52.2174 34.3027 52.7074 34.056C52.8364 33.9895 52.9607 33.9142 53.0795 33.8306C53.162 33.9965 53.2343 34.1673 53.2959 34.3421C52.5574 34.8709 51.7958 35.2783 51.2303 35.914C51.1507 36.0164 51.0639 36.1129 50.9707 36.203C50.9916 36.1713 51.0109 36.1385 51.0284 36.1048C51.1559 35.8765 51.2474 35.6299 51.2996 35.3737C51.4174 34.6551 51.3116 33.9177 50.9967 33.2614C51.063 33.1863 51.1323 33.1169 51.2044 33.0475ZM53.6623 33.3365C54.0392 32.9443 54.38 32.5187 54.6806 32.0651C55.0902 31.466 55.3422 30.4796 55.4364 29.1061C55.5533 29.0803 55.6719 29.0629 55.7913 29.0541C55.7191 31.7212 54.8883 33.01 53.893 33.8798C53.8094 33.7064 53.7315 33.5243 53.6623 33.3365Z" fill="#712413"/>
<path fill-rule="evenodd" clip-rule="evenodd" d="M42.0793 12.3347C42.5772 12.9494 42.9037 13.6852 43.0255 14.4673C43.1063 14.5081 43.1943 14.5325 43.2845 14.5389C43.3748 14.5453 43.4654 14.5337 43.551 14.5046C43.6367 14.4755 43.7157 14.4297 43.7835 14.3697C43.8513 14.3097 43.9065 14.2368 43.9458 14.1552C43.51 13.3702 43.3419 12.4642 43.4669 11.5748C45.668 10.3178 43.7035 8.07543 41.5312 9.12725C38.6463 10.52 39.858 12.6381 41.6293 12.4359C41.7812 12.4165 41.9309 12.3826 42.0764 12.3347H42.0793ZM51.2819 9.40176C54.1668 10.7974 52.9551 12.9126 51.1838 12.7104C51.0316 12.6931 50.8816 12.6592 50.7367 12.6092C50.2387 13.225 49.9122 13.9617 49.7905 14.7447C49.7096 14.7848 49.6216 14.8085 49.5316 14.8145C49.4416 14.8205 49.3512 14.8087 49.2658 14.7797C49.1803 14.7507 49.1014 14.7051 49.0335 14.6456C48.9656 14.586 48.9101 14.5136 48.8702 14.4326C49.306 13.6476 49.4741 12.7416 49.3491 11.8522C47.1508 10.5952 49.1125 8.35572 51.2848 9.40465L51.2819 9.40176Z" fill="#FBC867"/>
<path fill-rule="evenodd" clip-rule="evenodd" d="M52.4184 17.2009C51.9143 17.4104 51.4961 17.7851 51.2324 18.2638C50.9687 18.7425 50.8751 19.2967 50.967 19.8356C51.0588 20.3745 51.3307 20.8662 51.738 21.2301C52.1453 21.594 52.6639 21.8086 53.2089 21.8387C58.6612 22.2664 62.1374 18.7642 60.8912 11.2656C60.7008 10.1097 56.1572 12.1065 54.9888 14.1899C54.3394 15.3575 53.4612 16.3816 52.4069 17.2009H52.4184Z" fill="#FBC867"/>
<path fill-rule="evenodd" clip-rule="evenodd" d="M59.6142 12.9648C60.0151 18.8886 54.7734 21.6597 52.3213 20.316C53.38 20.0589 54.0031 19.1602 54.7215 17.8859C55.91 15.7736 57.7073 14.2363 59.6257 12.9735L59.6142 12.9648Z" fill="#EF5A7B"/>
<path fill-rule="evenodd" clip-rule="evenodd" d="M55.0122 21.6482C59.4173 20.7235 61.1857 16.6116 60.4097 12.072C60.4097 11.7137 60.326 11.4623 60.1558 11.4363C59.276 11.2976 58.2201 11.6096 57.0056 12.2511C58.7134 11.13 60.7761 10.5 60.903 11.2658C62.005 17.9119 59.4058 21.4141 55.0064 21.8302C54.4123 21.8824 53.8148 21.8824 53.2207 21.8302C53.8226 21.8243 54.4225 21.7604 55.0122 21.6395V21.6482Z" fill="#D59929"/>
<path fill-rule="evenodd" clip-rule="evenodd" d="M54.98 19.8941C57.083 18.8798 59.0967 16.3601 59.613 12.959C59.9015 17.1345 57.3773 19.7409 54.9973 20.4489C54.1187 20.7587 53.1536 20.7088 52.3115 20.3102C53.3703 20.053 53.9934 19.1543 54.7117 17.88C54.9075 17.5323 55.1223 17.1956 55.355 16.8715C55.1188 17.279 54.9254 17.7099 54.7781 18.1574C54.68 18.4464 54.5905 18.718 54.4896 18.9983C54.3746 19.3161 54.1908 19.6045 53.9514 19.8428C53.712 20.0811 53.4229 20.2634 53.1049 20.3766C53.7554 20.3478 54.3925 20.1813 54.9742 19.8883L54.98 19.8941Z" fill="#E05070"/>
<path fill-rule="evenodd" clip-rule="evenodd" d="M44.1621 13.8405C44.1607 14.3531 44.2824 14.8585 44.517 15.3142C45.5316 15.534 46.5874 15.467 47.5662 15.1206C47.9289 14.8679 48.2026 14.5068 48.348 14.089C47.6664 13.9533 46.9763 13.8654 46.2825 13.826C45.5765 13.778 44.8681 13.778 44.1621 13.826V13.8405Z" fill="#8C2B1C"/>
<path fill-rule="evenodd" clip-rule="evenodd" d="M50.6123 14.8315C50.3902 15.2274 50.1623 15.4788 50.1681 15.788C50.1681 16.3659 50.6873 16.8861 51.322 17.0334C51.8331 16.917 52.2789 16.6062 52.5654 16.1665C51.9888 15.6225 51.3296 15.1739 50.6123 14.8373V14.8315Z" fill="#8C2B1C"/>
<path fill-rule="evenodd" clip-rule="evenodd" d="M38.8916 15.6984C38.9237 15.8593 38.9671 16.0176 39.0214 16.1723C39.3847 16.3532 39.7836 16.4509 40.1892 16.4584C40.5949 16.4659 40.9971 16.383 41.3668 16.2157C41.7458 15.6353 41.9064 14.9388 41.8197 14.2507C40.761 14.5419 39.7673 15.0323 38.8916 15.6955V15.6984Z" fill="#8C2B1C"/>
<path fill-rule="evenodd" clip-rule="evenodd" d="M39.0016 42.1122C37.3918 41.9764 35.7446 40.8495 34.4147 38.7458C31.1519 37.301 28.8787 35.0876 27.5949 32.2875C27.3173 31.6762 27.1382 31.0248 27.0641 30.3573C25.8063 28.1352 25.9967 26.1905 27.0093 25.7686C27.407 25.6103 27.8481 25.6 28.2527 25.7397C29.0972 24.5357 30.3645 23.6956 31.801 23.3875C36.2956 22.4802 40.2622 23.5089 44.8722 27.0313C48.5244 29.8169 52.2228 33.4723 50.838 35.9891C50.2034 37.145 48.2994 37.2057 45.8444 38.7863C42.9048 40.679 41.269 42.5428 38.9439 42.0978H39.0016V42.1122Z" fill="#F1AA24"/>
<path fill-rule="evenodd" clip-rule="evenodd" d="M33.6814 38.4021C33.4276 38.4021 31.9505 37.4283 31.2178 36.8504C31.5784 37.1191 32.4784 38.1854 31.9303 36.3967C30.912 33.0563 31.7976 29.268 33.9988 26.572C31.8871 29.924 31.3361 33.2181 32.2909 36.4979C32.509 37.2841 33.0026 37.9653 33.6814 38.4166V38.4021Z" fill="#AE6027"/>
<path fill-rule="evenodd" clip-rule="evenodd" d="M43.1113 35.9113C43.6565 35.7419 44.2439 35.7715 44.7694 35.9947C45.2948 36.2179 45.7244 36.6204 45.9817 37.1307C45.1989 36.3972 44.1819 35.9652 43.1113 35.9113Z" fill="#AE6027"/>
<path fill-rule="evenodd" clip-rule="evenodd" d="M37.5014 39.8091C36.8975 39.6531 36.3205 39.4768 35.7705 39.2803C38.9438 42.9819 42.997 41.2771 44.7135 36.2029C42.2845 39.0925 39.8525 40.413 37.5014 39.8091Z" fill="#EC2024"/>
<path fill-rule="evenodd" clip-rule="evenodd" d="M44.7935 36.1078C42.3386 39.0494 39.8893 40.422 37.5007 39.8094C36.444 39.5416 35.4115 39.1859 34.4139 38.746C34.5062 38.8963 34.6014 39.035 34.7024 39.1766C38.9171 41.416 42.2664 40.289 44.7993 36.1078H44.7935ZM37.6449 29.7073C37.9261 29.351 38.3015 29.0808 38.7283 28.9276C39.1552 28.7743 39.6164 28.7441 40.0595 28.8404C40.9885 29.0282 41.6173 29.7073 41.5827 30.4932C41.5481 31.2792 40.8558 31.9583 39.9066 32.149C40.9567 32.0132 41.7702 31.2821 41.8395 30.4412C41.9087 29.6004 41.2164 28.8346 40.1922 28.6526C39.1681 28.4705 38.0978 28.9126 37.6449 29.6986V29.7073ZM29.8559 27.7365C29.8701 27.2649 29.7345 26.8009 29.4685 26.4114C29.2025 26.0219 28.82 25.727 28.376 25.5693C28.3327 25.6242 28.2894 25.682 28.249 25.7398C28.4835 25.8134 28.7053 25.9226 28.9068 26.0635C29.1803 26.253 29.4077 26.5018 29.5721 26.7914C29.7364 27.0811 29.8334 27.4042 29.8559 27.7365Z" fill="#AE6027"/>
<path fill-rule="evenodd" clip-rule="evenodd" d="M40.0448 30.1031C40.6535 30.8949 38.5649 32.8454 37.9418 31.7965C37.3186 30.7475 39.4332 29.3114 40.0448 30.1031Z" fill="#AE6027"/>
<path fill-rule="evenodd" clip-rule="evenodd" d="M27.3466 26.8726C26.5417 27.4505 28.0072 29.9182 28.8986 29.0831C29.79 28.248 28.1543 26.2802 27.3466 26.8726Z" fill="#AE6027"/>
<path fill-rule="evenodd" clip-rule="evenodd" d="M45.677 38.0524C41.8632 41.5199 39.0592 43.6554 35.6724 39.9249C38.8399 42.2577 41.3949 41.9331 43.3374 38.951C41.468 41.5517 38.7217 42.1152 36.3503 39.896C35.7815 39.7018 35.2296 39.4612 34.7002 39.1764C35.958 40.9796 37.4639 41.9591 38.9438 42.1065C41.269 42.5602 42.9047 40.6877 45.8443 38.795C48.2993 37.2144 50.2033 37.1508 50.838 35.9979C52.2227 33.4723 48.5301 29.817 44.8721 27.0401C42.5643 25.2889 40.4468 24.1504 38.3264 23.5725C44.9789 26.1876 49.684 31.412 50.3937 34.7611C50.4947 36.1221 48.158 35.81 45.677 38.0668V38.0524Z" fill="#C9872A"/>
<path fill-rule="evenodd" clip-rule="evenodd" d="M28.9039 25.4683C29.2661 25.7124 29.5493 26.057 29.7189 26.4599C29.8885 26.8628 29.9371 27.3065 29.8588 27.7366C29.8731 27.2649 29.7374 26.8009 29.4715 26.4114C29.2055 26.0219 28.8229 25.7271 28.3789 25.5694C29.2196 24.453 30.4346 23.6782 31.8003 23.3877C33.0178 23.1348 34.2625 23.0377 35.5045 23.0988C35.9957 23.124 36.485 23.178 36.9699 23.2606C37.1517 23.2895 37.3334 23.3242 37.5152 23.3617L36.9757 23.3184C36.543 23.2837 36.041 23.2548 35.4987 23.249C33.3206 23.2259 30.5079 23.5698 28.9039 25.4712V25.4683Z" fill="#C38B2C"/>
<path fill-rule="evenodd" clip-rule="evenodd" d="M45.997 37.1305C46.9894 35.9997 47.9981 35.2291 49.0232 34.8188C49.5713 33.6456 48.3827 31.5892 45.4575 28.6495L44.9671 28.1669L44.7854 27.9878C43.868 27.1035 42.8044 26.1403 41.5947 25.0981C42.8124 25.7967 43.9703 26.595 45.0565 27.485L45.1142 27.5312C46.7823 28.8663 48.2173 30.4697 49.3607 32.276C49.8378 33.0303 50.1877 33.8582 50.3964 34.7263C50.4973 36.0874 48.1606 35.7753 45.6797 38.0321C44.7259 38.9321 43.7172 39.7717 42.6592 40.546C44.4094 39.1629 45.5181 38.0176 45.9854 37.1103L45.997 37.1305Z" fill="#DD9427"/>
<path fill-rule="evenodd" clip-rule="evenodd" d="M44.8426 36.6685C44.2951 38.0643 43.5551 39.3764 42.6443 40.5666C40.224 42.2599 38.0921 42.6038 35.6602 39.9251C38.8277 42.258 41.3827 41.9334 43.3252 38.9513C43.9003 38.1315 44.3549 37.2333 44.6753 36.2842C45.1523 36.4911 45.5904 36.7785 45.9706 37.1337C45.6511 36.8669 45.2571 36.7055 44.8426 36.6714V36.6685Z" fill="#DD9427"/>
</g>
</svg>
