<svg width="69" height="60" viewBox="0 0 69 60" fill="none" xmlns="http://www.w3.org/2000/svg">
<mask id="mask0_62:2221" style="mask-type:alpha" maskUnits="userSpaceOnUse" x="0" y="0" width="69" height="60">
<path d="M64.9177 33.5411C64.9177 38.104 56.2578 40.5133 54.5585 44.4528C49.5815 55.9903 41.9893 59.37 32.597 59.37C24.1715 59.37 15.3332 60.3163 9.53047 51.497C6.16523 46.3823 0 40.1213 0 33.5411C0 15.6146 14.5323 1.08224 32.4588 1.08224C52.0723 -4.30453 78.8681 11.0271 64.9177 33.5411Z" fill="#C4C4C4"/>
</mask>
<g mask="url(#mask0_62:2221)">
<path fill-rule="evenodd" clip-rule="evenodd" d="M20.7037 52.7577C25.8451 58.6422 29.8978 62.3642 32.8618 63.9239C32.472 64.3494 32.183 64.8571 32.016 65.4095C31.8491 65.9619 31.8086 66.5447 31.8974 67.1149C33.4203 67.5307 34.1517 68.3948 33.9764 69.6873C33.766 71.1626 31.6269 72.3098 28.9443 72.2722C26.3995 72.2396 24.7213 71.4757 24.015 70.2684C23.5466 69.4744 23.6268 68.3848 24.1302 67.0623C23.6473 66.3847 23.2463 65.6524 22.9354 64.8807C22.8429 65.1561 22.8429 65.4543 22.9354 65.7298C22.2168 64.3897 21.7634 62.9235 21.6004 61.4116C21.4802 61.5611 21.402 61.7399 21.3738 61.9296C21.3456 62.1194 21.3685 62.3132 21.4401 62.4911C20.211 59.3952 19.9541 55.9983 20.7037 52.7527V52.7577Z" fill="black"/>
<path fill-rule="evenodd" clip-rule="evenodd" d="M20.7897 53.1072C20.1967 55.94 20.3697 58.8796 21.2906 61.6233C21.3368 61.5126 21.3984 61.4089 21.4735 61.3152L21.7239 61.0122L21.7665 61.4004C21.8992 62.6371 22.229 63.8447 22.7434 64.9772C22.7434 64.9296 22.7684 64.882 22.7834 64.8344L22.9237 64.4186L23.089 64.8269C23.3956 65.5865 23.7898 66.3078 24.2637 66.976L24.3163 67.0461L24.2838 67.1287C23.9356 68.0455 23.6225 69.2828 24.156 70.1921C25.0628 71.73 27.3321 72.0906 28.9476 72.1107C30.1093 72.1478 31.2629 71.9055 32.3115 71.4043C32.9853 71.0537 33.6991 70.4651 33.8143 69.6661C34.0097 68.2909 33.0754 67.6046 31.8531 67.2715L31.7529 67.244C30.4158 67.0415 29.0502 67.1433 27.7579 67.542C29.0227 67.0622 30.3877 66.9072 31.7279 67.0912C31.649 66.539 31.6862 65.9764 31.8371 65.4394C31.9881 64.9025 32.2495 64.4029 32.6046 63.9728C30.7786 62.9709 29.0027 61.468 27.4873 60.0829C25.1312 57.8795 22.8954 55.5509 20.7897 53.1072Z" fill="#333333"/>
<path fill-rule="evenodd" clip-rule="evenodd" d="M24.8744 63.2214C26.6254 64.6342 28.7226 65.5527 30.9484 65.8815C30.9575 66.145 30.9894 66.4073 31.0436 66.6654C29.899 66.7231 28.7793 67.021 27.7573 67.5396C29.023 67.0597 30.3888 66.9047 31.7299 67.0888C31.6326 66.3948 31.7189 65.6875 31.9803 65.0374C25.2025 64.1407 22.6001 60.2783 21.5405 55.9927C21.2529 56.242 21.0659 56.5874 21.0145 56.9646C20.7881 55.9084 20.6748 54.8311 20.6764 53.751C20.23 56.3856 20.4408 59.0897 21.2901 61.6234C21.3363 61.5126 21.3979 61.4089 21.4729 61.3153L21.7234 61.0122L21.766 61.4005C21.8987 62.6372 22.2285 63.8447 22.7428 64.9773C22.7428 64.9297 22.7679 64.8821 22.7829 64.8345L22.9232 64.4187L23.0885 64.827C23.395 65.5866 23.7893 66.3079 24.2632 66.976L24.3158 67.0462L24.2832 67.1288C23.9351 68.0456 23.622 69.2829 24.1555 70.1921C24.4827 70.7194 24.9549 71.1411 25.5156 71.4069C24.3267 70.6221 24.1246 69.2094 24.9094 67.1689C24.5913 66.9404 24.3285 66.6434 24.1405 66.2997C24.2873 66.4219 24.4685 66.4954 24.659 66.5102C23.8128 65.5633 23.2109 64.424 22.9056 63.1914C22.7728 63.4689 22.7133 63.7759 22.7328 64.0831C22.4368 63.1149 22.3047 62.1041 22.3421 61.0924C23.1786 62.2256 24.1625 63.2423 25.2676 64.1156C25.0776 63.8483 24.9446 63.5448 24.8769 63.2239L24.8744 63.2214Z" fill="#121212"/>
<path fill-rule="evenodd" clip-rule="evenodd" d="M48.6219 52.7577C43.4822 58.6422 39.4295 62.3642 36.4639 63.9239C36.8535 64.3496 37.1426 64.8573 37.3099 65.4095C37.4772 65.9618 37.5185 66.5446 37.4307 67.1149C35.9053 67.5307 35.1764 68.3948 35.3518 69.6873C35.5597 71.1626 37.6987 72.3098 40.3838 72.2722C42.9261 72.2396 44.6043 71.4757 45.3131 70.2684C45.779 69.4744 45.7014 68.3848 45.1979 67.0623C45.6789 66.3836 46.0798 65.6515 46.3927 64.8807C46.4828 65.1565 46.4828 65.4539 46.3927 65.7298C47.1095 64.3891 47.5619 62.9231 47.7252 61.4116C47.8462 61.5607 47.9248 61.7395 47.953 61.9294C47.9812 62.1193 47.9579 62.3133 47.8855 62.4911C49.1159 59.3955 49.3728 55.9982 48.6219 52.7527V52.7577Z" fill="black"/>
<path fill-rule="evenodd" clip-rule="evenodd" d="M48.5341 53.1072C49.1293 55.9398 48.9563 58.88 48.0332 61.6233C47.9879 61.5121 47.9263 61.4082 47.8504 61.3152L47.5999 61.0122L47.5573 61.4004C47.4267 62.6359 47.0995 63.8425 46.588 64.9747C46.588 64.9271 46.5629 64.8795 46.5479 64.8319L46.4076 64.4161L46.2448 64.8244C45.9363 65.5836 45.5413 66.3047 45.0676 66.9734L45.0175 67.0436L45.0475 67.1263C45.3982 68.043 45.7088 69.2803 45.1753 70.1896C44.2711 71.7275 41.9993 72.0881 40.3837 72.1082C39.2204 72.146 38.065 71.9038 37.0148 71.4018C36.341 71.0512 35.6272 70.4626 35.512 69.6635C35.3166 68.2884 36.2634 67.6021 37.4732 67.269L37.5759 67.2415C38.9157 67.0384 40.284 67.1411 41.5785 67.542C40.3136 67.0622 38.9487 66.9072 37.6084 67.0912C37.6857 66.5381 37.6465 65.975 37.4933 65.438C37.3402 64.901 37.0766 64.4019 36.7193 63.9728C38.5452 62.9709 40.3211 61.468 41.8365 60.0829C44.1926 57.8795 46.4284 55.5509 48.5341 53.1072Z" fill="#333333"/>
<path fill-rule="evenodd" clip-rule="evenodd" d="M44.4509 63.2211C42.7001 64.6344 40.6028 65.5529 38.3769 65.8812C38.3685 66.1447 38.3375 66.407 38.2842 66.6651C39.4315 66.7226 40.5538 67.0213 41.5779 67.5418C40.3131 67.062 38.9481 66.907 37.6079 67.091C37.7042 66.397 37.6179 65.6899 37.3574 65.0396C44.1353 64.1429 46.7377 60.2805 47.7972 55.9949C48.0848 56.2442 48.2718 56.5896 48.3232 56.9668C48.5492 55.9105 48.6634 54.8334 48.6639 53.7532C49.1054 56.3879 48.8912 59.0908 48.0402 61.6231C47.9949 61.5118 47.9333 61.408 47.8573 61.315L47.6068 61.0119L47.5643 61.4002C47.4313 62.636 47.1015 63.8427 46.5874 64.9744C46.5874 64.9268 46.5624 64.8793 46.5473 64.8317L46.4071 64.4159L46.2443 64.8242C45.9357 65.5834 45.5407 66.3045 45.067 66.9732L45.0169 67.0434L45.047 67.126C45.3977 68.0428 45.7082 69.2801 45.1747 70.1893C44.8475 70.7165 44.3753 71.1383 43.8147 71.4041C45.0052 70.6193 45.2073 69.2066 44.4208 67.1661C44.739 66.9376 45.0018 66.6406 45.1898 66.2969C45.0436 66.4186 44.8634 66.4921 44.6738 66.5073C45.5192 65.5599 46.121 64.4208 46.4271 63.1885C46.56 63.4661 46.6195 63.7731 46.5999 64.0802C46.8984 63.1126 47.0305 62.1014 46.9907 61.0896C46.1541 62.2228 45.1703 63.2395 44.0651 64.1128C44.2551 63.8455 44.3881 63.542 44.4559 63.2211H44.4509Z" fill="#121212"/>
<path fill-rule="evenodd" clip-rule="evenodd" d="M21.3073 47.8864C20.7908 49.2984 20.4011 50.7536 20.1426 52.2346C20.3023 51.951 20.5407 51.7197 20.8289 51.5684C20.5691 53.3641 20.6301 55.1917 21.0092 56.9661C21.0606 56.589 21.2476 56.2435 21.5352 55.9943C22.7175 60.7683 25.8208 65.0339 34.5023 65.2268C43.1837 65.4196 45.8663 61.0914 47.4694 55.9943C47.623 56.5081 47.689 57.0441 47.6647 57.5798C48.4439 56.1964 48.7747 54.6054 48.6115 53.0261C48.7469 53.3513 48.8574 53.6862 48.9421 54.028C49.0656 52.4152 48.7286 50.8005 47.9703 49.3717C48.4294 49.546 48.8232 49.8585 49.0974 50.2659C49.0499 48.3977 48.6416 46.5564 47.8952 44.8431C48.2418 45.0893 48.5442 45.3925 48.7894 45.7398C48.5812 43.7683 48.0231 41.8497 47.1412 40.0741C46.4727 39.0405 45.603 38.1521 44.5839 37.4617C44.6628 37.568 44.7155 37.6915 44.7377 37.8221C44.7599 37.9526 44.751 38.0866 44.7116 38.2131C43.85 37.5451 42.5141 36.9649 40.704 36.4723C40.9216 36.842 40.9948 37.2792 40.9094 37.6996C40.5755 37.1536 39.5185 36.7445 37.7384 36.4723C37.9338 36.6326 38.0615 36.9732 38.1216 37.4742C37.2567 36.9849 35.7647 36.661 33.6457 36.5023C33.8944 36.7007 34.0884 36.9594 34.2092 37.2538C33.3467 36.8943 32.4529 36.6151 31.5392 36.4197C30.3049 36.6245 29.1173 37.0487 28.0325 37.6721C28.1553 37.359 28.6136 37.0333 29.4126 36.7002C28.0744 36.8478 26.8016 37.357 25.7307 38.173C24.4207 42.4135 23.0957 45.3942 21.3824 46.6666C21.167 46.8269 20.9516 46.9772 20.7362 47.1225C20.5143 47.8312 20.3986 48.5689 20.3931 49.3116C20.5127 48.7391 20.8379 48.2303 21.3073 47.8814V47.8864Z" fill="black"/>
<path fill-rule="evenodd" clip-rule="evenodd" d="M48.8978 49.7532C48.7952 48.0837 48.401 46.4451 47.7331 44.9115L47.4827 44.3329L47.9986 44.6986C48.1938 44.8359 48.3757 44.991 48.5422 45.162C48.2959 43.4198 47.7715 41.7285 46.9892 40.1525C46.4395 39.2961 45.7414 38.5446 44.9278 37.9333C44.9294 38.04 44.915 38.1464 44.8852 38.2489L44.8126 38.4994L44.6047 38.3366C43.6354 37.5852 42.2252 37.0717 41.0054 36.726C41.1268 37.0458 41.1512 37.3943 41.0755 37.7279L40.9703 38.1387L40.7524 37.7755C40.3892 37.1719 38.9815 36.8488 38.1124 36.696C38.2055 36.932 38.2653 37.1798 38.2902 37.4324L38.3328 37.7805L38.0272 37.6077C37.0253 37.0391 35.3572 36.8087 34.0973 36.696C34.2026 36.8375 34.2916 36.9904 34.3628 37.1518L34.5431 37.5551L34.1349 37.3873C33.2944 37.0411 32.4241 36.772 31.5349 36.5833C30.3344 36.7926 29.1792 37.2087 28.121 37.8131L27.6977 38.041L27.873 37.5927C27.9692 37.3901 28.1179 37.2171 28.3038 37.0917C27.429 37.3302 26.6084 37.735 25.8867 38.284C25.1052 40.8138 23.6775 45.1871 21.4909 46.8126C21.2955 46.9579 21.0926 47.0982 20.8898 47.2359C20.7842 47.5861 20.7046 47.9436 20.6518 48.3055C20.805 48.0876 20.9928 47.8964 21.2079 47.7394L21.6763 47.4038L21.4784 47.9448C21.0405 49.1391 20.6939 50.365 20.4414 51.6117C20.537 51.5338 20.6402 51.4659 20.7495 51.4088L21.0551 51.2536L21.005 51.5917C20.7806 53.1508 20.8009 54.7353 21.0651 56.2881C21.1591 56.1244 21.2812 55.9786 21.4258 55.8573L21.6437 55.6744L21.7113 55.95C23.3269 62.4773 27.9732 64.9044 34.5106 65.0497C38.5382 65.1399 42.4281 64.2983 44.9479 60.9194C46.0499 59.4391 46.7538 57.6882 47.3048 55.9399L47.4776 55.3889L47.6405 55.9424C47.7322 56.2463 47.7943 56.5584 47.8258 56.8742C48.3619 55.6733 48.5727 54.3525 48.437 53.0444L48.3142 51.8572L48.7776 52.9568V52.9743C48.719 51.7417 48.3906 50.537 47.8158 49.4451L47.5954 49.0293L48.0337 49.1972C48.3564 49.3186 48.6506 49.5053 48.8978 49.7457V49.7532Z" fill="white"/>
<path fill-rule="evenodd" clip-rule="evenodd" d="M57.2434 28.215C58.7713 29.8682 62.0024 25.5901 59.8533 24.4028C57.8896 23.3183 55.8933 27.4461 57.2434 28.215Z" fill="#F6A5A4"/>
<path fill-rule="evenodd" clip-rule="evenodd" d="M59.8629 24.3977C60.9675 26.5493 58.3074 28.7009 57.2529 28.2099C58.7808 29.8631 62.012 25.585 59.8629 24.3977Z" fill="#E59595"/>
<path fill-rule="evenodd" clip-rule="evenodd" d="M19.6722 36.8063L19.9677 36.3053C21.2652 34.1412 23.5771 32.7411 25.8564 31.7968L25.924 31.7692L25.9916 31.7968C28.8286 32.9724 31.8781 33.5486 34.9484 33.4891C38.0188 33.4296 41.0436 32.7358 43.8329 31.4511H43.853H43.8755C47.555 30.7548 52.299 29.2194 53.5213 25.2093C53.5088 22.7571 54.6409 21.104 56.9778 20.3601C57.341 19.5962 58.4807 19.3106 59.2496 19.3281C60.0988 19.3482 60.9404 19.6913 61.3261 20.4778C62.1026 20.6782 62.5434 21.3344 62.7889 22.0708C63.0829 22.8825 63.0441 23.7774 62.6812 24.5606C63.0669 25.9482 62.6311 27.4661 61.8446 28.6333C61.4119 29.2842 60.8544 29.8427 60.2043 30.2765C59.5542 30.7104 58.8245 31.0108 58.0574 31.1606C57.6241 32.1149 57.0054 33.2921 56.2189 34.1312L56.795 33.8081L56.259 34.4994C55.6353 35.3059 54.5057 36.0624 53.391 36.681L52.7373 37.3072C51.1768 38.8101 49.3309 39.9197 47.1668 40.2453L47.0515 40.2628L46.9914 40.1626C46.4407 39.3033 45.7409 38.5492 44.925 37.9359C44.9266 38.0426 44.9122 38.149 44.8824 38.2515L44.8098 38.502L44.6019 38.3392C43.6326 37.5877 42.2224 37.0743 41.0026 36.7286C41.124 37.0484 41.1484 37.3969 41.0727 37.7305L40.9675 38.1413L40.7496 37.7781C40.3864 37.1745 38.9787 36.8513 38.1096 36.6986C38.2027 36.9346 38.2625 37.1824 38.2874 37.435L38.33 37.7831L38.0244 37.6103C37.0225 37.0417 35.3544 36.8113 34.0945 36.6986C34.1998 36.8401 34.2888 36.993 34.36 37.1544L34.5403 37.5577L34.1321 37.3899C33.2915 37.0437 32.4213 36.7746 31.5321 36.5858C30.3316 36.7952 29.1764 37.2113 28.1182 37.8157L27.6949 38.0436L27.8702 37.5953C27.9664 37.3927 28.1151 37.2197 28.301 37.0943C27.4262 37.3328 26.6056 37.7376 25.8839 38.2866C25.1024 40.8164 23.6747 45.1897 21.4881 46.8152C21.2752 46.973 21.0573 47.1258 20.8369 47.2736C19.9377 47.8797 18.9032 48.4308 18.0691 49.1171C17.5982 50.5147 16.6439 51.3238 15.1611 51.419C14.6173 51.8766 13.9495 52.1619 13.243 52.2386C12.5364 52.3154 11.823 52.18 11.1936 51.8498L11.0258 51.7796C10.6112 51.6311 10.2719 51.3251 10.0815 50.928V50.9155V50.9005C9.94609 50.3647 9.91127 49.8084 9.97878 49.2599C10.2869 46.9004 12.5862 45.1796 14.4873 44.055C15.7547 43.3036 16.9921 40.7988 17.6158 39.5264C18.0824 38.5788 18.7359 37.7353 19.5369 37.0467C19.7172 36.8912 19.9147 36.7567 20.1255 36.646C19.9724 36.6832 19.8237 36.737 19.6822 36.8063H19.6722ZM59.7656 24.5581C58.0123 23.5837 56.1964 27.416 57.331 28.0647L57.3536 28.0772L57.3736 28.0973C57.513 28.2575 57.703 28.3653 57.9121 28.4028C58.6635 28.5281 59.445 27.7641 59.8257 27.2106C60.3568 26.4441 60.7976 25.1316 59.7656 24.5606V24.5581Z" fill="black"/>
<path fill-rule="evenodd" clip-rule="evenodd" d="M53.571 25.5894C52.4739 28.5951 49.2511 30.5989 43.9026 31.6008C41.0929 32.8976 38.0453 33.5995 34.9513 33.6624C31.8573 33.7254 28.7838 33.148 25.9236 31.9665C23.1366 33.1136 21.2013 34.5898 20.1176 36.3949C20.5083 36.0692 20.8414 35.9741 21.1195 36.1143C19.5841 37.0261 18.4569 38.1808 17.7706 39.5934C16.6034 41.9905 15.589 43.601 14.5721 44.1971C11.1255 46.236 9.64773 48.3851 10.2489 50.8473C10.4009 51.1722 10.6689 51.4286 11.0003 51.5661C10.8956 51.1722 10.8753 50.7605 10.9409 50.3582C11.0066 49.9558 11.1565 49.572 11.381 49.2317C10.9847 49.957 10.879 50.8059 11.0855 51.6062V51.5761C11.7027 51.954 12.4246 52.1245 13.1456 52.0628C13.8667 52.0011 14.5491 51.7103 15.093 51.233C13.3464 51.223 12.8263 50.3881 13.5326 48.7282C13.0316 50.3263 13.5702 51.1052 15.1181 51.0852C15.5162 51.0948 15.914 51.0561 16.3028 50.97C17.0643 50.636 17.6028 49.9823 17.9184 49.0088C18.6899 48.3651 19.6918 47.8315 20.7387 47.1252C20.9542 46.9799 21.1696 46.8296 21.385 46.6693C23.0982 45.3969 24.4232 42.4113 25.7332 38.1757C26.8037 37.3557 28.0776 36.843 29.4177 36.6929C28.6187 37.0261 28.1653 37.3517 28.0376 37.6648C29.1224 37.0414 30.31 36.6172 31.5442 36.4124C32.4541 36.6035 33.3445 36.8777 34.2043 37.2314C34.0835 36.9371 33.8895 36.6784 33.6407 36.48C35.7597 36.647 37.2517 36.971 38.1167 37.4519C38.0566 36.9509 37.9288 36.6153 37.7334 36.45C39.5185 36.7222 40.5755 37.1313 40.9045 37.6773C40.9898 37.2569 40.9166 36.8197 40.6991 36.45C42.5158 36.9392 43.8517 37.5195 44.7067 38.1908L44.7217 38.1307C44.0523 37.2002 43.2894 36.3407 42.4449 35.5658C43.7162 36.4112 44.878 37.4107 45.9039 38.5414L45.8638 38.5039C46.3527 38.965 46.7803 39.4869 47.1363 40.0568C49.0749 39.7663 50.8992 38.8028 52.6091 37.1663C52.2267 37.33 51.821 37.4331 51.4069 37.4719C53.8264 36.3381 55.3952 35.307 56.1133 34.3785C55.8749 34.5074 55.6153 34.5923 55.3468 34.629C56.2385 34.0429 57.0993 32.8281 57.9292 30.9846C61.1278 30.4561 63.2343 27.0446 62.4828 24.5123C62.6657 24.1388 62.7712 23.7322 62.7932 23.3168C62.8151 22.9015 62.753 22.486 62.6106 22.0953C62.32 21.2286 61.8441 20.7327 61.1929 20.5924C60.469 18.9167 57.5435 19.31 57.1001 20.4647C54.8041 21.171 53.667 22.749 53.6887 25.1987C53.7755 26.0993 54.0472 26.9723 54.4868 27.7632C54.9264 28.554 55.5244 29.2457 56.2435 29.7949C55.5185 29.3245 54.9038 28.7029 54.4417 27.9727C53.9795 27.2425 53.6807 26.4209 53.5659 25.5643L53.571 25.5894ZM59.8629 24.3971C62.0069 25.5844 58.7808 29.8625 57.2529 28.2094C55.9029 27.4404 57.8992 23.3126 59.8629 24.3971Z" fill="#333333"/>
<path fill-rule="evenodd" clip-rule="evenodd" d="M42.4502 35.5806C43.7215 36.4261 44.8833 37.4255 45.9092 38.5562L45.8692 38.5187C46.358 38.9798 46.7856 39.5017 47.1416 40.0716C49.0803 39.7811 50.9045 38.8176 52.6145 37.1811C52.232 37.3448 51.8264 37.4479 51.4122 37.4867C53.8318 36.3529 55.4006 35.3218 56.1186 34.3934C55.8802 34.5222 55.6206 34.6071 55.3521 34.6438C56.2438 34.0577 57.1046 32.8429 57.9345 30.9994C58.6738 30.8682 59.3797 30.5919 60.0117 30.1865C60.6436 29.7811 61.189 29.2547 61.6165 28.6375C60.4671 29.8361 58.9243 30.5804 57.2708 30.7339C56.2582 32.7296 54.5555 34.2899 52.4792 35.1247C52.9065 35.1196 53.3318 35.065 53.7466 34.9619C52.2611 36.3136 50.4871 37.309 48.5593 37.8724C49.0756 37.9584 49.6048 37.9267 50.1072 37.7798C49.1753 38.2954 48.1812 38.6893 47.1491 38.952C45.7274 37.6415 44.1511 36.5094 42.4552 35.5806H42.4502Z" fill="#212221"/>
<path fill-rule="evenodd" clip-rule="evenodd" d="M22.2289 35.2351C22.9184 34.2053 23.8776 33.3848 25.0017 32.8631C27.2329 34.1659 29.747 34.9076 32.3281 35.0247C32.9753 35.4535 33.7346 35.6822 34.511 35.6822C35.2874 35.6822 36.0466 35.4535 36.6939 35.0247C39.6249 34.8173 42.4711 33.9499 45.0196 32.4874C46.7279 32.2101 48.3627 31.5909 49.826 30.6668C51.2893 29.7428 52.5511 28.5329 53.5358 27.1097C54.1269 28.2774 55.0743 29.2266 56.2409 29.8199C55.5159 29.3495 54.9012 28.7279 54.439 27.9977C53.9768 27.2675 53.6781 26.4459 53.5633 25.5894C52.6366 28.1342 50.1752 29.966 46.1793 31.0848C43.2877 33.1149 39.9014 34.3265 36.3783 34.5914C35.8607 34.9043 35.2673 35.0698 34.6625 35.0698C34.0577 35.0698 33.4643 34.9043 32.9468 34.5914C30.2128 34.3753 27.5526 33.5985 25.1319 32.3096C22.7641 33.405 21.0943 34.7667 20.1224 36.3948C20.5132 36.0692 20.8463 35.974 21.1243 36.1143C19.5889 37.026 18.4618 38.1807 17.7755 39.5934C16.6083 41.9904 15.5939 43.601 14.5769 44.1971C11.1304 46.236 9.65261 48.3851 10.2537 50.8472C10.4058 51.1722 10.6738 51.4286 11.0052 51.5661C10.9004 51.1721 10.8802 50.7605 10.9458 50.3581C11.0114 49.9558 11.1614 49.5719 11.3859 49.2317C10.9956 49.9479 10.8883 50.7846 11.0853 51.5761C11.7025 51.954 12.4244 52.1245 13.1455 52.0628C13.8665 52.001 14.5489 51.7103 15.0929 51.233C13.8255 51.233 13.2018 50.7796 13.2294 49.8979C13.2077 50.6694 13.5249 51.1286 14.1812 51.2755C13.7667 51.5176 13.3003 51.6569 12.8209 51.6817C12.3416 51.7065 11.8633 51.6162 11.426 51.4183C11.266 51.0751 11.1804 50.702 11.1747 50.3235C11.1691 49.9449 11.2437 49.5694 11.3934 49.2216C10.9776 49.789 10.765 50.4799 10.7898 51.1829C10.6217 51.0703 10.4991 50.9016 10.4441 50.707C10.3416 50.2647 10.3086 49.8092 10.3464 49.3569C10.7898 47.3155 12.483 45.8502 14.5319 44.7957C18.0686 42.9748 17.7004 37.9628 23.4563 34.9796C23.0348 34.9419 22.6112 35.0234 22.2339 35.2151L22.2289 35.2351ZM25.0192 37.9227C23.9121 42.544 22.2189 45.4119 20.3804 46.4389C19.3961 46.9924 18.1262 48.0118 17.3622 48.5754C15.9646 51.01 13.6051 50.737 13.53 48.7157C13.029 50.3137 13.5675 51.0927 15.1155 51.0726C15.5136 51.0823 15.9114 51.0436 16.3002 50.9574C17.0616 50.6235 17.6002 49.9697 17.9158 48.9962C18.6872 48.3525 19.6891 47.819 20.7361 47.1126C20.9515 46.9674 21.1669 46.8171 21.3823 46.6568C23.0956 45.3844 24.4206 42.3987 25.7306 38.1632C26.8011 37.3431 28.0749 36.8305 29.4151 36.6804C27.9297 36.763 26.1889 36.9935 25.0192 37.9127V37.9227Z" fill="#212221"/>
<path fill-rule="evenodd" clip-rule="evenodd" d="M56.0559 29.6568C53.5512 25.3954 53.9686 22.4732 57.3083 20.8902C57.5144 20.5642 57.8031 20.2986 58.1451 20.1204C58.4871 19.9421 58.8701 19.8576 59.2554 19.8754C59.6406 19.8933 60.0143 20.0127 60.3383 20.2218C60.6624 20.4308 60.9254 20.7219 61.1005 21.0655C61.4067 21.195 61.6814 21.3888 61.906 21.6339C62.1306 21.8789 62.2999 22.1694 62.4023 22.4857C62.5047 22.8019 62.5378 23.1365 62.4995 23.4667C62.4612 23.7969 62.3522 24.115 62.18 24.3993C62.4272 25.0664 62.5145 25.7821 62.4349 26.4889C62.3553 27.1958 62.111 27.8742 61.7217 28.4695C62.5382 27.2422 62.8689 25.7694 62.4956 24.5145C62.6785 24.141 62.784 23.7344 62.806 23.319C62.8279 22.9037 62.7658 22.4882 62.6234 22.0975C62.3328 21.2308 61.8569 20.7349 61.2057 20.5946C60.4818 18.9189 57.5563 19.3122 57.1129 20.4669C54.8169 21.1732 53.6798 22.7512 53.7015 25.2008C53.8644 26.9396 54.7113 28.5424 56.0559 29.6568Z" fill="#212221"/>
<path fill-rule="evenodd" clip-rule="evenodd" d="M47.0061 54.8229C46.5139 57.2514 45.3336 59.4872 43.6061 61.2636C41.8785 63.04 39.6765 64.2821 37.2627 64.8419L37.0999 64.8795C36.8118 64.9421 36.5163 64.9972 36.2207 65.0398C36.5288 65.0222 36.8369 64.9997 37.1425 64.9696L37.3103 64.9521C40.2884 64.619 43.0186 63.5244 44.9447 60.9445C46.0468 59.4642 46.7507 57.7134 47.3017 55.9651L47.4745 55.414L47.6373 55.9676C47.6699 56.0703 47.6975 56.1755 47.7225 56.2832C47.7685 56.4863 47.8019 56.6921 47.8227 56.8993C47.9079 56.7065 47.9855 56.5111 48.0556 56.3107C48.4045 55.3139 48.5385 54.2546 48.4489 53.2023C48.4489 53.1506 48.4439 53.098 48.4339 53.0445V52.9794L48.3161 51.8573L48.7795 52.9569V52.9744C48.7201 51.7416 48.3909 50.5369 47.8152 49.4452L47.5948 49.0294L48.0331 49.1972C48.3558 49.3187 48.65 49.5054 48.8972 49.7458C48.7946 48.0763 48.4004 46.4376 47.7325 44.9041L47.482 44.3255L47.998 44.6912C48.1932 44.8285 48.3751 44.9836 48.5416 45.1546C48.2924 43.4238 47.769 41.7437 46.9911 40.1777C46.4404 39.3183 45.7406 38.5642 44.9247 37.9509C44.9263 38.0577 44.9119 38.164 44.8821 38.2665C46.4055 39.6628 47.3866 41.5524 47.6524 43.6016C47.0656 43.1456 46.4276 42.7598 45.7513 42.452C46.9787 44.2861 47.8301 46.3455 48.256 48.5109C47.6208 48.0442 46.9452 47.6352 46.2372 47.2886C47.0832 48.5185 47.7103 49.8853 48.0907 51.3288C47.9278 50.9982 47.6649 50.7274 47.3393 50.5548C47.6216 51.5594 47.7955 52.5915 47.8578 53.6331C47.8578 53.7108 47.8578 53.7884 47.8578 53.8661C47.8829 54.3667 47.8829 54.8683 47.8578 55.3689C47.7666 55.0109 47.6267 54.667 47.442 54.347C47.4119 54.2969 47.3844 54.2493 47.3518 54.2017C47.2902 54.1022 47.2233 54.0061 47.1514 53.9137C47.1264 54.1191 47.0938 54.3245 47.0587 54.5273C47.0412 54.63 47.0212 54.7352 46.9986 54.8379L47.0061 54.8229Z" fill="#CECECE"/>
<path fill-rule="evenodd" clip-rule="evenodd" d="M32.0606 64.8419C29.672 64.4099 27.4777 63.2434 25.7836 61.5049C24.0896 59.7664 22.9802 57.5426 22.6102 55.1436C22.5952 55.0459 22.5827 54.9507 22.5701 54.853C22.5476 54.6802 22.5301 54.5073 22.515 54.332C22.4299 54.3921 22.3464 54.4548 22.2646 54.5199L22.1393 54.6251C21.8818 54.8516 21.6523 55.1081 21.4555 55.389C21.3976 54.8491 21.3683 54.3065 21.3679 53.7634C21.3679 53.6808 21.3679 53.6006 21.3679 53.513C21.3828 52.4119 21.5138 51.3154 21.7586 50.2418C21.4431 50.4522 21.1449 50.6876 20.8669 50.9456C21.2301 49.4401 21.8322 48.0025 22.6503 46.6875C24.4482 44.1653 25.6022 41.2417 26.0117 38.1714L25.8789 38.2691C25.0974 40.7989 23.6697 45.1722 21.4831 46.7977C21.2877 46.943 21.0848 47.0833 20.8819 47.221C20.7763 47.5712 20.6968 47.9287 20.644 48.2906C20.7971 48.0727 20.985 47.8815 21.2001 47.7245L21.6684 47.3889L21.4706 47.9299C21.0327 49.1242 20.6861 50.3501 20.4336 51.5968C20.5291 51.5189 20.6324 51.451 20.7417 51.3939L21.0473 51.2387L20.9972 51.5768C20.932 52.0276 20.8895 52.4785 20.8644 52.9319C20.8644 53.0095 20.8644 53.0872 20.8644 53.1648C20.8242 54.2052 20.8922 55.2469 21.0673 56.2732C21.1613 56.1095 21.2834 55.9637 21.428 55.8424L21.6459 55.6595L21.7135 55.9351C23.1187 61.6108 26.8107 64.1857 32.0506 64.857L32.2184 64.877C32.499 64.9121 32.7845 64.9396 33.0725 64.9622C32.7895 64.9371 32.509 64.8995 32.2285 64.8545L32.0656 64.8244L32.0606 64.8419Z" fill="#CECECE"/>
<path fill-rule="evenodd" clip-rule="evenodd" d="M29.5861 61.6856C29.3531 61.5754 29.1252 61.4577 28.8998 61.3324C24.0581 58.6398 22.5678 53.5502 26.4326 48.7711C28.4615 46.2664 34.1397 44.746 37.3433 45.1618C32.985 43.7691 25.8215 45.808 23.487 49.6052C23.2408 50.0068 23.0232 50.4253 22.8358 50.8576C23.1038 47.7392 25.8916 43.4661 25.9592 38.5843C25.5045 41.5066 24.3731 44.2822 22.6555 46.6897C21.8374 48.0047 21.2353 49.4422 20.8721 50.9477C21.15 50.6897 21.4482 50.4543 21.7638 50.2439C21.519 51.3175 21.388 52.414 21.373 53.5151C21.373 53.5978 21.373 53.6779 21.373 53.7656C21.3735 54.3086 21.4028 54.8512 21.4607 55.3912C21.6574 55.1102 21.887 54.8538 22.1445 54.6272L22.2697 54.522C22.3499 54.4569 22.4334 54.3943 22.5202 54.3342C22.5352 54.5095 22.5528 54.6823 22.5753 54.8551L22.6154 55.1457C22.9855 57.5436 24.0944 59.7663 25.7874 61.5042C27.4805 63.2422 29.6734 64.4088 32.0608 64.8416L32.2236 64.8716C32.5041 64.9167 32.7846 64.9543 33.0677 64.9793C33.5369 65.0161 34.017 65.0403 34.5079 65.052C35.0815 65.0645 35.6551 65.052 36.2212 65.0294C36.5167 64.9868 36.8123 64.9317 37.1003 64.8691L37.2631 64.8315C39.677 64.2718 41.879 63.0297 43.6065 61.2532C45.3341 59.4768 46.5144 57.2411 47.0066 54.8126L47.0667 54.502C47.1018 54.2991 47.1343 54.0937 47.1594 53.8883C47.2313 53.9807 47.2982 54.0768 47.3598 54.1764L47.4499 54.3216C47.6346 54.6416 47.7745 54.9855 47.8657 55.3436C47.8908 54.8429 47.8908 54.3413 47.8657 53.8407V53.6078C47.8001 52.57 47.6238 51.5423 47.3397 50.542C47.6653 50.7146 47.9282 50.9854 48.0912 51.3159C47.7107 49.8725 47.0836 48.5056 46.2376 47.2758C46.9456 47.6223 47.6212 48.0314 48.2565 48.4981C47.9258 46.8287 47.3422 45.2197 46.5257 43.7266C46.58 43.4516 46.611 43.1726 46.6184 42.8925C46.9761 43.101 47.3192 43.3337 47.6453 43.5888C47.3795 41.5395 46.3984 39.65 44.8751 38.2537L44.8024 38.5042L44.5945 38.3413C43.8559 37.8062 43.0389 37.3888 42.1724 37.104C43.3641 38.2453 44.2304 39.6833 44.6825 41.2701C45.1346 42.857 45.1561 44.5357 44.7448 46.1336C45.6767 47.7855 46.2374 49.6207 46.3879 51.5113C46.2757 53.4727 45.6886 55.3775 44.6772 57.0618C44.5294 57.3123 44.3741 57.5452 44.2113 57.7782C43.2775 59.1029 42.0845 60.2242 40.7047 61.0744C40.4542 61.2322 40.2037 61.3775 39.9257 61.5153C38.2757 62.3678 36.4453 62.8119 34.5881 62.8102C32.8512 62.8111 31.1359 62.4261 29.5661 61.6831L29.5861 61.6856ZM45.5113 39.7766C45.5789 40.0696 45.634 40.3852 45.6791 40.7133C45.6064 40.4043 45.5504 40.0916 45.5113 39.7766Z" fill="#E5E5E4"/>
<path fill-rule="evenodd" clip-rule="evenodd" d="M23.4863 49.6047C25.8208 45.8075 32.9843 43.7686 37.3426 45.1612C33.0419 43.1875 25.4651 45.3065 23.4863 49.6047Z" fill="#CECECE"/>
<path fill-rule="evenodd" clip-rule="evenodd" d="M23.4862 49.6058C25.4649 45.3077 33.0418 43.1887 37.3424 45.1624C33.5528 42.9332 26.1838 44.3584 23.8519 48.0855C25.3656 45.0112 26.1083 41.6147 26.016 38.1892C25.9985 38.3195 25.9784 38.4397 25.9584 38.5774C25.8908 43.4667 23.103 47.7398 22.835 50.8507C23.0223 50.4185 23.2399 50 23.4862 49.5983V49.6058Z" fill="#E5E5E4"/>
<path fill-rule="evenodd" clip-rule="evenodd" d="M20.514 14.065C19.5596 14.0533 18.6437 13.6873 17.9441 13.0381C17.5151 12.6085 17.1866 12.0892 16.9822 11.5175C16.7778 10.9459 16.7025 10.336 16.7619 9.73181C16.8082 9.05554 16.9727 8.39261 17.2478 7.7731C17.1663 7.74474 17.0786 7.73932 16.9942 7.75743C16.9098 7.77554 16.8321 7.81649 16.7694 7.87579C17.2723 6.86712 18.0144 5.99687 18.931 5.34099C18.8669 5.31014 18.7967 5.29411 18.7256 5.29411C18.6545 5.29411 18.5843 5.31014 18.5202 5.34099C19.4495 4.60961 20.4388 4.25393 21.6086 3.95587C22.4839 3.72147 23.4089 3.74934 24.2686 4.03601C24.2611 3.86442 24.1978 3.69996 24.0883 3.56763C25.1302 4.05604 25.9471 4.92301 26.3726 5.99222C26.4127 6.07989 26.4477 6.17256 26.4828 6.26774V6.2978V6.33287C26.6005 8.06114 25.9393 9.80194 24.8948 11.162C23.8203 12.589 22.2906 13.6062 20.5591 14.045H20.529L20.514 14.065Z" fill="black"/>
<path fill-rule="evenodd" clip-rule="evenodd" d="M26.2624 6.36318C26.3701 7.92614 25.8141 9.61935 24.7245 11.0345C23.6838 12.4193 22.2007 13.4066 20.5215 13.8323C18.3224 13.7672 16.8446 12.0565 16.9949 9.74959C17.1452 7.44272 18.8784 5.18595 21.1352 4.36189C23.392 3.53783 25.5411 4.37692 26.2624 6.36568V6.36318Z" fill="#1A1A1A"/>
<path fill-rule="evenodd" clip-rule="evenodd" d="M25.3682 7.61615C25.4159 8.88646 25.0042 10.1314 24.2085 11.1228C23.4258 12.1697 22.3072 12.9161 21.04 13.2368C19.3869 13.1867 18.2848 11.8993 18.3875 10.1635C18.4902 8.42769 19.8052 6.72947 21.5034 6.10829C23.2016 5.48712 24.8197 6.10829 25.3632 7.61114L25.3682 7.61615Z" fill="#DD847D"/>
<path fill-rule="evenodd" clip-rule="evenodd" d="M20.0374 13.0249C18.1764 11.1889 18.6198 7.83754 22.0087 6.76301C22.9304 6.46995 23.9123 6.763 24.3481 7.31405C24.5485 7.16126 24.7539 7.01348 24.9618 6.87071C24.2104 5.93393 22.8979 5.61834 21.5203 6.11929C19.822 6.74046 18.5146 8.43868 18.4044 10.1745C18.3167 11.522 18.9679 12.5991 20.0374 13.0374V13.0249Z" fill="#C87871"/>
<path fill-rule="evenodd" clip-rule="evenodd" d="M17.0771 9.10056C18.7228 4.3691 24.3635 3.57259 25.7811 6.34534C25.9064 6.2702 26.0316 6.19756 26.1644 6.12492C25.3603 4.3165 23.2989 3.5801 21.1348 4.3716C20.1171 4.76142 19.2128 5.39932 18.5042 6.22735C17.7956 7.05539 17.3051 8.04733 17.0771 9.11309V9.10056Z" fill="#333333"/>
<path fill-rule="evenodd" clip-rule="evenodd" d="M48.813 14.065C49.7674 14.0538 50.6835 13.6877 51.3828 13.0381C51.8126 12.6089 52.1417 12.0898 52.3466 11.518C52.5515 10.9463 52.6269 10.3362 52.5676 9.73181C52.5188 9.05592 52.3545 8.3934 52.0816 7.7731C52.1628 7.74495 52.2501 7.73965 52.334 7.75776C52.4179 7.77587 52.4953 7.8167 52.5575 7.87579C52.0564 6.86672 51.315 5.99626 50.3985 5.34099C50.4625 5.31014 50.5327 5.29411 50.6038 5.29411C50.675 5.29411 50.7452 5.31014 50.8092 5.34099C49.8775 4.60961 48.8881 4.25393 47.7184 3.95587C46.8438 3.72153 45.9197 3.7494 45.0608 4.03601C45.0685 3.86489 45.1309 3.70074 45.2387 3.56763C44.1979 4.05696 43.3822 4.92373 42.9569 5.99222C42.9168 6.07989 42.8792 6.17256 42.8441 6.26774V6.2978V6.33287C42.7239 8.06114 43.3852 9.80194 44.4296 11.162C45.5046 12.5896 47.0353 13.6069 48.7679 14.045H48.7954L48.813 14.065Z" fill="black"/>
<path fill-rule="evenodd" clip-rule="evenodd" d="M43.0649 6.36251C42.9572 7.92547 43.5157 9.61868 44.6053 11.0339C45.6456 12.4191 47.1289 13.4064 48.8083 13.8317C51.0049 13.7665 52.4827 12.0558 52.335 9.74892C52.1872 7.44205 50.4489 5.18277 48.1921 4.35871C45.9353 3.53465 43.7888 4.37374 43.0649 6.36251Z" fill="#1A1A1A"/>
<path fill-rule="evenodd" clip-rule="evenodd" d="M43.9607 7.61536C43.9132 8.88523 44.3239 10.1299 45.1179 11.122C45.9006 12.1652 47.0171 12.9087 48.2814 13.2285C49.9371 13.1784 51.0492 11.891 50.9365 10.1552C50.8237 8.41939 49.5163 6.72117 47.818 6.09999C46.1198 5.47882 44.5043 6.09999 43.9607 7.60284V7.61536Z" fill="#DD847D"/>
<path fill-rule="evenodd" clip-rule="evenodd" d="M49.3038 13.0249C51.1648 11.1889 50.7215 7.83754 47.33 6.76301C46.4083 6.46995 45.4264 6.763 44.9931 7.31405C44.7927 7.16042 44.5874 7.01264 44.377 6.87071C45.1284 5.93393 46.4409 5.61834 47.8185 6.11929C49.5167 6.74046 50.8242 8.43868 50.9369 10.1745C51.0245 11.522 50.3733 12.5991 49.3038 13.0374V13.0249Z" fill="#C87871"/>
<path fill-rule="evenodd" clip-rule="evenodd" d="M52.2488 9.10056C50.6032 4.3691 44.9625 3.57259 43.5473 6.34534L43.1641 6.12492C43.9681 4.3165 46.0295 3.5801 48.1911 4.3716C49.2091 4.76102 50.1136 5.3988 50.8222 6.2269C51.5309 7.055 52.0213 8.04715 52.2488 9.11309V9.10056Z" fill="#333333"/>
<path fill-rule="evenodd" clip-rule="evenodd" d="M20.0222 28.0016L20.0447 28.0718C20.1501 28.5187 20.3481 28.9385 20.6258 29.3041C20.2742 28.9716 19.9398 28.6213 19.6239 28.2546C18.6821 26.4559 18.1759 24.4612 18.1461 22.4311L17.7354 23.165L17.8456 22.0478C18.0966 19.4446 18.6791 16.8841 19.5788 14.4284C21.4098 7.48525 28.0399 4.01367 34.6699 4.01367C41.3 4.01367 47.9326 7.48525 49.761 14.4284C50.6605 16.8843 51.2438 19.4447 51.4968 22.0478L51.6045 23.165L51.1963 22.4311C51.1652 24.461 50.6591 26.4555 49.7185 28.2546C49.3995 28.6203 49.0656 28.9701 48.7166 29.3041C48.994 28.938 49.1927 28.5184 49.3002 28.0718L49.3227 28.0016C48.9418 28.6084 48.4828 29.1625 47.9576 29.6498C44.7816 32.6003 40.6463 34.251 36.3982 34.5991C35.8812 34.9137 35.2877 35.08 34.6825 35.08C34.0773 35.08 33.4837 34.9137 32.9667 34.5991C28.7086 34.251 24.5858 32.5953 21.4098 29.6498C20.8831 29.1632 20.4233 28.609 20.0422 28.0016H20.0222Z" fill="black"/>
<path fill-rule="evenodd" clip-rule="evenodd" d="M19.7354 26.9868C20.1727 27.9315 20.7895 28.7822 21.5514 29.4916C24.5871 32.3119 28.5095 33.9275 32.5722 34.3408C32.3444 34.1546 32.1422 33.939 31.9711 33.6996C32.2318 33.9705 32.5315 34.201 32.8603 34.3834H32.8828L32.9104 34.3984H32.9254H32.9454L32.978 34.4159L33.0106 34.431H33.0256L33.0932 34.4635H33.1083L33.1433 34.4785H33.1659L33.2009 34.4936H33.2185L33.256 34.5111L33.2861 34.5236H33.3011L33.3362 34.5362H33.3512L33.3788 34.5487L33.4213 34.5612L33.4589 34.5737L33.499 34.5862L33.5391 34.5988H33.5791L33.6192 34.6113H33.6343H33.6543H33.6743H33.7094H33.7219H33.747H33.8146H33.8547H33.8922H33.9048H33.9373L34.025 34.6263H34.0651H34.0801H34.1628L34.3406 34.6464H34.9267H35.0119H35.092H35.1045L35.1872 34.6338H35.1997H35.2398H35.2724L35.3425 34.6213H35.37H35.3826H35.4176H35.4327H35.4627H35.4828H35.5028H35.5379H35.5554H35.5704H35.598H35.6305H35.6506H35.6706H35.7057H35.7232H35.7382H35.7583L35.8259 34.5988L35.8635 34.5862L35.9612 34.5487H35.9837L36.0188 34.5336H36.0413L36.0914 34.5111H36.114H36.1265L36.1691 34.4911H36.1866L36.2116 34.4785L36.2417 34.4635H36.2542H36.2718H36.2893L36.3243 34.4435L36.3995 34.4034L36.4195 34.3909C36.7361 34.2119 37.0247 33.9874 37.2762 33.7246C37.1052 33.9634 36.904 34.1789 36.6775 34.3658C40.7302 33.9525 44.6551 32.337 47.6984 29.5166C48.4595 28.8066 49.0761 27.956 49.5143 27.0119C49.5824 27.3999 49.5514 27.7988 49.4242 28.1716C50.5458 26.0952 51.0662 23.7471 50.927 21.3912C51.0246 21.6218 51.135 21.8468 51.2577 22.065C51.0068 19.4779 50.4268 16.9335 49.5319 14.4932C45.9426 0.822264 23.3873 0.822264 19.7955 14.4932C18.9014 16.9336 18.3223 19.4781 18.0723 22.065C18.1932 21.8462 18.3027 21.6213 18.4004 21.3912C18.2408 23.7339 18.7342 26.075 19.8256 28.1541C19.6959 27.7818 19.6648 27.3822 19.7354 26.9944V26.9868Z" fill="white"/>
<path fill-rule="evenodd" clip-rule="evenodd" d="M40.9781 25.0982C38.283 23.9711 36.6725 22.707 36.1465 21.306C38.9242 18.2502 36.6024 15.6403 37.0106 14.2001C37.8597 11.2169 42.0978 12.1312 44.0089 13.9195C49.3715 18.929 45.2037 26.3256 42.2405 25.6367C41.8147 25.4739 41.3914 25.2936 40.9882 25.0982H40.9781Z" fill="#333333"/>
<path fill-rule="evenodd" clip-rule="evenodd" d="M28.3488 25.0982C31.0456 23.9711 32.6562 22.707 33.1805 21.306C30.4027 18.2502 32.7271 15.6403 32.3163 14.2001C31.4672 11.2169 27.2292 12.1312 25.3181 13.9195C19.9554 18.929 24.1233 26.3256 27.0864 25.6367C27.5156 25.4698 27.9331 25.2902 28.3388 25.0982H28.3488Z" fill="#333333"/>
<path fill-rule="evenodd" clip-rule="evenodd" d="M29.5563 28.7758C31.0905 27.8324 32.8562 27.333 34.6573 27.333C36.4583 27.333 38.224 27.8324 39.7582 28.7758V28.8334C38.9592 29.4571 38.358 30.4214 37.9272 31.3381L37.9122 31.3682C37.574 32.0896 37.6792 32.2424 37.033 32.8435C36.3851 33.442 35.5355 33.7744 34.6535 33.7744C33.7715 33.7744 32.9219 33.442 32.274 32.8435C31.6278 32.2424 31.733 32.0921 31.3948 31.3682L31.3798 31.3381C30.9515 30.4214 30.3503 29.4571 29.5488 28.8334V28.7758H29.5563Z" fill="black"/>
<path fill-rule="evenodd" clip-rule="evenodd" d="M29.6484 28.9059C31.1567 27.9774 32.8931 27.4858 34.6642 27.4858C36.4353 27.4858 38.1717 27.9774 39.68 28.9059C38.8584 29.5395 38.2026 30.3629 37.7688 31.3054H31.5596C31.1249 30.3634 30.4693 29.5403 29.6484 28.9059Z" fill="#851619"/>
<path fill-rule="evenodd" clip-rule="evenodd" d="M34.4952 30.8045C33.7012 30.3361 31.274 30.6216 31.517 31.2278C31.8927 32.0068 31.7324 32.1095 32.3937 32.7306C33.0112 33.3021 33.8216 33.6195 34.663 33.6195C35.5043 33.6195 36.3147 33.3021 36.9323 32.7306C37.6562 32.0594 37.576 31.5835 38.0719 30.7394C36.9248 30.4463 35.2416 30.4087 34.4952 30.812V30.8045Z" fill="#EC2024"/>
<path fill-rule="evenodd" clip-rule="evenodd" d="M28.1883 17.0857C28.7213 17.0857 29.2424 17.2438 29.6856 17.5399C30.1288 17.836 30.4742 18.257 30.6782 18.7494C30.8822 19.2419 30.9356 19.7838 30.8316 20.3066C30.7276 20.8294 30.4709 21.3096 30.094 21.6865C29.7171 22.0634 29.2369 22.3201 28.7141 22.4241C28.1913 22.5281 27.6494 22.4747 27.1569 22.2708C26.6644 22.0668 26.2435 21.7213 25.9474 21.2781C25.6512 20.8349 25.4932 20.3138 25.4932 19.7808C25.4928 19.4268 25.5623 19.0762 25.6976 18.749C25.833 18.4219 26.0315 18.1247 26.2818 17.8743C26.5321 17.624 26.8294 17.4255 27.1565 17.2902C27.4836 17.1549 27.8343 17.0854 28.1883 17.0857Z" fill="white"/>
<path fill-rule="evenodd" clip-rule="evenodd" d="M28.1884 18.1348C28.5164 18.1348 28.8369 18.232 29.1096 18.4142C29.3823 18.5964 29.5948 18.8554 29.7203 19.1584C29.8458 19.4614 29.8787 19.7947 29.8147 20.1164C29.7507 20.438 29.5928 20.7335 29.3609 20.9654C29.129 21.1973 28.8336 21.3552 28.5119 21.4192C28.1903 21.4832 27.8569 21.4503 27.5539 21.3248C27.2509 21.1993 26.9919 20.9868 26.8097 20.7141C26.6275 20.4414 26.5303 20.1209 26.5303 19.7929C26.5303 19.3531 26.705 18.9314 27.0159 18.6204C27.3269 18.3095 27.7486 18.1348 28.1884 18.1348Z" fill="#33C5F3"/>
<path fill-rule="evenodd" clip-rule="evenodd" d="M28.1884 18.6062C28.4207 18.6062 28.6479 18.6751 28.841 18.8042C29.0342 18.9333 29.1848 19.1167 29.2737 19.3314C29.3626 19.546 29.3859 19.7822 29.3406 20.0101C29.2952 20.238 29.1833 20.4473 29.0191 20.6116C28.8548 20.7759 28.6455 20.8878 28.4176 20.9331C28.1897 20.9784 27.9535 20.9551 27.7388 20.8662C27.5242 20.7773 27.3407 20.6268 27.2117 20.4336C27.0826 20.2404 27.0137 20.0133 27.0137 19.7809C27.0133 19.6266 27.0435 19.4737 27.1024 19.331C27.1613 19.1883 27.2479 19.0587 27.357 18.9495C27.4662 18.8404 27.5958 18.7539 27.7385 18.6949C27.8811 18.636 28.034 18.6059 28.1884 18.6062Z" fill="black"/>
<path fill-rule="evenodd" clip-rule="evenodd" d="M27.5146 18.6062C27.6137 18.6062 27.7106 18.6356 27.7929 18.6906C27.8753 18.7457 27.9395 18.8239 27.9774 18.9154C28.0154 19.007 28.0253 19.1077 28.0059 19.2049C27.9866 19.3021 27.9389 19.3913 27.8688 19.4614C27.7988 19.5314 27.7095 19.5791 27.6123 19.5985C27.5152 19.6178 27.4144 19.6079 27.3229 19.57C27.2314 19.532 27.1531 19.4678 27.0981 19.3855C27.0431 19.3031 27.0137 19.2062 27.0137 19.1072C27.0137 18.9743 27.0664 18.8469 27.1604 18.7529C27.2543 18.659 27.3818 18.6062 27.5146 18.6062Z" fill="white"/>
<path fill-rule="evenodd" clip-rule="evenodd" d="M29.0543 20.3225C29.1168 20.322 29.1781 20.3401 29.2303 20.3745C29.2825 20.4089 29.3234 20.458 29.3477 20.5156C29.3719 20.5732 29.3785 20.6367 29.3666 20.6981C29.3548 20.7595 29.3249 20.816 29.2809 20.8604C29.2368 20.9048 29.1806 20.9351 29.1193 20.9475C29.058 20.9598 28.9944 20.9537 28.9366 20.9299C28.8788 20.9061 28.8294 20.8657 28.7946 20.8137C28.7598 20.7618 28.7412 20.7006 28.7412 20.6381C28.7412 20.5548 28.7741 20.475 28.8328 20.4158C28.8914 20.3567 28.971 20.3232 29.0543 20.3225Z" fill="white"/>
<path fill-rule="evenodd" clip-rule="evenodd" d="M41.1404 17.0857C41.6735 17.0857 42.1945 17.2438 42.6377 17.5399C43.081 17.836 43.4264 18.257 43.6304 18.7494C43.8344 19.2419 43.8877 19.7838 43.7837 20.3066C43.6798 20.8294 43.4231 21.3096 43.0461 21.6865C42.6692 22.0634 42.189 22.3201 41.6662 22.4241C41.1434 22.5281 40.6015 22.4747 40.109 22.2708C39.6166 22.0668 39.1957 21.7213 38.8995 21.2781C38.6034 20.8349 38.4453 20.3138 38.4453 19.7808C38.445 19.4268 38.5145 19.0762 38.6498 18.749C38.7851 18.4219 38.9836 18.1247 39.234 17.8743C39.4843 17.624 39.7815 17.4255 40.1087 17.2902C40.4358 17.1549 40.7864 17.0854 41.1404 17.0857Z" fill="white"/>
<path fill-rule="evenodd" clip-rule="evenodd" d="M41.1406 18.1348C41.4685 18.1348 41.7891 18.232 42.0618 18.4142C42.3345 18.5964 42.547 18.8554 42.6725 19.1584C42.798 19.4614 42.8308 19.7947 42.7668 20.1164C42.7029 20.438 42.5449 20.7335 42.3131 20.9654C42.0812 21.1973 41.7857 21.3552 41.4641 21.4192C41.1424 21.4832 40.809 21.4503 40.506 21.3248C40.203 21.1993 39.9441 20.9868 39.7619 20.7141C39.5797 20.4414 39.4824 20.1209 39.4824 19.7929C39.4821 19.5751 39.5248 19.3593 39.608 19.158C39.6912 18.9567 39.8133 18.7737 39.9673 18.6197C40.1214 18.4656 40.3043 18.3435 40.5056 18.2603C40.707 18.1771 40.9227 18.1344 41.1406 18.1348Z" fill="#33C5F3"/>
<path fill-rule="evenodd" clip-rule="evenodd" d="M41.1405 18.6062C41.3729 18.6062 41.6 18.6751 41.7932 18.8042C41.9864 18.9333 42.1369 19.1167 42.2259 19.3314C42.3148 19.546 42.338 19.7822 42.2927 20.0101C42.2474 20.238 42.1355 20.4473 41.9712 20.6116C41.8069 20.7759 41.5976 20.8878 41.3697 20.9331C41.1419 20.9784 40.9056 20.9551 40.691 20.8662C40.4763 20.7773 40.2929 20.6268 40.1638 20.4336C40.0347 20.2404 39.9658 20.0133 39.9658 19.7809C39.9658 19.4694 40.0896 19.1706 40.3099 18.9503C40.5302 18.73 40.829 18.6062 41.1405 18.6062Z" fill="black"/>
<path fill-rule="evenodd" clip-rule="evenodd" d="M40.4638 18.6062C40.5629 18.6062 40.6598 18.6356 40.7422 18.6906C40.8245 18.7457 40.8887 18.8239 40.9267 18.9154C40.9646 19.007 40.9745 19.1077 40.9552 19.2049C40.9358 19.3021 40.8881 19.3913 40.8181 19.4614C40.748 19.5314 40.6587 19.5791 40.5616 19.5985C40.4644 19.6178 40.3637 19.6079 40.2721 19.57C40.1806 19.532 40.1024 19.4678 40.0473 19.3855C39.9923 19.3031 39.9629 19.2062 39.9629 19.1072C39.9629 18.9743 40.0157 18.8469 40.1096 18.7529C40.2036 18.659 40.331 18.6062 40.4638 18.6062Z" fill="white"/>
<path fill-rule="evenodd" clip-rule="evenodd" d="M41.9972 20.3225C42.0597 20.3225 42.1207 20.341 42.1726 20.3757C42.2245 20.4104 42.2649 20.4597 42.2888 20.5173C42.3127 20.575 42.3189 20.6385 42.3068 20.6997C42.2946 20.7609 42.2645 20.8171 42.2204 20.8613C42.1763 20.9054 42.12 20.9355 42.0588 20.9476C41.9976 20.9598 41.9341 20.9536 41.8765 20.9297C41.8188 20.9058 41.7695 20.8653 41.7348 20.8134C41.7001 20.7615 41.6816 20.7005 41.6816 20.6381C41.6816 20.5544 41.7149 20.4741 41.7741 20.4149C41.8333 20.3558 41.9135 20.3225 41.9972 20.3225Z" fill="white"/>
<path fill-rule="evenodd" clip-rule="evenodd" d="M34.6629 29.9406C34.1687 30.1989 33.6238 30.3454 33.0667 30.3696C32.5096 30.3939 31.954 30.2953 31.4393 30.0809C29.9064 29.382 28.3334 28.042 28.2783 26.226C28.1656 22.4038 31.3416 21.2166 34.6629 21.2166C37.9842 21.2166 41.1627 22.3988 41.0475 26.226C40.9949 28.042 39.4194 29.382 37.8815 30.0834C37.3673 30.2966 36.8125 30.3944 36.2563 30.3697C35.7002 30.3451 35.1562 30.1986 34.6629 29.9406Z" fill="black"/>
<path fill-rule="evenodd" clip-rule="evenodd" d="M34.6641 21.3918C30.679 21.4094 28.3471 23.0199 28.4423 26.2285C28.4898 27.8315 29.8199 29.1691 31.5081 29.9431C32.0138 30.1521 32.56 30.2446 33.1063 30.2138C33.6527 30.183 34.185 30.0297 34.6641 29.7652C35.1431 30.0297 35.6754 30.183 36.2218 30.2138C36.7681 30.2446 37.3143 30.1521 37.82 29.9431C39.5082 29.1691 40.8408 27.8315 40.8883 26.2285C40.9835 23.0199 38.6516 21.4094 34.6641 21.3918Z" fill="white"/>
<path fill-rule="evenodd" clip-rule="evenodd" d="M34.583 24.5403H34.7433V29.8554H34.583V24.5403Z" fill="black"/>
<path fill-rule="evenodd" clip-rule="evenodd" d="M34.6634 22.2478C33.3684 22.2478 32.3164 22.7112 32.3164 23.5002C32.3164 24.2892 33.3684 24.9404 34.6634 24.9404C35.9583 24.9404 37.0103 24.2967 37.0103 23.5002C37.0103 22.7037 35.9608 22.2478 34.6634 22.2478Z" fill="#333333"/>
<path fill-rule="evenodd" clip-rule="evenodd" d="M33.4438 22.6441C33.1082 22.7367 32.8677 22.9171 32.9028 23.0498C32.9379 23.1826 33.241 23.2101 33.5741 23.1175C33.9072 23.0248 34.1527 22.8444 34.1151 22.7117C34.0775 22.5789 33.7795 22.5514 33.4438 22.6441Z" fill="white"/>
<path fill-rule="evenodd" clip-rule="evenodd" d="M34.3529 29.5617C32.8684 30.2764 31.1518 29.8222 29.2031 28.1992C29.824 28.951 30.6135 29.5457 31.5075 29.935C31.999 30.1384 32.529 30.2317 33.0604 30.2083C33.5918 30.185 34.1116 30.0455 34.5833 29.7997V27.1973C34.5479 27.9889 34.4709 28.7782 34.3529 29.5617Z" fill="#CECECE"/>
<path fill-rule="evenodd" clip-rule="evenodd" d="M34.9737 29.5619C34.8585 28.7804 34.7808 27.9915 34.7432 27.2025V29.7999C35.2149 30.0457 35.7348 30.1852 36.2662 30.2085C36.7975 30.2319 37.3276 30.1386 37.8191 29.9351C39.5073 29.1612 40.8398 27.8236 40.8874 26.2206C40.9022 25.7861 40.8652 25.3514 40.7772 24.9256C40.3989 23.1723 39.0739 22.0677 37.0025 21.6169C36.2329 21.4581 35.4489 21.38 34.6631 21.3839C35.4843 21.3915 36.3003 21.5138 37.0877 21.7471C43.4147 23.8812 39.8279 31.2927 34.9737 29.5619Z" fill="#CECECE"/>
<path fill-rule="evenodd" clip-rule="evenodd" d="M34.6358 31.0976C34.7404 31.325 34.7885 31.5742 34.7758 31.8242C34.7632 32.0741 34.6902 32.3172 34.5632 32.5329C34.9314 32.1872 34.8863 31.7388 34.731 31.0851C34.7126 31.0249 34.6823 30.9691 34.6418 30.9209C34.6014 30.8727 34.5516 30.8331 34.4956 30.8046C34.2611 30.6867 34.0058 30.6161 33.7441 30.5967C34.1925 30.6743 34.5206 30.8221 34.6258 31.0976H34.6358Z" fill="#A51E22"/>
<path fill-rule="evenodd" clip-rule="evenodd" d="M23.2695 22.4564C24.5102 25.771 26.0248 27.0367 27.8131 26.2536C28.1162 27.9242 28.8877 28.8585 29.857 29.5097C30.7136 30.0908 31.2271 31.1003 31.7256 32.1347C31.6304 31.9318 31.5728 31.7139 31.405 31.3583L31.3899 31.3282C31.0328 30.5194 30.5369 29.7794 29.9246 29.1415C29.8295 29.0664 29.7368 28.9863 29.6491 28.8911L29.559 28.8109C28.8326 28.1146 28.3066 27.2354 28.279 26.2035C28.2657 25.8264 28.2892 25.4489 28.3492 25.0763C27.935 25.2717 27.5176 25.4512 27.0968 25.6149C25.7292 25.933 24.1061 24.5303 23.2796 22.4338L23.2695 22.4564Z" fill="#E5E5E4"/>
<path fill-rule="evenodd" clip-rule="evenodd" d="M46.0568 22.456C44.8195 25.7706 43.3049 27.0364 41.5132 26.2532C41.4306 27.8262 41.0523 28.8156 39.2589 30.5113C38.9008 30.8494 38.0542 32.2646 37.4631 32.8482C35.7097 34.6015 33.2451 34.3185 31.915 32.45C32.0267 32.5886 32.149 32.7184 32.2807 32.8382C32.9286 33.4367 33.7782 33.7691 34.6602 33.7691C35.5423 33.7691 36.3919 33.4367 37.0397 32.8382C37.273 32.6461 37.4633 32.4072 37.5983 32.1369L37.6158 32.1043C37.701 31.9139 37.7636 31.701 37.9189 31.3529L37.9339 31.3228C38.2929 30.5151 38.7886 29.7753 39.3992 29.1362C39.4944 29.061 39.5871 28.9809 39.6772 28.8857L39.7649 28.8055C40.4913 28.1092 41.0173 27.2301 41.0448 26.1981C41.0582 25.821 41.0347 25.4435 40.9747 25.071C41.388 25.2663 41.8113 25.4467 42.2271 25.6095C43.5947 25.9276 45.2202 24.5249 46.0443 22.4285L46.0568 22.456Z" fill="#E5E5E4"/>
<path fill-rule="evenodd" clip-rule="evenodd" d="M20.0059 26.3838C19.2375 24.2886 19.0008 22.0355 19.3171 19.8263C19.1195 20.1212 18.9421 20.4292 18.7861 20.7481C18.896 18.7373 19.1997 16.7418 19.6928 14.7893C18.8566 17.1418 18.3124 19.588 18.0723 22.0731C18.1932 21.8543 18.3027 21.6294 18.4004 21.3993C18.2422 23.7395 18.7355 26.0778 19.8256 28.1546C19.6959 27.7823 19.6648 27.3828 19.7354 26.9949C20.1727 27.9396 20.7895 28.7903 21.5514 29.4997C22.2345 30.135 22.9674 30.7146 23.743 31.233C21.8053 29.7511 20.53 27.565 20.1938 25.1489C20.0775 25.3333 20.0008 25.5398 19.9685 25.7554C19.9362 25.971 19.9489 26.1909 20.0059 26.4013V26.3838Z" fill="#CECECE"/>
<path fill-rule="evenodd" clip-rule="evenodd" d="M38.8228 28.4497C38.3388 28.8592 37.7558 29.1345 37.132 29.2479C36.5083 29.3613 35.8657 29.3089 35.2685 29.0959C35.1739 28.5687 35.1061 28.037 35.0656 27.5029C35.0656 27.4478 35.0656 27.3927 35.0531 27.3401C35.0043 26.6414 35.0177 25.9399 35.0932 25.2436C36.6136 25.1409 37.633 24.2893 36.9717 23.2874C36.99 23.3595 36.9992 23.4335 36.9993 23.5078C37.0019 23.5462 37.0019 23.5847 36.9993 23.623C36.9066 24.3494 35.9373 24.923 34.745 24.948V27.2023V27.3326V27.4954C34.7876 28.1867 34.8577 28.8755 34.9604 29.5618C35.682 29.8402 36.4691 29.9023 37.2253 29.7404C37.9816 29.5785 38.6742 29.1996 39.2185 28.6501L39.3362 28.5298C39.7996 28.0469 40.1366 27.4569 40.317 26.8124C40.4975 26.1678 40.5159 25.4887 40.3707 24.8353C40.3507 24.7577 40.3306 24.68 40.3056 24.6024C39.9324 23.4402 38.928 22.3682 37.0845 21.747C36.8089 21.6643 36.5259 21.5967 36.2429 21.5416C35.7212 21.44 35.1913 21.3872 34.6599 21.3838H34.4395C35.0854 21.4364 35.7241 21.5556 36.3456 21.7395C38.1264 22.2805 39.3137 23.32 39.8146 24.5698C40.3907 26 40.1227 27.325 38.968 28.3269L38.8303 28.4397L38.8228 28.4497Z" fill="#E5E5E4"/>
<path fill-rule="evenodd" clip-rule="evenodd" d="M34.0763 29.2885C32.8356 29.6742 31.5582 29.4362 30.2441 28.5746L30.0888 28.4719C29.7759 28.2539 29.4764 28.0172 29.1921 27.7631C28.7375 26.9783 28.5515 26.0667 28.6623 25.1667C28.7731 24.2666 29.1745 23.4273 29.8057 22.7761C29.1311 23.3564 28.6795 24.1534 28.5283 25.0304C28.4538 25.4249 28.4235 25.8265 28.4381 26.2277C28.4685 26.9511 28.7321 27.6452 29.1896 28.2064C29.3849 28.3667 29.5753 28.517 29.7631 28.6548L29.9084 28.76C31.5615 29.9288 33.0385 30.1985 34.3393 29.569C34.4428 28.8827 34.5146 28.1939 34.5547 27.5026C34.5547 27.4475 34.5547 27.3924 34.5547 27.3398V27.2045V24.9502C33.36 24.9252 32.3906 24.3516 32.3004 23.6252C32.3205 24.4602 32.9534 25.0003 34.199 25.2458C34.2537 25.9432 34.2671 26.6433 34.2391 27.3423V27.5051C34.2091 28.1012 34.1498 28.6965 34.0613 29.291L34.0763 29.2885Z" fill="#E5E5E4"/>
<path fill-rule="evenodd" clip-rule="evenodd" d="M30.9216 34.0959C25.5197 32.0504 22.2201 28.9436 21.0229 24.7757C21.1346 25.0943 21.3397 25.3719 21.6115 25.5722C20.7253 22.9366 20.3198 20.1632 20.4142 17.3842C20.4454 17.7129 20.5765 18.024 20.7899 18.2759C20.8352 16.7475 21.0811 15.2317 21.5213 13.7674C21.5514 13.6697 21.5789 13.572 21.6115 13.4768C21.6616 13.3215 21.7117 13.1662 21.7668 13.0134C22.515 10.8727 23.6728 8.89811 25.1757 7.19992C25.3235 7.0296 25.4763 6.86429 25.6341 6.69897C25.4488 6.81169 25.2684 6.93192 25.0881 7.05214C22.8901 8.52431 21.1994 10.6383 20.2464 13.1061C20.1612 13.3265 20.0777 13.552 19.9959 13.7824C19.9734 13.8575 19.9483 13.9327 19.9258 14.0078C19.8757 14.1706 19.8306 14.3359 19.7855 14.5088C19.7505 14.6065 19.7154 14.7016 19.6828 14.7968C19.1935 16.7472 18.8932 18.7401 18.7861 20.7481C18.9421 20.4292 19.1195 20.1212 19.3171 19.8264C19.0008 22.0355 19.2375 24.2886 20.0059 26.3838C19.9489 26.1734 19.9362 25.9535 19.9685 25.7379C20.0008 25.5223 20.0776 25.3158 20.1938 25.1314C20.5326 27.5439 21.8076 29.7259 23.743 31.2054C25.9154 32.6437 28.3579 33.6246 30.9216 34.0884V34.0959Z" fill="#E5E5E4"/>
<path fill-rule="evenodd" clip-rule="evenodd" d="M49.3211 26.3838C50.0903 24.2888 50.3278 22.0357 50.0124 19.8263C50.21 20.1212 50.3875 20.4292 50.5434 20.7481C50.4322 18.7374 50.1285 16.742 49.6367 14.7893C50.4717 17.1421 51.016 19.5882 51.2572 22.0731C51.1345 21.8549 51.0242 21.6299 50.9266 21.3993C51.0857 23.7393 50.5932 26.0776 49.5039 28.1546C49.6311 27.7818 49.6621 27.3829 49.5941 26.9949C49.1559 27.9391 48.5392 28.7896 47.7781 29.4997C47.0936 30.1344 46.36 30.714 45.584 31.233C47.5217 29.7511 48.797 27.565 49.1332 25.1489C49.2495 25.3333 49.3262 25.5398 49.3585 25.7554C49.3908 25.971 49.3781 26.1909 49.3211 26.4013V26.3838Z" fill="#CECECE"/>
<path fill-rule="evenodd" clip-rule="evenodd" d="M38.4053 34.0959C43.8072 32.0504 47.1068 28.9436 48.304 24.7757C48.1932 25.0942 47.989 25.3717 47.7179 25.5722C48.6041 22.9366 49.0096 20.1632 48.9152 17.3842C48.8829 17.7126 48.7519 18.0235 48.5395 18.2759C48.493 16.7476 48.2471 15.232 47.8081 13.7674L47.7179 13.4768C47.6678 13.3215 47.6152 13.1662 47.5626 13.0134C46.8125 10.8736 45.6548 8.89939 44.1537 7.19992C44.0034 7.0296 43.8506 6.86429 43.6953 6.69897C43.8807 6.81169 44.061 6.93192 44.2388 7.05214C46.4419 8.52191 48.1372 10.6363 49.093 13.1061C49.1757 13.3265 49.2583 13.552 49.3435 13.7824C49.3686 13.8575 49.3911 13.9327 49.4136 14.0078C49.4637 14.1706 49.5113 14.3359 49.5539 14.5088L49.6591 14.7968C50.151 16.7496 50.4546 18.7449 50.5658 20.7556C50.4099 20.4367 50.2325 20.1287 50.0348 19.8339C50.3502 22.0432 50.1127 24.2963 49.3435 26.3913C49.4005 26.1809 49.4133 25.961 49.381 25.7454C49.3486 25.5298 49.2719 25.3233 49.1556 25.1389C48.8119 27.5545 47.5293 29.737 45.5864 31.2129C43.414 32.6512 40.9715 33.6321 38.4078 34.0959H38.4053Z" fill="#E5E5E4"/>
<path fill-rule="evenodd" clip-rule="evenodd" d="M37.3631 33.6831C36.5881 34.2766 35.6392 34.5982 34.663 34.5982C33.6869 34.5982 32.7379 34.2766 31.9629 33.6831C32.2236 33.954 32.5233 34.1845 32.8521 34.3669H32.8746L32.9022 34.3819H32.9172H32.9372L32.9698 34.3995L33.0024 34.4145H33.0174L33.085 34.4471H33.1L33.1351 34.4621H33.1577L33.1927 34.4771H33.2103L33.2478 34.4946L33.2779 34.5072H33.2929L33.328 34.5197H33.343L33.3706 34.5322L33.4131 34.5447L33.4507 34.5573L33.4908 34.5698L33.5309 34.5823H33.5709L33.611 34.5948H33.626H33.6461H33.6661H33.7012H33.7137H33.7388H33.8139H33.854H33.8915H33.9041H33.9366L34.0243 34.6099H34.0644H34.0794H34.1621L34.3399 34.6299H34.926H35.0112H35.0913H35.1038L35.1865 34.6174H35.199H35.2391H35.2717L35.3418 34.6049H35.3693H35.3819H35.4169H35.432H35.462H35.4821H35.5021H35.5372H35.5547H35.5697H35.5973H35.6298H35.6499H35.6699H35.705H35.7225H35.7375H35.7576L35.8252 34.5823L35.8628 34.5698L35.9605 34.5322H35.983L36.0181 34.5172H36.0406L36.0907 34.4946H36.1133H36.1258L36.1684 34.4746H36.1859L36.2109 34.4621L36.241 34.4471H36.2535H36.2711H36.2886L36.3237 34.427L36.3988 34.3869L36.4188 34.3744C36.7354 34.1954 37.024 33.9709 37.2755 33.7082L37.3631 33.6831Z" fill="#CECECE"/>
<path fill-rule="evenodd" clip-rule="evenodd" d="M36.597 22.7485C37.4311 24.0535 33.9971 25.4336 32.3164 23.4999C32.3138 23.5383 32.3138 23.5768 32.3164 23.6151C32.4116 24.3415 33.3809 24.9151 34.5707 24.9401H34.731C35.9833 24.9126 36.9978 24.2789 36.9978 23.4999C36.9977 23.4256 36.9884 23.3515 36.9702 23.2795C36.9053 23.062 36.7695 22.8724 36.5845 22.741L36.597 22.7485Z" fill="black"/>
</g>
</svg>
