<svg xmlns="http://www.w3.org/2000/svg" width="83" height="77" viewBox="0 0 83 77" fill="none">
<mask id="mask0_62:2764" style="mask-type:alpha" maskUnits="userSpaceOnUse" x="0" y="0" width="83" height="77">
<path d="M82.0266 41.9016C82.0266 47.0095 64.7562 56.3551 62.8539 60.7651C59.6069 70.3514 47.7013 77 37.1872 77C27.7555 77 23.8918 74.6577 17.3961 64.7851C13.6289 59.0596 0.697266 55.4524 0.697266 48.0863C0.697266 28.0189 28.8708 0 48.9382 0C69.0057 0 82.0266 21.8342 82.0266 41.9016Z" fill="#C4C4C4"/>
</mask>
<g mask="url(#mask0_62:2764)">





<path fill-rule="evenodd" clip-rule="evenodd" d="M54.598 71.7108C51.8125 68.9993 49.9555 68.8537 48.0645 71.1654C48.3337 70.3814 48.6308 69.4486 48.9032 68.4539C50.4321 67.7784 51.9982 67.9891 53.6911 69.1109C51.8341 68.0759 50.1969 68.017 49.1446 68.7359C49.0043 69.2441 48.8475 69.7461 48.6742 70.2419C50.2464 68.612 52.2695 69.0685 54.7434 71.6116C54.9601 71.5784 55.1621 71.4814 55.3235 71.333C55.485 71.1846 55.5988 70.9914 55.6503 70.778C55.6466 70.9098 55.616 71.0394 55.5602 71.1588C55.5044 71.2781 55.4247 71.3847 55.326 71.4719C55.2273 71.5591 55.1117 71.6251 54.9865 71.6656C54.8612 71.7062 54.729 71.7205 54.598 71.7077V71.7108Z" fill="#CC7D29"/>
<path fill-rule="evenodd" clip-rule="evenodd" d="M31.8379 95.9868C30.9598 96.6 29.891 96.8772 28.826 96.768C27.761 96.6588 26.7706 96.1705 26.0348 95.3919C25.7026 95.553 25.3327 95.6203 24.9651 95.5865C24.5975 95.5526 24.2461 95.4189 23.9488 95.1997C23.7954 95.0819 23.6626 94.9395 23.5557 94.7783C22.977 93.9168 23.0698 92.3519 23.9116 91.6795C25.1832 90.6615 26.331 89.4977 27.3316 88.2119C25.6727 85.9342 23.7631 82.3179 26.0627 79.8389C27.0391 78.7722 27.9331 77.6327 28.7367 76.4301C23.7012 74.481 19.0618 70.9545 20.1265 64.918C20.3957 63.3686 20.6588 61.8192 20.8662 60.2698C20.9776 59.4145 21.0797 58.5406 21.1323 57.673C21.0308 57.1331 21.0424 56.5781 21.1664 56.043C21.1354 54.884 20.9374 53.5143 20.0955 52.7737C18.9906 51.8038 16.9634 52.0889 15.6542 52.3461L15.549 52.3647L15.4592 52.3058C15.3174 52.2256 15.1928 52.1182 15.0925 51.9897C14.9922 51.8612 14.9183 51.7141 14.8749 51.5569C14.8315 51.3998 14.8194 51.2355 14.8395 51.0737C14.8596 50.9119 14.9114 50.7556 14.9919 50.6138L15.1745 50.4682C17.1646 50.022 19.5756 49.8329 21.2995 51.1468C21.6664 51.4308 21.9888 51.7682 22.2558 52.1478C23.1843 49.3309 24.5523 46.26 26.3783 45.0979C30.5493 42.8199 35.2146 41.6004 39.9655 41.5464C44.7164 41.4924 49.4081 42.6054 53.6297 44.7881C55.6357 45.0545 57.6749 44.6908 59.4656 43.7472C61.2563 42.8036 62.7102 41.3265 63.6265 39.5201L63.6575 39.4643L63.6141 39.2753C63.7174 38.6438 63.9583 38.0428 64.3198 37.5151C64.6293 37.0255 64.9821 36.5669 65.2854 36.0742C65.4185 35.8603 65.6785 35.4234 65.5949 35.1445C65.3216 34.3565 65.1145 33.5469 64.9759 32.7243C64.9056 32.1856 65.0063 31.6384 65.264 31.1602C65.5217 30.682 65.9231 30.2972 66.4115 30.0603C66.8998 29.8233 67.4502 29.7463 67.9847 29.8402C68.5192 29.934 69.0107 30.1939 69.3894 30.583C69.75 30.9786 69.9855 31.4724 70.0659 32.0019C70.1463 32.5314 70.0682 33.0729 69.8412 33.5579C69.5967 34.1529 69.8412 34.4566 70.4107 34.5526C71.5392 34.0089 72.7416 33.635 73.9792 33.4433C74.9604 33.2666 75.861 33.5548 76.3809 34.438C76.774 35.1042 76.9195 36.2012 76.5202 36.917C77.2166 38.0512 77.5075 39.3124 76.6626 40.4249C77.1114 41.3546 77.5354 42.6127 76.9504 43.5392C76.5233 44.2148 75.7124 44.4689 74.9665 44.5526C73.4902 45.5535 71.788 45.8231 70.0331 45.6185C69.4141 45.5473 68.3154 45.4202 67.7305 45.6433L67.5912 45.696C66.4832 47.1958 61.5033 48.8227 59.7485 49.3495C58.2128 49.8179 56.6527 50.2017 55.0751 50.4992C54.0707 50.7107 53.0467 50.8146 52.0203 50.8091C53.7791 57.9487 52.7844 65.4898 49.2348 71.9276C51.6799 73.7125 53.9794 76.018 54.8058 79.0115C55.1834 80.3811 54.4592 81.9058 53.7535 83.0399C52.7105 84.7288 51.2528 86.3557 49.8724 87.809C50.2495 87.8585 50.6328 87.8203 50.9928 87.6975C54.0449 86.8816 57.2663 86.9558 60.2777 87.9113C61.5838 88.3265 63.0973 89.2841 62.927 90.8614C62.8716 91.2383 62.7335 91.5983 62.5227 91.9155C62.3118 92.2326 62.0335 92.4991 61.7076 92.6959C61.6923 92.7578 61.6737 92.8188 61.6519 92.8787C61.5097 93.2137 61.2983 93.5147 61.0316 93.762C60.7649 94.0093 60.4489 94.1972 60.1044 94.3135C59.2499 94.6219 58.3357 94.728 57.4334 94.6234C56.4307 95.4724 53.8866 94.7597 52.8621 94.4188C50.7607 93.7278 48.2661 92.9159 46.0346 93.2258C44.9688 93.4008 43.8816 93.4008 42.8158 93.2258C42.268 93.1142 41.5005 92.8539 41.2683 92.2961C41.0349 91.7193 40.9196 91.1015 40.9292 90.4792C40.9387 89.8569 41.073 89.2429 41.324 88.6736L41.4014 88.5527L41.4788 88.3637C42.8468 84.9891 43.605 80.9265 40.2408 78.5497C38.2693 79.4794 36.3751 80.8894 35.5766 83.0028C34.9576 84.6668 35.1186 86.4456 35.6354 88.1127C36.8363 88.9587 36.7899 92.8415 36.7837 94.0315V94.0934L36.7311 94.1647C36.1685 94.9132 35.4015 95.4827 34.5228 95.8043C33.6441 96.126 32.6912 96.1862 31.7791 95.9775L31.8379 95.9868ZM30.4266 73.4553C31.3677 71.4531 31.9492 69.3007 32.1443 67.0965C31.3922 69.3803 29.4021 70.4494 26.5238 70.4091C24.6668 70.3843 23.7847 69.0921 23.6238 67.3475C23.5994 67.1651 23.6248 66.9795 23.6973 66.8103C23.7698 66.6412 23.8866 66.4949 24.0354 66.3869C23.8603 66.0914 23.7977 65.7426 23.859 65.4045C23.9034 65.179 24.001 64.9674 24.1437 64.7874C24.2863 64.6073 24.47 64.464 24.6792 64.3695C24.7843 64.3208 24.8943 64.2835 25.0073 64.258C24.9152 64.0445 24.9034 63.8049 24.9739 63.5834C25.0445 63.3618 25.1926 63.1733 25.391 63.0525C24.7028 62.5683 24.052 62.0328 23.4443 61.4504C23.305 62.7457 23.1069 64.0349 22.881 65.3147C22.0794 69.8018 26.8674 72.2591 30.3956 73.4429H30.4266V73.4553ZM31.8534 61.5558C31.7935 61.2418 31.7285 60.9257 31.6584 60.6076C31.2777 58.9249 30.3864 56.6906 29.2103 55.3148C28.8373 55.8154 28.5478 56.3731 28.3529 56.9664C28.4891 58.1099 29.4176 59.0643 30.2749 59.7554C30.9148 60.2488 31.4512 60.8638 31.8534 61.5651V61.5558Z" fill="#8F361F"/>
<path fill-rule="evenodd" clip-rule="evenodd" d="M31.9172 60.5613C33.6411 68.1875 31.3353 74.4688 26.2472 80.0033C24.4644 81.94 25.2041 84.8994 27.6647 88.2338C29.336 89.1035 31.9347 89.1159 35.4609 88.271C34.095 83.9842 35.4908 80.747 39.6484 78.5592C38.7123 78.6491 37.7677 78.5371 36.8784 78.2308C38.0456 78.4352 39.2417 78.4055 40.3973 78.1432C41.5529 77.881 42.645 77.3914 43.61 76.703C42.7607 77.5284 41.7093 78.1151 40.5615 78.4043C43.2665 80.4082 43.6688 83.756 41.7685 88.4476C44.2828 87.7367 46.9151 87.5437 49.506 87.8805C52.9971 84.2208 55.1946 81.2087 54.6065 79.0798C53.8173 76.2227 51.6322 73.9854 49.2212 72.2097C48.4414 73.2304 47.462 74.0813 46.3429 74.7105C47.3749 73.9842 48.2576 73.0657 48.9427 72.0052C52.5709 65.5518 53.5858 57.9499 51.7777 50.769C51.0719 50.46 50.4663 49.9599 50.029 49.3249C50.5288 49.8487 51.1359 50.2578 51.8087 50.5242C55.0151 50.8526 65.5937 47.6826 67.3486 45.6249C67.0355 45.4186 66.7653 45.1534 66.5532 44.844C65.4241 43.2971 64.4886 41.6174 63.7677 39.8425C62.7977 41.6482 61.2995 43.1138 59.4739 44.0426C57.6484 44.9715 55.5828 45.3193 53.5542 45.0393C49.3677 42.8669 44.7122 41.7576 39.9971 41.8089C35.282 41.8602 30.6517 43.0706 26.5133 45.3336C24.7151 46.4709 22.8643 50.0222 21.4221 56.099C20.5802 59.6347 25.263 62.9164 27.9773 64.3294C29.3757 64.0967 30.8096 64.203 32.1586 64.6393C32.3783 62.8017 31.7036 61.2306 30.1035 59.957C28.9986 59.0769 28.3363 58.1938 28.132 57.2889C27.9296 58.3196 27.8888 59.3755 28.0113 60.4187C27.7493 59.4724 27.7194 58.4768 27.9242 57.5165C28.129 56.5561 28.5623 55.6595 29.1874 54.9028C29.63 54.3342 30.1608 53.8404 30.7596 53.4402C29.9642 54.156 29.4969 54.7076 29.3545 55.0856C30.2304 56.1021 31.357 58.107 31.911 60.552L31.9172 60.5613Z" fill="#FFA800"/>
<path fill-rule="evenodd" clip-rule="evenodd" d="M34.5154 51.965C30.5322 48.1472 47.3937 46.1361 48.0467 49.2628C51.12 64.0194 48.7957 72.6062 40.987 74.7258C39.6686 75.0822 38.8948 74.4624 38.8639 73.1764C38.5544 61.7325 37.2328 54.5835 34.5154 51.9774V51.965Z" fill="#FDCE68"/>
<path fill-rule="evenodd" clip-rule="evenodd" d="M44.3787 70.6259C41.7943 72.0204 40.25 71.6919 40.1973 70.7685C39.8043 63.5637 38.5663 58.4352 36.5391 55.3828C37.9194 59.1014 38.6498 65.045 38.8634 73.1639C38.8943 74.4623 39.6681 75.082 40.9866 74.7133C47.1765 73.0337 49.9218 67.2761 49.2595 57.6171C49.1821 64.106 47.7677 68.7883 44.3787 70.6135V70.6259Z" fill="#FCBB54"/>
<path fill-rule="evenodd" clip-rule="evenodd" d="M36.5391 55.3828C37.9194 59.1014 38.6498 65.045 38.8634 73.1639C38.8943 74.4623 39.6681 75.082 40.9866 74.7133C43.4812 74.0992 45.643 72.5452 47.0218 70.3749C45.6367 72.3836 43.5663 73.8162 41.2001 74.4034C39.8816 74.7598 39.1079 74.14 39.0739 72.854C38.9717 68.841 38.7644 58.7388 36.5391 55.3921V55.3828Z" fill="#F9A946"/>
<path fill-rule="evenodd" clip-rule="evenodd" d="M47.0235 70.3782C45.6429 72.548 43.4803 74.1017 40.9852 74.7165C39.6667 75.0729 38.893 74.4531 38.862 73.1671C38.6856 66.4644 38.1564 61.2459 37.2031 57.5273C38.1264 62.6086 38.4577 67.78 38.1904 72.9378C38.0852 74.7382 39.0044 75.6834 40.6881 75.3332C45.6989 74.292 48.4936 70.2883 49.1467 63.914C48.8186 66.5108 48.1109 68.6645 47.0235 70.3751V70.3782Z" fill="#E38925"/>
<path fill-rule="evenodd" clip-rule="evenodd" d="M7.866 52.4083C5.63451 51.9497 4.26962 50.0904 3.40612 47.977L3.1709 47.3975L3.75276 47.6299C4.79809 47.9945 5.91274 48.1153 7.01178 47.9832C7.38627 47.9522 7.97742 47.9088 8.58094 47.915C8.46232 47.8902 8.34248 47.8715 8.22192 47.8592L6.67443 47.7198L8.1693 47.3386C9.84679 46.9079 11.7038 46.8521 13.3348 47.4936C14.5016 47.9522 15.6127 48.8199 15.9903 50.0625C16.2132 50.7907 16.3772 51.6739 16.1141 52.4114C15.0278 55.4576 12.1433 55.7055 9.39492 54.7975C8.19301 54.3938 7.11749 53.6823 6.27517 52.7337L5.5788 51.9497L6.5661 52.2937C6.97957 52.4566 7.43219 52.4922 7.866 52.3959V52.4083Z" fill="#8F361F"/>
<path fill-rule="evenodd" clip-rule="evenodd" d="M15.7462 50.1428C15.7679 50.2109 15.7896 50.2822 15.8081 50.3504C15.5915 50.3907 15.381 50.4341 15.1737 50.4805L14.9911 50.6262C14.9106 50.7679 14.8588 50.9242 14.8387 51.0861C14.8186 51.2479 14.8306 51.4121 14.874 51.5693C14.9175 51.7264 14.9914 51.8735 15.0917 52.002C15.192 52.1305 15.3166 52.2379 15.4584 52.3181L15.5482 52.377L15.6534 52.3584L15.8762 52.315C15.0065 54.7507 12.7472 55.6153 9.49128 54.54C8.33247 54.1491 7.29555 53.4623 6.48295 52.5475C7.38359 52.8573 8.12948 52.7551 8.72372 52.2376C6.49533 52.1549 4.8065 50.6995 3.65723 47.8713C4.74033 48.2535 5.89705 48.3797 7.03695 48.2401C8.82585 48.0944 9.93696 48.1967 10.3703 48.5314C9.77162 48.0147 9.03425 47.686 8.25019 47.5862C12.1901 46.5791 15.1427 48.1347 15.7493 50.1366L15.7462 50.1428Z" fill="#C64A29"/>
<path fill-rule="evenodd" clip-rule="evenodd" d="M7.38246 52.7304C7.84542 52.7751 8.3123 52.7071 8.74339 52.5323C9.17448 52.3575 9.55701 52.081 9.85845 51.7264C7.22152 51.6892 5.14891 50.4063 3.64062 47.8777C4.79815 50.7038 6.4942 52.1644 8.72878 52.2594C8.36199 52.5874 7.88327 52.7616 7.39175 52.7459L7.38246 52.7304ZM15.3675 50.0128C15.4025 50.0869 15.4285 50.1649 15.4449 50.2452C15.2848 50.2913 15.1431 50.3862 15.0393 50.5167C14.9356 50.6472 14.8751 50.8069 14.8661 50.9734C14.8954 50.8538 14.9369 50.7375 14.9899 50.6263L15.1725 50.4807C15.3799 50.4342 15.5904 50.3908 15.807 50.3505L15.7451 50.1429C15.7107 50.0255 15.6683 49.9106 15.6182 49.7989C15.2175 48.9903 14.5539 48.3422 13.7365 47.9613C14.4934 48.4439 15.0675 49.166 15.3675 50.0128ZM8.28001 48.1814C9.34778 48.1814 10.0441 48.2898 10.366 48.5377C9.7674 48.021 9.03003 47.6923 8.24597 47.5926C10.2299 47.0875 11.9599 47.23 13.2753 47.7537C11.8922 47.3298 10.4254 47.2574 9.00733 47.543C9.70252 47.8021 10.3093 48.2547 10.756 48.8476C10.3227 48.5935 9.49737 48.3714 8.28001 48.1814ZM14.9188 52.2284C13.0205 54.5959 10.2092 54.7044 6.48492 52.5538C6.77451 52.8751 7.09138 53.1705 7.43198 53.437L8.03241 53.8584C8.48964 54.1463 8.9802 54.3773 9.49324 54.5464C12.7492 55.6216 15.0085 54.7571 15.8782 52.3214L15.6708 52.3617L15.5656 52.3803L15.4758 52.3214C15.2443 52.1726 15.0565 51.9646 14.9319 51.719C14.8074 51.4733 14.7505 51.1988 14.7671 50.9238V50.7937C14.677 51.0286 14.6442 51.2817 14.6717 51.5318C14.6992 51.7819 14.786 52.0218 14.9249 52.2315L14.9188 52.2284Z" fill="#B14226"/>
<path fill-rule="evenodd" clip-rule="evenodd" d="M15.23 50.7374C15.1606 50.8498 15.1152 50.9754 15.0965 51.1063C15.0779 51.2371 15.0864 51.3704 15.1216 51.4978C15.1567 51.6252 15.2177 51.7439 15.3008 51.8466C15.3839 51.9493 15.4873 52.0338 15.6044 52.0946C19.4237 51.3509 21.0516 52.2403 21.3735 55.1935C21.5778 54.3909 21.8377 53.4488 22.1503 52.4634C20.8938 50.5297 18.6344 49.9596 15.23 50.7219V50.7374ZM21.3394 58.4565C21.1816 60.2353 20.8412 62.4013 20.3862 64.9858C19.4979 70.0368 22.6641 73.8298 28.885 76.2252C29.4136 75.4177 29.8902 74.5772 30.3118 73.7089C25.0101 71.9302 21.9554 69.0607 22.6177 65.2801C22.8777 63.8175 23.0726 62.4654 23.2026 61.2238C22.3951 60.4432 21.7622 59.5001 21.3456 58.4565H21.3394Z" fill="#F7971D"/>
<path fill-rule="evenodd" clip-rule="evenodd" d="M24.445 66.4799C24.2639 66.5255 24.1064 66.6373 24.0033 66.7932C23.9002 66.9491 23.8591 67.138 23.8879 67.3227C24.0426 69.0767 24.9185 70.1117 26.5279 70.1458C30.2604 70.1985 32.1546 68.3578 32.2103 64.9428L32.0803 64.9026C30.8384 64.4974 29.5204 64.3819 28.227 64.5648C28.2685 64.8729 28.2768 65.1846 28.2518 65.4944C28.2518 65.5409 28.2518 65.5843 28.2518 65.6277C28.1249 66.6131 27.2428 67.5552 26.7043 67.1523C25.8284 66.5016 24.9897 66.3218 24.4635 66.4861L24.445 66.4799ZM28.0259 64.5927C28.2023 65.6432 27.9423 66.4024 27.2924 66.9261C27.2343 66.9901 27.1572 67.0337 27.0725 67.0504C26.9878 67.0672 26.8999 67.0562 26.8219 67.0191C25.9037 66.3538 25.0784 66.1318 24.3459 66.3528C24.2504 66.2259 24.1821 66.0805 24.1453 65.9258C24.1086 65.7712 24.1042 65.6106 24.1324 65.4542C24.1688 65.2697 24.2491 65.0967 24.3666 64.9499C24.4841 64.8032 24.6352 64.687 24.8071 64.6113C25.0475 64.503 25.3128 64.4623 25.5746 64.4935C26.1849 64.585 26.7551 64.8532 27.215 65.2651C27.605 65.575 27.834 65.4387 28.0413 64.5927H27.998H28.0413H28.0259ZM25.4416 64.4129C25.3578 64.3433 25.2917 64.2547 25.2487 64.1545C25.2056 64.0543 25.1869 63.9454 25.194 63.8366C25.2002 63.702 25.245 63.572 25.3229 63.4621C25.4008 63.3523 25.5086 63.2671 25.6334 63.2168C26.3478 63.7081 27.0909 64.1561 27.8587 64.5586L27.899 64.5803C27.8566 64.8216 27.7717 65.0535 27.6483 65.2651C27.5709 65.3922 27.4316 65.3612 27.2645 65.2155C26.7662 64.7465 26.1233 64.4613 25.4416 64.4068V64.4129Z" fill="#FDCE68"/>
<path fill-rule="evenodd" clip-rule="evenodd" d="M50.0169 49.3244C52.9303 57.4495 52.0638 65.5137 47.4171 73.5169L47.0303 74.1708C47.7666 73.545 48.4069 72.8141 48.9306 72.0016C52.5588 65.5482 53.5737 57.9463 51.7656 50.7653C51.0598 50.4563 50.4542 49.9562 50.0169 49.3213V49.3244Z" fill="#E38925"/>
<path fill-rule="evenodd" clip-rule="evenodd" d="M70.4909 34.8289C69.6708 34.7236 69.3025 34.2402 69.6274 33.4561C69.8349 33.0193 69.9077 32.5304 69.8366 32.0519C69.7655 31.5734 69.5537 31.127 69.2282 30.7695C68.8883 30.4201 68.4471 30.1869 67.9673 30.1028C67.4875 30.0188 66.9934 30.0882 66.5553 30.3012C66.1171 30.5142 65.7571 30.86 65.5263 31.2895C65.2955 31.719 65.2058 32.2104 65.2697 32.6938C65.4022 33.502 65.6041 34.2972 65.8732 35.0706C66.1456 36.0003 64.14 37.6489 63.945 39.3377C63.7593 39.9358 67.0586 45.9041 67.659 45.3928C68.1635 45.2038 68.9682 45.2224 70.0855 45.3556C71.8713 45.5664 73.4002 45.2472 74.6692 44.426C73.7835 44.5049 72.8911 44.4548 72.0199 44.2772C71.1788 44.1064 70.3801 43.7693 69.6708 43.2856C69.156 42.9387 68.7444 42.459 68.4792 41.8973C68.3583 41.639 68.303 41.3548 68.3183 41.07C68.3236 40.9458 68.3537 40.8239 68.4069 40.7116C68.46 40.5993 68.5351 40.4988 68.6278 40.4161C68.6809 40.3622 68.7454 40.321 68.8166 40.2953C67.8447 39.6755 67.6652 39.1084 67.9531 38.5413C68.2409 37.9742 68.8382 37.6117 69.7389 37.3018L69.646 37.3328C68.6711 36.6541 68.9187 35.647 70.4724 34.8072L70.4909 34.8289ZM76.2662 37.1468C71.8744 36.8989 69.1013 37.1685 68.179 38.6963C67.9592 39.0619 68.2007 39.5763 68.928 40.2457C69.0282 40.2099 69.132 40.185 69.2375 40.1713C70.0292 40.1191 70.8241 40.143 71.6113 40.2426C73.1887 40.4239 74.7817 40.4239 76.359 40.2426C77.1142 39.6228 77.1359 37.8813 76.2631 37.1221L76.2662 37.1468ZM71.5928 40.5184C70.8229 40.4221 70.0458 40.3983 69.2715 40.4471C69.1026 40.4606 68.9413 40.5231 68.8073 40.6268C68.7392 40.6875 68.684 40.7613 68.6452 40.8438C68.6064 40.9264 68.5846 41.016 68.5813 41.1071C68.5698 41.3498 68.6188 41.5915 68.7237 41.8106C68.968 42.3295 69.349 42.7719 69.8255 43.0904C70.5068 43.5547 71.2739 43.8782 72.0818 44.0417C73.0053 44.2289 73.9523 44.2718 74.8889 44.1688C75.2896 44.1378 75.681 44.0328 76.0433 43.8589C76.3317 43.7217 76.5668 43.4929 76.7119 43.2081C76.8566 42.9002 76.9083 42.5566 76.8604 42.2196C76.7796 41.6257 76.5919 41.0514 76.3064 40.5246C74.7401 40.7002 73.1591 40.7002 71.5928 40.5246V40.5184ZM69.7729 37.3204C71.274 36.8277 73.5488 36.6727 76.2383 36.9144C76.8573 36.0716 76.52 33.6297 74.5144 33.6576C70.3826 34.2773 68.3585 36.1366 69.8224 37.3018L69.7729 37.3204Z" fill="#FDCE68"/>
<path fill-rule="evenodd" clip-rule="evenodd" d="M69.9327 37.4904C68.1396 38.3168 67.8301 39.1597 69.0042 40.0191C69.7251 39.9365 70.4539 39.9521 71.1707 40.0656C72.9226 40.3228 74.7018 40.3343 76.4569 40.0997C76.7232 39.6444 76.847 39.1196 76.8122 38.5931C76.7774 38.0666 76.5858 37.5627 76.2619 37.1465C77.1347 37.9057 77.113 39.6255 76.3579 40.267C74.7805 40.4483 73.1875 40.4483 71.6102 40.267C70.823 40.1674 70.028 40.1435 69.2363 40.1957C69.1308 40.2094 69.027 40.2343 68.9268 40.2701C68.1995 39.5915 67.9581 39.077 68.1778 38.7207C68.5901 38.1093 69.2162 37.6748 69.9327 37.5028V37.4904Z" fill="#F9A946"/>
<path fill-rule="evenodd" clip-rule="evenodd" d="M76.0821 36.6319C74.0523 36.4012 71.9979 36.5239 70.0098 36.9944C69.3268 36.3974 69.5332 35.7012 70.6288 34.9058C69.332 35.6836 68.973 36.6164 69.8426 37.3012C71.3468 36.824 73.6 36.6814 76.2586 36.9139C76.7661 36.2352 76.6392 34.5154 75.5189 33.8894C75.8963 34.2239 76.1567 34.6707 76.262 35.1643C76.3672 35.6578 76.3118 36.1722 76.1038 36.6319H76.0821Z" fill="#F9A946"/>
<path fill-rule="evenodd" clip-rule="evenodd" d="M70.2372 45.0237C69.2034 44.8316 68.3802 44.7138 67.6683 44.8997C64.8828 41.8598 63.6882 39.232 66.322 35.8357C66.4227 35.692 66.4752 35.52 66.4718 35.3446C66.4685 35.1691 66.4095 34.9993 66.3034 34.8595C65.3378 32.5251 65.5586 30.954 66.9658 30.1462C66.8249 30.1846 66.6881 30.2364 66.5572 30.3012C66.1197 30.515 65.7601 30.8608 65.5291 31.29C65.2982 31.7191 65.2074 32.21 65.2697 32.6935C65.4022 33.5016 65.6041 34.2969 65.8732 35.0703C66.1456 35.9999 64.14 37.6485 63.945 39.3373C63.7593 39.9354 67.0586 45.9038 67.659 45.3924C68.1635 45.2034 68.9682 45.222 70.0855 45.3553C71.8713 45.566 73.4002 45.2468 74.6692 44.4256C73.7835 44.5045 72.8911 44.4544 72.0199 44.2769C71.1788 44.106 70.3801 43.7689 69.6708 43.2853C69.156 42.9383 68.7444 42.4587 68.4792 41.897C68.3583 41.6387 68.303 41.3545 68.3183 41.0696C68.3236 40.9454 68.3537 40.8236 68.4069 40.7113C68.46 40.599 68.5351 40.4985 68.6278 40.4157C68.6809 40.3619 68.7454 40.3206 68.8166 40.2949C67.8447 39.6751 67.6652 39.108 67.9531 38.541C68.2099 38.0358 68.798 37.633 69.646 37.3386C68.6711 36.66 68.9187 35.6528 70.4724 34.8131C69.6522 34.7077 69.2839 34.2243 69.6089 33.4403C69.6089 33.4217 69.6243 33.4 69.6336 33.3814C69.191 34.0167 69.2622 34.528 69.8472 34.9308C68.7206 35.8667 68.5081 36.6372 69.2096 37.2425C67.3031 38.2631 67.0256 39.2692 68.3771 40.2608C68.203 40.4095 68.0776 40.6074 68.0175 40.8285C67.9573 41.0496 67.965 41.2837 68.0397 41.5003C68.7206 43.7067 70.5343 44.7572 73.4436 44.658C72.4262 45.0888 71.3053 45.2127 70.2186 45.0144L70.2372 45.0237Z" fill="#F9A946"/>
<path fill-rule="evenodd" clip-rule="evenodd" d="M75.8289 43.7372C73.7986 44.4747 70.651 43.8859 69.3294 42.4264C68.5247 41.5246 68.5928 40.7964 69.2985 40.4431H69.2582C69.0893 40.4566 68.928 40.5191 68.794 40.6229C68.7259 40.6835 68.6708 40.7573 68.6319 40.8398C68.5931 40.9224 68.5714 41.012 68.5681 41.1032C68.5566 41.3458 68.6055 41.5876 68.7104 41.8066C68.9548 42.3255 69.3357 42.7679 69.8122 43.0864C70.4936 43.5508 71.2606 43.8742 72.0685 44.0378C72.992 44.2249 73.939 44.2678 74.8756 44.1648C75.2763 44.1339 75.6677 44.0288 76.0301 43.8549C76.3184 43.7177 76.5535 43.4889 76.6986 43.2042C76.8433 42.8962 76.895 42.5526 76.8471 42.2156C76.7663 41.6217 76.5786 41.0474 76.2931 40.5206C76.6626 41.2712 76.7547 42.1286 76.5531 42.9408C76.5084 43.1244 76.4172 43.2933 76.2881 43.4312C76.159 43.5691 75.9966 43.6713 75.8165 43.7279L75.8289 43.7372Z" fill="#F9A946"/>
<path fill-rule="evenodd" clip-rule="evenodd" d="M76.1017 40.9271C76.275 42.0488 76.0584 42.9599 75.4487 43.6943C73.739 44.0827 71.9499 43.9111 70.345 43.2047C71.8925 44.0724 74.2107 44.3265 75.8294 43.7377C76.0094 43.6811 76.1719 43.579 76.301 43.4411C76.43 43.3032 76.5213 43.1342 76.566 42.9506C76.7676 42.1385 76.6755 41.2811 76.306 40.5304C74.7397 40.7061 73.1586 40.7061 71.5923 40.5304C70.8358 40.4363 70.0723 40.4114 69.3113 40.4561C69.1105 40.5342 68.946 40.6845 68.8498 40.8776C68.7537 41.0707 68.7328 41.2927 68.7914 41.5004C68.8594 40.989 69.3546 40.6358 70.2553 40.7659C72.5641 41.1068 74.4954 41.2741 76.1017 40.9395V40.9271Z" fill="#FCBB54"/>
<path fill-rule="evenodd" clip-rule="evenodd" d="M69.2007 39.6624C68.3754 39.1294 68.5023 38.4611 69.5814 37.6575C68.1061 38.4239 67.9153 39.211 69.0088 40.0188C69.7298 39.9362 70.4586 39.9518 71.1753 40.0653C72.9273 40.3225 74.7065 40.334 76.4616 40.0994C76.7279 39.6441 76.8516 39.1193 76.8169 38.5928C76.7821 38.0663 76.5904 37.5624 76.2666 37.1462C74.6879 37.0269 73.1022 37.0363 71.5251 37.1741C73.0919 37.0725 74.6651 37.1306 76.2202 37.3476C76.42 37.747 76.522 38.1884 76.5177 38.6351C76.5134 39.0818 76.4029 39.5211 76.1954 39.9165C74.8462 40.1482 73.4681 40.1566 72.1162 39.9413C71.1528 39.7827 70.1798 39.6895 69.2038 39.6624H69.2007Z" fill="#FCBB54"/>
<path fill-rule="evenodd" clip-rule="evenodd" d="M75.8526 36.4553C74.0003 36.3229 72.1395 36.3737 70.2971 36.6071C69.9474 36.6598 69.935 35.9563 70.2197 35.476C70.783 34.5247 74.3608 33.5362 75.54 33.9452L75.4967 33.9018C75.1943 33.7403 74.8551 33.6602 74.5125 33.6694C73.1444 33.8335 71.8193 34.254 70.6066 34.9089C69.5131 35.7022 69.3067 36.3984 69.9876 36.9976C71.9807 36.5252 74.0405 36.4025 76.0755 36.635C76.2657 36.2192 76.3296 35.7566 76.2592 35.3048C76.1887 34.853 75.9871 34.4319 75.6793 34.094C75.8694 34.4527 75.9824 34.8472 76.0112 35.2523C76.04 35.6573 75.9838 36.0639 75.8464 36.446L75.8526 36.4553Z" fill="#FCBB54"/>
<path fill-rule="evenodd" clip-rule="evenodd" d="M69.8652 34.9401C69.4517 35.0974 69.1054 35.3934 68.8853 35.7776C68.6652 36.1618 68.5849 36.6105 68.6581 37.0473C68.0391 37.2209 67.5068 37.7787 67.4759 37.977C66.7269 40.6234 67.578 42.492 69.6021 44.3234C68.9958 44.2864 68.3873 44.3354 67.7946 44.469C66.3464 43.3776 65.3787 41.7652 65.0958 39.9726C64.9008 38.7331 65.2629 37.4502 66.2255 36.2726C66.699 35.6962 66.699 35.2159 66.439 34.4784C65.557 31.9993 66.0614 30.3756 67.6089 30.2454C69.0667 30.1246 69.9023 31.9839 69.3081 33.5736C69.2464 33.6984 69.2119 33.835 69.2069 33.9743C69.202 34.1135 69.2267 34.2522 69.2794 34.3812C69.3321 34.5101 69.4115 34.6264 69.5125 34.7222C69.6135 34.818 69.7337 34.8913 69.8652 34.937V34.9401ZM73.4616 44.6673C70.5523 44.7665 68.7386 43.716 68.0577 41.5096C67.983 41.293 67.9753 41.0589 68.0355 40.8378C68.0956 40.6167 68.221 40.4189 68.3951 40.2701C67.0456 39.2785 67.3232 38.2724 69.2276 37.2519C68.5281 36.6466 68.7407 35.876 69.8652 34.9401C69.2802 34.5435 69.209 34.0322 69.6516 33.3907C69.8448 32.9591 69.9076 32.4803 69.8323 32.0133C69.7569 31.5464 69.5467 31.1117 69.2276 30.7629C68.9398 30.4672 68.5783 30.2539 68.1806 30.1449C67.7828 30.036 67.3632 30.0353 66.9652 30.1432C65.558 30.953 65.3372 32.5241 66.3028 34.8565C66.4089 34.9962 66.4679 35.166 66.4713 35.3415C66.4746 35.517 66.4221 35.6889 66.3214 35.8326C63.6876 39.2413 64.8946 41.8567 67.6677 44.8967C68.3672 44.6952 69.2152 44.8285 70.2366 45.0206C71.3233 45.2189 72.4442 45.095 73.4616 44.6642V44.6673Z" fill="#FCBB54"/>
<path fill-rule="evenodd" clip-rule="evenodd" d="M39.6473 78.5589C38.7111 78.6487 37.7666 78.5367 36.8773 78.2304C37.434 78.57 38.0627 78.7738 38.7126 78.8254C35.2317 81.0627 34.0123 84.1512 35.0543 88.0908C32.7378 88.8312 30.2472 88.8226 27.9358 88.066C27.2369 87.0339 26.6487 85.9308 26.181 84.7751C24.8439 81.6763 26.2305 80.6475 28.2268 78.2955C31.0539 74.8845 32.6753 70.6333 32.8383 66.2039C33.0302 62.2684 31.9995 58.5219 29.8888 54.9768C30.0229 54.3963 30.328 53.8695 30.7647 53.4646C29.9692 54.1804 29.5019 54.732 29.3595 55.1101C30.2354 56.1265 31.362 58.1314 31.916 60.5764C33.6399 68.2026 31.3341 74.4839 26.246 80.0184C24.5035 81.9118 25.172 84.7844 27.484 88.0258L27.648 88.2489C29.3193 89.1186 31.9181 89.131 35.4443 88.2861C35.4164 88.1993 35.3917 88.1156 35.3669 88.032C34.1289 83.8733 35.5505 80.7208 39.6318 78.5744L39.6473 78.5589Z" fill="#CC7D29"/>
<path fill-rule="evenodd" clip-rule="evenodd" d="M49.2079 72.2097C48.4753 73.1683 47.5666 73.9782 46.5308 74.5958C47.6104 74.1797 48.5585 73.4809 49.276 72.5723C52.1668 74.6702 53.9588 76.9943 54.3518 79.5973C54.6118 81.3203 52.8446 84.0255 49.341 87.6729C46.9063 87.3256 44.4261 87.4903 42.0585 88.1563C43.606 84.8715 43.5812 80.6447 41.2507 78.5251C42.2119 78.1872 43.0389 77.5483 43.6091 76.703C42.7598 77.5283 41.7083 78.1151 40.5605 78.4043C43.2656 80.4082 43.6679 83.7559 41.7676 88.4476C42.0152 88.3763 42.2659 88.3112 42.5166 88.2523L42.5847 88.2337C44.7751 87.7187 47.0383 87.5897 49.2729 87.8526L49.4927 87.8805L49.5267 87.8433L49.6567 87.7069C53.0612 84.1247 55.1751 81.1746 54.5932 79.0798C53.804 76.2227 51.6189 73.9853 49.2079 72.2097Z" fill="#CC7D29"/>
<path fill-rule="evenodd" clip-rule="evenodd" d="M51.3027 50.8496C53.5188 58.9809 51.1016 70.18 46.3291 74.7105C47.3611 73.9842 48.2438 73.0657 48.9289 72.0052C52.5571 65.5518 53.5719 57.9499 51.7639 50.769C51.5651 50.6812 51.3736 50.5775 51.1913 50.4591C50.7459 50.1752 50.3592 49.808 50.0524 49.3776C50.4192 49.9032 50.8336 50.3939 51.2904 50.8434L51.3027 50.8496ZM50.0152 49.3249C50.3377 49.6645 50.7065 49.9567 51.1109 50.1926C51.3304 50.3198 51.559 50.4306 51.7948 50.5242C55.0013 50.8526 65.5799 47.6826 67.3348 45.6249C67.0217 45.4186 66.7516 45.1534 66.5394 44.844C65.4103 43.2971 64.4748 41.6174 63.7539 39.8425C62.505 42.1682 60.3929 43.909 57.8734 44.6891C60.5681 43.9288 62.5283 42.523 63.7539 40.4716C64.5518 42.3789 65.6465 44.1476 66.9974 45.7117C63.952 47.8034 55.0229 50.4033 51.8506 50.2949C51.2097 50.0343 50.5968 49.7093 50.0214 49.3249H50.0152Z" fill="#CC7D29"/>
<path fill-rule="evenodd" clip-rule="evenodd" d="M24.5537 66.0738C24.4497 65.9202 24.3897 65.7411 24.3802 65.5558C24.3707 65.3705 24.412 65.1861 24.4997 65.0226C24.5874 64.8592 24.7181 64.7229 24.8776 64.6285C25.0372 64.5341 25.2195 64.4852 25.4048 64.4872C25.1916 64.4795 24.9796 64.522 24.7858 64.6112C24.6139 64.6869 24.4628 64.8031 24.3453 64.9498C24.2278 65.0966 24.1475 65.2696 24.1111 65.454C24.0829 65.6105 24.0873 65.7711 24.124 65.9257C24.1608 66.0804 24.2291 66.2258 24.3247 66.3527C25.0675 66.1296 25.8928 66.3517 26.8006 67.019C26.8786 67.0561 26.9665 67.067 27.0512 67.0503C27.1359 67.0336 27.213 66.99 27.2711 66.926C27.921 66.4023 28.181 65.6431 28.0046 64.5926C28.072 64.9587 28.0547 65.3354 27.9538 65.6938C27.8529 66.0521 27.6712 66.3825 27.4227 66.6595C27.1844 66.9167 26.974 66.9694 26.7728 66.7865C26.1404 66.2781 25.3415 66.024 24.532 66.0738H24.5537Z" fill="#F9A946"/>
<path fill-rule="evenodd" clip-rule="evenodd" d="M26.7394 66.5142C26.494 66.2881 26.2063 66.1128 25.8929 65.9984C25.5795 65.8841 25.2466 65.8329 24.9134 65.848C24.6287 65.848 24.6472 65.3862 24.7617 65.1259C24.8166 64.9983 24.9017 64.886 25.0095 64.7986C25.1173 64.7111 25.2447 64.6512 25.3807 64.6239C25.8491 64.5557 26.4578 64.7768 27.2068 65.2871H27.1882C26.7283 64.8752 26.1581 64.607 25.5479 64.5155C25.4963 64.5124 25.4447 64.5124 25.3931 64.5155C25.2078 64.5135 25.0255 64.5623 24.866 64.6567C24.7064 64.7511 24.5757 64.8874 24.488 65.0509C24.4003 65.2143 24.359 65.3987 24.3685 65.584C24.378 65.7693 24.438 65.9485 24.542 66.1021C25.3515 66.0522 26.1504 66.3063 26.7828 66.8148C26.9839 66.9945 27.1944 66.9449 27.4327 66.6877C27.6812 66.4108 27.8629 66.0804 27.9638 65.722C28.0647 65.3637 28.082 64.987 28.0146 64.6208C27.9743 66.4181 27.0861 66.8644 26.7271 66.5359L26.7394 66.5142Z" fill="#FCBB54"/>
<path fill-rule="evenodd" clip-rule="evenodd" d="M25.5022 64.2796C25.2917 64.1618 25.4496 63.3345 25.6724 63.3314C26.2543 63.7977 26.8757 64.2125 27.5294 64.5709C27.5851 64.8033 27.5294 65.1225 27.4613 65.0729C26.7557 64.5771 26.1398 64.2672 25.4898 64.2703L25.5022 64.2796ZM25.4434 64.4129C26.1251 64.4674 26.7681 64.7526 27.2663 65.2216C27.4335 65.3673 27.5758 65.3983 27.6501 65.2712C27.7735 65.0596 27.8584 64.8277 27.9008 64.5864L27.8606 64.5647C27.0928 64.1622 26.3497 63.7142 25.6353 63.2229C25.5104 63.2732 25.4026 63.3584 25.3247 63.4682C25.2468 63.5781 25.2021 63.7081 25.1958 63.8427C25.1887 63.9515 25.2075 64.0604 25.2505 64.1606C25.2935 64.2608 25.3596 64.3493 25.4434 64.419V64.4129Z" fill="#F9A946"/>
<path fill-rule="evenodd" clip-rule="evenodd" d="M27.5402 64.5801C26.8865 64.2217 26.2651 63.8069 25.6832 63.3406C25.4604 63.3406 25.3025 64.1711 25.513 64.2888C26.1629 64.2888 26.7788 64.5987 27.4845 65.0914C27.5557 65.141 27.6083 64.8218 27.5526 64.5894L27.5402 64.5801ZM27.3824 64.9086C26.8781 64.4685 26.2426 64.2081 25.5749 64.168C25.5303 64.0376 25.5166 63.8986 25.5349 63.762C25.5531 63.6254 25.6029 63.4949 25.6801 63.3809C26.2524 63.8489 26.8753 64.2511 27.5371 64.5801C27.5368 64.6432 27.5225 64.7054 27.4952 64.7622C27.4679 64.819 27.4283 64.869 27.3793 64.9086H27.3824Z" fill="#FCBB54"/>
<path fill-rule="evenodd" clip-rule="evenodd" d="M34.3182 86.4798C31.6235 87.7875 29.4446 87.7431 27.7815 86.3466C25.8162 83.7528 26.135 81.624 28.2334 79.4269C31.1241 76.3993 32.4024 72.5723 32.6128 68.4478C32.0897 72.0718 30.5714 75.4791 28.2272 78.2896C26.231 80.6416 24.8444 81.658 26.1814 84.7693C26.6428 85.9264 27.2248 87.0315 27.9177 88.0664C30.2291 88.8229 32.7196 88.8316 35.0362 88.0912C33.9922 84.1516 35.2116 81.0631 38.6945 78.8257C38.0446 78.7741 37.4159 78.5703 36.8591 78.2307C34.8392 80.3689 33.986 83.1186 34.2996 86.4798H34.3182Z" fill="#E38925"/>
<path fill-rule="evenodd" clip-rule="evenodd" d="M43.1946 87.177C44.2263 84.103 44.3645 80.6117 43.6094 76.703C43.0392 77.5483 42.2122 78.1872 41.251 78.5251C43.5815 80.6447 43.6125 84.8715 42.0588 88.1563C44.4264 87.4902 46.9066 87.3256 49.3413 87.6728C52.8448 84.0255 54.6028 81.3202 54.3521 79.5973C53.959 76.9943 52.167 74.6702 49.2763 72.5723C48.5588 73.4809 47.6107 74.1797 46.531 74.5958C47.5712 74.2312 48.5736 73.7663 49.5239 73.2075C52.3775 75.6205 53.8486 77.8206 53.9373 79.808C53.6712 81.6095 52.0494 84.0307 49.072 87.0717C47.1249 86.7078 45.1244 86.7436 43.1915 87.177H43.1946Z" fill="#E38925"/>
<path fill-rule="evenodd" clip-rule="evenodd" d="M27.97 59.8951C27.9597 59.3622 28.0653 58.8335 28.2795 58.3457C28.6007 58.9547 29.0609 59.4791 29.6228 59.8765C31.2817 61.0044 32.0987 62.495 31.9873 64.4379C30.7068 64.0731 29.3553 64.0358 28.0567 64.3295C29.4322 64.1128 30.8394 64.2242 32.1637 64.6549C32.3835 62.8173 31.7088 61.2462 30.1087 59.9725C29.0038 59.0925 28.3414 58.2093 28.1372 57.3044C27.9688 58.1591 27.9126 59.0321 27.97 59.9013V59.8951Z" fill="#CC7D29"/>
<path fill-rule="evenodd" clip-rule="evenodd" d="M65.6782 44.6764C59.2571 48.3701 54.0369 49.9196 50.0176 49.3246C50.593 49.7089 51.2058 50.0339 51.8467 50.2945C55.0191 50.403 63.9481 47.8155 66.9936 45.7114C65.6438 44.151 64.5491 42.3866 63.75 40.4836C62.9494 41.8223 61.8047 42.9213 60.4353 43.6661H60.4539C61.6423 42.9979 62.7079 42.1312 63.6046 41.1034C64.0471 42.4208 64.7526 43.6343 65.6782 44.6702V44.6764Z" fill="#E38925"/>
<path fill-rule="evenodd" clip-rule="evenodd" d="M32.8696 65.5532C32.9331 61.4229 32.2223 57.3173 30.7743 53.4492C30.3377 53.8541 30.0326 54.3809 29.8984 54.9614C31.8947 58.3144 32.9253 61.8439 32.8696 65.547V65.5532Z" fill="#E38925"/>
<path fill-rule="evenodd" clip-rule="evenodd" d="M21.7034 56.4955C22.2853 52.5631 23.9534 49.2195 25.9559 46.3314C26.6815 46.5913 27.3357 47.0189 27.8654 47.5794C28.3951 48.1398 28.7853 48.8175 29.0045 49.5572L28.9271 49.049C28.8624 48.5734 28.6909 48.1186 28.4256 47.7188C28.1602 47.3189 27.8079 46.9844 27.3951 46.7404C26.8957 46.4367 26.4078 46.1196 25.9311 45.7891C24.3248 47.2703 22.7155 50.6821 21.4279 56.0989C20.5861 59.6346 25.2688 62.9163 27.9831 64.3293C23.6842 61.6365 21.3351 58.9994 21.7034 56.4955Z" fill="#CC7D29"/>
<path fill-rule="evenodd" clip-rule="evenodd" d="M22.2598 57.2451C22.3341 54.4965 23.9002 51.2458 26.3545 47.4559C27.3036 47.7018 28.1867 48.4021 29.0038 49.5569C28.7846 48.8172 28.3944 48.1395 27.8647 47.579C27.335 47.0186 26.6809 46.591 25.9552 46.3311C23.9528 49.2192 22.2846 52.5628 21.7027 56.4952C21.3344 58.9991 23.6835 61.6362 27.9824 64.329C24.3118 61.8035 22.201 59.4453 22.2598 57.2451Z" fill="#E38925"/>
<path fill-rule="evenodd" clip-rule="evenodd" d="M30.7668 53.4492C29.5004 54.0355 28.5082 55.0877 27.9964 56.3873C27.4846 57.6868 27.4925 59.1339 28.0184 60.4278C27.7565 59.4815 27.7266 58.4858 27.9313 57.5255C28.1361 56.5652 28.5694 55.6685 29.1945 54.9119C29.6371 54.3433 30.168 53.8494 30.7668 53.4492Z" fill="#CC7D29"/>
<path fill-rule="evenodd" clip-rule="evenodd" d="M29.1033 60.2266C29.6569 60.5314 30.1359 60.9556 30.5058 61.4685C30.8757 61.9813 31.1271 62.5701 31.2419 63.1921C30.0531 63.02 28.8402 63.1391 27.7074 63.5392C26.3703 62.8697 25.1311 62.02 24.0244 61.0137C25.2117 62.2727 26.54 63.3904 27.9829 64.3449H28.0665C29.3651 64.0513 30.7166 64.0886 31.9971 64.4534C32.0992 62.5104 31.2914 61.0199 29.6325 59.8919C29.0707 59.4946 28.6105 58.9701 28.2893 58.3611C28.0751 58.8489 27.9695 59.3777 27.9798 59.9105C27.9798 60.0871 28.0077 60.2669 28.0262 60.4435C28.0707 60.1919 28.1554 59.9492 28.2769 59.7246C28.5427 59.9169 28.822 60.0898 29.1126 60.2421L29.1033 60.2266Z" fill="#E38925"/>
<path fill-rule="evenodd" clip-rule="evenodd" d="M24.3594 67.3165C24.3811 66.8114 25.3282 66.8672 26.7797 67.518C27.603 67.8867 28.5996 66.1638 28.2344 64.6485C28.2658 64.9262 28.271 65.2064 28.2498 65.4851V65.6184C28.1229 66.6038 27.2409 67.5458 26.7023 67.143C25.8265 66.4922 24.9877 66.3125 24.4616 66.4768C24.2805 66.5224 24.123 66.6342 24.0199 66.7901C23.9168 66.946 23.8757 67.1349 23.9045 67.3196C24.0592 69.0736 24.9351 70.1086 26.5445 70.1427C30.2771 70.1953 32.1712 68.3546 32.2269 64.9397L32.0969 64.8995C31.0821 64.5691 30.0147 64.4304 28.9493 64.4904C29.9845 64.518 31.0022 64.7641 31.936 65.2124C31.7905 68.6769 29.3702 70.4339 25.6903 69.7088C24.8639 69.5446 24.3192 68.6521 24.3749 67.3134L24.3594 67.3165Z" fill="#F9A946"/>
<path fill-rule="evenodd" clip-rule="evenodd" d="M26.7797 67.5179C25.3281 66.8671 24.381 66.8113 24.3594 67.3164C24.3037 68.6551 24.8484 69.5476 25.6747 69.7118C29.3547 70.437 31.775 68.6799 31.9204 65.2154C30.9867 64.7671 29.969 64.521 28.9338 64.4934C28.6955 64.4934 28.4602 64.5306 28.225 64.5647V64.6483C28.5902 66.1637 27.606 67.8866 26.7704 67.5179H26.7797ZM27.7082 67.555C28.3519 66.9973 28.6367 66.1203 28.4262 64.8033C29.5572 64.5585 30.7383 64.7232 31.7595 65.2681C31.4964 68.745 28.0672 70.313 25.8078 69.1943C25.0588 68.8225 25.1053 67.4993 25.78 67.7038C26.6775 67.9703 27.2594 67.9486 27.7082 67.555Z" fill="#FCBB54"/>
<path fill-rule="evenodd" clip-rule="evenodd" d="M24.445 66.4799C24.2639 66.5255 24.1064 66.6373 24.0033 66.7932C23.9002 66.9491 23.8591 67.138 23.8879 67.3227C24.0426 69.0767 24.9185 70.1117 26.5279 70.1458C30.2604 70.1985 32.1546 68.3578 32.2103 64.9428L32.0803 64.9026C30.8384 64.4974 29.5204 64.3819 28.227 64.5648C28.2685 64.8729 28.2768 65.1846 28.2518 65.4944C28.2518 65.5409 28.2518 65.5843 28.2518 65.6277C28.1249 66.6131 27.2428 67.5552 26.7043 67.1523C25.8284 66.5016 24.9897 66.3218 24.4635 66.4861L24.445 66.4799ZM28.0259 64.5927C28.2023 65.6432 27.9423 66.4024 27.2924 66.9261C27.2343 66.9901 27.1572 67.0337 27.0725 67.0504C26.9878 67.0672 26.8999 67.0562 26.8219 67.0191C25.9037 66.3538 25.0784 66.1318 24.3459 66.3528C24.2504 66.2259 24.1821 66.0805 24.1453 65.9258C24.1086 65.7712 24.1042 65.6106 24.1324 65.4542C24.1688 65.2697 24.2491 65.0967 24.3666 64.9499C24.4841 64.8032 24.6352 64.687 24.8071 64.6113C25.0475 64.503 25.3128 64.4623 25.5746 64.4935C26.1849 64.585 26.7551 64.8532 27.215 65.2651C27.605 65.575 27.834 65.4387 28.0413 64.5927H27.998H28.0413H28.0259ZM25.4416 64.4129C25.3578 64.3433 25.2917 64.2547 25.2487 64.1545C25.2056 64.0543 25.1869 63.9454 25.194 63.8366C25.2002 63.702 25.245 63.572 25.3229 63.4621C25.4008 63.3523 25.5086 63.2671 25.6334 63.2168C26.3478 63.7081 27.0909 64.1561 27.8587 64.5586L27.899 64.5803C27.8566 64.8216 27.7717 65.0535 27.6483 65.2651C27.5709 65.3922 27.4316 65.3612 27.2645 65.2155C26.7662 64.7465 26.1233 64.4613 25.4416 64.4068V64.4129Z" fill="#FDCE68"/>
<path fill-rule="evenodd" clip-rule="evenodd" d="M50.0169 49.3244C52.9303 57.4495 52.0638 65.5137 47.4171 73.5169L47.0303 74.1708C47.7666 73.545 48.4069 72.8141 48.9306 72.0016C52.5588 65.5482 53.5737 57.9463 51.7656 50.7653C51.0598 50.4563 50.4542 49.9562 50.0169 49.3213V49.3244Z" fill="#E38925"/>
<path fill-rule="evenodd" clip-rule="evenodd" d="M24.5537 66.0738C24.4497 65.9202 24.3897 65.7411 24.3802 65.5558C24.3707 65.3705 24.412 65.1861 24.4997 65.0226C24.5874 64.8592 24.7181 64.7229 24.8776 64.6285C25.0372 64.5341 25.2195 64.4852 25.4048 64.4872C25.1916 64.4795 24.9796 64.522 24.7858 64.6112C24.6139 64.6869 24.4628 64.8031 24.3453 64.9498C24.2278 65.0966 24.1475 65.2696 24.1111 65.454C24.0829 65.6105 24.0873 65.7711 24.124 65.9257C24.1608 66.0804 24.2291 66.2258 24.3247 66.3527C25.0675 66.1296 25.8928 66.3517 26.8006 67.019C26.8786 67.0561 26.9665 67.067 27.0512 67.0503C27.1359 67.0336 27.213 66.99 27.2711 66.926C27.921 66.4023 28.181 65.6431 28.0046 64.5926C28.072 64.9587 28.0547 65.3354 27.9538 65.6938C27.8529 66.0521 27.6712 66.3825 27.4227 66.6595C27.1844 66.9167 26.974 66.9694 26.7728 66.7865C26.1404 66.2781 25.3415 66.024 24.532 66.0738H24.5537Z" fill="#F9A946"/>
<path fill-rule="evenodd" clip-rule="evenodd" d="M26.7394 66.5142C26.494 66.2881 26.2063 66.1128 25.8929 65.9984C25.5795 65.8841 25.2466 65.8329 24.9134 65.848C24.6287 65.848 24.6472 65.3862 24.7617 65.1259C24.8166 64.9983 24.9017 64.886 25.0095 64.7986C25.1173 64.7111 25.2447 64.6512 25.3807 64.6239C25.8491 64.5557 26.4578 64.7768 27.2068 65.2871H27.1882C26.7283 64.8752 26.1581 64.607 25.5479 64.5155C25.4963 64.5124 25.4447 64.5124 25.3931 64.5155C25.2078 64.5135 25.0255 64.5623 24.866 64.6567C24.7064 64.7511 24.5757 64.8874 24.488 65.0509C24.4003 65.2143 24.359 65.3987 24.3685 65.584C24.378 65.7693 24.438 65.9485 24.542 66.1021C25.3515 66.0522 26.1504 66.3063 26.7828 66.8148C26.9839 66.9945 27.1944 66.9449 27.4327 66.6877C27.6812 66.4108 27.8629 66.0804 27.9638 65.722C28.0647 65.3637 28.082 64.987 28.0146 64.6208C27.9743 66.4181 27.0861 66.8644 26.7271 66.5359L26.7394 66.5142Z" fill="#FCBB54"/>
<path fill-rule="evenodd" clip-rule="evenodd" d="M25.5022 64.2796C25.2917 64.1618 25.4496 63.3345 25.6724 63.3314C26.2543 63.7977 26.8757 64.2125 27.5294 64.5709C27.5851 64.8033 27.5294 65.1225 27.4613 65.0729C26.7557 64.5771 26.1398 64.2672 25.4898 64.2703L25.5022 64.2796ZM25.4434 64.4129C26.1251 64.4674 26.7681 64.7526 27.2663 65.2216C27.4335 65.3673 27.5758 65.3983 27.6501 65.2712C27.7735 65.0596 27.8584 64.8277 27.9008 64.5864L27.8606 64.5647C27.0928 64.1622 26.3497 63.7142 25.6353 63.2229C25.5104 63.2732 25.4026 63.3584 25.3247 63.4682C25.2468 63.5781 25.2021 63.7081 25.1958 63.8427C25.1887 63.9515 25.2075 64.0604 25.2505 64.1606C25.2935 64.2608 25.3596 64.3493 25.4434 64.419V64.4129Z" fill="#F9A946"/>
<path fill-rule="evenodd" clip-rule="evenodd" d="M27.5402 64.5801C26.8865 64.2217 26.2651 63.8069 25.6832 63.3406C25.4604 63.3406 25.3025 64.1711 25.513 64.2888C26.1629 64.2888 26.7788 64.5987 27.4845 65.0914C27.5557 65.141 27.6083 64.8218 27.5526 64.5894L27.5402 64.5801ZM27.3824 64.9086C26.8781 64.4685 26.2426 64.2081 25.5749 64.168C25.5303 64.0376 25.5166 63.8986 25.5349 63.762C25.5531 63.6254 25.6029 63.4949 25.6801 63.3809C26.2524 63.8489 26.8753 64.2511 27.5371 64.5801C27.5368 64.6432 27.5225 64.7054 27.4952 64.7622C27.4679 64.819 27.4283 64.869 27.3793 64.9086H27.3824Z" fill="#FCBB54"/>
<path fill-rule="evenodd" clip-rule="evenodd" d="M27.97 59.8951C27.9597 59.3622 28.0653 58.8335 28.2795 58.3457C28.6007 58.9547 29.0609 59.4791 29.6228 59.8765C31.2817 61.0044 32.0987 62.495 31.9873 64.4379C30.7068 64.0731 29.3553 64.0358 28.0567 64.3295C29.4322 64.1128 30.8394 64.2242 32.1637 64.6549C32.3835 62.8173 31.7088 61.2462 30.1087 59.9725C29.0038 59.0925 28.3414 58.2093 28.1372 57.3044C27.9688 58.1591 27.9126 59.0321 27.97 59.9013V59.8951Z" fill="#CC7D29"/>
<path fill-rule="evenodd" clip-rule="evenodd" d="M32.8696 65.5532C32.9331 61.4229 32.2223 57.3173 30.7743 53.4492C30.3377 53.8541 30.0326 54.3809 29.8984 54.9614C31.8947 58.3144 32.9253 61.8439 32.8696 65.547V65.5532Z" fill="#E38925"/>
<path fill-rule="evenodd" clip-rule="evenodd" d="M21.7034 56.4955C22.2853 52.5631 23.9534 49.2195 25.9559 46.3314C26.6815 46.5913 27.3357 47.0189 27.8654 47.5794C28.3951 48.1398 28.7853 48.8175 29.0045 49.5572L28.9271 49.049C28.8624 48.5734 28.6909 48.1186 28.4256 47.7188C28.1602 47.3189 27.8079 46.9844 27.3951 46.7404C26.8957 46.4367 26.4078 46.1196 25.9311 45.7891C24.3248 47.2703 22.7155 50.6821 21.4279 56.0989C20.5861 59.6346 25.2688 62.9163 27.9831 64.3293C23.6842 61.6365 21.3351 58.9994 21.7034 56.4955Z" fill="#CC7D29"/>
<path fill-rule="evenodd" clip-rule="evenodd" d="M22.2598 57.2451C22.3341 54.4965 23.9002 51.2458 26.3545 47.4559C27.3036 47.7018 28.1867 48.4021 29.0038 49.5569C28.7846 48.8172 28.3944 48.1395 27.8647 47.579C27.335 47.0186 26.6809 46.591 25.9552 46.3311C23.9528 49.2192 22.2846 52.5628 21.7027 56.4952C21.3344 58.9991 23.6835 61.6362 27.9824 64.329C24.3118 61.8035 22.201 59.4453 22.2598 57.2451Z" fill="#E38925"/>
<path fill-rule="evenodd" clip-rule="evenodd" d="M30.7668 53.4492C29.5004 54.0355 28.5082 55.0877 27.9964 56.3873C27.4846 57.6868 27.4925 59.1339 28.0184 60.4278C27.7565 59.4815 27.7266 58.4858 27.9313 57.5255C28.1361 56.5652 28.5694 55.6685 29.1945 54.9119C29.6371 54.3433 30.168 53.8494 30.7668 53.4492Z" fill="#CC7D29"/>
<path fill-rule="evenodd" clip-rule="evenodd" d="M29.1033 60.2266C29.6569 60.5314 30.1359 60.9556 30.5058 61.4685C30.8757 61.9813 31.1271 62.5701 31.2419 63.1921C30.0531 63.02 28.8402 63.1391 27.7074 63.5392C26.3703 62.8697 25.1311 62.02 24.0244 61.0137C25.2117 62.2727 26.54 63.3904 27.9829 64.3449H28.0665C29.3651 64.0513 30.7166 64.0886 31.9971 64.4534C32.0992 62.5104 31.2914 61.0199 29.6325 59.8919C29.0707 59.4946 28.6105 58.9701 28.2893 58.3611C28.0751 58.8489 27.9695 59.3777 27.9798 59.9105C27.9798 60.0871 28.0077 60.2669 28.0262 60.4435C28.0707 60.1919 28.1554 59.9492 28.2769 59.7246C28.5427 59.9169 28.822 60.0898 29.1126 60.2421L29.1033 60.2266Z" fill="#E38925"/>
<path fill-rule="evenodd" clip-rule="evenodd" d="M24.3594 67.3165C24.3811 66.8114 25.3282 66.8672 26.7797 67.518C27.603 67.8867 28.5996 66.1638 28.2344 64.6485C28.2658 64.9262 28.271 65.2064 28.2498 65.4851V65.6184C28.1229 66.6038 27.2409 67.5458 26.7023 67.143C25.8265 66.4922 24.9877 66.3125 24.4616 66.4768C24.2805 66.5224 24.123 66.6342 24.0199 66.7901C23.9168 66.946 23.8757 67.1349 23.9045 67.3196C24.0592 69.0736 24.9351 70.1086 26.5445 70.1427C30.2771 70.1953 32.1712 68.3546 32.2269 64.9397L32.0969 64.8995C31.0821 64.5691 30.0147 64.4304 28.9493 64.4904C29.9845 64.518 31.0022 64.7641 31.936 65.2124C31.7905 68.6769 29.3702 70.4339 25.6903 69.7088C24.8639 69.5446 24.3192 68.6521 24.3749 67.3134L24.3594 67.3165Z" fill="#F9A946"/>
<path fill-rule="evenodd" clip-rule="evenodd" d="M26.7797 67.5179C25.3281 66.8671 24.381 66.8113 24.3594 67.3164C24.3037 68.6551 24.8484 69.5476 25.6747 69.7118C29.3547 70.437 31.775 68.6799 31.9204 65.2154C30.9867 64.7671 29.969 64.521 28.9338 64.4934C28.6955 64.4934 28.4602 64.5306 28.225 64.5647V64.6483C28.5902 66.1637 27.606 67.8866 26.7704 67.5179H26.7797ZM27.7082 67.555C28.3519 66.9973 28.6367 66.1203 28.4262 64.8033C29.5572 64.5585 30.7383 64.7232 31.7595 65.2681C31.4964 68.745 28.0672 70.313 25.8078 69.1943C25.0588 68.8225 25.1053 67.4993 25.78 67.7038C26.6775 67.9703 27.2594 67.9486 27.7082 67.555Z" fill="#FCBB54"/>
<path fill-rule="evenodd" clip-rule="evenodd" d="M29.6672 73.7684C29.5004 74.6107 29.2269 75.4282 28.8532 76.201H28.8841C29.4127 75.3935 29.8893 74.5531 30.3109 73.6848C25.0092 71.9061 21.9545 69.0365 22.6168 65.256C22.8768 63.7933 23.0718 62.4412 23.2017 61.1996C22.3943 60.4191 21.7613 59.4759 21.3448 58.4324C21.1869 60.2111 20.8465 62.3772 20.3915 64.9616C19.6301 69.2999 21.8461 72.7086 26.4143 75.0885C22.2299 72.7272 20.1346 69.6656 20.6112 65.9594C20.8372 64.1993 21.3138 62.3028 21.5676 60.1832C21.9404 60.6139 22.3551 61.0062 22.8056 61.3546C22.1216 64.9027 22.0226 67.3198 22.6725 68.5128C24.0126 70.9702 26.4051 72.687 29.6888 73.756L29.6672 73.7684Z" fill="#CC7D29"/>
<path fill-rule="evenodd" clip-rule="evenodd" d="M28.6768 75.5218C23.5082 73.8113 20.8258 70.5482 20.6298 65.7327C20.6298 65.8132 20.6081 65.8907 20.5989 65.9713C20.1222 69.6899 22.2175 72.7391 26.402 75.1004C27.1955 75.5132 28.0118 75.8805 28.847 76.2005C29.2207 75.4277 29.4942 74.6102 29.661 73.7679C29.4983 74.4327 29.1556 75.0396 28.6706 75.5218H28.6768Z" fill="#E38925"/>
<path fill-rule="evenodd" clip-rule="evenodd" d="M15.6031 52.095C19.4223 51.3513 21.0503 52.2407 21.3722 55.1938C21.5765 54.3912 21.8364 53.4492 22.149 52.4638C21.2391 51.0631 19.7999 50.3783 17.7789 50.3969C19.9052 50.5487 21.301 51.3916 21.8024 52.566C21.6414 53.068 21.5001 53.5742 21.3784 54.0845C20.9492 51.8595 19.0045 51.1364 15.5443 51.9153C15.3804 51.7689 15.2636 51.5771 15.2085 51.3642C15.1534 51.1513 15.1625 50.9268 15.2348 50.7191C15.1655 50.8316 15.1201 50.9572 15.1014 51.088C15.0828 51.2189 15.0913 51.3522 15.1264 51.4795C15.1616 51.6069 15.2226 51.7257 15.3057 51.8284C15.3888 51.9311 15.4922 52.0155 15.6093 52.0764L15.6031 52.095Z" fill="#CC7D29"/>
<path fill-rule="evenodd" clip-rule="evenodd" d="M35.8633 53.8459C35.6631 53.4544 35.4323 53.0793 35.1732 52.7241C34.6783 52.3633 34.1545 52.0441 33.6071 51.7697C32.0739 51.028 30.7709 49.8829 29.8374 48.457C29.7451 48.738 29.5857 48.9922 29.3732 49.1976L29.042 49.523C29.3233 49.3767 29.5844 49.1944 29.8188 48.9807C30.3109 50.0219 31.4901 51.184 33.1398 51.9866C34.18 52.3852 35.1128 53.0219 35.8633 53.8459Z" fill="#CC7D29"/>
<path fill-rule="evenodd" clip-rule="evenodd" d="M35.1729 52.7239C35.432 53.0791 35.6628 53.4541 35.863 53.8456C36.4941 54.5123 37.059 55.2388 37.5498 56.0148C37.8655 55.3806 38.0522 54.3198 38.11 52.8323C39.2985 53.8157 40.2858 55.3992 41.0719 57.5828C41.955 55.3641 43.0898 53.794 44.4764 52.8726C45.8351 52.0117 47.07 50.9692 48.147 49.7738C48.1161 49.6127 48.082 49.4484 48.048 49.2842C47.1661 50.3179 46.0904 51.1685 44.8818 51.788C43.267 52.6654 42.0107 54.0823 41.3319 55.7917L41.0781 56.4115L40.8398 55.7762C40.2334 54.1987 39.0584 52.9062 37.5467 52.1537C37.7682 52.9672 37.7989 53.8209 37.6365 54.6482L37.5188 55.268L37.1567 54.7381C36.6088 53.9635 35.9388 53.2832 35.1729 52.7239Z" fill="#F9A946"/>
<path fill-rule="evenodd" clip-rule="evenodd" d="M48.5802 49.2196C48.7055 49.438 48.8738 49.6286 49.0749 49.7799C49.276 49.9311 49.5057 50.0399 49.7501 50.0996C49.695 49.5175 49.801 48.9314 50.0565 48.4056C50.312 47.8798 50.7071 47.4345 51.1986 47.1186C52.1271 46.4678 53.0184 45.9224 53.7365 45.3492C55.2668 45.3498 56.7863 45.091 58.2304 44.5837L57.8745 44.6891C56.4791 45.1199 55.0065 45.2394 53.56 45.0393C52.7692 45.6551 51.9424 46.2232 51.084 46.7405C50.6683 46.9828 50.313 47.3166 50.0449 47.7165C49.7768 48.1164 49.603 48.5721 49.5366 49.0491L49.4592 49.5574L49.0909 49.1979C48.8782 48.9914 48.7188 48.7361 48.6266 48.4542C48.4426 48.7346 48.2432 49.0046 48.0293 49.263C48.0633 49.4272 48.0974 49.5914 48.1283 49.7526C48.2831 49.5759 48.4378 49.3993 48.5647 49.2196H48.5802Z" fill="#CC7D29"/>
<path fill-rule="evenodd" clip-rule="evenodd" d="M27.5509 15.5785C27.2414 14.9773 27.3497 14.466 27.1517 13.8928C27.1054 13.7598 27.0397 13.6345 26.9567 13.5209C26.2789 12.5912 25.3101 11.8816 24.1124 11.9374C22.0264 12.0397 20.5191 14.2026 20.1106 16.0743C19.4916 18.916 20.8998 21.3423 23.2891 22.836C24.1867 23.3937 26.022 20.2175 26.3408 19.6566C26.805 18.8323 28.0275 16.5206 27.5509 15.5785Z" fill="#BD6B28"/>
<path fill-rule="evenodd" clip-rule="evenodd" d="M27.313 15.6935C27.9908 17.0353 24.218 23.1059 23.4257 22.6069C16.168 18.0796 23.0327 8.54449 26.7404 13.673C27.1273 14.206 26.8952 14.8692 27.313 15.6935Z" fill="#FFA800"/>
<path fill-rule="evenodd" clip-rule="evenodd" d="M27.3145 15.6931C27.9335 16.9327 24.8385 22.117 23.6872 22.6004C24.984 21.553 27.6085 17.0225 27.0329 15.8729C26.6151 15.0486 26.8472 14.3854 26.4603 13.8524C25.2656 12.1977 23.7398 12.0706 22.4678 12.8081C23.7924 11.8785 25.4575 11.894 26.7419 13.6727C27.1288 14.2057 26.8967 14.8688 27.3145 15.6931Z" fill="#E98324"/>
<path fill-rule="evenodd" clip-rule="evenodd" d="M26.4222 18.1909C26.252 17.6765 26.1127 17.159 25.9982 16.6415C25.9265 16.2639 25.8345 15.8905 25.7227 15.5228C25.3018 14.2616 24.1752 13.9548 23.0084 14.4134C22.4097 14.6344 21.905 15.0545 21.5785 15.6034C21.1954 16.3304 21.0638 17.1641 21.204 17.974C21.3373 18.8842 21.6531 19.7581 22.1325 20.5429C22.533 21.2217 23.0495 21.8249 23.6584 22.3247L23.7172 22.3712L23.7729 22.3154C24.8946 21.1374 25.7896 19.7623 26.4129 18.2591V18.2312V18.2002L26.4222 18.1909Z" fill="#D74645"/>
<path fill-rule="evenodd" clip-rule="evenodd" d="M26.3411 18.219C25.7203 19.7116 24.8307 21.0771 23.7165 22.2475C21.2405 20.2519 20.0025 15.6749 23.0387 14.5004C24.252 14.0263 25.2609 14.4137 25.6416 15.5571C25.8335 16.1304 25.9511 17.0508 26.3411 18.2345V18.219Z" fill="#F27774"/>
<path fill-rule="evenodd" clip-rule="evenodd" d="M24.884 20.8374L24.72 21.0574L24.5961 20.9241C23.831 19.7389 23.4584 18.3423 23.5315 16.9329C23.5974 18.2479 24.0259 19.5189 24.7695 20.605C24.8097 20.6886 24.8468 20.763 24.8778 20.8312L24.884 20.8374Z" fill="#D74645"/>
<path fill-rule="evenodd" clip-rule="evenodd" d="M25.6866 18.7581C25.0119 15.4857 23.9389 14.1594 22.4678 14.7792C22.6476 14.6609 22.8395 14.5622 23.0403 14.4848C24.2536 14.0107 25.2625 14.3981 25.6432 15.5415C25.8042 16.0187 25.9094 16.7346 26.1663 17.6394C26.0084 18.0113 25.8568 18.3831 25.6866 18.7581Z" fill="#E8625E"/>
<path fill-rule="evenodd" clip-rule="evenodd" d="M50.9287 15.5785C51.2382 14.9773 51.1299 14.466 51.3279 13.8928C51.3744 13.7605 51.4389 13.6353 51.5198 13.5209C52.2007 12.5912 53.1694 11.8816 54.3672 11.9374C56.4532 12.0397 57.9574 14.2026 58.369 16.0743C58.988 18.916 57.5798 21.3423 55.1905 22.836C54.2929 23.3937 52.4576 20.2175 52.1388 19.6566C51.6746 18.8323 50.452 16.5206 50.9287 15.5785Z" fill="#BD6B28"/>
<path fill-rule="evenodd" clip-rule="evenodd" d="M51.1631 15.6935C50.4853 17.0353 54.2581 23.1059 55.0504 22.6069C62.3081 18.0796 55.4435 8.54449 51.7357 13.673C51.3488 14.206 51.5809 14.8692 51.1631 15.6935Z" fill="#FFA800"/>
<path fill-rule="evenodd" clip-rule="evenodd" d="M51.163 15.6931C50.544 16.9327 53.639 22.117 54.7904 22.6004C53.4936 21.553 50.869 17.0225 51.4447 15.8729C51.8625 15.0486 51.6304 14.3854 52.0173 13.8524C53.2119 12.1977 54.7377 12.0706 56.0098 12.8081C54.6851 11.8785 53.02 11.894 51.7356 13.6727C51.3487 14.2057 51.5809 14.8688 51.163 15.6931Z" fill="#E98324"/>
<path fill-rule="evenodd" clip-rule="evenodd" d="M52.0576 18.1909C52.2236 17.6818 52.3641 17.1647 52.4785 16.6415C52.5621 16.2758 52.6364 15.8792 52.7571 15.5228C53.178 14.2616 54.3046 13.9548 55.4714 14.4134C56.0701 14.6344 56.5748 15.0545 56.9013 15.6034C57.283 16.3309 57.4146 17.1641 57.2758 17.974C57.1408 18.8838 56.8251 19.7573 56.3473 20.5429C55.9459 21.2211 55.4295 21.824 54.8214 22.3247L54.7626 22.3712L54.7069 22.3154C53.5809 21.1354 52.6827 19.757 52.0576 18.2498V18.2219V18.1909Z" fill="#D74645"/>
<path fill-rule="evenodd" clip-rule="evenodd" d="M52.1367 18.219C52.7564 19.7122 53.6461 21.0779 54.7613 22.2475C57.2373 20.2519 58.4752 15.6749 55.4391 14.5004C54.2258 14.0263 53.2169 14.4137 52.8362 15.5571C52.6443 16.1304 52.5267 17.0508 52.1367 18.2345V18.219Z" fill="#F27774"/>
<path fill-rule="evenodd" clip-rule="evenodd" d="M53.6068 20.8374C53.6594 20.9118 53.7151 20.983 53.7708 21.0574L53.8915 20.9241C54.6546 19.7383 55.0239 18.3414 54.9469 16.9329C54.8798 18.2477 54.4514 19.5184 53.7089 20.605C53.6687 20.6886 53.6315 20.763 53.6006 20.8312L53.6068 20.8374Z" fill="#D74645"/>
<path fill-rule="evenodd" clip-rule="evenodd" d="M52.7932 18.7581C53.4679 15.4857 54.5408 14.1594 56.012 14.7792C55.8322 14.6609 55.6402 14.5622 55.4394 14.4848C54.2262 14.0107 53.2172 14.3981 52.8365 15.5415C52.6756 16.0187 52.5704 16.7346 52.3135 17.6394C52.4713 18.0113 52.623 18.3831 52.7932 18.7581Z" fill="#E8625E"/>
<path fill-rule="evenodd" clip-rule="evenodd" d="M32.5385 10.6327H32.3528L30.6382 10.673L32.2507 10.1152C33.6745 9.62612 35.2068 9.54668 36.6734 9.88592C36.5184 9.74971 36.3442 9.63695 36.1565 9.55124L35.4323 9.21347L36.2123 9.04923C37.219 8.83596 38.2689 8.99793 39.1649 9.50476C40.2439 8.14469 41.7671 7.20879 43.4669 6.86146C43.6757 6.79995 43.8957 6.78696 44.1102 6.82347C44.3248 6.85999 44.5282 6.94505 44.7049 7.07218C44.3328 7.12747 43.9696 7.23166 43.6247 7.38206C43.0627 7.59208 42.564 7.94321 42.1765 8.40174C41.789 8.86027 41.5257 9.41083 41.4118 10.0006C42.989 9.54768 44.6672 9.59204 46.2183 10.1276L47.8401 10.6823L46.1255 10.642H45.9398C47.2734 10.7633 48.5293 11.3234 49.5114 12.2348C51.2136 13.8338 52.0864 16.5174 53.018 18.6215C54.1477 21.1718 55.4693 23.3472 58.0102 24.7076C59.6134 25.5629 60.4274 27.2734 60.641 29.0181C60.9319 31.4041 61.195 33.7438 61.879 36.0555L62.1142 36.8302L61.4673 36.3437C60.9384 35.9512 60.4738 35.4786 60.0901 34.943C60.1634 35.9019 60.0271 36.8652 59.6908 37.766C59.1956 39.0706 59.0285 40.3969 59.4989 41.7294L59.6784 42.2376L59.1678 42.0703C58.48 41.809 57.8986 41.3261 57.515 40.6975C55.9521 43.2726 53.6246 45.197 51.0682 46.7495C50.6524 46.9918 50.2971 47.3256 50.029 47.7255C49.761 48.1254 49.5871 48.5811 49.5207 49.0582L49.4433 49.5664L49.075 49.2069C48.8623 49.0004 48.703 48.7451 48.6108 48.4632C47.6597 49.8713 46.3639 51.0118 44.8473 51.7758C43.2324 52.6532 41.9761 54.0701 41.2973 55.7795L41.0435 56.3993L40.8052 55.764C40.1988 54.1865 39.0238 52.894 37.5121 52.1415C37.7336 52.955 37.7643 53.8087 37.6019 54.636L37.4843 55.2558L37.1562 54.7383C36.2384 53.468 35.0182 52.4476 33.6063 51.7696C32.0731 51.0279 30.77 49.8829 29.8366 48.457C29.7443 48.738 29.5849 48.9922 29.3723 49.1976L29.004 49.5571L28.9267 49.0489C28.8619 48.5732 28.6905 48.1184 28.4251 47.7186C28.1598 47.3188 27.8075 46.9843 27.3946 46.7402C24.8382 45.1908 22.5108 43.2633 20.9478 40.6882C20.5643 41.3168 19.9829 41.7997 19.2951 42.061L18.7844 42.2283L18.9639 41.7201C19.4343 40.3876 19.2734 39.0613 18.772 37.7567C18.4357 36.8559 18.2994 35.8926 18.3728 34.9337C17.9891 35.4693 17.5244 35.9419 16.9955 36.3344L16.3486 36.8209L16.5839 36.0462C17.2833 33.7345 17.5464 31.3979 17.8373 29.0088C18.0509 27.2641 18.8649 25.5536 20.4681 24.6983C23.009 23.3379 24.3306 21.1625 25.4603 18.6122C26.3888 16.5081 27.2647 13.8245 28.9669 12.2255C29.9487 11.3137 31.2048 10.7535 32.5385 10.6327Z" fill="#8F361F"/>
<path fill-rule="evenodd" clip-rule="evenodd" d="M35.1288 10.9489C24.9617 9.63186 28.1991 20.8651 20.5823 24.9308C19.2639 25.6373 18.3323 27.0844 18.0909 29.0398C17.8123 31.3267 17.5616 33.688 16.8281 36.1206C17.844 35.3724 18.5952 34.3195 18.9729 33.1147C18.4746 34.5924 18.4888 36.1952 19.0132 37.6638C19.561 39.1141 19.6724 40.4807 19.2051 41.81C19.853 41.6035 20.4338 41.0591 20.9476 40.177C22.3867 42.7335 24.6337 44.757 27.5213 46.5141C27.9679 46.7773 28.349 47.1385 28.6358 47.5706C28.9226 48.0028 29.1077 48.4944 29.1771 49.0086C29.3697 48.822 29.5106 48.5886 29.586 48.3311C29.6614 48.0736 29.6688 47.8009 29.6073 47.5398C30.5041 49.2845 31.9465 50.6873 33.7144 51.5342C35.1672 52.2289 36.4221 53.2786 37.3634 54.5865C37.558 53.6012 37.4623 52.5806 37.0879 51.6488C37.9944 52.0079 38.8167 52.5513 39.5029 53.2446C40.189 53.938 40.7241 54.7663 41.0742 55.6773C41.7746 53.9095 43.0741 52.4449 44.7449 51.5404C46.5833 50.558 47.9761 49.2658 48.852 47.546C48.7905 47.8071 48.7978 48.0798 48.8732 48.3373C48.9487 48.5948 49.0896 48.8282 49.2822 49.0148C49.3516 48.5006 49.5367 48.009 49.8235 47.5768C50.1103 47.1447 50.4914 46.7835 50.938 46.5203C53.8256 44.7632 56.0726 42.7397 57.5117 40.1832C58.0255 41.0601 58.6043 41.6055 59.2542 41.8162C58.7869 40.4868 58.8983 39.1203 59.4461 37.67C59.9705 36.2014 59.9846 34.5986 59.4863 33.1209C59.864 34.3257 60.6153 35.3785 61.6311 36.1268C60.8976 33.7066 60.6469 31.3329 60.3684 29.046C60.127 27.0906 59.1954 25.6373 57.8738 24.9369C50.2695 20.8713 53.5037 9.63805 43.3274 10.9551C44.1987 10.5488 45.1521 10.3505 46.1129 10.3756C44.4801 9.8146 42.7071 9.8146 41.0742 10.3756C41.1293 9.65817 41.3882 8.97151 41.8203 8.39662C42.2524 7.82173 42.8398 7.38262 43.5131 7.1311C41.7948 7.48165 40.2662 8.45491 39.2203 9.86427C38.3439 9.29758 37.2789 9.10148 36.2585 9.31887C36.7352 9.53742 37.1253 9.90939 37.3665 10.3756C35.7336 9.8146 33.9606 9.8146 32.3278 10.3756C33.2886 10.3505 34.242 10.5488 35.1133 10.9551L35.1288 10.9489Z" fill="#C64A29"/>
<path fill-rule="evenodd" clip-rule="evenodd" d="M18.0987 29.0399C17.8201 31.3268 17.5694 33.6881 16.8359 36.1207C17.8518 35.3724 18.6031 34.3195 18.9808 33.1148C18.4825 34.5925 18.4966 36.1953 19.021 37.6639C19.5688 39.1141 19.6802 40.4807 19.2129 41.8101C19.8608 41.6035 20.4416 41.0592 20.9554 40.177C22.3945 42.7336 24.6415 44.7571 27.5291 46.5141C27.9757 46.7773 28.3568 47.1386 28.6436 47.5707C28.9304 48.0028 29.1155 48.4945 29.1849 49.0087C29.3775 48.8221 29.5184 48.5886 29.5938 48.3312C29.6692 48.0737 29.6766 47.801 29.6151 47.5398C30.5119 49.2845 31.9543 50.6874 33.7222 51.5342C35.175 52.229 36.4299 53.2787 37.3712 54.5866C37.5658 53.6013 37.4701 52.5806 37.0957 51.6489C38.0022 52.0079 38.8245 52.5513 39.5107 53.2447C40.1968 53.9381 40.7319 54.7664 41.0821 55.6773C41.7824 53.9096 43.0819 52.445 44.7527 51.5404C46.5911 50.5581 47.9839 49.2659 48.8598 47.546C48.7983 47.8072 48.8056 48.0799 48.881 48.3374C48.9565 48.5948 49.0974 48.8283 49.29 49.0149C49.3594 48.5007 49.5445 48.009 49.8313 47.5769C50.1181 47.1448 50.4992 46.7835 50.9458 46.5203C53.8334 44.7633 56.0804 42.7398 57.5195 40.1832C58.0333 41.0602 58.6121 41.6056 59.262 41.8163C58.7947 40.4869 58.9061 39.1203 59.4539 37.6701C59.9783 36.2015 59.9924 34.5987 59.4941 33.121C59.8718 34.3257 60.6231 35.3786 61.6389 36.1269C60.9054 33.7067 60.6547 31.333 60.3762 29.0461C60.1348 27.0907 59.2032 25.6373 57.8816 24.937C59.0887 25.7675 59.9553 27.2611 60.1565 29.4551C60.3081 31.0975 60.4102 32.743 60.7755 34.3512C60.0688 33.4591 59.4294 32.5155 58.8627 31.5282C59.5034 33.8616 59.5096 35.9038 58.8627 37.6484C58.5022 38.603 58.4101 39.6384 58.5966 40.6419C58.1489 40.2036 57.8473 39.6376 57.7331 39.0212C56.0246 42.0973 53.7828 44.3894 51.0077 45.8975C50.5398 46.0869 50.1312 46.3984 49.8242 46.7994C49.5172 47.2005 49.3231 47.6766 49.2621 48.1782C49.0866 47.6269 49.0431 47.042 49.1352 46.4707C47.9899 48.5275 46.2685 50.2036 44.1832 51.2925C42.7781 52.0486 41.9053 53.2882 41.1811 54.7012C40.2185 52.9225 38.4266 51.5838 36.517 50.9207C36.8267 51.6646 36.95 52.4732 36.876 53.2758C36.1022 52.3182 34.9633 51.3669 32.8772 50.4032C31.7135 49.864 30.4198 48.423 29.3892 46.5792C29.4872 47.1424 29.4414 47.7212 29.2561 48.2619C28.9466 47.0409 28.3555 46.3468 26.0126 45.0422C24.1865 44.0258 21.8034 41.3453 21.0111 39.4085C20.7908 40.194 20.2981 40.8752 19.6214 41.3298C19.8551 40.0521 19.7484 38.7353 19.3119 37.512C18.7579 35.7798 18.9405 33.9143 19.3119 32.1356C18.7919 33.282 18.1114 34.3484 17.2909 35.3026C17.8907 33.2692 18.1613 31.1527 18.0925 29.0337L18.0987 29.0399Z" fill="#B14226"/>
<path fill-rule="evenodd" clip-rule="evenodd" d="M32.3672 42.6872C32.4517 42.9888 32.5551 43.2848 32.6767 43.5735C33.6857 46.0246 36.5981 47.1216 39.2474 47.1216C41.8967 47.1216 44.8184 46.0246 45.818 43.5735C45.9397 43.2849 46.0431 42.9888 46.1275 42.6872C47.5918 42.4448 48.9751 41.8489 50.1577 40.951C51.3403 40.053 52.2866 38.8802 52.9148 37.5338C54.19 34.8007 54.1714 31.5283 52.5063 29.0152C51.1848 27.0288 50.0025 24.2957 48.4519 20.9025C46.2513 16.0807 43.2709 15.5539 40.4049 18.9254C39.6095 19.855 38.8853 19.855 38.0899 18.9254C35.2363 15.5539 32.2527 16.0807 30.0429 20.9025C28.4954 24.2957 27.31 27.0288 25.9885 29.0152C24.3234 31.5283 24.3048 34.8007 25.5799 37.5338C26.2078 38.8798 27.1537 40.0524 28.3357 40.9503C29.5178 41.8482 30.9004 42.4443 32.3641 42.6872H32.3672Z" fill="#FFA800"/>
<path fill-rule="evenodd" clip-rule="evenodd" d="M52.8966 29.7185C54.1346 32.1201 54.051 35.0485 52.8966 37.5337C52.2766 38.8629 51.3464 40.0232 50.1845 40.9168C49.0226 41.8105 47.6631 42.4113 46.2207 42.6685C46.2733 41.5402 46.6387 40.4489 47.2761 39.517C46.9922 40.2234 46.9317 41 47.1028 41.7419C48.2892 41.3588 49.3856 40.7385 50.3257 39.9187C51.2657 39.099 52.0299 38.0967 52.5718 36.9727C53.1138 35.8486 53.4222 34.6261 53.4786 33.3792C53.535 32.1323 53.338 30.887 52.8997 29.7185H52.8966Z" fill="#E38925"/>
<path fill-rule="evenodd" clip-rule="evenodd" d="M25.5779 29.7185C24.3399 32.1201 24.4266 35.0485 25.5779 37.5337C26.1977 38.8625 27.1274 40.0225 28.2887 40.9162C29.45 41.8098 30.8089 42.4108 32.2507 42.6685C32.1967 41.5405 31.8313 40.4496 31.1953 39.517C31.4793 40.2234 31.5398 41 31.3686 41.7419C30.1825 41.3583 29.0863 40.7379 28.1464 39.9181C27.2064 39.0983 26.4423 38.0962 25.9002 36.9723C25.3581 35.8484 25.0491 34.6262 24.9922 33.3794C24.9352 32.1326 25.1313 30.8872 25.5686 29.7185H25.5779Z" fill="#E38925"/>
<path fill-rule="evenodd" clip-rule="evenodd" d="M39.2392 47.1215C41.8854 47.1215 44.8102 46.0245 45.8099 43.5733C45.9316 43.2847 46.0349 42.9887 46.1194 42.6871C47.5837 42.4447 48.9669 41.8487 50.1495 40.9508C51.3321 40.0529 52.2785 38.8801 52.9067 37.5337C54.0642 35.0547 54.1447 32.1201 52.9067 29.7185C53.4579 30.9685 53.725 32.3254 53.6887 33.6914C53.6524 35.0573 53.3136 36.3981 52.6968 37.617C52.08 38.8359 51.2005 39.9024 50.1219 40.7395C49.0433 41.5767 47.7925 42.1635 46.4598 42.4578C46.5836 41.4414 46.8612 40.4497 47.2831 39.517C46.6641 40.0252 46.2772 40.9393 46.0451 42.2532C44.9711 48.4509 33.5197 48.4509 32.4426 42.2532C32.2167 40.9393 31.8236 40.0252 31.2046 39.517C31.6265 40.4497 31.9041 41.4414 32.0279 42.4578C30.6952 42.1634 29.4444 41.5765 28.3658 40.7394C27.2871 39.9023 26.4075 38.8359 25.7905 37.6171C25.1734 36.3984 24.8343 35.0577 24.7975 33.6917C24.7607 32.3258 25.0273 30.9688 25.5779 29.7185C24.3399 32.1201 24.4266 35.0485 25.5779 37.5337C26.2058 38.8797 27.1517 40.0523 28.3337 40.9502C29.5157 41.8481 30.8984 42.4442 32.3621 42.6871C32.4466 42.9887 32.55 43.2847 32.6716 43.5733C33.6806 46.0245 36.593 47.1215 39.2423 47.1215H39.2392Z" fill="#CC7D29"/>
<path fill-rule="evenodd" clip-rule="evenodd" d="M32.3679 42.6874C32.4524 42.989 32.5557 43.285 32.6774 43.5736C33.6864 46.0248 36.5987 47.1218 39.248 47.1218C41.8974 47.1218 44.819 46.0248 45.8187 43.5736C45.9404 43.285 46.0438 42.989 46.1282 42.6874C47.5079 42.4554 48.816 41.9093 49.9515 41.091C51.087 40.2727 52.0195 39.2042 52.6772 37.9679C53.6769 34.649 50.2384 28.9348 43.4449 33.7039C43.2668 34.6909 42.748 35.584 41.9793 36.2271C41.2105 36.8702 40.2405 37.2225 39.2388 37.2225C38.237 37.2225 37.267 36.8702 36.4983 36.2271C35.7295 35.584 35.2108 34.6909 35.0327 33.7039C28.2392 28.9348 24.8007 34.649 25.8003 37.9679C26.4599 39.2064 27.3953 40.2763 28.5342 41.0948C29.6731 41.9132 30.9849 42.4581 32.3679 42.6874Z" fill="#FDCE68"/>
<path fill-rule="evenodd" clip-rule="evenodd" d="M52.8327 36.3718C52.8798 36.9088 52.8274 37.4499 52.678 37.9677C52.0272 39.1899 51.1076 40.2481 49.9887 41.0624C48.8697 41.8768 47.5807 42.426 46.2188 42.6686C46.2713 41.5404 46.6368 40.4491 47.2741 39.5171C46.9902 40.2235 46.9297 41.0002 47.1008 41.7421C48.2872 41.3589 49.3836 40.7387 50.3236 39.9189C51.2636 39.0992 52.0277 38.097 52.5697 36.973C52.6656 36.7747 52.7523 36.5763 52.8327 36.3718Z" fill="#FDC55F"/>
<path fill-rule="evenodd" clip-rule="evenodd" d="M25.6466 36.3718C25.5995 36.9088 25.652 37.4499 25.8014 37.9677C26.4512 39.1888 27.3694 40.2463 28.4866 41.0606C29.6039 41.8748 30.8911 42.4247 32.2513 42.6686C32.1973 41.5406 31.832 40.4497 31.1959 39.5171C31.4799 40.2235 31.5404 41.0002 31.3693 41.7421C30.1829 41.3589 29.0865 40.7387 28.1465 39.9189C27.2065 39.0992 26.4424 38.097 25.9004 36.973C25.8045 36.7747 25.7178 36.5763 25.6373 36.3718H25.6466Z" fill="#FDC55F"/>
<path fill-rule="evenodd" clip-rule="evenodd" d="M33.6739 23.7908C34.3763 23.7915 35.0569 24.0348 35.6009 24.4796C36.1449 24.9244 36.519 25.5435 36.6601 26.2324C36.8012 26.9213 36.7006 27.6378 36.3754 28.2611C36.0501 28.8844 35.5201 29.3763 34.8748 29.6537C34.3607 29.2326 33.766 28.9214 33.1273 28.7391C32.4885 28.5568 31.8193 28.5074 31.1608 28.594C30.8407 28.1363 30.6522 27.5995 30.6158 27.0419C30.5795 26.4844 30.6967 25.9276 30.9546 25.4322C31.2126 24.9367 31.6014 24.5217 32.0787 24.2322C32.556 23.9428 33.1035 23.7901 33.6615 23.7908H33.6739Z" fill="white"/>
<path fill-rule="evenodd" clip-rule="evenodd" d="M30.5156 28.727C31.5112 28.4538 32.5677 28.5047 33.5325 28.8723C34.4972 29.24 35.3202 29.9054 35.8823 30.7722C35.234 30.0042 34.4014 29.4136 33.4627 29.0558C32.524 28.6981 31.51 28.5849 30.5156 28.727Z" fill="#CD7E29"/>
<path fill-rule="evenodd" clip-rule="evenodd" d="M44.8044 23.7908C44.1018 23.7908 43.4207 24.0336 42.8762 24.4782C42.3316 24.9227 41.957 25.5418 41.8155 26.2309C41.674 26.92 41.7743 27.6368 42.0995 28.2604C42.4247 28.884 42.9549 29.3762 43.6005 29.6537C44.1148 29.2331 44.7095 28.9221 45.3482 28.7399C45.9868 28.5576 46.656 28.508 47.3145 28.594C47.6346 28.1363 47.823 27.5995 47.8594 27.0419C47.8957 26.4844 47.7786 25.9276 47.5206 25.4322C47.2627 24.9367 46.8738 24.5217 46.3965 24.2322C45.9192 23.9428 45.3717 23.7901 44.8137 23.7908H44.8044Z" fill="white"/>
<path fill-rule="evenodd" clip-rule="evenodd" d="M47.9634 28.727C46.9678 28.4538 45.9113 28.5047 44.9465 28.8723C43.9818 29.24 43.1588 29.9054 42.5967 30.7722C43.245 30.0042 44.0776 29.4136 45.0163 29.0558C45.955 28.6981 46.9691 28.5849 47.9634 28.727Z" fill="#CD7E29"/>
<path fill-rule="evenodd" clip-rule="evenodd" d="M34.1795 24.9557C33.8064 24.8555 33.4121 24.8683 33.0463 24.9925C32.6805 25.1168 32.3598 25.3468 32.1246 25.6535C31.8894 25.9603 31.7503 26.33 31.7249 26.7159C31.6996 27.1018 31.789 27.4865 31.9821 27.8215C32.1751 28.1564 32.463 28.4266 32.8093 28.5977C33.1557 28.7689 33.545 28.8333 33.9279 28.783C34.3109 28.7326 34.6703 28.5697 34.9608 28.3148C35.2513 28.0599 35.4597 27.7245 35.5598 27.351C35.6263 27.103 35.6433 26.8443 35.6099 26.5897C35.5765 26.3351 35.4934 26.0895 35.3652 25.8671C35.237 25.6446 35.0663 25.4497 34.8629 25.2933C34.6594 25.1369 34.4272 25.0222 34.1795 24.9557Z" fill="#B12F24"/>
<path fill-rule="evenodd" clip-rule="evenodd" d="M34.026 25.5199C33.7639 25.45 33.487 25.4595 33.2304 25.5471C32.9737 25.6347 32.7487 25.7966 32.5839 26.0122C32.4191 26.2279 32.3219 26.4876 32.3046 26.7586C32.2872 27.0296 32.3505 27.2996 32.4865 27.5346C32.6224 27.7695 32.8249 27.9588 33.0683 28.0786C33.3117 28.1983 33.5851 28.243 33.8539 28.2072C34.1228 28.1713 34.3749 28.0564 34.5785 27.8771C34.7821 27.6977 34.928 27.4619 34.9978 27.1995C35.0449 27.0253 35.0572 26.8435 35.0338 26.6646C35.0104 26.4856 34.9518 26.3131 34.8614 26.157C34.7711 26.0008 34.6507 25.8641 34.5073 25.7548C34.3639 25.6455 34.2003 25.5656 34.026 25.5199Z" fill="black"/>
<path fill-rule="evenodd" clip-rule="evenodd" d="M33.2087 25.2999C33.1088 25.2734 33.0032 25.2772 32.9054 25.3107C32.8076 25.3442 32.7219 25.406 32.6591 25.4883C32.5964 25.5706 32.5594 25.6697 32.5528 25.773C32.5463 25.8763 32.5704 25.9793 32.6223 26.0688C32.6742 26.1584 32.7514 26.2306 32.8442 26.2762C32.937 26.3219 33.0412 26.3389 33.1437 26.3253C33.2462 26.3117 33.3424 26.2679 33.4201 26.1996C33.4977 26.1313 33.5534 26.0414 33.5801 25.9414C33.6151 25.807 33.5958 25.6643 33.5262 25.5442C33.4567 25.424 33.3426 25.3363 33.2087 25.2999Z" fill="white"/>
<path fill-rule="evenodd" clip-rule="evenodd" d="M34.4322 27.7479C34.3656 27.7497 34.3014 27.7729 34.249 27.8141C34.1966 27.8554 34.159 27.9124 34.1416 27.9768C34.1242 28.0412 34.128 28.1095 34.1525 28.1716C34.177 28.2336 34.2208 28.2861 34.2775 28.3212C34.3185 28.3466 34.3648 28.3621 34.4129 28.3663C34.4609 28.3706 34.5093 28.3636 34.5541 28.3459C34.5989 28.3281 34.639 28.3002 34.6712 28.2642C34.7033 28.2282 34.7266 28.1851 34.7391 28.1385C34.7517 28.0919 34.7532 28.043 34.7436 27.9957C34.734 27.9484 34.7134 27.904 34.6836 27.8661C34.6538 27.8282 34.6156 27.7977 34.5719 27.7772C34.5283 27.7567 34.4804 27.7466 34.4322 27.7479Z" fill="white"/>
<path fill-rule="evenodd" clip-rule="evenodd" d="M45.3113 24.9557C44.9383 24.8555 44.5439 24.8683 44.1781 24.9925C43.8124 25.1168 43.4916 25.3468 43.2564 25.6535C43.0212 25.9603 42.8821 26.33 42.8568 26.7159C42.8314 27.1018 42.9209 27.4865 43.1139 27.8215C43.3069 28.1564 43.5948 28.4266 43.9412 28.5977C44.2875 28.7689 44.6768 28.8333 45.0598 28.783C45.4427 28.7326 45.8022 28.5697 46.0926 28.3148C46.3831 28.0599 46.5916 27.7245 46.6917 27.351C46.7582 27.103 46.7752 26.8443 46.7418 26.5897C46.7084 26.3351 46.6252 26.0895 46.497 25.8671C46.3689 25.6446 46.1982 25.4497 45.9947 25.2933C45.7913 25.1369 45.5591 25.0222 45.3113 24.9557Z" fill="#B12F24"/>
<path fill-rule="evenodd" clip-rule="evenodd" d="M45.1597 25.5197C44.8977 25.4492 44.6207 25.4581 44.3638 25.5452C44.1068 25.6324 43.8815 25.7939 43.7163 26.0093C43.551 26.2248 43.4533 26.4844 43.4356 26.7555C43.4178 27.0265 43.4807 27.2967 43.6164 27.532C43.752 27.7672 43.9544 27.9568 44.1977 28.0769C44.4411 28.1969 44.7145 28.242 44.9835 28.2064C45.2524 28.1708 45.5048 28.0561 45.7086 27.8768C45.9124 27.6975 46.0585 27.4618 46.1284 27.1993C46.2221 26.848 46.1726 26.4738 45.991 26.1589C45.8094 25.844 45.5104 25.6142 45.1597 25.5197Z" fill="black"/>
<path fill-rule="evenodd" clip-rule="evenodd" d="M44.3425 25.2997C44.2426 25.2726 44.1369 25.2758 44.0388 25.3089C43.9407 25.3419 43.8546 25.4034 43.7914 25.4854C43.7283 25.5675 43.6908 25.6665 43.6838 25.7698C43.6768 25.8732 43.7006 25.9764 43.7522 26.0662C43.8038 26.156 43.8808 26.2285 43.9736 26.2745C44.0663 26.3205 44.1706 26.3379 44.2732 26.3245C44.3759 26.3111 44.4722 26.2676 44.5501 26.1993C44.628 26.1311 44.6839 26.0413 44.7108 25.9412C44.7459 25.8073 44.727 25.6649 44.658 25.5448C44.5891 25.4248 44.4757 25.3367 44.3425 25.2997Z" fill="white"/>
<path fill-rule="evenodd" clip-rule="evenodd" d="M45.5585 27.7476C45.499 27.7291 45.4353 27.729 45.3757 27.7473C45.3161 27.7657 45.2635 27.8016 45.2247 27.8504C45.1858 27.8992 45.1626 27.9586 45.1581 28.0209C45.1535 28.0831 45.1678 28.1453 45.1991 28.1992C45.2305 28.2532 45.2773 28.2964 45.3336 28.3233C45.3898 28.3501 45.4529 28.3593 45.5145 28.3497C45.5761 28.3401 45.6333 28.3121 45.6787 28.2693C45.7241 28.2266 45.7556 28.1711 45.769 28.1102C45.7857 28.0343 45.7733 27.955 45.7343 27.8878C45.6953 27.8207 45.6326 27.7706 45.5585 27.7476Z" fill="white"/>
<path fill-rule="evenodd" clip-rule="evenodd" d="M35.1963 33.812C35.4176 34.7177 35.936 35.5229 36.6686 36.0986C37.4012 36.6742 38.3055 36.9871 39.2368 36.9871C40.1681 36.9871 41.0724 36.6742 41.805 36.0986C42.5375 35.5229 43.056 34.7177 43.2773 33.812C42.8719 32.6778 41.7298 32.5725 39.8047 33.5021C39.6282 33.5877 39.4345 33.6322 39.2383 33.6322C39.0422 33.6322 38.8485 33.5877 38.672 33.5021C36.7593 32.5725 35.6048 32.6623 35.1963 33.812Z" fill="#D96727"/>
<path fill-rule="evenodd" clip-rule="evenodd" d="M46.0564 42.1511C44.8184 44.3699 42.1722 45.8046 39.2474 45.8046C36.3227 45.8046 33.6765 44.3699 32.4385 42.1511L32.4571 42.2534C33.5341 48.451 44.9856 48.451 46.0595 42.2534L46.0781 42.1511H46.0564Z" fill="#FCBB54"/>
<path fill-rule="evenodd" clip-rule="evenodd" d="M45.2954 41.8598C44.7056 42.9537 43.8312 43.8675 42.7649 44.5044C41.6986 45.1413 40.4801 45.4775 39.2385 45.4775C37.9969 45.4775 36.7785 45.1413 35.7122 44.5044C34.6459 43.8675 33.7715 42.9537 33.1817 41.8598C32.7855 39.7619 31.7054 37.7663 30.6283 35.9473L30.585 35.8729L30.7304 35.7861L30.7738 35.8574C32.4574 38.6463 36.3757 39.5977 39.2076 38.0266L39.2478 38.0049L39.2881 38.0266C42.12 39.5915 46.0351 38.6463 47.7219 35.8574L47.7652 35.7861L47.9107 35.8729L47.8674 35.9473C46.7903 37.7663 45.7009 39.7619 45.314 41.8598H45.2954Z" fill="#F9A946"/>
<path fill-rule="evenodd" clip-rule="evenodd" d="M33.256 41.8198C33.8409 42.8975 34.7054 43.7972 35.7583 44.4242C36.8113 45.0511 38.0136 45.382 39.2386 45.382C40.4636 45.382 41.666 45.0511 42.7189 44.4242C43.7718 43.7972 44.6363 42.8975 45.2212 41.8198C45.6174 39.725 46.7006 37.7139 47.7839 35.8794C46.0816 38.7055 42.1262 39.6816 39.2386 38.0827C36.351 39.6816 32.3956 38.7024 30.6934 35.8794C31.7766 37.7139 32.8598 39.725 33.256 41.8198Z" fill="#851619"/>
<path fill-rule="evenodd" clip-rule="evenodd" d="M32.3674 42.6868C32.4518 42.9885 32.5552 43.2845 32.6769 43.5731L32.7233 43.6878L32.7759 43.7993L32.8316 43.9078L32.8873 44.0162C32.9059 44.0534 32.9276 44.0875 32.9461 44.1216L33.008 44.227L33.073 44.3292L33.1411 44.4284L33.2092 44.5275L33.2804 44.6236L33.3547 44.7166L33.432 44.8095C33.4562 44.8409 33.482 44.8709 33.5094 44.8994C33.5346 44.9308 33.5614 44.9608 33.5899 44.9893L33.6735 45.076L33.757 45.1597L33.8437 45.2434L33.9303 45.3239L34.0232 45.4045C34.0541 45.4293 34.082 45.4572 34.116 45.482L34.2089 45.5564L34.3048 45.6307L34.4008 45.702L34.4998 45.7733L34.6019 45.8415L34.7041 45.9065L34.8093 45.9716L34.9145 46.0336L35.0198 46.0956L35.1281 46.1544L35.2364 46.2102L35.3478 46.266L35.4593 46.3187L35.5738 46.3714L35.6852 46.4209L35.8028 46.4705L35.9173 46.517L36.0349 46.5604L36.1525 46.6038L36.2701 46.644L36.3908 46.6843L36.5115 46.7215L36.6323 46.7587L36.753 46.7928L36.8768 46.8238L36.9975 46.8548L37.1213 46.8858L37.2451 46.9105L37.3689 46.9384L37.4958 46.9601L37.6196 46.9849L37.7434 47.0035L37.8703 47.0221L37.994 47.0407H38.1209L38.2447 47.0562H38.3716H38.4985H38.6223H38.7492H38.873H39.2475C41.8937 47.0562 44.8185 45.9592 45.8182 43.508C45.9399 43.2194 46.0433 42.9234 46.1277 42.6218L46.2639 42.6001H46.3134L46.4 42.5846H46.4527L46.5331 42.5691H46.5919L46.6662 42.5505H46.7312L46.7962 42.535L46.8643 42.5195L46.9293 42.5009L46.9974 42.4854L47.0593 42.4668L47.1274 42.4482L47.1923 42.4296L47.2573 42.4111L47.3223 42.3925L47.3842 42.3708L47.4523 42.3491L47.5142 42.3305L47.5792 42.3088L47.6442 42.284L47.7061 42.2623L47.7711 42.2406L47.833 42.2158L47.898 42.191L47.9599 42.1693L48.0218 42.1446L48.0806 42.1198L48.1487 42.0919L48.2013 42.0702L48.2725 42.0392L48.3189 42.0175L48.6006 41.8905H48.6315L48.7089 41.8533L48.7522 41.8285L48.8234 41.7944L48.8698 41.7696L48.9441 41.7293L48.9627 41.7231L49.0339 41.6828L49.0803 41.658L49.1515 41.6178L49.1948 41.593L49.266 41.5496L49.3093 41.5248L49.3836 41.4783L49.4207 41.4566L49.4919 41.4101L49.5353 41.3822L49.6064 41.3389L49.6436 41.3141L49.7179 41.2645L49.7519 41.2397L49.8262 41.187L49.8571 41.1653L49.9376 41.1095L49.9624 41.0941L50.0459 41.0321H50.0614L50.1512 40.9639C50.4241 40.7541 50.6855 40.5296 50.9342 40.2915L51.0208 40.2078L51.1044 40.1241L51.1849 40.0405L51.2654 39.9537C51.2932 39.9227 51.3211 39.8948 51.3458 39.8638C51.3737 39.8359 51.3984 39.8049 51.4263 39.774L51.5068 39.681C51.9038 39.214 52.2532 38.7084 52.5498 38.1719L52.6117 38.0572C52.6682 37.8632 52.7106 37.6654 52.7386 37.4653C52.7014 37.5459 52.6612 37.6265 52.621 37.707C52.0045 38.926 51.1252 39.9926 50.0467 40.8297C48.9681 41.6669 47.7173 42.2535 46.3846 42.5474C46.5084 41.531 46.786 40.5394 47.2078 39.6066C46.5888 40.1148 46.2019 41.029 45.9698 42.3429C44.8959 48.5405 33.4444 48.5405 32.3674 42.3429C32.1414 41.029 31.7484 40.1148 31.1294 39.6066C31.5512 40.5394 31.8288 41.531 31.9526 42.5474C30.6199 42.2535 29.3691 41.6669 28.2905 40.8297C27.212 39.9926 26.3327 38.926 25.7162 37.707C25.676 37.6265 25.6358 37.5459 25.5986 37.4653C25.6251 37.6657 25.6675 37.8636 25.7255 38.0572L25.7874 38.1719C26.084 38.7084 26.4334 39.214 26.8304 39.681L26.9109 39.774C26.9388 39.8049 26.9635 39.8359 26.9914 39.8638C27.0161 39.8948 27.044 39.9227 27.0718 39.9537L27.1523 40.0405L27.2328 40.1241L27.3163 40.2078L27.403 40.2915C27.6517 40.5296 27.9131 40.7541 28.186 40.9639L28.2789 41.0321L28.3625 41.0941L28.3872 41.1095L28.4646 41.1653L28.4955 41.187L28.5729 41.2397L28.607 41.2645L28.6812 41.3141L28.7184 41.3389L28.7896 41.3822L28.8298 41.4101L28.9041 41.4566L28.9412 41.4783L29.0155 41.5248L29.0588 41.5496L29.13 41.593L29.1733 41.6178L29.2445 41.658L29.2909 41.6828L29.3621 41.7231L29.4055 41.7448L29.4797 41.7851L29.5262 41.8099L29.5973 41.844L29.6407 41.8688L29.7181 41.9059H29.749L30.0306 42.033L30.0771 42.0547L30.1483 42.0857L30.2009 42.1074L30.269 42.1353L30.3278 42.16L30.3897 42.1848L30.4516 42.2065L30.5166 42.2313L30.5785 42.2561L30.6435 42.2778L30.7054 42.2995L30.7704 42.3243L30.8353 42.346L30.8972 42.3646L30.9653 42.3863L31.0272 42.408L31.0922 42.4265L31.1572 42.4451L31.2222 42.4637L31.2903 42.4823L31.3522 42.5009L31.4203 42.5164L31.4853 42.535L31.5503 42.5505L31.6184 42.566H31.6834L31.7577 42.5846H31.8165L31.8969 42.6001H31.9495L32.0362 42.6156H32.0857L32.2188 42.6373L32.3674 42.6868Z" fill="#F9A946"/>
<path fill-rule="evenodd" clip-rule="evenodd" d="M33.2561 41.8194C33.8411 42.8971 34.7056 43.7968 35.7585 44.4238C36.8114 45.0507 38.0137 45.3816 39.2387 45.3816C40.4638 45.3816 41.6661 45.0507 42.719 44.4238C43.7719 43.7968 44.6364 42.8971 45.2214 41.8194C45.2979 41.3899 45.4013 40.9655 45.5308 40.5489C44.5801 40.0689 43.5301 39.8188 42.4653 39.8188C41.4004 39.8188 40.3505 40.0689 39.3997 40.5489C38.3816 40.0893 37.2776 39.8516 36.1608 39.8516C35.044 39.8516 33.94 40.0893 32.9219 40.5489C33.05 40.9659 33.1533 41.3902 33.2314 41.8194H33.2561Z" fill="#CD2027"/>
<path fill-rule="evenodd" clip-rule="evenodd" d="M34.4166 43.3907C33.9533 42.9268 33.5602 42.3975 33.2498 41.8196C33.265 41.4203 33.2041 41.0217 33.0703 40.6452C34.0389 40.1863 35.0981 39.9515 36.1695 39.9579C37.241 39.9643 38.2973 40.2119 39.2603 40.6824C39.1733 40.773 39.0936 40.8704 39.022 40.9736L38.9663 41.0387H38.9817C38.6853 41.517 38.4969 42.0543 38.4295 42.6131C38.3621 43.1719 38.4175 43.7387 38.5918 44.2739C38.2823 42.9631 38.6444 41.5376 39.4769 40.7443C40.3871 40.2525 41.4014 39.9852 42.4354 39.9647C43.4695 39.9442 44.4935 40.1711 45.4224 40.6266C45.2657 40.9771 45.1614 41.3488 45.1129 41.7297C44.6125 42.6508 43.9067 43.444 43.0502 44.0474C42.1938 44.6509 41.2099 45.0484 40.1751 45.2091C39.1402 45.3698 38.0823 45.2893 37.0835 44.9739C36.0848 44.6586 35.1722 44.1168 34.4166 43.3907Z" fill="#EC2024"/>
<path fill-rule="evenodd" clip-rule="evenodd" d="M34.4168 43.3906C33.9534 42.9267 33.5603 42.3973 33.25 41.8195C33.25 41.7575 33.25 41.6955 33.25 41.6335C33.9052 42.5978 34.7843 43.3885 35.8118 43.9378C36.8394 44.4871 37.9847 44.7785 39.1495 44.787C40.3143 44.7955 41.4638 44.5209 42.4993 43.9868C43.5347 43.4526 44.4253 42.6749 45.0945 41.7203C44.5944 42.6389 43.8898 43.4299 43.0354 44.032C42.181 44.6342 41.1996 45.0314 40.1672 45.1929C39.1348 45.3544 38.0792 45.2758 37.082 44.9633C36.0849 44.6508 35.1729 44.1126 34.4168 43.3906Z" fill="#E31E26"/>
<path fill-rule="evenodd" clip-rule="evenodd" d="M39.2383 36.9884C38.3066 36.9887 37.4018 36.6758 36.6689 36.0999C35.936 35.5239 35.4174 34.7183 35.1963 33.8121C35.2294 33.1448 35.3523 32.485 35.5615 31.8506C35.2774 32.4344 35.0983 33.0638 35.0322 33.7099C35.2103 34.6969 35.729 35.59 36.4978 36.2331C37.2666 36.8762 38.2365 37.2285 39.2383 37.2285C40.2401 37.2285 41.2101 36.8762 41.9788 36.2331C42.7476 35.59 43.2663 34.6969 43.4444 33.7099C43.3784 33.0638 43.1992 32.4344 42.9152 31.8506C43.1249 32.4848 43.2467 33.1448 43.2773 33.8121C43.0568 34.7181 42.5388 35.5236 41.8064 36.0996C41.074 36.6755 40.1696 36.9886 39.2383 36.9884Z" fill="#C45D28"/>
<path fill-rule="evenodd" clip-rule="evenodd" d="M42.4634 35.4544C41.9763 36.051 41.3335 36.5005 40.6064 36.7528C40.0059 36.6785 40.1298 36.1548 41.1604 35.3584C42.6088 34.2397 42.9864 34.3048 42.451 35.4544H42.4634Z" fill="#B05526"/>
<path fill-rule="evenodd" clip-rule="evenodd" d="M42.4637 35.4544L42.408 35.5226C42.6216 34.6394 41.5909 34.9865 40.4551 36.0339C40.6665 35.7807 40.9075 35.5538 41.1731 35.3584C42.6216 34.2397 42.9992 34.3048 42.4637 35.4544Z" fill="#8F4620"/>
<path fill-rule="evenodd" clip-rule="evenodd" d="M36.0136 35.4544C36.5 36.0517 37.143 36.5014 37.8706 36.7528C38.471 36.6785 38.3472 36.1548 37.3166 35.3584C35.8681 34.2397 35.4875 34.3048 36.026 35.4544H36.0136Z" fill="#B05526"/>
<path fill-rule="evenodd" clip-rule="evenodd" d="M36.0143 35.4544L36.07 35.5226C35.8564 34.6394 36.8871 34.9865 38.0229 36.0339C37.8115 35.7807 37.5704 35.5538 37.3049 35.3584C35.8564 34.2397 35.4757 34.3048 36.0143 35.4544Z" fill="#8F4620"/>
<path fill-rule="evenodd" clip-rule="evenodd" d="M39.6776 40.8525C39.3806 41.0271 39.1647 41.3123 39.0771 41.6458C40.9523 40.8869 43.0236 40.7618 44.9762 41.2895C45.0359 41.0882 45.0671 40.8796 45.069 40.6697C44.2038 40.337 43.2804 40.1822 42.3541 40.2147C41.4278 40.2472 40.5175 40.4662 39.6776 40.8587V40.8525Z" fill="#EE3937"/>
<path fill-rule="evenodd" clip-rule="evenodd" d="M32.2496 42.6682C29.713 42.344 27.392 41.0736 25.7501 39.1107C25.0263 37.938 24.5081 36.65 24.2181 35.3023C24.2304 36.1165 24.4039 36.9202 24.7288 37.6667C23.9805 36.4265 23.5469 35.0218 23.466 33.5751C23.3851 32.1285 23.6593 30.6841 24.2645 29.368C25.193 27.3166 27.5483 24.8933 29.3372 20.5705C29.4022 20.4093 29.4703 20.2606 29.5384 20.0994C29.2675 20.3169 29.0091 20.5497 28.7647 20.7967C30.3596 17.5367 31.9968 15.9098 33.6764 15.916C33.5114 15.7348 33.3266 15.5726 33.1255 15.4326C33.6074 15.6302 34.0696 15.873 34.5059 16.1577C34.6962 16.2605 34.8739 16.3853 35.0351 16.5296C35.1589 16.6257 35.2796 16.7217 35.4003 16.824L35.2734 16.7682C35.3136 16.8178 35.357 16.8674 35.3972 16.92C33.4381 16.3003 31.5501 17.5801 30.0367 20.902C28.4892 24.2953 27.3038 27.0284 25.9823 29.0148C24.3172 31.5279 24.2986 34.8003 25.5737 37.5334C26.1938 38.8625 27.1239 40.0229 28.2858 40.9165C29.4477 41.8102 30.8072 42.4109 32.2496 42.6682Z" fill="#B14226"/>
<path fill-rule="evenodd" clip-rule="evenodd" d="M46.2182 42.6686C48.7546 42.3439 51.0755 41.0736 52.7177 39.1112C53.4419 37.939 53.9591 36.6507 54.2466 35.3027C54.237 36.1169 54.0644 36.9209 53.739 37.6671C54.4873 36.427 54.9209 35.0222 55.0018 33.5756C55.0828 32.129 54.8086 30.6845 54.2033 29.3685C53.2748 27.3171 50.9164 24.8938 49.1306 20.5709C49.0656 20.4098 48.9975 20.261 48.9294 20.0999C49.1997 20.3182 49.458 20.5509 49.7032 20.7971C48.0175 17.3471 46.2832 15.7264 44.5005 15.9351C43.9347 16.1097 43.4386 16.459 43.083 16.9329C45.0421 16.3131 46.9301 17.593 48.4435 20.9149C49.991 24.3081 51.1764 27.0413 52.498 29.0276C54.1631 31.5408 54.1816 34.8131 52.9065 37.5463C52.2865 38.8754 51.3563 40.0357 50.1944 40.9294C49.0325 41.823 47.673 42.4238 46.2306 42.681L46.2182 42.6686Z" fill="#B14226"/>
<path fill-rule="evenodd" clip-rule="evenodd" d="M37.2531 18.0573C36.0575 16.9317 34.6611 16.0413 33.1367 15.4326C33.9008 15.8513 34.6258 16.3377 35.3032 16.886C36.0395 17.118 36.7115 17.5191 37.2654 18.0573H37.2531ZM45.3433 15.4326C43.8186 16.0405 42.4221 16.931 41.227 18.0573C41.7805 17.5185 42.4526 17.1173 43.1892 16.886C43.8666 16.3377 44.5917 15.8513 45.3557 15.4326H45.3433Z" fill="#8F361F"/>
<path fill-rule="evenodd" clip-rule="evenodd" d="M39.2395 19.0122C38.5617 18.7642 38.2182 18.2653 37.8066 17.7726C37.3678 17.2304 36.8454 16.7618 36.2591 16.3844C36.3488 16.53 36.4324 16.6756 36.5128 16.8275C35.4822 15.7925 34.6156 15.5353 33.1455 15.4392C34.6699 16.0479 36.0663 16.9383 37.2618 18.0639C37.5574 18.3342 37.8345 18.6241 38.0913 18.9316C38.4874 19.4026 38.8681 19.635 39.2488 19.635V19.0153L39.2395 19.0122Z" fill="#B14226"/>
<path fill-rule="evenodd" clip-rule="evenodd" d="M39.2388 19.0122C39.9166 18.7642 40.257 18.2653 40.6718 17.7726C41.1106 17.2304 41.633 16.7618 42.2193 16.3844C42.1295 16.53 42.0459 16.6756 41.9655 16.8275C42.9961 15.7925 43.8627 15.5353 45.3328 15.4392C43.808 16.0471 42.4115 16.9376 41.2165 18.0639C40.9209 18.3342 40.6438 18.6241 40.387 18.9316C39.9909 19.4026 39.6102 19.635 39.2295 19.635V19.0153L39.2388 19.0122Z" fill="#B14226"/>
<path fill-rule="evenodd" clip-rule="evenodd" d="M40.9346 11.8259C40.4171 12.2585 39.7642 12.4955 39.09 12.4955C38.4158 12.4955 37.763 12.2585 37.2454 11.8259C37.0717 11.6855 36.8863 11.56 36.6914 11.4509C36.9003 11.5232 37.0966 11.6278 37.2733 11.7608C37.7942 12.1673 38.4328 12.3934 39.0931 12.4051C39.7534 12.4168 40.3997 12.2136 40.9346 11.8259Z" fill="#8F361F"/>
<path fill-rule="evenodd" clip-rule="evenodd" d="M38.3386 24.3482C34.2718 22.2472 31.5451 21.6615 30.1338 22.7616C31.0499 19.7744 33.7848 20.3032 38.3386 24.3482Z" fill="#C64A29"/>
<path fill-rule="evenodd" clip-rule="evenodd" d="M40.1387 24.3482C44.2055 22.2472 46.9322 21.6615 48.3435 22.7616C47.4274 19.7744 44.6924 20.3032 40.1387 24.3482Z" fill="#C64A29"/>
<path fill-rule="evenodd" clip-rule="evenodd" d="M48.3435 22.7616C48.0855 22.3964 47.7523 22.091 47.3662 21.8659C46.9802 21.6408 46.5503 21.5014 46.1058 21.457C45.1794 21.5128 43.1903 22.4765 40.1387 24.3482C44.2055 22.2472 46.9322 21.6616 48.3435 22.7616Z" fill="#B14226"/>
<path fill-rule="evenodd" clip-rule="evenodd" d="M30.1338 22.7616C30.3917 22.3964 30.725 22.091 31.1111 21.8659C31.4971 21.6408 31.9269 21.5014 32.3715 21.457C33.2979 21.5128 35.2869 22.4765 38.3386 24.3482C34.2718 22.2472 31.5451 21.6616 30.1338 22.7616Z" fill="#B14226"/>
<path fill-rule="evenodd" clip-rule="evenodd" d="M40.9346 11.8263C40.2115 12.1116 39.406 12.1049 38.6877 11.8078C38.0638 11.5195 37.3763 11.3968 36.6914 11.4514C36.9003 11.5237 37.0966 11.6282 37.2733 11.7613C37.7942 12.1677 38.4328 12.3938 39.0931 12.4056C39.7534 12.4173 40.3997 12.214 40.9346 11.8263Z" fill="#B14226"/>
<path fill-rule="evenodd" clip-rule="evenodd" d="M32.5754 35.4949C32.2666 35.3563 31.9294 35.2931 31.5914 35.3104C31.2535 35.3277 30.9245 35.4251 30.6314 35.5945C30.3384 35.7639 30.0896 36.0005 29.9057 36.2848C29.7217 36.5692 29.6078 36.8932 29.5732 37.2302C29.8042 36.6439 30.2267 36.1531 30.7718 35.838C31.317 35.5229 31.9527 35.4019 32.5754 35.4949Z" fill="#F9A946"/>
<path fill-rule="evenodd" clip-rule="evenodd" d="M45.9014 35.4949C46.2102 35.3563 46.5474 35.2931 46.8853 35.3104C47.2233 35.3277 47.5523 35.4251 47.8453 35.5945C48.1384 35.7639 48.3871 36.0005 48.5711 36.2848C48.755 36.5692 48.8689 36.8932 48.9035 37.2302C48.6726 36.6439 48.2501 36.1531 47.7049 35.838C47.1597 35.5229 46.524 35.4019 45.9014 35.4949Z" fill="#F9A946"/>
</g>
</svg>