<svg width="252" height="426" viewBox="0 0 252 426" fill="none" xmlns="http://www.w3.org/2000/svg">
<g clip-path="url(#clip0_528:2)">
<path d="M85.7578 160.807C85.7578 160.807 78.2292 183.319 79.1826 190.667C79.1826 190.667 72.1472 197.818 71.5116 202.658C70.876 207.498 69.561 208.763 71.9719 209.853C74.3828 210.943 76.3553 204.849 78.6128 203.029C80.8703 201.208 82.9085 199.409 83.7743 202.353C84.64 205.296 85.8017 208.24 88.2564 207.684C90.7111 207.128 90.5686 200.729 89.7358 197.087C88.9029 193.446 98.7329 175.71 100.19 163.358C100.19 163.315 84.4647 160.36 85.7578 160.807Z" fill="#FECC8D"/>
<path d="M95.2867 162.432L93.3032 166.062C93.3032 166.062 90.7389 184.137 86.8376 190.787C84.7664 194.319 88.3718 197.753 88.317 202.713C88.317 205.634 87.9006 206.899 87.2211 207.651C87.5809 207.74 87.9572 207.74 88.317 207.651C90.7827 207.106 90.6293 200.696 89.7965 197.055C88.9636 193.414 98.7935 175.677 100.251 163.326L95.2867 162.432Z" fill="#FAAC73"/>
<path d="M60.6538 93.5782C48.6979 75.5581 33.5531 80.4201 23.9643 97.1866C14.3755 113.953 -0.0351562 118.466 -0.0351562 118.466C-0.0351562 118.466 7.351 123.492 16.0193 120.952C16.0193 120.952 15.9316 127.209 5.8606 126.904C5.8606 126.904 13.3892 142.351 37.9694 131.875C62.5496 121.399 68.4344 105.265 60.6538 93.5782Z" fill="#5D2016"/>
<path d="M59.7669 79.1447C59.7669 79.1447 50.5945 81.7937 54.1451 90.0461C57.6957 98.2985 61.8161 99.7593 65.9804 97.6771C70.1447 95.595 59.7669 79.1447 59.7669 79.1447Z" fill="#E1232C"/>
<path d="M184.324 87.7677C193.321 74.2063 204.718 77.8691 211.928 90.4821C219.139 103.095 229.999 106.496 229.999 106.496C228.222 107.605 226.237 108.342 224.165 108.662C222.092 108.982 219.976 108.88 217.945 108.361C217.945 108.361 218.011 113.07 225.616 112.841C225.616 112.841 219.95 124.473 201.441 116.591C182.932 108.709 178.494 96.5543 184.324 87.7677Z" fill="#5D2016"/>
<path d="M185.015 76.8989C185.015 76.8989 191.908 78.8939 189.245 85.0969C186.582 91.2998 183.448 92.4009 180.336 90.8529C177.223 89.3049 185.015 76.8989 185.015 76.8989Z" fill="#E1232C"/>
<path d="M176.054 101.951C168.514 119.393 154.531 131.973 120.8 130.425C87.6505 128.91 78.4124 113.135 73.0865 107.249C67.7606 101.362 74.7961 45.9933 74.7961 45.9933L89.8861 27.7442L163.309 23.0348C163.309 23.0348 178.103 48.9367 178.651 49.8197C179.199 50.7027 183.561 84.6172 176.054 101.951Z" fill="#FECC8D"/>
<path d="M172.317 109.2C166.714 114.881 159.902 119.24 152.383 121.959C144.864 124.677 136.828 125.685 128.866 124.909C100.012 122.26 91.6066 112.111 90.697 93.5673C89.7874 75.0239 94.2476 66.1937 99.1242 61.7786C104.001 57.3635 128.866 48.5333 136.855 37.9371C136.855 37.9371 151.945 55.5975 163.923 59.5656C175.9 63.5338 179.9 80.7581 179.013 87.8222C178.947 88.3891 179.122 88.5962 179.462 88.5526C181.829 71.2302 179.111 50.5065 178.651 49.8197C178.059 48.9367 163.309 23.0348 163.309 23.0348L89.8861 27.7442L74.7961 45.9933C74.7961 45.9933 67.7606 101.362 73.0865 107.249C78.4124 113.135 87.6505 128.91 120.8 130.425C149.644 131.744 164.032 122.74 172.317 109.2Z" fill="#FAAC73"/>
<path d="M105.171 70.1509C105.171 70.1509 99.1873 71.3283 96.0312 69.0608C96.7373 70.3109 97.8037 71.3218 99.093 71.963C100.382 72.6043 101.835 72.8465 103.264 72.6583L105.171 70.1509Z" fill="#5D2016"/>
<path d="M102.189 75.4927C102.189 75.4927 96.1394 76.2776 93.1367 73.8684C93.7586 75.1617 94.7564 76.2397 96.0009 76.9627C97.2455 77.6856 98.6794 78.0204 100.117 77.9237L102.189 75.4927Z" fill="#5D2016"/>
<path d="M101.914 79.6898C101.914 79.6898 96.1824 81.7611 92.7305 80.0496C93.6171 81.1735 94.8209 82.0085 96.1876 82.4474C97.5542 82.8863 99.0216 82.9093 100.402 82.5133L101.914 79.6898Z" fill="#5D2016"/>
<path d="M159.746 68.5702C159.746 68.5702 165.839 68.6791 168.513 65.9429C168.043 67.2988 167.174 68.4831 166.019 69.3422C164.864 70.2013 163.477 70.6957 162.036 70.7613L159.746 68.5702Z" fill="#5D2016"/>
<path d="M163.668 73.3124C163.668 73.3124 169.761 73.029 172.281 70.1183C171.902 71.5022 171.113 72.7406 170.017 73.672C168.92 74.6034 167.567 75.1847 166.134 75.3401L163.668 73.3124Z" fill="#5D2016"/>
<path d="M164.629 77.4005C164.629 77.4005 170.645 78.4253 173.736 76.136C173.064 77.4044 172.025 78.4425 170.753 79.1152C169.48 79.7879 168.034 80.0641 166.601 79.9079L164.629 77.4005Z" fill="#5D2016"/>
<path d="M155.5 67.7309C145.287 68.8211 142.58 83.9632 150.777 90.4387C158.974 96.9142 168.848 87.0156 167.697 77.455C166.547 67.8944 159.73 67.2622 155.5 67.7309Z" fill="white"/>
<path d="M110.114 68.0252C98.0596 69.2134 95.8679 78.7085 101.468 88.9559C107.068 99.2033 121.489 94.2322 124.163 84.8025C124.791 82.7308 124.892 80.5366 124.459 78.4163C124.025 76.296 123.069 74.3159 121.677 72.6534C120.284 70.9908 118.499 69.6978 116.481 68.8901C114.464 68.0824 112.276 67.7852 110.114 68.0252Z" fill="white"/>
<path d="M117.643 80.431C117.702 81.5672 117.421 82.6953 116.836 83.6728C116.25 84.6504 115.387 85.4335 114.355 85.9232C113.323 86.4129 112.167 86.5873 111.036 86.4244C109.904 86.2614 108.846 85.7684 107.995 85.0077C107.145 84.2469 106.54 83.2525 106.258 82.15C105.975 81.0476 106.027 79.8865 106.407 78.8135C106.788 77.7405 107.479 76.8037 108.395 76.1215C109.31 75.4392 110.408 75.0421 111.55 74.9803C112.31 74.9377 113.072 75.0451 113.79 75.2963C114.509 75.5476 115.17 75.9378 115.736 76.4444C116.303 76.9511 116.763 77.5641 117.09 78.2483C117.417 78.9325 117.605 79.6743 117.643 80.431Z" fill="#5D2016"/>
<path d="M112.338 78.7632C112.363 79.2474 112.244 79.7281 111.995 80.1448C111.745 80.5614 111.378 80.8952 110.938 81.104C110.498 81.3128 110.006 81.3873 109.523 81.318C109.041 81.2487 108.59 81.0387 108.228 80.7147C107.865 80.3906 107.607 79.9669 107.487 79.4972C107.366 79.0274 107.388 78.5326 107.55 78.0753C107.712 77.618 108.007 77.2187 108.397 76.9279C108.787 76.637 109.254 76.4677 109.741 76.4412C110.065 76.4235 110.389 76.4696 110.695 76.5768C111.001 76.6841 111.283 76.8503 111.524 77.066C111.765 77.2817 111.961 77.5427 112.101 77.8339C112.241 78.1252 112.321 78.4409 112.338 78.7632Z" fill="white"/>
<path d="M115.602 83.8539C115.601 84.0662 115.539 84.2736 115.421 84.4509C115.304 84.6281 115.137 84.7675 114.941 84.8518C114.745 84.9361 114.529 84.9616 114.319 84.9254C114.109 84.8891 113.914 84.7926 113.758 84.6477C113.602 84.5028 113.492 84.3158 113.441 84.1096C113.391 83.9034 113.402 83.6869 113.473 83.4869C113.544 83.2869 113.673 83.1119 113.843 82.9834C114.013 82.855 114.217 82.7786 114.429 82.7638C114.58 82.7533 114.73 82.7737 114.872 82.8238C115.014 82.8739 115.144 82.9525 115.254 83.0548C115.364 83.1571 115.452 83.2809 115.512 83.4184C115.572 83.5559 115.602 83.7041 115.602 83.8539Z" fill="white"/>
<path d="M160.984 78.8721C161.034 79.815 160.803 80.7517 160.318 81.5637C159.834 82.3757 159.118 83.0266 158.262 83.4341C157.406 83.8416 156.447 83.9874 155.508 83.8531C154.568 83.7187 153.69 83.3103 152.983 82.6793C152.277 82.0484 151.775 81.2234 151.54 80.3085C151.305 79.3936 151.348 78.43 151.664 77.5395C151.979 76.6489 152.553 75.8714 153.313 75.3053C154.072 74.7392 154.984 74.4099 155.932 74.3589C157.203 74.2935 158.448 74.7317 159.395 75.5776C160.341 76.4234 160.913 77.6081 160.984 78.8721Z" fill="#5D2016"/>
<path d="M156.599 77.4875C156.622 77.8888 156.525 78.2878 156.32 78.6344C156.116 78.981 155.813 79.2597 155.45 79.4355C155.086 79.6113 154.679 79.6763 154.278 79.6225C153.878 79.5686 153.503 79.3982 153.199 79.1327C152.896 78.8672 152.678 78.5184 152.574 78.1302C152.469 77.742 152.482 77.3317 152.611 76.9509C152.74 76.57 152.98 76.2357 153.299 75.9898C153.619 75.7439 154.004 75.5975 154.407 75.5689C154.678 75.5511 154.95 75.5868 155.206 75.6737C155.463 75.7606 155.7 75.8971 155.904 76.0754C156.108 76.2536 156.274 76.4701 156.393 76.7125C156.512 76.9548 156.582 77.2182 156.599 77.4875Z" fill="white"/>
<path d="M159.281 81.761C159.292 81.9421 159.248 82.1224 159.155 82.2788C159.063 82.4352 158.926 82.5607 158.761 82.6394C158.597 82.7181 158.413 82.7465 158.232 82.721C158.052 82.6954 157.883 82.617 157.747 82.4958C157.611 82.3746 157.515 82.216 157.47 82.0401C157.425 81.8642 157.433 81.679 157.494 81.508C157.555 81.337 157.666 81.1879 157.813 81.0796C157.959 80.9713 158.134 80.9087 158.317 80.8998C158.559 80.8879 158.796 80.9717 158.977 81.1329C159.158 81.2942 159.267 81.52 159.281 81.761Z" fill="white"/>
<path d="M107.911 60.1978C107.221 58.846 98.2346 59.402 97.862 65.6485C97.6209 69.6167 101.632 64.1223 103.736 63.6972C105.84 63.272 108.733 61.8003 107.911 60.1978Z" fill="#5D2016"/>
<path d="M154.1 58.4646C154.516 57.0147 163.447 55.8809 164.992 61.9095C165.979 65.7577 160.992 61.1137 158.845 61.081C156.697 61.0483 153.585 60.198 154.1 58.4646Z" fill="#5D2016"/>
<path d="M130.662 106.464C131.067 104.392 136.141 108.644 140.393 106.845C144.645 105.047 141.62 112.841 136.908 113.539C132.196 114.237 129.96 110.105 130.662 106.464Z" fill="#F16275"/>
<path d="M133.169 86.4376C136.205 83.745 144.621 90.2641 142.287 94.3958C139.953 98.5274 132.852 96.3798 132.084 94.0905C131.317 91.8012 132.15 87.3316 133.169 86.4376Z" fill="#FAAC73"/>
<path d="M158.112 95.7367C152.271 99.4105 160.304 112.089 165.926 105.254C171.548 98.4184 166.364 90.5476 158.112 95.7367Z" fill="#F9A987"/>
<path d="M113.815 103.749C115.229 97.0231 100.544 93.938 101.498 102.714C102.451 111.489 111.821 113.266 113.815 103.749Z" fill="#F9A987"/>
<path d="M136.754 31.3308C136.754 31.3308 124.14 48.7732 93.5107 58.6717C77.6973 63.7518 77.3467 107.805 83.5931 115.577C87.1985 120.058 72.3386 125.389 65.1278 103.477C57.917 81.5648 48.909 46.5711 66.0264 26.4034C83.1438 6.23565 130.891 -13.932 168.731 12.9619C206.571 39.8558 185.563 93.2185 178.199 96.3036C172.49 98.7019 187.306 71.7208 172.786 61.3535C155.219 48.8059 144.414 39.8449 136.754 31.3308Z" fill="#5D2016"/>
<path d="M170.308 135.178C172.942 134.3 175.643 133.637 178.384 133.194C180.017 132.943 186.79 121.551 190.965 118.357C193.628 116.319 192.127 113.735 192.258 109.636C192.39 105.537 191.984 100.849 195.294 100.283C198.318 99.7484 197.222 102.136 197.672 104.981C197.805 105.863 197.988 106.736 198.22 107.597C198.22 107.597 201.091 97.7861 204.795 98.0477C208.499 98.3094 203.458 105.461 203.458 105.461C203.458 105.461 208.433 98.9199 210.756 100.773C213.079 102.626 206.46 109.113 206.46 109.113C206.46 109.113 212.531 103.171 214.066 105.548C215.6 107.924 208.762 112.667 208.762 112.667C208.762 112.667 214.241 109.254 215.096 111.315C215.951 113.375 208.017 122.543 201.343 122.968C201.343 122.968 195.359 139.124 186.001 144.63C176.642 150.135 170.297 149.688 170.297 149.688L170.308 135.178Z" fill="#FECC8D"/>
<path d="M185.366 139.997C181.223 143.267 172.051 143.267 172.051 143.267L170.363 149.088V149.677C170.363 149.677 176.752 150.135 186.067 144.619C195.382 139.103 201.409 122.958 201.409 122.958C208.083 122.532 216.039 113.375 215.162 111.304C209.124 117.616 201.376 120.025 199.305 121.78C197.234 123.535 189.508 136.759 185.366 139.997Z" fill="#FAAC73"/>
<path d="M114.5 127.82C114.5 127.82 116.275 131.908 115.826 134.361C115.377 136.814 131.749 139.31 131.749 139.31L138.247 135.32C138.247 135.32 140.603 129.869 140.297 128.332C139.99 126.795 114.5 127.82 114.5 127.82Z" fill="#FAAC73"/>
<path d="M138.877 131.482C138.877 131.482 164.323 134.088 171.972 132.998C177.276 132.246 175.468 147.878 174.438 150.724C173.408 153.569 156.356 153.994 146.833 150.724C137.31 147.453 138.877 131.482 138.877 131.482Z" fill="white"/>
<path d="M118.791 131.973C118.791 131.973 107.504 131.853 94.5285 139.135C81.5535 146.418 81.8713 164.318 81.8165 166.084C81.7617 167.85 99.5038 168.46 101.246 166.76C102.989 165.059 100.49 153.918 106.605 150.822C112.72 147.726 118.254 133.663 118.791 131.973Z" fill="white"/>
<path d="M138.789 232.943C138.789 232.943 143.994 265.767 145.003 269.648C146.011 273.529 159.808 277.388 159.808 277.388L165.419 272.722L164.98 271.534C162.735 270.721 160.78 269.269 159.358 267.358C157.539 264.502 158.734 230.381 158.734 230.381L138.789 232.943Z" fill="#FECC8D"/>
<path d="M148.729 257.863C141.058 243.462 150.526 233.88 150.526 233.88L149.145 231.7L138.789 233.03C138.789 233.03 142.153 254.244 143.994 264.579C148.608 266.083 153.178 266.225 148.729 257.863Z" fill="#FAAC73"/>
<path d="M119.555 233.455C119.555 233.455 110.394 261.799 110.065 264.469C109.952 265.739 110.183 267.015 110.735 268.166C111.286 269.316 112.137 270.298 113.199 271.01C115.084 272.177 108.432 276.81 108.432 276.81L94.186 265.908L93.3203 263.227L95.512 260.861C95.512 260.861 98.4052 255.41 98.4928 253.023C98.5805 250.635 99.9942 230.773 99.9942 230.773L119.555 233.455Z" fill="#FECC8D"/>
<path d="M113.807 232.67L99.9657 230.773C99.9657 230.773 98.5521 250.603 98.4644 253.023C98.3881 253.866 98.1963 254.695 97.8945 255.487L103.319 258.277C103.319 258.277 104.031 251.9 104.777 244.193C105.522 236.485 113.817 232.801 113.817 232.801L113.807 232.67Z" fill="#FAAC73"/>
<path d="M97.4549 192.64C97.4549 192.64 85.5209 217.844 74.2773 223.643C74.2773 223.643 82.9566 232.615 95.6357 231.002C103.833 229.966 109.882 237.238 124.742 236.453C139.602 235.668 147.634 241.228 155.075 234.414C162.516 227.601 170.911 234.959 180.28 227.339C180.28 227.339 159.273 209.82 157.355 196.063L97.4549 192.64Z" fill="url(#paint0_linear_528:2)"/>
<path d="M113.259 270.989C112.197 270.277 111.346 269.294 110.795 268.144C110.244 266.993 110.012 265.717 110.125 264.448C110.246 263.51 111.495 259.27 113.051 254.222C107.572 254.08 102.016 251.824 98.6845 250.178C98.5968 251.551 98.5311 252.565 98.5201 253.001C98.4324 255.432 95.5394 260.839 95.5394 260.839L93.3477 263.205L94.2134 265.887L108.46 276.788C108.46 276.788 115.09 272.155 113.259 270.989Z" fill="white"/>
<path d="M159.358 267.359C158.646 266.268 158.394 260.294 158.361 253.492C152.882 255.956 146.186 255.672 142.395 255.149C143.49 261.962 144.586 268.1 145.003 269.648C146.022 273.529 159.808 277.388 159.808 277.388L165.419 272.722L164.98 271.534C162.735 270.722 160.78 269.269 159.358 267.359Z" fill="white"/>
<path d="M95.4799 260.861C95.4799 260.861 95.2936 266.312 101.354 269.397C107.414 272.482 109.397 271.098 111.37 269.746C113.342 268.394 121.529 271.512 122.329 275.971C123.129 280.429 117.09 282.184 106.11 281.803C95.1292 281.421 88.9704 270.204 88.6636 268.067C88.3567 265.93 92.7841 260.937 95.4799 260.861Z" fill="#252525"/>
<path d="M89.7286 265.451C90.5617 268.383 91.9941 271.112 93.9363 273.468C95.8785 275.824 98.2887 277.756 101.016 279.143C110.112 283.504 120.489 279.143 122.265 277.922C122.413 278.236 122.498 278.575 122.514 278.921C122.53 279.267 122.478 279.613 122.36 279.939C122.242 280.265 122.061 280.565 121.826 280.821C121.592 281.077 121.309 281.285 120.994 281.432C118.626 282.762 109.662 285.651 100.172 281.945C90.6819 278.238 88.1176 269.648 87.3286 268.732C86.5396 267.816 88.5889 265.047 89.7286 265.451Z" fill="#151515"/>
<path d="M145.038 269.648C148.116 271.018 151.301 272.137 154.561 272.994C161.136 274.88 162.802 273.202 164.424 271.512C166.046 269.822 174.747 271.403 176.478 275.633C178.21 279.862 172.698 282.675 161.86 284.299C151.022 285.924 140.655 280.004 139.888 277.987C139.12 275.971 142.375 270.215 145.038 269.648Z" fill="#252525"/>
<path d="M140.36 275.196C145.167 278.626 150.569 281.143 156.294 282.62C166.157 285.28 175.362 279.045 176.842 277.562C177.052 277.834 177.206 278.145 177.295 278.477C177.384 278.809 177.407 279.155 177.361 279.496C177.315 279.836 177.202 280.164 177.028 280.461C176.854 280.758 176.623 281.017 176.348 281.225C174.321 282.969 166.157 287.428 156.053 285.531C145.949 283.634 139.615 279.622 138.695 278.859C137.774 278.096 139.155 275.011 140.36 275.196Z" fill="#151515"/>
<path d="M171.535 230.817C159.229 225.53 150.528 233.847 148.643 232.899C146.758 231.951 131.887 225.911 124.008 230.021C116.128 234.131 101.521 227.481 101.937 215.566C102.353 203.65 120.194 201.677 120.194 201.677L115.515 193.686L97.4549 192.662C97.4549 192.662 85.5209 217.866 74.2773 223.665C74.2773 223.665 82.9566 232.637 95.6357 231.024C103.833 229.988 109.882 237.26 124.742 236.475C139.602 235.69 147.634 241.249 155.075 234.436C160.193 229.748 165.76 231.765 171.798 231.002L171.535 230.817Z" fill="#E1232C"/>
<path d="M118.794 131.973C118.794 131.973 120.548 136.89 130.125 137.664C139.703 138.438 138.322 131.482 138.322 131.482C138.322 131.482 151.944 131.788 156.295 144.75C160.645 157.711 161.292 193.959 160.196 197.905C160.196 197.905 129.775 216.285 92.6797 192.029C92.6797 192.029 105.227 176.56 104.658 165.495C104.088 154.43 88.0552 133.107 118.794 131.973Z" fill="white"/>
<path d="M125.64 145.731C125.64 145.731 118.615 181.498 117.552 184.551C116.489 187.603 129.015 200.195 131.634 200.718C134.253 201.241 142.834 189.62 143.601 188.105C144.368 186.589 131.426 144.826 131.426 144.826L125.64 145.731Z" fill="url(#paint1_linear_528:2)"/>
<path d="M122.026 145.393C122.026 145.393 126.464 148.86 129.598 148.522C132.732 148.184 136.031 143.224 136.031 143.224L131.889 138.002C131.889 138.002 131.439 137.097 127.812 137.86C124.185 138.623 120.24 142.231 122.026 145.393Z" fill="#E1232C"/>
<path d="M140.039 173.551L121.113 191.179C122.565 192.944 124.112 194.629 125.749 196.226L141.858 180.103C141.321 178.097 140.707 175.895 140.039 173.551Z" fill="#E1232C"/>
<path d="M136.27 160.535L119.503 176.331C118.605 180.539 117.892 183.733 117.607 184.551C117.516 184.879 117.516 185.226 117.607 185.554L137.903 166.204C137.366 164.285 136.763 162.432 136.27 160.535Z" fill="#E1232C"/>
<path d="M117.113 130.589C112.302 130.763 113.036 131.221 111.886 134.033C110.735 136.846 116.784 145 120.247 146.712C123.71 148.423 127.567 139.026 129.014 138.121C130.46 137.217 119.053 130.512 117.113 130.589Z" fill="#E6E7E8"/>
<path d="M137.804 131.188C141.618 131.188 141.092 131.537 142.187 133.728C143.283 135.919 138.9 142.591 136.248 144.085C133.596 145.578 130.034 138.274 128.84 137.609C127.645 136.944 136.27 131.21 137.804 131.188Z" fill="#E6E7E8"/>
</g>
<path d="M101.214 318.956C78.3747 319.668 55.5349 320.485 32.7069 321.406C26.41 321.658 21.2871 315.521 21.1447 307.688C21.1092 305.918 21.0855 304.148 21.0499 302.379C20.9076 294.545 25.8408 287.739 32.1733 287.173C55.1198 285.131 78.0782 283.183 101.06 281.33C101.108 293.875 101.167 306.421 101.214 318.956Z" fill="#D8DEE8"/>
<path d="M92.593 320.439C72.8646 321.187 53.1483 321.998 33.4441 322.89C25.0737 323.187 18.2637 315.33 18.0823 305.371C18.0823 305.33 18.0823 305.299 18.0823 305.258C17.8888 295.298 24.4447 286.59 32.8514 285.841C52.6645 283.779 72.4896 281.779 92.339 279.851C93.3792 279.768 105.511 280.651 105.511 281.748C105.511 282.835 94.2018 283.697 93.1736 283.779C73.0702 285.584 52.979 287.472 32.8998 289.431C26.114 289.995 20.8039 297.021 20.949 305.083C20.949 305.124 20.949 305.155 20.949 305.196C21.0942 313.258 26.622 319.587 33.3836 319.31C53.0999 318.305 72.8283 317.382 92.5688 316.52C93.597 316.479 105.657 317.546 105.669 318.644C105.669 319.721 93.6332 320.397 92.593 320.439Z" fill="#B3040D"/>
<path d="M212.843 317.196C173.688 317.104 134.543 317.42 95.4173 318.132C95.3577 305.975 95.298 293.828 95.2383 281.671C134.622 281.997 173.987 282.729 213.341 283.869C213.172 294.988 213.013 306.087 212.843 317.196Z" fill="#F4F7FA"/>
<path d="M214.291 285.791C174.22 284.683 134.13 284.001 94.0292 283.736C93.2135 283.726 92.5569 282.851 92.547 281.783C92.537 280.705 93.2036 279.84 94.0093 279.85C134.13 280.227 174.25 281.02 214.34 282.251C215.017 282.272 215.554 283.085 215.534 284.062C215.524 285.039 214.967 285.812 214.291 285.791Z" fill="#FF3D46"/>
<path d="M213.793 318.976C173.922 318.935 134.07 319.312 94.2185 320.105C93.4127 320.126 92.7462 319.261 92.7462 318.183C92.7363 317.104 93.3928 316.219 94.1986 316.209C134.07 315.527 173.962 315.263 213.843 315.416C214.52 315.416 215.047 316.219 215.037 317.196C215.017 318.183 214.46 318.976 213.793 318.976Z" fill="#FF3D46"/>
<path d="M109.321 319.316H109.31L107.338 319.305L98.7336 319.566L47.8865 321.351C46.3801 321.394 44.9388 321.666 43.595 322.177C37.7322 324.397 33.755 330.718 34.1885 338.018L34.1993 338.116C34.687 346.188 40.4306 352.716 47.453 353.716C48.179 353.825 48.916 353.869 49.6637 353.847L92.2205 352.161L98.9611 351.9L101.562 351.802L109.05 351.464L110.611 351.356H110.622L111.153 351.377L112.236 351.356L112.269 351.04L112.388 349.669L112.399 349.506L112.497 348.386L114.892 322.101L115.043 320.437L115.108 319.642L115.173 319.011L109.321 319.316Z" fill="#D64113"/>
<path d="M229.137 349.223L116.952 349.931C107.622 349.985 99.8949 344.534 99.6564 337.724L99.4939 333.089C99.2555 326.236 106.646 320.546 116.053 320.415L229.126 318.783L229.137 349.223Z" fill="#F4F7FA"/>
<path d="M230.348 350.823L112.192 351.519C104.108 351.562 97.3019 344.404 96.9768 335.526V335.428C96.6517 326.507 103.002 319.109 111.152 318.99L230.337 317.216C231.182 317.206 231.876 317.924 231.876 318.837C231.876 319.74 231.193 320.48 230.348 320.491L111.249 322.156C104.682 322.243 99.5668 328.194 99.8161 335.396V335.494C100.065 342.663 105.56 348.44 112.084 348.396L230.337 347.602C231.182 347.591 231.854 348.309 231.854 349.201C231.865 350.094 231.182 350.823 230.348 350.823Z" fill="#DC582F"/>
<path d="M86.4294 378.067L84.3938 378.132L76.9417 378.361L72.9656 378.48L38.9192 379.534L37.4907 379.578L31.0267 379.774L20.6699 380.089L16.4796 380.219C15.1701 380.241 13.8963 380.491 12.694 380.958C11.8726 381.263 11.1107 381.676 10.3607 382.165C5.24188 385.48 1.75391 392.654 1.75391 400.893V401.013C1.75391 412.252 8.28938 421.676 16.5153 422.013L84.4057 423.741L88.727 423.85L88.965 421.654L89.0841 420.589L93.0958 384.056L93.3816 381.948L93.6792 379.665L93.7863 378.208L93.7982 377.828L86.4294 378.067Z" fill="#079A54"/>
<path d="M216.216 380.653V418.6L182.391 419.819L96.4833 422.919C93.7953 423.017 91.2263 422.658 88.8714 421.929C81.3903 419.601 76.0977 413.52 76.0977 406.176V399.627C76.0977 390.923 83.5668 383.634 93.2482 382.187C94.3068 382.024 95.4129 381.937 96.519 381.926L171.817 381.121L216.216 380.653Z" fill="#F4F7FA"/>
<path d="M218.996 418.513C218.996 419.623 218.342 420.558 217.545 420.591L185.099 421.809L90.7714 425.334C88.5116 425.421 86.4302 424.953 84.4321 424.029C77.7717 420.961 73.1094 412.823 73.1094 403.119V402.977C73.1094 390.412 81.0186 380.098 90.7595 379.935H90.8189L93.5307 379.903L172.778 379.141L217.533 378.706C217.533 378.706 217.533 378.706 217.545 378.706C218.342 378.706 218.996 379.62 218.996 380.74C218.996 381.85 218.342 382.775 217.545 382.786L216.392 382.807L171.113 383.362L93.0311 384.309L90.8308 384.341C82.9454 384.439 76.5228 392.762 76.5228 402.912V403.054C76.5228 412.442 82.0058 420.014 89.0706 420.885C89.6415 420.95 90.2005 420.983 90.7952 420.961L180.247 417.849L216.392 416.598L217.545 416.555C218.342 416.511 218.996 417.392 218.996 418.513Z" fill="#129858"/>
<path d="M109.05 378.836L46.4557 380.251C40.7012 380.381 36.1172 375.812 36.1172 370.035V366.118C36.1172 360.352 40.7012 355.381 46.4557 355.022L109.05 351.094V378.836Z" fill="#D8DEE8"/>
<path d="M100.24 380.088L47.236 381.578C39.7368 381.73 33.7656 375.758 33.7656 368.262V368.175C33.7656 360.679 39.7368 354.195 47.236 353.716L100.24 349.549C101.172 349.495 111.954 350.191 111.954 351.007C111.954 351.823 101.887 352.443 100.955 352.509L47.236 356.414C41.1781 356.784 36.334 362.006 36.334 368.077V368.164C36.334 374.235 41.1781 379.043 47.236 378.891L100.24 377.139C101.161 377.118 111.954 377.944 111.954 378.771C111.954 379.587 101.172 380.066 100.24 380.088Z" fill="url(#paint2_linear_528:2)"/>
<path d="M248.266 352.149V377.411L203.552 377.781L120.283 378.456L113.491 378.51L110.561 378.532L102.788 378.586L101.98 378.597V350.953L109.89 350.964L113.888 351.029L114.273 351.04L149.289 351.334L248.266 352.149Z" fill="#F4F7FA"/>
<path d="M249.652 353.586L100.485 352.509C99.4797 352.498 98.6602 351.834 98.6602 351.018C98.6602 350.202 99.4797 349.55 100.485 349.56L249.652 350.899C250.496 350.909 251.167 351.519 251.167 352.259C251.167 352.998 250.484 353.586 249.652 353.586Z" fill="url(#paint3_linear_528:2)"/>
<path d="M251.167 377.368C251.167 378.107 250.484 378.706 249.652 378.706C249.652 378.706 249.652 378.706 249.639 378.706L202.901 379.141L120.154 379.903L117.298 379.935L117.186 380.033L100.485 380.272H100.461C99.6535 380.272 98.9706 379.75 98.7347 379.163C98.6974 379.054 98.6726 378.891 98.6602 378.76C98.6602 378.728 98.6602 378.684 98.6602 378.651C98.6602 377.836 99.4797 377.139 100.485 377.139H100.548L102 377.128L110.581 377.063L204.466 376.389L248.447 376.073L249.652 376.051C250.484 376.04 251.167 376.628 251.167 377.368Z" fill="url(#paint4_linear_528:2)"/>
<path opacity="0.5" d="M70.0457 419.396L53.6133 418.59C49.639 408.906 49.9447 399.582 53.6133 388.22L70.0457 388.264C66.7465 399.865 67.256 410.115 70.0457 419.396Z" fill="white"/>
<path opacity="0.3" d="M66.3967 381.36L65.9524 363.856L49.9028 381.589C49.9028 381.589 41.2332 386.278 42.7179 394.513L52.6337 390.553L61.4442 393.621C61.455 393.621 61.6826 384.972 66.3967 381.36Z" fill="url(#paint5_linear_528:2)"/>
<path d="M48.1002 364.954L65.9488 363.855C65.9488 363.855 57.5501 370.263 61.4514 393.621C61.4514 393.621 53.8222 391.184 50.5061 387.017L42.7251 394.513C42.7251 394.513 37.9785 373.745 48.1002 364.954Z" fill="#2C5CAA"/>
<defs>
<linearGradient id="paint0_linear_528:2" x1="117.232" y1="200.759" x2="123.508" y2="250.645" gradientUnits="userSpaceOnUse">
<stop offset="0.00487805" stop-color="#FF5964"/>
<stop offset="0.3784" stop-color="#FF3A43"/>
<stop offset="1" stop-color="#FF0005"/>
</linearGradient>
<linearGradient id="paint1_linear_528:2" x1="128.083" y1="154.867" x2="156.361" y2="199.695" gradientUnits="userSpaceOnUse">
<stop offset="0.00487805" stop-color="#FF5964"/>
<stop offset="0.3784" stop-color="#FF3A43"/>
<stop offset="1" stop-color="#FF0005"/>
</linearGradient>
<linearGradient id="paint2_linear_528:2" x1="31.1587" y1="365.1" x2="118.024" y2="366.045" gradientUnits="userSpaceOnUse">
<stop stop-color="#FFC444"/>
<stop offset="0.9964" stop-color="#F36F56"/>
</linearGradient>
<linearGradient id="paint3_linear_528:2" x1="-875.767" y1="266.138" x2="-1142.34" y2="237.864" gradientUnits="userSpaceOnUse">
<stop stop-color="#FFC444"/>
<stop offset="0.9964" stop-color="#F36F56"/>
</linearGradient>
<linearGradient id="paint4_linear_528:2" x1="-878.523" y1="292.376" x2="-1145.08" y2="264.102" gradientUnits="userSpaceOnUse">
<stop stop-color="#FFC444"/>
<stop offset="0.9964" stop-color="#F36F56"/>
</linearGradient>
<linearGradient id="paint5_linear_528:2" x1="59.593" y1="386.99" x2="53.4731" y2="377.965" gradientUnits="userSpaceOnUse">
<stop stop-color="#FFC444"/>
<stop offset="0.9964" stop-color="#F36F56"/>
</linearGradient>
<clipPath id="clip0_528:2">
<rect width="230" height="286" fill="white"/>
</clipPath>
</defs>
</svg>
