<svg width="218" height="333" viewBox="0 0 218 333" fill="none" xmlns="http://www.w3.org/2000/svg">
<g clip-path="url(#clip0_528:3)">
<path d="M153.305 139.298C153.948 141.537 155.379 143.459 157.325 144.699C158.548 145.513 170.346 142.286 175.267 141.989C178.26 141.81 178.818 139.576 181.381 136.896C183.944 134.216 186.507 130.801 189.04 132.429C191.359 133.908 189.187 134.851 187.769 137.035C187.326 137.716 186.921 138.422 186.556 139.149C186.556 139.149 194.382 134.265 196.681 136.717C198.98 139.169 191.33 140.916 191.33 140.916C191.33 140.916 198.539 139.546 198.98 142.197C199.42 144.848 191.154 145.175 191.154 145.175C191.154 145.175 198.745 144.867 198.334 147.399C197.923 149.93 190.508 148.977 190.508 148.977C190.508 148.977 196.172 149.97 195.507 151.955C194.842 153.941 184.051 155.211 179.385 151.439C179.385 151.439 163.733 156.859 154.078 157.207C142.886 157.604 138.523 142.862 138.523 142.862L153.305 139.298Z" fill="#FECC8D"/>
<path d="M195.501 151.985C188.35 153.891 180.524 149.702 179.154 150C177.785 150.297 162.671 155.39 154.845 153.583C147.019 151.777 146.432 143.835 146.432 143.835L138.919 142.842L138.566 142.922C138.566 142.922 142.929 157.663 154.121 157.266C163.786 156.919 179.428 151.499 179.428 151.499C184.045 155.241 194.836 153.911 195.501 151.985Z" fill="#FAAC73"/>
<path d="M77.4201 127.892C74.9493 127.685 72.466 127.685 69.9952 127.892C68.5278 128.021 60.2126 119.434 55.879 117.518C53.1301 116.297 53.9225 113.686 52.8757 110.092C51.829 106.499 51.2029 102.27 48.2095 102.488C45.4703 102.677 46.9475 104.553 47.1725 107.154C47.2486 107.965 47.278 108.781 47.2605 109.596C47.2605 109.596 42.653 101.545 39.4345 102.597C36.2161 103.65 42.1932 108.861 42.1932 108.861C42.1932 108.861 36.4704 104.195 34.8563 106.32C33.2422 108.444 40.3834 112.743 40.3834 112.743C40.3834 112.743 33.8389 108.822 33.027 111.254C32.215 113.686 39.1606 116.386 39.1606 116.386C39.1606 116.386 33.6922 114.559 33.3791 116.585C33.0661 118.61 41.9486 124.943 47.8279 123.871C47.8279 123.871 56.5148 136.776 65.7691 139.665C75.0234 142.554 80.443 140.658 80.443 140.658L77.4201 127.892Z" fill="#FECC8D"/>
<path d="M70.0006 127.912C68.5332 128.041 60.218 119.454 55.8844 117.538C53.1355 116.317 53.9278 113.706 52.8811 110.112C51.8344 106.518 51.2083 102.289 48.2148 102.508C49.3007 104.722 51.7268 109.943 52.03 113.507C52.4213 118.133 52.2257 119.344 55.943 120.347C59.6604 121.35 64.4637 128.189 66.8408 129.798C69.218 131.406 70.5973 136.022 70.0104 137.63C69.4919 139.03 59.5235 135.555 53.9376 131.317C57.205 134.741 61.4408 138.345 65.8136 139.685C75.0679 142.514 80.4875 140.678 80.4875 140.678L77.3962 127.862C74.9338 127.673 72.4603 127.69 70.0006 127.912Z" fill="#FAAC73"/>
<path d="M60.4956 101.218C60.4956 101.218 65.514 103.392 67.9988 111.036C68.7423 113.359 75.4922 110.271 77.2139 103.094C78.9357 95.9164 65.0151 88.7291 65.0151 88.7291H57.3945L60.4956 101.218Z" fill="#5D2016"/>
<path d="M61.137 84.5797C61.137 84.5797 49.1926 86.9027 53.8588 96.6115C58.5251 106.32 68.4642 101.357 68.4642 101.357C68.4642 101.357 72.5924 113.726 106 116.972C139.407 120.218 163.208 94.219 166.544 68.1701C169.88 42.1212 150.598 20.609 149.806 20.5196C149.014 20.4303 112.789 20.8869 112.789 20.8869L81.4848 29.5037L66.0088 45.7148L61.137 84.5797Z" fill="#FECC8D"/>
<path d="M105.999 117.012C129.096 119.255 147.604 107.511 157.925 91.4293C147.379 100.582 135.2 117.508 102.869 112.951C72.7385 108.693 72.3569 83.1103 74.1863 76.9555C76.0156 70.8006 78.9015 63.2659 77.2776 54.3413C77.2776 54.3413 101.881 53.9542 118.041 46.5783C134.202 39.2024 154.159 45.665 155.489 56.9919C156.819 68.3188 159.285 79.4273 164.411 77.7298C165.404 74.6285 166.118 71.4421 166.543 68.2096C169.869 42.1508 150.598 20.6485 149.805 20.5592C149.013 20.4699 112.788 20.9265 112.788 20.9265L81.4841 29.5433L66.0081 45.7543L62.4766 74.1361L63.8657 78.3354C63.8657 78.3354 63.6016 90.8535 68.5026 101.386C68.708 101.823 68.9624 102.26 69.1972 102.697C71.2711 105.963 79.2439 114.411 105.999 117.012Z" fill="#FAAC73"/>
<path d="M142.126 59.4638C132.598 60.7543 130.387 75.1884 138.155 81.2042C145.922 87.2201 154.971 77.5808 153.709 68.4875C152.447 59.3942 146.098 58.888 142.126 59.4638Z" fill="white"/>
<path d="M99.7339 60.6451C88.4644 62.015 86.5959 71.1083 92.0742 80.7773C97.5524 90.4464 110.886 85.4034 113.204 76.3597C113.76 74.3706 113.819 72.2722 113.374 70.2544C112.93 68.2366 111.997 66.363 110.66 64.803C109.323 63.2431 107.624 62.046 105.716 61.32C103.808 60.594 101.752 60.362 99.7339 60.6451Z" fill="white"/>
<path d="M105.73 76.2773C107.666 73.968 107.391 70.5034 105.116 68.5388C102.84 66.5742 99.4258 66.8535 97.4898 69.1627C95.5538 71.472 95.8291 74.9367 98.1047 76.9013C100.38 78.8659 103.794 78.5865 105.73 76.2773Z" fill="#5D2016"/>
<path d="M102.013 70.8006C102.047 71.2625 101.945 71.7242 101.72 72.1273C101.495 72.5304 101.157 72.8568 100.75 73.0651C100.342 73.2735 99.8824 73.3545 99.4293 73.298C98.9762 73.2414 98.5498 73.0499 98.204 72.7475C97.8582 72.4451 97.6085 72.0455 97.4864 71.5991C97.3644 71.1528 97.3754 70.6797 97.5182 70.2397C97.6611 69.7997 97.9292 69.4126 98.2888 69.1272C98.6484 68.8419 99.0833 68.6711 99.5385 68.6364C99.8413 68.6121 100.146 68.6489 100.435 68.7447C100.723 68.8405 100.991 68.9935 101.221 69.1947C101.451 69.396 101.639 69.6415 101.775 69.9171C101.912 70.1928 101.992 70.493 102.013 70.8006Z" fill="white"/>
<path d="M105.177 75.6255C105.195 75.7663 105.183 75.9094 105.142 76.0451C105.102 76.1809 105.032 76.3062 104.94 76.4125C104.847 76.5188 104.733 76.6037 104.605 76.6615C104.477 76.7192 104.339 76.7485 104.199 76.7473C103.995 76.7585 103.792 76.7083 103.615 76.6028C103.439 76.4974 103.298 76.3414 103.209 76.1546C103.12 75.9677 103.087 75.7584 103.115 75.5528C103.143 75.3472 103.23 75.1546 103.366 74.9992C103.501 74.8438 103.679 74.7325 103.877 74.6794C104.075 74.6262 104.283 74.6336 104.477 74.7005C104.67 74.7675 104.84 74.891 104.965 75.0556C105.089 75.2202 105.163 75.4184 105.177 75.6255Z" fill="white"/>
<path d="M147.496 69.9767C147.561 70.8757 147.362 71.7742 146.924 72.5585C146.486 73.3428 145.829 73.9776 145.035 74.3828C144.242 74.7879 143.348 74.945 142.466 74.8343C141.585 74.7236 140.755 74.3501 140.083 73.7609C139.411 73.1717 138.926 72.3935 138.689 71.5245C138.453 70.6556 138.476 69.735 138.755 68.8793C139.035 68.0236 139.558 67.2712 140.259 66.7173C140.959 66.1634 141.806 65.8329 142.692 65.7676C143.879 65.6801 145.052 66.0743 145.952 66.8636C146.853 67.6528 147.408 68.7725 147.496 69.9767Z" fill="#5D2016"/>
<path d="M143.361 68.7454C143.398 69.1397 143.317 69.536 143.13 69.8835C142.943 70.231 142.658 70.5137 142.311 70.6954C141.964 70.877 141.572 70.9493 141.184 70.9029C140.797 70.8565 140.432 70.6935 140.136 70.435C139.841 70.1765 139.628 69.8342 139.526 69.452C139.423 69.0699 139.436 68.6655 139.562 68.2906C139.688 67.9158 139.921 67.5877 140.232 67.3486C140.543 67.1094 140.918 66.9702 141.307 66.9486C141.812 66.9207 142.308 67.0922 142.691 67.4272C143.074 67.7622 143.314 68.2346 143.361 68.7454Z" fill="white"/>
<path d="M145.977 72.7165C145.991 72.9461 145.916 73.1721 145.768 73.3463C145.62 73.5206 145.411 73.6294 145.185 73.6496C144.958 73.6661 144.734 73.5907 144.562 73.44C144.39 73.2894 144.283 73.0757 144.265 72.8455C144.255 72.731 144.267 72.6154 144.301 72.5058C144.336 72.3962 144.392 72.2947 144.466 72.2076C144.54 72.1204 144.63 72.0493 144.732 71.9986C144.834 71.9479 144.945 71.9186 145.058 71.9124C145.17 71.9029 145.284 71.9163 145.391 71.9517C145.499 71.9871 145.598 72.044 145.684 72.1188C145.769 72.1937 145.839 72.2851 145.89 72.3877C145.94 72.4903 145.97 72.6021 145.977 72.7165Z" fill="white"/>
<path d="M97.5262 53.2195C96.8512 51.9488 88.4676 52.6537 88.2426 58.5802C88.0958 62.3724 91.7349 57.0514 93.7012 56.5948C95.6675 56.1381 98.3284 54.7284 97.5262 53.2195Z" fill="#5D2016"/>
<path d="M140.654 50.6584C141.026 49.2686 149.351 47.998 150.906 53.716C151.884 57.3692 147.159 53.041 145.144 53.0608C143.129 53.0807 140.214 52.3163 140.654 50.6584Z" fill="#5D2016"/>
<path d="M117.669 94.3677C117.992 92.4915 122.56 96.2142 126.219 94.5266C129.877 92.839 127.412 99.8773 123.284 100.592C119.156 101.307 117.14 97.604 117.669 94.3677Z" fill="#F16275"/>
<path d="M121.647 77.7498C124.435 75.1191 132.408 81.1747 130.334 85.1555C128.26 89.1363 121.53 87.2303 120.786 85.0662C120.043 82.902 120.718 78.6135 121.647 77.7498Z" fill="#FAAC73"/>
<path d="M72.67 49.7253C72.67 49.7253 71.3885 82.1276 61.1657 84.5797C52.2831 86.7041 52.7625 94.3678 55.2277 98.8946C55.2277 98.8946 46.3256 96.7802 40.2213 77.7497C34.117 58.7193 39.9865 44.2058 49.6614 40.3243C49.6614 40.3243 47.7538 8.85513 95.1111 1.4296C142.468 -5.99593 165.878 16.4494 169.458 44.7617C173.039 73.074 169.928 78.8517 163.863 78.6035C157.798 78.3553 165.956 52.9318 146.871 41.1383C127.785 29.3448 102.614 50.5691 72.67 49.7253Z" fill="#5D2016"/>
<path d="M61.9073 89.7617C56.5465 89.3149 56.6639 96.7901 60.6062 97.5545C64.5486 98.3189 66.8279 95.5691 64.6856 94.7054C62.5432 93.8418 66.6029 90.1588 61.9073 89.7617Z" fill="#FAAC73"/>
<path d="M119.898 213.871C119.898 213.871 126.453 243.385 127.578 246.849C128.703 250.314 141.224 253.014 141.224 253.014L145.949 248.438L145.49 247.385C143.443 246.78 141.616 245.579 140.236 243.931C138.446 241.429 137.507 210.357 137.507 210.357L119.898 213.871Z" fill="#FECC8D"/>
<path d="M130.209 235.919C122.54 223.292 130.405 214 130.405 214L129.045 212.015L119.898 213.841C119.898 213.841 124.134 232.921 126.384 242.193C130.581 243.395 134.66 243.256 130.209 235.919Z" fill="#FAAC73"/>
<path d="M140.238 243.931C139.534 242.938 138.967 237.557 138.526 231.383C133.841 233.944 127.814 234.043 124.41 233.835C125.829 239.96 127.13 245.469 127.58 246.849C128.714 250.314 141.226 253.014 141.226 253.014L145.951 248.437L145.491 247.385C143.445 246.78 141.618 245.579 140.238 243.931Z" fill="white"/>
<path d="M127.575 246.849C130.399 247.919 133.304 248.749 136.262 249.331C142.239 250.661 143.609 249.033 144.979 247.405C146.348 245.777 154.164 246.69 155.974 250.433C157.784 254.175 153.039 257.054 143.462 259.169C133.885 261.283 124.132 257.481 123.33 255.664C122.528 253.848 125.277 247.504 127.575 246.849Z" fill="#252525"/>
<path d="M123.136 254.86C128.178 256.156 133.325 256.987 138.514 257.342C148.884 258.146 155.145 253.59 156.406 252.16C156.609 252.397 156.764 252.671 156.862 252.968C156.96 253.266 156.999 253.58 156.977 253.892C156.955 254.205 156.873 254.51 156.735 254.79C156.597 255.071 156.405 255.32 156.172 255.525C154.47 257.223 147.465 261.76 138.348 260.638C129.231 259.516 123.733 258.514 122.872 257.878C122.011 257.243 122.05 254.771 123.136 254.86Z" fill="#151515"/>
<path d="M105.176 213.871C105.176 213.871 98.6215 243.384 97.4965 246.849C96.3715 250.313 83.8499 253.014 83.8499 253.014L79.1249 248.437L79.5847 247.385C81.6312 246.78 83.4578 245.579 84.8379 243.93C86.6281 241.429 87.5672 210.357 87.5672 210.357L105.176 213.871Z" fill="#FECC8D"/>
<path d="M94.865 235.92C102.534 223.292 94.6694 214 94.6694 214L96.0291 212.015L105.176 213.842C105.176 213.842 100.94 232.922 98.69 242.194C94.4933 243.395 90.4139 243.256 94.865 235.92Z" fill="#FAAC73"/>
<path d="M84.8398 243.931C85.5442 242.938 86.1116 237.557 86.5518 231.383C91.2376 233.944 97.2636 234.043 100.668 233.835C99.2495 239.96 97.9484 245.469 97.4984 246.849C96.3637 250.314 83.8518 253.014 83.8518 253.014L79.1268 248.438L79.5866 247.385C81.6332 246.78 83.4598 245.579 84.8398 243.931Z" fill="white"/>
<path d="M97.4949 246.849C94.6718 247.919 91.7662 248.749 88.808 249.331C82.8308 250.661 81.4613 249.033 80.0917 247.405C78.7222 245.777 70.9059 246.691 69.0962 250.433C67.2864 254.176 72.0309 257.055 81.608 259.169C91.1852 261.284 100.938 257.481 101.741 255.665C102.543 253.848 99.7938 247.505 97.4949 246.849Z" fill="#252525"/>
<path d="M101.938 254.86C96.8962 256.156 91.7493 256.987 86.56 257.342C76.1905 258.146 69.9297 253.59 68.6677 252.16C68.465 252.397 68.3102 252.671 68.2123 252.969C68.1144 253.266 68.0752 253.58 68.097 253.892C68.1188 254.205 68.2012 254.51 68.3394 254.79C68.4777 255.071 68.669 255.32 68.9025 255.526C70.6047 257.223 77.609 261.76 86.7263 260.638C95.8436 259.516 101.341 258.514 102.202 257.878C103.063 257.243 103.024 254.771 101.938 254.86Z" fill="#151515"/>
<path d="M85.4719 175.036C85.4719 175.036 78.2915 215.122 79.4165 218.944C81.0893 224.612 105.604 227.263 109.625 221.753C111.738 218.904 112.775 207.796 112.775 207.796C112.775 207.796 114.115 220.066 116.326 221.555C120.689 224.533 135.05 220.661 140.782 215.717C142.847 213.921 140.91 182.6 138.043 176.346C135.177 170.092 115.23 183.722 85.4719 175.036Z" fill="#2C5CAA"/>
<path d="M122.306 217.822C116.133 213.851 114.382 196.975 113.814 198.236C113.247 199.496 112.777 207.796 112.777 207.796C112.777 207.796 114.118 220.066 116.328 221.555C120.007 224.036 130.816 221.684 137.527 217.911C133.252 219.996 127.06 220.84 122.306 217.822Z" fill="#1E489E"/>
<path d="M104.391 178.014C97.9851 177.849 91.6264 176.848 85.4719 175.036C85.4719 175.036 78.2915 215.122 79.4165 218.944C81.0893 224.612 105.604 227.263 109.625 221.753C107.091 223.917 100.097 223.987 93.562 220.959C87.0273 217.931 85.1882 207.359 89.0034 196.737C92.8186 186.115 103.619 178.183 104.391 178.014Z" fill="#1E489E"/>
<path d="M115.575 138.444C115.575 138.444 120.143 127.723 108.629 120.953C97.1152 114.182 73.4121 125.311 71.9838 126.075C70.5556 126.84 72.473 142.237 74.4588 143.16C77.9316 144.768 90.6881 136.499 95.8533 139.844C101.018 143.19 114.019 138.802 115.575 138.444Z" fill="white"/>
<path d="M116.328 119.205C116.328 119.205 126.111 116.783 138.887 120.585C151.663 124.387 154.998 140.291 155.409 141.879C155.82 143.467 140.511 147.617 138.652 146.465C136.793 145.314 136.695 134.92 130.757 133.421C124.819 131.922 117.14 120.595 116.328 119.205Z" fill="white"/>
<path d="M100.172 114.957C100.172 114.957 101.757 118.679 101.356 120.913C100.954 123.147 115.57 125.4 115.57 125.4L121.371 121.767C121.371 121.767 123.474 116.744 123.2 115.404C122.926 114.063 100.172 114.957 100.172 114.957Z" fill="#FAAC73"/>
<path d="M103.972 118.729C103.972 118.729 105.527 123.216 114.087 123.921C122.647 124.626 121.404 118.292 121.404 118.292C121.404 118.292 133.564 118.57 137.448 130.373C141.332 142.177 141.909 175.185 140.93 178.778C140.93 178.778 116.024 196.508 82.9102 174.42C82.9102 174.42 87.1166 160.949 87.3025 150.863C87.5471 140.479 76.5808 119.771 103.972 118.729Z" fill="white"/>
<path d="M110.114 131.267C110.114 131.267 103.854 163.838 102.905 166.618C101.956 169.397 113.127 180.853 115.475 181.34C117.823 181.826 125.463 171.234 126.158 169.854C126.852 168.474 115.289 130.443 115.289 130.443L110.114 131.267Z" fill="#2C5CAA"/>
<path d="M106.907 130.959C106.907 130.959 110.869 134.116 113.667 133.808C116.465 133.501 119.409 128.984 119.409 128.984L115.711 124.229C115.711 124.229 115.31 123.405 112.072 124.1C108.834 124.795 105.293 128.08 106.907 130.959Z" fill="#1E489E"/>
<path d="M122.978 156.601L106.074 172.653C107.374 174.248 108.759 175.769 110.222 177.21L124.593 162.528C124.123 160.741 123.536 158.736 122.978 156.601Z" fill="#1E489E"/>
<path d="M119.559 144.748L104.601 159.152C103.799 162.984 103.163 165.893 102.909 166.638C102.827 166.936 102.827 167.252 102.909 167.551L121.036 149.93C120.606 148.163 120.058 146.426 119.559 144.748Z" fill="#1E489E"/>
<path d="M102.513 117.458C98.2185 117.617 98.8739 118.034 97.8467 120.595C96.8196 123.157 102.22 130.582 105.311 132.141C108.402 133.699 111.846 125.192 113.137 124.318C114.428 123.444 104.245 117.458 102.513 117.458Z" fill="#E6E7E8"/>
<path d="M120.974 118.024C124.388 118.024 123.908 118.342 124.838 120.327C125.767 122.313 121.903 128.408 119.536 129.758C117.168 131.108 113.999 124.477 112.932 123.871C111.866 123.266 119.624 118.044 120.974 118.024Z" fill="#E6E7E8"/>
</g>
<path d="M85.199 285.685L83.1633 285.75L75.7112 285.979L71.7352 286.098L37.6888 287.153L36.2602 287.196L29.7962 287.392L19.4394 287.707L15.2491 287.837C13.9396 287.859 12.6659 288.109 11.4635 288.576C10.6421 288.881 9.88024 289.294 9.13027 289.783C4.01141 293.098 0.523438 300.272 0.523438 308.511V308.631C0.523438 319.87 7.05892 329.294 15.2848 329.631L83.1752 331.359L87.4965 331.468L87.7346 329.272L87.8536 328.207L91.8654 291.674L92.1511 289.566L92.4487 287.283L92.5558 285.826L92.5677 285.446L85.199 285.685Z" fill="#079A54"/>
<path d="M214.986 288.271V326.218L181.16 327.437L95.2528 330.537C92.5649 330.635 89.9958 330.276 87.6409 329.547C80.1598 327.219 74.8672 321.138 74.8672 313.794V307.245C74.8672 298.541 82.3364 291.252 92.0178 289.805C93.0763 289.642 94.1824 289.555 95.2885 289.544L170.587 288.739L214.986 288.271Z" fill="#F4F7FA"/>
<path d="M217.766 326.131C217.766 327.241 217.112 328.176 216.315 328.209L183.869 329.427L89.5409 332.952C87.2811 333.039 85.1997 332.571 83.2016 331.647C76.5412 328.579 71.8789 320.441 71.8789 310.737V310.595C71.8789 298.03 79.7882 287.716 89.529 287.553H89.5885L92.3002 287.521L171.547 286.759L216.303 286.324C216.303 286.324 216.303 286.324 216.315 286.324C217.112 286.324 217.766 287.238 217.766 288.358C217.766 289.468 217.112 290.393 216.315 290.404L215.161 290.425L169.882 290.98L91.8007 291.927L89.6004 291.959C81.7149 292.057 75.2924 300.38 75.2924 310.53V310.672C75.2924 320.06 80.7753 327.632 87.8401 328.503C88.411 328.568 88.97 328.601 89.5647 328.579L179.016 325.467L215.161 324.216L216.315 324.173C217.112 324.129 217.766 325.01 217.766 326.131Z" fill="#129858"/>
<path d="M107.82 286.454L45.2252 287.869C39.4708 287.999 34.8867 283.43 34.8867 277.653V273.736C34.8867 267.97 39.4708 262.999 45.2252 262.64L107.82 258.712V286.454Z" fill="#D8DEE8"/>
<path d="M99.0092 287.706L46.0055 289.196C38.5063 289.349 32.5352 283.376 32.5352 275.88V275.793C32.5352 268.297 38.5063 261.813 46.0055 261.334L99.0092 257.168C99.9412 257.113 110.724 257.809 110.724 258.625C110.724 259.441 100.656 260.061 99.7244 260.127L46.0055 264.032C39.9476 264.402 35.1035 269.624 35.1035 275.695V275.782C35.1035 281.853 39.9476 286.661 46.0055 286.509L99.0092 284.757C99.9303 284.736 110.724 285.563 110.724 286.389C110.724 287.205 99.9412 287.684 99.0092 287.706Z" fill="url(#paint0_linear_528:3)"/>
<path d="M196.291 259.768V285.029L166.741 285.399L111.713 286.074L107.224 286.128L105.287 286.15L100.151 286.204L99.6172 286.215V258.571L104.844 258.582L107.487 258.647L107.741 258.658L130.882 258.952L196.291 259.768Z" fill="#F4F7FA"/>
<path d="M197.21 261.204L98.6321 260.127C97.9674 260.116 97.4258 259.452 97.4258 258.636C97.4258 257.82 97.9674 257.168 98.6321 257.178L197.21 258.517C197.768 258.528 198.211 259.137 198.211 259.877C198.211 260.616 197.759 261.204 197.21 261.204Z" fill="url(#paint1_linear_528:3)"/>
<path d="M198.211 284.986C198.211 285.726 197.759 286.324 197.21 286.324C197.21 286.324 197.21 286.324 197.201 286.324L166.314 286.759L111.63 287.521L109.743 287.553L109.669 287.651L98.6321 287.89H98.6156C98.0823 287.89 97.6309 287.368 97.475 286.781C97.4504 286.672 97.434 286.509 97.4258 286.378C97.4258 286.346 97.4258 286.302 97.4258 286.269C97.4258 285.454 97.9674 284.757 98.6321 284.757H98.6731L99.6332 284.746L105.303 284.681L167.348 284.007L196.414 283.691L197.21 283.669C197.759 283.659 198.211 284.246 198.211 284.986Z" fill="url(#paint2_linear_528:3)"/>
<path opacity="0.5" d="M68.8152 327.014L52.3829 326.208C48.4085 316.524 48.7143 307.2 52.3829 295.838L68.8152 295.882C65.516 307.483 66.0256 317.733 68.8152 327.014Z" fill="white"/>
<path opacity="0.3" d="M65.1662 288.978L64.7219 271.474L48.6724 289.207C48.6724 289.207 40.0028 293.896 41.4874 302.131L51.4033 298.171L60.2137 301.239C60.2246 301.239 60.4521 292.59 65.1662 288.978Z" fill="url(#paint3_linear_528:3)"/>
<path d="M46.8698 272.572L64.7183 271.474C64.7183 271.474 56.3196 277.881 60.221 301.239C60.221 301.239 52.5917 298.802 49.2756 294.635L41.4946 302.131C41.4946 302.131 36.748 281.363 46.8698 272.572Z" fill="#2C5CAA"/>
<defs>
<linearGradient id="paint0_linear_528:3" x1="29.9282" y1="272.718" x2="116.793" y2="273.663" gradientUnits="userSpaceOnUse">
<stop stop-color="#FFC444"/>
<stop offset="0.9964" stop-color="#F36F56"/>
</linearGradient>
<linearGradient id="paint1_linear_528:3" x1="-546.531" y1="173.756" x2="-723.806" y2="161.33" gradientUnits="userSpaceOnUse">
<stop stop-color="#FFC444"/>
<stop offset="0.9964" stop-color="#F36F56"/>
</linearGradient>
<linearGradient id="paint2_linear_528:3" x1="-548.352" y1="199.994" x2="-725.623" y2="187.568" gradientUnits="userSpaceOnUse">
<stop stop-color="#FFC444"/>
<stop offset="0.9964" stop-color="#F36F56"/>
</linearGradient>
<linearGradient id="paint3_linear_528:3" x1="58.3626" y1="294.608" x2="52.2426" y2="285.583" gradientUnits="userSpaceOnUse">
<stop stop-color="#FFC444"/>
<stop offset="0.9964" stop-color="#F36F56"/>
</linearGradient>
<clipPath id="clip0_528:3">
<rect width="166" height="274" fill="white" transform="translate(33)"/>
</clipPath>
</defs>
</svg>
